<svg width="36" height="37" viewBox="0 0 36 37" fill="none" xmlns="http://www.w3.org/2000/svg">
<path d="M28.744 16.3612L28.744 29.2436L22.2032 22.6687C24.5913 25.0695 28.6905 23.3961 28.7162 20.0099L28.744 16.3612Z" fill="#161616"/>
<path d="M28.744 29.2436L20.1557 29.2436L15.8615 29.2436L19.489 29.2305C22.9056 29.2181 24.6128 25.091 22.2032 22.6687L28.744 29.2436Z" fill="#161616"/>
<path d="M9.99797 10.4976L22.2032 22.6687M28.744 29.2436L20.1557 29.2436L15.8615 29.2436M28.744 29.2436L28.744 16.3612M28.744 29.2436L22.2032 22.6687M11.5674 29.2436L15.8615 29.2436M28.744 12.067V16.3612M15.8615 29.2436L19.489 29.2305C22.9056 29.2181 24.6128 25.091 22.2032 22.6687V22.6687M28.744 16.3612L28.7162 20.0099C28.6905 23.3961 24.5913 25.0695 22.2032 22.6687V22.6687" stroke="#161616" stroke-width="2" stroke-linecap="round" stroke-linejoin="round"/>
</svg>
