<svg width="36" height="37" viewBox="0 0 36 37" fill="none" xmlns="http://www.w3.org/2000/svg">
<path d="M28.744 20.8859L28.744 8.00345L22.2032 14.5784C24.5913 12.1776 28.6905 13.851 28.7162 17.2371L28.744 20.8859Z" fill="#161616"/>
<path d="M28.744 8.00345L20.1557 8.00345L15.8615 8.00345L19.489 8.01658C22.9056 8.02895 24.6128 12.1561 22.2032 14.5784L28.744 8.00345Z" fill="#161616"/>
<path d="M9.99797 26.7494L22.2032 14.5784M28.744 8.00345L20.1557 8.00345L15.8615 8.00345M28.744 8.00345L28.744 20.8859M28.744 8.00345L22.2032 14.5784M11.5674 8.00345L15.8615 8.00345M28.744 25.1801V20.8859M15.8615 8.00345L19.489 8.01658C22.9056 8.02895 24.6128 12.1561 22.2032 14.5784V14.5784M28.744 20.8859L28.7162 17.2371C28.6905 13.851 24.5913 12.1776 22.2032 14.5784V14.5784" stroke="#161616" stroke-width="2" stroke-linecap="round" stroke-linejoin="round"/>
</svg>
