<svg width="24" height="30" viewBox="0 0 24 30" fill="none" xmlns="http://www.w3.org/2000/svg">
<path d="M20.0481 15.4986C20.0624 14.3858 20.358 13.2947 20.9073 12.3269C21.4566 11.359 22.2418 10.5459 23.1898 9.96303C22.5876 9.1029 21.7931 8.39505 20.8694 7.8957C19.9457 7.39635 18.9183 7.11925 17.8688 7.08641C15.6301 6.85141 13.4597 8.42605 12.3188 8.42605C11.1559 8.42605 9.39944 7.10974 7.50798 7.14865C6.28453 7.18818 5.09219 7.54395 4.04713 8.1813C3.00206 8.81865 2.13991 9.71584 1.54468 10.7855C-1.03367 15.2496 0.889553 21.8103 3.35944 25.4188C4.59518 27.1857 6.0394 29.1595 7.92916 29.0895C9.77839 29.0128 10.469 27.9103 12.7012 27.9103C14.9127 27.9103 15.5606 29.0895 17.4887 29.045C19.4731 29.0128 20.7232 27.2702 21.9157 25.4865C22.8035 24.2275 23.4868 22.836 23.94 21.3636C22.7872 20.876 21.8034 20.0598 21.1113 19.0168C20.4192 17.9739 20.0494 16.7503 20.0481 15.4986Z" fill="white"/>
<path d="M16.4064 4.7123C17.4884 3.41349 18.0214 1.74407 17.8923 0.0585938C16.2394 0.232203 14.7125 1.0222 13.616 2.27118C13.0798 2.88134 12.6692 3.59119 12.4076 4.36014C12.1459 5.12909 12.0384 5.94207 12.0912 6.75259C12.9179 6.7611 13.7359 6.5819 14.4833 6.22849C15.2308 5.87508 15.8883 5.35667 16.4064 4.7123Z" fill="white"/>
</svg>
