<svg width="206" height="178" viewBox="0 0 206 178" fill="none" xmlns="http://www.w3.org/2000/svg">
<g filter="url(#filter0_b_888_26043)">
<rect width="206" height="178" rx="15" fill="#0C0C0C" fill-opacity="0.3"/>
<rect x="0.5" y="0.5" width="205" height="177" rx="14.5" stroke="white" stroke-opacity="0.3"/>
<path d="M18.6 28C19.8533 28 20.9 28.42 21.74 29.26C22.58 30.1 23 31.1467 23 32.4C23 33.6533 22.58 34.7 21.74 35.54C20.9 36.38 19.8533 36.8 18.6 36.8H15V42H13.6V28H18.6ZM18.6 35.48C19.4667 35.48 20.18 35.1933 20.74 34.62C21.3133 34.0333 21.6 33.2933 21.6 32.4C21.6 31.5067 21.3133 30.7733 20.74 30.2C20.18 29.6133 19.4667 29.32 18.6 29.32H15V35.48H18.6ZM29.0161 31.76C30.4961 31.76 31.6894 32.2867 32.5961 33.34C33.5161 34.38 33.9761 35.6133 33.9761 37.04C33.9761 37.1867 33.9628 37.3933 33.9361 37.66H25.1561C25.2894 38.6733 25.7161 39.48 26.4361 40.08C27.1694 40.6667 28.0694 40.96 29.1361 40.96C29.8961 40.96 30.5494 40.8067 31.0961 40.5C31.6561 40.18 32.0761 39.7667 32.3561 39.26L33.5161 39.94C33.0761 40.6467 32.4761 41.2067 31.7161 41.62C30.9561 42.0333 30.0894 42.24 29.1161 42.24C27.5428 42.24 26.2628 41.7467 25.2761 40.76C24.2894 39.7733 23.7961 38.52 23.7961 37C23.7961 35.5067 24.2828 34.26 25.2561 33.26C26.2294 32.26 27.4828 31.76 29.0161 31.76ZM29.0161 33.04C27.9761 33.04 27.1028 33.3533 26.3961 33.98C25.7028 34.5933 25.2894 35.3933 25.1561 36.38H32.6161C32.4828 35.3267 32.0761 34.5067 31.3961 33.92C30.7161 33.3333 29.9228 33.04 29.0161 33.04ZM47.1503 42H45.5503L41.4703 37.18V42H40.1503V37.18L36.0703 42H34.4703L38.9503 36.8L34.6703 32H36.2703L40.1503 36.44V32H41.4703V36.44L45.3503 32H46.9503L42.6703 36.8L47.1503 42ZM56.2269 32H57.3469V42H56.0269V34.3L50.0669 42H48.9469V32H50.2669V39.7L56.2269 32ZM69.9383 32V42H68.6183V34.02L65.1183 39.7H64.9583L61.4583 34.02V42H60.1383V32H61.6583L65.0383 37.48L68.4183 32H69.9383ZM81.5759 32.22L79.3759 35.82L81.5759 39.42H79.9359L77.7359 35.82L79.9359 32.22H81.5759ZM84.7759 32.22L82.5759 35.82L84.7759 39.42H83.1359L80.9359 35.82L83.1359 32.22H84.7759ZM96.4942 42L95.1942 38.56H88.5542L87.2542 42H85.7742L91.1542 28H92.5942L97.9742 42H96.4942ZM89.0542 37.24H94.6942L91.8742 29.74L89.0542 37.24ZM104.932 31.76C106.359 31.76 107.572 32.2667 108.572 33.28C109.585 34.2933 110.092 35.5333 110.092 37C110.092 38.4667 109.585 39.7067 108.572 40.72C107.572 41.7333 106.359 42.24 104.932 42.24C103.159 42.24 101.812 41.5067 100.892 40.04V46H99.5719V32H100.892V33.96C101.812 32.4933 103.159 31.76 104.932 31.76ZM102.032 39.82C102.792 40.58 103.725 40.96 104.832 40.96C105.939 40.96 106.872 40.58 107.632 39.82C108.392 39.0467 108.772 38.1067 108.772 37C108.772 35.8933 108.392 34.96 107.632 34.2C106.872 33.4267 105.939 33.04 104.832 33.04C103.725 33.04 102.792 33.4267 102.032 34.2C101.272 34.96 100.892 35.8933 100.892 37C100.892 38.1067 101.272 39.0467 102.032 39.82ZM116.727 42.24C115.287 42.24 114.087 41.7667 113.127 40.82C112.167 39.86 111.687 38.62 111.687 37.1C111.687 35.3933 111.94 34.0867 112.447 33.18C112.953 32.26 113.98 31.4267 115.527 30.68C115.82 30.5333 116.207 30.36 116.687 30.16C117.18 29.96 117.547 29.8 117.787 29.68C118.04 29.56 118.313 29.4067 118.607 29.22C118.9 29.02 119.12 28.8 119.267 28.56C119.413 28.32 119.507 28.0333 119.547 27.7L120.587 28.3C120.533 28.62 120.427 28.92 120.267 29.2C120.107 29.48 119.94 29.7067 119.767 29.88C119.607 30.0533 119.347 30.2467 118.987 30.46C118.64 30.66 118.367 30.8067 118.167 30.9C117.98 30.98 117.647 31.12 117.167 31.32C116.7 31.52 116.387 31.6533 116.227 31.72C115.293 32.12 114.607 32.54 114.167 32.98C113.727 33.4067 113.413 33.9667 113.227 34.66C113.68 34.06 114.253 33.62 114.947 33.34C115.653 33.0467 116.34 32.9 117.007 32.9C118.34 32.9 119.44 33.34 120.307 34.22C121.187 35.0867 121.627 36.2 121.627 37.56C121.627 38.9067 121.16 40.0267 120.227 40.92C119.307 41.8 118.14 42.24 116.727 42.24ZM116.727 40.92C117.767 40.92 118.62 40.6067 119.287 39.98C119.967 39.34 120.307 38.5333 120.307 37.56C120.307 36.5733 119.987 35.7667 119.347 35.14C118.72 34.5 117.88 34.18 116.827 34.18C115.88 34.18 115.02 34.48 114.247 35.08C113.473 35.6667 113.087 36.4533 113.087 37.44C113.087 38.4533 113.433 39.2867 114.127 39.94C114.833 40.5933 115.7 40.92 116.727 40.92ZM130.914 32H132.034V42H130.714V34.3L124.754 42H123.634V32H124.954V39.7L130.914 32ZM142.026 32V33.28H138.486V42H137.166V33.28H133.626V32H142.026ZM148.994 31.76C150.421 31.76 151.634 32.2667 152.634 33.28C153.648 34.2933 154.154 35.5333 154.154 37C154.154 38.4667 153.648 39.7067 152.634 40.72C151.634 41.7333 150.421 42.24 148.994 42.24C147.221 42.24 145.874 41.5067 144.954 40.04V46H143.634V32H144.954V33.96C145.874 32.4933 147.221 31.76 148.994 31.76ZM146.094 39.82C146.854 40.58 147.788 40.96 148.894 40.96C150.001 40.96 150.934 40.58 151.694 39.82C152.454 39.0467 152.834 38.1067 152.834 37C152.834 35.8933 152.454 34.96 151.694 34.2C150.934 33.4267 150.001 33.04 148.894 33.04C147.788 33.04 146.854 33.4267 146.094 34.2C145.334 34.96 144.954 35.8933 144.954 37C144.954 38.1067 145.334 39.0467 146.094 39.82ZM157.599 32.22L159.799 35.82L157.599 39.42H155.959L158.159 35.82L155.959 32.22H157.599ZM160.799 32.22L162.999 35.82L160.799 39.42H159.159L161.359 35.82L159.159 32.22H160.799Z" fill="white"/>
<path opacity="0.7" d="M20.12 93.2V103H19.14V94.124H14.1V103H13.12V93.2H20.12ZM28.0882 102.118C27.3789 102.818 26.5109 103.168 25.4842 103.168C24.4575 103.168 23.5849 102.818 22.8662 102.118C22.1569 101.409 21.8022 100.536 21.8022 99.5C21.8022 98.464 22.1569 97.596 22.8662 96.896C23.5849 96.1867 24.4575 95.832 25.4842 95.832C26.5109 95.832 27.3789 96.1867 28.0882 96.896C28.8069 97.596 29.1662 98.464 29.1662 99.5C29.1662 100.536 28.8069 101.409 28.0882 102.118ZM23.5242 101.474C24.0562 102.006 24.7095 102.272 25.4842 102.272C26.2589 102.272 26.9122 102.006 27.4442 101.474C27.9762 100.933 28.2422 100.275 28.2422 99.5C28.2422 98.7253 27.9762 98.072 27.4442 97.54C26.9122 96.9987 26.2589 96.728 25.4842 96.728C24.7095 96.728 24.0562 96.9987 23.5242 97.54C22.9922 98.072 22.7262 98.7253 22.7262 99.5C22.7262 100.275 22.9922 100.933 23.5242 101.474ZM34.051 99.402C34.863 99.71 35.269 100.27 35.269 101.082C35.269 101.661 35.0403 102.155 34.583 102.566C34.135 102.967 33.491 103.168 32.651 103.168C31.2417 103.168 30.3177 102.608 29.879 101.488L30.663 101.026C30.9523 101.857 31.615 102.272 32.651 102.272C33.1923 102.272 33.6077 102.155 33.897 101.922C34.1957 101.689 34.345 101.39 34.345 101.026C34.345 100.699 34.2237 100.433 33.981 100.228C33.7383 100.023 33.4117 99.92 33.001 99.92H31.979V99.024H32.721C33.1223 99.024 33.435 98.926 33.659 98.73C33.8923 98.5247 34.009 98.2447 34.009 97.89C34.009 97.554 33.8737 97.2787 33.603 97.064C33.3323 96.84 32.9683 96.728 32.511 96.728C31.6337 96.728 31.0503 97.078 30.761 97.778L29.991 97.33C30.4577 96.3313 31.2977 95.832 32.511 95.832C33.2483 95.832 33.8363 96.028 34.275 96.42C34.7137 96.8027 34.933 97.274 34.933 97.834C34.933 98.5527 34.639 99.0753 34.051 99.402ZM41.1254 99.402C41.8907 99.682 42.2734 100.228 42.2734 101.04C42.2734 101.609 42.082 102.081 41.6994 102.454C41.326 102.818 40.7847 103 40.0754 103H36.6734V96H39.7954C40.4767 96 41.004 96.1773 41.3774 96.532C41.7507 96.8773 41.9374 97.3253 41.9374 97.876C41.9374 98.576 41.6667 99.0847 41.1254 99.402ZM39.7954 96.896H37.5974V99.024H39.7954C40.6074 99.024 41.0134 98.66 41.0134 97.932C41.0134 97.6053 40.906 97.3533 40.6914 97.176C40.486 96.9893 40.1874 96.896 39.7954 96.896ZM40.0754 102.104C40.486 102.104 40.7987 102.006 41.0134 101.81C41.2374 101.614 41.3494 101.339 41.3494 100.984C41.3494 100.657 41.2374 100.401 41.0134 100.214C40.7987 100.018 40.486 99.92 40.0754 99.92H37.5974V102.104H40.0754ZM49.5394 102.118C48.83 102.818 47.962 103.168 46.9354 103.168C45.9087 103.168 45.036 102.818 44.3174 102.118C43.608 101.409 43.2534 100.536 43.2534 99.5C43.2534 98.464 43.608 97.596 44.3174 96.896C45.036 96.1867 45.9087 95.832 46.9354 95.832C47.962 95.832 48.83 96.1867 49.5394 96.896C50.258 97.596 50.6174 98.464 50.6174 99.5C50.6174 100.536 50.258 101.409 49.5394 102.118ZM44.9754 101.474C45.5074 102.006 46.1607 102.272 46.9354 102.272C47.71 102.272 48.3634 102.006 48.8954 101.474C49.4274 100.933 49.6934 100.275 49.6934 99.5C49.6934 98.7253 49.4274 98.072 48.8954 97.54C48.3634 96.9987 47.71 96.728 46.9354 96.728C46.1607 96.728 45.5074 96.9987 44.9754 97.54C44.4434 98.072 44.1774 98.7253 44.1774 99.5C44.1774 100.275 44.4434 100.933 44.9754 101.474ZM57.6302 96V103H56.7062V96.896H53.5422V100.018C53.5422 101.185 53.3182 101.987 52.8702 102.426C52.4315 102.865 51.8248 103.056 51.0502 103V102.132C51.5822 102.188 51.9742 102.062 52.2262 101.754C52.4875 101.446 52.6182 100.867 52.6182 100.018V96H57.6302ZM64.6274 96V103H63.7034V100.312H62.4994L60.3434 103H59.1674L61.3794 100.284C60.8194 100.2 60.3574 99.9667 59.9934 99.584C59.6294 99.2013 59.4474 98.73 59.4474 98.17C59.4474 97.5353 59.6714 97.0173 60.1194 96.616C60.5768 96.2053 61.1321 96 61.7854 96H64.6274ZM61.7854 99.444H63.7034V96.896H61.7854C61.3934 96.896 61.0574 97.0127 60.7774 97.246C60.5068 97.4793 60.3714 97.7873 60.3714 98.17C60.3714 98.5527 60.5068 98.8607 60.7774 99.094C61.0574 99.3273 61.3934 99.444 61.7854 99.444ZM69.8214 95.832C70.8574 95.832 71.6928 96.2007 72.3274 96.938C72.9714 97.666 73.2934 98.5293 73.2934 99.528C73.2934 99.6307 73.2841 99.7753 73.2654 99.962H67.1194C67.2128 100.671 67.5114 101.236 68.0154 101.656C68.5288 102.067 69.1588 102.272 69.9054 102.272C70.4374 102.272 70.8948 102.165 71.2774 101.95C71.6694 101.726 71.9634 101.437 72.1594 101.082L72.9714 101.558C72.6634 102.053 72.2434 102.445 71.7114 102.734C71.1794 103.023 70.5728 103.168 69.8914 103.168C68.7901 103.168 67.8941 102.823 67.2034 102.132C66.5128 101.441 66.1674 100.564 66.1674 99.5C66.1674 98.4547 66.5081 97.582 67.1894 96.882C67.8708 96.182 68.7481 95.832 69.8214 95.832ZM69.8214 96.728C69.0934 96.728 68.4821 96.9473 67.9874 97.386C67.5021 97.8153 67.2128 98.3753 67.1194 99.066H72.3414C72.2481 98.3287 71.9634 97.7547 71.4874 97.344C71.0114 96.9333 70.4561 96.728 69.8214 96.728ZM79.5298 96V96.896H77.0518V103H76.1278V96.896H73.6498V96H79.5298ZM89.1958 96H90.1758L87.1798 103.644C86.9091 104.335 86.5218 104.876 86.0178 105.268C85.5231 105.669 84.9678 105.847 84.3518 105.8V104.932C85.1918 105.025 85.8311 104.54 86.2698 103.476L86.4518 103.042L83.3158 96H84.2958L86.9278 101.866L89.1958 96ZM97.1725 96V103H96.2485V96.896H92.2165V103H91.2925V96H97.1725ZM102.878 95.832C103.877 95.832 104.726 96.1867 105.426 96.896C106.136 97.6053 106.49 98.4733 106.49 99.5C106.49 100.527 106.136 101.395 105.426 102.104C104.726 102.813 103.877 103.168 102.878 103.168C101.637 103.168 100.694 102.655 100.05 101.628V105.8H99.1265V96H100.05V97.372C100.694 96.3453 101.637 95.832 102.878 95.832ZM100.848 101.474C101.38 102.006 102.034 102.272 102.808 102.272C103.583 102.272 104.236 102.006 104.768 101.474C105.3 100.933 105.566 100.275 105.566 99.5C105.566 98.7253 105.3 98.072 104.768 97.54C104.236 96.9987 103.583 96.728 102.808 96.728C102.034 96.728 101.38 96.9987 100.848 97.54C100.316 98.072 100.05 98.7253 100.05 99.5C100.05 100.275 100.316 100.933 100.848 101.474ZM114.047 96H114.971V103H114.047V101.628C113.403 102.655 112.46 103.168 111.219 103.168C110.22 103.168 109.366 102.813 108.657 102.104C107.957 101.395 107.607 100.527 107.607 99.5C107.607 98.4733 107.957 97.6053 108.657 96.896C109.366 96.1867 110.22 95.832 111.219 95.832C112.46 95.832 113.403 96.3453 114.047 97.372V96ZM109.329 101.474C109.861 102.006 110.514 102.272 111.289 102.272C112.064 102.272 112.717 102.006 113.249 101.474C113.781 100.933 114.047 100.275 114.047 99.5C114.047 98.7253 113.781 98.072 113.249 97.54C112.717 96.9987 112.064 96.728 111.289 96.728C110.514 96.728 109.861 96.9987 109.329 97.54C108.797 98.072 108.531 98.7253 108.531 99.5C108.531 100.275 108.797 100.933 109.329 101.474ZM121.379 99.402C122.145 99.682 122.527 100.228 122.527 101.04C122.527 101.609 122.336 102.081 121.953 102.454C121.58 102.818 121.039 103 120.329 103H116.927V96H120.049C120.731 96 121.258 96.1773 121.631 96.532C122.005 96.8773 122.191 97.3253 122.191 97.876C122.191 98.576 121.921 99.0847 121.379 99.402ZM120.049 96.896H117.851V99.024H120.049C120.861 99.024 121.267 98.66 121.267 97.932C121.267 97.6053 121.16 97.3533 120.945 97.176C120.74 96.9893 120.441 96.896 120.049 96.896ZM120.329 102.104C120.74 102.104 121.053 102.006 121.267 101.81C121.491 101.614 121.603 101.339 121.603 100.984C121.603 100.657 121.491 100.401 121.267 100.214C121.053 100.018 120.74 99.92 120.329 99.92H117.851V102.104H120.329ZM129.394 96V103H128.47V96.896H125.306V100.018C125.306 101.185 125.082 101.987 124.634 102.426C124.195 102.865 123.588 103.056 122.814 103V102.132C123.346 102.188 123.738 102.062 123.99 101.754C124.251 101.446 124.382 100.867 124.382 100.018V96H129.394ZM136.391 96V103H135.467V100.312H134.263L132.107 103H130.931L133.143 100.284C132.583 100.2 132.121 99.9667 131.757 99.584C131.393 99.2013 131.211 98.73 131.211 98.17C131.211 97.5353 131.435 97.0173 131.883 96.616C132.34 96.2053 132.896 96 133.549 96H136.391ZM133.549 99.444H135.467V96.896H133.549C133.157 96.896 132.821 97.0127 132.541 97.246C132.27 97.4793 132.135 97.7873 132.135 98.17C132.135 98.5527 132.27 98.8607 132.541 99.094C132.821 99.3273 133.157 99.444 133.549 99.444ZM143.391 96V96.896H140.913V103H139.989V96.896H137.511V96H143.391ZM147.359 98.66C148.012 98.66 148.563 98.8653 149.011 99.276C149.468 99.6773 149.697 100.195 149.697 100.83C149.697 101.465 149.468 101.987 149.011 102.398C148.563 102.799 148.012 103 147.359 103H144.517V96H145.441V98.66H147.359ZM147.359 102.104C147.751 102.104 148.082 101.987 148.353 101.754C148.633 101.521 148.773 101.213 148.773 100.83C148.773 100.447 148.633 100.139 148.353 99.906C148.082 99.6727 147.751 99.556 147.359 99.556H145.441V102.104H147.359ZM16.242 119.168C15.1873 119.168 14.31 118.818 13.61 118.118C12.91 117.409 12.56 116.536 12.56 115.5C12.56 114.464 12.91 113.596 13.61 112.896C14.31 112.187 15.1873 111.832 16.242 111.832C16.9327 111.832 17.5533 112 18.104 112.336C18.6547 112.663 19.056 113.106 19.308 113.666L18.552 114.1C18.3653 113.68 18.062 113.349 17.642 113.106C17.2313 112.854 16.7647 112.728 16.242 112.728C15.4673 112.728 14.814 112.999 14.282 113.54C13.75 114.072 13.484 114.725 13.484 115.5C13.484 116.275 13.75 116.933 14.282 117.474C14.814 118.006 15.4673 118.272 16.242 118.272C16.7647 118.272 17.2313 118.151 17.642 117.908C18.0527 117.656 18.3747 117.32 18.608 116.9L19.378 117.348C19.0887 117.908 18.664 118.351 18.104 118.678C17.544 119.005 16.9233 119.168 16.242 119.168ZM25.4712 112H26.4512L23.4552 119.644C23.1845 120.335 22.7972 120.876 22.2932 121.268C21.7985 121.669 21.2432 121.847 20.6272 121.8V120.932C21.4672 121.025 22.1065 120.54 22.5452 119.476L22.7272 119.042L19.5912 112H20.5712L23.2032 117.866L25.4712 112ZM33.0241 118.104H34.0041V120.876H33.0801V119H27.3681V120.876H26.4441V118.104H27.2981C27.7741 117.479 28.0121 116.597 28.0121 115.458V112H33.0241V118.104ZM28.4181 118.104H32.1001V112.896H28.9361V115.458C28.9361 116.531 28.7634 117.413 28.4181 118.104ZM38.3624 111.832C39.3984 111.832 40.2338 112.201 40.8684 112.938C41.5124 113.666 41.8344 114.529 41.8344 115.528C41.8344 115.631 41.8251 115.775 41.8064 115.962H35.6604C35.7538 116.671 36.0524 117.236 36.5564 117.656C37.0698 118.067 37.6998 118.272 38.4464 118.272C38.9784 118.272 39.4358 118.165 39.8184 117.95C40.2104 117.726 40.5044 117.437 40.7004 117.082L41.5124 117.558C41.2044 118.053 40.7844 118.445 40.2524 118.734C39.7204 119.023 39.1138 119.168 38.4324 119.168C37.3311 119.168 36.4351 118.823 35.7444 118.132C35.0538 117.441 34.7084 116.564 34.7084 115.5C34.7084 114.455 35.0491 113.582 35.7304 112.882C36.4118 112.182 37.2891 111.832 38.3624 111.832ZM38.3624 112.728C37.6344 112.728 37.0231 112.947 36.5284 113.386C36.0431 113.815 35.7538 114.375 35.6604 115.066H40.8824C40.7891 114.329 40.5044 113.755 40.0284 113.344C39.5524 112.933 38.9971 112.728 38.3624 112.728ZM44.4242 110.88V110.068H48.0642V110.88H44.4242ZM48.4002 112H49.1842V119H48.2602V113.61L44.0882 119H43.3042V112H44.2282V117.39L48.4002 112ZM54.4002 119.168C53.3455 119.168 52.4682 118.818 51.7682 118.118C51.0682 117.409 50.7182 116.536 50.7182 115.5C50.7182 114.464 51.0682 113.596 51.7682 112.896C52.4682 112.187 53.3455 111.832 54.4002 111.832C55.0909 111.832 55.7115 112 56.2622 112.336C56.8129 112.663 57.2142 113.106 57.4662 113.666L56.7102 114.1C56.5235 113.68 56.2202 113.349 55.8002 113.106C55.3895 112.854 54.9229 112.728 54.4002 112.728C53.6255 112.728 52.9722 112.999 52.4402 113.54C51.9082 114.072 51.6422 114.725 51.6422 115.5C51.6422 116.275 51.9082 116.933 52.4402 117.474C52.9722 118.006 53.6255 118.272 54.4002 118.272C54.9229 118.272 55.3895 118.151 55.8002 117.908C56.2109 117.656 56.5329 117.32 56.7662 116.9L57.5362 117.348C57.2469 117.908 56.8222 118.351 56.2622 118.678C55.7022 119.005 55.0815 119.168 54.4002 119.168ZM64.5188 119H63.2868L59.7868 115.626V119H58.8628V112H59.7868V115.094L63.1188 112H64.3788L60.7668 115.36L64.5188 119ZM70.8768 112H71.6608V119H70.7368V113.61L66.5648 119H65.7808V112H66.7048V117.39L70.8768 112ZM80.4748 112V119H79.5508V113.414L77.1008 117.39H76.9888L74.5388 113.414V119H73.6148V112H74.6788L77.0448 115.836L79.4108 112H80.4748ZM87.5291 112H88.3131V119H87.3891V113.61L83.2171 119H82.4331V112H83.3571V117.39L87.5291 112ZM98.7231 112H99.6471V119H98.7231V115.948H94.6911V119H93.7671V112H94.6911V115.052H98.7231V112ZM107.621 112H108.545V119H107.621V117.628C106.977 118.655 106.034 119.168 104.793 119.168C103.794 119.168 102.94 118.813 102.231 118.104C101.531 117.395 101.181 116.527 101.181 115.5C101.181 114.473 101.531 113.605 102.231 112.896C102.94 112.187 103.794 111.832 104.793 111.832C106.034 111.832 106.977 112.345 107.621 113.372V112ZM102.903 117.474C103.435 118.006 104.088 118.272 104.863 118.272C105.638 118.272 106.291 118.006 106.823 117.474C107.355 116.933 107.621 116.275 107.621 115.5C107.621 114.725 107.355 114.072 106.823 113.54C106.291 112.999 105.638 112.728 104.863 112.728C104.088 112.728 103.435 112.999 102.903 113.54C102.371 114.072 102.105 114.725 102.105 115.5C102.105 116.275 102.371 116.933 102.903 117.474ZM114.113 115.402C114.925 115.71 115.331 116.27 115.331 117.082C115.331 117.661 115.103 118.155 114.645 118.566C114.197 118.967 113.553 119.168 112.713 119.168C111.304 119.168 110.38 118.608 109.941 117.488L110.725 117.026C111.015 117.857 111.677 118.272 112.713 118.272C113.255 118.272 113.67 118.155 113.959 117.922C114.258 117.689 114.407 117.39 114.407 117.026C114.407 116.699 114.286 116.433 114.043 116.228C113.801 116.023 113.474 115.92 113.063 115.92H112.041V115.024H112.783C113.185 115.024 113.497 114.926 113.721 114.73C113.955 114.525 114.071 114.245 114.071 113.89C114.071 113.554 113.936 113.279 113.665 113.064C113.395 112.84 113.031 112.728 112.573 112.728C111.696 112.728 111.113 113.078 110.823 113.778L110.053 113.33C110.52 112.331 111.36 111.832 112.573 111.832C113.311 111.832 113.899 112.028 114.337 112.42C114.776 112.803 114.995 113.274 114.995 113.834C114.995 114.553 114.701 115.075 114.113 115.402ZM121.692 112H122.616V119H121.692V115.948H117.66V119H116.736V112H117.66V115.052H121.692V112ZM130.59 112H131.514V119H130.59V117.628C129.946 118.655 129.003 119.168 127.762 119.168C126.763 119.168 125.909 118.813 125.2 118.104C124.5 117.395 124.15 116.527 124.15 115.5C124.15 114.473 124.5 113.605 125.2 112.896C125.909 112.187 126.763 111.832 127.762 111.832C129.003 111.832 129.946 112.345 130.59 113.372V112ZM125.872 117.474C126.404 118.006 127.057 118.272 127.832 118.272C128.607 118.272 129.26 118.006 129.792 117.474C130.324 116.933 130.59 116.275 130.59 115.5C130.59 114.725 130.324 114.072 129.792 113.54C129.26 112.999 128.607 112.728 127.832 112.728C127.057 112.728 126.404 112.999 125.872 113.54C125.34 114.072 125.074 114.725 125.074 115.5C125.074 116.275 125.34 116.933 125.872 117.474ZM138.006 112H138.93V119H138.006V116.34C137.465 116.62 136.798 116.76 136.004 116.76C135.09 116.76 134.39 116.55 133.904 116.13C133.428 115.701 133.19 115.071 133.19 114.24V112H134.114V114.24C134.114 114.828 134.268 115.253 134.576 115.514C134.884 115.766 135.351 115.892 135.976 115.892C136.704 115.892 137.381 115.757 138.006 115.486V112ZM144.128 111.832C145.164 111.832 145.999 112.201 146.634 112.938C147.278 113.666 147.6 114.529 147.6 115.528C147.6 115.631 147.591 115.775 147.572 115.962H141.426C141.519 116.671 141.818 117.236 142.322 117.656C142.835 118.067 143.465 118.272 144.212 118.272C144.744 118.272 145.201 118.165 145.584 117.95C145.976 117.726 146.27 117.437 146.466 117.082L147.278 117.558C146.97 118.053 146.55 118.445 146.018 118.734C145.486 119.023 144.879 119.168 144.198 119.168C143.097 119.168 142.201 118.823 141.51 118.132C140.819 117.441 140.474 116.564 140.474 115.5C140.474 114.455 140.815 113.582 141.496 112.882C142.177 112.182 143.055 111.832 144.128 111.832ZM144.128 112.728C143.4 112.728 142.789 112.947 142.294 113.386C141.809 113.815 141.519 114.375 141.426 115.066H146.648C146.555 114.329 146.27 113.755 145.794 113.344C145.318 112.933 144.763 112.728 144.128 112.728ZM154.026 112H154.95V119H154.026V115.948H149.994V119H149.07V112H149.994V115.052H154.026V112ZM162 112H162.784V119H161.86V113.61L157.688 119H156.904V112H157.828V117.39L162 112ZM169.778 112V119H168.854V116.312H167.65L165.494 119H164.318L166.53 116.284C165.97 116.2 165.508 115.967 165.144 115.584C164.78 115.201 164.598 114.73 164.598 114.17C164.598 113.535 164.822 113.017 165.27 112.616C165.727 112.205 166.282 112 166.936 112H169.778ZM166.936 115.444H168.854V112.896H166.936C166.544 112.896 166.208 113.013 165.928 113.246C165.657 113.479 165.522 113.787 165.522 114.17C165.522 114.553 165.657 114.861 165.928 115.094C166.208 115.327 166.544 115.444 166.936 115.444ZM178.598 112V119H177.674V113.414L175.224 117.39H175.112L172.662 113.414V119H171.738V112H172.802L175.168 115.836L177.534 112H178.598ZM185.652 112H186.436V119H185.512V113.61L181.34 119H180.556V112H181.48V117.39L185.652 112ZM18.076 128H18.86V135H17.936V129.61L13.764 135H12.98V128H13.904V133.39L18.076 128ZM30.18 134.118C29.4707 134.818 28.6027 135.168 27.576 135.168C26.5493 135.168 25.6767 134.818 24.958 134.118C24.2487 133.409 23.894 132.536 23.894 131.5C23.894 130.464 24.2487 129.596 24.958 128.896C25.6767 128.187 26.5493 127.832 27.576 127.832C28.6027 127.832 29.4707 128.187 30.18 128.896C30.8987 129.596 31.258 130.464 31.258 131.5C31.258 132.536 30.8987 133.409 30.18 134.118ZM25.616 133.474C26.148 134.006 26.8013 134.272 27.576 134.272C28.3507 134.272 29.004 134.006 29.536 133.474C30.068 132.933 30.334 132.275 30.334 131.5C30.334 130.725 30.068 130.072 29.536 129.54C29.004 128.999 28.3507 128.728 27.576 128.728C26.8013 128.728 26.148 128.999 25.616 129.54C25.084 130.072 24.818 130.725 24.818 131.5C24.818 132.275 25.084 132.933 25.616 133.474ZM37.5708 128V128.896H35.0928V135H34.1688V128.896H31.6908V128H37.5708ZM41.6854 135.168C40.6307 135.168 39.7534 134.818 39.0534 134.118C38.3534 133.409 38.0034 132.536 38.0034 131.5C38.0034 130.464 38.3534 129.596 39.0534 128.896C39.7534 128.187 40.6307 127.832 41.6854 127.832C42.376 127.832 42.9967 128 43.5474 128.336C44.098 128.663 44.4994 129.106 44.7514 129.666L43.9954 130.1C43.8087 129.68 43.5054 129.349 43.0854 129.106C42.6747 128.854 42.208 128.728 41.6854 128.728C40.9107 128.728 40.2574 128.999 39.7254 129.54C39.1934 130.072 38.9274 130.725 38.9274 131.5C38.9274 132.275 39.1934 132.933 39.7254 133.474C40.2574 134.006 40.9107 134.272 41.6854 134.272C42.208 134.272 42.6747 134.151 43.0854 133.908C43.496 133.656 43.818 133.32 44.0514 132.9L44.8214 133.348C44.532 133.908 44.1074 134.351 43.5474 134.678C42.9874 135.005 42.3667 135.168 41.6854 135.168ZM51.7513 128V135H50.8273V128.896H47.6633V132.018C47.6633 133.185 47.4393 133.987 46.9913 134.426C46.5526 134.865 45.9459 135.056 45.1713 135V134.132C45.7033 134.188 46.0953 134.062 46.3473 133.754C46.6086 133.446 46.7393 132.867 46.7393 132.018V128H51.7513ZM56.9425 127.832C57.9785 127.832 58.8138 128.201 59.4485 128.938C60.0925 129.666 60.4145 130.529 60.4145 131.528C60.4145 131.631 60.4052 131.775 60.3865 131.962H54.2405C54.3338 132.671 54.6325 133.236 55.1365 133.656C55.6498 134.067 56.2798 134.272 57.0265 134.272C57.5585 134.272 58.0158 134.165 58.3985 133.95C58.7905 133.726 59.0845 133.437 59.2805 133.082L60.0925 133.558C59.7845 134.053 59.3645 134.445 58.8325 134.734C58.3005 135.023 57.6938 135.168 57.0125 135.168C55.9112 135.168 55.0152 134.823 54.3245 134.132C53.6338 133.441 53.2885 132.564 53.2885 131.5C53.2885 130.455 53.6292 129.582 54.3105 128.882C54.9918 128.182 55.8692 127.832 56.9425 127.832ZM56.9425 128.728C56.2145 128.728 55.6032 128.947 55.1085 129.386C54.6232 129.815 54.3338 130.375 54.2405 131.066H59.4625C59.3692 130.329 59.0845 129.755 58.6085 129.344C58.1325 128.933 57.5772 128.728 56.9425 128.728ZM69.6365 135H68.5165L65.6605 131.626V135H64.7365V131.626L61.8805 135H60.7605L63.8965 131.36L60.9005 128H62.0205L64.7365 131.108V128H65.6605V131.108L68.3765 128H69.4965L66.5005 131.36L69.6365 135ZM75.9901 128H76.7741V135H75.8501V129.61L71.6781 135H70.8941V128H71.8181V133.39L75.9901 128ZM83.18 131.402C83.9454 131.682 84.328 132.228 84.328 133.04C84.328 133.609 84.1367 134.081 83.754 134.454C83.3807 134.818 82.8394 135 82.13 135H78.728V128H81.85C82.5314 128 83.0587 128.177 83.432 128.532C83.8054 128.877 83.992 129.325 83.992 129.876C83.992 130.576 83.7214 131.085 83.18 131.402ZM81.85 128.896H79.652V131.024H81.85C82.662 131.024 83.068 130.66 83.068 129.932C83.068 129.605 82.9607 129.353 82.746 129.176C82.5407 128.989 82.242 128.896 81.85 128.896ZM82.13 134.104C82.5407 134.104 82.8534 134.006 83.068 133.81C83.292 133.614 83.404 133.339 83.404 132.984C83.404 132.657 83.292 132.401 83.068 132.214C82.8534 132.018 82.5407 131.92 82.13 131.92H79.652V134.104H82.13ZM91.748 128H92.672V135H91.748V133.628C91.104 134.655 90.1614 135.168 88.92 135.168C87.9214 135.168 87.0674 134.813 86.358 134.104C85.658 133.395 85.308 132.527 85.308 131.5C85.308 130.473 85.658 129.605 86.358 128.896C87.0674 128.187 87.9214 127.832 88.92 127.832C90.1614 127.832 91.104 128.345 91.748 129.372V128ZM87.03 133.474C87.562 134.006 88.2154 134.272 88.99 134.272C89.7647 134.272 90.418 134.006 90.95 133.474C91.482 132.933 91.748 132.275 91.748 131.5C91.748 130.725 91.482 130.072 90.95 129.54C90.418 128.999 89.7647 128.728 88.99 128.728C88.2154 128.728 87.562 128.999 87.03 129.54C86.498 130.072 86.232 130.725 86.232 131.5C86.232 132.275 86.498 132.933 87.03 133.474ZM99.6684 128V128.896H97.1904V135H96.2664V128.896H93.7884V128H99.6684ZM103.636 130.66C104.29 130.66 104.84 130.865 105.288 131.276C105.746 131.677 105.974 132.195 105.974 132.83C105.974 133.465 105.746 133.987 105.288 134.398C104.84 134.799 104.29 135 103.636 135H100.794V128H101.718V130.66H103.636ZM103.636 134.104C104.028 134.104 104.36 133.987 104.63 133.754C104.91 133.521 105.05 133.213 105.05 132.83C105.05 132.447 104.91 132.139 104.63 131.906C104.36 131.673 104.028 131.556 103.636 131.556H101.718V134.104H103.636ZM114.133 135.168C113.078 135.168 112.201 134.818 111.501 134.118C110.801 133.409 110.451 132.536 110.451 131.5C110.451 130.464 110.801 129.596 111.501 128.896C112.201 128.187 113.078 127.832 114.133 127.832C114.823 127.832 115.444 128 115.995 128.336C116.545 128.663 116.947 129.106 117.199 129.666L116.443 130.1C116.256 129.68 115.953 129.349 115.533 129.106C115.122 128.854 114.655 128.728 114.133 128.728C113.358 128.728 112.705 128.999 112.173 129.54C111.641 130.072 111.375 130.725 111.375 131.5C111.375 132.275 111.641 132.933 112.173 133.474C112.705 134.006 113.358 134.272 114.133 134.272C114.655 134.272 115.122 134.151 115.533 133.908C115.943 133.656 116.265 133.32 116.499 132.9L117.269 133.348C116.979 133.908 116.555 134.351 115.995 134.678C115.435 135.005 114.814 135.168 114.133 135.168ZM123.499 128V128.896H121.021V135H120.097V128.896H117.619V128H123.499ZM130.371 128H131.295V135H130.371V133.628C129.727 134.655 128.784 135.168 127.543 135.168C126.544 135.168 125.69 134.813 124.981 134.104C124.281 133.395 123.931 132.527 123.931 131.5C123.931 130.473 124.281 129.605 124.981 128.896C125.69 128.187 126.544 127.832 127.543 127.832C128.784 127.832 129.727 128.345 130.371 129.372V128ZM125.653 133.474C126.185 134.006 126.838 134.272 127.613 134.272C128.388 134.272 129.041 134.006 129.573 133.474C130.105 132.933 130.371 132.275 130.371 131.5C130.371 130.725 130.105 130.072 129.573 129.54C129.041 128.999 128.388 128.728 127.613 128.728C126.838 128.728 126.185 128.999 125.653 129.54C125.121 130.072 124.855 130.725 124.855 131.5C124.855 132.275 125.121 132.933 125.653 133.474ZM138.291 128V128.896H135.813V135H134.889V128.896H132.411V128H138.291ZM144.514 128H145.298V135H144.374V129.61L140.202 135H139.418V128H140.342V133.39L144.514 128ZM150.513 135.168C149.459 135.168 148.581 134.818 147.881 134.118C147.181 133.409 146.831 132.536 146.831 131.5C146.831 130.464 147.181 129.596 147.881 128.896C148.581 128.187 149.459 127.832 150.513 127.832C151.204 127.832 151.825 128 152.375 128.336C152.926 128.663 153.327 129.106 153.579 129.666L152.823 130.1C152.637 129.68 152.333 129.349 151.913 129.106C151.503 128.854 151.036 128.728 150.513 128.728C149.739 128.728 149.085 128.999 148.553 129.54C148.021 130.072 147.755 130.725 147.755 131.5C147.755 132.275 148.021 132.933 148.553 133.474C149.085 134.006 149.739 134.272 150.513 134.272C151.036 134.272 151.503 134.151 151.913 133.908C152.324 133.656 152.646 133.32 152.879 132.9L153.649 133.348C153.36 133.908 152.935 134.351 152.375 134.678C151.815 135.005 151.195 135.168 150.513 135.168ZM159.879 128V128.896H157.401V135H156.477V128.896H153.999V128H159.879ZM166.101 128H166.885V135H165.961V129.61L161.789 135H161.005V128H161.929V133.39L166.101 128ZM174.495 135H173.263L169.763 131.626V135H168.839V128H169.763V131.094L173.095 128H174.355L170.743 131.36L174.495 135ZM180.524 128H181.504L178.508 135.644C178.237 136.335 177.85 136.876 177.346 137.268C176.851 137.669 176.296 137.847 175.68 137.8V136.932C176.52 137.025 177.159 136.54 177.598 135.476L177.78 135.042L174.644 128H175.624L178.256 133.866L180.524 128ZM19.84 144V151H18.916V145.414L16.466 149.39H16.354L13.904 145.414V151H12.98V144H14.044L16.41 147.836L18.776 144H19.84ZM27.8184 144H28.7424V151H27.8184V149.628C27.1744 150.655 26.2317 151.168 24.9904 151.168C23.9917 151.168 23.1377 150.813 22.4284 150.104C21.7284 149.395 21.3784 148.527 21.3784 147.5C21.3784 146.473 21.7284 145.605 22.4284 144.896C23.1377 144.187 23.9917 143.832 24.9904 143.832C26.2317 143.832 27.1744 144.345 27.8184 145.372V144ZM23.1004 149.474C23.6324 150.006 24.2857 150.272 25.0604 150.272C25.835 150.272 26.4884 150.006 27.0204 149.474C27.5524 148.933 27.8184 148.275 27.8184 147.5C27.8184 146.725 27.5524 146.072 27.0204 145.54C26.4884 144.999 25.835 144.728 25.0604 144.728C24.2857 144.728 23.6324 144.999 23.1004 145.54C22.5684 146.072 22.3024 146.725 22.3024 147.5C22.3024 148.275 22.5684 148.933 23.1004 149.474ZM35.7388 144V144.896H33.2608V151H32.3368V144.896H29.8588V144H35.7388ZM41.4008 144H42.3248V151H41.4008V148.34C40.8594 148.62 40.1921 148.76 39.3988 148.76C38.4841 148.76 37.7841 148.55 37.2988 148.13C36.8228 147.701 36.5848 147.071 36.5848 146.24V144H37.5088V146.24C37.5088 146.828 37.6628 147.253 37.9708 147.514C38.2788 147.766 38.7454 147.892 39.3708 147.892C40.0988 147.892 40.7754 147.757 41.4008 147.486V144ZM47.5226 143.832C48.5586 143.832 49.3939 144.201 50.0286 144.938C50.6726 145.666 50.9946 146.529 50.9946 147.528C50.9946 147.631 50.9853 147.775 50.9666 147.962H44.8206C44.9139 148.671 45.2126 149.236 45.7166 149.656C46.2299 150.067 46.8599 150.272 47.6066 150.272C48.1386 150.272 48.5959 150.165 48.9786 149.95C49.3706 149.726 49.6646 149.437 49.8606 149.082L50.6726 149.558C50.3646 150.053 49.9446 150.445 49.4126 150.734C48.8806 151.023 48.2739 151.168 47.5926 151.168C46.4913 151.168 45.5953 150.823 44.9046 150.132C44.2139 149.441 43.8686 148.564 43.8686 147.5C43.8686 146.455 44.2093 145.582 44.8906 144.882C45.5719 144.182 46.4493 143.832 47.5226 143.832ZM47.5226 144.728C46.7946 144.728 46.1833 144.947 45.6886 145.386C45.2033 145.815 44.9139 146.375 44.8206 147.066H50.0426C49.9493 146.329 49.6646 145.755 49.1886 145.344C48.7126 144.933 48.1573 144.728 47.5226 144.728ZM53.5844 142.88V142.068H57.2244V142.88H53.5844ZM57.5604 144H58.3444V151H57.4204V145.61L53.2484 151H52.4644V144H53.3884V149.39L57.5604 144ZM61.4744 150.916C61.325 151.065 61.143 151.14 60.9284 151.14C60.7137 151.14 60.5317 151.065 60.3824 150.916C60.233 150.767 60.1584 150.585 60.1584 150.37C60.1584 150.155 60.233 149.973 60.3824 149.824C60.5317 149.675 60.7137 149.6 60.9284 149.6C61.143 149.6 61.325 149.675 61.4744 149.824C61.6237 149.973 61.6984 150.155 61.6984 150.37C61.6984 150.585 61.6237 150.767 61.4744 150.916Z" fill="white"/>
</g>
<defs>
<filter id="filter0_b_888_26043" x="-10" y="-10" width="226" height="198" filterUnits="userSpaceOnUse" color-interpolation-filters="sRGB">
<feFlood flood-opacity="0" result="BackgroundImageFix"/>
<feGaussianBlur in="BackgroundImageFix" stdDeviation="5"/>
<feComposite in2="SourceAlpha" operator="in" result="effect1_backgroundBlur_888_26043"/>
<feBlend mode="normal" in="SourceGraphic" in2="effect1_backgroundBlur_888_26043" result="shape"/>
</filter>
</defs>
</svg>
