<svg width="206" height="178" viewBox="0 0 206 178" fill="none" xmlns="http://www.w3.org/2000/svg">
<g filter="url(#filter0_b_1002_693)">
<path d="M0 15C0 6.71572 6.71573 0 15 0H93.1186C96.3676 0 99.5288 1.05491 102.127 3.00608L200.008 76.5204C203.78 79.3537 206 83.7966 206 88.5144V163C206 171.284 199.284 178 191 178H15C6.71573 178 0 171.284 0 163V15Z" fill="#0C0C0C" fill-opacity="0.3"/>
<path d="M0.5 15C0.5 6.99187 6.99187 0.5 15 0.5H93.1186C96.2593 0.5 99.3152 1.51975 101.826 3.40588L199.708 76.9202C203.354 79.659 205.5 83.9538 205.5 88.5144V163C205.5 171.008 199.008 177.5 191 177.5H15C6.99187 177.5 0.5 171.008 0.5 163V15Z" stroke="white" stroke-opacity="0.3"/>
</g>
<path d="M18.6 31C19.8533 31 20.9 31.42 21.74 32.26C22.58 33.1 23 34.1467 23 35.4C23 36.6533 22.58 37.7 21.74 38.54C20.9 39.38 19.8533 39.8 18.6 39.8H15V45H13.6V31H18.6ZM18.6 38.48C19.4667 38.48 20.18 38.1933 20.74 37.62C21.3133 37.0333 21.6 36.2933 21.6 35.4C21.6 34.5067 21.3133 33.7733 20.74 33.2C20.18 32.6133 19.4667 32.32 18.6 32.32H15V38.48H18.6ZM29.0161 34.76C30.4961 34.76 31.6894 35.2867 32.5961 36.34C33.5161 37.38 33.9761 38.6133 33.9761 40.04C33.9761 40.1867 33.9628 40.3933 33.9361 40.66H25.1561C25.2894 41.6733 25.7161 42.48 26.4361 43.08C27.1694 43.6667 28.0694 43.96 29.1361 43.96C29.8961 43.96 30.5494 43.8067 31.0961 43.5C31.6561 43.18 32.0761 42.7667 32.3561 42.26L33.5161 42.94C33.0761 43.6467 32.4761 44.2067 31.7161 44.62C30.9561 45.0333 30.0894 45.24 29.1161 45.24C27.5428 45.24 26.2628 44.7467 25.2761 43.76C24.2894 42.7733 23.7961 41.52 23.7961 40C23.7961 38.5067 24.2828 37.26 25.2561 36.26C26.2294 35.26 27.4828 34.76 29.0161 34.76ZM29.0161 36.04C27.9761 36.04 27.1028 36.3533 26.3961 36.98C25.7028 37.5933 25.2894 38.3933 25.1561 39.38H32.6161C32.4828 38.3267 32.0761 37.5067 31.3961 36.92C30.7161 36.3333 29.9228 36.04 29.0161 36.04ZM47.1503 45H45.5503L41.4703 40.18V45H40.1503V40.18L36.0703 45H34.4703L38.9503 39.8L34.6703 35H36.2703L40.1503 39.44V35H41.4703V39.44L45.3503 35H46.9503L42.6703 39.8L47.1503 45ZM56.2269 35H57.3469V45H56.0269V37.3L50.0669 45H48.9469V35H50.2669V42.7L56.2269 35ZM69.9383 35V45H68.6183V37.02L65.1183 42.7H64.9583L61.4583 37.02V45H60.1383V35H61.6583L65.0383 40.48L68.4183 35H69.9383ZM17.24 58.22L15.04 61.82L17.24 65.42H15.6L13.4 61.82L15.6 58.22H17.24ZM20.44 58.22L18.24 61.82L20.44 65.42H18.8L16.6 61.82L18.8 58.22H20.44ZM31.443 54V55.32H27.143V68H25.743V55.32H21.443V54H31.443ZM37.1975 57.76C38.6242 57.76 39.8375 58.2667 40.8375 59.28C41.8508 60.2933 42.3575 61.5333 42.3575 63C42.3575 64.4667 41.8508 65.7067 40.8375 66.72C39.8375 67.7333 38.6242 68.24 37.1975 68.24C35.4242 68.24 34.0775 67.5067 33.1575 66.04V72H31.8375V58H33.1575V59.96C34.0775 58.4933 35.4242 57.76 37.1975 57.76ZM34.2975 65.82C35.0575 66.58 35.9908 66.96 37.0975 66.96C38.2042 66.96 39.1375 66.58 39.8975 65.82C40.6575 65.0467 41.0375 64.1067 41.0375 63C41.0375 61.8933 40.6575 60.96 39.8975 60.2C39.1375 59.4267 38.2042 59.04 37.0975 59.04C35.9908 59.04 35.0575 59.4267 34.2975 60.2C33.5375 60.96 33.1575 61.8933 33.1575 63C33.1575 64.1067 33.5375 65.0467 34.2975 65.82ZM49.1723 57.76C50.6523 57.76 51.8457 58.2867 52.7523 59.34C53.6723 60.38 54.1323 61.6133 54.1323 63.04C54.1323 63.1867 54.119 63.3933 54.0923 63.66H45.3123C45.4457 64.6733 45.8723 65.48 46.5923 66.08C47.3257 66.6667 48.2257 66.96 49.2923 66.96C50.0523 66.96 50.7057 66.8067 51.2523 66.5C51.8123 66.18 52.2323 65.7667 52.5123 65.26L53.6723 65.94C53.2323 66.6467 52.6323 67.2067 51.8723 67.62C51.1123 68.0333 50.2457 68.24 49.2723 68.24C47.699 68.24 46.419 67.7467 45.4323 66.76C44.4457 65.7733 43.9523 64.52 43.9523 63C43.9523 61.5067 44.439 60.26 45.4123 59.26C46.3857 58.26 47.639 57.76 49.1723 57.76ZM49.1723 59.04C48.1323 59.04 47.259 59.3533 46.5523 59.98C45.859 60.5933 45.4457 61.3933 45.3123 62.38H52.7723C52.639 61.3267 52.2323 60.5067 51.5523 59.92C50.8723 59.3333 50.079 59.04 49.1723 59.04ZM63.312 58H64.632V68H63.312V63.64H57.552V68H56.232V58H57.552V62.36H63.312V58ZM72.0434 57.76C73.5234 57.76 74.7168 58.2867 75.6234 59.34C76.5434 60.38 77.0034 61.6133 77.0034 63.04C77.0034 63.1867 76.9901 63.3933 76.9634 63.66H68.1834C68.3168 64.6733 68.7434 65.48 69.4634 66.08C70.1968 66.6667 71.0968 66.96 72.1634 66.96C72.9234 66.96 73.5768 66.8067 74.1234 66.5C74.6834 66.18 75.1034 65.7667 75.3834 65.26L76.5434 65.94C76.1034 66.6467 75.5034 67.2067 74.7434 67.62C73.9834 68.0333 73.1168 68.24 72.1434 68.24C70.5701 68.24 69.2901 67.7467 68.3034 66.76C67.3168 65.7733 66.8234 64.52 66.8234 63C66.8234 61.5067 67.3101 60.26 68.2834 59.26C69.2568 58.26 70.5101 57.76 72.0434 57.76ZM72.0434 59.04C71.0034 59.04 70.1301 59.3533 69.4234 59.98C68.7301 60.5933 68.3168 61.3933 68.1834 62.38H75.6434C75.5101 61.3267 75.1034 60.5067 74.4234 59.92C73.7434 59.3333 72.9501 59.04 72.0434 59.04ZM84.4631 57.76C85.8898 57.76 87.1031 58.2667 88.1031 59.28C89.1165 60.2933 89.6231 61.5333 89.6231 63C89.6231 64.4667 89.1165 65.7067 88.1031 66.72C87.1031 67.7333 85.8898 68.24 84.4631 68.24C82.6898 68.24 81.3431 67.5067 80.4231 66.04V72H79.1031V58H80.4231V59.96C81.3431 58.4933 82.6898 57.76 84.4631 57.76ZM81.5631 65.82C82.3231 66.58 83.2565 66.96 84.3631 66.96C85.4698 66.96 86.4031 66.58 87.1631 65.82C87.9231 65.0467 88.3031 64.1067 88.3031 63C88.3031 61.8933 87.9231 60.96 87.1631 60.2C86.4031 59.4267 85.4698 59.04 84.3631 59.04C83.2565 59.04 82.3231 59.4267 81.5631 60.2C80.8031 60.96 80.4231 61.8933 80.4231 63C80.4231 64.1067 80.8031 65.0467 81.5631 65.82ZM93.0673 58.22L95.2673 61.82L93.0673 65.42H91.4273L93.6273 61.82L91.4273 58.22H93.0673ZM96.2673 58.22L98.4673 61.82L96.2673 65.42H94.6273L96.8273 61.82L94.6273 58.22H96.2673Z" fill="white"/>
<path opacity="0.7" d="M16.62 112.2C17.4973 112.2 18.23 112.494 18.818 113.082C19.406 113.67 19.7 114.403 19.7 115.28C19.7 116.157 19.406 116.89 18.818 117.478C18.23 118.066 17.4973 118.36 16.62 118.36H14.1V122H13.12V112.2H16.62ZM16.62 117.436C17.2267 117.436 17.726 117.235 18.118 116.834C18.5193 116.423 18.72 115.905 18.72 115.28C18.72 114.655 18.5193 114.141 18.118 113.74C17.726 113.329 17.2267 113.124 16.62 113.124H14.1V117.436H16.62ZM23.9113 114.832C24.9473 114.832 25.7826 115.201 26.4173 115.938C27.0613 116.666 27.3833 117.529 27.3833 118.528C27.3833 118.631 27.3739 118.775 27.3553 118.962H21.2093C21.3026 119.671 21.6013 120.236 22.1053 120.656C22.6186 121.067 23.2486 121.272 23.9953 121.272C24.5273 121.272 24.9846 121.165 25.3673 120.95C25.7593 120.726 26.0533 120.437 26.2493 120.082L27.0613 120.558C26.7533 121.053 26.3333 121.445 25.8013 121.734C25.2693 122.023 24.6626 122.168 23.9813 122.168C22.8799 122.168 21.9839 121.823 21.2933 121.132C20.6026 120.441 20.2573 119.564 20.2573 118.5C20.2573 117.455 20.5979 116.582 21.2793 115.882C21.9606 115.182 22.8379 114.832 23.9113 114.832ZM23.9113 115.728C23.1833 115.728 22.5719 115.947 22.0773 116.386C21.5919 116.815 21.3026 117.375 21.2093 118.066H26.4313C26.3379 117.329 26.0533 116.755 25.5773 116.344C25.1013 115.933 24.5459 115.728 23.9113 115.728ZM36.6052 122H35.4852L32.6292 118.626V122H31.7052V118.626L28.8492 122H27.7292L30.8652 118.36L27.8692 115H28.9892L31.7052 118.108V115H32.6292V118.108L35.3452 115H36.4652L33.4692 118.36L36.6052 122ZM42.9588 115H43.7428V122H42.8188V116.61L38.6468 122H37.8628V115H38.7868V120.39L42.9588 115ZM52.5568 115V122H51.6328V116.414L49.1828 120.39H49.0708L46.6208 116.414V122H45.6968V115H46.7608L49.1268 118.836L51.4928 115H52.5568ZM63.8952 115V122H62.9712V115.896H58.9392V122H58.0152V115H63.8952ZM71.7151 121.118C71.0058 121.818 70.1378 122.168 69.1111 122.168C68.0845 122.168 67.2118 121.818 66.4931 121.118C65.7838 120.409 65.4291 119.536 65.4291 118.5C65.4291 117.464 65.7838 116.596 66.4931 115.896C67.2118 115.187 68.0845 114.832 69.1111 114.832C70.1378 114.832 71.0058 115.187 71.7151 115.896C72.4338 116.596 72.7931 117.464 72.7931 118.5C72.7931 119.536 72.4338 120.409 71.7151 121.118ZM67.1511 120.474C67.6831 121.006 68.3365 121.272 69.1111 121.272C69.8858 121.272 70.5391 121.006 71.0711 120.474C71.6031 119.933 71.8691 119.275 71.8691 118.5C71.8691 117.725 71.6031 117.072 71.0711 116.54C70.5391 115.999 69.8858 115.728 69.1111 115.728C68.3365 115.728 67.6831 115.999 67.1511 116.54C66.6191 117.072 66.3531 117.725 66.3531 118.5C66.3531 119.275 66.6191 119.933 67.1511 120.474ZM77.6779 118.402C78.4899 118.71 78.8959 119.27 78.8959 120.082C78.8959 120.661 78.6673 121.155 78.2099 121.566C77.7619 121.967 77.1179 122.168 76.2779 122.168C74.8686 122.168 73.9446 121.608 73.5059 120.488L74.2899 120.026C74.5793 120.857 75.2419 121.272 76.2779 121.272C76.8193 121.272 77.2346 121.155 77.5239 120.922C77.8226 120.689 77.9719 120.39 77.9719 120.026C77.9719 119.699 77.8506 119.433 77.6079 119.228C77.3653 119.023 77.0386 118.92 76.6279 118.92H75.6059V118.024H76.3479C76.7493 118.024 77.0619 117.926 77.2859 117.73C77.5193 117.525 77.6359 117.245 77.6359 116.89C77.6359 116.554 77.5006 116.279 77.2299 116.064C76.9593 115.84 76.5953 115.728 76.1379 115.728C75.2606 115.728 74.6773 116.078 74.3879 116.778L73.6179 116.33C74.0846 115.331 74.9246 114.832 76.1379 114.832C76.8753 114.832 77.4633 115.028 77.9019 115.42C78.3406 115.803 78.5599 116.274 78.5599 116.834C78.5599 117.553 78.2659 118.075 77.6779 118.402ZM84.7523 118.402C85.5176 118.682 85.9003 119.228 85.9003 120.04C85.9003 120.609 85.709 121.081 85.3263 121.454C84.953 121.818 84.4116 122 83.7023 122H80.3003V115H83.4223C84.1036 115 84.631 115.177 85.0043 115.532C85.3776 115.877 85.5643 116.325 85.5643 116.876C85.5643 117.576 85.2936 118.085 84.7523 118.402ZM83.4223 115.896H81.2243V118.024H83.4223C84.2343 118.024 84.6403 117.66 84.6403 116.932C84.6403 116.605 84.533 116.353 84.3183 116.176C84.113 115.989 83.8143 115.896 83.4223 115.896ZM83.7023 121.104C84.113 121.104 84.4256 121.006 84.6403 120.81C84.8643 120.614 84.9763 120.339 84.9763 119.984C84.9763 119.657 84.8643 119.401 84.6403 119.214C84.4256 119.018 84.113 118.92 83.7023 118.92H81.2243V121.104H83.7023ZM93.1663 121.118C92.457 121.818 91.589 122.168 90.5623 122.168C89.5356 122.168 88.663 121.818 87.9443 121.118C87.235 120.409 86.8803 119.536 86.8803 118.5C86.8803 117.464 87.235 116.596 87.9443 115.896C88.663 115.187 89.5356 114.832 90.5623 114.832C91.589 114.832 92.457 115.187 93.1663 115.896C93.885 116.596 94.2443 117.464 94.2443 118.5C94.2443 119.536 93.885 120.409 93.1663 121.118ZM88.6023 120.474C89.1343 121.006 89.7876 121.272 90.5623 121.272C91.337 121.272 91.9903 121.006 92.5223 120.474C93.0543 119.933 93.3203 119.275 93.3203 118.5C93.3203 117.725 93.0543 117.072 92.5223 116.54C91.9903 115.999 91.337 115.728 90.5623 115.728C89.7876 115.728 89.1343 115.999 88.6023 116.54C88.0703 117.072 87.8043 117.725 87.8043 118.5C87.8043 119.275 88.0703 119.933 88.6023 120.474ZM101.257 115V122H100.333V115.896H97.1691V119.018C97.1691 120.185 96.9451 120.987 96.4971 121.426C96.0584 121.865 95.4518 122.056 94.6771 122V121.132C95.2091 121.188 95.6011 121.062 95.8531 120.754C96.1144 120.446 96.2451 119.867 96.2451 119.018V115H101.257ZM108.254 115V122H107.33V119.312H106.126L103.97 122H102.794L105.006 119.284C104.446 119.2 103.984 118.967 103.62 118.584C103.256 118.201 103.074 117.73 103.074 117.17C103.074 116.535 103.298 116.017 103.746 115.616C104.204 115.205 104.759 115 105.412 115H108.254ZM105.412 118.444H107.33V115.896H105.412C105.02 115.896 104.684 116.013 104.404 116.246C104.134 116.479 103.998 116.787 103.998 117.17C103.998 117.553 104.134 117.861 104.404 118.094C104.684 118.327 105.02 118.444 105.412 118.444ZM113.448 114.832C114.484 114.832 115.32 115.201 115.954 115.938C116.598 116.666 116.92 117.529 116.92 118.528C116.92 118.631 116.911 118.775 116.892 118.962H110.746C110.84 119.671 111.138 120.236 111.642 120.656C112.156 121.067 112.786 121.272 113.532 121.272C114.064 121.272 114.522 121.165 114.904 120.95C115.296 120.726 115.59 120.437 115.786 120.082L116.598 120.558C116.29 121.053 115.87 121.445 115.338 121.734C114.806 122.023 114.2 122.168 113.518 122.168C112.417 122.168 111.521 121.823 110.83 121.132C110.14 120.441 109.794 119.564 109.794 118.5C109.794 117.455 110.135 116.582 110.816 115.882C111.498 115.182 112.375 114.832 113.448 114.832ZM113.448 115.728C112.72 115.728 112.109 115.947 111.614 116.386C111.129 116.815 110.84 117.375 110.746 118.066H115.968C115.875 117.329 115.59 116.755 115.114 116.344C114.638 115.933 114.083 115.728 113.448 115.728ZM123.157 115V115.896H120.679V122H119.755V115.896H117.277V115H123.157ZM132.823 115H133.803L130.807 122.644C130.536 123.335 130.149 123.876 129.645 124.268C129.15 124.669 128.595 124.847 127.979 124.8V123.932C128.819 124.025 129.458 123.54 129.897 122.476L130.079 122.042L126.943 115H127.923L130.555 120.866L132.823 115ZM140.799 115V122H139.875V115.896H135.843V122H134.919V115H140.799ZM146.505 114.832C147.504 114.832 148.353 115.187 149.053 115.896C149.763 116.605 150.117 117.473 150.117 118.5C150.117 119.527 149.763 120.395 149.053 121.104C148.353 121.813 147.504 122.168 146.505 122.168C145.264 122.168 144.321 121.655 143.677 120.628V124.8H142.753V115H143.677V116.372C144.321 115.345 145.264 114.832 146.505 114.832ZM144.475 120.474C145.007 121.006 145.661 121.272 146.435 121.272C147.21 121.272 147.863 121.006 148.395 120.474C148.927 119.933 149.193 119.275 149.193 118.5C149.193 117.725 148.927 117.072 148.395 116.54C147.863 115.999 147.21 115.728 146.435 115.728C145.661 115.728 145.007 115.999 144.475 116.54C143.943 117.072 143.677 117.725 143.677 118.5C143.677 119.275 143.943 119.933 144.475 120.474ZM157.674 115H158.598V122H157.674V120.628C157.03 121.655 156.087 122.168 154.846 122.168C153.847 122.168 152.993 121.813 152.284 121.104C151.584 120.395 151.234 119.527 151.234 118.5C151.234 117.473 151.584 116.605 152.284 115.896C152.993 115.187 153.847 114.832 154.846 114.832C156.087 114.832 157.03 115.345 157.674 116.372V115ZM152.956 120.474C153.488 121.006 154.141 121.272 154.916 121.272C155.69 121.272 156.344 121.006 156.876 120.474C157.408 119.933 157.674 119.275 157.674 118.5C157.674 117.725 157.408 117.072 156.876 116.54C156.344 115.999 155.69 115.728 154.916 115.728C154.141 115.728 153.488 115.999 152.956 116.54C152.424 117.072 152.158 117.725 152.158 118.5C152.158 119.275 152.424 119.933 152.956 120.474ZM165.006 118.402C165.772 118.682 166.154 119.228 166.154 120.04C166.154 120.609 165.963 121.081 165.58 121.454C165.207 121.818 164.666 122 163.956 122H160.554V115H163.676C164.358 115 164.885 115.177 165.258 115.532C165.632 115.877 165.818 116.325 165.818 116.876C165.818 117.576 165.548 118.085 165.006 118.402ZM163.676 115.896H161.478V118.024H163.676C164.488 118.024 164.894 117.66 164.894 116.932C164.894 116.605 164.787 116.353 164.572 116.176C164.367 115.989 164.068 115.896 163.676 115.896ZM163.956 121.104C164.367 121.104 164.68 121.006 164.894 120.81C165.118 120.614 165.23 120.339 165.23 119.984C165.23 119.657 165.118 119.401 164.894 119.214C164.68 119.018 164.367 118.92 163.956 118.92H161.478V121.104H163.956ZM173.021 115V122H172.097V115.896H168.933V119.018C168.933 120.185 168.709 120.987 168.261 121.426C167.822 121.865 167.215 122.056 166.441 122V121.132C166.973 121.188 167.365 121.062 167.617 120.754C167.878 120.446 168.009 119.867 168.009 119.018V115H173.021ZM180.018 115V122H179.094V119.312H177.89L175.734 122H174.558L176.77 119.284C176.21 119.2 175.748 118.967 175.384 118.584C175.02 118.201 174.838 117.73 174.838 117.17C174.838 116.535 175.062 116.017 175.51 115.616C175.967 115.205 176.523 115 177.176 115H180.018ZM177.176 118.444H179.094V115.896H177.176C176.784 115.896 176.448 116.013 176.168 116.246C175.897 116.479 175.762 116.787 175.762 117.17C175.762 117.553 175.897 117.861 176.168 118.094C176.448 118.327 176.784 118.444 177.176 118.444ZM187.018 115V115.896H184.54V122H183.616V115.896H181.138V115H187.018ZM190.986 117.66C191.639 117.66 192.19 117.865 192.638 118.276C193.095 118.677 193.324 119.195 193.324 119.83C193.324 120.465 193.095 120.987 192.638 121.398C192.19 121.799 191.639 122 190.986 122H188.144V115H189.068V117.66H190.986ZM190.986 121.104C191.378 121.104 191.709 120.987 191.98 120.754C192.26 120.521 192.4 120.213 192.4 119.83C192.4 119.447 192.26 119.139 191.98 118.906C191.709 118.673 191.378 118.556 190.986 118.556H189.068V121.104H190.986ZM18.02 131V131.896H15.542V138H14.618V131.896H12.14V131H18.02ZM22.898 130.832C23.8967 130.832 24.746 131.187 25.446 131.896C26.1553 132.605 26.51 133.473 26.51 134.5C26.51 135.527 26.1553 136.395 25.446 137.104C24.746 137.813 23.8967 138.168 22.898 138.168C21.6567 138.168 20.714 137.655 20.07 136.628V140.8H19.146V131H20.07V132.372C20.714 131.345 21.6567 130.832 22.898 130.832ZM20.868 136.474C21.4 137.006 22.0533 137.272 22.828 137.272C23.6027 137.272 24.256 137.006 24.788 136.474C25.32 135.933 25.586 135.275 25.586 134.5C25.586 133.725 25.32 133.072 24.788 132.54C24.256 131.999 23.6027 131.728 22.828 131.728C22.0533 131.728 21.4 131.999 20.868 132.54C20.336 133.072 20.07 133.725 20.07 134.5C20.07 135.275 20.336 135.933 20.868 136.474ZM31.2804 130.832C32.3164 130.832 33.1517 131.201 33.7864 131.938C34.4304 132.666 34.7524 133.529 34.7524 134.528C34.7524 134.631 34.7431 134.775 34.7244 134.962H28.5784C28.6717 135.671 28.9704 136.236 29.4744 136.656C29.9877 137.067 30.6177 137.272 31.3644 137.272C31.8964 137.272 32.3537 137.165 32.7364 136.95C33.1284 136.726 33.4224 136.437 33.6184 136.082L34.4304 136.558C34.1224 137.053 33.7024 137.445 33.1704 137.734C32.6384 138.023 32.0317 138.168 31.3504 138.168C30.2491 138.168 29.3531 137.823 28.6624 137.132C27.9717 136.441 27.6264 135.564 27.6264 134.5C27.6264 133.455 27.9671 132.582 28.6484 131.882C29.3297 131.182 30.2071 130.832 31.2804 130.832ZM31.2804 131.728C30.5524 131.728 29.9411 131.947 29.4464 132.386C28.9611 132.815 28.6717 133.375 28.5784 134.066H33.8004C33.7071 133.329 33.4224 132.755 32.9464 132.344C32.4704 131.933 31.9151 131.728 31.2804 131.728ZM41.1782 131H42.1022V138H41.1782V134.948H37.1462V138H36.2222V131H37.1462V134.052H41.1782V131ZM49.1522 131H49.9362V138H49.0122V132.61L44.8402 138H44.0562V131H44.9802V136.39L49.1522 131ZM55.6422 130.832C56.6408 130.832 57.4902 131.187 58.1902 131.896C58.8995 132.605 59.2542 133.473 59.2542 134.5C59.2542 135.527 58.8995 136.395 58.1902 137.104C57.4902 137.813 56.6408 138.168 55.6422 138.168C54.4008 138.168 53.4582 137.655 52.8142 136.628V140.8H51.8902V131H52.8142V132.372C53.4582 131.345 54.4008 130.832 55.6422 130.832ZM53.6122 136.474C54.1442 137.006 54.7975 137.272 55.5722 137.272C56.3468 137.272 57.0002 137.006 57.5322 136.474C58.0642 135.933 58.3302 135.275 58.3302 134.5C58.3302 133.725 58.0642 133.072 57.5322 132.54C57.0002 131.999 56.3468 131.728 55.5722 131.728C54.7975 131.728 54.1442 131.999 53.6122 132.54C53.0802 133.072 52.8142 133.725 52.8142 134.5C52.8142 135.275 53.0802 135.933 53.6122 136.474ZM66.6565 137.118C65.9472 137.818 65.0792 138.168 64.0525 138.168C63.0259 138.168 62.1532 137.818 61.4345 137.118C60.7252 136.409 60.3705 135.536 60.3705 134.5C60.3705 133.464 60.7252 132.596 61.4345 131.896C62.1532 131.187 63.0259 130.832 64.0525 130.832C65.0792 130.832 65.9472 131.187 66.6565 131.896C67.3752 132.596 67.7345 133.464 67.7345 134.5C67.7345 135.536 67.3752 136.409 66.6565 137.118ZM62.0925 136.474C62.6245 137.006 63.2779 137.272 64.0525 137.272C64.8272 137.272 65.4805 137.006 66.0125 136.474C66.5445 135.933 66.8105 135.275 66.8105 134.5C66.8105 133.725 66.5445 133.072 66.0125 132.54C65.4805 131.999 64.8272 131.728 64.0525 131.728C63.2779 131.728 62.6245 131.999 62.0925 132.54C61.5605 133.072 61.2945 133.725 61.2945 134.5C61.2945 135.275 61.5605 135.933 62.0925 136.474ZM73.7328 134.402C74.4981 134.682 74.8808 135.228 74.8808 136.04C74.8808 136.609 74.6894 137.081 74.3068 137.454C73.9334 137.818 73.3921 138 72.6828 138H69.2808V131H72.4028C73.0841 131 73.6114 131.177 73.9848 131.532C74.3581 131.877 74.5448 132.325 74.5448 132.876C74.5448 133.576 74.2741 134.085 73.7328 134.402ZM72.4028 131.896H70.2048V134.024H72.4028C73.2148 134.024 73.6208 133.66 73.6208 132.932C73.6208 132.605 73.5134 132.353 73.2988 132.176C73.0934 131.989 72.7948 131.896 72.4028 131.896ZM72.6828 137.104C73.0934 137.104 73.4061 137.006 73.6208 136.81C73.8448 136.614 73.9568 136.339 73.9568 135.984C73.9568 135.657 73.8448 135.401 73.6208 135.214C73.4061 135.018 73.0934 134.92 72.6828 134.92H70.2048V137.104H72.6828ZM82.1468 137.118C81.4374 137.818 80.5694 138.168 79.5428 138.168C78.5161 138.168 77.6434 137.818 76.9248 137.118C76.2154 136.409 75.8608 135.536 75.8608 134.5C75.8608 133.464 76.2154 132.596 76.9248 131.896C77.6434 131.187 78.5161 130.832 79.5428 130.832C80.5694 130.832 81.4374 131.187 82.1468 131.896C82.8654 132.596 83.2248 133.464 83.2248 134.5C83.2248 135.536 82.8654 136.409 82.1468 137.118ZM77.5828 136.474C78.1148 137.006 78.7681 137.272 79.5428 137.272C80.3174 137.272 80.9708 137.006 81.5028 136.474C82.0348 135.933 82.3008 135.275 82.3008 134.5C82.3008 133.725 82.0348 133.072 81.5028 132.54C80.9708 131.999 80.3174 131.728 79.5428 131.728C78.7681 131.728 78.1148 131.999 77.5828 132.54C77.0508 133.072 76.7848 133.725 76.7848 134.5C76.7848 135.275 77.0508 135.933 77.5828 136.474ZM89.1703 131H90.0943V138H89.1703V135.34C88.629 135.62 87.9616 135.76 87.1683 135.76C86.2536 135.76 85.5536 135.55 85.0683 135.13C84.5923 134.701 84.3543 134.071 84.3543 133.24V131H85.2783V133.24C85.2783 133.828 85.4323 134.253 85.7403 134.514C86.0483 134.766 86.515 134.892 87.1403 134.892C87.8683 134.892 88.545 134.757 89.1703 134.486V131ZM97.0141 131H97.9381V138H97.0141V134.948H92.9821V138H92.0581V131H92.9821V134.052H97.0141V131ZM102.734 133.66C103.387 133.66 103.938 133.865 104.386 134.276C104.843 134.677 105.072 135.195 105.072 135.83C105.072 136.465 104.843 136.987 104.386 137.398C103.938 137.799 103.387 138 102.734 138H99.8921V131H100.816V133.66H102.734ZM106.052 131H106.976V138H106.052V131ZM102.734 137.104C103.126 137.104 103.457 136.987 103.728 136.754C104.008 136.521 104.148 136.213 104.148 135.83C104.148 135.447 104.008 135.139 103.728 134.906C103.457 134.673 103.126 134.556 102.734 134.556H100.816V137.104H102.734ZM115.803 131V138H114.879V132.414L112.429 136.39H112.317L109.867 132.414V138H108.943V131H110.007L112.373 134.836L114.739 131H115.803ZM18.86 147V154H17.936V147.896H13.904V154H12.98V147H18.86ZM24.566 146.832C25.5647 146.832 26.414 147.187 27.114 147.896C27.8233 148.605 28.178 149.473 28.178 150.5C28.178 151.527 27.8233 152.395 27.114 153.104C26.414 153.813 25.5647 154.168 24.566 154.168C23.3247 154.168 22.382 153.655 21.738 152.628V156.8H20.814V147H21.738V148.372C22.382 147.345 23.3247 146.832 24.566 146.832ZM22.536 152.474C23.068 153.006 23.7213 153.272 24.496 153.272C25.2707 153.272 25.924 153.006 26.456 152.474C26.988 151.933 27.254 151.275 27.254 150.5C27.254 149.725 26.988 149.072 26.456 148.54C25.924 147.999 25.2707 147.728 24.496 147.728C23.7213 147.728 23.068 147.999 22.536 148.54C22.004 149.072 21.738 149.725 21.738 150.5C21.738 151.275 22.004 151.933 22.536 152.474ZM35.5804 153.118C34.871 153.818 34.003 154.168 32.9764 154.168C31.9497 154.168 31.077 153.818 30.3584 153.118C29.649 152.409 29.2944 151.536 29.2944 150.5C29.2944 149.464 29.649 148.596 30.3584 147.896C31.077 147.187 31.9497 146.832 32.9764 146.832C34.003 146.832 34.871 147.187 35.5804 147.896C36.299 148.596 36.6584 149.464 36.6584 150.5C36.6584 151.536 36.299 152.409 35.5804 153.118ZM31.0164 152.474C31.5484 153.006 32.2017 153.272 32.9764 153.272C33.751 153.272 34.4044 153.006 34.9364 152.474C35.4684 151.933 35.7344 151.275 35.7344 150.5C35.7344 149.725 35.4684 149.072 34.9364 148.54C34.4044 147.999 33.751 147.728 32.9764 147.728C32.2017 147.728 31.5484 147.999 31.0164 148.54C30.4844 149.072 30.2184 149.725 30.2184 150.5C30.2184 151.275 30.4844 151.933 31.0164 152.474ZM43.9446 153.104H45.0646V155.876H44.1406V154H38.2046V147H39.1286V153.104H43.0206V147H43.9446V153.104ZM49.423 146.832C50.459 146.832 51.2943 147.201 51.929 147.938C52.573 148.666 52.895 149.529 52.895 150.528C52.895 150.631 52.8857 150.775 52.867 150.962H46.721C46.8143 151.671 47.113 152.236 47.617 152.656C48.1303 153.067 48.7603 153.272 49.507 153.272C50.039 153.272 50.4963 153.165 50.879 152.95C51.271 152.726 51.565 152.437 51.761 152.082L52.573 152.558C52.265 153.053 51.845 153.445 51.313 153.734C50.781 154.023 50.1743 154.168 49.493 154.168C48.3917 154.168 47.4957 153.823 46.805 153.132C46.1143 152.441 45.769 151.564 45.769 150.5C45.769 149.455 46.1097 148.582 46.791 147.882C47.4723 147.182 48.3497 146.832 49.423 146.832ZM49.423 147.728C48.695 147.728 48.0837 147.947 47.589 148.386C47.1037 148.815 46.8143 149.375 46.721 150.066H51.943C51.8497 149.329 51.565 148.755 51.089 148.344C50.613 147.933 50.0577 147.728 49.423 147.728ZM57.6268 154.168C56.5721 154.168 55.6948 153.818 54.9948 153.118C54.2948 152.409 53.9448 151.536 53.9448 150.5C53.9448 149.464 54.2948 148.596 54.9948 147.896C55.6948 147.187 56.5721 146.832 57.6268 146.832C58.3174 146.832 58.9381 147 59.4888 147.336C60.0394 147.663 60.4408 148.106 60.6928 148.666L59.9368 149.1C59.7501 148.68 59.4468 148.349 59.0268 148.106C58.6161 147.854 58.1494 147.728 57.6268 147.728C56.8521 147.728 56.1988 147.999 55.6668 148.54C55.1348 149.072 54.8688 149.725 54.8688 150.5C54.8688 151.275 55.1348 151.933 55.6668 152.474C56.1988 153.006 56.8521 153.272 57.6268 153.272C58.1494 153.272 58.6161 153.151 59.0268 152.908C59.4374 152.656 59.7594 152.32 59.9928 151.9L60.7628 152.348C60.4734 152.908 60.0488 153.351 59.4888 153.678C58.9288 154.005 58.3081 154.168 57.6268 154.168ZM65.283 154.168C64.2283 154.168 63.351 153.818 62.651 153.118C61.951 152.409 61.601 151.536 61.601 150.5C61.601 149.464 61.951 148.596 62.651 147.896C63.351 147.187 64.2283 146.832 65.283 146.832C65.9737 146.832 66.5943 147 67.145 147.336C67.6957 147.663 68.097 148.106 68.349 148.666L67.593 149.1C67.4063 148.68 67.103 148.349 66.683 148.106C66.2723 147.854 65.8057 147.728 65.283 147.728C64.5083 147.728 63.855 147.999 63.323 148.54C62.791 149.072 62.525 149.725 62.525 150.5C62.525 151.275 62.791 151.933 63.323 152.474C63.855 153.006 64.5083 153.272 65.283 153.272C65.8057 153.272 66.2723 153.151 66.683 152.908C67.0937 152.656 67.4157 152.32 67.649 151.9L68.419 152.348C68.1297 152.908 67.705 153.351 67.145 153.678C66.585 154.005 65.9643 154.168 65.283 154.168ZM75.5433 153.118C74.8339 153.818 73.9659 154.168 72.9393 154.168C71.9126 154.168 71.0399 153.818 70.3213 153.118C69.6119 152.409 69.2573 151.536 69.2573 150.5C69.2573 149.464 69.6119 148.596 70.3213 147.896C71.0399 147.187 71.9126 146.832 72.9393 146.832C73.9659 146.832 74.8339 147.187 75.5433 147.896C76.2619 148.596 76.6213 149.464 76.6213 150.5C76.6213 151.536 76.2619 152.409 75.5433 153.118ZM70.9793 152.474C71.5113 153.006 72.1646 153.272 72.9393 153.272C73.7139 153.272 74.3673 153.006 74.8993 152.474C75.4313 151.933 75.6973 151.275 75.6973 150.5C75.6973 149.725 75.4313 149.072 74.8993 148.54C74.3673 147.999 73.7139 147.728 72.9393 147.728C72.1646 147.728 71.5113 147.999 70.9793 148.54C70.4473 149.072 70.1813 149.725 70.1813 150.5C70.1813 151.275 70.4473 151.933 70.9793 152.474ZM85.0275 147V154H84.1035V148.414L81.6535 152.39H81.5415L79.0915 148.414V154H78.1675V147H79.2315L81.5975 150.836L83.9635 147H85.0275ZM95.5819 147H96.3659V154H95.4419V148.61L91.2699 154H90.4859V147H91.4099V152.39L95.5819 147ZM106.916 147H107.7V154H106.776V148.61L102.604 154H101.82V147H102.744V152.39L106.916 147ZM114.134 147V147.896H110.578V154H109.654V147H114.134ZM119.011 146.832C120.01 146.832 120.859 147.187 121.559 147.896C122.269 148.605 122.623 149.473 122.623 150.5C122.623 151.527 122.269 152.395 121.559 153.104C120.859 153.813 120.01 154.168 119.011 154.168C117.77 154.168 116.827 153.655 116.183 152.628V156.8H115.259V147H116.183V148.372C116.827 147.345 117.77 146.832 119.011 146.832ZM116.981 152.474C117.513 153.006 118.167 153.272 118.941 153.272C119.716 153.272 120.369 153.006 120.901 152.474C121.433 151.933 121.699 151.275 121.699 150.5C121.699 149.725 121.433 149.072 120.901 148.54C120.369 147.999 119.716 147.728 118.941 147.728C118.167 147.728 117.513 147.999 116.981 148.54C116.449 149.072 116.183 149.725 116.183 150.5C116.183 151.275 116.449 151.933 116.981 152.474ZM130.026 153.118C129.316 153.818 128.448 154.168 127.422 154.168C126.395 154.168 125.522 153.818 124.804 153.118C124.094 152.409 123.74 151.536 123.74 150.5C123.74 149.464 124.094 148.596 124.804 147.896C125.522 147.187 126.395 146.832 127.422 146.832C128.448 146.832 129.316 147.187 130.026 147.896C130.744 148.596 131.104 149.464 131.104 150.5C131.104 151.536 130.744 152.409 130.026 153.118ZM125.462 152.474C125.994 153.006 126.647 153.272 127.422 153.272C128.196 153.272 128.85 153.006 129.382 152.474C129.914 151.933 130.18 151.275 130.18 150.5C130.18 149.725 129.914 149.072 129.382 148.54C128.85 147.999 128.196 147.728 127.422 147.728C126.647 147.728 125.994 147.999 125.462 148.54C124.93 149.072 124.664 149.725 124.664 150.5C124.664 151.275 124.93 151.933 125.462 152.474ZM138.306 154H137.074L133.574 150.626V154H132.65V147H133.574V150.094L136.906 147H138.166L134.554 150.36L138.306 154ZM144.891 147H145.815V154H144.891V152.628C144.247 153.655 143.304 154.168 142.063 154.168C141.064 154.168 140.21 153.813 139.501 153.104C138.801 152.395 138.451 151.527 138.451 150.5C138.451 149.473 138.801 148.605 139.501 147.896C140.21 147.187 141.064 146.832 142.063 146.832C143.304 146.832 144.247 147.345 144.891 148.372V147ZM140.173 152.474C140.705 153.006 141.358 153.272 142.133 153.272C142.907 153.272 143.561 153.006 144.093 152.474C144.625 151.933 144.891 151.275 144.891 150.5C144.891 149.725 144.625 149.072 144.093 148.54C143.561 147.999 142.907 147.728 142.133 147.728C141.358 147.728 140.705 147.999 140.173 148.54C139.641 149.072 139.375 149.725 139.375 150.5C139.375 151.275 139.641 151.933 140.173 152.474ZM154.631 147V154H153.707V148.414L151.257 152.39H151.145L148.695 148.414V154H147.771V147H148.835L151.201 150.836L153.567 147H154.631ZM161.685 147H162.469V154H161.545V148.61L157.373 154H156.589V147H157.513V152.39L161.685 147ZM165.599 153.916C165.45 154.065 165.268 154.14 165.053 154.14C164.839 154.14 164.657 154.065 164.507 153.916C164.358 153.767 164.283 153.585 164.283 153.37C164.283 153.155 164.358 152.973 164.507 152.824C164.657 152.675 164.839 152.6 165.053 152.6C165.268 152.6 165.45 152.675 165.599 152.824C165.749 152.973 165.823 153.155 165.823 153.37C165.823 153.585 165.749 153.767 165.599 153.916Z" fill="white"/>
<defs>
<filter id="filter0_b_1002_693" x="-10" y="-10" width="226" height="198" filterUnits="userSpaceOnUse" color-interpolation-filters="sRGB">
<feFlood flood-opacity="0" result="BackgroundImageFix"/>
<feGaussianBlur in="BackgroundImageFix" stdDeviation="5"/>
<feComposite in2="SourceAlpha" operator="in" result="effect1_backgroundBlur_1002_693"/>
<feBlend mode="normal" in="SourceGraphic" in2="effect1_backgroundBlur_1002_693" result="shape"/>
</filter>
</defs>
</svg>
