<svg width="206" height="178" viewBox="0 0 206 178" fill="none" xmlns="http://www.w3.org/2000/svg">
<g filter="url(#filter0_b_888_26039)">
<rect width="206" height="178" rx="15" fill="#0C0C0C" fill-opacity="0.3"/>
<rect x="0.5" y="0.5" width="205" height="177" rx="14.5" stroke="white" stroke-opacity="0.3"/>
<path d="M18.6 28C19.8533 28 20.9 28.42 21.74 29.26C22.58 30.1 23 31.1467 23 32.4C23 33.6533 22.58 34.7 21.74 35.54C20.9 36.38 19.8533 36.8 18.6 36.8H15V42H13.6V28H18.6ZM18.6 35.48C19.4667 35.48 20.18 35.1933 20.74 34.62C21.3133 34.0333 21.6 33.2933 21.6 32.4C21.6 31.5067 21.3133 30.7733 20.74 30.2C20.18 29.6133 19.4667 29.32 18.6 29.32H15V35.48H18.6ZM29.0161 31.76C30.4961 31.76 31.6894 32.2867 32.5961 33.34C33.5161 34.38 33.9761 35.6133 33.9761 37.04C33.9761 37.1867 33.9628 37.3933 33.9361 37.66H25.1561C25.2894 38.6733 25.7161 39.48 26.4361 40.08C27.1694 40.6667 28.0694 40.96 29.1361 40.96C29.8961 40.96 30.5494 40.8067 31.0961 40.5C31.6561 40.18 32.0761 39.7667 32.3561 39.26L33.5161 39.94C33.0761 40.6467 32.4761 41.2067 31.7161 41.62C30.9561 42.0333 30.0894 42.24 29.1161 42.24C27.5428 42.24 26.2628 41.7467 25.2761 40.76C24.2894 39.7733 23.7961 38.52 23.7961 37C23.7961 35.5067 24.2828 34.26 25.2561 33.26C26.2294 32.26 27.4828 31.76 29.0161 31.76ZM29.0161 33.04C27.9761 33.04 27.1028 33.3533 26.3961 33.98C25.7028 34.5933 25.2894 35.3933 25.1561 36.38H32.6161C32.4828 35.3267 32.0761 34.5067 31.3961 33.92C30.7161 33.3333 29.9228 33.04 29.0161 33.04ZM47.1503 42H45.5503L41.4703 37.18V42H40.1503V37.18L36.0703 42H34.4703L38.9503 36.8L34.6703 32H36.2703L40.1503 36.44V32H41.4703V36.44L45.3503 32H46.9503L42.6703 36.8L47.1503 42ZM56.2269 32H57.3469V42H56.0269V34.3L50.0669 42H48.9469V32H50.2669V39.7L56.2269 32ZM69.9383 32V42H68.6183V34.02L65.1183 39.7H64.9583L61.4583 34.02V42H60.1383V32H61.6583L65.0383 37.48L68.4183 32H69.9383ZM17.24 55.22L15.04 58.82L17.24 62.42H15.6L13.4 58.82L15.6 55.22H17.24ZM20.44 55.22L18.24 58.82L20.44 62.42H18.8L16.6 58.82L18.8 55.22H20.44ZM35.4638 54.12C36.7038 55.0533 37.3238 56.3467 37.3238 58C37.3238 59.6533 36.7038 60.9467 35.4638 61.88C34.2371 62.8133 32.6104 63.3267 30.5838 63.42V65H29.1838V63.42C27.1571 63.3267 25.5238 62.8133 24.2838 61.88C23.0571 60.9467 22.4438 59.6533 22.4438 58C22.4438 56.3467 23.0571 55.0533 24.2838 54.12C25.5238 53.1867 27.1571 52.6733 29.1838 52.58V51H30.5838V52.58C32.6104 52.6733 34.2371 53.1867 35.4638 54.12ZM25.2838 55.04C24.3238 55.7333 23.8438 56.72 23.8438 58C23.8438 59.28 24.3238 60.2733 25.2838 60.98C26.2438 61.6733 27.5438 62.06 29.1838 62.14V53.86C27.5438 53.94 26.2438 54.3333 25.2838 55.04ZM30.5838 62.14C32.2238 62.06 33.5238 61.6733 34.4838 60.98C35.4438 60.2733 35.9238 59.28 35.9238 58C35.9238 56.72 35.4438 55.7333 34.4838 55.04C33.5238 54.3333 32.2238 53.94 30.5838 53.86V62.14ZM46.3227 55H47.7227L43.4427 65.92C43.056 66.9067 42.5027 67.68 41.7827 68.24C41.076 68.8133 40.2827 69.0667 39.4027 69V67.76C40.6027 67.8933 41.516 67.2 42.1427 65.68L42.4027 65.06L37.9227 55H39.3227L43.0827 63.38L46.3227 55ZM56.518 55V56.28H52.978V65H51.658V56.28H48.118V55H56.518ZM62.1759 65.24C60.7359 65.24 59.5359 64.7667 58.5759 63.82C57.6159 62.86 57.1359 61.62 57.1359 60.1C57.1359 58.3933 57.3893 57.0867 57.8959 56.18C58.4026 55.26 59.4293 54.4267 60.9759 53.68C61.2693 53.5333 61.6559 53.36 62.1359 53.16C62.6293 52.96 62.9959 52.8 63.2359 52.68C63.4893 52.56 63.7626 52.4067 64.0559 52.22C64.3493 52.02 64.5693 51.8 64.7159 51.56C64.8626 51.32 64.9559 51.0333 64.9959 50.7L66.0359 51.3C65.9826 51.62 65.8759 51.92 65.7159 52.2C65.5559 52.48 65.3893 52.7067 65.2159 52.88C65.0559 53.0533 64.7959 53.2467 64.4359 53.46C64.0893 53.66 63.8159 53.8067 63.6159 53.9C63.4293 53.98 63.0959 54.12 62.6159 54.32C62.1493 54.52 61.8359 54.6533 61.6759 54.72C60.7426 55.12 60.0559 55.54 59.6159 55.98C59.1759 56.4067 58.8626 56.9667 58.6759 57.66C59.1293 57.06 59.7026 56.62 60.3959 56.34C61.1026 56.0467 61.7893 55.9 62.4559 55.9C63.7893 55.9 64.8893 56.34 65.7559 57.22C66.6359 58.0867 67.0759 59.2 67.0759 60.56C67.0759 61.9067 66.6093 63.0267 65.6759 63.92C64.7559 64.8 63.5893 65.24 62.1759 65.24ZM62.1759 63.92C63.2159 63.92 64.0693 63.6067 64.7359 62.98C65.4159 62.34 65.7559 61.5333 65.7559 60.56C65.7559 59.5733 65.4359 58.7667 64.7959 58.14C64.1693 57.5 63.3293 57.18 62.2759 57.18C61.3293 57.18 60.4693 57.48 59.6959 58.08C58.9226 58.6667 58.5359 59.4533 58.5359 60.44C58.5359 61.4533 58.8826 62.2867 59.5759 62.94C60.2826 63.5933 61.1493 63.92 62.1759 63.92ZM77.4636 63.74C76.4503 64.74 75.2103 65.24 73.7436 65.24C72.2769 65.24 71.0303 64.74 70.0036 63.74C68.9903 62.7267 68.4836 61.48 68.4836 60C68.4836 58.52 68.9903 57.28 70.0036 56.28C71.0303 55.2667 72.2769 54.76 73.7436 54.76C75.2103 54.76 76.4503 55.2667 77.4636 56.28C78.4903 57.28 79.0036 58.52 79.0036 60C79.0036 61.48 78.4903 62.7267 77.4636 63.74ZM70.9436 62.82C71.7036 63.58 72.6369 63.96 73.7436 63.96C74.8503 63.96 75.7836 63.58 76.5436 62.82C77.3036 62.0467 77.6836 61.1067 77.6836 60C77.6836 58.8933 77.3036 57.96 76.5436 57.2C75.7836 56.4267 74.8503 56.04 73.7436 56.04C72.6369 56.04 71.7036 56.4267 70.9436 57.2C70.1836 57.96 69.8036 58.8933 69.8036 60C69.8036 61.1067 70.1836 62.0467 70.9436 62.82ZM89.0219 55V65H87.7019V56.28H83.1819V60.74C83.1819 62.4067 82.8619 63.5533 82.2219 64.18C81.5952 64.8067 80.7285 65.08 79.6219 65V63.76C80.3819 63.84 80.9419 63.66 81.3019 63.22C81.6752 62.78 81.8619 61.9533 81.8619 60.74V55H89.0219ZM99.098 55H100.218V65H98.898V57.3L92.938 65H91.818V55H93.138V62.7L99.098 55ZM107.669 65.24C106.163 65.24 104.909 64.74 103.909 63.74C102.909 62.7267 102.409 61.48 102.409 60C102.409 58.52 102.909 57.28 103.909 56.28C104.909 55.2667 106.163 54.76 107.669 54.76C108.656 54.76 109.543 55 110.329 55.48C111.116 55.9467 111.689 56.58 112.049 57.38L110.969 58C110.703 57.4 110.269 56.9267 109.669 56.58C109.083 56.22 108.416 56.04 107.669 56.04C106.563 56.04 105.629 56.4267 104.869 57.2C104.109 57.96 103.729 58.8933 103.729 60C103.729 61.1067 104.109 62.0467 104.869 62.82C105.629 63.58 106.563 63.96 107.669 63.96C108.416 63.96 109.083 63.7867 109.669 63.44C110.256 63.08 110.716 62.6 111.049 62L112.149 62.64C111.736 63.44 111.129 64.0733 110.329 64.54C109.529 65.0067 108.643 65.24 107.669 65.24ZM121.049 55V56.28H117.509V65H116.189V56.28H112.649V55H121.049ZM123.907 55.22L126.107 58.82L123.907 62.42H122.267L124.467 58.82L122.267 55.22H123.907ZM127.107 55.22L129.307 58.82L127.107 62.42H125.467L127.667 58.82L125.467 55.22H127.107Z" fill="white"/>
<path opacity="0.7" d="M17.698 88.168C16.214 88.168 14.9867 87.678 14.016 86.698C13.0453 85.718 12.56 84.5187 12.56 83.1C12.56 81.6813 13.0453 80.482 14.016 79.502C14.9867 78.522 16.214 78.032 17.698 78.032C18.6033 78.032 19.434 78.2513 20.19 78.69C20.946 79.1193 21.5293 79.7027 21.94 80.44L21.072 80.944C20.764 80.3467 20.3067 79.8707 19.7 79.516C19.0933 79.1613 18.426 78.984 17.698 78.984C16.4753 78.984 15.4767 79.3807 14.702 80.174C13.9273 80.9673 13.54 81.9427 13.54 83.1C13.54 84.2573 13.9273 85.2327 14.702 86.026C15.4767 86.8193 16.4753 87.216 17.698 87.216C18.426 87.216 19.0933 87.0387 19.7 86.684C20.3067 86.3293 20.764 85.8533 21.072 85.256L21.94 85.746C21.5387 86.4833 20.9553 87.0713 20.19 87.51C19.434 87.9487 18.6033 88.168 17.698 88.168ZM29.2093 87.118C28.4999 87.818 27.6319 88.168 26.6053 88.168C25.5786 88.168 24.7059 87.818 23.9873 87.118C23.2779 86.4087 22.9233 85.536 22.9233 84.5C22.9233 83.464 23.2779 82.596 23.9873 81.896C24.7059 81.1867 25.5786 80.832 26.6053 80.832C27.6319 80.832 28.4999 81.1867 29.2093 81.896C29.9279 82.596 30.2873 83.464 30.2873 84.5C30.2873 85.536 29.9279 86.4087 29.2093 87.118ZM24.6453 86.474C25.1773 87.006 25.8306 87.272 26.6053 87.272C27.3799 87.272 28.0333 87.006 28.5653 86.474C29.0973 85.9327 29.3633 85.2747 29.3633 84.5C29.3633 83.7253 29.0973 83.072 28.5653 82.54C28.0333 81.9987 27.3799 81.728 26.6053 81.728C25.8306 81.728 25.1773 81.9987 24.6453 82.54C24.1133 83.072 23.8473 83.7253 23.8473 84.5C23.8473 85.2747 24.1133 85.9327 24.6453 86.474ZM35.1721 84.402C35.9841 84.71 36.3901 85.27 36.3901 86.082C36.3901 86.6607 36.1614 87.1553 35.7041 87.566C35.2561 87.9673 34.6121 88.168 33.7721 88.168C32.3627 88.168 31.4387 87.608 31.0001 86.488L31.7841 86.026C32.0734 86.8567 32.7361 87.272 33.7721 87.272C34.3134 87.272 34.7287 87.1553 35.0181 86.922C35.3167 86.6887 35.4661 86.39 35.4661 86.026C35.4661 85.6993 35.3447 85.4333 35.1021 85.228C34.8594 85.0227 34.5327 84.92 34.1221 84.92H33.1001V84.024H33.8421C34.2434 84.024 34.5561 83.926 34.7801 83.73C35.0134 83.5247 35.1301 83.2447 35.1301 82.89C35.1301 82.554 34.9947 82.2787 34.7241 82.064C34.4534 81.84 34.0894 81.728 33.6321 81.728C32.7547 81.728 32.1714 82.078 31.8821 82.778L31.1121 82.33C31.5787 81.3313 32.4187 80.832 33.6321 80.832C34.3694 80.832 34.9574 81.028 35.3961 81.42C35.8347 81.8027 36.0541 82.274 36.0541 82.834C36.0541 83.5527 35.7601 84.0753 35.1721 84.402ZM43.5377 87.104H44.5177V89.876H43.5937V88H37.8817V89.876H36.9577V87.104H37.8117C38.2877 86.4787 38.5257 85.5967 38.5257 84.458V81H43.5377V87.104ZM38.9317 87.104H42.6137V81.896H39.4497V84.458C39.4497 85.5313 39.2771 86.4133 38.9317 87.104ZM51.6621 81H52.5861V88H51.6621V86.628C51.0181 87.6547 50.0754 88.168 48.8341 88.168C47.8354 88.168 46.9814 87.8133 46.2721 87.104C45.5721 86.3947 45.2221 85.5267 45.2221 84.5C45.2221 83.4733 45.5721 82.6053 46.2721 81.896C46.9814 81.1867 47.8354 80.832 48.8341 80.832C50.0754 80.832 51.0181 81.3453 51.6621 82.372V81ZM46.9441 86.474C47.4761 87.006 48.1294 87.272 48.9041 87.272C49.6788 87.272 50.3321 87.006 50.8641 86.474C51.3961 85.9327 51.6621 85.2747 51.6621 84.5C51.6621 83.7253 51.3961 83.072 50.8641 82.54C50.3321 81.9987 49.6788 81.728 48.9041 81.728C48.1294 81.728 47.4761 81.9987 46.9441 82.54C46.4121 83.072 46.1461 83.7253 46.1461 84.5C46.1461 85.2747 46.4121 85.9327 46.9441 86.474ZM59.4985 81H60.4225V88H59.4985V84.948H55.4665V88H54.5425V81H55.4665V84.052H59.4985V81ZM67.4725 81H68.2565V88H67.3325V82.61L63.1605 88H62.3765V81H63.3005V86.39L67.4725 81ZM73.4445 80.832C74.4805 80.832 75.3158 81.2007 75.9505 81.938C76.5945 82.666 76.9165 83.5293 76.9165 84.528C76.9165 84.6307 76.9071 84.7753 76.8885 84.962H70.7425C70.8358 85.6713 71.1345 86.236 71.6385 86.656C72.1518 87.0667 72.7818 87.272 73.5285 87.272C74.0605 87.272 74.5178 87.1647 74.9005 86.95C75.2925 86.726 75.5865 86.4367 75.7825 86.082L76.5945 86.558C76.2865 87.0527 75.8665 87.4447 75.3345 87.734C74.8025 88.0233 74.1958 88.168 73.5145 88.168C72.4131 88.168 71.5171 87.8227 70.8265 87.132C70.1358 86.4413 69.7905 85.564 69.7905 84.5C69.7905 83.4547 70.1311 82.582 70.8125 81.882C71.4938 81.182 72.3711 80.832 73.4445 80.832ZM73.4445 81.728C72.7165 81.728 72.1051 81.9473 71.6105 82.386C71.1251 82.8153 70.8358 83.3753 70.7425 84.066H75.9645C75.8711 83.3287 75.5865 82.7547 75.1105 82.344C74.6345 81.9333 74.0791 81.728 73.4445 81.728ZM85.1483 88.168C84.0936 88.168 83.2163 87.818 82.5163 87.118C81.8163 86.4087 81.4663 85.536 81.4663 84.5C81.4663 83.464 81.8163 82.596 82.5163 81.896C83.2163 81.1867 84.0936 80.832 85.1483 80.832C85.8389 80.832 86.4596 81 87.0103 81.336C87.5609 81.6627 87.9623 82.106 88.2143 82.666L87.4583 83.1C87.2716 82.68 86.9683 82.3487 86.5483 82.106C86.1376 81.854 85.6709 81.728 85.1483 81.728C84.3736 81.728 83.7203 81.9987 83.1883 82.54C82.6563 83.072 82.3903 83.7253 82.3903 84.5C82.3903 85.2747 82.6563 85.9327 83.1883 86.474C83.7203 87.006 84.3736 87.272 85.1483 87.272C85.6709 87.272 86.1376 87.1507 86.5483 86.908C86.9589 86.656 87.2809 86.32 87.5143 85.9L88.2843 86.348C87.9949 86.908 87.5703 87.3513 87.0103 87.678C86.4503 88.0047 85.8296 88.168 85.1483 88.168ZM95.4085 87.118C94.6992 87.818 93.8312 88.168 92.8045 88.168C91.7778 88.168 90.9052 87.818 90.1865 87.118C89.4772 86.4087 89.1225 85.536 89.1225 84.5C89.1225 83.464 89.4772 82.596 90.1865 81.896C90.9052 81.1867 91.7778 80.832 92.8045 80.832C93.8312 80.832 94.6992 81.1867 95.4085 81.896C96.1272 82.596 96.4865 83.464 96.4865 84.5C96.4865 85.536 96.1272 86.4087 95.4085 87.118ZM90.8445 86.474C91.3765 87.006 92.0298 87.272 92.8045 87.272C93.5792 87.272 94.2325 87.006 94.7645 86.474C95.2965 85.9327 95.5625 85.2747 95.5625 84.5C95.5625 83.7253 95.2965 83.072 94.7645 82.54C94.2325 81.9987 93.5792 81.728 92.8045 81.728C92.0298 81.728 91.3765 81.9987 90.8445 82.54C90.3125 83.072 90.0465 83.7253 90.0465 84.5C90.0465 85.2747 90.3125 85.9327 90.8445 86.474ZM101.141 88.168C100.133 88.168 99.2927 87.8367 98.6207 87.174C97.9487 86.502 97.6127 85.634 97.6127 84.57C97.6127 83.3753 97.7901 82.4607 98.1447 81.826C98.4994 81.182 99.2181 80.5987 100.301 80.076C100.506 79.9733 100.777 79.852 101.113 79.712C101.458 79.572 101.715 79.46 101.883 79.376C102.06 79.292 102.251 79.1847 102.457 79.054C102.662 78.914 102.816 78.76 102.919 78.592C103.021 78.424 103.087 78.2233 103.115 77.99L103.843 78.41C103.805 78.634 103.731 78.844 103.619 79.04C103.507 79.236 103.39 79.3947 103.269 79.516C103.157 79.6373 102.975 79.7727 102.723 79.922C102.48 80.062 102.289 80.1647 102.149 80.23C102.018 80.286 101.785 80.384 101.449 80.524C101.122 80.664 100.903 80.7573 100.791 80.804C100.137 81.084 99.6567 81.378 99.3487 81.686C99.0407 81.9847 98.8214 82.3767 98.6907 82.862C99.0081 82.442 99.4094 82.134 99.8947 81.938C100.389 81.7327 100.87 81.63 101.337 81.63C102.27 81.63 103.04 81.938 103.647 82.554C104.263 83.1607 104.571 83.94 104.571 84.892C104.571 85.8347 104.244 86.6187 103.591 87.244C102.947 87.86 102.13 88.168 101.141 88.168ZM101.141 87.244C101.869 87.244 102.466 87.0247 102.933 86.586C103.409 86.138 103.647 85.5733 103.647 84.892C103.647 84.2013 103.423 83.6367 102.975 83.198C102.536 82.75 101.948 82.526 101.211 82.526C100.548 82.526 99.9461 82.736 99.4047 83.156C98.8634 83.5667 98.5927 84.1173 98.5927 84.808C98.5927 85.5173 98.8354 86.1007 99.3207 86.558C99.8154 87.0153 100.422 87.244 101.141 87.244ZM109.238 88.168C108.183 88.168 107.306 87.818 106.606 87.118C105.906 86.4087 105.556 85.536 105.556 84.5C105.556 83.464 105.906 82.596 106.606 81.896C107.306 81.1867 108.183 80.832 109.238 80.832C109.929 80.832 110.549 81 111.1 81.336C111.651 81.6627 112.052 82.106 112.304 82.666L111.548 83.1C111.361 82.68 111.058 82.3487 110.638 82.106C110.227 81.854 109.761 81.728 109.238 81.728C108.463 81.728 107.81 81.9987 107.278 82.54C106.746 83.072 106.48 83.7253 106.48 84.5C106.48 85.2747 106.746 85.9327 107.278 86.474C107.81 87.006 108.463 87.272 109.238 87.272C109.761 87.272 110.227 87.1507 110.638 86.908C111.049 86.656 111.371 86.32 111.604 85.9L112.374 86.348C112.085 86.908 111.66 87.3513 111.1 87.678C110.54 88.0047 109.919 88.168 109.238 88.168ZM118.604 81V81.896H116.126V88H115.202V81.896H112.724V81H118.604ZM124.182 84.402C124.947 84.682 125.33 85.228 125.33 86.04C125.33 86.6093 125.139 87.0807 124.756 87.454C124.383 87.818 123.841 88 123.132 88H119.73V81H122.852C123.533 81 124.061 81.1773 124.434 81.532C124.807 81.8773 124.994 82.3253 124.994 82.876C124.994 83.576 124.723 84.0847 124.182 84.402ZM122.852 81.896H120.654V84.024H122.852C123.664 84.024 124.07 83.66 124.07 82.932C124.07 82.6053 123.963 82.3533 123.748 82.176C123.543 81.9893 123.244 81.896 122.852 81.896ZM123.132 87.104C123.543 87.104 123.855 87.006 124.07 86.81C124.294 86.614 124.406 86.3387 124.406 85.984C124.406 85.6573 124.294 85.4007 124.07 85.214C123.855 85.018 123.543 84.92 123.132 84.92H120.654V87.104H123.132ZM129.964 80.832C131 80.832 131.835 81.2007 132.47 81.938C133.114 82.666 133.436 83.5293 133.436 84.528C133.436 84.6307 133.427 84.7753 133.408 84.962H127.262C127.355 85.6713 127.654 86.236 128.158 86.656C128.671 87.0667 129.301 87.272 130.048 87.272C130.58 87.272 131.037 87.1647 131.42 86.95C131.812 86.726 132.106 86.4367 132.302 86.082L133.114 86.558C132.806 87.0527 132.386 87.4447 131.854 87.734C131.322 88.0233 130.715 88.168 130.034 88.168C128.933 88.168 128.037 87.8227 127.346 87.132C126.655 86.4413 126.31 85.564 126.31 84.5C126.31 83.4547 126.651 82.582 127.332 81.882C128.013 81.182 128.891 80.832 129.964 80.832ZM129.964 81.728C129.236 81.728 128.625 81.9473 128.13 82.386C127.645 82.8153 127.355 83.3753 127.262 84.066H132.484C132.391 83.3287 132.106 82.7547 131.63 82.344C131.154 81.9333 130.599 81.728 129.964 81.728ZM139.862 81H140.786V88H139.862V84.948H135.83V88H134.906V81H135.83V84.052H139.862V81ZM147.696 81H148.62V88H147.696V84.948H143.664V88H142.74V81H143.664V84.052H147.696V81ZM153.416 83.66C154.069 83.66 154.62 83.8653 155.068 84.276C155.525 84.6773 155.754 85.1953 155.754 85.83C155.754 86.4647 155.525 86.9873 155.068 87.398C154.62 87.7993 154.069 88 153.416 88H150.574V81H151.498V83.66H153.416ZM156.734 81H157.658V88H156.734V81ZM153.416 87.104C153.808 87.104 154.139 86.9873 154.41 86.754C154.69 86.5207 154.83 86.2127 154.83 85.83C154.83 85.4473 154.69 85.1393 154.41 84.906C154.139 84.6727 153.808 84.556 153.416 84.556H151.498V87.104H153.416ZM165.505 88H164.399L162.215 85.116L160.031 88H158.925L161.669 84.374L159.107 81H160.213L162.215 83.646L164.217 81H165.323L162.775 84.374L165.505 88ZM19.84 97V104H18.916V98.414L16.466 102.39H16.354L13.904 98.414V104H12.98V97H14.044L16.41 100.836L18.776 97H19.84ZM27.8184 97H28.7424V104H27.8184V102.628C27.1744 103.655 26.2317 104.168 24.9904 104.168C23.9917 104.168 23.1377 103.813 22.4284 103.104C21.7284 102.395 21.3784 101.527 21.3784 100.5C21.3784 99.4733 21.7284 98.6053 22.4284 97.896C23.1377 97.1867 23.9917 96.832 24.9904 96.832C26.2317 96.832 27.1744 97.3453 27.8184 98.372V97ZM23.1004 102.474C23.6324 103.006 24.2857 103.272 25.0604 103.272C25.835 103.272 26.4884 103.006 27.0204 102.474C27.5524 101.933 27.8184 101.275 27.8184 100.5C27.8184 99.7253 27.5524 99.072 27.0204 98.54C26.4884 97.9987 25.835 97.728 25.0604 97.728C24.2857 97.728 23.6324 97.9987 23.1004 98.54C22.5684 99.072 22.3024 99.7253 22.3024 100.5C22.3024 101.275 22.5684 101.933 23.1004 102.474ZM35.7388 97V97.896H33.2608V104H32.3368V97.896H29.8588V97H35.7388ZM41.4008 97H42.3248V104H41.4008V101.34C40.8594 101.62 40.1921 101.76 39.3988 101.76C38.4841 101.76 37.7841 101.55 37.2988 101.13C36.8228 100.701 36.5848 100.071 36.5848 99.24V97H37.5088V99.24C37.5088 99.828 37.6628 100.253 37.9708 100.514C38.2788 100.766 38.7454 100.892 39.3708 100.892C40.0988 100.892 40.7754 100.757 41.4008 100.486V97ZM47.5226 96.832C48.5586 96.832 49.3939 97.2007 50.0286 97.938C50.6726 98.666 50.9946 99.5293 50.9946 100.528C50.9946 100.631 50.9853 100.775 50.9666 100.962H44.8206C44.9139 101.671 45.2126 102.236 45.7166 102.656C46.2299 103.067 46.8599 103.272 47.6066 103.272C48.1386 103.272 48.5959 103.165 48.9786 102.95C49.3706 102.726 49.6646 102.437 49.8606 102.082L50.6726 102.558C50.3646 103.053 49.9446 103.445 49.4126 103.734C48.8806 104.023 48.2739 104.168 47.5926 104.168C46.4913 104.168 45.5953 103.823 44.9046 103.132C44.2139 102.441 43.8686 101.564 43.8686 100.5C43.8686 99.4547 44.2093 98.582 44.8906 97.882C45.5719 97.182 46.4493 96.832 47.5226 96.832ZM47.5226 97.728C46.7946 97.728 46.1833 97.9473 45.6886 98.386C45.2033 98.8153 44.9139 99.3753 44.8206 100.066H50.0426C49.9493 99.3287 49.6646 98.7547 49.1886 98.344C48.7126 97.9333 48.1573 97.728 47.5226 97.728ZM53.5844 95.88V95.068H57.2244V95.88H53.5844ZM57.5604 97H58.3444V104H57.4204V98.61L53.2484 104H52.4644V97H53.3884V102.39L57.5604 97ZM68.8944 97H69.6784V104H68.7544V98.61L64.5824 104H63.7984V97H64.7224V102.39L68.8944 97ZM81.0123 97V104H80.0883V97.896H76.0563V104H75.1323V97H81.0123ZM88.8323 103.118C88.123 103.818 87.255 104.168 86.2283 104.168C85.2017 104.168 84.329 103.818 83.6103 103.118C82.901 102.409 82.5463 101.536 82.5463 100.5C82.5463 99.464 82.901 98.596 83.6103 97.896C84.329 97.1867 85.2017 96.832 86.2283 96.832C87.255 96.832 88.123 97.1867 88.8323 97.896C89.551 98.596 89.9103 99.464 89.9103 100.5C89.9103 101.536 89.551 102.409 88.8323 103.118ZM84.2683 102.474C84.8003 103.006 85.4537 103.272 86.2283 103.272C87.003 103.272 87.6563 103.006 88.1883 102.474C88.7203 101.933 88.9863 101.275 88.9863 100.5C88.9863 99.7253 88.7203 99.072 88.1883 98.54C87.6563 97.9987 87.003 97.728 86.2283 97.728C85.4537 97.728 84.8003 97.9987 84.2683 98.54C83.7363 99.072 83.4703 99.7253 83.4703 100.5C83.4703 101.275 83.7363 101.933 84.2683 102.474ZM96.5526 97H97.3366V104H96.4126V98.61L92.2406 104H91.4566V97H92.3806V102.39L96.5526 97ZM102.553 104.168C101.498 104.168 100.621 103.818 99.9205 103.118C99.2205 102.409 98.8705 101.536 98.8705 100.5C98.8705 99.464 99.2205 98.596 99.9205 97.896C100.621 97.1867 101.498 96.832 102.553 96.832C103.243 96.832 103.864 97 104.415 97.336C104.965 97.6627 105.367 98.106 105.619 98.666L104.863 99.1C104.676 98.68 104.373 98.3487 103.953 98.106C103.542 97.854 103.075 97.728 102.553 97.728C101.778 97.728 101.125 97.9987 100.593 98.54C100.061 99.072 99.7945 99.7253 99.7945 100.5C99.7945 101.275 100.061 101.933 100.593 102.474C101.125 103.006 101.778 103.272 102.553 103.272C103.075 103.272 103.542 103.151 103.953 102.908C104.363 102.656 104.685 102.32 104.919 101.9L105.689 102.348C105.399 102.908 104.975 103.351 104.415 103.678C103.855 104.005 103.234 104.168 102.553 104.168ZM112.671 104H111.439L107.939 100.626V104H107.015V97H107.939V100.094L111.271 97H112.531L108.919 100.36L112.671 104ZM122.529 97H123.313V104H122.389V98.61L118.217 104H117.433V97H118.357V102.39L122.529 97ZM129.747 97V97.896H126.191V104H125.267V97H129.747ZM134.625 96.832C135.623 96.832 136.473 97.1867 137.173 97.896C137.882 98.6053 138.237 99.4733 138.237 100.5C138.237 101.527 137.882 102.395 137.173 103.104C136.473 103.813 135.623 104.168 134.625 104.168C133.383 104.168 132.441 103.655 131.797 102.628V106.8H130.873V97H131.797V98.372C132.441 97.3453 133.383 96.832 134.625 96.832ZM132.595 102.474C133.127 103.006 133.78 103.272 134.555 103.272C135.329 103.272 135.983 103.006 136.515 102.474C137.047 101.933 137.313 101.275 137.313 100.5C137.313 99.7253 137.047 99.072 136.515 98.54C135.983 97.9987 135.329 97.728 134.555 97.728C133.78 97.728 133.127 97.9987 132.595 98.54C132.063 99.072 131.797 99.7253 131.797 100.5C131.797 101.275 132.063 101.933 132.595 102.474ZM145.639 103.118C144.93 103.818 144.062 104.168 143.035 104.168C142.008 104.168 141.136 103.818 140.417 103.118C139.708 102.409 139.353 101.536 139.353 100.5C139.353 99.464 139.708 98.596 140.417 97.896C141.136 97.1867 142.008 96.832 143.035 96.832C144.062 96.832 144.93 97.1867 145.639 97.896C146.358 98.596 146.717 99.464 146.717 100.5C146.717 101.536 146.358 102.409 145.639 103.118ZM141.075 102.474C141.607 103.006 142.26 103.272 143.035 103.272C143.81 103.272 144.463 103.006 144.995 102.474C145.527 101.933 145.793 101.275 145.793 100.5C145.793 99.7253 145.527 99.072 144.995 98.54C144.463 97.9987 143.81 97.728 143.035 97.728C142.26 97.728 141.607 97.9987 141.075 98.54C140.543 99.072 140.277 99.7253 140.277 100.5C140.277 101.275 140.543 101.933 141.075 102.474ZM153.919 104H152.687L149.187 100.626V104H148.263V97H149.187V100.094L152.519 97H153.779L150.167 100.36L153.919 104ZM160.35 103.118C159.641 103.818 158.773 104.168 157.746 104.168C156.719 104.168 155.847 103.818 155.128 103.118C154.419 102.409 154.064 101.536 154.064 100.5C154.064 99.464 154.419 98.596 155.128 97.896C155.847 97.1867 156.719 96.832 157.746 96.832C158.773 96.832 159.641 97.1867 160.35 97.896C161.069 98.596 161.428 99.464 161.428 100.5C161.428 101.536 161.069 102.409 160.35 103.118ZM155.786 102.474C156.318 103.006 156.971 103.272 157.746 103.272C158.521 103.272 159.174 103.006 159.706 102.474C160.238 101.933 160.504 101.275 160.504 100.5C160.504 99.7253 160.238 99.072 159.706 98.54C159.174 97.9987 158.521 97.728 157.746 97.728C156.971 97.728 156.318 97.9987 155.786 98.54C155.254 99.072 154.988 99.7253 154.988 100.5C154.988 101.275 155.254 101.933 155.786 102.474ZM167.426 100.402C168.191 100.682 168.574 101.228 168.574 102.04C168.574 102.609 168.383 103.081 168 103.454C167.627 103.818 167.085 104 166.376 104H162.974V97H166.096C166.777 97 167.305 97.1773 167.678 97.532C168.051 97.8773 168.238 98.3253 168.238 98.876C168.238 99.576 167.967 100.085 167.426 100.402ZM166.096 97.896H163.898V100.024H166.096C166.908 100.024 167.314 99.66 167.314 98.932C167.314 98.6053 167.207 98.3533 166.992 98.176C166.787 97.9893 166.488 97.896 166.096 97.896ZM166.376 103.104C166.787 103.104 167.099 103.006 167.314 102.81C167.538 102.614 167.65 102.339 167.65 101.984C167.65 101.657 167.538 101.401 167.314 101.214C167.099 101.018 166.787 100.92 166.376 100.92H163.898V103.104H166.376ZM178.57 97H179.354V104H178.43V98.61L174.258 104H173.474V97H174.398V102.39L178.57 97ZM18.636 120H17.404L13.904 116.626V120H12.98V113H13.904V116.094L17.236 113H18.496L14.884 116.36L18.636 120ZM25.0667 119.118C24.3574 119.818 23.4894 120.168 22.4627 120.168C21.436 120.168 20.5634 119.818 19.8447 119.118C19.1354 118.409 18.7807 117.536 18.7807 116.5C18.7807 115.464 19.1354 114.596 19.8447 113.896C20.5634 113.187 21.436 112.832 22.4627 112.832C23.4894 112.832 24.3574 113.187 25.0667 113.896C25.7854 114.596 26.1447 115.464 26.1447 116.5C26.1447 117.536 25.7854 118.409 25.0667 119.118ZM20.5027 118.474C21.0347 119.006 21.688 119.272 22.4627 119.272C23.2374 119.272 23.8907 119.006 24.4227 118.474C24.9547 117.933 25.2207 117.275 25.2207 116.5C25.2207 115.725 24.9547 115.072 24.4227 114.54C23.8907 113.999 23.2374 113.728 22.4627 113.728C21.688 113.728 21.0347 113.999 20.5027 114.54C19.9707 115.072 19.7047 115.725 19.7047 116.5C19.7047 117.275 19.9707 117.933 20.5027 118.474ZM34.5509 113V120H33.6269V114.414L31.1769 118.39H31.0649L28.6149 114.414V120H27.6909V113H28.7549L31.1209 116.836L33.4869 113H34.5509ZM42.5293 113H43.4533V120H42.5293V118.628C41.8853 119.655 40.9426 120.168 39.7013 120.168C38.7026 120.168 37.8486 119.813 37.1393 119.104C36.4393 118.395 36.0893 117.527 36.0893 116.5C36.0893 115.473 36.4393 114.605 37.1393 113.896C37.8486 113.187 38.7026 112.832 39.7013 112.832C40.9426 112.832 41.8853 113.345 42.5293 114.372V113ZM37.8113 118.474C38.3433 119.006 38.9966 119.272 39.7713 119.272C40.546 119.272 41.1993 119.006 41.7313 118.474C42.2633 117.933 42.5293 117.275 42.5293 116.5C42.5293 115.725 42.2633 115.072 41.7313 114.54C41.1993 113.999 40.546 113.728 39.7713 113.728C38.9966 113.728 38.3433 113.999 37.8113 114.54C37.2793 115.072 37.0133 115.725 37.0133 116.5C37.0133 117.275 37.2793 117.933 37.8113 118.474ZM50.3657 113H51.2897V120H50.3657V116.948H46.3337V120H45.4097V113H46.3337V116.052H50.3657V113ZM59.1237 119.104H60.1037V121.876H59.1797V120H53.4677V121.876H52.5437V119.104H53.3977C53.8737 118.479 54.1117 117.597 54.1117 116.458V113H59.1237V119.104ZM54.5177 119.104H58.1997V113.896H55.0357V116.458C55.0357 117.531 54.863 118.413 54.5177 119.104ZM68.2635 120.168C67.2088 120.168 66.3315 119.818 65.6315 119.118C64.9315 118.409 64.5815 117.536 64.5815 116.5C64.5815 115.464 64.9315 114.596 65.6315 113.896C66.3315 113.187 67.2088 112.832 68.2635 112.832C68.9542 112.832 69.5748 113 70.1255 113.336C70.6762 113.663 71.0775 114.106 71.3295 114.666L70.5735 115.1C70.3868 114.68 70.0835 114.349 69.6635 114.106C69.2528 113.854 68.7862 113.728 68.2635 113.728C67.4888 113.728 66.8355 113.999 66.3035 114.54C65.7715 115.072 65.5055 115.725 65.5055 116.5C65.5055 117.275 65.7715 117.933 66.3035 118.474C66.8355 119.006 67.4888 119.272 68.2635 119.272C68.7862 119.272 69.2528 119.151 69.6635 118.908C70.0742 118.656 70.3962 118.32 70.6295 117.9L71.3995 118.348C71.1102 118.908 70.6855 119.351 70.1255 119.678C69.5655 120.005 68.9448 120.168 68.2635 120.168ZM76.4781 112.832C77.4768 112.832 78.3261 113.187 79.0261 113.896C79.7354 114.605 80.0901 115.473 80.0901 116.5C80.0901 117.527 79.7354 118.395 79.0261 119.104C78.3261 119.813 77.4768 120.168 76.4781 120.168C75.2368 120.168 74.2941 119.655 73.6501 118.628V122.8H72.7261V113H73.6501V114.372C74.2941 113.345 75.2368 112.832 76.4781 112.832ZM74.4481 118.474C74.9801 119.006 75.6334 119.272 76.4081 119.272C77.1828 119.272 77.8361 119.006 78.3681 118.474C78.9001 117.933 79.1661 117.275 79.1661 116.5C79.1661 115.725 78.9001 115.072 78.3681 114.54C77.8361 113.999 77.1828 113.728 76.4081 113.728C75.6334 113.728 74.9801 113.999 74.4481 114.54C73.9161 115.072 73.6501 115.725 73.6501 116.5C73.6501 117.275 73.9161 117.933 74.4481 118.474ZM84.8605 112.832C85.8965 112.832 86.7318 113.201 87.3665 113.938C88.0105 114.666 88.3325 115.529 88.3325 116.528C88.3325 116.631 88.3232 116.775 88.3045 116.962H82.1585C82.2518 117.671 82.5505 118.236 83.0545 118.656C83.5678 119.067 84.1978 119.272 84.9445 119.272C85.4765 119.272 85.9338 119.165 86.3165 118.95C86.7085 118.726 87.0025 118.437 87.1985 118.082L88.0105 118.558C87.7025 119.053 87.2825 119.445 86.7505 119.734C86.2185 120.023 85.6118 120.168 84.9305 120.168C83.8292 120.168 82.9332 119.823 82.2425 119.132C81.5518 118.441 81.2065 117.564 81.2065 116.5C81.2065 115.455 81.5472 114.582 82.2285 113.882C82.9098 113.182 83.7872 112.832 84.8605 112.832ZM84.8605 113.728C84.1325 113.728 83.5212 113.947 83.0265 114.386C82.5412 114.815 82.2518 115.375 82.1585 116.066H87.3805C87.2872 115.329 87.0025 114.755 86.5265 114.344C86.0505 113.933 85.4952 113.728 84.8605 113.728ZM95.4088 119.104H96.3888V121.876H95.4648V120H89.7528V121.876H88.8288V119.104H89.6828C90.1588 118.479 90.3968 117.597 90.3968 116.458V113H95.4088V119.104ZM90.8028 119.104H94.4848V113.896H91.3208V116.458C91.3208 117.531 91.1482 118.413 90.8028 119.104ZM102.883 113H103.667V120H102.743V114.61L98.5706 120H97.7866V113H98.7106V118.39L102.883 113ZM114.861 113V120H113.937V113.896H110.773V117.018C110.773 118.185 110.549 118.987 110.101 119.426C109.662 119.865 109.055 120.056 108.281 120V119.132C108.813 119.188 109.205 119.062 109.457 118.754C109.718 118.446 109.849 117.867 109.849 117.018V113H114.861ZM122.796 112.832C123.823 112.832 124.691 113.187 125.4 113.896C126.119 114.596 126.478 115.464 126.478 116.5C126.478 117.536 126.119 118.409 125.4 119.118C124.691 119.818 123.823 120.168 122.796 120.168C121.853 120.168 121.041 119.865 120.36 119.258C119.688 118.642 119.301 117.872 119.198 116.948H117.742V120H116.818V113H117.742V116.052H119.198C119.301 115.128 119.688 114.363 120.36 113.756C121.041 113.14 121.853 112.832 122.796 112.832ZM120.836 118.474C121.368 119.006 122.021 119.272 122.796 119.272C123.571 119.272 124.224 119.006 124.756 118.474C125.288 117.933 125.554 117.275 125.554 116.5C125.554 115.725 125.288 115.072 124.756 114.54C124.224 113.999 123.571 113.728 122.796 113.728C122.021 113.728 121.368 113.999 120.836 114.54C120.304 115.072 120.038 115.725 120.038 116.5C120.038 117.275 120.304 117.933 120.836 118.474ZM131.123 120.168C130.115 120.168 129.275 119.837 128.603 119.174C127.931 118.502 127.595 117.634 127.595 116.57C127.595 115.375 127.772 114.461 128.127 113.826C128.482 113.182 129.2 112.599 130.283 112.076C130.488 111.973 130.759 111.852 131.095 111.712C131.44 111.572 131.697 111.46 131.865 111.376C132.042 111.292 132.234 111.185 132.439 111.054C132.644 110.914 132.798 110.76 132.901 110.592C133.004 110.424 133.069 110.223 133.097 109.99L133.825 110.41C133.788 110.634 133.713 110.844 133.601 111.04C133.489 111.236 133.372 111.395 133.251 111.516C133.139 111.637 132.957 111.773 132.705 111.922C132.462 112.062 132.271 112.165 132.131 112.23C132 112.286 131.767 112.384 131.431 112.524C131.104 112.664 130.885 112.757 130.773 112.804C130.12 113.084 129.639 113.378 129.331 113.686C129.023 113.985 128.804 114.377 128.673 114.862C128.99 114.442 129.392 114.134 129.877 113.938C130.372 113.733 130.852 113.63 131.319 113.63C132.252 113.63 133.022 113.938 133.629 114.554C134.245 115.161 134.553 115.94 134.553 116.892C134.553 117.835 134.226 118.619 133.573 119.244C132.929 119.86 132.112 120.168 131.123 120.168ZM131.123 119.244C131.851 119.244 132.448 119.025 132.915 118.586C133.391 118.138 133.629 117.573 133.629 116.892C133.629 116.201 133.405 115.637 132.957 115.198C132.518 114.75 131.93 114.526 131.193 114.526C130.53 114.526 129.928 114.736 129.387 115.156C128.846 115.567 128.575 116.117 128.575 116.808C128.575 117.517 128.818 118.101 129.303 118.558C129.798 119.015 130.404 119.244 131.123 119.244ZM141.055 113H141.839V120H140.915V114.61L136.743 120H135.959V113H136.883V118.39L141.055 113ZM148.833 113V113.896H146.355V120H145.431V113.896H142.953V113H148.833ZM152.919 112.832C153.955 112.832 154.79 113.201 155.425 113.938C156.069 114.666 156.391 115.529 156.391 116.528C156.391 116.631 156.382 116.775 156.363 116.962H150.217C150.31 117.671 150.609 118.236 151.113 118.656C151.626 119.067 152.256 119.272 153.003 119.272C153.535 119.272 153.992 119.165 154.375 118.95C154.767 118.726 155.061 118.437 155.257 118.082L156.069 118.558C155.761 119.053 155.341 119.445 154.809 119.734C154.277 120.023 153.67 120.168 152.989 120.168C151.888 120.168 150.992 119.823 150.301 119.132C149.61 118.441 149.265 117.564 149.265 116.5C149.265 115.455 149.606 114.582 150.287 113.882C150.968 113.182 151.846 112.832 152.919 112.832ZM152.919 113.728C152.191 113.728 151.58 113.947 151.085 114.386C150.6 114.815 150.31 115.375 150.217 116.066H155.439C155.346 115.329 155.061 114.755 154.585 114.344C154.109 113.933 153.554 113.728 152.919 113.728ZM163.327 113V120H162.403V113.896H159.239V117.018C159.239 118.185 159.015 118.987 158.567 119.426C158.129 119.865 157.522 120.056 156.747 120V119.132C157.279 119.188 157.671 119.062 157.923 118.754C158.185 118.446 158.315 117.867 158.315 117.018V113H163.327ZM168.519 112.832C169.555 112.832 170.39 113.201 171.025 113.938C171.669 114.666 171.991 115.529 171.991 116.528C171.991 116.631 171.981 116.775 171.963 116.962H165.817C165.91 117.671 166.209 118.236 166.713 118.656C167.226 119.067 167.856 119.272 168.603 119.272C169.135 119.272 169.592 119.165 169.975 118.95C170.367 118.726 170.661 118.437 170.857 118.082L171.669 118.558C171.361 119.053 170.941 119.445 170.409 119.734C169.877 120.023 169.27 120.168 168.589 120.168C167.487 120.168 166.591 119.823 165.901 119.132C165.21 118.441 164.865 117.564 164.865 116.5C164.865 115.455 165.205 114.582 165.887 113.882C166.568 113.182 167.445 112.832 168.519 112.832ZM168.519 113.728C167.791 113.728 167.179 113.947 166.685 114.386C166.199 114.815 165.91 115.375 165.817 116.066H171.039C170.945 115.329 170.661 114.755 170.185 114.344C169.709 113.933 169.153 113.728 168.519 113.728ZM174.58 111.88V111.068H178.22V111.88H174.58ZM178.556 113H179.34V120H178.416V114.61L174.244 120H173.46V113H174.384V118.39L178.556 113ZM182.47 119.916C182.321 120.065 182.139 120.14 181.924 120.14C181.71 120.14 181.528 120.065 181.378 119.916C181.229 119.767 181.154 119.585 181.154 119.37C181.154 119.155 181.229 118.973 181.378 118.824C181.528 118.675 181.71 118.6 181.924 118.6C182.139 118.6 182.321 118.675 182.47 118.824C182.62 118.973 182.694 119.155 182.694 119.37C182.694 119.585 182.62 119.767 182.47 119.916ZM20.12 126.2V136H19.14V127.124H14.1V136H13.12V126.2H20.12ZM28.0882 135.118C27.3789 135.818 26.5109 136.168 25.4842 136.168C24.4575 136.168 23.5849 135.818 22.8662 135.118C22.1569 134.409 21.8022 133.536 21.8022 132.5C21.8022 131.464 22.1569 130.596 22.8662 129.896C23.5849 129.187 24.4575 128.832 25.4842 128.832C26.5109 128.832 27.3789 129.187 28.0882 129.896C28.8069 130.596 29.1662 131.464 29.1662 132.5C29.1662 133.536 28.8069 134.409 28.0882 135.118ZM23.5242 134.474C24.0562 135.006 24.7095 135.272 25.4842 135.272C26.2589 135.272 26.9122 135.006 27.4442 134.474C27.9762 133.933 28.2422 133.275 28.2422 132.5C28.2422 131.725 27.9762 131.072 27.4442 130.54C26.9122 129.999 26.2589 129.728 25.4842 129.728C24.7095 129.728 24.0562 129.999 23.5242 130.54C22.9922 131.072 22.7262 131.725 22.7262 132.5C22.7262 133.275 22.9922 133.933 23.5242 134.474ZM35.8084 129H36.5924V136H35.6684V130.61L31.4964 136H30.7124V129H31.6364V134.39L35.8084 129ZM41.8084 136.168C40.7537 136.168 39.8764 135.818 39.1764 135.118C38.4764 134.409 38.1264 133.536 38.1264 132.5C38.1264 131.464 38.4764 130.596 39.1764 129.896C39.8764 129.187 40.7537 128.832 41.8084 128.832C42.4991 128.832 43.1197 129 43.6704 129.336C44.2211 129.663 44.6224 130.106 44.8744 130.666L44.1184 131.1C43.9317 130.68 43.6284 130.349 43.2084 130.106C42.7977 129.854 42.3311 129.728 41.8084 129.728C41.0337 129.728 40.3804 129.999 39.8484 130.54C39.3164 131.072 39.0504 131.725 39.0504 132.5C39.0504 133.275 39.3164 133.933 39.8484 134.474C40.3804 135.006 41.0337 135.272 41.8084 135.272C42.3311 135.272 42.7977 135.151 43.2084 134.908C43.6191 134.656 43.9411 134.32 44.1744 133.9L44.9444 134.348C44.6551 134.908 44.2304 135.351 43.6704 135.678C43.1104 136.005 42.4897 136.168 41.8084 136.168ZM51.927 136H50.695L47.195 132.626V136H46.271V129H47.195V132.094L50.527 129H51.787L48.175 132.36L51.927 136ZM61.785 129H62.569V136H61.645V130.61L57.473 136H56.689V129H57.613V134.39L61.785 129ZM71.131 136.168C70.123 136.168 69.283 135.837 68.611 135.174C67.939 134.502 67.603 133.634 67.603 132.57C67.603 131.375 67.7803 130.461 68.135 129.826C68.4896 129.182 69.2083 128.599 70.291 128.076C70.4963 127.973 70.767 127.852 71.103 127.712C71.4483 127.572 71.705 127.46 71.873 127.376C72.0503 127.292 72.2416 127.185 72.447 127.054C72.6523 126.914 72.8063 126.76 72.909 126.592C73.0116 126.424 73.077 126.223 73.105 125.99L73.833 126.41C73.7956 126.634 73.721 126.844 73.609 127.04C73.497 127.236 73.3803 127.395 73.259 127.516C73.147 127.637 72.965 127.773 72.713 127.922C72.4703 128.062 72.279 128.165 72.139 128.23C72.0083 128.286 71.775 128.384 71.439 128.524C71.1123 128.664 70.893 128.757 70.781 128.804C70.1276 129.084 69.647 129.378 69.339 129.686C69.031 129.985 68.8116 130.377 68.681 130.862C68.9983 130.442 69.3996 130.134 69.885 129.938C70.3796 129.733 70.8603 129.63 71.327 129.63C72.2603 129.63 73.0303 129.938 73.637 130.554C74.253 131.161 74.561 131.94 74.561 132.892C74.561 133.835 74.2343 134.619 73.581 135.244C72.937 135.86 72.1203 136.168 71.131 136.168ZM71.131 135.244C71.859 135.244 72.4563 135.025 72.923 134.586C73.399 134.138 73.637 133.573 73.637 132.892C73.637 132.201 73.413 131.637 72.965 131.198C72.5263 130.75 71.9383 130.526 71.201 130.526C70.5383 130.526 69.9363 130.736 69.395 131.156C68.8536 131.567 68.583 132.117 68.583 132.808C68.583 133.517 68.8256 134.101 69.311 134.558C69.8056 135.015 70.4123 135.244 71.131 135.244ZM79.7183 128.832C80.717 128.832 81.5663 129.187 82.2663 129.896C82.9757 130.605 83.3303 131.473 83.3303 132.5C83.3303 133.527 82.9757 134.395 82.2663 135.104C81.5663 135.813 80.717 136.168 79.7183 136.168C78.477 136.168 77.5343 135.655 76.8903 134.628V138.8H75.9663V129H76.8903V130.372C77.5343 129.345 78.477 128.832 79.7183 128.832ZM77.6883 134.474C78.2203 135.006 78.8737 135.272 79.6483 135.272C80.423 135.272 81.0763 135.006 81.6083 134.474C82.1403 133.933 82.4063 133.275 82.4063 132.5C82.4063 131.725 82.1403 131.072 81.6083 130.54C81.0763 129.999 80.423 129.728 79.6483 129.728C78.8737 129.728 78.2203 129.999 77.6883 130.54C77.1563 131.072 76.8903 131.725 76.8903 132.5C76.8903 133.275 77.1563 133.933 77.6883 134.474ZM90.7327 135.118C90.0234 135.818 89.1554 136.168 88.1287 136.168C87.1021 136.168 86.2294 135.818 85.5107 135.118C84.8014 134.409 84.4467 133.536 84.4467 132.5C84.4467 131.464 84.8014 130.596 85.5107 129.896C86.2294 129.187 87.1021 128.832 88.1287 128.832C89.1554 128.832 90.0234 129.187 90.7327 129.896C91.4514 130.596 91.8107 131.464 91.8107 132.5C91.8107 133.536 91.4514 134.409 90.7327 135.118ZM86.1687 134.474C86.7007 135.006 87.3541 135.272 88.1287 135.272C88.9034 135.272 89.5567 135.006 90.0887 134.474C90.6207 133.933 90.8867 133.275 90.8867 132.5C90.8867 131.725 90.6207 131.072 90.0887 130.54C89.5567 129.999 88.9034 129.728 88.1287 129.728C87.3541 129.728 86.7007 129.999 86.1687 130.54C85.6367 131.072 85.3707 131.725 85.3707 132.5C85.3707 133.275 85.6367 133.933 86.1687 134.474ZM98.313 129H99.237V136H98.313V132.948H94.281V136H93.357V129H94.281V132.052H98.313V129ZM106.287 129H107.071V136H106.147V130.61L101.975 136H101.191V129H102.115V134.39L106.287 129ZM112.777 128.832C113.776 128.832 114.625 129.187 115.325 129.896C116.034 130.605 116.389 131.473 116.389 132.5C116.389 133.527 116.034 134.395 115.325 135.104C114.625 135.813 113.776 136.168 112.777 136.168C111.536 136.168 110.593 135.655 109.949 134.628V138.8H109.025V129H109.949V130.372C110.593 129.345 111.536 128.832 112.777 128.832ZM110.747 134.474C111.279 135.006 111.932 135.272 112.707 135.272C113.482 135.272 114.135 135.006 114.667 134.474C115.199 133.933 115.465 133.275 115.465 132.5C115.465 131.725 115.199 131.072 114.667 130.54C114.135 129.999 113.482 129.728 112.707 129.728C111.932 129.728 111.279 129.999 110.747 130.54C110.215 131.072 109.949 131.725 109.949 132.5C109.949 133.275 110.215 133.933 110.747 134.474ZM123.791 135.118C123.082 135.818 122.214 136.168 121.187 136.168C120.161 136.168 119.288 135.818 118.569 135.118C117.86 134.409 117.505 133.536 117.505 132.5C117.505 131.464 117.86 130.596 118.569 129.896C119.288 129.187 120.161 128.832 121.187 128.832C122.214 128.832 123.082 129.187 123.791 129.896C124.51 130.596 124.869 131.464 124.869 132.5C124.869 133.536 124.51 134.409 123.791 135.118ZM119.227 134.474C119.759 135.006 120.413 135.272 121.187 135.272C121.962 135.272 122.615 135.006 123.147 134.474C123.679 133.933 123.945 133.275 123.945 132.5C123.945 131.725 123.679 131.072 123.147 130.54C122.615 129.999 121.962 129.728 121.187 129.728C120.413 129.728 119.759 129.999 119.227 130.54C118.695 131.072 118.429 131.725 118.429 132.5C118.429 133.275 118.695 133.933 119.227 134.474ZM130.868 132.402C131.633 132.682 132.016 133.228 132.016 134.04C132.016 134.609 131.824 135.081 131.442 135.454C131.068 135.818 130.527 136 129.818 136H126.416V129H129.538C130.219 129 130.746 129.177 131.12 129.532C131.493 129.877 131.68 130.325 131.68 130.876C131.68 131.576 131.409 132.085 130.868 132.402ZM129.538 129.896H127.34V132.024H129.538C130.35 132.024 130.756 131.66 130.756 130.932C130.756 130.605 130.648 130.353 130.434 130.176C130.228 129.989 129.93 129.896 129.538 129.896ZM129.818 135.104C130.228 135.104 130.541 135.006 130.756 134.81C130.98 134.614 131.092 134.339 131.092 133.984C131.092 133.657 130.98 133.401 130.756 133.214C130.541 133.018 130.228 132.92 129.818 132.92H127.34V135.104H129.818ZM139.436 129H140.36V136H139.436V134.628C138.792 135.655 137.849 136.168 136.608 136.168C135.609 136.168 134.755 135.813 134.046 135.104C133.346 134.395 132.996 133.527 132.996 132.5C132.996 131.473 133.346 130.605 134.046 129.896C134.755 129.187 135.609 128.832 136.608 128.832C137.849 128.832 138.792 129.345 139.436 130.372V129ZM134.718 134.474C135.25 135.006 135.903 135.272 136.678 135.272C137.452 135.272 138.106 135.006 138.638 134.474C139.17 133.933 139.436 133.275 139.436 132.5C139.436 131.725 139.17 131.072 138.638 130.54C138.106 129.999 137.452 129.728 136.678 129.728C135.903 129.728 135.25 129.999 134.718 130.54C134.186 131.072 133.92 131.725 133.92 132.5C133.92 133.275 134.186 133.933 134.718 134.474ZM147.272 129H148.196V136H147.272V132.948H143.24V136H142.316V129H143.24V132.052H147.272V129ZM155.246 129H156.03V136H155.106V130.61L150.934 136H150.15V129H151.074V134.39L155.246 129ZM161.218 128.832C162.254 128.832 163.089 129.201 163.724 129.938C164.368 130.666 164.69 131.529 164.69 132.528C164.69 132.631 164.681 132.775 164.662 132.962H158.516C158.609 133.671 158.908 134.236 159.412 134.656C159.925 135.067 160.555 135.272 161.302 135.272C161.834 135.272 162.291 135.165 162.674 134.95C163.066 134.726 163.36 134.437 163.556 134.082L164.368 134.558C164.06 135.053 163.64 135.445 163.108 135.734C162.576 136.023 161.969 136.168 161.288 136.168C160.187 136.168 159.291 135.823 158.6 135.132C157.909 134.441 157.564 133.564 157.564 132.5C157.564 131.455 157.905 130.582 158.586 129.882C159.267 129.182 160.145 128.832 161.218 128.832ZM161.218 129.728C160.49 129.728 159.879 129.947 159.384 130.386C158.899 130.815 158.609 131.375 158.516 132.066H163.738C163.645 131.329 163.36 130.755 162.884 130.344C162.408 129.933 161.853 129.728 161.218 129.728ZM19.812 146.008C20.484 146.689 20.82 147.52 20.82 148.5C20.82 149.48 20.484 150.311 19.812 150.992C19.14 151.673 18.2533 152.061 17.152 152.154V154.8H16.228V152.154C15.1267 152.061 14.24 151.673 13.568 150.992C12.896 150.311 12.56 149.48 12.56 148.5C12.56 147.52 12.896 146.689 13.568 146.008C14.24 145.327 15.1267 144.939 16.228 144.846V142.2H17.152V144.846C18.2533 144.939 19.14 145.327 19.812 146.008ZM14.226 146.652C13.7313 147.156 13.484 147.772 13.484 148.5C13.484 149.228 13.7313 149.849 14.226 150.362C14.7207 150.866 15.388 151.16 16.228 151.244V145.756C15.388 145.84 14.7207 146.139 14.226 146.652ZM17.152 151.244C17.992 151.16 18.6593 150.866 19.154 150.362C19.6487 149.849 19.896 149.228 19.896 148.5C19.896 147.772 19.6487 147.156 19.154 146.652C18.6593 146.139 17.992 145.84 17.152 145.756V151.244ZM27.1255 145H28.1055L25.1095 152.644C24.8388 153.335 24.4515 153.876 23.9475 154.268C23.4528 154.669 22.8975 154.847 22.2815 154.8V153.932C23.1215 154.025 23.7608 153.54 24.1995 152.476L24.3815 152.042L21.2455 145H22.2255L24.8575 150.866L27.1255 145ZM34.2622 145V145.896H31.7842V152H30.8602V145.896H28.3822V145H34.2622ZM38.2228 152.168C37.2148 152.168 36.3748 151.837 35.7028 151.174C35.0308 150.502 34.6948 149.634 34.6948 148.57C34.6948 147.375 34.8721 146.461 35.2268 145.826C35.5814 145.182 36.3001 144.599 37.3828 144.076C37.5881 143.973 37.8588 143.852 38.1948 143.712C38.5401 143.572 38.7968 143.46 38.9648 143.376C39.1421 143.292 39.3334 143.185 39.5388 143.054C39.7441 142.914 39.8981 142.76 40.0008 142.592C40.1034 142.424 40.1688 142.223 40.1968 141.99L40.9248 142.41C40.8874 142.634 40.8128 142.844 40.7008 143.04C40.5888 143.236 40.4721 143.395 40.3508 143.516C40.2388 143.637 40.0568 143.773 39.8048 143.922C39.5621 144.062 39.3708 144.165 39.2308 144.23C39.1001 144.286 38.8668 144.384 38.5308 144.524C38.2041 144.664 37.9848 144.757 37.8728 144.804C37.2194 145.084 36.7388 145.378 36.4308 145.686C36.1228 145.985 35.9034 146.377 35.7728 146.862C36.0901 146.442 36.4914 146.134 36.9768 145.938C37.4714 145.733 37.9521 145.63 38.4188 145.63C39.3521 145.63 40.1221 145.938 40.7288 146.554C41.3448 147.161 41.6528 147.94 41.6528 148.892C41.6528 149.835 41.3261 150.619 40.6728 151.244C40.0288 151.86 39.2121 152.168 38.2228 152.168ZM38.2228 151.244C38.9508 151.244 39.5481 151.025 40.0148 150.586C40.4908 150.138 40.7288 149.573 40.7288 148.892C40.7288 148.201 40.5048 147.637 40.0568 147.198C39.6181 146.75 39.0301 146.526 38.2928 146.526C37.6301 146.526 37.0281 146.736 36.4868 147.156C35.9454 147.567 35.6748 148.117 35.6748 148.808C35.6748 149.517 35.9174 150.101 36.4028 150.558C36.8974 151.015 37.5041 151.244 38.2228 151.244ZM48.9241 151.118C48.2148 151.818 47.3468 152.168 46.3201 152.168C45.2935 152.168 44.4208 151.818 43.7021 151.118C42.9928 150.409 42.6381 149.536 42.6381 148.5C42.6381 147.464 42.9928 146.596 43.7021 145.896C44.4208 145.187 45.2935 144.832 46.3201 144.832C47.3468 144.832 48.2148 145.187 48.9241 145.896C49.6428 146.596 50.0021 147.464 50.0021 148.5C50.0021 149.536 49.6428 150.409 48.9241 151.118ZM44.3601 150.474C44.8921 151.006 45.5455 151.272 46.3201 151.272C47.0948 151.272 47.7481 151.006 48.2801 150.474C48.8121 149.933 49.0781 149.275 49.0781 148.5C49.0781 147.725 48.8121 147.072 48.2801 146.54C47.7481 145.999 47.0948 145.728 46.3201 145.728C45.5455 145.728 44.8921 145.999 44.3601 146.54C43.8281 147.072 43.5621 147.725 43.5621 148.5C43.5621 149.275 43.8281 149.933 44.3601 150.474ZM57.0149 145V152H56.0909V145.896H52.9269V149.018C52.9269 150.185 52.7029 150.987 52.2549 151.426C51.8163 151.865 51.2096 152.056 50.4349 152V151.132C50.9669 151.188 51.3589 151.062 51.6109 150.754C51.8723 150.446 52.0029 149.867 52.0029 149.018V145H57.0149ZM61.8142 147.66C62.4675 147.66 63.0182 147.865 63.4662 148.276C63.9235 148.677 64.1522 149.195 64.1522 149.83C64.1522 150.465 63.9235 150.987 63.4662 151.398C63.0182 151.799 62.4675 152 61.8142 152H58.9722V145H59.8962V147.66H61.8142ZM61.8142 151.104C62.2062 151.104 62.5375 150.987 62.8082 150.754C63.0882 150.521 63.2282 150.213 63.2282 149.83C63.2282 149.447 63.0882 149.139 62.8082 148.906C62.5375 148.673 62.2062 148.556 61.8142 148.556H59.8962V151.104H61.8142ZM70.5044 145H71.4284V152H70.5044V148.948H66.4724V152H65.5484V145H66.4724V148.052H70.5044V145ZM76.2243 147.66C76.8777 147.66 77.4283 147.865 77.8763 148.276C78.3337 148.677 78.5623 149.195 78.5623 149.83C78.5623 150.465 78.3337 150.987 77.8763 151.398C77.4283 151.799 76.8777 152 76.2243 152H73.3823V145H74.3063V147.66H76.2243ZM79.5423 145H80.4663V152H79.5423V145ZM76.2243 151.104C76.6163 151.104 76.9477 150.987 77.2183 150.754C77.4983 150.521 77.6383 150.213 77.6383 149.83C77.6383 149.447 77.4983 149.139 77.2183 148.906C76.9477 148.673 76.6163 148.556 76.2243 148.556H74.3063V151.104H76.2243ZM88.3131 152H87.2071L85.0231 149.116L82.8391 152H81.7331L84.4771 148.374L81.9151 145H83.0211L85.0231 147.646L87.0251 145H88.1311L85.5831 148.374L88.3131 152ZM98.9498 145V152H98.0258V145.896H93.9938V152H93.0698V145H98.9498ZM106.644 145V152H105.72V145.896H102.556V149.018C102.556 150.185 102.332 150.987 101.884 151.426C101.445 151.865 100.838 152.056 100.064 152V151.132C100.596 151.188 100.988 151.062 101.24 150.754C101.501 150.446 101.632 149.867 101.632 149.018V145H106.644ZM114.467 151.118C113.758 151.818 112.89 152.168 111.863 152.168C110.836 152.168 109.964 151.818 109.245 151.118C108.536 150.409 108.181 149.536 108.181 148.5C108.181 147.464 108.536 146.596 109.245 145.896C109.964 145.187 110.836 144.832 111.863 144.832C112.89 144.832 113.758 145.187 114.467 145.896C115.186 146.596 115.545 147.464 115.545 148.5C115.545 149.536 115.186 150.409 114.467 151.118ZM109.903 150.474C110.435 151.006 111.088 151.272 111.863 151.272C112.638 151.272 113.291 151.006 113.823 150.474C114.355 149.933 114.621 149.275 114.621 148.5C114.621 147.725 114.355 147.072 113.823 146.54C113.291 145.999 112.638 145.728 111.863 145.728C111.088 145.728 110.435 145.999 109.903 146.54C109.371 147.072 109.105 147.725 109.105 148.5C109.105 149.275 109.371 149.933 109.903 150.474ZM126.471 151.104H127.451V153.876H126.527V152H117.091V145H118.015V151.104H121.319V145H122.243V151.104H125.547V145H126.471V151.104ZM134.596 145H135.52V152H134.596V150.628C133.952 151.655 133.009 152.168 131.768 152.168C130.769 152.168 129.915 151.813 129.206 151.104C128.506 150.395 128.156 149.527 128.156 148.5C128.156 147.473 128.506 146.605 129.206 145.896C129.915 145.187 130.769 144.832 131.768 144.832C133.009 144.832 133.952 145.345 134.596 146.372V145ZM129.878 150.474C130.41 151.006 131.063 151.272 131.838 151.272C132.612 151.272 133.266 151.006 133.798 150.474C134.33 149.933 134.596 149.275 134.596 148.5C134.596 147.725 134.33 147.072 133.798 146.54C133.266 145.999 132.612 145.728 131.838 145.728C131.063 145.728 130.41 145.999 129.878 146.54C129.346 147.072 129.08 147.725 129.08 148.5C129.08 149.275 129.346 149.933 129.878 150.474ZM143.356 151.104H144.336V153.876H143.412V152H137.7V153.876H136.776V151.104H137.63C138.106 150.479 138.344 149.597 138.344 148.458V145H143.356V151.104ZM138.75 151.104H142.432V145.896H139.268V148.458C139.268 149.531 139.095 150.413 138.75 151.104ZM151.326 151.118C150.617 151.818 149.749 152.168 148.722 152.168C147.696 152.168 146.823 151.818 146.104 151.118C145.395 150.409 145.04 149.536 145.04 148.5C145.04 147.464 145.395 146.596 146.104 145.896C146.823 145.187 147.696 144.832 148.722 144.832C149.749 144.832 150.617 145.187 151.326 145.896C152.045 146.596 152.404 147.464 152.404 148.5C152.404 149.536 152.045 150.409 151.326 151.118ZM146.762 150.474C147.294 151.006 147.948 151.272 148.722 151.272C149.497 151.272 150.15 151.006 150.682 150.474C151.214 149.933 151.48 149.275 151.48 148.5C151.48 147.725 151.214 147.072 150.682 146.54C150.15 145.999 149.497 145.728 148.722 145.728C147.948 145.728 147.294 145.999 146.762 146.54C146.23 147.072 145.964 147.725 145.964 148.5C145.964 149.275 146.23 149.933 146.762 150.474ZM159.607 152H158.375L154.875 148.626V152H153.951V145H154.875V148.094L158.207 145H159.467L155.855 148.36L159.607 152ZM162.045 151.916C161.895 152.065 161.713 152.14 161.499 152.14C161.284 152.14 161.102 152.065 160.953 151.916C160.803 151.767 160.729 151.585 160.729 151.37C160.729 151.155 160.803 150.973 160.953 150.824C161.102 150.675 161.284 150.6 161.499 150.6C161.713 150.6 161.895 150.675 162.045 150.824C162.194 150.973 162.269 151.155 162.269 151.37C162.269 151.585 162.194 151.767 162.045 151.916Z" fill="white"/>
</g>
<defs>
<filter id="filter0_b_888_26039" x="-10" y="-10" width="226" height="198" filterUnits="userSpaceOnUse" color-interpolation-filters="sRGB">
<feFlood flood-opacity="0" result="BackgroundImageFix"/>
<feGaussianBlur in="BackgroundImageFix" stdDeviation="5"/>
<feComposite in2="SourceAlpha" operator="in" result="effect1_backgroundBlur_888_26039"/>
<feBlend mode="normal" in="SourceGraphic" in2="effect1_backgroundBlur_888_26039" result="shape"/>
</filter>
</defs>
</svg>
