<svg width="207" height="178" viewBox="0 0 207 178" fill="none" xmlns="http://www.w3.org/2000/svg">
<g filter="url(#filter0_b_1002_695)">
<path d="M207 15C207 6.71572 200.284 0 192 0H113.386C110.149 0 106.998 1.0472 104.405 2.98518L6.01979 76.5213C2.23106 79.3531 0 83.8061 0 88.5361V163C0 171.284 6.71573 178 15 178H192C200.284 178 207 171.284 207 163V15Z" fill="#0C0C0C" fill-opacity="0.3"/>
<path d="M206.5 15C206.5 6.99187 200.008 0.5 192 0.5H113.386C110.256 0.5 107.211 1.51229 104.705 3.38567L6.31914 76.9218C2.65669 79.6592 0.5 83.9638 0.5 88.5361V163C0.5 171.008 6.99187 177.5 15 177.5H192C200.008 177.5 206.5 171.008 206.5 163V15Z" stroke="white" stroke-opacity="0.3"/>
</g>
<path d="M142.264 31C143.517 31 144.564 31.42 145.404 32.26C146.244 33.1 146.664 34.1467 146.664 35.4C146.664 36.6533 146.244 37.7 145.404 38.54C144.564 39.38 143.517 39.8 142.264 39.8H138.664V45H137.264V31H142.264ZM142.264 38.48C143.131 38.48 143.844 38.1933 144.404 37.62C144.977 37.0333 145.264 36.2933 145.264 35.4C145.264 34.5067 144.977 33.7733 144.404 33.2C143.844 32.6133 143.131 32.32 142.264 32.32H138.664V38.48H142.264ZM152.68 34.76C154.16 34.76 155.353 35.2867 156.26 36.34C157.18 37.38 157.64 38.6133 157.64 40.04C157.64 40.1867 157.627 40.3933 157.6 40.66H148.82C148.953 41.6733 149.38 42.48 150.1 43.08C150.833 43.6667 151.733 43.96 152.8 43.96C153.56 43.96 154.213 43.8067 154.76 43.5C155.32 43.18 155.74 42.7667 156.02 42.26L157.18 42.94C156.74 43.6467 156.14 44.2067 155.38 44.62C154.62 45.0333 153.753 45.24 152.78 45.24C151.207 45.24 149.927 44.7467 148.94 43.76C147.953 42.7733 147.46 41.52 147.46 40C147.46 38.5067 147.947 37.26 148.92 36.26C149.893 35.26 151.147 34.76 152.68 34.76ZM152.68 36.04C151.64 36.04 150.767 36.3533 150.06 36.98C149.367 37.5933 148.953 38.3933 148.82 39.38H156.28C156.147 38.3267 155.74 37.5067 155.06 36.92C154.38 36.3333 153.587 36.04 152.68 36.04ZM170.814 45H169.214L165.134 40.18V45H163.814V40.18L159.734 45H158.134L162.614 39.8L158.334 35H159.934L163.814 39.44V35H165.134V39.44L169.014 35H170.614L166.334 39.8L170.814 45ZM179.891 35H181.011V45H179.691V37.3L173.731 45H172.611V35H173.931V42.7L179.891 35ZM193.602 35V45H192.282V37.02L188.782 42.7H188.622L185.122 37.02V45H183.802V35H185.322L188.702 40.48L192.082 35H193.602ZM62.9353 58.22L60.7353 61.82L62.9353 65.42H61.2953L59.0953 61.82L61.2953 58.22H62.9353ZM66.1353 58.22L63.9353 61.82L66.1353 65.42H64.4953L62.2953 61.82L64.4953 58.22H66.1353ZM75.6791 68.24C73.5591 68.24 71.8057 67.54 70.4191 66.14C69.0324 64.74 68.3391 63.0267 68.3391 61C68.3391 58.9733 69.0324 57.26 70.4191 55.86C71.8057 54.46 73.5591 53.76 75.6791 53.76C76.9724 53.76 78.1591 54.0733 79.2391 54.7C80.3191 55.3133 81.1524 56.1467 81.7391 57.2L80.4991 57.92C80.0591 57.0667 79.4057 56.3867 78.5391 55.88C77.6724 55.3733 76.7191 55.12 75.6791 55.12C73.9324 55.12 72.5057 55.6867 71.3991 56.82C70.2924 57.9533 69.7391 59.3467 69.7391 61C69.7391 62.6533 70.2924 64.0467 71.3991 65.18C72.5057 66.3133 73.9324 66.88 75.6791 66.88C76.7191 66.88 77.6724 66.6267 78.5391 66.12C79.4057 65.6133 80.0591 64.9333 80.4991 64.08L81.7391 64.78C81.1657 65.8333 80.3324 66.6733 79.2391 67.3C78.1591 67.9267 76.9724 68.24 75.6791 68.24ZM91.9214 68H90.1614L85.1614 63.18V68H83.8414V58H85.1614V62.42L89.9214 58H91.7214L86.5614 62.8L91.9214 68ZM101.328 58H102.648V68H101.328V66.04C100.408 67.5067 99.0615 68.24 97.2881 68.24C95.8615 68.24 94.6415 67.7333 93.6281 66.72C92.6281 65.7067 92.1281 64.4667 92.1281 63C92.1281 61.5333 92.6281 60.2933 93.6281 59.28C94.6415 58.2667 95.8615 57.76 97.2881 57.76C99.0615 57.76 100.408 58.4933 101.328 59.96V58ZM94.5881 65.82C95.3481 66.58 96.2815 66.96 97.3881 66.96C98.4948 66.96 99.4281 66.58 100.188 65.82C100.948 65.0467 101.328 64.1067 101.328 63C101.328 61.8933 100.948 60.96 100.188 60.2C99.4281 59.4267 98.4948 59.04 97.3881 59.04C96.2815 59.04 95.3481 59.4267 94.5881 60.2C93.8281 60.96 93.4481 61.8933 93.4481 63C93.4481 64.1067 93.8281 65.0467 94.5881 65.82ZM112.643 58H114.043L109.763 68.92C109.376 69.9067 108.823 70.68 108.103 71.24C107.396 71.8133 106.603 72.0667 105.723 72V70.76C106.923 70.8933 107.836 70.2 108.463 68.68L108.723 68.06L104.243 58H105.643L109.403 66.38L112.643 58ZM122.838 58V59.28H119.298V68H117.978V59.28H114.438V58H122.838ZM124.847 70H123.847L131.847 52H132.847L124.847 70ZM144.572 68L143.272 64.56H136.632L135.332 68H133.852L139.232 54H140.672L146.052 68H144.572ZM137.132 63.24H142.772L139.952 55.74L137.132 63.24ZM154.05 58V59.28H148.97V68H147.65V58H154.05ZM159.887 57.76C161.367 57.76 162.561 58.2867 163.467 59.34C164.387 60.38 164.847 61.6133 164.847 63.04C164.847 63.1867 164.834 63.3933 164.807 63.66H156.027C156.161 64.6733 156.587 65.48 157.307 66.08C158.041 66.6667 158.941 66.96 160.007 66.96C160.767 66.96 161.421 66.8067 161.967 66.5C162.527 66.18 162.947 65.7667 163.227 65.26L164.387 65.94C163.947 66.6467 163.347 67.2067 162.587 67.62C161.827 68.0333 160.961 68.24 159.987 68.24C158.414 68.24 157.134 67.7467 156.147 66.76C155.161 65.7733 154.667 64.52 154.667 63C154.667 61.5067 155.154 60.26 156.127 59.26C157.101 58.26 158.354 57.76 159.887 57.76ZM159.887 59.04C158.847 59.04 157.974 59.3533 157.267 59.98C156.574 60.5933 156.161 61.3933 156.027 62.38H163.487C163.354 61.3267 162.947 60.5067 162.267 59.92C161.587 59.3333 160.794 59.04 159.887 59.04ZM174.027 58H175.347V68H174.027V63.64H168.267V68H166.947V58H168.267V62.36H174.027V58ZM185.338 58V59.28H181.798V68H180.478V59.28H176.938V58H185.338ZM188.196 58.22L190.396 61.82L188.196 65.42H186.556L188.756 61.82L186.556 58.22H188.196ZM191.396 58.22L193.596 61.82L191.396 65.42H189.756L191.956 61.82L189.756 58.22H191.396Z" fill="white"/>
<path opacity="0.7" d="M29.7333 112.2V122H28.7533V113.124H23.7133V122H22.7333V112.2H29.7333ZM37.7015 121.118C36.9921 121.818 36.1241 122.168 35.0975 122.168C34.0708 122.168 33.1981 121.818 32.4795 121.118C31.7701 120.409 31.4155 119.536 31.4155 118.5C31.4155 117.464 31.7701 116.596 32.4795 115.896C33.1981 115.187 34.0708 114.832 35.0975 114.832C36.1241 114.832 36.9921 115.187 37.7015 115.896C38.4201 116.596 38.7795 117.464 38.7795 118.5C38.7795 119.536 38.4201 120.409 37.7015 121.118ZM33.1375 120.474C33.6695 121.006 34.3228 121.272 35.0975 121.272C35.8721 121.272 36.5255 121.006 37.0575 120.474C37.5895 119.933 37.8555 119.275 37.8555 118.5C37.8555 117.725 37.5895 117.072 37.0575 116.54C36.5255 115.999 35.8721 115.728 35.0975 115.728C34.3228 115.728 33.6695 115.999 33.1375 116.54C32.6055 117.072 32.3395 117.725 32.3395 118.5C32.3395 119.275 32.6055 119.933 33.1375 120.474ZM43.6643 118.402C44.4763 118.71 44.8823 119.27 44.8823 120.082C44.8823 120.661 44.6536 121.155 44.1963 121.566C43.7483 121.967 43.1043 122.168 42.2643 122.168C40.8549 122.168 39.9309 121.608 39.4923 120.488L40.2763 120.026C40.5656 120.857 41.2283 121.272 42.2643 121.272C42.8056 121.272 43.2209 121.155 43.5103 120.922C43.8089 120.689 43.9583 120.39 43.9583 120.026C43.9583 119.699 43.8369 119.433 43.5943 119.228C43.3516 119.023 43.0249 118.92 42.6143 118.92H41.5923V118.024H42.3343C42.7356 118.024 43.0483 117.926 43.2723 117.73C43.5056 117.525 43.6223 117.245 43.6223 116.89C43.6223 116.554 43.4869 116.279 43.2163 116.064C42.9456 115.84 42.5816 115.728 42.1243 115.728C41.2469 115.728 40.6636 116.078 40.3743 116.778L39.6043 116.33C40.0709 115.331 40.9109 114.832 42.1243 114.832C42.8616 114.832 43.4496 115.028 43.8883 115.42C44.3269 115.803 44.5463 116.274 44.5463 116.834C44.5463 117.553 44.2523 118.075 43.6643 118.402ZM50.7386 118.402C51.504 118.682 51.8866 119.228 51.8866 120.04C51.8866 120.609 51.6953 121.081 51.3126 121.454C50.9393 121.818 50.398 122 49.6886 122H46.2866V115H49.4086C50.09 115 50.6173 115.177 50.9906 115.532C51.364 115.877 51.5506 116.325 51.5506 116.876C51.5506 117.576 51.28 118.085 50.7386 118.402ZM49.4086 115.896H47.2106V118.024H49.4086C50.2206 118.024 50.6266 117.66 50.6266 116.932C50.6266 116.605 50.5193 116.353 50.3046 116.176C50.0993 115.989 49.8006 115.896 49.4086 115.896ZM49.6886 121.104C50.0993 121.104 50.412 121.006 50.6266 120.81C50.8506 120.614 50.9626 120.339 50.9626 119.984C50.9626 119.657 50.8506 119.401 50.6266 119.214C50.412 119.018 50.0993 118.92 49.6886 118.92H47.2106V121.104H49.6886ZM59.1526 121.118C58.4433 121.818 57.5753 122.168 56.5486 122.168C55.522 122.168 54.6493 121.818 53.9306 121.118C53.2213 120.409 52.8666 119.536 52.8666 118.5C52.8666 117.464 53.2213 116.596 53.9306 115.896C54.6493 115.187 55.522 114.832 56.5486 114.832C57.5753 114.832 58.4433 115.187 59.1526 115.896C59.8713 116.596 60.2306 117.464 60.2306 118.5C60.2306 119.536 59.8713 120.409 59.1526 121.118ZM54.5886 120.474C55.1206 121.006 55.774 121.272 56.5486 121.272C57.3233 121.272 57.9766 121.006 58.5086 120.474C59.0406 119.933 59.3066 119.275 59.3066 118.5C59.3066 117.725 59.0406 117.072 58.5086 116.54C57.9766 115.999 57.3233 115.728 56.5486 115.728C55.774 115.728 55.1206 115.999 54.5886 116.54C54.0566 117.072 53.7906 117.725 53.7906 118.5C53.7906 119.275 54.0566 119.933 54.5886 120.474ZM67.2434 115V122H66.3194V115.896H63.1554V119.018C63.1554 120.185 62.9314 120.987 62.4834 121.426C62.0448 121.865 61.4381 122.056 60.6634 122V121.132C61.1954 121.188 61.5874 121.062 61.8394 120.754C62.1008 120.446 62.2314 119.867 62.2314 119.018V115H67.2434ZM74.2407 115V122H73.3167V119.312H72.1127L69.9567 122H68.7807L70.9927 119.284C70.4327 119.2 69.9707 118.967 69.6067 118.584C69.2427 118.201 69.0607 117.73 69.0607 117.17C69.0607 116.535 69.2847 116.017 69.7327 115.616C70.19 115.205 70.7454 115 71.3987 115H74.2407ZM71.3987 118.444H73.3167V115.896H71.3987C71.0067 115.896 70.6707 116.013 70.3907 116.246C70.12 116.479 69.9847 116.787 69.9847 117.17C69.9847 117.553 70.12 117.861 70.3907 118.094C70.6707 118.327 71.0067 118.444 71.3987 118.444ZM79.4347 114.832C80.4707 114.832 81.306 115.201 81.9407 115.938C82.5847 116.666 82.9067 117.529 82.9067 118.528C82.9067 118.631 82.8974 118.775 82.8787 118.962H76.7327C76.826 119.671 77.1247 120.236 77.6287 120.656C78.142 121.067 78.772 121.272 79.5187 121.272C80.0507 121.272 80.508 121.165 80.8907 120.95C81.2827 120.726 81.5767 120.437 81.7727 120.082L82.5847 120.558C82.2767 121.053 81.8567 121.445 81.3247 121.734C80.7927 122.023 80.186 122.168 79.5047 122.168C78.4034 122.168 77.5074 121.823 76.8167 121.132C76.126 120.441 75.7807 119.564 75.7807 118.5C75.7807 117.455 76.1214 116.582 76.8027 115.882C77.484 115.182 78.3614 114.832 79.4347 114.832ZM79.4347 115.728C78.7067 115.728 78.0954 115.947 77.6007 116.386C77.1154 116.815 76.826 117.375 76.7327 118.066H81.9547C81.8614 117.329 81.5767 116.755 81.1007 116.344C80.6247 115.933 80.0694 115.728 79.4347 115.728ZM89.143 115V115.896H86.665V122H85.741V115.896H83.263V115H89.143ZM99.6491 115V122H98.7251V115.896H94.6931V122H93.7691V115H99.6491ZM105.355 114.832C106.354 114.832 107.203 115.187 107.903 115.896C108.612 116.605 108.967 117.473 108.967 118.5C108.967 119.527 108.612 120.395 107.903 121.104C107.203 121.813 106.354 122.168 105.355 122.168C104.114 122.168 103.171 121.655 102.527 120.628V124.8H101.603V115H102.527V116.372C103.171 115.345 104.114 114.832 105.355 114.832ZM103.325 120.474C103.857 121.006 104.51 121.272 105.285 121.272C106.06 121.272 106.713 121.006 107.245 120.474C107.777 119.933 108.043 119.275 108.043 118.5C108.043 117.725 107.777 117.072 107.245 116.54C106.713 115.999 106.06 115.728 105.285 115.728C104.51 115.728 103.857 115.999 103.325 116.54C102.793 117.072 102.527 117.725 102.527 118.5C102.527 119.275 102.793 119.933 103.325 120.474ZM116.369 121.118C115.66 121.818 114.792 122.168 113.765 122.168C112.739 122.168 111.866 121.818 111.147 121.118C110.438 120.409 110.083 119.536 110.083 118.5C110.083 117.464 110.438 116.596 111.147 115.896C111.866 115.187 112.739 114.832 113.765 114.832C114.792 114.832 115.66 115.187 116.369 115.896C117.088 116.596 117.447 117.464 117.447 118.5C117.447 119.536 117.088 120.409 116.369 121.118ZM111.805 120.474C112.337 121.006 112.991 121.272 113.765 121.272C114.54 121.272 115.193 121.006 115.725 120.474C116.257 119.933 116.523 119.275 116.523 118.5C116.523 117.725 116.257 117.072 115.725 116.54C115.193 115.999 114.54 115.728 113.765 115.728C112.991 115.728 112.337 115.999 111.805 116.54C111.273 117.072 111.007 117.725 111.007 118.5C111.007 119.275 111.273 119.933 111.805 120.474ZM122.256 122.168C121.201 122.168 120.324 121.818 119.624 121.118C118.924 120.409 118.574 119.536 118.574 118.5C118.574 117.464 118.924 116.596 119.624 115.896C120.324 115.187 121.201 114.832 122.256 114.832C122.946 114.832 123.567 115 124.118 115.336C124.668 115.663 125.07 116.106 125.322 116.666L124.566 117.1C124.379 116.68 124.076 116.349 123.656 116.106C123.245 115.854 122.778 115.728 122.256 115.728C121.481 115.728 120.828 115.999 120.296 116.54C119.764 117.072 119.498 117.725 119.498 118.5C119.498 119.275 119.764 119.933 120.296 120.474C120.828 121.006 121.481 121.272 122.256 121.272C122.778 121.272 123.245 121.151 123.656 120.908C124.066 120.656 124.388 120.32 124.622 119.9L125.392 120.348C125.102 120.908 124.678 121.351 124.118 121.678C123.558 122.005 122.937 122.168 122.256 122.168ZM133.578 115V122H132.654V116.414L130.204 120.39H130.092L127.642 116.414V122H126.718V115H127.782L130.148 118.836L132.514 115H133.578ZM141.557 115H142.481V122H141.557V120.628C140.913 121.655 139.97 122.168 138.729 122.168C137.73 122.168 136.876 121.813 136.167 121.104C135.467 120.395 135.117 119.527 135.117 118.5C135.117 117.473 135.467 116.605 136.167 115.896C136.876 115.187 137.73 114.832 138.729 114.832C139.97 114.832 140.913 115.345 141.557 116.372V115ZM136.839 120.474C137.371 121.006 138.024 121.272 138.799 121.272C139.573 121.272 140.227 121.006 140.759 120.474C141.291 119.933 141.557 119.275 141.557 118.5C141.557 117.725 141.291 117.072 140.759 116.54C140.227 115.999 139.573 115.728 138.799 115.728C138.024 115.728 137.371 115.999 136.839 116.54C136.307 117.072 136.041 117.725 136.041 118.5C136.041 119.275 136.307 119.933 136.839 120.474ZM149.477 115V115.896H146.999V122H146.075V115.896H143.597V115H149.477ZM154.355 114.832C155.354 114.832 156.203 115.187 156.903 115.896C157.612 116.605 157.967 117.473 157.967 118.5C157.967 119.527 157.612 120.395 156.903 121.104C156.203 121.813 155.354 122.168 154.355 122.168C153.114 122.168 152.171 121.655 151.527 120.628V124.8H150.603V115H151.527V116.372C152.171 115.345 153.114 114.832 154.355 114.832ZM152.325 120.474C152.857 121.006 153.51 121.272 154.285 121.272C155.06 121.272 155.713 121.006 156.245 120.474C156.777 119.933 157.043 119.275 157.043 118.5C157.043 117.725 156.777 117.072 156.245 116.54C155.713 115.999 155.06 115.728 154.285 115.728C153.51 115.728 152.857 115.999 152.325 116.54C151.793 117.072 151.527 117.725 151.527 118.5C151.527 119.275 151.793 119.933 152.325 120.474ZM164.599 115H165.383V122H164.459V116.61L160.287 122H159.503V115H160.427V120.39L164.599 115ZM171.789 118.402C172.555 118.682 172.937 119.228 172.937 120.04C172.937 120.609 172.746 121.081 172.363 121.454C171.99 121.818 171.449 122 170.739 122H167.337V115H170.459C171.141 115 171.668 115.177 172.041 115.532C172.415 115.877 172.601 116.325 172.601 116.876C172.601 117.576 172.331 118.085 171.789 118.402ZM170.459 115.896H168.261V118.024H170.459C171.271 118.024 171.677 117.66 171.677 116.932C171.677 116.605 171.57 116.353 171.355 116.176C171.15 115.989 170.851 115.896 170.459 115.896ZM170.739 121.104C171.15 121.104 171.463 121.006 171.677 120.81C171.901 120.614 172.013 120.339 172.013 119.984C172.013 119.657 171.901 119.401 171.677 119.214C171.463 119.018 171.15 118.92 170.739 118.92H168.261V121.104H170.739ZM180.357 115H181.281V122H180.357V120.628C179.713 121.655 178.771 122.168 177.529 122.168C176.531 122.168 175.677 121.813 174.967 121.104C174.267 120.395 173.917 119.527 173.917 118.5C173.917 117.473 174.267 116.605 174.967 115.896C175.677 115.187 176.531 114.832 177.529 114.832C178.771 114.832 179.713 115.345 180.357 116.372V115ZM175.639 120.474C176.171 121.006 176.825 121.272 177.599 121.272C178.374 121.272 179.027 121.006 179.559 120.474C180.091 119.933 180.357 119.275 180.357 118.5C180.357 117.725 180.091 117.072 179.559 116.54C179.027 115.999 178.374 115.728 177.599 115.728C176.825 115.728 176.171 115.999 175.639 116.54C175.107 117.072 174.841 117.725 174.841 118.5C174.841 119.275 175.107 119.933 175.639 120.474ZM188.278 115V115.896H185.8V122H184.876V115.896H182.398V115H188.278ZM192.246 117.66C192.899 117.66 193.45 117.865 193.898 118.276C194.355 118.677 194.584 119.195 194.584 119.83C194.584 120.465 194.355 120.987 193.898 121.398C193.45 121.799 192.899 122 192.246 122H189.404V115H190.328V117.66H192.246ZM192.246 121.104C192.638 121.104 192.969 120.987 193.24 120.754C193.52 120.521 193.66 120.213 193.66 119.83C193.66 119.447 193.52 119.139 193.24 118.906C192.969 118.673 192.638 118.556 192.246 118.556H190.328V121.104H192.246ZM26.7869 131H27.5709V138H26.6469V132.61L22.4749 138H21.6909V131H22.6149V136.39L26.7869 131ZM34.0049 131V131.896H30.4489V138H29.5249V131H34.0049ZM38.8824 130.832C39.8811 130.832 40.7304 131.187 41.4304 131.896C42.1397 132.605 42.4944 133.473 42.4944 134.5C42.4944 135.527 42.1397 136.395 41.4304 137.104C40.7304 137.813 39.8811 138.168 38.8824 138.168C37.6411 138.168 36.6984 137.655 36.0544 136.628V140.8H35.1304V131H36.0544V132.372C36.6984 131.345 37.6411 130.832 38.8824 130.832ZM36.8524 136.474C37.3844 137.006 38.0377 137.272 38.8124 137.272C39.5871 137.272 40.2404 137.006 40.7724 136.474C41.3044 135.933 41.5704 135.275 41.5704 134.5C41.5704 133.725 41.3044 133.072 40.7724 132.54C40.2404 131.999 39.5871 131.728 38.8124 131.728C38.0377 131.728 37.3844 131.999 36.8524 132.54C36.3204 133.072 36.0544 133.725 36.0544 134.5C36.0544 135.275 36.3204 135.933 36.8524 136.474ZM49.8968 137.118C49.1874 137.818 48.3194 138.168 47.2928 138.168C46.2661 138.168 45.3934 137.818 44.6748 137.118C43.9654 136.409 43.6108 135.536 43.6108 134.5C43.6108 133.464 43.9654 132.596 44.6748 131.896C45.3934 131.187 46.2661 130.832 47.2928 130.832C48.3194 130.832 49.1874 131.187 49.8968 131.896C50.6154 132.596 50.9748 133.464 50.9748 134.5C50.9748 135.536 50.6154 136.409 49.8968 137.118ZM45.3328 136.474C45.8648 137.006 46.5181 137.272 47.2928 137.272C48.0674 137.272 48.7208 137.006 49.2528 136.474C49.7848 135.933 50.0508 135.275 50.0508 134.5C50.0508 133.725 49.7848 133.072 49.2528 132.54C48.7208 131.999 48.0674 131.728 47.2928 131.728C46.5181 131.728 45.8648 131.999 45.3328 132.54C44.8008 133.072 44.5348 133.725 44.5348 134.5C44.5348 135.275 44.8008 135.933 45.3328 136.474ZM58.177 138H56.945L53.445 134.626V138H52.521V131H53.445V134.094L56.777 131H58.037L54.425 134.36L58.177 138ZM64.6077 137.118C63.8984 137.818 63.0304 138.168 62.0037 138.168C60.9771 138.168 60.1044 137.818 59.3857 137.118C58.6764 136.409 58.3217 135.536 58.3217 134.5C58.3217 133.464 58.6764 132.596 59.3857 131.896C60.1044 131.187 60.9771 130.832 62.0037 130.832C63.0304 130.832 63.8984 131.187 64.6077 131.896C65.3264 132.596 65.6857 133.464 65.6857 134.5C65.6857 135.536 65.3264 136.409 64.6077 137.118ZM60.0437 136.474C60.5757 137.006 61.2291 137.272 62.0037 137.272C62.7784 137.272 63.4317 137.006 63.9637 136.474C64.4957 135.933 64.7617 135.275 64.7617 134.5C64.7617 133.725 64.4957 133.072 63.9637 132.54C63.4317 131.999 62.7784 131.728 62.0037 131.728C61.2291 131.728 60.5757 131.999 60.0437 132.54C59.5117 133.072 59.2457 133.725 59.2457 134.5C59.2457 135.275 59.5117 135.933 60.0437 136.474ZM71.684 134.402C72.4493 134.682 72.832 135.228 72.832 136.04C72.832 136.609 72.6406 137.081 72.258 137.454C71.8846 137.818 71.3433 138 70.634 138H67.232V131H70.354C71.0353 131 71.5626 131.177 71.936 131.532C72.3093 131.877 72.496 132.325 72.496 132.876C72.496 133.576 72.2253 134.085 71.684 134.402ZM70.354 131.896H68.156V134.024H70.354C71.166 134.024 71.572 133.66 71.572 132.932C71.572 132.605 71.4646 132.353 71.25 132.176C71.0446 131.989 70.746 131.896 70.354 131.896ZM70.634 137.104C71.0446 137.104 71.3573 137.006 71.572 136.81C71.796 136.614 71.908 136.339 71.908 135.984C71.908 135.657 71.796 135.401 71.572 135.214C71.3573 135.018 71.0446 134.92 70.634 134.92H68.156V137.104H70.634ZM83.612 131V138H82.688V131.896H78.656V138H77.732V131H83.612ZM91.4319 137.118C90.7226 137.818 89.8546 138.168 88.8279 138.168C87.8013 138.168 86.9286 137.818 86.2099 137.118C85.5006 136.409 85.1459 135.536 85.1459 134.5C85.1459 133.464 85.5006 132.596 86.2099 131.896C86.9286 131.187 87.8013 130.832 88.8279 130.832C89.8546 130.832 90.7226 131.187 91.4319 131.896C92.1506 132.596 92.5099 133.464 92.5099 134.5C92.5099 135.536 92.1506 136.409 91.4319 137.118ZM86.8679 136.474C87.3999 137.006 88.0533 137.272 88.8279 137.272C89.6026 137.272 90.2559 137.006 90.7879 136.474C91.3199 135.933 91.5859 135.275 91.5859 134.5C91.5859 133.725 91.3199 133.072 90.7879 132.54C90.2559 131.999 89.6026 131.728 88.8279 131.728C88.0533 131.728 87.3999 131.999 86.8679 132.54C86.3359 133.072 86.0699 133.725 86.0699 134.5C86.0699 135.275 86.3359 135.933 86.8679 136.474ZM103.422 137.118C102.713 137.818 101.845 138.168 100.818 138.168C99.7915 138.168 98.9188 137.818 98.2002 137.118C97.4908 136.409 97.1362 135.536 97.1362 134.5C97.1362 133.464 97.4908 132.596 98.2002 131.896C98.9188 131.187 99.7915 130.832 100.818 130.832C101.845 130.832 102.713 131.187 103.422 131.896C104.141 132.596 104.5 133.464 104.5 134.5C104.5 135.536 104.141 136.409 103.422 137.118ZM98.8582 136.474C99.3902 137.006 100.044 137.272 100.818 137.272C101.593 137.272 102.246 137.006 102.778 136.474C103.31 135.933 103.576 135.275 103.576 134.5C103.576 133.725 103.31 133.072 102.778 132.54C102.246 131.999 101.593 131.728 100.818 131.728C100.044 131.728 99.3902 131.999 98.8582 132.54C98.3262 133.072 98.0602 133.725 98.0602 134.5C98.0602 135.275 98.3262 135.933 98.8582 136.474ZM111.926 131V138H111.002V131.896H106.97V138H106.046V131H111.926ZM117.632 130.832C118.631 130.832 119.48 131.187 120.18 131.896C120.89 132.605 121.244 133.473 121.244 134.5C121.244 135.527 120.89 136.395 120.18 137.104C119.48 137.813 118.631 138.168 117.632 138.168C116.391 138.168 115.448 137.655 114.804 136.628V140.8H113.88V131H114.804V132.372C115.448 131.345 116.391 130.832 117.632 130.832ZM115.602 136.474C116.134 137.006 116.788 137.272 117.562 137.272C118.337 137.272 118.99 137.006 119.522 136.474C120.054 135.933 120.32 135.275 120.32 134.5C120.32 133.725 120.054 133.072 119.522 132.54C118.99 131.999 118.337 131.728 117.562 131.728C116.788 131.728 116.134 131.999 115.602 132.54C115.07 133.072 114.804 133.725 114.804 134.5C114.804 135.275 115.07 135.933 115.602 136.474ZM126.015 130.832C127.051 130.832 127.886 131.201 128.521 131.938C129.165 132.666 129.487 133.529 129.487 134.528C129.487 134.631 129.477 134.775 129.459 134.962H123.313C123.406 135.671 123.705 136.236 124.209 136.656C124.722 137.067 125.352 137.272 126.099 137.272C126.631 137.272 127.088 137.165 127.471 136.95C127.863 136.726 128.157 136.437 128.353 136.082L129.165 136.558C128.857 137.053 128.437 137.445 127.905 137.734C127.373 138.023 126.766 138.168 126.085 138.168C124.983 138.168 124.087 137.823 123.397 137.132C122.706 136.441 122.361 135.564 122.361 134.5C122.361 133.455 122.701 132.582 123.383 131.882C124.064 131.182 124.941 130.832 126.015 130.832ZM126.015 131.728C125.287 131.728 124.675 131.947 124.181 132.386C123.695 132.815 123.406 133.375 123.313 134.066H128.535C128.441 133.329 128.157 132.755 127.681 132.344C127.205 131.933 126.649 131.728 126.015 131.728ZM136.563 137.104H137.543V139.876H136.619V138H130.907V139.876H129.983V137.104H130.837C131.313 136.479 131.551 135.597 131.551 134.458V131H136.563V137.104ZM131.957 137.104H135.639V131.896H132.475V134.458C132.475 135.531 132.302 136.413 131.957 137.104ZM141.902 130.832C142.938 130.832 143.773 131.201 144.408 131.938C145.052 132.666 145.374 133.529 145.374 134.528C145.374 134.631 145.364 134.775 145.346 134.962H139.2C139.293 135.671 139.592 136.236 140.096 136.656C140.609 137.067 141.239 137.272 141.986 137.272C142.518 137.272 142.975 137.165 143.358 136.95C143.75 136.726 144.044 136.437 144.24 136.082L145.052 136.558C144.744 137.053 144.324 137.445 143.792 137.734C143.26 138.023 142.653 138.168 141.972 138.168C140.87 138.168 139.974 137.823 139.284 137.132C138.593 136.441 138.248 135.564 138.248 134.5C138.248 133.455 138.588 132.582 139.27 131.882C139.951 131.182 140.828 130.832 141.902 130.832ZM141.902 131.728C141.174 131.728 140.562 131.947 140.068 132.386C139.582 132.815 139.293 133.375 139.2 134.066H144.422C144.328 133.329 144.044 132.755 143.568 132.344C143.092 131.933 142.536 131.728 141.902 131.728ZM152.31 131V138H151.386V131.896H148.222V135.018C148.222 136.185 147.998 136.987 147.55 137.426C147.111 137.865 146.505 138.056 145.73 138V137.132C146.262 137.188 146.654 137.062 146.906 136.754C147.167 136.446 147.298 135.867 147.298 135.018V131H152.31ZM157.501 130.832C158.537 130.832 159.372 131.201 160.007 131.938C160.651 132.666 160.973 133.529 160.973 134.528C160.973 134.631 160.964 134.775 160.945 134.962H154.799C154.892 135.671 155.191 136.236 155.695 136.656C156.208 137.067 156.838 137.272 157.585 137.272C158.117 137.272 158.574 137.165 158.957 136.95C159.349 136.726 159.643 136.437 159.839 136.082L160.651 136.558C160.343 137.053 159.923 137.445 159.391 137.734C158.859 138.023 158.252 138.168 157.571 138.168C156.47 138.168 155.574 137.823 154.883 137.132C154.192 136.441 153.847 135.564 153.847 134.5C153.847 133.455 154.188 132.582 154.869 131.882C155.55 131.182 156.428 130.832 157.501 130.832ZM157.501 131.728C156.773 131.728 156.162 131.947 155.667 132.386C155.182 132.815 154.892 133.375 154.799 134.066H160.021C159.928 133.329 159.643 132.755 159.167 132.344C158.691 131.933 158.136 131.728 157.501 131.728ZM167.399 131H168.323V138H167.399V134.948H163.367V138H162.443V131H163.367V134.052H167.399V131ZM175.233 131H176.157V138H175.233V134.948H171.201V138H170.277V131H171.201V134.052H175.233V131ZM180.953 133.66C181.606 133.66 182.157 133.865 182.605 134.276C183.062 134.677 183.291 135.195 183.291 135.83C183.291 136.465 183.062 136.987 182.605 137.398C182.157 137.799 181.606 138 180.953 138H178.111V131H179.035V133.66H180.953ZM184.271 131H185.195V138H184.271V131ZM180.953 137.104C181.345 137.104 181.676 136.987 181.947 136.754C182.227 136.521 182.367 136.213 182.367 135.83C182.367 135.447 182.227 135.139 181.947 134.906C181.676 134.673 181.345 134.556 180.953 134.556H179.035V137.104H180.953ZM194.022 131V138H193.098V132.414L190.648 136.39H190.536L188.086 132.414V138H187.162V131H188.226L190.592 134.836L192.958 131H194.022ZM57.2747 154H56.0427L52.5427 150.626V154H51.6187V147H52.5427V150.094L55.8747 147H57.1347L53.5227 150.36L57.2747 154ZM62.2886 146.832C63.2873 146.832 64.1366 147.187 64.8366 147.896C65.546 148.605 65.9006 149.473 65.9006 150.5C65.9006 151.527 65.546 152.395 64.8366 153.104C64.1366 153.813 63.2873 154.168 62.2886 154.168C61.0473 154.168 60.1046 153.655 59.4606 152.628V156.8H58.5366V147H59.4606V148.372C60.1046 147.345 61.0473 146.832 62.2886 146.832ZM60.2586 152.474C60.7906 153.006 61.444 153.272 62.2186 153.272C62.9933 153.272 63.6466 153.006 64.1786 152.474C64.7106 151.933 64.9766 151.275 64.9766 150.5C64.9766 149.725 64.7106 149.072 64.1786 148.54C63.6466 147.999 62.9933 147.728 62.2186 147.728C61.444 147.728 60.7906 147.999 60.2586 148.54C59.7266 149.072 59.4606 149.725 59.4606 150.5C59.4606 151.275 59.7266 151.933 60.2586 152.474ZM72.533 147H73.317V154H72.393V148.61L68.221 154H67.437V147H68.361V152.39L72.533 147ZM80.311 147V147.896H77.833V154H76.909V147.896H74.431V147H80.311ZM84.3976 146.832C85.4336 146.832 86.2689 147.201 86.9036 147.938C87.5476 148.666 87.8696 149.529 87.8696 150.528C87.8696 150.631 87.8603 150.775 87.8416 150.962H81.6956C81.7889 151.671 82.0876 152.236 82.5916 152.656C83.1049 153.067 83.7349 153.272 84.4816 153.272C85.0136 153.272 85.4709 153.165 85.8536 152.95C86.2456 152.726 86.5396 152.437 86.7356 152.082L87.5476 152.558C87.2396 153.053 86.8196 153.445 86.2876 153.734C85.7556 154.023 85.1489 154.168 84.4676 154.168C83.3663 154.168 82.4703 153.823 81.7796 153.132C81.0889 152.441 80.7436 151.564 80.7436 150.5C80.7436 149.455 81.0843 148.582 81.7656 147.882C82.4469 147.182 83.3243 146.832 84.3976 146.832ZM84.3976 147.728C83.6696 147.728 83.0583 147.947 82.5636 148.386C82.0783 148.815 81.7889 149.375 81.6956 150.066H86.9176C86.8243 149.329 86.5396 148.755 86.0636 148.344C85.5876 147.933 85.0323 147.728 84.3976 147.728ZM93.0914 146.832C94.09 146.832 94.9394 147.187 95.6394 147.896C96.3487 148.605 96.7034 149.473 96.7034 150.5C96.7034 151.527 96.3487 152.395 95.6394 153.104C94.9394 153.813 94.09 154.168 93.0914 154.168C91.85 154.168 90.9074 153.655 90.2634 152.628V156.8H89.3394V147H90.2634V148.372C90.9074 147.345 91.85 146.832 93.0914 146.832ZM91.0614 152.474C91.5934 153.006 92.2467 153.272 93.0214 153.272C93.796 153.272 94.4494 153.006 94.9814 152.474C95.5134 151.933 95.7794 151.275 95.7794 150.5C95.7794 149.725 95.5134 149.072 94.9814 148.54C94.4494 147.999 93.796 147.728 93.0214 147.728C92.2467 147.728 91.5934 147.999 91.0614 148.54C90.5294 149.072 90.2634 149.725 90.2634 150.5C90.2634 151.275 90.5294 151.933 91.0614 152.474ZM103.336 147H104.12V154H103.196V148.61L99.0238 154H98.2398V147H99.1638V152.39L103.336 147ZM111.114 147V154H110.19V151.312H108.986L106.83 154H105.654L107.866 151.284C107.306 151.2 106.844 150.967 106.48 150.584C106.116 150.201 105.934 149.73 105.934 149.17C105.934 148.535 106.158 148.017 106.606 147.616C107.063 147.205 107.618 147 108.272 147H111.114ZM108.272 150.444H110.19V147.896H108.272C107.88 147.896 107.544 148.013 107.264 148.246C106.993 148.479 106.858 148.787 106.858 149.17C106.858 149.553 106.993 149.861 107.264 150.094C107.544 150.327 107.88 150.444 108.272 150.444ZM119.934 147V154H119.01V148.414L116.56 152.39H116.448L113.998 148.414V154H113.074V147H114.138L116.504 150.836L118.87 147H119.934ZM122.172 155.4H121.472L127.072 142.8H127.772L122.172 155.4ZM136.148 148.008C136.82 148.689 137.156 149.52 137.156 150.5C137.156 151.48 136.82 152.311 136.148 152.992C135.476 153.673 134.589 154.061 133.488 154.154V156.8H132.564V154.154C131.463 154.061 130.576 153.673 129.904 152.992C129.232 152.311 128.896 151.48 128.896 150.5C128.896 149.52 129.232 148.689 129.904 148.008C130.576 147.327 131.463 146.939 132.564 146.846V144.2H133.488V146.846C134.589 146.939 135.476 147.327 136.148 148.008ZM130.562 148.652C130.067 149.156 129.82 149.772 129.82 150.5C129.82 151.228 130.067 151.849 130.562 152.362C131.057 152.866 131.724 153.16 132.564 153.244V147.756C131.724 147.84 131.057 148.139 130.562 148.652ZM133.488 153.244C134.328 153.16 134.995 152.866 135.49 152.362C135.985 151.849 136.232 151.228 136.232 150.5C136.232 149.772 135.985 149.156 135.49 148.652C134.995 148.139 134.328 147.84 133.488 147.756V153.244ZM143.791 147H144.575V154H143.651V148.61L139.479 154H138.695V147H139.619V152.39L143.791 147ZM152.269 147V154H151.345V147.896H148.181V151.018C148.181 152.185 147.957 152.987 147.509 153.426C147.07 153.865 146.463 154.056 145.689 154V153.132C146.221 153.188 146.613 153.062 146.865 152.754C147.126 152.446 147.257 151.867 147.257 151.018V147H152.269ZM157.068 149.66C157.721 149.66 158.272 149.865 158.72 150.276C159.177 150.677 159.406 151.195 159.406 151.83C159.406 152.465 159.177 152.987 158.72 153.398C158.272 153.799 157.721 154 157.068 154H154.226V147H155.15V149.66H157.068ZM157.068 153.104C157.46 153.104 157.791 152.987 158.062 152.754C158.342 152.521 158.482 152.213 158.482 151.83C158.482 151.447 158.342 151.139 158.062 150.906C157.791 150.673 157.46 150.556 157.068 150.556H155.15V153.104H157.068ZM165.008 147V147.896H162.53V154H161.606V147.896H159.128V147H165.008ZM169.886 146.832C170.885 146.832 171.734 147.187 172.434 147.896C173.144 148.605 173.498 149.473 173.498 150.5C173.498 151.527 173.144 152.395 172.434 153.104C171.734 153.813 170.885 154.168 169.886 154.168C168.645 154.168 167.702 153.655 167.058 152.628V156.8H166.134V147H167.058V148.372C167.702 147.345 168.645 146.832 169.886 146.832ZM167.856 152.474C168.388 153.006 169.042 153.272 169.816 153.272C170.591 153.272 171.244 153.006 171.776 152.474C172.308 151.933 172.574 151.275 172.574 150.5C172.574 149.725 172.308 149.072 171.776 148.54C171.244 147.999 170.591 147.728 169.816 147.728C169.042 147.728 168.388 147.999 167.856 148.54C167.324 149.072 167.058 149.725 167.058 150.5C167.058 151.275 167.324 151.933 167.856 152.474ZM181.055 147H181.979V154H181.055V152.628C180.411 153.655 179.468 154.168 178.227 154.168C177.228 154.168 176.374 153.813 175.665 153.104C174.965 152.395 174.615 151.527 174.615 150.5C174.615 149.473 174.965 148.605 175.665 147.896C176.374 147.187 177.228 146.832 178.227 146.832C179.468 146.832 180.411 147.345 181.055 148.372V147ZM176.337 152.474C176.869 153.006 177.522 153.272 178.297 153.272C179.071 153.272 179.725 153.006 180.257 152.474C180.789 151.933 181.055 151.275 181.055 150.5C181.055 149.725 180.789 149.072 180.257 148.54C179.725 147.999 179.071 147.728 178.297 147.728C177.522 147.728 176.869 147.999 176.337 148.54C175.805 149.072 175.539 149.725 175.539 150.5C175.539 151.275 175.805 151.933 176.337 152.474ZM190.795 147V154H189.871V148.414L187.421 152.39H187.309L184.859 148.414V154H183.935V147H184.999L187.365 150.836L189.731 147H190.795ZM193.929 153.916C193.78 154.065 193.598 154.14 193.383 154.14C193.169 154.14 192.987 154.065 192.837 153.916C192.688 153.767 192.613 153.585 192.613 153.37C192.613 153.155 192.688 152.973 192.837 152.824C192.987 152.675 193.169 152.6 193.383 152.6C193.598 152.6 193.78 152.675 193.929 152.824C194.079 152.973 194.153 153.155 194.153 153.37C194.153 153.585 194.079 153.767 193.929 153.916Z" fill="white"/>
<defs>
<filter id="filter0_b_1002_695" x="-10" y="-10" width="227" height="198" filterUnits="userSpaceOnUse" color-interpolation-filters="sRGB">
<feFlood flood-opacity="0" result="BackgroundImageFix"/>
<feGaussianBlur in="BackgroundImageFix" stdDeviation="5"/>
<feComposite in2="SourceAlpha" operator="in" result="effect1_backgroundBlur_1002_695"/>
<feBlend mode="normal" in="SourceGraphic" in2="effect1_backgroundBlur_1002_695" result="shape"/>
</filter>
</defs>
</svg>
