<svg width="206" height="178" viewBox="0 0 206 178" fill="none" xmlns="http://www.w3.org/2000/svg">
<rect width="206" height="178" rx="15" fill="#2B2B2B"/>
<path d="M18.58 43C19.8733 43 20.9467 43.4333 21.8 44.3C22.6667 45.1533 23.1 46.22 23.1 47.5C23.1 48.7667 22.6667 49.8333 21.8 50.7C20.9467 51.5667 19.8733 52 18.58 52H15.36V57H13.5V43H18.58ZM18.58 50.26C19.3533 50.26 19.9933 50 20.5 49.48C21.0067 48.9467 21.26 48.2867 21.26 47.5C21.26 46.7 21.0067 46.04 20.5 45.52C19.9933 45 19.3533 44.74 18.58 44.74H15.36V50.26H18.58ZM25.5752 52.8C25.7485 53.6933 26.1552 54.3867 26.7952 54.88C27.4485 55.3733 28.2485 55.62 29.1952 55.62C30.5152 55.62 31.4752 55.1333 32.0752 54.16L33.5552 55C32.5818 56.5067 31.1152 57.26 29.1552 57.26C27.5685 57.26 26.2752 56.7667 25.2752 55.78C24.2885 54.78 23.7952 53.52 23.7952 52C23.7952 50.4933 24.2818 49.24 25.2552 48.24C26.2285 47.24 27.4885 46.74 29.0352 46.74C30.5018 46.74 31.6952 47.26 32.6152 48.3C33.5485 49.3267 34.0152 50.5667 34.0152 52.02C34.0152 52.2733 33.9952 52.5333 33.9552 52.8H25.5752ZM29.0352 48.38C28.1018 48.38 27.3285 48.6467 26.7152 49.18C26.1018 49.7 25.7218 50.4 25.5752 51.28H32.2552C32.1085 50.3333 31.7352 49.6133 31.1352 49.12C30.5352 48.6267 29.8352 48.38 29.0352 48.38ZM47.6903 57H45.6503L41.9103 52.26V57H40.1903V52.26L36.4503 57H34.4303L38.6103 51.84L34.6303 47H36.6503L40.1903 51.42V47H41.9103V51.42L45.4503 47H47.4903L43.4903 51.84L47.6903 57ZM56.6152 47H58.0152V57H56.2952V49.98L50.7552 57H49.3552V47H51.0752V54.02L56.6152 47ZM70.6638 47V57H68.9638V49.74L65.7838 54.86H65.5638L62.3838 49.74V57H60.6637V47H62.5238L65.6638 52.06L68.8038 47H70.6638ZM17.44 71.16L15.24 74.82L17.44 78.46H15.56L13.36 74.82L15.56 71.16H17.44ZM20.84 71.16L18.64 74.82L20.84 78.46H18.96L16.76 74.82L18.96 71.16H20.84ZM36.7953 67V81H34.9553V70.06L30.3753 77.68H30.1353L25.5553 70.08V81H23.6953V67H25.7953L30.2553 74.4L34.6953 67H36.7953ZM40.8291 76.8C41.0024 77.6933 41.4091 78.3867 42.0491 78.88C42.7024 79.3733 43.5024 79.62 44.4491 79.62C45.7691 79.62 46.7291 79.1333 47.3291 78.16L48.8091 79C47.8357 80.5067 46.3691 81.26 44.4091 81.26C42.8224 81.26 41.5291 80.7667 40.5291 79.78C39.5424 78.78 39.0491 77.52 39.0491 76C39.0491 74.4933 39.5357 73.24 40.5091 72.24C41.4824 71.24 42.7424 70.74 44.2891 70.74C45.7557 70.74 46.9491 71.26 47.8691 72.3C48.8024 73.3267 49.2691 74.5667 49.2691 76.02C49.2691 76.2733 49.2491 76.5333 49.2091 76.8H40.8291ZM44.2891 72.38C43.3557 72.38 42.5824 72.6467 41.9691 73.18C41.3557 73.7 40.9757 74.4 40.8291 75.28H47.5091C47.3624 74.3333 46.9891 73.6133 46.3891 73.12C45.7891 72.6267 45.0891 72.38 44.2891 72.38ZM58.1892 71H59.9292V81H58.1892V76.82H53.0092V81H51.2692V71H53.0092V75.16H58.1892V71ZM63.7978 76.8C63.9711 77.6933 64.3778 78.3867 65.0178 78.88C65.6711 79.3733 66.4711 79.62 67.4178 79.62C68.7378 79.62 69.6978 79.1333 70.2978 78.16L71.7778 79C70.8045 80.5067 69.3378 81.26 67.3778 81.26C65.7911 81.26 64.4978 80.7667 63.4978 79.78C62.5111 78.78 62.0178 77.52 62.0178 76C62.0178 74.4933 62.5045 73.24 63.4778 72.24C64.4511 71.24 65.7111 70.74 67.2578 70.74C68.7245 70.74 69.9178 71.26 70.8378 72.3C71.7711 73.3267 72.2378 74.5667 72.2378 76.02C72.2378 76.2733 72.2178 76.5333 72.1778 76.8H63.7978ZM67.2578 72.38C66.3245 72.38 65.5511 72.6467 64.9378 73.18C64.3245 73.7 63.9445 74.4 63.7978 75.28H70.4778C70.3311 74.3333 69.9578 73.6133 69.3578 73.12C68.7578 72.6267 68.0578 72.38 67.2578 72.38ZM82.4473 79.34H83.8273V83.68H82.1073V81H74.6073V83.68H72.8873V79.34H74.1073C74.7473 78.46 75.0673 77.2267 75.0673 75.64V71H82.4473V79.34ZM76.0873 79.34H80.7273V72.62H76.7873V75.64C76.7873 77.1333 76.554 78.3667 76.0873 79.34ZM98.0028 81H95.9628L92.2228 76.26V81H90.5028V76.26L86.7628 81H84.7428L88.9228 75.84L84.9428 71H86.9628L90.5028 75.42V71H92.2228V75.42L95.7628 71H97.8028L93.8028 75.84L98.0028 81ZM100.087 76.8C100.26 77.6933 100.667 78.3867 101.307 78.88C101.96 79.3733 102.76 79.62 103.707 79.62C105.027 79.62 105.987 79.1333 106.587 78.16L108.067 79C107.094 80.5067 105.627 81.26 103.667 81.26C102.08 81.26 100.787 80.7667 99.7869 79.78C98.8002 78.78 98.3069 77.52 98.3069 76C98.3069 74.4933 98.7935 73.24 99.7669 72.24C100.74 71.24 102 70.74 103.547 70.74C105.014 70.74 106.207 71.26 107.127 72.3C108.06 73.3267 108.527 74.5667 108.527 76.02C108.527 76.2733 108.507 76.5333 108.467 76.8H100.087ZM103.547 72.38C102.614 72.38 101.84 72.6467 101.227 73.18C100.614 73.7 100.234 74.4 100.087 75.28H106.767C106.62 74.3333 106.247 73.6133 105.647 73.12C105.047 72.6267 104.347 72.38 103.547 72.38ZM116.047 70.74C117.447 70.74 118.64 71.2533 119.627 72.28C120.614 73.2933 121.107 74.5333 121.107 76C121.107 77.4667 120.614 78.7133 119.627 79.74C118.64 80.7533 117.447 81.26 116.047 81.26C114.394 81.26 113.134 80.6 112.267 79.28V85H110.527V71H112.267V72.72C113.134 71.4 114.394 70.74 116.047 70.74ZM115.827 79.58C116.827 79.58 117.667 79.24 118.347 78.56C119.027 77.8667 119.367 77.0133 119.367 76C119.367 74.9867 119.027 74.14 118.347 73.46C117.667 72.7667 116.827 72.42 115.827 72.42C114.814 72.42 113.967 72.7667 113.287 73.46C112.607 74.14 112.267 74.9867 112.267 76C112.267 77.0133 112.607 77.8667 113.287 78.56C113.967 79.24 114.814 79.58 115.827 79.58ZM136.643 81H134.483L129.923 76.26V81H128.183V71H129.923V75.42L134.243 71H136.483L131.703 75.84L136.643 81ZM146.601 71V81H144.861V72.68H140.921V76.76C140.921 78.4 140.588 79.5467 139.921 80.2C139.268 80.84 138.341 81.1067 137.141 81V79.36C137.821 79.4533 138.328 79.3067 138.661 78.92C139.008 78.52 139.181 77.7867 139.181 76.72V71H146.601ZM156.218 71H158.078L153.998 81.62C153.571 82.7533 152.971 83.6133 152.198 84.2C151.425 84.8 150.545 85.0667 149.558 85V83.38C150.785 83.4733 151.685 82.8067 152.258 81.38L152.418 81.02L148.078 71H149.918L153.338 78.84L156.218 71ZM163.68 81.26C162.2 81.26 160.98 80.7733 160.02 79.8C159.06 78.8267 158.58 77.5733 158.58 76.04C158.58 74.3333 158.827 73.02 159.32 72.1C159.827 71.18 160.854 70.3467 162.4 69.6C162.68 69.4667 163.06 69.2933 163.54 69.08C164.034 68.8667 164.394 68.7067 164.62 68.6C164.847 68.48 165.1 68.3267 165.38 68.14C165.66 67.94 165.867 67.7267 166 67.5C166.147 67.26 166.254 66.9867 166.32 66.68L167.72 67.48C167.68 67.6933 167.627 67.8933 167.56 68.08C167.494 68.2533 167.394 68.4267 167.26 68.6C167.14 68.76 167.034 68.9 166.94 69.02C166.847 69.14 166.687 69.2733 166.46 69.42C166.247 69.5533 166.087 69.6533 165.98 69.72C165.887 69.7867 165.694 69.8867 165.4 70.02C165.12 70.1533 164.927 70.2467 164.82 70.3C164.727 70.34 164.507 70.4333 164.16 70.58C163.814 70.7133 163.6 70.8 163.52 70.84C162.614 71.2267 161.947 71.62 161.52 72.02C161.107 72.42 160.807 72.9267 160.62 73.54C161.047 73.0067 161.58 72.6133 162.22 72.36C162.86 72.1067 163.5 71.98 164.14 71.98C165.394 71.98 166.454 72.4067 167.32 73.26C168.2 74.1133 168.64 75.2133 168.64 76.56C168.64 77.92 168.174 79.0467 167.24 79.94C166.307 80.82 165.12 81.26 163.68 81.26ZM161.34 78.7C161.967 79.2867 162.747 79.58 163.68 79.58C164.614 79.58 165.38 79.2933 165.98 78.72C166.594 78.1467 166.9 77.4267 166.9 76.56C166.9 75.6667 166.607 74.94 166.02 74.38C165.447 73.8067 164.687 73.52 163.74 73.52C162.887 73.52 162.114 73.7933 161.42 74.34C160.74 74.8733 160.4 75.58 160.4 76.46C160.4 77.3667 160.714 78.1133 161.34 78.7ZM178.768 71H180.508V81H178.768V79.28C177.901 80.6 176.641 81.26 174.988 81.26C173.588 81.26 172.395 80.7533 171.408 79.74C170.421 78.7133 169.928 77.4667 169.928 76C169.928 74.5333 170.421 73.2933 171.408 72.28C172.395 71.2533 173.588 70.74 174.988 70.74C176.641 70.74 177.901 71.4 178.768 72.72V71ZM175.208 79.58C176.221 79.58 177.068 79.24 177.748 78.56C178.428 77.8667 178.768 77.0133 178.768 76C178.768 74.9867 178.428 74.14 177.748 73.46C177.068 72.7667 176.221 72.42 175.208 72.42C174.208 72.42 173.368 72.7667 172.688 73.46C172.008 74.14 171.668 74.9867 171.668 76C171.668 77.0133 172.008 77.8667 172.688 78.56C173.368 79.24 174.208 79.58 175.208 79.58ZM185.064 71.16L187.264 74.82L185.064 78.46H183.184L185.384 74.82L183.184 71.16H185.064ZM188.464 71.16L190.664 74.82L188.464 78.46H186.584L188.784 74.82L186.584 71.16H188.464Z" fill="white"/>
<path d="M16.62 113.2C17.4973 113.2 18.23 113.494 18.818 114.082C19.406 114.67 19.7 115.403 19.7 116.28C19.7 117.157 19.406 117.89 18.818 118.478C18.23 119.066 17.4973 119.36 16.62 119.36H14.1V123H13.12V113.2H16.62ZM16.62 118.436C17.2267 118.436 17.726 118.235 18.118 117.834C18.5193 117.423 18.72 116.905 18.72 116.28C18.72 115.655 18.5193 115.141 18.118 114.74C17.726 114.329 17.2267 114.124 16.62 114.124H14.1V118.436H16.62ZM23.9113 115.832C24.9473 115.832 25.7826 116.201 26.4173 116.938C27.0613 117.666 27.3833 118.529 27.3833 119.528C27.3833 119.631 27.3739 119.775 27.3553 119.962H21.2093C21.3026 120.671 21.6013 121.236 22.1053 121.656C22.6186 122.067 23.2486 122.272 23.9953 122.272C24.5273 122.272 24.9846 122.165 25.3673 121.95C25.7593 121.726 26.0533 121.437 26.2493 121.082L27.0613 121.558C26.7533 122.053 26.3333 122.445 25.8013 122.734C25.2693 123.023 24.6626 123.168 23.9813 123.168C22.8799 123.168 21.9839 122.823 21.2933 122.132C20.6026 121.441 20.2573 120.564 20.2573 119.5C20.2573 118.455 20.5979 117.582 21.2793 116.882C21.9606 116.182 22.8379 115.832 23.9113 115.832ZM23.9113 116.728C23.1833 116.728 22.5719 116.947 22.0773 117.386C21.5919 117.815 21.3026 118.375 21.2093 119.066H26.4313C26.3379 118.329 26.0533 117.755 25.5773 117.344C25.1013 116.933 24.5459 116.728 23.9113 116.728ZM36.6052 123H35.4852L32.6292 119.626V123H31.7052V119.626L28.8492 123H27.7292L30.8652 119.36L27.8692 116H28.9892L31.7052 119.108V116H32.6292V119.108L35.3452 116H36.4652L33.4692 119.36L36.6052 123ZM42.9588 116H43.7428V123H42.8188V117.61L38.6468 123H37.8628V116H38.7868V121.39L42.9588 116ZM52.5568 116V123H51.6328V117.414L49.1828 121.39H49.0708L46.6208 117.414V123H45.6968V116H46.7608L49.1268 119.836L51.4928 116H52.5568ZM63.8952 116V123H62.9712V116.896H58.9392V123H58.0152V116H63.8952ZM71.7151 122.118C71.0058 122.818 70.1378 123.168 69.1111 123.168C68.0845 123.168 67.2118 122.818 66.4931 122.118C65.7838 121.409 65.4291 120.536 65.4291 119.5C65.4291 118.464 65.7838 117.596 66.4931 116.896C67.2118 116.187 68.0845 115.832 69.1111 115.832C70.1378 115.832 71.0058 116.187 71.7151 116.896C72.4338 117.596 72.7931 118.464 72.7931 119.5C72.7931 120.536 72.4338 121.409 71.7151 122.118ZM67.1511 121.474C67.6831 122.006 68.3365 122.272 69.1111 122.272C69.8858 122.272 70.5391 122.006 71.0711 121.474C71.6031 120.933 71.8691 120.275 71.8691 119.5C71.8691 118.725 71.6031 118.072 71.0711 117.54C70.5391 116.999 69.8858 116.728 69.1111 116.728C68.3365 116.728 67.6831 116.999 67.1511 117.54C66.6191 118.072 66.3531 118.725 66.3531 119.5C66.3531 120.275 66.6191 120.933 67.1511 121.474ZM77.6779 119.402C78.4899 119.71 78.8959 120.27 78.8959 121.082C78.8959 121.661 78.6673 122.155 78.2099 122.566C77.7619 122.967 77.1179 123.168 76.2779 123.168C74.8686 123.168 73.9446 122.608 73.5059 121.488L74.2899 121.026C74.5793 121.857 75.2419 122.272 76.2779 122.272C76.8193 122.272 77.2346 122.155 77.5239 121.922C77.8226 121.689 77.9719 121.39 77.9719 121.026C77.9719 120.699 77.8506 120.433 77.6079 120.228C77.3653 120.023 77.0386 119.92 76.6279 119.92H75.6059V119.024H76.3479C76.7493 119.024 77.0619 118.926 77.2859 118.73C77.5193 118.525 77.6359 118.245 77.6359 117.89C77.6359 117.554 77.5006 117.279 77.2299 117.064C76.9593 116.84 76.5953 116.728 76.1379 116.728C75.2606 116.728 74.6773 117.078 74.3879 117.778L73.6179 117.33C74.0846 116.331 74.9246 115.832 76.1379 115.832C76.8753 115.832 77.4633 116.028 77.9019 116.42C78.3406 116.803 78.5599 117.274 78.5599 117.834C78.5599 118.553 78.2659 119.075 77.6779 119.402ZM84.7523 119.402C85.5176 119.682 85.9003 120.228 85.9003 121.04C85.9003 121.609 85.709 122.081 85.3263 122.454C84.953 122.818 84.4116 123 83.7023 123H80.3003V116H83.4223C84.1036 116 84.631 116.177 85.0043 116.532C85.3776 116.877 85.5643 117.325 85.5643 117.876C85.5643 118.576 85.2936 119.085 84.7523 119.402ZM83.4223 116.896H81.2243V119.024H83.4223C84.2343 119.024 84.6403 118.66 84.6403 117.932C84.6403 117.605 84.533 117.353 84.3183 117.176C84.113 116.989 83.8143 116.896 83.4223 116.896ZM83.7023 122.104C84.113 122.104 84.4256 122.006 84.6403 121.81C84.8643 121.614 84.9763 121.339 84.9763 120.984C84.9763 120.657 84.8643 120.401 84.6403 120.214C84.4256 120.018 84.113 119.92 83.7023 119.92H81.2243V122.104H83.7023ZM93.1663 122.118C92.457 122.818 91.589 123.168 90.5623 123.168C89.5356 123.168 88.663 122.818 87.9443 122.118C87.235 121.409 86.8803 120.536 86.8803 119.5C86.8803 118.464 87.235 117.596 87.9443 116.896C88.663 116.187 89.5356 115.832 90.5623 115.832C91.589 115.832 92.457 116.187 93.1663 116.896C93.885 117.596 94.2443 118.464 94.2443 119.5C94.2443 120.536 93.885 121.409 93.1663 122.118ZM88.6023 121.474C89.1343 122.006 89.7876 122.272 90.5623 122.272C91.337 122.272 91.9903 122.006 92.5223 121.474C93.0543 120.933 93.3203 120.275 93.3203 119.5C93.3203 118.725 93.0543 118.072 92.5223 117.54C91.9903 116.999 91.337 116.728 90.5623 116.728C89.7876 116.728 89.1343 116.999 88.6023 117.54C88.0703 118.072 87.8043 118.725 87.8043 119.5C87.8043 120.275 88.0703 120.933 88.6023 121.474ZM101.257 116V123H100.333V116.896H97.1691V120.018C97.1691 121.185 96.9451 121.987 96.4971 122.426C96.0584 122.865 95.4518 123.056 94.6771 123V122.132C95.2091 122.188 95.6011 122.062 95.8531 121.754C96.1144 121.446 96.2451 120.867 96.2451 120.018V116H101.257ZM108.254 116V123H107.33V120.312H106.126L103.97 123H102.794L105.006 120.284C104.446 120.2 103.984 119.967 103.62 119.584C103.256 119.201 103.074 118.73 103.074 118.17C103.074 117.535 103.298 117.017 103.746 116.616C104.204 116.205 104.759 116 105.412 116H108.254ZM105.412 119.444H107.33V116.896H105.412C105.02 116.896 104.684 117.013 104.404 117.246C104.134 117.479 103.998 117.787 103.998 118.17C103.998 118.553 104.134 118.861 104.404 119.094C104.684 119.327 105.02 119.444 105.412 119.444ZM113.448 115.832C114.484 115.832 115.32 116.201 115.954 116.938C116.598 117.666 116.92 118.529 116.92 119.528C116.92 119.631 116.911 119.775 116.892 119.962H110.746C110.84 120.671 111.138 121.236 111.642 121.656C112.156 122.067 112.786 122.272 113.532 122.272C114.064 122.272 114.522 122.165 114.904 121.95C115.296 121.726 115.59 121.437 115.786 121.082L116.598 121.558C116.29 122.053 115.87 122.445 115.338 122.734C114.806 123.023 114.2 123.168 113.518 123.168C112.417 123.168 111.521 122.823 110.83 122.132C110.14 121.441 109.794 120.564 109.794 119.5C109.794 118.455 110.135 117.582 110.816 116.882C111.498 116.182 112.375 115.832 113.448 115.832ZM113.448 116.728C112.72 116.728 112.109 116.947 111.614 117.386C111.129 117.815 110.84 118.375 110.746 119.066H115.968C115.875 118.329 115.59 117.755 115.114 117.344C114.638 116.933 114.083 116.728 113.448 116.728ZM123.157 116V116.896H120.679V123H119.755V116.896H117.277V116H123.157ZM132.823 116H133.803L130.807 123.644C130.536 124.335 130.149 124.876 129.645 125.268C129.15 125.669 128.595 125.847 127.979 125.8V124.932C128.819 125.025 129.458 124.54 129.897 123.476L130.079 123.042L126.943 116H127.923L130.555 121.866L132.823 116ZM140.799 116V123H139.875V116.896H135.843V123H134.919V116H140.799ZM146.505 115.832C147.504 115.832 148.353 116.187 149.053 116.896C149.763 117.605 150.117 118.473 150.117 119.5C150.117 120.527 149.763 121.395 149.053 122.104C148.353 122.813 147.504 123.168 146.505 123.168C145.264 123.168 144.321 122.655 143.677 121.628V125.8H142.753V116H143.677V117.372C144.321 116.345 145.264 115.832 146.505 115.832ZM144.475 121.474C145.007 122.006 145.661 122.272 146.435 122.272C147.21 122.272 147.863 122.006 148.395 121.474C148.927 120.933 149.193 120.275 149.193 119.5C149.193 118.725 148.927 118.072 148.395 117.54C147.863 116.999 147.21 116.728 146.435 116.728C145.661 116.728 145.007 116.999 144.475 117.54C143.943 118.072 143.677 118.725 143.677 119.5C143.677 120.275 143.943 120.933 144.475 121.474ZM157.674 116H158.598V123H157.674V121.628C157.03 122.655 156.087 123.168 154.846 123.168C153.847 123.168 152.993 122.813 152.284 122.104C151.584 121.395 151.234 120.527 151.234 119.5C151.234 118.473 151.584 117.605 152.284 116.896C152.993 116.187 153.847 115.832 154.846 115.832C156.087 115.832 157.03 116.345 157.674 117.372V116ZM152.956 121.474C153.488 122.006 154.141 122.272 154.916 122.272C155.69 122.272 156.344 122.006 156.876 121.474C157.408 120.933 157.674 120.275 157.674 119.5C157.674 118.725 157.408 118.072 156.876 117.54C156.344 116.999 155.69 116.728 154.916 116.728C154.141 116.728 153.488 116.999 152.956 117.54C152.424 118.072 152.158 118.725 152.158 119.5C152.158 120.275 152.424 120.933 152.956 121.474ZM165.006 119.402C165.772 119.682 166.154 120.228 166.154 121.04C166.154 121.609 165.963 122.081 165.58 122.454C165.207 122.818 164.666 123 163.956 123H160.554V116H163.676C164.358 116 164.885 116.177 165.258 116.532C165.632 116.877 165.818 117.325 165.818 117.876C165.818 118.576 165.548 119.085 165.006 119.402ZM163.676 116.896H161.478V119.024H163.676C164.488 119.024 164.894 118.66 164.894 117.932C164.894 117.605 164.787 117.353 164.572 117.176C164.367 116.989 164.068 116.896 163.676 116.896ZM163.956 122.104C164.367 122.104 164.68 122.006 164.894 121.81C165.118 121.614 165.23 121.339 165.23 120.984C165.23 120.657 165.118 120.401 164.894 120.214C164.68 120.018 164.367 119.92 163.956 119.92H161.478V122.104H163.956ZM173.021 116V123H172.097V116.896H168.933V120.018C168.933 121.185 168.709 121.987 168.261 122.426C167.822 122.865 167.215 123.056 166.441 123V122.132C166.973 122.188 167.365 122.062 167.617 121.754C167.878 121.446 168.009 120.867 168.009 120.018V116H173.021ZM180.018 116V123H179.094V120.312H177.89L175.734 123H174.558L176.77 120.284C176.21 120.2 175.748 119.967 175.384 119.584C175.02 119.201 174.838 118.73 174.838 118.17C174.838 117.535 175.062 117.017 175.51 116.616C175.967 116.205 176.523 116 177.176 116H180.018ZM177.176 119.444H179.094V116.896H177.176C176.784 116.896 176.448 117.013 176.168 117.246C175.897 117.479 175.762 117.787 175.762 118.17C175.762 118.553 175.897 118.861 176.168 119.094C176.448 119.327 176.784 119.444 177.176 119.444ZM187.018 116V116.896H184.54V123H183.616V116.896H181.138V116H187.018ZM190.986 118.66C191.639 118.66 192.19 118.865 192.638 119.276C193.095 119.677 193.324 120.195 193.324 120.83C193.324 121.465 193.095 121.987 192.638 122.398C192.19 122.799 191.639 123 190.986 123H188.144V116H189.068V118.66H190.986ZM190.986 122.104C191.378 122.104 191.709 121.987 191.98 121.754C192.26 121.521 192.4 121.213 192.4 120.83C192.4 120.447 192.26 120.139 191.98 119.906C191.709 119.673 191.378 119.556 190.986 119.556H189.068V122.104H190.986ZM19.812 133.008C20.484 133.689 20.82 134.52 20.82 135.5C20.82 136.48 20.484 137.311 19.812 137.992C19.14 138.673 18.2533 139.061 17.152 139.154V141.8H16.228V139.154C15.1267 139.061 14.24 138.673 13.568 137.992C12.896 137.311 12.56 136.48 12.56 135.5C12.56 134.52 12.896 133.689 13.568 133.008C14.24 132.327 15.1267 131.939 16.228 131.846V129.2H17.152V131.846C18.2533 131.939 19.14 132.327 19.812 133.008ZM14.226 133.652C13.7313 134.156 13.484 134.772 13.484 135.5C13.484 136.228 13.7313 136.849 14.226 137.362C14.7207 137.866 15.388 138.16 16.228 138.244V132.756C15.388 132.84 14.7207 133.139 14.226 133.652ZM17.152 138.244C17.992 138.16 18.6593 137.866 19.154 137.362C19.6487 136.849 19.896 136.228 19.896 135.5C19.896 134.772 19.6487 134.156 19.154 133.652C18.6593 133.139 17.992 132.84 17.152 132.756V138.244ZM27.1255 132H28.1055L25.1095 139.644C24.8388 140.335 24.4515 140.876 23.9475 141.268C23.4528 141.669 22.8975 141.847 22.2815 141.8V140.932C23.1215 141.025 23.7608 140.54 24.1995 139.476L24.3815 139.042L21.2455 132H22.2255L24.8575 137.866L27.1255 132ZM34.2622 132V132.896H31.7842V139H30.8602V132.896H28.3822V132H34.2622ZM38.2228 139.168C37.2148 139.168 36.3748 138.837 35.7028 138.174C35.0308 137.502 34.6948 136.634 34.6948 135.57C34.6948 134.375 34.8721 133.461 35.2268 132.826C35.5814 132.182 36.3001 131.599 37.3828 131.076C37.5881 130.973 37.8588 130.852 38.1948 130.712C38.5401 130.572 38.7968 130.46 38.9648 130.376C39.1421 130.292 39.3334 130.185 39.5388 130.054C39.7441 129.914 39.8981 129.76 40.0008 129.592C40.1034 129.424 40.1688 129.223 40.1968 128.99L40.9248 129.41C40.8874 129.634 40.8128 129.844 40.7008 130.04C40.5888 130.236 40.4721 130.395 40.3508 130.516C40.2388 130.637 40.0568 130.773 39.8048 130.922C39.5621 131.062 39.3708 131.165 39.2308 131.23C39.1001 131.286 38.8668 131.384 38.5308 131.524C38.2041 131.664 37.9848 131.757 37.8728 131.804C37.2194 132.084 36.7388 132.378 36.4308 132.686C36.1228 132.985 35.9034 133.377 35.7728 133.862C36.0901 133.442 36.4914 133.134 36.9768 132.938C37.4714 132.733 37.9521 132.63 38.4188 132.63C39.3521 132.63 40.1221 132.938 40.7288 133.554C41.3448 134.161 41.6528 134.94 41.6528 135.892C41.6528 136.835 41.3261 137.619 40.6728 138.244C40.0288 138.86 39.2121 139.168 38.2228 139.168ZM38.2228 138.244C38.9508 138.244 39.5481 138.025 40.0148 137.586C40.4908 137.138 40.7288 136.573 40.7288 135.892C40.7288 135.201 40.5048 134.637 40.0568 134.198C39.6181 133.75 39.0301 133.526 38.2928 133.526C37.6301 133.526 37.0281 133.736 36.4868 134.156C35.9454 134.567 35.6748 135.117 35.6748 135.808C35.6748 136.517 35.9174 137.101 36.4028 137.558C36.8974 138.015 37.5041 138.244 38.2228 138.244ZM48.9241 138.118C48.2148 138.818 47.3468 139.168 46.3201 139.168C45.2935 139.168 44.4208 138.818 43.7021 138.118C42.9928 137.409 42.6381 136.536 42.6381 135.5C42.6381 134.464 42.9928 133.596 43.7021 132.896C44.4208 132.187 45.2935 131.832 46.3201 131.832C47.3468 131.832 48.2148 132.187 48.9241 132.896C49.6428 133.596 50.0021 134.464 50.0021 135.5C50.0021 136.536 49.6428 137.409 48.9241 138.118ZM44.3601 137.474C44.8921 138.006 45.5455 138.272 46.3201 138.272C47.0948 138.272 47.7481 138.006 48.2801 137.474C48.8121 136.933 49.0781 136.275 49.0781 135.5C49.0781 134.725 48.8121 134.072 48.2801 133.54C47.7481 132.999 47.0948 132.728 46.3201 132.728C45.5455 132.728 44.8921 132.999 44.3601 133.54C43.8281 134.072 43.5621 134.725 43.5621 135.5C43.5621 136.275 43.8281 136.933 44.3601 137.474ZM57.0149 132V139H56.0909V132.896H52.9269V136.018C52.9269 137.185 52.7029 137.987 52.2549 138.426C51.8163 138.865 51.2096 139.056 50.4349 139V138.132C50.9669 138.188 51.3589 138.062 51.6109 137.754C51.8723 137.446 52.0029 136.867 52.0029 136.018V132H57.0149ZM61.8142 134.66C62.4675 134.66 63.0182 134.865 63.4662 135.276C63.9235 135.677 64.1522 136.195 64.1522 136.83C64.1522 137.465 63.9235 137.987 63.4662 138.398C63.0182 138.799 62.4675 139 61.8142 139H58.9722V132H59.8962V134.66H61.8142ZM61.8142 138.104C62.2062 138.104 62.5375 137.987 62.8082 137.754C63.0882 137.521 63.2282 137.213 63.2282 136.83C63.2282 136.447 63.0882 136.139 62.8082 135.906C62.5375 135.673 62.2062 135.556 61.8142 135.556H59.8962V138.104H61.8142ZM70.5044 132H71.4284V139H70.5044V135.948H66.4724V139H65.5484V132H66.4724V135.052H70.5044V132ZM76.2243 134.66C76.8777 134.66 77.4283 134.865 77.8763 135.276C78.3337 135.677 78.5623 136.195 78.5623 136.83C78.5623 137.465 78.3337 137.987 77.8763 138.398C77.4283 138.799 76.8777 139 76.2243 139H73.3823V132H74.3063V134.66H76.2243ZM79.5423 132H80.4663V139H79.5423V132ZM76.2243 138.104C76.6163 138.104 76.9477 137.987 77.2183 137.754C77.4983 137.521 77.6383 137.213 77.6383 136.83C77.6383 136.447 77.4983 136.139 77.2183 135.906C76.9477 135.673 76.6163 135.556 76.2243 135.556H74.3063V138.104H76.2243ZM89.2931 132V139H88.3691V133.414L85.9191 137.39H85.8071L83.3571 133.414V139H82.4331V132H83.4971L85.8631 135.836L88.2291 132H89.2931ZM100.407 139H99.1755L95.6755 135.626V139H94.7515V132H95.6755V135.094L99.0075 132H100.267L96.6555 135.36L100.407 139ZM107.409 132V139H106.485V132.896H103.321V136.018C103.321 137.185 103.097 137.987 102.649 138.426C102.211 138.865 101.604 139.056 100.829 139V138.132C101.361 138.188 101.753 138.062 102.005 137.754C102.267 137.446 102.397 136.867 102.397 136.018V132H107.409ZM114.407 132H115.387L112.391 139.644C112.12 140.335 111.733 140.876 111.229 141.268C110.734 141.669 110.179 141.847 109.563 141.8V140.932C110.403 141.025 111.042 140.54 111.481 139.476L111.663 139.042L108.527 132H109.507L112.139 137.866L114.407 132ZM119.338 139.168C118.33 139.168 117.49 138.837 116.818 138.174C116.146 137.502 115.81 136.634 115.81 135.57C115.81 134.375 115.987 133.461 116.342 132.826C116.697 132.182 117.415 131.599 118.498 131.076C118.703 130.973 118.974 130.852 119.31 130.712C119.655 130.572 119.912 130.46 120.08 130.376C120.257 130.292 120.449 130.185 120.654 130.054C120.859 129.914 121.013 129.76 121.116 129.592C121.219 129.424 121.284 129.223 121.312 128.99L122.04 129.41C122.003 129.634 121.928 129.844 121.816 130.04C121.704 130.236 121.587 130.395 121.466 130.516C121.354 130.637 121.172 130.773 120.92 130.922C120.677 131.062 120.486 131.165 120.346 131.23C120.215 131.286 119.982 131.384 119.646 131.524C119.319 131.664 119.1 131.757 118.988 131.804C118.335 132.084 117.854 132.378 117.546 132.686C117.238 132.985 117.019 133.377 116.888 133.862C117.205 133.442 117.607 133.134 118.092 132.938C118.587 132.733 119.067 132.63 119.534 132.63C120.467 132.63 121.237 132.938 121.844 133.554C122.46 134.161 122.768 134.94 122.768 135.892C122.768 136.835 122.441 137.619 121.788 138.244C121.144 138.86 120.327 139.168 119.338 139.168ZM119.338 138.244C120.066 138.244 120.663 138.025 121.13 137.586C121.606 137.138 121.844 136.573 121.844 135.892C121.844 135.201 121.62 134.637 121.172 134.198C120.733 133.75 120.145 133.526 119.408 133.526C118.745 133.526 118.143 133.736 117.602 134.156C117.061 134.567 116.79 135.117 116.79 135.808C116.79 136.517 117.033 137.101 117.518 137.558C118.013 138.015 118.619 138.244 119.338 138.244ZM130.039 138.118C129.33 138.818 128.462 139.168 127.435 139.168C126.409 139.168 125.536 138.818 124.817 138.118C124.108 137.409 123.753 136.536 123.753 135.5C123.753 134.464 124.108 133.596 124.817 132.896C125.536 132.187 126.409 131.832 127.435 131.832C128.462 131.832 129.33 132.187 130.039 132.896C130.758 133.596 131.117 134.464 131.117 135.5C131.117 136.536 130.758 137.409 130.039 138.118ZM125.475 137.474C126.007 138.006 126.661 138.272 127.435 138.272C128.21 138.272 128.863 138.006 129.395 137.474C129.927 136.933 130.193 136.275 130.193 135.5C130.193 134.725 129.927 134.072 129.395 133.54C128.863 132.999 128.21 132.728 127.435 132.728C126.661 132.728 126.007 132.999 125.475 133.54C124.943 134.072 124.677 134.725 124.677 135.5C124.677 136.275 124.943 136.933 125.475 137.474ZM139.524 132V139H138.6V133.414L136.15 137.39H136.038L133.588 133.414V139H132.664V132H133.728L136.094 135.836L138.46 132H139.524ZM142.658 138.916C142.509 139.065 142.327 139.14 142.112 139.14C141.897 139.14 141.715 139.065 141.566 138.916C141.417 138.767 141.342 138.585 141.342 138.37C141.342 138.155 141.417 137.973 141.566 137.824C141.715 137.675 141.897 137.6 142.112 137.6C142.327 137.6 142.509 137.675 142.658 137.824C142.807 137.973 142.882 138.155 142.882 138.37C142.882 138.585 142.807 138.767 142.658 138.916Z" fill="white"/>
</svg>
