<svg width="206" height="178" viewBox="0 0 206 178" fill="none" xmlns="http://www.w3.org/2000/svg">
<g filter="url(#filter0_b_1410_5831)">
<rect width="206" height="178" rx="15" fill="#0C0C0C" fill-opacity="0.3"/>
<rect x="0.5" y="0.5" width="205" height="177" rx="14.5" stroke="white" stroke-opacity="0.3"/>
<path d="M18.58 29C19.8733 29 20.9467 29.4333 21.8 30.3C22.6667 31.1533 23.1 32.22 23.1 33.5C23.1 34.7667 22.6667 35.8333 21.8 36.7C20.9467 37.5667 19.8733 38 18.58 38H15.36V43H13.5V29H18.58ZM18.58 36.26C19.3533 36.26 19.9933 36 20.5 35.48C21.0067 34.9467 21.26 34.2867 21.26 33.5C21.26 32.7 21.0067 32.04 20.5 31.52C19.9933 31 19.3533 30.74 18.58 30.74H15.36V36.26H18.58ZM25.5752 38.8C25.7485 39.6933 26.1552 40.3867 26.7952 40.88C27.4485 41.3733 28.2485 41.62 29.1952 41.62C30.5152 41.62 31.4752 41.1333 32.0752 40.16L33.5552 41C32.5818 42.5067 31.1152 43.26 29.1552 43.26C27.5685 43.26 26.2752 42.7667 25.2752 41.78C24.2885 40.78 23.7952 39.52 23.7952 38C23.7952 36.4933 24.2818 35.24 25.2552 34.24C26.2285 33.24 27.4885 32.74 29.0352 32.74C30.5018 32.74 31.6952 33.26 32.6152 34.3C33.5485 35.3267 34.0152 36.5667 34.0152 38.02C34.0152 38.2733 33.9952 38.5333 33.9552 38.8H25.5752ZM29.0352 34.38C28.1018 34.38 27.3285 34.6467 26.7152 35.18C26.1018 35.7 25.7218 36.4 25.5752 37.28H32.2552C32.1085 36.3333 31.7352 35.6133 31.1352 35.12C30.5352 34.6267 29.8352 34.38 29.0352 34.38ZM47.6903 43H45.6503L41.9103 38.26V43H40.1903V38.26L36.4503 43H34.4303L38.6103 37.84L34.6303 33H36.6503L40.1903 37.42V33H41.9103V37.42L45.4503 33H47.4903L43.4903 37.84L47.6903 43ZM56.6152 33H58.0152V43H56.2952V35.98L50.7552 43H49.3552V33H51.0752V40.02L56.6152 33ZM70.6638 33V43H68.9638V35.74L65.7838 40.86H65.5638L62.3838 35.74V43H60.6637V33H62.5238L65.6638 38.06L68.8038 33H70.6638ZM17.44 57.16L15.24 60.82L17.44 64.46H15.56L13.36 60.82L15.56 57.16H17.44ZM20.84 57.16L18.64 60.82L20.84 64.46H18.96L16.76 60.82L18.96 57.16H20.84ZM36.7953 53V67H34.9553V56.06L30.3753 63.68H30.1353L25.5553 56.08V67H23.6953V53H25.7953L30.2553 60.4L34.6953 53H36.7953ZM40.8291 62.8C41.0024 63.6933 41.4091 64.3867 42.0491 64.88C42.7024 65.3733 43.5024 65.62 44.4491 65.62C45.7691 65.62 46.7291 65.1333 47.3291 64.16L48.8091 65C47.8357 66.5067 46.3691 67.26 44.4091 67.26C42.8224 67.26 41.5291 66.7667 40.5291 65.78C39.5424 64.78 39.0491 63.52 39.0491 62C39.0491 60.4933 39.5357 59.24 40.5091 58.24C41.4824 57.24 42.7424 56.74 44.2891 56.74C45.7557 56.74 46.9491 57.26 47.8691 58.3C48.8024 59.3267 49.2691 60.5667 49.2691 62.02C49.2691 62.2733 49.2491 62.5333 49.2091 62.8H40.8291ZM44.2891 58.38C43.3557 58.38 42.5824 58.6467 41.9691 59.18C41.3557 59.7 40.9757 60.4 40.8291 61.28H47.5091C47.3624 60.3333 46.9891 59.6133 46.3891 59.12C45.7891 58.6267 45.0891 58.38 44.2891 58.38ZM58.1892 57H59.9292V67H58.1892V62.82H53.0092V67H51.2692V57H53.0092V61.16H58.1892V57ZM63.7978 62.8C63.9711 63.6933 64.3778 64.3867 65.0178 64.88C65.6711 65.3733 66.4711 65.62 67.4178 65.62C68.7378 65.62 69.6978 65.1333 70.2978 64.16L71.7778 65C70.8045 66.5067 69.3378 67.26 67.3778 67.26C65.7911 67.26 64.4978 66.7667 63.4978 65.78C62.5111 64.78 62.0178 63.52 62.0178 62C62.0178 60.4933 62.5045 59.24 63.4778 58.24C64.4511 57.24 65.7111 56.74 67.2578 56.74C68.7245 56.74 69.9178 57.26 70.8378 58.3C71.7711 59.3267 72.2378 60.5667 72.2378 62.02C72.2378 62.2733 72.2178 62.5333 72.1778 62.8H63.7978ZM67.2578 58.38C66.3245 58.38 65.5511 58.6467 64.9378 59.18C64.3245 59.7 63.9445 60.4 63.7978 61.28H70.4778C70.3311 60.3333 69.9578 59.6133 69.3578 59.12C68.7578 58.6267 68.0578 58.38 67.2578 58.38ZM82.4473 65.34H83.8273V69.68H82.1073V67H74.6073V69.68H72.8873V65.34H74.1073C74.7473 64.46 75.0673 63.2267 75.0673 61.64V57H82.4473V65.34ZM76.0873 65.34H80.7273V58.62H76.7873V61.64C76.7873 63.1333 76.554 64.3667 76.0873 65.34ZM98.0028 67H95.9628L92.2228 62.26V67H90.5028V62.26L86.7628 67H84.7428L88.9228 61.84L84.9428 57H86.9628L90.5028 61.42V57H92.2228V61.42L95.7628 57H97.8028L93.8028 61.84L98.0028 67ZM100.087 62.8C100.26 63.6933 100.667 64.3867 101.307 64.88C101.96 65.3733 102.76 65.62 103.707 65.62C105.027 65.62 105.987 65.1333 106.587 64.16L108.067 65C107.094 66.5067 105.627 67.26 103.667 67.26C102.08 67.26 100.787 66.7667 99.7869 65.78C98.8002 64.78 98.3069 63.52 98.3069 62C98.3069 60.4933 98.7935 59.24 99.7669 58.24C100.74 57.24 102 56.74 103.547 56.74C105.014 56.74 106.207 57.26 107.127 58.3C108.06 59.3267 108.527 60.5667 108.527 62.02C108.527 62.2733 108.507 62.5333 108.467 62.8H100.087ZM103.547 58.38C102.614 58.38 101.84 58.6467 101.227 59.18C100.614 59.7 100.234 60.4 100.087 61.28H106.767C106.62 60.3333 106.247 59.6133 105.647 59.12C105.047 58.6267 104.347 58.38 103.547 58.38ZM116.047 56.74C117.447 56.74 118.64 57.2533 119.627 58.28C120.614 59.2933 121.107 60.5333 121.107 62C121.107 63.4667 120.614 64.7133 119.627 65.74C118.64 66.7533 117.447 67.26 116.047 67.26C114.394 67.26 113.134 66.6 112.267 65.28V71H110.527V57H112.267V58.72C113.134 57.4 114.394 56.74 116.047 56.74ZM115.827 65.58C116.827 65.58 117.667 65.24 118.347 64.56C119.027 63.8667 119.367 63.0133 119.367 62C119.367 60.9867 119.027 60.14 118.347 59.46C117.667 58.7667 116.827 58.42 115.827 58.42C114.814 58.42 113.967 58.7667 113.287 59.46C112.607 60.14 112.267 60.9867 112.267 62C112.267 63.0133 112.607 63.8667 113.287 64.56C113.967 65.24 114.814 65.58 115.827 65.58ZM136.643 67H134.483L129.923 62.26V67H128.183V57H129.923V61.42L134.243 57H136.483L131.703 61.84L136.643 67ZM146.601 57V67H144.861V58.68H140.921V62.76C140.921 64.4 140.588 65.5467 139.921 66.2C139.268 66.84 138.341 67.1067 137.141 67V65.36C137.821 65.4533 138.328 65.3067 138.661 64.92C139.008 64.52 139.181 63.7867 139.181 62.72V57H146.601ZM156.218 57H158.078L153.998 67.62C153.571 68.7533 152.971 69.6133 152.198 70.2C151.425 70.8 150.545 71.0667 149.558 71V69.38C150.785 69.4733 151.685 68.8067 152.258 67.38L152.418 67.02L148.078 57H149.918L153.338 64.84L156.218 57ZM163.68 67.26C162.2 67.26 160.98 66.7733 160.02 65.8C159.06 64.8267 158.58 63.5733 158.58 62.04C158.58 60.3333 158.827 59.02 159.32 58.1C159.827 57.18 160.854 56.3467 162.4 55.6C162.68 55.4667 163.06 55.2933 163.54 55.08C164.034 54.8667 164.394 54.7067 164.62 54.6C164.847 54.48 165.1 54.3267 165.38 54.14C165.66 53.94 165.867 53.7267 166 53.5C166.147 53.26 166.254 52.9867 166.32 52.68L167.72 53.48C167.68 53.6933 167.627 53.8933 167.56 54.08C167.494 54.2533 167.394 54.4267 167.26 54.6C167.14 54.76 167.034 54.9 166.94 55.02C166.847 55.14 166.687 55.2733 166.46 55.42C166.247 55.5533 166.087 55.6533 165.98 55.72C165.887 55.7867 165.694 55.8867 165.4 56.02C165.12 56.1533 164.927 56.2467 164.82 56.3C164.727 56.34 164.507 56.4333 164.16 56.58C163.814 56.7133 163.6 56.8 163.52 56.84C162.614 57.2267 161.947 57.62 161.52 58.02C161.107 58.42 160.807 58.9267 160.62 59.54C161.047 59.0067 161.58 58.6133 162.22 58.36C162.86 58.1067 163.5 57.98 164.14 57.98C165.394 57.98 166.454 58.4067 167.32 59.26C168.2 60.1133 168.64 61.2133 168.64 62.56C168.64 63.92 168.174 65.0467 167.24 65.94C166.307 66.82 165.12 67.26 163.68 67.26ZM161.34 64.7C161.967 65.2867 162.747 65.58 163.68 65.58C164.614 65.58 165.38 65.2933 165.98 64.72C166.594 64.1467 166.9 63.4267 166.9 62.56C166.9 61.6667 166.607 60.94 166.02 60.38C165.447 59.8067 164.687 59.52 163.74 59.52C162.887 59.52 162.114 59.7933 161.42 60.34C160.74 60.8733 160.4 61.58 160.4 62.46C160.4 63.3667 160.714 64.1133 161.34 64.7ZM178.768 57H180.508V67H178.768V65.28C177.901 66.6 176.641 67.26 174.988 67.26C173.588 67.26 172.395 66.7533 171.408 65.74C170.421 64.7133 169.928 63.4667 169.928 62C169.928 60.5333 170.421 59.2933 171.408 58.28C172.395 57.2533 173.588 56.74 174.988 56.74C176.641 56.74 177.901 57.4 178.768 58.72V57ZM175.208 65.58C176.221 65.58 177.068 65.24 177.748 64.56C178.428 63.8667 178.768 63.0133 178.768 62C178.768 60.9867 178.428 60.14 177.748 59.46C177.068 58.7667 176.221 58.42 175.208 58.42C174.208 58.42 173.368 58.7667 172.688 59.46C172.008 60.14 171.668 60.9867 171.668 62C171.668 63.0133 172.008 63.8667 172.688 64.56C173.368 65.24 174.208 65.58 175.208 65.58ZM185.064 57.16L187.264 60.82L185.064 64.46H183.184L185.384 60.82L183.184 57.16H185.064ZM188.464 57.16L190.664 60.82L188.464 64.46H186.584L188.784 60.82L186.584 57.16H188.464Z" fill="white"/>
<path d="M16.62 99.2C17.4973 99.2 18.23 99.494 18.818 100.082C19.406 100.67 19.7 101.403 19.7 102.28C19.7 103.157 19.406 103.89 18.818 104.478C18.23 105.066 17.4973 105.36 16.62 105.36H14.1V109H13.12V99.2H16.62ZM16.62 104.436C17.2267 104.436 17.726 104.235 18.118 103.834C18.5193 103.423 18.72 102.905 18.72 102.28C18.72 101.655 18.5193 101.141 18.118 100.74C17.726 100.329 17.2267 100.124 16.62 100.124H14.1V104.436H16.62ZM23.9113 101.832C24.9473 101.832 25.7826 102.201 26.4173 102.938C27.0613 103.666 27.3833 104.529 27.3833 105.528C27.3833 105.631 27.3739 105.775 27.3553 105.962H21.2093C21.3026 106.671 21.6013 107.236 22.1053 107.656C22.6186 108.067 23.2486 108.272 23.9953 108.272C24.5273 108.272 24.9846 108.165 25.3673 107.95C25.7593 107.726 26.0533 107.437 26.2493 107.082L27.0613 107.558C26.7533 108.053 26.3333 108.445 25.8013 108.734C25.2693 109.023 24.6626 109.168 23.9813 109.168C22.8799 109.168 21.9839 108.823 21.2933 108.132C20.6026 107.441 20.2573 106.564 20.2573 105.5C20.2573 104.455 20.5979 103.582 21.2793 102.882C21.9606 102.182 22.8379 101.832 23.9113 101.832ZM23.9113 102.728C23.1833 102.728 22.5719 102.947 22.0773 103.386C21.5919 103.815 21.3026 104.375 21.2093 105.066H26.4313C26.3379 104.329 26.0533 103.755 25.5773 103.344C25.1013 102.933 24.5459 102.728 23.9113 102.728ZM36.6052 109H35.4852L32.6292 105.626V109H31.7052V105.626L28.8492 109H27.7292L30.8652 105.36L27.8692 102H28.9892L31.7052 105.108V102H32.6292V105.108L35.3452 102H36.4652L33.4692 105.36L36.6052 109ZM42.9588 102H43.7428V109H42.8188V103.61L38.6468 109H37.8628V102H38.7868V107.39L42.9588 102ZM52.5568 102V109H51.6328V103.414L49.1828 107.39H49.0708L46.6208 103.414V109H45.6968V102H46.7608L49.1268 105.836L51.4928 102H52.5568ZM63.8952 102V109H62.9712V102.896H58.9392V109H58.0152V102H63.8952ZM71.7151 108.118C71.0058 108.818 70.1378 109.168 69.1111 109.168C68.0845 109.168 67.2118 108.818 66.4931 108.118C65.7838 107.409 65.4291 106.536 65.4291 105.5C65.4291 104.464 65.7838 103.596 66.4931 102.896C67.2118 102.187 68.0845 101.832 69.1111 101.832C70.1378 101.832 71.0058 102.187 71.7151 102.896C72.4338 103.596 72.7931 104.464 72.7931 105.5C72.7931 106.536 72.4338 107.409 71.7151 108.118ZM67.1511 107.474C67.6831 108.006 68.3365 108.272 69.1111 108.272C69.8858 108.272 70.5391 108.006 71.0711 107.474C71.6031 106.933 71.8691 106.275 71.8691 105.5C71.8691 104.725 71.6031 104.072 71.0711 103.54C70.5391 102.999 69.8858 102.728 69.1111 102.728C68.3365 102.728 67.6831 102.999 67.1511 103.54C66.6191 104.072 66.3531 104.725 66.3531 105.5C66.3531 106.275 66.6191 106.933 67.1511 107.474ZM77.6779 105.402C78.4899 105.71 78.8959 106.27 78.8959 107.082C78.8959 107.661 78.6673 108.155 78.2099 108.566C77.7619 108.967 77.1179 109.168 76.2779 109.168C74.8686 109.168 73.9446 108.608 73.5059 107.488L74.2899 107.026C74.5793 107.857 75.2419 108.272 76.2779 108.272C76.8193 108.272 77.2346 108.155 77.5239 107.922C77.8226 107.689 77.9719 107.39 77.9719 107.026C77.9719 106.699 77.8506 106.433 77.6079 106.228C77.3653 106.023 77.0386 105.92 76.6279 105.92H75.6059V105.024H76.3479C76.7493 105.024 77.0619 104.926 77.2859 104.73C77.5193 104.525 77.6359 104.245 77.6359 103.89C77.6359 103.554 77.5006 103.279 77.2299 103.064C76.9593 102.84 76.5953 102.728 76.1379 102.728C75.2606 102.728 74.6773 103.078 74.3879 103.778L73.6179 103.33C74.0846 102.331 74.9246 101.832 76.1379 101.832C76.8753 101.832 77.4633 102.028 77.9019 102.42C78.3406 102.803 78.5599 103.274 78.5599 103.834C78.5599 104.553 78.2659 105.075 77.6779 105.402ZM84.7523 105.402C85.5176 105.682 85.9003 106.228 85.9003 107.04C85.9003 107.609 85.709 108.081 85.3263 108.454C84.953 108.818 84.4116 109 83.7023 109H80.3003V102H83.4223C84.1036 102 84.631 102.177 85.0043 102.532C85.3776 102.877 85.5643 103.325 85.5643 103.876C85.5643 104.576 85.2936 105.085 84.7523 105.402ZM83.4223 102.896H81.2243V105.024H83.4223C84.2343 105.024 84.6403 104.66 84.6403 103.932C84.6403 103.605 84.533 103.353 84.3183 103.176C84.113 102.989 83.8143 102.896 83.4223 102.896ZM83.7023 108.104C84.113 108.104 84.4256 108.006 84.6403 107.81C84.8643 107.614 84.9763 107.339 84.9763 106.984C84.9763 106.657 84.8643 106.401 84.6403 106.214C84.4256 106.018 84.113 105.92 83.7023 105.92H81.2243V108.104H83.7023ZM93.1663 108.118C92.457 108.818 91.589 109.168 90.5623 109.168C89.5356 109.168 88.663 108.818 87.9443 108.118C87.235 107.409 86.8803 106.536 86.8803 105.5C86.8803 104.464 87.235 103.596 87.9443 102.896C88.663 102.187 89.5356 101.832 90.5623 101.832C91.589 101.832 92.457 102.187 93.1663 102.896C93.885 103.596 94.2443 104.464 94.2443 105.5C94.2443 106.536 93.885 107.409 93.1663 108.118ZM88.6023 107.474C89.1343 108.006 89.7876 108.272 90.5623 108.272C91.337 108.272 91.9903 108.006 92.5223 107.474C93.0543 106.933 93.3203 106.275 93.3203 105.5C93.3203 104.725 93.0543 104.072 92.5223 103.54C91.9903 102.999 91.337 102.728 90.5623 102.728C89.7876 102.728 89.1343 102.999 88.6023 103.54C88.0703 104.072 87.8043 104.725 87.8043 105.5C87.8043 106.275 88.0703 106.933 88.6023 107.474ZM101.257 102V109H100.333V102.896H97.1691V106.018C97.1691 107.185 96.9451 107.987 96.4971 108.426C96.0584 108.865 95.4518 109.056 94.6771 109V108.132C95.2091 108.188 95.6011 108.062 95.8531 107.754C96.1144 107.446 96.2451 106.867 96.2451 106.018V102H101.257ZM108.254 102V109H107.33V106.312H106.126L103.97 109H102.794L105.006 106.284C104.446 106.2 103.984 105.967 103.62 105.584C103.256 105.201 103.074 104.73 103.074 104.17C103.074 103.535 103.298 103.017 103.746 102.616C104.204 102.205 104.759 102 105.412 102H108.254ZM105.412 105.444H107.33V102.896H105.412C105.02 102.896 104.684 103.013 104.404 103.246C104.134 103.479 103.998 103.787 103.998 104.17C103.998 104.553 104.134 104.861 104.404 105.094C104.684 105.327 105.02 105.444 105.412 105.444ZM113.448 101.832C114.484 101.832 115.32 102.201 115.954 102.938C116.598 103.666 116.92 104.529 116.92 105.528C116.92 105.631 116.911 105.775 116.892 105.962H110.746C110.84 106.671 111.138 107.236 111.642 107.656C112.156 108.067 112.786 108.272 113.532 108.272C114.064 108.272 114.522 108.165 114.904 107.95C115.296 107.726 115.59 107.437 115.786 107.082L116.598 107.558C116.29 108.053 115.87 108.445 115.338 108.734C114.806 109.023 114.2 109.168 113.518 109.168C112.417 109.168 111.521 108.823 110.83 108.132C110.14 107.441 109.794 106.564 109.794 105.5C109.794 104.455 110.135 103.582 110.816 102.882C111.498 102.182 112.375 101.832 113.448 101.832ZM113.448 102.728C112.72 102.728 112.109 102.947 111.614 103.386C111.129 103.815 110.84 104.375 110.746 105.066H115.968C115.875 104.329 115.59 103.755 115.114 103.344C114.638 102.933 114.083 102.728 113.448 102.728ZM123.157 102V102.896H120.679V109H119.755V102.896H117.277V102H123.157ZM132.823 102H133.803L130.807 109.644C130.536 110.335 130.149 110.876 129.645 111.268C129.15 111.669 128.595 111.847 127.979 111.8V110.932C128.819 111.025 129.458 110.54 129.897 109.476L130.079 109.042L126.943 102H127.923L130.555 107.866L132.823 102ZM140.799 102V109H139.875V102.896H135.843V109H134.919V102H140.799ZM146.505 101.832C147.504 101.832 148.353 102.187 149.053 102.896C149.763 103.605 150.117 104.473 150.117 105.5C150.117 106.527 149.763 107.395 149.053 108.104C148.353 108.813 147.504 109.168 146.505 109.168C145.264 109.168 144.321 108.655 143.677 107.628V111.8H142.753V102H143.677V103.372C144.321 102.345 145.264 101.832 146.505 101.832ZM144.475 107.474C145.007 108.006 145.661 108.272 146.435 108.272C147.21 108.272 147.863 108.006 148.395 107.474C148.927 106.933 149.193 106.275 149.193 105.5C149.193 104.725 148.927 104.072 148.395 103.54C147.863 102.999 147.21 102.728 146.435 102.728C145.661 102.728 145.007 102.999 144.475 103.54C143.943 104.072 143.677 104.725 143.677 105.5C143.677 106.275 143.943 106.933 144.475 107.474ZM157.674 102H158.598V109H157.674V107.628C157.03 108.655 156.087 109.168 154.846 109.168C153.847 109.168 152.993 108.813 152.284 108.104C151.584 107.395 151.234 106.527 151.234 105.5C151.234 104.473 151.584 103.605 152.284 102.896C152.993 102.187 153.847 101.832 154.846 101.832C156.087 101.832 157.03 102.345 157.674 103.372V102ZM152.956 107.474C153.488 108.006 154.141 108.272 154.916 108.272C155.69 108.272 156.344 108.006 156.876 107.474C157.408 106.933 157.674 106.275 157.674 105.5C157.674 104.725 157.408 104.072 156.876 103.54C156.344 102.999 155.69 102.728 154.916 102.728C154.141 102.728 153.488 102.999 152.956 103.54C152.424 104.072 152.158 104.725 152.158 105.5C152.158 106.275 152.424 106.933 152.956 107.474ZM165.006 105.402C165.772 105.682 166.154 106.228 166.154 107.04C166.154 107.609 165.963 108.081 165.58 108.454C165.207 108.818 164.666 109 163.956 109H160.554V102H163.676C164.358 102 164.885 102.177 165.258 102.532C165.632 102.877 165.818 103.325 165.818 103.876C165.818 104.576 165.548 105.085 165.006 105.402ZM163.676 102.896H161.478V105.024H163.676C164.488 105.024 164.894 104.66 164.894 103.932C164.894 103.605 164.787 103.353 164.572 103.176C164.367 102.989 164.068 102.896 163.676 102.896ZM163.956 108.104C164.367 108.104 164.68 108.006 164.894 107.81C165.118 107.614 165.23 107.339 165.23 106.984C165.23 106.657 165.118 106.401 164.894 106.214C164.68 106.018 164.367 105.92 163.956 105.92H161.478V108.104H163.956ZM173.021 102V109H172.097V102.896H168.933V106.018C168.933 107.185 168.709 107.987 168.261 108.426C167.822 108.865 167.215 109.056 166.441 109V108.132C166.973 108.188 167.365 108.062 167.617 107.754C167.878 107.446 168.009 106.867 168.009 106.018V102H173.021ZM180.018 102V109H179.094V106.312H177.89L175.734 109H174.558L176.77 106.284C176.21 106.2 175.748 105.967 175.384 105.584C175.02 105.201 174.838 104.73 174.838 104.17C174.838 103.535 175.062 103.017 175.51 102.616C175.967 102.205 176.523 102 177.176 102H180.018ZM177.176 105.444H179.094V102.896H177.176C176.784 102.896 176.448 103.013 176.168 103.246C175.897 103.479 175.762 103.787 175.762 104.17C175.762 104.553 175.897 104.861 176.168 105.094C176.448 105.327 176.784 105.444 177.176 105.444ZM187.018 102V102.896H184.54V109H183.616V102.896H181.138V102H187.018ZM190.986 104.66C191.639 104.66 192.19 104.865 192.638 105.276C193.095 105.677 193.324 106.195 193.324 106.83C193.324 107.465 193.095 107.987 192.638 108.398C192.19 108.799 191.639 109 190.986 109H188.144V102H189.068V104.66H190.986ZM190.986 108.104C191.378 108.104 191.709 107.987 191.98 107.754C192.26 107.521 192.4 107.213 192.4 106.83C192.4 106.447 192.26 106.139 191.98 105.906C191.709 105.673 191.378 105.556 190.986 105.556H189.068V108.104H190.986ZM19.812 119.008C20.484 119.689 20.82 120.52 20.82 121.5C20.82 122.48 20.484 123.311 19.812 123.992C19.14 124.673 18.2533 125.061 17.152 125.154V127.8H16.228V125.154C15.1267 125.061 14.24 124.673 13.568 123.992C12.896 123.311 12.56 122.48 12.56 121.5C12.56 120.52 12.896 119.689 13.568 119.008C14.24 118.327 15.1267 117.939 16.228 117.846V115.2H17.152V117.846C18.2533 117.939 19.14 118.327 19.812 119.008ZM14.226 119.652C13.7313 120.156 13.484 120.772 13.484 121.5C13.484 122.228 13.7313 122.849 14.226 123.362C14.7207 123.866 15.388 124.16 16.228 124.244V118.756C15.388 118.84 14.7207 119.139 14.226 119.652ZM17.152 124.244C17.992 124.16 18.6593 123.866 19.154 123.362C19.6487 122.849 19.896 122.228 19.896 121.5C19.896 120.772 19.6487 120.156 19.154 119.652C18.6593 119.139 17.992 118.84 17.152 118.756V124.244ZM27.1255 118H28.1055L25.1095 125.644C24.8388 126.335 24.4515 126.876 23.9475 127.268C23.4528 127.669 22.8975 127.847 22.2815 127.8V126.932C23.1215 127.025 23.7608 126.54 24.1995 125.476L24.3815 125.042L21.2455 118H22.2255L24.8575 123.866L27.1255 118ZM34.2622 118V118.896H31.7842V125H30.8602V118.896H28.3822V118H34.2622ZM38.2228 125.168C37.2148 125.168 36.3748 124.837 35.7028 124.174C35.0308 123.502 34.6948 122.634 34.6948 121.57C34.6948 120.375 34.8721 119.461 35.2268 118.826C35.5814 118.182 36.3001 117.599 37.3828 117.076C37.5881 116.973 37.8588 116.852 38.1948 116.712C38.5401 116.572 38.7968 116.46 38.9648 116.376C39.1421 116.292 39.3334 116.185 39.5388 116.054C39.7441 115.914 39.8981 115.76 40.0008 115.592C40.1034 115.424 40.1688 115.223 40.1968 114.99L40.9248 115.41C40.8874 115.634 40.8128 115.844 40.7008 116.04C40.5888 116.236 40.4721 116.395 40.3508 116.516C40.2388 116.637 40.0568 116.773 39.8048 116.922C39.5621 117.062 39.3708 117.165 39.2308 117.23C39.1001 117.286 38.8668 117.384 38.5308 117.524C38.2041 117.664 37.9848 117.757 37.8728 117.804C37.2194 118.084 36.7388 118.378 36.4308 118.686C36.1228 118.985 35.9034 119.377 35.7728 119.862C36.0901 119.442 36.4914 119.134 36.9768 118.938C37.4714 118.733 37.9521 118.63 38.4188 118.63C39.3521 118.63 40.1221 118.938 40.7288 119.554C41.3448 120.161 41.6528 120.94 41.6528 121.892C41.6528 122.835 41.3261 123.619 40.6728 124.244C40.0288 124.86 39.2121 125.168 38.2228 125.168ZM38.2228 124.244C38.9508 124.244 39.5481 124.025 40.0148 123.586C40.4908 123.138 40.7288 122.573 40.7288 121.892C40.7288 121.201 40.5048 120.637 40.0568 120.198C39.6181 119.75 39.0301 119.526 38.2928 119.526C37.6301 119.526 37.0281 119.736 36.4868 120.156C35.9454 120.567 35.6748 121.117 35.6748 121.808C35.6748 122.517 35.9174 123.101 36.4028 123.558C36.8974 124.015 37.5041 124.244 38.2228 124.244ZM48.9241 124.118C48.2148 124.818 47.3468 125.168 46.3201 125.168C45.2935 125.168 44.4208 124.818 43.7021 124.118C42.9928 123.409 42.6381 122.536 42.6381 121.5C42.6381 120.464 42.9928 119.596 43.7021 118.896C44.4208 118.187 45.2935 117.832 46.3201 117.832C47.3468 117.832 48.2148 118.187 48.9241 118.896C49.6428 119.596 50.0021 120.464 50.0021 121.5C50.0021 122.536 49.6428 123.409 48.9241 124.118ZM44.3601 123.474C44.8921 124.006 45.5455 124.272 46.3201 124.272C47.0948 124.272 47.7481 124.006 48.2801 123.474C48.8121 122.933 49.0781 122.275 49.0781 121.5C49.0781 120.725 48.8121 120.072 48.2801 119.54C47.7481 118.999 47.0948 118.728 46.3201 118.728C45.5455 118.728 44.8921 118.999 44.3601 119.54C43.8281 120.072 43.5621 120.725 43.5621 121.5C43.5621 122.275 43.8281 122.933 44.3601 123.474ZM57.0149 118V125H56.0909V118.896H52.9269V122.018C52.9269 123.185 52.7029 123.987 52.2549 124.426C51.8163 124.865 51.2096 125.056 50.4349 125V124.132C50.9669 124.188 51.3589 124.062 51.6109 123.754C51.8723 123.446 52.0029 122.867 52.0029 122.018V118H57.0149ZM61.8142 120.66C62.4675 120.66 63.0182 120.865 63.4662 121.276C63.9235 121.677 64.1522 122.195 64.1522 122.83C64.1522 123.465 63.9235 123.987 63.4662 124.398C63.0182 124.799 62.4675 125 61.8142 125H58.9722V118H59.8962V120.66H61.8142ZM61.8142 124.104C62.2062 124.104 62.5375 123.987 62.8082 123.754C63.0882 123.521 63.2282 123.213 63.2282 122.83C63.2282 122.447 63.0882 122.139 62.8082 121.906C62.5375 121.673 62.2062 121.556 61.8142 121.556H59.8962V124.104H61.8142ZM70.5044 118H71.4284V125H70.5044V121.948H66.4724V125H65.5484V118H66.4724V121.052H70.5044V118ZM76.2243 120.66C76.8777 120.66 77.4283 120.865 77.8763 121.276C78.3337 121.677 78.5623 122.195 78.5623 122.83C78.5623 123.465 78.3337 123.987 77.8763 124.398C77.4283 124.799 76.8777 125 76.2243 125H73.3823V118H74.3063V120.66H76.2243ZM79.5423 118H80.4663V125H79.5423V118ZM76.2243 124.104C76.6163 124.104 76.9477 123.987 77.2183 123.754C77.4983 123.521 77.6383 123.213 77.6383 122.83C77.6383 122.447 77.4983 122.139 77.2183 121.906C76.9477 121.673 76.6163 121.556 76.2243 121.556H74.3063V124.104H76.2243ZM89.2931 118V125H88.3691V119.414L85.9191 123.39H85.8071L83.3571 119.414V125H82.4331V118H83.4971L85.8631 121.836L88.2291 118H89.2931ZM100.407 125H99.1755L95.6755 121.626V125H94.7515V118H95.6755V121.094L99.0075 118H100.267L96.6555 121.36L100.407 125ZM107.409 118V125H106.485V118.896H103.321V122.018C103.321 123.185 103.097 123.987 102.649 124.426C102.211 124.865 101.604 125.056 100.829 125V124.132C101.361 124.188 101.753 124.062 102.005 123.754C102.267 123.446 102.397 122.867 102.397 122.018V118H107.409ZM114.407 118H115.387L112.391 125.644C112.12 126.335 111.733 126.876 111.229 127.268C110.734 127.669 110.179 127.847 109.563 127.8V126.932C110.403 127.025 111.042 126.54 111.481 125.476L111.663 125.042L108.527 118H109.507L112.139 123.866L114.407 118ZM119.338 125.168C118.33 125.168 117.49 124.837 116.818 124.174C116.146 123.502 115.81 122.634 115.81 121.57C115.81 120.375 115.987 119.461 116.342 118.826C116.697 118.182 117.415 117.599 118.498 117.076C118.703 116.973 118.974 116.852 119.31 116.712C119.655 116.572 119.912 116.46 120.08 116.376C120.257 116.292 120.449 116.185 120.654 116.054C120.859 115.914 121.013 115.76 121.116 115.592C121.219 115.424 121.284 115.223 121.312 114.99L122.04 115.41C122.003 115.634 121.928 115.844 121.816 116.04C121.704 116.236 121.587 116.395 121.466 116.516C121.354 116.637 121.172 116.773 120.92 116.922C120.677 117.062 120.486 117.165 120.346 117.23C120.215 117.286 119.982 117.384 119.646 117.524C119.319 117.664 119.1 117.757 118.988 117.804C118.335 118.084 117.854 118.378 117.546 118.686C117.238 118.985 117.019 119.377 116.888 119.862C117.205 119.442 117.607 119.134 118.092 118.938C118.587 118.733 119.067 118.63 119.534 118.63C120.467 118.63 121.237 118.938 121.844 119.554C122.46 120.161 122.768 120.94 122.768 121.892C122.768 122.835 122.441 123.619 121.788 124.244C121.144 124.86 120.327 125.168 119.338 125.168ZM119.338 124.244C120.066 124.244 120.663 124.025 121.13 123.586C121.606 123.138 121.844 122.573 121.844 121.892C121.844 121.201 121.62 120.637 121.172 120.198C120.733 119.75 120.145 119.526 119.408 119.526C118.745 119.526 118.143 119.736 117.602 120.156C117.061 120.567 116.79 121.117 116.79 121.808C116.79 122.517 117.033 123.101 117.518 123.558C118.013 124.015 118.619 124.244 119.338 124.244ZM130.039 124.118C129.33 124.818 128.462 125.168 127.435 125.168C126.409 125.168 125.536 124.818 124.817 124.118C124.108 123.409 123.753 122.536 123.753 121.5C123.753 120.464 124.108 119.596 124.817 118.896C125.536 118.187 126.409 117.832 127.435 117.832C128.462 117.832 129.33 118.187 130.039 118.896C130.758 119.596 131.117 120.464 131.117 121.5C131.117 122.536 130.758 123.409 130.039 124.118ZM125.475 123.474C126.007 124.006 126.661 124.272 127.435 124.272C128.21 124.272 128.863 124.006 129.395 123.474C129.927 122.933 130.193 122.275 130.193 121.5C130.193 120.725 129.927 120.072 129.395 119.54C128.863 118.999 128.21 118.728 127.435 118.728C126.661 118.728 126.007 118.999 125.475 119.54C124.943 120.072 124.677 120.725 124.677 121.5C124.677 122.275 124.943 122.933 125.475 123.474ZM139.524 118V125H138.6V119.414L136.15 123.39H136.038L133.588 119.414V125H132.664V118H133.728L136.094 121.836L138.46 118H139.524ZM142.658 124.916C142.509 125.065 142.327 125.14 142.112 125.14C141.897 125.14 141.715 125.065 141.566 124.916C141.417 124.767 141.342 124.585 141.342 124.37C141.342 124.155 141.417 123.973 141.566 123.824C141.715 123.675 141.897 123.6 142.112 123.6C142.327 123.6 142.509 123.675 142.658 123.824C142.807 123.973 142.882 124.155 142.882 124.37C142.882 124.585 142.807 124.767 142.658 124.916Z" fill="white"/>
</g>
<defs>
<filter id="filter0_b_1410_5831" x="-10" y="-10" width="226" height="198" filterUnits="userSpaceOnUse" color-interpolation-filters="sRGB">
<feFlood flood-opacity="0" result="BackgroundImageFix"/>
<feGaussianBlur in="BackgroundImageFix" stdDeviation="5"/>
<feComposite in2="SourceAlpha" operator="in" result="effect1_backgroundBlur_1410_5831"/>
<feBlend mode="normal" in="SourceGraphic" in2="effect1_backgroundBlur_1410_5831" result="shape"/>
</filter>
</defs>
</svg>
