<svg width="205" height="290" viewBox="0 0 205 290" fill="none" xmlns="http://www.w3.org/2000/svg">
<g filter="url(#filter0_b_888_26051)">
<rect width="205" height="290" rx="15" fill="#0C0C0C" fill-opacity="0.3"/>
<rect x="0.5" y="0.5" width="204" height="289" rx="14.5" stroke="white" stroke-opacity="0.3"/>
<path d="M78.932 54C80.1854 54 81.232 54.42 82.072 55.26C82.912 56.1 83.332 57.1467 83.332 58.4C83.332 59.6533 82.912 60.7 82.072 61.54C81.232 62.38 80.1854 62.8 78.932 62.8H75.332V68H73.932V54H78.932ZM78.932 61.48C79.7987 61.48 80.512 61.1933 81.072 60.62C81.6454 60.0333 81.932 59.2933 81.932 58.4C81.932 57.5067 81.6454 56.7733 81.072 56.2C80.512 55.6133 79.7987 55.32 78.932 55.32H75.332V61.48H78.932ZM89.3481 57.76C90.8281 57.76 92.0215 58.2867 92.9281 59.34C93.8481 60.38 94.3081 61.6133 94.3081 63.04C94.3081 63.1867 94.2948 63.3933 94.2681 63.66H85.4881C85.6215 64.6733 86.0481 65.48 86.7681 66.08C87.5015 66.6667 88.4015 66.96 89.4681 66.96C90.2281 66.96 90.8815 66.8067 91.4281 66.5C91.9881 66.18 92.4081 65.7667 92.6881 65.26L93.8481 65.94C93.4081 66.6467 92.8081 67.2067 92.0481 67.62C91.2881 68.0333 90.4215 68.24 89.4481 68.24C87.8748 68.24 86.5948 67.7467 85.6081 66.76C84.6215 65.7733 84.1281 64.52 84.1281 63C84.1281 61.5067 84.6148 60.26 85.5881 59.26C86.5615 58.26 87.8148 57.76 89.3481 57.76ZM89.3481 59.04C88.3081 59.04 87.4348 59.3533 86.7281 59.98C86.0348 60.5933 85.6215 61.3933 85.4881 62.38H92.9481C92.8148 61.3267 92.4081 60.5067 91.7281 59.92C91.0481 59.3333 90.2548 59.04 89.3481 59.04ZM107.482 68H105.882L101.802 63.18V68H100.482V63.18L96.4023 68H94.8023L99.2823 62.8L95.0023 58H96.6023L100.482 62.44V58H101.802V62.44L105.682 58H107.282L103.002 62.8L107.482 68ZM116.559 58H117.679V68H116.359V60.3L110.399 68H109.279V58H110.599V65.7L116.559 58ZM130.27 58V68H128.95V60.02L125.45 65.7H125.29L121.79 60.02V68H120.47V58H121.99L125.37 63.48L128.75 58H130.27ZM39.1248 81.22L36.9248 84.82L39.1248 88.42H37.4848L35.2848 84.82L37.4848 81.22H39.1248ZM42.3248 81.22L40.1248 84.82L42.3248 88.42H40.6848L38.4848 84.82L40.6848 81.22H42.3248ZM56.9085 89.14C55.5085 90.54 53.7952 91.24 51.7685 91.24C49.7418 91.24 48.0285 90.54 46.6285 89.14C45.2285 87.7267 44.5285 86.0133 44.5285 84C44.5285 81.9867 45.2285 80.28 46.6285 78.88C48.0285 77.4667 49.7418 76.76 51.7685 76.76C53.7952 76.76 55.5085 77.4667 56.9085 78.88C58.3085 80.28 59.0085 81.9867 59.0085 84C59.0085 86.0133 58.3085 87.7267 56.9085 89.14ZM47.6085 88.18C48.7285 89.3133 50.1152 89.88 51.7685 89.88C53.4218 89.88 54.8085 89.3133 55.9285 88.18C57.0485 87.0333 57.6085 85.64 57.6085 84C57.6085 82.36 57.0485 80.9733 55.9285 79.84C54.8085 78.6933 53.4218 78.12 51.7685 78.12C50.1152 78.12 48.7285 78.6933 47.6085 79.84C46.4885 80.9733 45.9285 82.36 45.9285 84C45.9285 85.64 46.4885 87.0333 47.6085 88.18ZM66.5627 80.76C67.9894 80.76 69.2027 81.2667 70.2027 82.28C71.2161 83.2933 71.7227 84.5333 71.7227 86C71.7227 87.4667 71.2161 88.7067 70.2027 89.72C69.2027 90.7333 67.9894 91.24 66.5627 91.24C64.7894 91.24 63.4427 90.5067 62.5227 89.04V95H61.2027V81H62.5227V82.96C63.4427 81.4933 64.7894 80.76 66.5627 80.76ZM63.6627 88.82C64.4227 89.58 65.3561 89.96 66.4627 89.96C67.5694 89.96 68.5027 89.58 69.2627 88.82C70.0227 88.0467 70.4027 87.1067 70.4027 86C70.4027 84.8933 70.0227 83.96 69.2627 83.2C68.5027 82.4267 67.5694 82.04 66.4627 82.04C65.3561 82.04 64.4227 82.4267 63.6627 83.2C62.9027 83.96 62.5227 84.8933 62.5227 86C62.5227 87.1067 62.9027 88.0467 63.6627 88.82ZM80.3176 81V82.28H75.2376V91H73.9176V81H80.3176ZM90.1348 81H91.4548V91H90.1348V89.04C89.2148 90.5067 87.8681 91.24 86.0948 91.24C84.6681 91.24 83.4481 90.7333 82.4348 89.72C81.4348 88.7067 80.9348 87.4667 80.9348 86C80.9348 84.5333 81.4348 83.2933 82.4348 82.28C83.4481 81.2667 84.6681 80.76 86.0948 80.76C87.8681 80.76 89.2148 81.4933 90.1348 82.96V81ZM83.3948 88.82C84.1548 89.58 85.0881 89.96 86.1948 89.96C87.3014 89.96 88.2348 89.58 88.9948 88.82C89.7548 88.0467 90.1348 87.1067 90.1348 86C90.1348 84.8933 89.7548 83.96 88.9948 83.2C88.2348 82.4267 87.3014 82.04 86.1948 82.04C85.0881 82.04 84.1548 82.4267 83.3948 83.2C82.6348 83.96 82.2548 84.8933 82.2548 86C82.2548 87.1067 82.6348 88.0467 83.3948 88.82ZM101.33 81H102.65V91H101.33V86.64H95.5696V91H94.2496V81H95.5696V85.36H101.33V81ZM112.721 81H113.841V91H112.521V83.3L106.561 91H105.441V81H106.761V88.7L112.721 81ZM121.792 85.86C122.952 86.3 123.532 87.1 123.532 88.26C123.532 89.0867 123.206 89.7933 122.552 90.38C121.912 90.9533 120.992 91.24 119.792 91.24C117.779 91.24 116.459 90.44 115.832 88.84L116.952 88.18C117.366 89.3667 118.312 89.96 119.792 89.96C120.566 89.96 121.159 89.7933 121.572 89.46C121.999 89.1267 122.212 88.7 122.212 88.18C122.212 87.7133 122.039 87.3333 121.692 87.04C121.346 86.7467 120.879 86.6 120.292 86.6H118.832V85.32H119.892C120.466 85.32 120.912 85.18 121.232 84.9C121.566 84.6067 121.732 84.2067 121.732 83.7C121.732 83.22 121.539 82.8267 121.152 82.52C120.766 82.2 120.246 82.04 119.592 82.04C118.339 82.04 117.506 82.54 117.092 83.54L115.992 82.9C116.659 81.4733 117.859 80.76 119.592 80.76C120.646 80.76 121.486 81.04 122.112 81.6C122.739 82.1467 123.052 82.82 123.052 83.62C123.052 84.6467 122.632 85.3933 121.792 85.86ZM134.139 81H135.459V91H134.139V89.04C133.219 90.5067 131.872 91.24 130.099 91.24C128.672 91.24 127.452 90.7333 126.439 89.72C125.439 88.7067 124.939 87.4667 124.939 86C124.939 84.5333 125.439 83.2933 126.439 82.28C127.452 81.2667 128.672 80.76 130.099 80.76C131.872 80.76 133.219 81.4933 134.139 82.96V81ZM127.399 88.82C128.159 89.58 129.092 89.96 130.199 89.96C131.305 89.96 132.239 89.58 132.999 88.82C133.759 88.0467 134.139 87.1067 134.139 86C134.139 84.8933 133.759 83.96 132.999 83.2C132.239 82.4267 131.305 82.04 130.199 82.04C129.092 82.04 128.159 82.4267 127.399 83.2C126.639 83.96 126.259 84.8933 126.259 86C126.259 87.1067 126.639 88.0467 127.399 88.82ZM145.454 81V82.28H141.914V91H140.594V82.28H137.054V81H145.454ZM155.051 89.74C154.038 90.74 152.798 91.24 151.331 91.24C149.865 91.24 148.618 90.74 147.591 89.74C146.578 88.7267 146.071 87.48 146.071 86C146.071 84.52 146.578 83.28 147.591 82.28C148.618 81.2667 149.865 80.76 151.331 80.76C152.798 80.76 154.038 81.2667 155.051 82.28C156.078 83.28 156.591 84.52 156.591 86C156.591 87.48 156.078 88.7267 155.051 89.74ZM148.531 88.82C149.291 89.58 150.225 89.96 151.331 89.96C152.438 89.96 153.371 89.58 154.131 88.82C154.891 88.0467 155.271 87.1067 155.271 86C155.271 84.8933 154.891 83.96 154.131 83.2C153.371 82.4267 152.438 82.04 151.331 82.04C150.225 82.04 149.291 82.4267 148.531 83.2C147.771 83.96 147.391 84.8933 147.391 86C147.391 87.1067 147.771 88.0467 148.531 88.82ZM164.16 80.76C165.587 80.76 166.8 81.2667 167.8 82.28C168.814 83.2933 169.32 84.5333 169.32 86C169.32 87.4667 168.814 88.7067 167.8 89.72C166.8 90.7333 165.587 91.24 164.16 91.24C162.387 91.24 161.04 90.5067 160.12 89.04V95H158.8V81H160.12V82.96C161.04 81.4933 162.387 80.76 164.16 80.76ZM161.26 88.82C162.02 89.58 162.954 89.96 164.06 89.96C165.167 89.96 166.1 89.58 166.86 88.82C167.62 88.0467 168 87.1067 168 86C168 84.8933 167.62 83.96 166.86 83.2C166.1 82.4267 165.167 82.04 164.06 82.04C162.954 82.04 162.02 82.4267 161.26 83.2C160.5 83.96 160.12 84.8933 160.12 86C160.12 87.1067 160.5 88.0467 161.26 88.82ZM65.9125 104V105.28H62.3725V114H61.0525V105.28H57.5125V104H65.9125ZM74.7211 104H76.1211L71.8411 114.92C71.4544 115.907 70.9011 116.68 70.1811 117.24C69.4744 117.813 68.6811 118.067 67.8011 118V116.76C69.0011 116.893 69.9144 116.2 70.5411 114.68L70.8011 114.06L66.3211 104H67.7211L71.4811 112.38L74.7211 104ZM83.0764 103.76C84.5031 103.76 85.7164 104.267 86.7164 105.28C87.7297 106.293 88.2364 107.533 88.2364 109C88.2364 110.467 87.7297 111.707 86.7164 112.72C85.7164 113.733 84.5031 114.24 83.0764 114.24C81.3031 114.24 79.9564 113.507 79.0364 112.04V118H77.7164V104H79.0364V105.96C79.9564 104.493 81.3031 103.76 83.0764 103.76ZM80.1764 111.82C80.9364 112.58 81.8697 112.96 82.9764 112.96C84.0831 112.96 85.0164 112.58 85.7764 111.82C86.5364 111.047 86.9164 110.107 86.9164 109C86.9164 107.893 86.5364 106.96 85.7764 106.2C85.0164 105.427 84.0831 105.04 82.9764 105.04C81.8697 105.04 80.9364 105.427 80.1764 106.2C79.4164 106.96 79.0364 107.893 79.0364 109C79.0364 110.107 79.4164 111.047 80.1764 111.82ZM97.5113 104H98.8313V114H97.5113V109.64H91.7513V114H90.4313V104H91.7513V108.36H97.5113V104ZM108.903 104H110.023V114H108.703V106.3L102.743 114H101.623V104H102.943V111.7L108.903 104ZM118.174 103.76C119.601 103.76 120.814 104.267 121.814 105.28C122.827 106.293 123.334 107.533 123.334 109C123.334 110.467 122.827 111.707 121.814 112.72C120.814 113.733 119.601 114.24 118.174 114.24C116.401 114.24 115.054 113.507 114.134 112.04V118H112.814V104H114.134V105.96C115.054 104.493 116.401 103.76 118.174 103.76ZM115.274 111.82C116.034 112.58 116.967 112.96 118.074 112.96C119.181 112.96 120.114 112.58 120.874 111.82C121.634 111.047 122.014 110.107 122.014 109C122.014 107.893 121.634 106.96 120.874 106.2C120.114 105.427 119.181 105.04 118.074 105.04C116.967 105.04 116.034 105.427 115.274 106.2C114.514 106.96 114.134 107.893 114.134 109C114.134 110.107 114.514 111.047 115.274 111.82ZM134.129 104H135.449V114H134.129V112.04C133.209 113.507 131.862 114.24 130.089 114.24C128.662 114.24 127.442 113.733 126.429 112.72C125.429 111.707 124.929 110.467 124.929 109C124.929 107.533 125.429 106.293 126.429 105.28C127.442 104.267 128.662 103.76 130.089 103.76C131.862 103.76 133.209 104.493 134.129 105.96V104ZM127.389 111.82C128.149 112.58 129.082 112.96 130.189 112.96C131.296 112.96 132.229 112.58 132.989 111.82C133.749 111.047 134.129 110.107 134.129 109C134.129 107.893 133.749 106.96 132.989 106.2C132.229 105.427 131.296 105.04 130.189 105.04C129.082 105.04 128.149 105.427 127.389 106.2C126.629 106.96 126.249 107.893 126.249 109C126.249 110.107 126.629 111.047 127.389 111.82ZM139.884 104.22L142.084 107.82L139.884 111.42H138.244L140.444 107.82L138.244 104.22H139.884ZM143.084 104.22L145.284 107.82L143.084 111.42H141.444L143.644 107.82L141.444 104.22H143.084Z" fill="white"/>
<path opacity="0.7" d="M50.9686 146.2C51.846 146.2 52.5786 146.494 53.1666 147.082C53.7546 147.67 54.0486 148.403 54.0486 149.28C54.0486 150.157 53.7546 150.89 53.1666 151.478C52.5786 152.066 51.846 152.36 50.9686 152.36H48.4486V156H47.4686V146.2H50.9686ZM50.9686 151.436C51.5753 151.436 52.0746 151.235 52.4666 150.834C52.868 150.423 53.0686 149.905 53.0686 149.28C53.0686 148.655 52.868 148.141 52.4666 147.74C52.0746 147.329 51.5753 147.124 50.9686 147.124H48.4486V151.436H50.9686ZM58.2599 148.832C59.2959 148.832 60.1312 149.201 60.7659 149.938C61.4099 150.666 61.7319 151.529 61.7319 152.528C61.7319 152.631 61.7226 152.775 61.7039 152.962H55.5579C55.6512 153.671 55.9499 154.236 56.4539 154.656C56.9672 155.067 57.5972 155.272 58.3439 155.272C58.8759 155.272 59.3332 155.165 59.7159 154.95C60.1079 154.726 60.4019 154.437 60.5979 154.082L61.4099 154.558C61.1019 155.053 60.6819 155.445 60.1499 155.734C59.6179 156.023 59.0112 156.168 58.3299 156.168C57.2286 156.168 56.3326 155.823 55.6419 155.132C54.9512 154.441 54.6059 153.564 54.6059 152.5C54.6059 151.455 54.9466 150.582 55.6279 149.882C56.3092 149.182 57.1866 148.832 58.2599 148.832ZM58.2599 149.728C57.5319 149.728 56.9206 149.947 56.4259 150.386C55.9406 150.815 55.6512 151.375 55.5579 152.066H60.7799C60.6866 151.329 60.4019 150.755 59.9259 150.344C59.4499 149.933 58.8946 149.728 58.2599 149.728ZM70.9539 156H69.8339L66.9779 152.626V156H66.0539V152.626L63.1979 156H62.0779L65.2139 152.36L62.2179 149H63.3379L66.0539 152.108V149H66.9779V152.108L69.6939 149H70.8139L67.8179 152.36L70.9539 156ZM77.3074 149H78.0914V156H77.1674V150.61L72.9954 156H72.2114V149H73.1354V154.39L77.3074 149ZM86.9054 149V156H85.9814V150.414L83.5314 154.39H83.4194L80.9694 150.414V156H80.0454V149H81.1094L83.4754 152.836L85.8414 149H86.9054ZM98.2438 149V156H97.3198V149.896H93.2878V156H92.3638V149H98.2438ZM106.064 155.118C105.354 155.818 104.486 156.168 103.46 156.168C102.433 156.168 101.56 155.818 100.842 155.118C100.132 154.409 99.7778 153.536 99.7778 152.5C99.7778 151.464 100.132 150.596 100.842 149.896C101.56 149.187 102.433 148.832 103.46 148.832C104.486 148.832 105.354 149.187 106.064 149.896C106.782 150.596 107.142 151.464 107.142 152.5C107.142 153.536 106.782 154.409 106.064 155.118ZM101.5 154.474C102.032 155.006 102.685 155.272 103.46 155.272C104.234 155.272 104.888 155.006 105.42 154.474C105.952 153.933 106.218 153.275 106.218 152.5C106.218 151.725 105.952 151.072 105.42 150.54C104.888 149.999 104.234 149.728 103.46 149.728C102.685 149.728 102.032 149.999 101.5 150.54C100.968 151.072 100.702 151.725 100.702 152.5C100.702 153.275 100.968 153.933 101.5 154.474ZM112.027 152.402C112.839 152.71 113.245 153.27 113.245 154.082C113.245 154.661 113.016 155.155 112.559 155.566C112.111 155.967 111.467 156.168 110.627 156.168C109.217 156.168 108.293 155.608 107.855 154.488L108.639 154.026C108.928 154.857 109.591 155.272 110.627 155.272C111.168 155.272 111.583 155.155 111.873 154.922C112.171 154.689 112.321 154.39 112.321 154.026C112.321 153.699 112.199 153.433 111.957 153.228C111.714 153.023 111.387 152.92 110.977 152.92H109.955V152.024H110.697C111.098 152.024 111.411 151.926 111.635 151.73C111.868 151.525 111.985 151.245 111.985 150.89C111.985 150.554 111.849 150.279 111.579 150.064C111.308 149.84 110.944 149.728 110.487 149.728C109.609 149.728 109.026 150.078 108.737 150.778L107.967 150.33C108.433 149.331 109.273 148.832 110.487 148.832C111.224 148.832 111.812 149.028 112.251 149.42C112.689 149.803 112.909 150.274 112.909 150.834C112.909 151.553 112.615 152.075 112.027 152.402ZM119.101 152.402C119.866 152.682 120.249 153.228 120.249 154.04C120.249 154.609 120.058 155.081 119.675 155.454C119.302 155.818 118.76 156 118.051 156H114.649V149H117.771C118.452 149 118.98 149.177 119.353 149.532C119.726 149.877 119.913 150.325 119.913 150.876C119.913 151.576 119.642 152.085 119.101 152.402ZM117.771 149.896H115.573V152.024H117.771C118.583 152.024 118.989 151.66 118.989 150.932C118.989 150.605 118.882 150.353 118.667 150.176C118.462 149.989 118.163 149.896 117.771 149.896ZM118.051 155.104C118.462 155.104 118.774 155.006 118.989 154.81C119.213 154.614 119.325 154.339 119.325 153.984C119.325 153.657 119.213 153.401 118.989 153.214C118.774 153.018 118.462 152.92 118.051 152.92H115.573V155.104H118.051ZM127.515 155.118C126.806 155.818 125.938 156.168 124.911 156.168C123.884 156.168 123.012 155.818 122.293 155.118C121.584 154.409 121.229 153.536 121.229 152.5C121.229 151.464 121.584 150.596 122.293 149.896C123.012 149.187 123.884 148.832 124.911 148.832C125.938 148.832 126.806 149.187 127.515 149.896C128.234 150.596 128.593 151.464 128.593 152.5C128.593 153.536 128.234 154.409 127.515 155.118ZM122.951 154.474C123.483 155.006 124.136 155.272 124.911 155.272C125.686 155.272 126.339 155.006 126.871 154.474C127.403 153.933 127.669 153.275 127.669 152.5C127.669 151.725 127.403 151.072 126.871 150.54C126.339 149.999 125.686 149.728 124.911 149.728C124.136 149.728 123.483 149.999 122.951 150.54C122.419 151.072 122.153 151.725 122.153 152.5C122.153 153.275 122.419 153.933 122.951 154.474ZM135.606 149V156H134.682V149.896H131.518V153.018C131.518 154.185 131.294 154.987 130.846 155.426C130.407 155.865 129.8 156.056 129.026 156V155.132C129.558 155.188 129.95 155.062 130.202 154.754C130.463 154.446 130.594 153.867 130.594 153.018V149H135.606ZM142.603 149V156H141.679V153.312H140.475L138.319 156H137.143L139.355 153.284C138.795 153.2 138.333 152.967 137.969 152.584C137.605 152.201 137.423 151.73 137.423 151.17C137.423 150.535 137.647 150.017 138.095 149.616C138.552 149.205 139.108 149 139.761 149H142.603ZM139.761 152.444H141.679V149.896H139.761C139.369 149.896 139.033 150.013 138.753 150.246C138.482 150.479 138.347 150.787 138.347 151.17C138.347 151.553 138.482 151.861 138.753 152.094C139.033 152.327 139.369 152.444 139.761 152.444ZM147.797 148.832C148.833 148.832 149.668 149.201 150.303 149.938C150.947 150.666 151.269 151.529 151.269 152.528C151.269 152.631 151.26 152.775 151.241 152.962H145.095C145.188 153.671 145.487 154.236 145.991 154.656C146.504 155.067 147.134 155.272 147.881 155.272C148.413 155.272 148.87 155.165 149.253 154.95C149.645 154.726 149.939 154.437 150.135 154.082L150.947 154.558C150.639 155.053 150.219 155.445 149.687 155.734C149.155 156.023 148.548 156.168 147.867 156.168C146.766 156.168 145.87 155.823 145.179 155.132C144.488 154.441 144.143 153.564 144.143 152.5C144.143 151.455 144.484 150.582 145.165 149.882C145.846 149.182 146.724 148.832 147.797 148.832ZM147.797 149.728C147.069 149.728 146.458 149.947 145.963 150.386C145.478 150.815 145.188 151.375 145.095 152.066H150.317C150.224 151.329 149.939 150.755 149.463 150.344C148.987 149.933 148.432 149.728 147.797 149.728ZM157.505 149V149.896H155.027V156H154.103V149.896H151.625V149H157.505ZM48.085 165H49.009V172H48.085V170.628C47.441 171.655 46.4983 172.168 45.257 172.168C44.2583 172.168 43.4043 171.813 42.695 171.104C41.995 170.395 41.645 169.527 41.645 168.5C41.645 167.473 41.995 166.605 42.695 165.896C43.4043 165.187 44.2583 164.832 45.257 164.832C46.4983 164.832 47.441 165.345 48.085 166.372V165ZM43.367 170.474C43.899 171.006 44.5523 171.272 45.327 171.272C46.1016 171.272 46.755 171.006 47.287 170.474C47.819 169.933 48.085 169.275 48.085 168.5C48.085 167.725 47.819 167.072 47.287 166.54C46.755 165.999 46.1016 165.728 45.327 165.728C44.5523 165.728 43.899 165.999 43.367 166.54C42.835 167.072 42.569 167.725 42.569 168.5C42.569 169.275 42.835 169.933 43.367 170.474ZM55.4174 168.402C56.1827 168.682 56.5654 169.228 56.5654 170.04C56.5654 170.609 56.374 171.081 55.9914 171.454C55.618 171.818 55.0767 172 54.3674 172H50.9654V165H54.0874C54.7687 165 55.296 165.177 55.6694 165.532C56.0427 165.877 56.2294 166.325 56.2294 166.876C56.2294 167.576 55.9587 168.085 55.4174 168.402ZM54.0874 165.896H51.8894V168.024H54.0874C54.8994 168.024 55.3054 167.66 55.3054 166.932C55.3054 166.605 55.198 166.353 54.9834 166.176C54.778 165.989 54.4794 165.896 54.0874 165.896ZM54.3674 171.104C54.778 171.104 55.0907 171.006 55.3054 170.81C55.5294 170.614 55.6414 170.339 55.6414 169.984C55.6414 169.657 55.5294 169.401 55.3054 169.214C55.0907 169.018 54.778 168.92 54.3674 168.92H51.8894V171.104H54.3674ZM62.7319 165V165.896H60.2539V172H59.3299V165.896H56.8519V165H62.7319ZM69.4505 171.118C68.7412 171.818 67.8732 172.168 66.8465 172.168C65.8198 172.168 64.9472 171.818 64.2285 171.118C63.5192 170.409 63.1645 169.536 63.1645 168.5C63.1645 167.464 63.5192 166.596 64.2285 165.896C64.9472 165.187 65.8198 164.832 66.8465 164.832C67.8732 164.832 68.7412 165.187 69.4505 165.896C70.1692 166.596 70.5285 167.464 70.5285 168.5C70.5285 169.536 70.1692 170.409 69.4505 171.118ZM64.8865 170.474C65.4185 171.006 66.0718 171.272 66.8465 171.272C67.6212 171.272 68.2745 171.006 68.8065 170.474C69.3385 169.933 69.6045 169.275 69.6045 168.5C69.6045 167.725 69.3385 167.072 68.8065 166.54C68.2745 165.999 67.6212 165.728 66.8465 165.728C66.0718 165.728 65.4185 165.999 64.8865 166.54C64.3545 167.072 64.0885 167.725 64.0885 168.5C64.0885 169.275 64.3545 169.933 64.8865 170.474ZM78.9347 165V172H78.0107V166.414L75.5607 170.39H75.4487L72.9987 166.414V172H72.0747V165H73.1387L75.5047 168.836L77.8707 165H78.9347ZM86.9131 165H87.8371V172H86.9131V170.628C86.2691 171.655 85.3264 172.168 84.0851 172.168C83.0864 172.168 82.2324 171.813 81.5231 171.104C80.8231 170.395 80.4731 169.527 80.4731 168.5C80.4731 167.473 80.8231 166.605 81.5231 165.896C82.2324 165.187 83.0864 164.832 84.0851 164.832C85.3264 164.832 86.2691 165.345 86.9131 166.372V165ZM82.1951 170.474C82.7271 171.006 83.3804 171.272 84.1551 171.272C84.9298 171.272 85.5831 171.006 86.1151 170.474C86.6471 169.933 86.9131 169.275 86.9131 168.5C86.9131 167.725 86.6471 167.072 86.1151 166.54C85.5831 165.999 84.9298 165.728 84.1551 165.728C83.3804 165.728 82.7271 165.999 82.1951 166.54C81.6631 167.072 81.3971 167.725 81.3971 168.5C81.3971 169.275 81.6631 169.933 82.1951 170.474ZM94.8335 165V165.896H92.3555V172H91.4315V165.896H88.9535V165H94.8335ZM101.055 165H101.839V172H100.915V166.61L96.7435 172H95.9595V165H96.8835V170.39L101.055 165ZM107.405 168.402C108.217 168.71 108.623 169.27 108.623 170.082C108.623 170.661 108.395 171.155 107.937 171.566C107.489 171.967 106.845 172.168 106.005 172.168C104.596 172.168 103.672 171.608 103.233 170.488L104.017 170.026C104.307 170.857 104.969 171.272 106.005 171.272C106.547 171.272 106.962 171.155 107.251 170.922C107.55 170.689 107.699 170.39 107.699 170.026C107.699 169.699 107.578 169.433 107.335 169.228C107.093 169.023 106.766 168.92 106.355 168.92H105.333V168.024H106.075C106.477 168.024 106.789 167.926 107.013 167.73C107.247 167.525 107.363 167.245 107.363 166.89C107.363 166.554 107.228 166.279 106.957 166.064C106.687 165.84 106.323 165.728 105.865 165.728C104.988 165.728 104.405 166.078 104.115 166.778L103.345 166.33C103.812 165.331 104.652 164.832 105.865 164.832C106.603 164.832 107.191 165.028 107.629 165.42C108.068 165.803 108.287 166.274 108.287 166.834C108.287 167.553 107.993 168.075 107.405 168.402ZM115.124 165H115.908V172H114.984V166.61L110.812 172H110.028V165H110.952V170.39L115.124 165ZM121.614 164.832C122.613 164.832 123.462 165.187 124.162 165.896C124.871 166.605 125.226 167.473 125.226 168.5C125.226 169.527 124.871 170.395 124.162 171.104C123.462 171.813 122.613 172.168 121.614 172.168C120.373 172.168 119.43 171.655 118.786 170.628V174.8H117.862V165H118.786V166.372C119.43 165.345 120.373 164.832 121.614 164.832ZM119.584 170.474C120.116 171.006 120.769 171.272 121.544 171.272C122.319 171.272 122.972 171.006 123.504 170.474C124.036 169.933 124.302 169.275 124.302 168.5C124.302 167.725 124.036 167.072 123.504 166.54C122.972 165.999 122.319 165.728 121.544 165.728C120.769 165.728 120.116 165.999 119.584 166.54C119.052 167.072 118.786 167.725 118.786 168.5C118.786 169.275 119.052 169.933 119.584 170.474ZM132.628 171.118C131.919 171.818 131.051 172.168 130.024 172.168C128.998 172.168 128.125 171.818 127.406 171.118C126.697 170.409 126.342 169.536 126.342 168.5C126.342 167.464 126.697 166.596 127.406 165.896C128.125 165.187 128.998 164.832 130.024 164.832C131.051 164.832 131.919 165.187 132.628 165.896C133.347 166.596 133.706 167.464 133.706 168.5C133.706 169.536 133.347 170.409 132.628 171.118ZM128.064 170.474C128.596 171.006 129.25 171.272 130.024 171.272C130.799 171.272 131.452 171.006 131.984 170.474C132.516 169.933 132.782 169.275 132.782 168.5C132.782 167.725 132.516 167.072 131.984 166.54C131.452 165.999 130.799 165.728 130.024 165.728C129.25 165.728 128.596 165.999 128.064 166.54C127.532 167.072 127.266 167.725 127.266 168.5C127.266 169.275 127.532 169.933 128.064 170.474ZM139.704 168.402C140.47 168.682 140.852 169.228 140.852 170.04C140.852 170.609 140.661 171.081 140.278 171.454C139.905 171.818 139.364 172 138.654 172H135.252V165H138.374C139.056 165 139.583 165.177 139.956 165.532C140.33 165.877 140.516 166.325 140.516 166.876C140.516 167.576 140.246 168.085 139.704 168.402ZM138.374 165.896H136.176V168.024H138.374C139.186 168.024 139.592 167.66 139.592 166.932C139.592 166.605 139.485 166.353 139.27 166.176C139.065 165.989 138.766 165.896 138.374 165.896ZM138.654 171.104C139.065 171.104 139.378 171.006 139.592 170.81C139.816 170.614 139.928 170.339 139.928 169.984C139.928 169.657 139.816 169.401 139.592 169.214C139.378 169.018 139.065 168.92 138.654 168.92H136.176V171.104H138.654ZM148.272 165H149.196V172H148.272V170.628C147.628 171.655 146.686 172.168 145.444 172.168C144.446 172.168 143.592 171.813 142.882 171.104C142.182 170.395 141.832 169.527 141.832 168.5C141.832 167.473 142.182 166.605 142.882 165.896C143.592 165.187 144.446 164.832 145.444 164.832C146.686 164.832 147.628 165.345 148.272 166.372V165ZM143.554 170.474C144.086 171.006 144.74 171.272 145.514 171.272C146.289 171.272 146.942 171.006 147.474 170.474C148.006 169.933 148.272 169.275 148.272 168.5C148.272 167.725 148.006 167.072 147.474 166.54C146.942 165.999 146.289 165.728 145.514 165.728C144.74 165.728 144.086 165.999 143.554 166.54C143.022 167.072 142.756 167.725 142.756 168.5C142.756 169.275 143.022 169.933 143.554 170.474ZM156.193 165V165.896H153.715V172H152.791V165.896H150.313V165H156.193ZM160.161 167.66C160.814 167.66 161.365 167.865 161.813 168.276C162.27 168.677 162.499 169.195 162.499 169.83C162.499 170.465 162.27 170.987 161.813 171.398C161.365 171.799 160.814 172 160.161 172H157.319V165H158.243V167.66H160.161ZM160.161 171.104C160.553 171.104 160.884 170.987 161.155 170.754C161.435 170.521 161.575 170.213 161.575 169.83C161.575 169.447 161.435 169.139 161.155 168.906C160.884 168.673 160.553 168.556 160.161 168.556H158.243V171.104H160.161ZM50.6653 187.118C49.956 187.818 49.088 188.168 48.0613 188.168C47.0347 188.168 46.162 187.818 45.4433 187.118C44.734 186.409 44.3793 185.536 44.3793 184.5C44.3793 183.464 44.734 182.596 45.4433 181.896C46.162 181.187 47.0347 180.832 48.0613 180.832C49.088 180.832 49.956 181.187 50.6653 181.896C51.384 182.596 51.7433 183.464 51.7433 184.5C51.7433 185.536 51.384 186.409 50.6653 187.118ZM46.1013 186.474C46.6333 187.006 47.2867 187.272 48.0613 187.272C48.836 187.272 49.4893 187.006 50.0213 186.474C50.5533 185.933 50.8193 185.275 50.8193 184.5C50.8193 183.725 50.5533 183.072 50.0213 182.54C49.4893 181.999 48.836 181.728 48.0613 181.728C47.2867 181.728 46.6333 181.999 46.1013 182.54C45.5693 183.072 45.3033 183.725 45.3033 184.5C45.3033 185.275 45.5693 185.933 46.1013 186.474ZM57.0416 180.832C58.0402 180.832 58.8896 181.187 59.5896 181.896C60.2989 182.605 60.6536 183.473 60.6536 184.5C60.6536 185.527 60.2989 186.395 59.5896 187.104C58.8896 187.813 58.0402 188.168 57.0416 188.168C55.8002 188.168 54.8576 187.655 54.2136 186.628V190.8H53.2896V181H54.2136V182.372C54.8576 181.345 55.8002 180.832 57.0416 180.832ZM55.0116 186.474C55.5436 187.006 56.1969 187.272 56.9716 187.272C57.7462 187.272 58.3996 187.006 58.9316 186.474C59.4636 185.933 59.7296 185.275 59.7296 184.5C59.7296 183.725 59.4636 183.072 58.9316 182.54C58.3996 181.999 57.7462 181.728 56.9716 181.728C56.1969 181.728 55.5436 181.999 55.0116 182.54C54.4796 183.072 54.2136 183.725 54.2136 184.5C54.2136 185.275 54.4796 185.933 55.0116 186.474ZM66.67 181V181.896H63.114V188H62.19V181H66.67ZM73.542 181H74.466V188H73.542V186.628C72.898 187.655 71.9553 188.168 70.714 188.168C69.7153 188.168 68.8613 187.813 68.152 187.104C67.452 186.395 67.102 185.527 67.102 184.5C67.102 183.473 67.452 182.605 68.152 181.896C68.8613 181.187 69.7153 180.832 70.714 180.832C71.9553 180.832 72.898 181.345 73.542 182.372V181ZM68.824 186.474C69.356 187.006 70.0093 187.272 70.784 187.272C71.5587 187.272 72.212 187.006 72.744 186.474C73.276 185.933 73.542 185.275 73.542 184.5C73.542 183.725 73.276 183.072 72.744 182.54C72.212 181.999 71.5587 181.728 70.784 181.728C70.0093 181.728 69.356 181.999 68.824 182.54C68.292 183.072 68.026 183.725 68.026 184.5C68.026 185.275 68.292 185.933 68.824 186.474ZM81.3784 181H82.3024V188H81.3784V184.948H77.3464V188H76.4224V181H77.3464V184.052H81.3784V181ZM89.3524 181H90.1364V188H89.2124V182.61L85.0404 188H84.2564V181H85.1804V186.39L89.3524 181ZM95.7024 184.402C96.5144 184.71 96.9204 185.27 96.9204 186.082C96.9204 186.661 96.6917 187.155 96.2344 187.566C95.7864 187.967 95.1424 188.168 94.3024 188.168C92.893 188.168 91.969 187.608 91.5304 186.488L92.3144 186.026C92.6037 186.857 93.2664 187.272 94.3024 187.272C94.8437 187.272 95.259 187.155 95.5484 186.922C95.847 186.689 95.9964 186.39 95.9964 186.026C95.9964 185.699 95.875 185.433 95.6324 185.228C95.3897 185.023 95.063 184.92 94.6524 184.92H93.6304V184.024H94.3724C94.7737 184.024 95.0864 183.926 95.3104 183.73C95.5437 183.525 95.6604 183.245 95.6604 182.89C95.6604 182.554 95.525 182.279 95.2544 182.064C94.9837 181.84 94.6197 181.728 94.1624 181.728C93.285 181.728 92.7017 182.078 92.4124 182.778L91.6424 182.33C92.109 181.331 92.949 180.832 94.1624 180.832C94.8997 180.832 95.4877 181.028 95.9264 181.42C96.365 181.803 96.5844 182.274 96.5844 182.834C96.5844 183.553 96.2904 184.075 95.7024 184.402ZM104.345 181H105.269V188H104.345V186.628C103.701 187.655 102.758 188.168 101.517 188.168C100.518 188.168 99.6641 187.813 98.9547 187.104C98.2547 186.395 97.9047 185.527 97.9047 184.5C97.9047 183.473 98.2547 182.605 98.9547 181.896C99.6641 181.187 100.518 180.832 101.517 180.832C102.758 180.832 103.701 181.345 104.345 182.372V181ZM99.6267 186.474C100.159 187.006 100.812 187.272 101.587 187.272C102.361 187.272 103.015 187.006 103.547 186.474C104.079 185.933 104.345 185.275 104.345 184.5C104.345 183.725 104.079 183.072 103.547 182.54C103.015 181.999 102.361 181.728 101.587 181.728C100.812 181.728 100.159 181.999 99.6267 182.54C99.0947 183.072 98.8287 183.725 98.8287 184.5C98.8287 185.275 99.0947 185.933 99.6267 186.474ZM112.265 181V181.896H109.787V188H108.863V181.896H106.385V181H112.265ZM118.984 187.118C118.274 187.818 117.406 188.168 116.38 188.168C115.353 188.168 114.48 187.818 113.762 187.118C113.052 186.409 112.698 185.536 112.698 184.5C112.698 183.464 113.052 182.596 113.762 181.896C114.48 181.187 115.353 180.832 116.38 180.832C117.406 180.832 118.274 181.187 118.984 181.896C119.702 182.596 120.062 183.464 120.062 184.5C120.062 185.536 119.702 186.409 118.984 187.118ZM114.42 186.474C114.952 187.006 115.605 187.272 116.38 187.272C117.154 187.272 117.808 187.006 118.34 186.474C118.872 185.933 119.138 185.275 119.138 184.5C119.138 183.725 118.872 183.072 118.34 182.54C117.808 181.999 117.154 181.728 116.38 181.728C115.605 181.728 114.952 181.999 114.42 182.54C113.888 183.072 113.622 183.725 113.622 184.5C113.622 185.275 113.888 185.933 114.42 186.474ZM125.36 180.832C126.359 180.832 127.208 181.187 127.908 181.896C128.617 182.605 128.972 183.473 128.972 184.5C128.972 185.527 128.617 186.395 127.908 187.104C127.208 187.813 126.359 188.168 125.36 188.168C124.119 188.168 123.176 187.655 122.532 186.628V190.8H121.608V181H122.532V182.372C123.176 181.345 124.119 180.832 125.36 180.832ZM123.33 186.474C123.862 187.006 124.515 187.272 125.29 187.272C126.065 187.272 126.718 187.006 127.25 186.474C127.782 185.933 128.048 185.275 128.048 184.5C128.048 183.725 127.782 183.072 127.25 182.54C126.718 181.999 126.065 181.728 125.29 181.728C124.515 181.728 123.862 181.999 123.33 182.54C122.798 183.072 122.532 183.725 122.532 184.5C122.532 185.275 122.798 185.933 123.33 186.474ZM133.77 188.168C132.716 188.168 131.838 187.818 131.138 187.118C130.438 186.409 130.088 185.536 130.088 184.5C130.088 183.464 130.438 182.596 131.138 181.896C131.838 181.187 132.716 180.832 133.77 180.832C134.461 180.832 135.082 181 135.632 181.336C136.183 181.663 136.584 182.106 136.836 182.666L136.08 183.1C135.894 182.68 135.59 182.349 135.17 182.106C134.76 181.854 134.293 181.728 133.77 181.728C132.996 181.728 132.342 181.999 131.81 182.54C131.278 183.072 131.012 183.725 131.012 184.5C131.012 185.275 131.278 185.933 131.81 186.474C132.342 187.006 132.996 187.272 133.77 187.272C134.293 187.272 134.76 187.151 135.17 186.908C135.581 186.656 135.903 186.32 136.136 185.9L136.906 186.348C136.617 186.908 136.192 187.351 135.632 187.678C135.072 188.005 134.452 188.168 133.77 188.168ZM143.889 188H142.657L139.157 184.626V188H138.233V181H139.157V184.094L142.489 181H143.749L140.137 184.36L143.889 188ZM150.247 181H151.031V188H150.107V182.61L145.935 188H145.151V181H146.075V186.39L150.247 181ZM156.219 180.832C157.255 180.832 158.09 181.201 158.725 181.938C159.369 182.666 159.691 183.529 159.691 184.528C159.691 184.631 159.682 184.775 159.663 184.962H153.517C153.61 185.671 153.909 186.236 154.413 186.656C154.926 187.067 155.556 187.272 156.303 187.272C156.835 187.272 157.292 187.165 157.675 186.95C158.067 186.726 158.361 186.437 158.557 186.082L159.369 186.558C159.061 187.053 158.641 187.445 158.109 187.734C157.577 188.023 156.97 188.168 156.289 188.168C155.188 188.168 154.292 187.823 153.601 187.132C152.91 186.441 152.565 185.564 152.565 184.5C152.565 183.455 152.906 182.582 153.587 181.882C154.268 181.182 155.146 180.832 156.219 180.832ZM156.219 181.728C155.491 181.728 154.88 181.947 154.385 182.386C153.9 182.815 153.61 183.375 153.517 184.066H158.739C158.646 183.329 158.361 182.755 157.885 182.344C157.409 181.933 156.854 181.728 156.219 181.728ZM20.567 197V204H19.643V197.896H15.611V204H14.687V197H20.567ZM26.273 196.832C27.2717 196.832 28.121 197.187 28.821 197.896C29.5303 198.605 29.885 199.473 29.885 200.5C29.885 201.527 29.5303 202.395 28.821 203.104C28.121 203.813 27.2717 204.168 26.273 204.168C25.0317 204.168 24.089 203.655 23.445 202.628V206.8H22.521V197H23.445V198.372C24.089 197.345 25.0317 196.832 26.273 196.832ZM24.243 202.474C24.775 203.006 25.4283 203.272 26.203 203.272C26.9777 203.272 27.631 203.006 28.163 202.474C28.695 201.933 28.961 201.275 28.961 200.5C28.961 199.725 28.695 199.072 28.163 198.54C27.631 197.999 26.9777 197.728 26.203 197.728C25.4283 197.728 24.775 197.999 24.243 198.54C23.711 199.072 23.445 199.725 23.445 200.5C23.445 201.275 23.711 201.933 24.243 202.474ZM37.2874 203.118C36.5781 203.818 35.7101 204.168 34.6834 204.168C33.6567 204.168 32.7841 203.818 32.0654 203.118C31.3561 202.409 31.0014 201.536 31.0014 200.5C31.0014 199.464 31.3561 198.596 32.0654 197.896C32.7841 197.187 33.6567 196.832 34.6834 196.832C35.7101 196.832 36.5781 197.187 37.2874 197.896C38.0061 198.596 38.3654 199.464 38.3654 200.5C38.3654 201.536 38.0061 202.409 37.2874 203.118ZM32.7234 202.474C33.2554 203.006 33.9087 203.272 34.6834 203.272C35.4581 203.272 36.1114 203.006 36.6434 202.474C37.1754 201.933 37.4414 201.275 37.4414 200.5C37.4414 199.725 37.1754 199.072 36.6434 198.54C36.1114 197.999 35.4581 197.728 34.6834 197.728C33.9087 197.728 33.2554 197.999 32.7234 198.54C32.1914 199.072 31.9254 199.725 31.9254 200.5C31.9254 201.275 32.1914 201.933 32.7234 202.474ZM45.6516 203.104H46.7716V205.876H45.8476V204H39.9116V197H40.8356V203.104H44.7276V197H45.6516V203.104ZM51.13 196.832C52.166 196.832 53.0013 197.201 53.636 197.938C54.28 198.666 54.602 199.529 54.602 200.528C54.602 200.631 54.5927 200.775 54.574 200.962H48.428C48.5213 201.671 48.82 202.236 49.324 202.656C49.8373 203.067 50.4673 203.272 51.214 203.272C51.746 203.272 52.2033 203.165 52.586 202.95C52.978 202.726 53.272 202.437 53.468 202.082L54.28 202.558C53.972 203.053 53.552 203.445 53.02 203.734C52.488 204.023 51.8813 204.168 51.2 204.168C50.0987 204.168 49.2027 203.823 48.512 203.132C47.8213 202.441 47.476 201.564 47.476 200.5C47.476 199.455 47.8167 198.582 48.498 197.882C49.1793 197.182 50.0567 196.832 51.13 196.832ZM51.13 197.728C50.402 197.728 49.7907 197.947 49.296 198.386C48.8107 198.815 48.5213 199.375 48.428 200.066H53.65C53.5567 199.329 53.272 198.755 52.796 198.344C52.32 197.933 51.7647 197.728 51.13 197.728ZM59.3338 204.168C58.2791 204.168 57.4018 203.818 56.7018 203.118C56.0018 202.409 55.6518 201.536 55.6518 200.5C55.6518 199.464 56.0018 198.596 56.7018 197.896C57.4018 197.187 58.2791 196.832 59.3338 196.832C60.0245 196.832 60.6451 197 61.1958 197.336C61.7465 197.663 62.1478 198.106 62.3998 198.666L61.6438 199.1C61.4571 198.68 61.1538 198.349 60.7338 198.106C60.3231 197.854 59.8565 197.728 59.3338 197.728C58.5591 197.728 57.9058 197.999 57.3738 198.54C56.8418 199.072 56.5758 199.725 56.5758 200.5C56.5758 201.275 56.8418 201.933 57.3738 202.474C57.9058 203.006 58.5591 203.272 59.3338 203.272C59.8565 203.272 60.3231 203.151 60.7338 202.908C61.1445 202.656 61.4665 202.32 61.6998 201.9L62.4698 202.348C62.1805 202.908 61.7558 203.351 61.1958 203.678C60.6358 204.005 60.0151 204.168 59.3338 204.168ZM66.99 204.168C65.9354 204.168 65.058 203.818 64.358 203.118C63.658 202.409 63.308 201.536 63.308 200.5C63.308 199.464 63.658 198.596 64.358 197.896C65.058 197.187 65.9354 196.832 66.99 196.832C67.6807 196.832 68.3014 197 68.852 197.336C69.4027 197.663 69.804 198.106 70.056 198.666L69.3 199.1C69.1134 198.68 68.81 198.349 68.39 198.106C67.9794 197.854 67.5127 197.728 66.99 197.728C66.2154 197.728 65.562 197.999 65.03 198.54C64.498 199.072 64.232 199.725 64.232 200.5C64.232 201.275 64.498 201.933 65.03 202.474C65.562 203.006 66.2154 203.272 66.99 203.272C67.5127 203.272 67.9794 203.151 68.39 202.908C68.8007 202.656 69.1227 202.32 69.356 201.9L70.126 202.348C69.8367 202.908 69.412 203.351 68.852 203.678C68.292 204.005 67.6714 204.168 66.99 204.168ZM74.2947 199.66C74.948 199.66 75.4987 199.865 75.9467 200.276C76.404 200.677 76.6327 201.195 76.6327 201.83C76.6327 202.465 76.404 202.987 75.9467 203.398C75.4987 203.799 74.948 204 74.2947 204H71.4527V197H72.3767V199.66H74.2947ZM77.6127 197H78.5367V204H77.6127V197ZM74.2947 203.104C74.6867 203.104 75.018 202.987 75.2887 202.754C75.5687 202.521 75.7087 202.213 75.7087 201.83C75.7087 201.447 75.5687 201.139 75.2887 200.906C75.018 200.673 74.6867 200.556 74.2947 200.556H72.3767V203.104H74.2947ZM89.0434 197V197.896H86.5654V204H85.6414V197.896H83.1634V197H89.0434ZM95.2095 197H96.1895L93.1935 204.644C92.9228 205.335 92.5355 205.876 92.0315 206.268C91.5368 206.669 90.9815 206.847 90.3655 206.8V205.932C91.2055 206.025 91.8448 205.54 92.2835 204.476L92.4655 204.042L89.3295 197H90.3095L92.9415 202.866L95.2095 197ZM101.058 196.832C102.057 196.832 102.906 197.187 103.606 197.896C104.316 198.605 104.67 199.473 104.67 200.5C104.67 201.527 104.316 202.395 103.606 203.104C102.906 203.813 102.057 204.168 101.058 204.168C99.8168 204.168 98.8742 203.655 98.2302 202.628V206.8H97.3062V197H98.2302V198.372C98.8742 197.345 99.8168 196.832 101.058 196.832ZM99.0282 202.474C99.5602 203.006 100.214 203.272 100.988 203.272C101.763 203.272 102.416 203.006 102.948 202.474C103.48 201.933 103.746 201.275 103.746 200.5C103.746 199.725 103.48 199.072 102.948 198.54C102.416 197.999 101.763 197.728 100.988 197.728C100.214 197.728 99.5602 197.999 99.0282 198.54C98.4962 199.072 98.2302 199.725 98.2302 200.5C98.2302 201.275 98.4962 201.933 99.0282 202.474ZM111.163 197H112.087V204H111.163V200.948H107.131V204H106.207V197H107.131V200.052H111.163V197ZM119.137 197H119.921V204H118.997V198.61L114.825 204H114.041V197H114.965V202.39L119.137 197ZM125.627 196.832C126.625 196.832 127.475 197.187 128.175 197.896C128.884 198.605 129.239 199.473 129.239 200.5C129.239 201.527 128.884 202.395 128.175 203.104C127.475 203.813 126.625 204.168 125.627 204.168C124.385 204.168 123.443 203.655 122.799 202.628V206.8H121.875V197H122.799V198.372C123.443 197.345 124.385 196.832 125.627 196.832ZM123.597 202.474C124.129 203.006 124.782 203.272 125.557 203.272C126.331 203.272 126.985 203.006 127.517 202.474C128.049 201.933 128.315 201.275 128.315 200.5C128.315 199.725 128.049 199.072 127.517 198.54C126.985 197.999 126.331 197.728 125.557 197.728C124.782 197.728 124.129 197.999 123.597 198.54C123.065 199.072 122.799 199.725 122.799 200.5C122.799 201.275 123.065 201.933 123.597 202.474ZM136.795 197H137.719V204H136.795V202.628C136.151 203.655 135.208 204.168 133.967 204.168C132.968 204.168 132.114 203.813 131.405 203.104C130.705 202.395 130.355 201.527 130.355 200.5C130.355 199.473 130.705 198.605 131.405 197.896C132.114 197.187 132.968 196.832 133.967 196.832C135.208 196.832 136.151 197.345 136.795 198.372V197ZM132.077 202.474C132.609 203.006 133.262 203.272 134.037 203.272C134.812 203.272 135.465 203.006 135.997 202.474C136.529 201.933 136.795 201.275 136.795 200.5C136.795 199.725 136.529 199.072 135.997 198.54C135.465 197.999 134.812 197.728 134.037 197.728C133.262 197.728 132.609 197.999 132.077 198.54C131.545 199.072 131.279 199.725 131.279 200.5C131.279 201.275 131.545 201.933 132.077 202.474ZM148.271 197H149.055V204H148.131V198.61L143.959 204H143.175V197H144.099V202.39L148.271 197ZM158.961 200.402C159.727 200.682 160.109 201.228 160.109 202.04C160.109 202.609 159.918 203.081 159.535 203.454C159.162 203.818 158.621 204 157.911 204H154.509V197H157.631C158.313 197 158.84 197.177 159.213 197.532C159.587 197.877 159.773 198.325 159.773 198.876C159.773 199.576 159.503 200.085 158.961 200.402ZM157.631 197.896H155.433V200.024H157.631C158.443 200.024 158.849 199.66 158.849 198.932C158.849 198.605 158.742 198.353 158.527 198.176C158.322 197.989 158.023 197.896 157.631 197.896ZM157.911 203.104C158.322 203.104 158.635 203.006 158.849 202.81C159.073 202.614 159.185 202.339 159.185 201.984C159.185 201.657 159.073 201.401 158.849 201.214C158.635 201.018 158.322 200.92 157.911 200.92H155.433V203.104H157.911ZM164.743 196.832C165.779 196.832 166.615 197.201 167.249 197.938C167.893 198.666 168.215 199.529 168.215 200.528C168.215 200.631 168.206 200.775 168.187 200.962H162.041C162.135 201.671 162.433 202.236 162.937 202.656C163.451 203.067 164.081 203.272 164.827 203.272C165.359 203.272 165.817 203.165 166.199 202.95C166.591 202.726 166.885 202.437 167.081 202.082L167.893 202.558C167.585 203.053 167.165 203.445 166.633 203.734C166.101 204.023 165.495 204.168 164.813 204.168C163.712 204.168 162.816 203.823 162.125 203.132C161.435 202.441 161.089 201.564 161.089 200.5C161.089 199.455 161.43 198.582 162.111 197.882C162.793 197.182 163.67 196.832 164.743 196.832ZM164.743 197.728C164.015 197.728 163.404 197.947 162.909 198.386C162.424 198.815 162.135 199.375 162.041 200.066H167.263C167.17 199.329 166.885 198.755 166.409 198.344C165.933 197.933 165.378 197.728 164.743 197.728ZM172.947 204.168C171.892 204.168 171.015 203.818 170.315 203.118C169.615 202.409 169.265 201.536 169.265 200.5C169.265 199.464 169.615 198.596 170.315 197.896C171.015 197.187 171.892 196.832 172.947 196.832C173.638 196.832 174.258 197 174.809 197.336C175.36 197.663 175.761 198.106 176.013 198.666L175.257 199.1C175.07 198.68 174.767 198.349 174.347 198.106C173.936 197.854 173.47 197.728 172.947 197.728C172.172 197.728 171.519 197.999 170.987 198.54C170.455 199.072 170.189 199.725 170.189 200.5C170.189 201.275 170.455 201.933 170.987 202.474C171.519 203.006 172.172 203.272 172.947 203.272C173.47 203.272 173.936 203.151 174.347 202.908C174.758 202.656 175.08 202.32 175.313 201.9L176.083 202.348C175.794 202.908 175.369 203.351 174.809 203.678C174.249 204.005 173.628 204.168 172.947 204.168ZM182.313 197V197.896H179.835V204H178.911V197.896H176.433V197H182.313ZM188.535 197H189.319V204H188.395V198.61L184.223 204H183.439V197H184.363V202.39L188.535 197ZM47.6927 216.402C48.4581 216.682 48.8407 217.228 48.8407 218.04C48.8407 218.609 48.6494 219.081 48.2667 219.454C47.8934 219.818 47.3521 220 46.6427 220H43.2407V213H46.3627C47.0441 213 47.5714 213.177 47.9447 213.532C48.3181 213.877 48.5047 214.325 48.5047 214.876C48.5047 215.576 48.2341 216.085 47.6927 216.402ZM46.3627 213.896H44.1647V216.024H46.3627C47.1747 216.024 47.5807 215.66 47.5807 214.932C47.5807 214.605 47.4734 214.353 47.2587 214.176C47.0534 213.989 46.7547 213.896 46.3627 213.896ZM46.6427 219.104C47.0534 219.104 47.3661 219.006 47.5807 218.81C47.8047 218.614 47.9167 218.339 47.9167 217.984C47.9167 217.657 47.8047 217.401 47.5807 217.214C47.3661 217.018 47.0534 216.92 46.6427 216.92H44.1647V219.104H46.6427ZM53.5027 220.168C52.4481 220.168 51.5707 219.818 50.8707 219.118C50.1707 218.409 49.8207 217.536 49.8207 216.5C49.8207 215.464 50.1707 214.596 50.8707 213.896C51.5707 213.187 52.4481 212.832 53.5027 212.832C54.1934 212.832 54.8141 213 55.3647 213.336C55.9154 213.663 56.3167 214.106 56.5687 214.666L55.8127 215.1C55.6261 214.68 55.3227 214.349 54.9027 214.106C54.4921 213.854 54.0254 213.728 53.5027 213.728C52.7281 213.728 52.0747 213.999 51.5427 214.54C51.0107 215.072 50.7447 215.725 50.7447 216.5C50.7447 217.275 51.0107 217.933 51.5427 218.474C52.0747 219.006 52.7281 219.272 53.5027 219.272C54.0254 219.272 54.4921 219.151 54.9027 218.908C55.3134 218.656 55.6354 218.32 55.8687 217.9L56.6387 218.348C56.3494 218.908 55.9247 219.351 55.3647 219.678C54.8047 220.005 54.1841 220.168 53.5027 220.168ZM63.9434 212.832C64.97 212.832 65.838 213.187 66.5474 213.896C67.266 214.596 67.6254 215.464 67.6254 216.5C67.6254 217.536 67.266 218.409 66.5474 219.118C65.838 219.818 64.97 220.168 63.9434 220.168C63.0007 220.168 62.1887 219.865 61.5074 219.258C60.8354 218.642 60.448 217.872 60.3454 216.948H58.8894V220H57.9654V213H58.8894V216.052H60.3454C60.448 215.128 60.8354 214.363 61.5074 213.756C62.1887 213.14 63.0007 212.832 63.9434 212.832ZM61.9834 218.474C62.5154 219.006 63.1687 219.272 63.9434 219.272C64.718 219.272 65.3714 219.006 65.9034 218.474C66.4354 217.933 66.7014 217.275 66.7014 216.5C66.7014 215.725 66.4354 215.072 65.9034 214.54C65.3714 213.999 64.718 213.728 63.9434 213.728C63.1687 213.728 62.5154 213.999 61.9834 214.54C61.4514 215.072 61.1854 215.725 61.1854 216.5C61.1854 217.275 61.4514 217.933 61.9834 218.474ZM77.6186 213H78.5426V220H77.6186V216.948H73.5866V220H72.6626V213H73.5866V216.052H77.6186V213ZM83.7306 212.832C84.7666 212.832 85.6019 213.201 86.2366 213.938C86.8806 214.666 87.2026 215.529 87.2026 216.528C87.2026 216.631 87.1933 216.775 87.1746 216.962H81.0286C81.1219 217.671 81.4206 218.236 81.9246 218.656C82.4379 219.067 83.0679 219.272 83.8146 219.272C84.3466 219.272 84.8039 219.165 85.1866 218.95C85.5786 218.726 85.8726 218.437 86.0686 218.082L86.8806 218.558C86.5726 219.053 86.1526 219.445 85.6206 219.734C85.0886 220.023 84.4819 220.168 83.8006 220.168C82.6993 220.168 81.8033 219.823 81.1126 219.132C80.4219 218.441 80.0766 217.564 80.0766 216.5C80.0766 215.455 80.4173 214.582 81.0986 213.882C81.7799 213.182 82.6573 212.832 83.7306 212.832ZM83.7306 213.728C83.0026 213.728 82.3913 213.947 81.8966 214.386C81.4113 214.815 81.1219 215.375 81.0286 216.066H86.2506C86.1573 215.329 85.8726 214.755 85.3966 214.344C84.9206 213.933 84.3653 213.728 83.7306 213.728ZM94.5384 219.118C93.829 219.818 92.961 220.168 91.9344 220.168C90.9077 220.168 90.035 219.818 89.3164 219.118C88.607 218.409 88.2524 217.536 88.2524 216.5C88.2524 215.464 88.607 214.596 89.3164 213.896C90.035 213.187 90.9077 212.832 91.9344 212.832C92.961 212.832 93.829 213.187 94.5384 213.896C95.257 214.596 95.6164 215.464 95.6164 216.5C95.6164 217.536 95.257 218.409 94.5384 219.118ZM89.9744 218.474C90.5064 219.006 91.1597 219.272 91.9344 219.272C92.709 219.272 93.3624 219.006 93.8944 218.474C94.4264 217.933 94.6924 217.275 94.6924 216.5C94.6924 215.725 94.4264 215.072 93.8944 214.54C93.3624 213.999 92.709 213.728 91.9344 213.728C91.1597 213.728 90.5064 213.999 89.9744 214.54C89.4424 215.072 89.1764 215.725 89.1764 216.5C89.1764 217.275 89.4424 217.933 89.9744 218.474ZM100.271 220.168C99.2626 220.168 98.4226 219.837 97.7506 219.174C97.0786 218.502 96.7426 217.634 96.7426 216.57C96.7426 215.375 96.92 214.461 97.2746 213.826C97.6293 213.182 98.348 212.599 99.4306 212.076C99.636 211.973 99.9066 211.852 100.243 211.712C100.588 211.572 100.845 211.46 101.013 211.376C101.19 211.292 101.381 211.185 101.587 211.054C101.792 210.914 101.946 210.76 102.049 210.592C102.151 210.424 102.217 210.223 102.245 209.99L102.973 210.41C102.935 210.634 102.861 210.844 102.749 211.04C102.637 211.236 102.52 211.395 102.399 211.516C102.287 211.637 102.105 211.773 101.853 211.922C101.61 212.062 101.419 212.165 101.279 212.23C101.148 212.286 100.915 212.384 100.579 212.524C100.252 212.664 100.033 212.757 99.9206 212.804C99.2673 213.084 98.7866 213.378 98.4786 213.686C98.1706 213.985 97.9513 214.377 97.8206 214.862C98.138 214.442 98.5393 214.134 99.0246 213.938C99.5193 213.733 100 213.63 100.467 213.63C101.4 213.63 102.17 213.938 102.777 214.554C103.393 215.161 103.701 215.94 103.701 216.892C103.701 217.835 103.374 218.619 102.721 219.244C102.077 219.86 101.26 220.168 100.271 220.168ZM100.271 219.244C100.999 219.244 101.596 219.025 102.063 218.586C102.539 218.138 102.777 217.573 102.777 216.892C102.777 216.201 102.553 215.637 102.105 215.198C101.666 214.75 101.078 214.526 100.341 214.526C99.678 214.526 99.076 214.736 98.5346 215.156C97.9933 215.567 97.7226 216.117 97.7226 216.808C97.7226 217.517 97.9653 218.101 98.4506 218.558C98.9453 219.015 99.552 219.244 100.271 219.244ZM110.494 220H109.388L107.204 217.116L105.02 220H103.914L106.658 216.374L104.096 213H105.202L107.204 215.646L109.206 213H110.312L107.764 216.374L110.494 220ZM117.124 219.118C116.415 219.818 115.547 220.168 114.52 220.168C113.494 220.168 112.621 219.818 111.902 219.118C111.193 218.409 110.838 217.536 110.838 216.5C110.838 215.464 111.193 214.596 111.902 213.896C112.621 213.187 113.494 212.832 114.52 212.832C115.547 212.832 116.415 213.187 117.124 213.896C117.843 214.596 118.202 215.464 118.202 216.5C118.202 217.536 117.843 218.409 117.124 219.118ZM112.56 218.474C113.092 219.006 113.746 219.272 114.52 219.272C115.295 219.272 115.948 219.006 116.48 218.474C117.012 217.933 117.278 217.275 117.278 216.5C117.278 215.725 117.012 215.072 116.48 214.54C115.948 213.999 115.295 213.728 114.52 213.728C113.746 213.728 113.092 213.999 112.56 214.54C112.028 215.072 111.762 215.725 111.762 216.5C111.762 217.275 112.028 217.933 112.56 218.474ZM125.355 219.104H126.335V221.876H125.411V220H119.699V221.876H118.775V219.104H119.629C120.105 218.479 120.343 217.597 120.343 216.458V213H125.355V219.104ZM120.749 219.104H124.431V213.896H121.267V216.458C121.267 217.531 121.094 218.413 120.749 219.104ZM132.829 213H133.613V220H132.689V214.61L128.517 220H127.733V213H128.657V218.39L132.829 213ZM142.427 213V220H141.503V214.414L139.053 218.39H138.941L136.491 214.414V220H135.567V213H136.631L138.997 216.836L141.363 213H142.427ZM149.425 213H150.405L147.409 220.644C147.139 221.335 146.751 221.876 146.247 222.268C145.753 222.669 145.197 222.847 144.581 222.8V221.932C145.421 222.025 146.061 221.54 146.499 220.476L146.681 220.042L143.545 213H144.525L147.157 218.866L149.425 213ZM157.5 212.832C158.527 212.832 159.395 213.187 160.104 213.896C160.823 214.596 161.182 215.464 161.182 216.5C161.182 217.536 160.823 218.409 160.104 219.118C159.395 219.818 158.527 220.168 157.5 220.168C156.557 220.168 155.745 219.865 155.064 219.258C154.392 218.642 154.005 217.872 153.902 216.948H152.446V220H151.522V213H152.446V216.052H153.902C154.005 215.128 154.392 214.363 155.064 213.756C155.745 213.14 156.557 212.832 157.5 212.832ZM155.54 218.474C156.072 219.006 156.725 219.272 157.5 219.272C158.275 219.272 158.928 219.006 159.46 218.474C159.992 217.933 160.258 217.275 160.258 216.5C160.258 215.725 159.992 215.072 159.46 214.54C158.928 213.999 158.275 213.728 157.5 213.728C156.725 213.728 156.072 213.999 155.54 214.54C155.008 215.072 154.742 215.725 154.742 216.5C154.742 217.275 155.008 217.933 155.54 218.474ZM69.3826 236.168C68.328 236.168 67.4506 235.818 66.7506 235.118C66.0506 234.409 65.7006 233.536 65.7006 232.5C65.7006 231.464 66.0506 230.596 66.7506 229.896C67.4506 229.187 68.328 228.832 69.3826 228.832C70.0733 228.832 70.694 229 71.2446 229.336C71.7953 229.663 72.1966 230.106 72.4486 230.666L71.6926 231.1C71.506 230.68 71.2026 230.349 70.7826 230.106C70.372 229.854 69.9053 229.728 69.3826 229.728C68.608 229.728 67.9546 229.999 67.4226 230.54C66.8906 231.072 66.6246 231.725 66.6246 232.5C66.6246 233.275 66.8906 233.933 67.4226 234.474C67.9546 235.006 68.608 235.272 69.3826 235.272C69.9053 235.272 70.372 235.151 70.7826 234.908C71.1933 234.656 71.5153 234.32 71.7486 233.9L72.5186 234.348C72.2293 234.908 71.8046 235.351 71.2446 235.678C70.6846 236.005 70.064 236.168 69.3826 236.168ZM78.7485 229V229.896H76.2705V236H75.3465V229.896H72.8685V229H78.7485ZM85.6211 229H86.5451V236H85.6211V234.628C84.9771 235.655 84.0344 236.168 82.7931 236.168C81.7944 236.168 80.9404 235.813 80.2311 235.104C79.5311 234.395 79.1811 233.527 79.1811 232.5C79.1811 231.473 79.5311 230.605 80.2311 229.896C80.9404 229.187 81.7944 228.832 82.7931 228.832C84.0344 228.832 84.9771 229.345 85.6211 230.372V229ZM80.9031 234.474C81.4351 235.006 82.0884 235.272 82.8631 235.272C83.6378 235.272 84.2911 235.006 84.8231 234.474C85.3551 233.933 85.6211 233.275 85.6211 232.5C85.6211 231.725 85.3551 231.072 84.8231 230.54C84.2911 229.999 83.6378 229.728 82.8631 229.728C82.0884 229.728 81.4351 229.999 80.9031 230.54C80.3711 231.072 80.1051 231.725 80.1051 232.5C80.1051 233.275 80.3711 233.933 80.9031 234.474ZM93.5415 229V229.896H91.0635V236H90.1395V229.896H87.6615V229H93.5415ZM99.7635 229H100.548V236H99.6235V230.61L95.4515 236H94.6675V229H95.5915V234.39L99.7635 229ZM105.763 236.168C104.709 236.168 103.831 235.818 103.131 235.118C102.431 234.409 102.081 233.536 102.081 232.5C102.081 231.464 102.431 230.596 103.131 229.896C103.831 229.187 104.709 228.832 105.763 228.832C106.454 228.832 107.075 229 107.625 229.336C108.176 229.663 108.577 230.106 108.829 230.666L108.073 231.1C107.887 230.68 107.583 230.349 107.163 230.106C106.753 229.854 106.286 229.728 105.763 229.728C104.989 229.728 104.335 229.999 103.803 230.54C103.271 231.072 103.005 231.725 103.005 232.5C103.005 233.275 103.271 233.933 103.803 234.474C104.335 235.006 104.989 235.272 105.763 235.272C106.286 235.272 106.753 235.151 107.163 234.908C107.574 234.656 107.896 234.32 108.129 233.9L108.899 234.348C108.61 234.908 108.185 235.351 107.625 235.678C107.065 236.005 106.445 236.168 105.763 236.168ZM115.129 229V229.896H112.651V236H111.727V229.896H109.249V229H115.129ZM121.351 229H122.135V236H121.211V230.61L117.039 236H116.255V229H117.179V234.39L121.351 229ZM129.745 236H128.513L125.013 232.626V236H124.089V229H125.013V232.094L128.345 229H129.605L125.993 232.36L129.745 236ZM135.774 229H136.754L133.758 236.644C133.487 237.335 133.1 237.876 132.596 238.268C132.101 238.669 131.546 238.847 130.93 238.8V237.932C131.77 238.025 132.409 237.54 132.848 236.476L133.03 236.042L129.894 229H130.874L133.506 234.866L135.774 229ZM137.789 235.916C137.639 236.065 137.457 236.14 137.243 236.14C137.028 236.14 136.846 236.065 136.697 235.916C136.547 235.767 136.473 235.585 136.473 235.37C136.473 235.155 136.547 234.973 136.697 234.824C136.846 234.675 137.028 234.6 137.243 234.6C137.457 234.6 137.639 234.675 137.789 234.824C137.938 234.973 138.013 235.155 138.013 235.37C138.013 235.585 137.938 235.767 137.789 235.916Z" fill="white"/>
</g>
<defs>
<filter id="filter0_b_888_26051" x="-10" y="-10" width="225" height="310" filterUnits="userSpaceOnUse" color-interpolation-filters="sRGB">
<feFlood flood-opacity="0" result="BackgroundImageFix"/>
<feGaussianBlur in="BackgroundImageFix" stdDeviation="5"/>
<feComposite in2="SourceAlpha" operator="in" result="effect1_backgroundBlur_888_26051"/>
<feBlend mode="normal" in="SourceGraphic" in2="effect1_backgroundBlur_888_26051" result="shape"/>
</filter>
</defs>
</svg>
