<svg width="207" height="178" viewBox="0 0 207 178" fill="none" xmlns="http://www.w3.org/2000/svg">
<g filter="url(#filter0_b_888_26047)">
<rect width="207" height="178" rx="15" fill="#0C0C0C" fill-opacity="0.3"/>
<rect x="0.5" y="0.5" width="206" height="177" rx="14.5" stroke="white" stroke-opacity="0.3"/>
<path d="M128.483 45.12C129.723 46.0533 130.343 47.3467 130.343 49C130.343 50.6533 129.723 51.9467 128.483 52.88C127.257 53.8133 125.63 54.3267 123.603 54.42V56H122.203V54.42C120.177 54.3267 118.543 53.8133 117.303 52.88C116.077 51.9467 115.463 50.6533 115.463 49C115.463 47.3467 116.077 46.0533 117.303 45.12C118.543 44.1867 120.177 43.6733 122.203 43.58V42H123.603V43.58C125.63 43.6733 127.257 44.1867 128.483 45.12ZM118.303 46.04C117.343 46.7333 116.863 47.72 116.863 49C116.863 50.28 117.343 51.2733 118.303 51.98C119.263 52.6733 120.563 53.06 122.203 53.14V44.86C120.563 44.94 119.263 45.3333 118.303 46.04ZM123.603 53.14C125.243 53.06 126.543 52.6733 127.503 51.98C128.463 51.2733 128.943 50.28 128.943 49C128.943 47.72 128.463 46.7333 127.503 46.04C126.543 45.3333 125.243 44.94 123.603 44.86V53.14ZM139.342 46H140.742L136.462 56.92C136.076 57.9067 135.522 58.68 134.802 59.24C134.096 59.8133 133.302 60.0667 132.422 60V58.76C133.622 58.8933 134.536 58.2 135.162 56.68L135.422 56.06L130.942 46H132.342L136.102 54.38L139.342 46ZM149.418 46H150.738V56H149.418V51.64H143.658V56H142.338V46H143.658V50.36H149.418V46ZM161.609 56H159.849L154.849 51.18V56H153.529V46H154.849V50.42L159.609 46H161.409L156.249 50.8L161.609 56ZM171.612 54.72H173.212V58.68H171.892V56H163.412V46H164.732V54.72H170.292V46H171.612V54.72ZM182.489 46H183.609V56H182.289V48.3L176.329 56H175.209V46H176.529V53.7L182.489 46ZM193.6 46V56H192.28V52.16H190.56L187.48 56H185.8L188.96 52.12C188.16 52 187.5 51.6667 186.98 51.12C186.46 50.5733 186.2 49.9 186.2 49.1C186.2 48.1933 186.52 47.4533 187.16 46.88C187.813 46.2933 188.607 46 189.54 46H193.6ZM189.54 50.92H192.28V47.28H189.54C188.98 47.28 188.5 47.4467 188.1 47.78C187.713 48.1133 187.52 48.5533 187.52 49.1C187.52 49.6467 187.713 50.0867 188.1 50.42C188.5 50.7533 188.98 50.92 189.54 50.92ZM108.658 69.22L106.458 72.82L108.658 76.42H107.018L104.818 72.82L107.018 69.22H108.658ZM111.858 69.22L109.658 72.82L111.858 76.42H110.218L108.018 72.82L110.218 69.22H111.858ZM122.861 65V66.32H118.561V79H117.161V66.32H112.861V65H122.861ZM133.462 79L130.182 73.4H126.262V79H124.862V65H130.462C131.622 65 132.608 65.4133 133.422 66.24C134.248 67.0533 134.662 68.04 134.662 69.2C134.662 70.1467 134.375 70.9933 133.802 71.74C133.242 72.4733 132.522 72.9667 131.642 73.22L135.062 79H133.462ZM126.262 66.32V72.08H130.462C131.235 72.08 131.895 71.8 132.442 71.24C132.988 70.6667 133.262 69.9867 133.262 69.2C133.262 68.4 132.988 67.72 132.442 67.16C131.895 66.6 131.235 66.32 130.462 66.32H126.262ZM146.778 65L141.718 73.26V79H140.318V73.22L135.278 65H136.858L141.038 71.86L145.198 65H146.778ZM159.157 77.14C157.757 78.54 156.043 79.24 154.017 79.24C151.99 79.24 150.277 78.54 148.877 77.14C147.477 75.7267 146.777 74.0133 146.777 72C146.777 69.9867 147.477 68.28 148.877 66.88C150.277 65.4667 151.99 64.76 154.017 64.76C156.043 64.76 157.757 65.4667 159.157 66.88C160.557 68.28 161.257 69.9867 161.257 72C161.257 74.0133 160.557 75.7267 159.157 77.14ZM149.857 76.18C150.977 77.3133 152.363 77.88 154.017 77.88C155.67 77.88 157.057 77.3133 158.177 76.18C159.297 75.0333 159.857 73.64 159.857 72C159.857 70.36 159.297 68.9733 158.177 67.84C157.057 66.6933 155.67 66.12 154.017 66.12C152.363 66.12 150.977 66.6933 149.857 67.84C148.737 68.9733 148.177 70.36 148.177 72C148.177 73.64 148.737 75.0333 149.857 76.18ZM172.313 77.88C171.353 78.7867 170.1 79.24 168.553 79.24C167.006 79.24 165.753 78.7867 164.793 77.88C163.833 76.9733 163.353 75.76 163.353 74.24V65H164.753V74.24C164.753 75.36 165.086 76.2467 165.753 76.9C166.42 77.5533 167.353 77.88 168.553 77.88C169.753 77.88 170.686 77.5533 171.353 76.9C172.02 76.2467 172.353 75.36 172.353 74.24V65H173.753V74.24C173.753 75.76 173.273 76.9733 172.313 77.88ZM185.556 65V66.32H181.256V79H179.856V66.32H175.556V65H185.556ZM188.196 69.22L190.396 72.82L188.196 76.42H186.556L188.756 72.82L186.556 69.22H188.196ZM191.396 69.22L193.596 72.82L191.396 76.42H189.756L191.956 72.82L189.756 69.22H191.396Z" fill="white"/>
<path opacity="0.7" d="M41.286 111.2V121H40.306V112.124H35.266V121H34.286V111.2H41.286ZM49.2542 120.118C48.5449 120.818 47.6769 121.168 46.6502 121.168C45.6235 121.168 44.7509 120.818 44.0322 120.118C43.3229 119.409 42.9682 118.536 42.9682 117.5C42.9682 116.464 43.3229 115.596 44.0322 114.896C44.7509 114.187 45.6235 113.832 46.6502 113.832C47.6769 113.832 48.5449 114.187 49.2542 114.896C49.9729 115.596 50.3322 116.464 50.3322 117.5C50.3322 118.536 49.9729 119.409 49.2542 120.118ZM44.6902 119.474C45.2222 120.006 45.8755 120.272 46.6502 120.272C47.4249 120.272 48.0782 120.006 48.6102 119.474C49.1422 118.933 49.4082 118.275 49.4082 117.5C49.4082 116.725 49.1422 116.072 48.6102 115.54C48.0782 114.999 47.4249 114.728 46.6502 114.728C45.8755 114.728 45.2222 114.999 44.6902 115.54C44.1582 116.072 43.8922 116.725 43.8922 117.5C43.8922 118.275 44.1582 118.933 44.6902 119.474ZM55.217 117.402C56.029 117.71 56.435 118.27 56.435 119.082C56.435 119.661 56.2063 120.155 55.749 120.566C55.301 120.967 54.657 121.168 53.817 121.168C52.4077 121.168 51.4837 120.608 51.045 119.488L51.829 119.026C52.1183 119.857 52.781 120.272 53.817 120.272C54.3583 120.272 54.7737 120.155 55.063 119.922C55.3617 119.689 55.511 119.39 55.511 119.026C55.511 118.699 55.3897 118.433 55.147 118.228C54.9043 118.023 54.5777 117.92 54.167 117.92H53.145V117.024H53.887C54.2883 117.024 54.601 116.926 54.825 116.73C55.0583 116.525 55.175 116.245 55.175 115.89C55.175 115.554 55.0397 115.279 54.769 115.064C54.4983 114.84 54.1343 114.728 53.677 114.728C52.7997 114.728 52.2163 115.078 51.927 115.778L51.157 115.33C51.6237 114.331 52.4637 113.832 53.677 113.832C54.4143 113.832 55.0023 114.028 55.441 114.42C55.8797 114.803 56.099 115.274 56.099 115.834C56.099 116.553 55.805 117.075 55.217 117.402ZM62.2914 117.402C63.0567 117.682 63.4394 118.228 63.4394 119.04C63.4394 119.609 63.248 120.081 62.8654 120.454C62.492 120.818 61.9507 121 61.2414 121H57.8394V114H60.9614C61.6427 114 62.17 114.177 62.5434 114.532C62.9167 114.877 63.1034 115.325 63.1034 115.876C63.1034 116.576 62.8327 117.085 62.2914 117.402ZM60.9614 114.896H58.7634V117.024H60.9614C61.7734 117.024 62.1794 116.66 62.1794 115.932C62.1794 115.605 62.072 115.353 61.8574 115.176C61.652 114.989 61.3534 114.896 60.9614 114.896ZM61.2414 120.104C61.652 120.104 61.9647 120.006 62.1794 119.81C62.4034 119.614 62.5154 119.339 62.5154 118.984C62.5154 118.657 62.4034 118.401 62.1794 118.214C61.9647 118.018 61.652 117.92 61.2414 117.92H58.7634V120.104H61.2414ZM70.7054 120.118C69.996 120.818 69.128 121.168 68.1014 121.168C67.0747 121.168 66.202 120.818 65.4834 120.118C64.774 119.409 64.4194 118.536 64.4194 117.5C64.4194 116.464 64.774 115.596 65.4834 114.896C66.202 114.187 67.0747 113.832 68.1014 113.832C69.128 113.832 69.996 114.187 70.7054 114.896C71.424 115.596 71.7834 116.464 71.7834 117.5C71.7834 118.536 71.424 119.409 70.7054 120.118ZM66.1414 119.474C66.6734 120.006 67.3267 120.272 68.1014 120.272C68.876 120.272 69.5294 120.006 70.0614 119.474C70.5934 118.933 70.8594 118.275 70.8594 117.5C70.8594 116.725 70.5934 116.072 70.0614 115.54C69.5294 114.999 68.876 114.728 68.1014 114.728C67.3267 114.728 66.6734 114.999 66.1414 115.54C65.6094 116.072 65.3434 116.725 65.3434 117.5C65.3434 118.275 65.6094 118.933 66.1414 119.474ZM78.7962 114V121H77.8722V114.896H74.7082V118.018C74.7082 119.185 74.4842 119.987 74.0362 120.426C73.5975 120.865 72.9908 121.056 72.2162 121V120.132C72.7482 120.188 73.1402 120.062 73.3922 119.754C73.6535 119.446 73.7842 118.867 73.7842 118.018V114H78.7962ZM85.7934 114V121H84.8694V118.312H83.6654L81.5094 121H80.3334L82.5454 118.284C81.9854 118.2 81.5234 117.967 81.1594 117.584C80.7954 117.201 80.6134 116.73 80.6134 116.17C80.6134 115.535 80.8374 115.017 81.2854 114.616C81.7428 114.205 82.2981 114 82.9514 114H85.7934ZM82.9514 117.444H84.8694V114.896H82.9514C82.5594 114.896 82.2234 115.013 81.9434 115.246C81.6728 115.479 81.5374 115.787 81.5374 116.17C81.5374 116.553 81.6728 116.861 81.9434 117.094C82.2234 117.327 82.5594 117.444 82.9514 117.444ZM90.9874 113.832C92.0234 113.832 92.8588 114.201 93.4934 114.938C94.1374 115.666 94.4594 116.529 94.4594 117.528C94.4594 117.631 94.4501 117.775 94.4314 117.962H88.2854C88.3788 118.671 88.6774 119.236 89.1814 119.656C89.6948 120.067 90.3248 120.272 91.0714 120.272C91.6034 120.272 92.0608 120.165 92.4434 119.95C92.8354 119.726 93.1294 119.437 93.3254 119.082L94.1374 119.558C93.8294 120.053 93.4094 120.445 92.8774 120.734C92.3454 121.023 91.7388 121.168 91.0574 121.168C89.9561 121.168 89.0601 120.823 88.3694 120.132C87.6788 119.441 87.3334 118.564 87.3334 117.5C87.3334 116.455 87.6741 115.582 88.3554 114.882C89.0368 114.182 89.9141 113.832 90.9874 113.832ZM90.9874 114.728C90.2594 114.728 89.6481 114.947 89.1534 115.386C88.6681 115.815 88.3788 116.375 88.2854 117.066H93.5074C93.4141 116.329 93.1294 115.755 92.6534 115.344C92.1774 114.933 91.6221 114.728 90.9874 114.728ZM100.696 114V114.896H98.2178V121H97.2938V114.896H94.8158V114H100.696ZM111.188 120.118C110.478 120.818 109.61 121.168 108.584 121.168C107.557 121.168 106.684 120.818 105.966 120.118C105.256 119.409 104.902 118.536 104.902 117.5C104.902 116.464 105.256 115.596 105.966 114.896C106.684 114.187 107.557 113.832 108.584 113.832C109.61 113.832 110.478 114.187 111.188 114.896C111.906 115.596 112.266 116.464 112.266 117.5C112.266 118.536 111.906 119.409 111.188 120.118ZM106.624 119.474C107.156 120.006 107.809 120.272 108.584 120.272C109.358 120.272 110.012 120.006 110.544 119.474C111.076 118.933 111.342 118.275 111.342 117.5C111.342 116.725 111.076 116.072 110.544 115.54C110.012 114.999 109.358 114.728 108.584 114.728C107.809 114.728 107.156 114.999 106.624 115.54C106.092 116.072 105.826 116.725 105.826 117.5C105.826 118.275 106.092 118.933 106.624 119.474ZM117.564 113.832C118.563 113.832 119.412 114.187 120.112 114.896C120.821 115.605 121.176 116.473 121.176 117.5C121.176 118.527 120.821 119.395 120.112 120.104C119.412 120.813 118.563 121.168 117.564 121.168C116.323 121.168 115.38 120.655 114.736 119.628V123.8H113.812V114H114.736V115.372C115.38 114.345 116.323 113.832 117.564 113.832ZM115.534 119.474C116.066 120.006 116.719 120.272 117.494 120.272C118.269 120.272 118.922 120.006 119.454 119.474C119.986 118.933 120.252 118.275 120.252 117.5C120.252 116.725 119.986 116.072 119.454 115.54C118.922 114.999 118.269 114.728 117.494 114.728C116.719 114.728 116.066 114.999 115.534 115.54C115.002 116.072 114.736 116.725 114.736 117.5C114.736 118.275 115.002 118.933 115.534 119.474ZM127.192 114V114.896H123.636V121H122.712V114H127.192ZM134.064 114H134.988V121H134.064V119.628C133.42 120.655 132.478 121.168 131.236 121.168C130.238 121.168 129.384 120.813 128.674 120.104C127.974 119.395 127.624 118.527 127.624 117.5C127.624 116.473 127.974 115.605 128.674 114.896C129.384 114.187 130.238 113.832 131.236 113.832C132.478 113.832 133.42 114.345 134.064 115.372V114ZM129.346 119.474C129.878 120.006 130.532 120.272 131.306 120.272C132.081 120.272 132.734 120.006 133.266 119.474C133.798 118.933 134.064 118.275 134.064 117.5C134.064 116.725 133.798 116.072 133.266 115.54C132.734 114.999 132.081 114.728 131.306 114.728C130.532 114.728 129.878 114.999 129.346 115.54C128.814 116.072 128.548 116.725 128.548 117.5C128.548 118.275 128.814 118.933 129.346 119.474ZM141.901 114H142.825V121H141.901V117.948H137.869V121H136.945V114H137.869V117.052H141.901V114ZM149.875 114H150.659V121H149.735V115.61L145.563 121H144.779V114H145.703V119.39L149.875 114ZM156.225 117.402C157.037 117.71 157.443 118.27 157.443 119.082C157.443 119.661 157.214 120.155 156.757 120.566C156.309 120.967 155.665 121.168 154.825 121.168C153.415 121.168 152.491 120.608 152.053 119.488L152.837 119.026C153.126 119.857 153.789 120.272 154.825 120.272C155.366 120.272 155.781 120.155 156.071 119.922C156.369 119.689 156.519 119.39 156.519 119.026C156.519 118.699 156.397 118.433 156.155 118.228C155.912 118.023 155.585 117.92 155.175 117.92H154.153V117.024H154.895C155.296 117.024 155.609 116.926 155.833 116.73C156.066 116.525 156.183 116.245 156.183 115.89C156.183 115.554 156.047 115.279 155.777 115.064C155.506 114.84 155.142 114.728 154.685 114.728C153.807 114.728 153.224 115.078 152.935 115.778L152.165 115.33C152.631 114.331 153.471 113.832 154.685 113.832C155.422 113.832 156.01 114.028 156.449 114.42C156.887 114.803 157.107 115.274 157.107 115.834C157.107 116.553 156.813 117.075 156.225 117.402ZM164.713 120.118C164.004 120.818 163.136 121.168 162.109 121.168C161.083 121.168 160.21 120.818 159.491 120.118C158.782 119.409 158.427 118.536 158.427 117.5C158.427 116.464 158.782 115.596 159.491 114.896C160.21 114.187 161.083 113.832 162.109 113.832C163.136 113.832 164.004 114.187 164.713 114.896C165.432 115.596 165.791 116.464 165.791 117.5C165.791 118.536 165.432 119.409 164.713 120.118ZM160.149 119.474C160.681 120.006 161.335 120.272 162.109 120.272C162.884 120.272 163.537 120.006 164.069 119.474C164.601 118.933 164.867 118.275 164.867 117.5C164.867 116.725 164.601 116.072 164.069 115.54C163.537 114.999 162.884 114.728 162.109 114.728C161.335 114.728 160.681 114.999 160.149 115.54C159.617 116.072 159.351 116.725 159.351 117.5C159.351 118.275 159.617 118.933 160.149 119.474ZM171.789 117.402C172.555 117.682 172.937 118.228 172.937 119.04C172.937 119.609 172.746 120.081 172.363 120.454C171.99 120.818 171.449 121 170.739 121H167.337V114H170.459C171.141 114 171.668 114.177 172.041 114.532C172.415 114.877 172.601 115.325 172.601 115.876C172.601 116.576 172.331 117.085 171.789 117.402ZM170.459 114.896H168.261V117.024H170.459C171.271 117.024 171.677 116.66 171.677 115.932C171.677 115.605 171.57 115.353 171.355 115.176C171.15 114.989 170.851 114.896 170.459 114.896ZM170.739 120.104C171.15 120.104 171.463 120.006 171.677 119.81C171.901 119.614 172.013 119.339 172.013 118.984C172.013 118.657 171.901 118.401 171.677 118.214C171.463 118.018 171.15 117.92 170.739 117.92H168.261V120.104H170.739ZM180.357 114H181.281V121H180.357V119.628C179.713 120.655 178.771 121.168 177.529 121.168C176.531 121.168 175.677 120.813 174.967 120.104C174.267 119.395 173.917 118.527 173.917 117.5C173.917 116.473 174.267 115.605 174.967 114.896C175.677 114.187 176.531 113.832 177.529 113.832C178.771 113.832 179.713 114.345 180.357 115.372V114ZM175.639 119.474C176.171 120.006 176.825 120.272 177.599 120.272C178.374 120.272 179.027 120.006 179.559 119.474C180.091 118.933 180.357 118.275 180.357 117.5C180.357 116.725 180.091 116.072 179.559 115.54C179.027 114.999 178.374 114.728 177.599 114.728C176.825 114.728 176.171 114.999 175.639 115.54C175.107 116.072 174.841 116.725 174.841 117.5C174.841 118.275 175.107 118.933 175.639 119.474ZM188.278 114V114.896H185.8V121H184.876V114.896H182.398V114H188.278ZM192.246 116.66C192.899 116.66 193.45 116.865 193.898 117.276C194.355 117.677 194.584 118.195 194.584 118.83C194.584 119.465 194.355 119.987 193.898 120.398C193.45 120.799 192.899 121 192.246 121H189.404V114H190.328V116.66H192.246ZM192.246 120.104C192.638 120.104 192.969 119.987 193.24 119.754C193.52 119.521 193.66 119.213 193.66 118.83C193.66 118.447 193.52 118.139 193.24 117.906C192.969 117.673 192.638 117.556 192.246 117.556H190.328V120.104H192.246ZM55.4889 130V137H54.5649V130.896H50.5329V137H49.6089V130H55.4889ZM61.1949 129.832C62.1936 129.832 63.0429 130.187 63.7429 130.896C64.4522 131.605 64.8069 132.473 64.8069 133.5C64.8069 134.527 64.4522 135.395 63.7429 136.104C63.0429 136.813 62.1936 137.168 61.1949 137.168C59.9536 137.168 59.0109 136.655 58.3669 135.628V139.8H57.4429V130H58.3669V131.372C59.0109 130.345 59.9536 129.832 61.1949 129.832ZM59.1649 135.474C59.6969 136.006 60.3502 136.272 61.1249 136.272C61.8996 136.272 62.5529 136.006 63.0849 135.474C63.6169 134.933 63.8829 134.275 63.8829 133.5C63.8829 132.725 63.6169 132.072 63.0849 131.54C62.5529 130.999 61.8996 130.728 61.1249 130.728C60.3502 130.728 59.6969 130.999 59.1649 131.54C58.6329 132.072 58.3669 132.725 58.3669 133.5C58.3669 134.275 58.6329 134.933 59.1649 135.474ZM72.2093 136.118C71.4999 136.818 70.6319 137.168 69.6053 137.168C68.5786 137.168 67.7059 136.818 66.9873 136.118C66.2779 135.409 65.9233 134.536 65.9233 133.5C65.9233 132.464 66.2779 131.596 66.9873 130.896C67.7059 130.187 68.5786 129.832 69.6053 129.832C70.6319 129.832 71.4999 130.187 72.2093 130.896C72.9279 131.596 73.2873 132.464 73.2873 133.5C73.2873 134.536 72.9279 135.409 72.2093 136.118ZM67.6453 135.474C68.1773 136.006 68.8306 136.272 69.6053 136.272C70.3799 136.272 71.0333 136.006 71.5653 135.474C72.0973 134.933 72.3633 134.275 72.3633 133.5C72.3633 132.725 72.0973 132.072 71.5653 131.54C71.0333 130.999 70.3799 130.728 69.6053 130.728C68.8306 130.728 68.1773 130.999 67.6453 131.54C67.1133 132.072 66.8473 132.725 66.8473 133.5C66.8473 134.275 67.1133 134.933 67.6453 135.474ZM78.0955 137.168C77.0408 137.168 76.1635 136.818 75.4635 136.118C74.7635 135.409 74.4135 134.536 74.4135 133.5C74.4135 132.464 74.7635 131.596 75.4635 130.896C76.1635 130.187 77.0408 129.832 78.0955 129.832C78.7862 129.832 79.4068 130 79.9575 130.336C80.5082 130.663 80.9095 131.106 81.1615 131.666L80.4055 132.1C80.2188 131.68 79.9155 131.349 79.4955 131.106C79.0848 130.854 78.6182 130.728 78.0955 130.728C77.3208 130.728 76.6675 130.999 76.1355 131.54C75.6035 132.072 75.3375 132.725 75.3375 133.5C75.3375 134.275 75.6035 134.933 76.1355 135.474C76.6675 136.006 77.3208 136.272 78.0955 136.272C78.6182 136.272 79.0848 136.151 79.4955 135.908C79.9062 135.656 80.2282 135.32 80.4615 134.9L81.2315 135.348C80.9422 135.908 80.5175 136.351 79.9575 136.678C79.3975 137.005 78.7768 137.168 78.0955 137.168ZM89.4181 130V137H88.4941V131.414L86.0441 135.39H85.9321L83.4821 131.414V137H82.5581V130H83.6221L85.9881 133.836L88.3541 130H89.4181ZM97.2425 136.118C96.5332 136.818 95.6652 137.168 94.6385 137.168C93.6118 137.168 92.7392 136.818 92.0205 136.118C91.3112 135.409 90.9565 134.536 90.9565 133.5C90.9565 132.464 91.3112 131.596 92.0205 130.896C92.7392 130.187 93.6118 129.832 94.6385 129.832C95.6652 129.832 96.5332 130.187 97.2425 130.896C97.9612 131.596 98.3205 132.464 98.3205 133.5C98.3205 134.536 97.9612 135.409 97.2425 136.118ZM92.6785 135.474C93.2105 136.006 93.8638 136.272 94.6385 136.272C95.4132 136.272 96.0665 136.006 96.5985 135.474C97.1305 134.933 97.3965 134.275 97.3965 133.5C97.3965 132.725 97.1305 132.072 96.5985 131.54C96.0665 130.999 95.4132 130.728 94.6385 130.728C93.8638 130.728 93.2105 130.999 92.6785 131.54C92.1465 132.072 91.8805 132.725 91.8805 133.5C91.8805 134.275 92.1465 134.933 92.6785 135.474ZM104.633 130V130.896H102.155V137H101.231V130.896H98.7533V130H104.633ZM109.511 129.832C110.51 129.832 111.359 130.187 112.059 130.896C112.769 131.605 113.123 132.473 113.123 133.5C113.123 134.527 112.769 135.395 112.059 136.104C111.359 136.813 110.51 137.168 109.511 137.168C108.27 137.168 107.327 136.655 106.683 135.628V139.8H105.759V130H106.683V131.372C107.327 130.345 108.27 129.832 109.511 129.832ZM107.481 135.474C108.013 136.006 108.667 136.272 109.441 136.272C110.216 136.272 110.869 136.006 111.401 135.474C111.933 134.933 112.199 134.275 112.199 133.5C112.199 132.725 111.933 132.072 111.401 131.54C110.869 130.999 110.216 130.728 109.441 130.728C108.667 130.728 108.013 130.999 107.481 131.54C106.949 132.072 106.683 132.725 106.683 133.5C106.683 134.275 106.949 134.933 107.481 135.474ZM117.502 132.66C118.155 132.66 118.706 132.865 119.154 133.276C119.611 133.677 119.84 134.195 119.84 134.83C119.84 135.465 119.611 135.987 119.154 136.398C118.706 136.799 118.155 137 117.502 137H114.66V130H115.584V132.66H117.502ZM120.82 130H121.744V137H120.82V130ZM117.502 136.104C117.894 136.104 118.225 135.987 118.496 135.754C118.776 135.521 118.916 135.213 118.916 134.83C118.916 134.447 118.776 134.139 118.496 133.906C118.225 133.673 117.894 133.556 117.502 133.556H115.584V136.104H117.502ZM131.662 133.402C132.428 133.682 132.81 134.228 132.81 135.04C132.81 135.609 132.619 136.081 132.236 136.454C131.863 136.818 131.322 137 130.612 137H127.21V130H130.332C131.014 130 131.541 130.177 131.914 130.532C132.288 130.877 132.474 131.325 132.474 131.876C132.474 132.576 132.204 133.085 131.662 133.402ZM130.332 130.896H128.134V133.024H130.332C131.144 133.024 131.55 132.66 131.55 131.932C131.55 131.605 131.443 131.353 131.228 131.176C131.023 130.989 130.724 130.896 130.332 130.896ZM130.612 136.104C131.023 136.104 131.336 136.006 131.55 135.81C131.774 135.614 131.886 135.339 131.886 134.984C131.886 134.657 131.774 134.401 131.55 134.214C131.336 134.018 131.023 133.92 130.612 133.92H128.134V136.104H130.612ZM144.57 130V137H143.646V131.414L141.196 135.39H141.084L138.634 131.414V137H137.71V130H138.774L141.14 133.836L143.506 130H144.57ZM151.625 130H152.409V137H151.485V131.61L147.313 137H146.529V130H147.453V135.39L151.625 130ZM158.115 129.832C159.113 129.832 159.963 130.187 160.663 130.896C161.372 131.605 161.727 132.473 161.727 133.5C161.727 134.527 161.372 135.395 160.663 136.104C159.963 136.813 159.113 137.168 158.115 137.168C156.873 137.168 155.931 136.655 155.287 135.628V139.8H154.363V130H155.287V131.372C155.931 130.345 156.873 129.832 158.115 129.832ZM156.085 135.474C156.617 136.006 157.27 136.272 158.045 136.272C158.819 136.272 159.473 136.006 160.005 135.474C160.537 134.933 160.803 134.275 160.803 133.5C160.803 132.725 160.537 132.072 160.005 131.54C159.473 130.999 158.819 130.728 158.045 130.728C157.27 130.728 156.617 130.999 156.085 131.54C155.553 132.072 155.287 132.725 155.287 133.5C155.287 134.275 155.553 134.933 156.085 135.474ZM169.129 136.118C168.42 136.818 167.552 137.168 166.525 137.168C165.499 137.168 164.626 136.818 163.907 136.118C163.198 135.409 162.843 134.536 162.843 133.5C162.843 132.464 163.198 131.596 163.907 130.896C164.626 130.187 165.499 129.832 166.525 129.832C167.552 129.832 168.42 130.187 169.129 130.896C169.848 131.596 170.207 132.464 170.207 133.5C170.207 134.536 169.848 135.409 169.129 136.118ZM164.565 135.474C165.097 136.006 165.751 136.272 166.525 136.272C167.3 136.272 167.953 136.006 168.485 135.474C169.017 134.933 169.283 134.275 169.283 133.5C169.283 132.725 169.017 132.072 168.485 131.54C167.953 130.999 167.3 130.728 166.525 130.728C165.751 130.728 165.097 130.999 164.565 131.54C164.033 132.072 163.767 132.725 163.767 133.5C163.767 134.275 164.033 134.933 164.565 135.474ZM176.205 133.402C176.971 133.682 177.353 134.228 177.353 135.04C177.353 135.609 177.162 136.081 176.779 136.454C176.406 136.818 175.865 137 175.155 137H171.753V130H174.875C175.557 130 176.084 130.177 176.457 130.532C176.831 130.877 177.017 131.325 177.017 131.876C177.017 132.576 176.747 133.085 176.205 133.402ZM174.875 130.896H172.677V133.024H174.875C175.687 133.024 176.093 132.66 176.093 131.932C176.093 131.605 175.986 131.353 175.771 131.176C175.566 130.989 175.267 130.896 174.875 130.896ZM175.155 136.104C175.566 136.104 175.879 136.006 176.093 135.81C176.317 135.614 176.429 135.339 176.429 134.984C176.429 134.657 176.317 134.401 176.093 134.214C175.879 134.018 175.566 133.92 175.155 133.92H172.677V136.104H175.155ZM181.595 132.66C182.249 132.66 182.799 132.865 183.247 133.276C183.705 133.677 183.933 134.195 183.933 134.83C183.933 135.465 183.705 135.987 183.247 136.398C182.799 136.799 182.249 137 181.595 137H178.753V130H179.677V132.66H181.595ZM184.913 130H185.837V137H184.913V130ZM181.595 136.104C181.987 136.104 182.319 135.987 182.589 135.754C182.869 135.521 183.009 135.213 183.009 134.83C183.009 134.447 182.869 134.139 182.589 133.906C182.319 133.673 181.987 133.556 181.595 133.556H179.677V136.104H181.595ZM191.038 129.832C192.074 129.832 192.91 130.201 193.544 130.938C194.188 131.666 194.51 132.529 194.51 133.528C194.51 133.631 194.501 133.775 194.482 133.962H188.336C188.43 134.671 188.728 135.236 189.232 135.656C189.746 136.067 190.376 136.272 191.122 136.272C191.654 136.272 192.112 136.165 192.494 135.95C192.886 135.726 193.18 135.437 193.376 135.082L194.188 135.558C193.88 136.053 193.46 136.445 192.928 136.734C192.396 137.023 191.79 137.168 191.108 137.168C190.007 137.168 189.111 136.823 188.42 136.132C187.73 135.441 187.384 134.564 187.384 133.5C187.384 132.455 187.725 131.582 188.406 130.882C189.088 130.182 189.965 129.832 191.038 129.832ZM191.038 130.728C190.31 130.728 189.699 130.947 189.204 131.386C188.719 131.815 188.43 132.375 188.336 133.066H193.558C193.465 132.329 193.18 131.755 192.704 131.344C192.228 130.933 191.673 130.728 191.038 130.728ZM84.0254 146H84.9494V153H84.0254V151.628C83.3814 152.655 82.4387 153.168 81.1974 153.168C80.1987 153.168 79.3447 152.813 78.6354 152.104C77.9354 151.395 77.5854 150.527 77.5854 149.5C77.5854 148.473 77.9354 147.605 78.6354 146.896C79.3447 146.187 80.1987 145.832 81.1974 145.832C82.4387 145.832 83.3814 146.345 84.0254 147.372V146ZM79.3074 151.474C79.8394 152.006 80.4927 152.272 81.2674 152.272C82.0421 152.272 82.6954 152.006 83.2274 151.474C83.7594 150.933 84.0254 150.275 84.0254 149.5C84.0254 148.725 83.7594 148.072 83.2274 147.54C82.6954 146.999 82.0421 146.728 81.2674 146.728C80.4927 146.728 79.8394 146.999 79.3074 147.54C78.7754 148.072 78.5094 148.725 78.5094 149.5C78.5094 150.275 78.7754 150.933 79.3074 151.474ZM92.5618 153H91.3298L87.8298 149.626V153H86.9058V146H87.8298V149.094L91.1618 146H92.4218L88.8098 149.36L92.5618 153ZM99.1465 146H100.07V153H99.1465V151.628C98.5025 152.655 97.5598 153.168 96.3185 153.168C95.3198 153.168 94.4658 152.813 93.7565 152.104C93.0565 151.395 92.7065 150.527 92.7065 149.5C92.7065 148.473 93.0565 147.605 93.7565 146.896C94.4658 146.187 95.3198 145.832 96.3185 145.832C97.5598 145.832 98.5025 146.345 99.1465 147.372V146ZM94.4285 151.474C94.9605 152.006 95.6138 152.272 96.3885 152.272C97.1632 152.272 97.8165 152.006 98.3485 151.474C98.8805 150.933 99.1465 150.275 99.1465 149.5C99.1465 148.725 98.8805 148.072 98.3485 147.54C97.8165 146.999 97.1632 146.728 96.3885 146.728C95.6138 146.728 94.9605 146.999 94.4285 147.54C93.8965 148.072 93.6305 148.725 93.6305 149.5C93.6305 150.275 93.8965 150.933 94.4285 151.474ZM107.907 152.104H108.887V154.876H107.963V153H102.251V154.876H101.327V152.104H102.181C102.657 151.479 102.895 150.597 102.895 149.458V146H107.907V152.104ZM103.301 152.104H106.983V146.896H103.819V149.458C103.819 150.531 103.646 151.413 103.301 152.104ZM113.245 145.832C114.281 145.832 115.117 146.201 115.751 146.938C116.395 147.666 116.717 148.529 116.717 149.528C116.717 149.631 116.708 149.775 116.689 149.962H110.543C110.637 150.671 110.935 151.236 111.439 151.656C111.953 152.067 112.583 152.272 113.329 152.272C113.861 152.272 114.319 152.165 114.701 151.95C115.093 151.726 115.387 151.437 115.583 151.082L116.395 151.558C116.087 152.053 115.667 152.445 115.135 152.734C114.603 153.023 113.997 153.168 113.315 153.168C112.214 153.168 111.318 152.823 110.627 152.132C109.937 151.441 109.591 150.564 109.591 149.5C109.591 148.455 109.932 147.582 110.613 146.882C111.295 146.182 112.172 145.832 113.245 145.832ZM113.245 146.728C112.517 146.728 111.906 146.947 111.411 147.386C110.926 147.815 110.637 148.375 110.543 149.066H115.765C115.672 148.329 115.387 147.755 114.911 147.344C114.435 146.933 113.88 146.728 113.245 146.728ZM125.047 146V153H124.123V147.414L121.673 151.39H121.561L119.111 147.414V153H118.187V146H119.251L121.617 149.836L123.983 146H125.047ZM132.101 146H132.885V153H131.961V147.61L127.789 153H127.005V146H127.929V151.39L132.101 146ZM139.935 146H140.719V153H139.795V147.61L135.623 153H134.839V146H135.763V151.39L139.935 146ZM151.269 146H152.053V153H151.129V147.61L146.957 153H146.173V146H147.097V151.39L151.269 146ZM163.163 153H161.931L158.431 149.626V153H157.507V146H158.431V149.094L161.763 146H163.023L159.411 149.36L163.163 153ZM170.165 146V153H169.241V146.896H166.077V150.018C166.077 151.185 165.853 151.987 165.405 152.426C164.967 152.865 164.36 153.056 163.585 153V152.132C164.117 152.188 164.509 152.062 164.761 151.754C165.023 151.446 165.153 150.867 165.153 150.018V146H170.165ZM177.163 146H178.143L175.147 153.644C174.876 154.335 174.489 154.876 173.985 155.268C173.49 155.669 172.935 155.847 172.319 155.8V154.932C173.159 155.025 173.798 154.54 174.237 153.476L174.419 153.042L171.283 146H172.263L174.895 151.866L177.163 146ZM182.094 153.168C181.086 153.168 180.246 152.837 179.574 152.174C178.902 151.502 178.566 150.634 178.566 149.57C178.566 148.375 178.743 147.461 179.098 146.826C179.453 146.182 180.171 145.599 181.254 145.076C181.459 144.973 181.73 144.852 182.066 144.712C182.411 144.572 182.668 144.46 182.836 144.376C183.013 144.292 183.205 144.185 183.41 144.054C183.615 143.914 183.769 143.76 183.872 143.592C183.975 143.424 184.04 143.223 184.068 142.99L184.796 143.41C184.759 143.634 184.684 143.844 184.572 144.04C184.46 144.236 184.343 144.395 184.222 144.516C184.11 144.637 183.928 144.773 183.676 144.922C183.433 145.062 183.242 145.165 183.102 145.23C182.971 145.286 182.738 145.384 182.402 145.524C182.075 145.664 181.856 145.757 181.744 145.804C181.091 146.084 180.61 146.378 180.302 146.686C179.994 146.985 179.775 147.377 179.644 147.862C179.961 147.442 180.363 147.134 180.848 146.938C181.343 146.733 181.823 146.63 182.29 146.63C183.223 146.63 183.993 146.938 184.6 147.554C185.216 148.161 185.524 148.94 185.524 149.892C185.524 150.835 185.197 151.619 184.544 152.244C183.9 152.86 183.083 153.168 182.094 153.168ZM182.094 152.244C182.822 152.244 183.419 152.025 183.886 151.586C184.362 151.138 184.6 150.573 184.6 149.892C184.6 149.201 184.376 148.637 183.928 148.198C183.489 147.75 182.901 147.526 182.164 147.526C181.501 147.526 180.899 147.736 180.358 148.156C179.817 148.567 179.546 149.117 179.546 149.808C179.546 150.517 179.789 151.101 180.274 151.558C180.769 152.015 181.375 152.244 182.094 152.244ZM189.771 148.66C190.425 148.66 190.975 148.865 191.423 149.276C191.881 149.677 192.109 150.195 192.109 150.83C192.109 151.465 191.881 151.987 191.423 152.398C190.975 152.799 190.425 153 189.771 153H186.929V146H187.853V148.66H189.771ZM193.089 146H194.013V153H193.089V146ZM189.771 152.104C190.163 152.104 190.495 151.987 190.765 151.754C191.045 151.521 191.185 151.213 191.185 150.83C191.185 150.447 191.045 150.139 190.765 149.906C190.495 149.673 190.163 149.556 189.771 149.556H187.853V152.104H189.771Z" fill="white"/>
</g>
<defs>
<filter id="filter0_b_888_26047" x="-10" y="-10" width="227" height="198" filterUnits="userSpaceOnUse" color-interpolation-filters="sRGB">
<feFlood flood-opacity="0" result="BackgroundImageFix"/>
<feGaussianBlur in="BackgroundImageFix" stdDeviation="5"/>
<feComposite in2="SourceAlpha" operator="in" result="effect1_backgroundBlur_888_26047"/>
<feBlend mode="normal" in="SourceGraphic" in2="effect1_backgroundBlur_888_26047" result="shape"/>
</filter>
</defs>
</svg>
