<svg width="1740" height="867" viewBox="0 0 1740 867" fill="none" xmlns="http://www.w3.org/2000/svg">
<rect x="116" width="1388" height="867" rx="35" fill="#252121"/>
<circle opacity="0.2" cx="474" cy="461" r="348.75" stroke="white" stroke-width="0.5"/>
<circle opacity="0.2" cx="1148.26" cy="461" r="348.75" stroke="white" stroke-width="0.5"/>
<circle opacity="0.2" cx="798.783" cy="461" r="348.75" stroke="white" stroke-width="0.5"/>
<g opacity="0.5">
<path opacity="0.8" d="M113.314 46.8V49.968H105.862V72H102.55V49.968H95.1343V46.8H113.314ZM136.138 68.652C133.618 71.196 130.534 72.468 126.886 72.468C123.238 72.468 120.154 71.196 117.634 68.652C115.114 66.108 113.854 63.024 113.854 59.4C113.854 55.752 115.114 52.668 117.634 50.148C120.154 47.604 123.238 46.332 126.886 46.332C130.534 46.332 133.618 47.604 136.138 50.148C138.682 52.668 139.954 55.752 139.954 59.4C139.954 63.024 138.682 66.108 136.138 68.652ZM119.938 66.384C121.81 68.256 124.126 69.192 126.886 69.192C129.646 69.192 131.95 68.256 133.798 66.384C135.67 64.488 136.606 62.16 136.606 59.4C136.606 56.616 135.67 54.288 133.798 52.416C131.95 50.52 129.646 49.572 126.886 49.572C124.126 49.572 121.81 50.52 119.938 52.416C118.09 54.288 117.166 56.616 117.166 59.4C117.166 62.16 118.09 64.488 119.938 66.384ZM153.123 46.8C155.451 46.8 157.383 47.58 158.919 49.14C160.479 50.676 161.259 52.596 161.259 54.9C161.259 57.18 160.479 59.1 158.919 60.66C157.383 62.22 155.451 63 153.123 63H147.327V72H143.979V46.8H153.123ZM153.123 59.868C154.515 59.868 155.667 59.4 156.579 58.464C157.491 57.504 157.947 56.316 157.947 54.9C157.947 53.46 157.491 52.272 156.579 51.336C155.667 50.4 154.515 49.932 153.123 49.932H147.327V59.868H153.123Z" fill="white"/>
<mask id="path-6-inside-1_3001_3579" fill="white">
<path d="M221 61C221 59.1615 220.638 57.341 219.934 55.6424C219.231 53.9439 218.2 52.4005 216.899 51.1005C215.599 49.8005 214.056 48.7693 212.358 48.0657C210.659 47.3621 208.839 47 207 47C205.161 47 203.341 47.3621 201.642 48.0657C199.944 48.7693 198.401 49.8005 197.101 51.1005C195.8 52.4005 194.769 53.9439 194.066 55.6424C193.362 57.341 193 59.1615 193 61L207 61H221Z"/>
</mask>
<path d="M221 61C221 59.1615 220.638 57.341 219.934 55.6424C219.231 53.9439 218.2 52.4005 216.899 51.1005C215.599 49.8005 214.056 48.7693 212.358 48.0657C210.659 47.3621 208.839 47 207 47C205.161 47 203.341 47.3621 201.642 48.0657C199.944 48.7693 198.401 49.8005 197.101 51.1005C195.8 52.4005 194.769 53.9439 194.066 55.6424C193.362 57.341 193 59.1615 193 61L207 61H221Z" stroke="white" stroke-opacity="0.3" stroke-width="4" mask="url(#path-6-inside-1_3001_3579)"/>
<mask id="path-7-inside-2_3001_3579" fill="white">
<path d="M193 63C193 64.8385 193.362 66.659 194.066 68.3576C194.769 70.0561 195.8 71.5995 197.101 72.8995C198.401 74.1995 199.944 75.2307 201.642 75.9343C203.341 76.6379 205.161 77 207 77C208.839 77 210.659 76.6379 212.358 75.9343C214.056 75.2307 215.599 74.1995 216.899 72.8995C218.2 71.5995 219.231 70.0561 219.934 68.3576C220.638 66.659 221 64.8385 221 63L207 63H193Z"/>
</mask>
<path d="M193 63C193 64.8385 193.362 66.659 194.066 68.3576C194.769 70.0561 195.8 71.5995 197.101 72.8995C198.401 74.1995 199.944 75.2307 201.642 75.9343C203.341 76.6379 205.161 77 207 77C208.839 77 210.659 76.6379 212.358 75.9343C214.056 75.2307 215.599 74.1995 216.899 72.8995C218.2 71.5995 219.231 70.0561 219.934 68.3576C220.638 66.659 221 64.8385 221 63L207 63H193Z" stroke="white" stroke-opacity="0.3" stroke-width="4" mask="url(#path-7-inside-2_3001_3579)"/>
<path opacity="0.8" d="M268.692 49.968H257.532V58.14H268.224V61.308H257.532V72H254.184V46.8H268.692V49.968ZM293.699 68.652C291.179 71.196 288.095 72.468 284.447 72.468C280.799 72.468 277.715 71.196 275.195 68.652C272.675 66.108 271.415 63.024 271.415 59.4C271.415 55.752 272.675 52.668 275.195 50.148C277.715 47.604 280.799 46.332 284.447 46.332C288.095 46.332 291.179 47.604 293.699 50.148C296.243 52.668 297.515 55.752 297.515 59.4C297.515 63.024 296.243 66.108 293.699 68.652ZM277.499 66.384C279.371 68.256 281.687 69.192 284.447 69.192C287.207 69.192 289.511 68.256 291.359 66.384C293.231 64.488 294.167 62.16 294.167 59.4C294.167 56.616 293.231 54.288 291.359 52.416C289.511 50.52 287.207 49.572 284.447 49.572C281.687 49.572 279.371 50.52 277.499 52.416C275.651 54.288 274.727 56.616 274.727 59.4C274.727 62.16 275.651 64.488 277.499 66.384ZM322.492 68.652C319.972 71.196 316.888 72.468 313.24 72.468C309.592 72.468 306.508 71.196 303.988 68.652C301.468 66.108 300.208 63.024 300.208 59.4C300.208 55.752 301.468 52.668 303.988 50.148C306.508 47.604 309.592 46.332 313.24 46.332C316.888 46.332 319.972 47.604 322.492 50.148C325.036 52.668 326.308 55.752 326.308 59.4C326.308 63.024 325.036 66.108 322.492 68.652ZM306.292 66.384C308.164 68.256 310.48 69.192 313.24 69.192C316 69.192 318.304 68.256 320.152 66.384C322.024 64.488 322.96 62.16 322.96 59.4C322.96 56.616 322.024 54.288 320.152 52.416C318.304 50.52 316 49.572 313.24 49.572C310.48 49.572 308.164 50.52 306.292 52.416C304.444 54.288 303.52 56.616 303.52 59.4C303.52 62.16 304.444 64.488 306.292 66.384ZM345.019 46.8V49.968H337.567V72H334.255V49.968H326.839V46.8H345.019ZM362.733 58.932C363.885 59.484 364.797 60.276 365.469 61.308C366.165 62.34 366.513 63.528 366.513 64.872C366.513 66.888 365.805 68.58 364.389 69.948C362.973 71.316 361.245 72 359.205 72H348.333V46.8H358.413C360.381 46.8 362.049 47.46 363.417 48.78C364.785 50.1 365.469 51.732 365.469 53.676C365.469 55.908 364.557 57.66 362.733 58.932ZM358.413 49.932H351.681V57.636H358.413C359.469 57.636 360.357 57.264 361.077 56.52C361.797 55.776 362.157 54.864 362.157 53.784C362.157 52.728 361.785 51.828 361.041 51.084C360.321 50.316 359.445 49.932 358.413 49.932ZM359.205 68.868C360.333 68.868 361.281 68.472 362.049 67.68C362.817 66.888 363.201 65.916 363.201 64.764C363.201 63.636 362.805 62.676 362.013 61.884C361.245 61.092 360.309 60.696 359.205 60.696H351.681V68.868H359.205ZM387.077 72L385.025 66.348H373.685L371.633 72H368.069L377.465 46.8H381.245L390.641 72H387.077ZM374.837 63.216H383.873L379.337 50.796L374.837 63.216ZM396.962 68.832H407.834V72H393.614V46.8H396.962V68.832ZM414.54 68.832H425.412V72H411.192V46.8H414.54V68.832ZM452.278 49.968H441.118V58.14H451.81V61.308H441.118V72H437.77V46.8H452.278V49.968ZM456.333 46.8H459.681V72H456.333V46.8ZM468.435 68.832H480.135V72H465.087V46.8H479.955V49.968H468.435V57.708H479.055V60.84H468.435V68.832ZM487.525 68.832H498.397V72H484.177V46.8H487.525V68.832ZM511.583 46.8C515.015 46.8 517.859 48.024 520.115 50.472C522.395 52.896 523.535 55.872 523.535 59.4C523.535 62.928 522.395 65.916 520.115 68.364C517.859 70.788 515.015 72 511.583 72H501.755V46.8H511.583ZM511.583 68.832C514.151 68.832 516.251 67.932 517.883 66.132C519.515 64.332 520.331 62.088 520.331 59.4C520.331 56.712 519.515 54.468 517.883 52.668C516.251 50.868 514.151 49.968 511.583 49.968H505.103V68.832H511.583ZM550.995 58.932C552.147 59.484 553.059 60.276 553.731 61.308C554.427 62.34 554.775 63.528 554.775 64.872C554.775 66.888 554.067 68.58 552.651 69.948C551.235 71.316 549.507 72 547.467 72H536.595V46.8H546.675C548.643 46.8 550.311 47.46 551.679 48.78C553.047 50.1 553.731 51.732 553.731 53.676C553.731 55.908 552.819 57.66 550.995 58.932ZM546.675 49.932H539.943V57.636H546.675C547.731 57.636 548.619 57.264 549.339 56.52C550.059 55.776 550.419 54.864 550.419 53.784C550.419 52.728 550.047 51.828 549.303 51.084C548.583 50.316 547.707 49.932 546.675 49.932ZM547.467 68.868C548.595 68.868 549.543 68.472 550.311 67.68C551.079 66.888 551.463 65.916 551.463 64.764C551.463 63.636 551.067 62.676 550.275 61.884C549.507 61.092 548.571 60.696 547.467 60.696H539.943V68.868H547.467ZM579.695 68.652C577.175 71.196 574.091 72.468 570.443 72.468C566.795 72.468 563.711 71.196 561.191 68.652C558.671 66.108 557.411 63.024 557.411 59.4C557.411 55.752 558.671 52.668 561.191 50.148C563.711 47.604 566.795 46.332 570.443 46.332C574.091 46.332 577.175 47.604 579.695 50.148C582.239 52.668 583.511 55.752 583.511 59.4C583.511 63.024 582.239 66.108 579.695 68.652ZM563.495 66.384C565.367 68.256 567.683 69.192 570.443 69.192C573.203 69.192 575.507 68.256 577.355 66.384C579.227 64.488 580.163 62.16 580.163 59.4C580.163 56.616 579.227 54.288 577.355 52.416C575.507 50.52 573.203 49.572 570.443 49.572C567.683 49.572 565.367 50.52 563.495 52.416C561.647 54.288 560.723 56.616 560.723 59.4C560.723 62.16 561.647 64.488 563.495 66.384ZM608.488 68.652C605.968 71.196 602.884 72.468 599.236 72.468C595.588 72.468 592.504 71.196 589.984 68.652C587.464 66.108 586.204 63.024 586.204 59.4C586.204 55.752 587.464 52.668 589.984 50.148C592.504 47.604 595.588 46.332 599.236 46.332C602.884 46.332 605.968 47.604 608.488 50.148C611.032 52.668 612.304 55.752 612.304 59.4C612.304 63.024 611.032 66.108 608.488 68.652ZM592.288 66.384C594.16 68.256 596.476 69.192 599.236 69.192C601.996 69.192 604.3 68.256 606.148 66.384C608.02 64.488 608.956 62.16 608.956 59.4C608.956 56.616 608.02 54.288 606.148 52.416C604.3 50.52 601.996 49.572 599.236 49.572C596.476 49.572 594.16 50.52 592.288 52.416C590.44 54.288 589.516 56.616 589.516 59.4C589.516 62.16 590.44 64.488 592.288 66.384ZM634.653 72H630.549L619.677 59.904V72H616.329V46.8H619.677V58.176L630.189 46.8H634.293L623.169 59.04L634.653 72ZM637.634 46.8H640.982V72H637.634V46.8ZM662.048 46.8H665.396V72H662.695L649.736 53.172V72H646.388V46.8H649.088L662.048 65.592V46.8ZM695.086 59.508V61.02C695.086 64.308 693.958 67.044 691.702 69.228C689.446 71.388 686.458 72.468 682.738 72.468C678.898 72.468 675.718 71.208 673.198 68.688C670.702 66.144 669.454 63.048 669.454 59.4C669.454 55.752 670.702 52.668 673.198 50.148C675.718 47.604 678.874 46.332 682.666 46.332C684.994 46.332 687.13 46.896 689.074 48.024C691.018 49.128 692.518 50.592 693.574 52.416L690.694 54.108C689.974 52.74 688.882 51.648 687.418 50.832C685.978 49.992 684.382 49.572 682.63 49.572C679.75 49.572 677.386 50.52 675.538 52.416C673.69 54.288 672.766 56.616 672.766 59.4C672.766 62.184 673.69 64.512 675.538 66.384C677.41 68.256 679.822 69.192 682.774 69.192C685.294 69.192 687.334 68.58 688.894 67.356C690.454 66.108 691.402 64.5 691.738 62.532H682.486V59.508H695.086ZM716.293 72.468C713.941 72.468 711.925 71.916 710.245 70.812C708.589 69.708 707.425 68.196 706.753 66.276L709.633 64.62C710.617 67.668 712.861 69.192 716.365 69.192C718.093 69.192 719.413 68.844 720.325 68.148C721.237 67.428 721.693 66.48 721.693 65.304C721.693 64.104 721.237 63.204 720.325 62.604C719.413 62.004 717.889 61.368 715.753 60.696C714.697 60.36 713.893 60.096 713.341 59.904C712.789 59.688 712.093 59.376 711.253 58.968C710.437 58.536 709.825 58.104 709.417 57.672C709.009 57.216 708.637 56.628 708.301 55.908C707.989 55.188 707.833 54.372 707.833 53.46C707.833 51.276 708.601 49.548 710.137 48.276C711.673 46.98 713.545 46.332 715.753 46.332C717.745 46.332 719.473 46.836 720.937 47.844C722.425 48.852 723.541 50.184 724.285 51.84L721.477 53.46C720.397 50.868 718.489 49.572 715.753 49.572C714.385 49.572 713.281 49.908 712.441 50.58C711.601 51.252 711.181 52.164 711.181 53.316C711.181 54.42 711.577 55.26 712.369 55.836C713.161 56.412 714.529 57.012 716.473 57.636C717.169 57.852 717.661 58.008 717.949 58.104C718.237 58.2 718.681 58.368 719.281 58.608C719.905 58.848 720.361 59.04 720.649 59.184C720.937 59.328 721.321 59.532 721.801 59.796C722.305 60.06 722.677 60.312 722.917 60.552C723.157 60.792 723.433 61.092 723.745 61.452C724.081 61.788 724.321 62.136 724.465 62.496C724.609 62.856 724.729 63.276 724.825 63.756C724.945 64.212 725.005 64.704 725.005 65.232C725.005 67.44 724.201 69.204 722.593 70.524C720.985 71.82 718.885 72.468 716.293 72.468ZM732.142 68.832H743.842V72H728.794V46.8H743.662V49.968H732.142V57.708H742.762V60.84H732.142V68.832ZM762.824 72L757.172 62.352H751.232V72H747.884V46.8H757.964C760.124 46.8 761.972 47.568 763.508 49.104C765.044 50.616 765.812 52.452 765.812 54.612C765.812 56.244 765.32 57.732 764.336 59.076C763.376 60.42 762.128 61.368 760.592 61.92L766.532 72H762.824ZM751.232 49.932V59.328H757.964C759.212 59.328 760.268 58.872 761.132 57.96C762.02 57.024 762.464 55.908 762.464 54.612C762.464 53.316 762.02 52.212 761.132 51.3C760.268 50.388 759.212 49.932 757.964 49.932H751.232ZM776.093 72L767.093 46.8H770.693L778.001 67.824L785.273 46.8H788.909L779.873 72H776.093ZM791.864 46.8H795.212V72H791.864V46.8ZM812.462 72.468C808.646 72.468 805.49 71.208 802.994 68.688C800.522 66.168 799.286 63.072 799.286 59.4C799.286 55.728 800.522 52.632 802.994 50.112C805.49 47.592 808.646 46.332 812.462 46.332C814.766 46.332 816.878 46.884 818.798 47.988C820.742 49.092 822.254 50.58 823.334 52.452L820.418 54.144C819.698 52.752 818.618 51.648 817.178 50.832C815.762 49.992 814.19 49.572 812.462 49.572C809.558 49.572 807.182 50.508 805.334 52.38C803.51 54.252 802.598 56.592 802.598 59.4C802.598 62.184 803.51 64.512 805.334 66.384C807.182 68.256 809.558 69.192 812.462 69.192C814.19 69.192 815.762 68.784 817.178 67.968C818.618 67.128 819.698 66.024 820.418 64.656L823.334 66.312C822.278 68.184 820.778 69.684 818.834 70.812C816.89 71.916 814.766 72.468 812.462 72.468ZM830.474 68.832H842.174V72H827.126V46.8H841.994V49.968H830.474V57.708H841.094V60.84H830.474V68.832Z" fill="white"/>
<mask id="path-9-inside-3_3001_3579" fill="white">
<path d="M902 61C902 59.1615 901.638 57.341 900.934 55.6424C900.231 53.9439 899.2 52.4005 897.899 51.1005C896.599 49.8005 895.056 48.7693 893.358 48.0657C891.659 47.3621 889.839 47 888 47C886.161 47 884.341 47.3621 882.642 48.0657C880.944 48.7693 879.401 49.8005 878.101 51.1005C876.8 52.4005 875.769 53.9439 875.066 55.6424C874.362 57.341 874 59.1615 874 61L888 61H902Z"/>
</mask>
<path d="M902 61C902 59.1615 901.638 57.341 900.934 55.6424C900.231 53.9439 899.2 52.4005 897.899 51.1005C896.599 49.8005 895.056 48.7693 893.358 48.0657C891.659 47.3621 889.839 47 888 47C886.161 47 884.341 47.3621 882.642 48.0657C880.944 48.7693 879.401 49.8005 878.101 51.1005C876.8 52.4005 875.769 53.9439 875.066 55.6424C874.362 57.341 874 59.1615 874 61L888 61H902Z" stroke="white" stroke-opacity="0.3" stroke-width="4" mask="url(#path-9-inside-3_3001_3579)"/>
<mask id="path-10-inside-4_3001_3579" fill="white">
<path d="M874 63C874 64.8385 874.362 66.659 875.066 68.3576C875.769 70.0561 876.8 71.5995 878.101 72.8995C879.401 74.1995 880.944 75.2307 882.642 75.9343C884.341 76.6379 886.161 77 888 77C889.839 77 891.659 76.6379 893.358 75.9343C895.056 75.2307 896.599 74.1995 897.899 72.8995C899.2 71.5995 900.231 70.0561 900.934 68.3576C901.638 66.659 902 64.8385 902 63L888 63H874Z"/>
</mask>
<path d="M874 63C874 64.8385 874.362 66.659 875.066 68.3576C875.769 70.0561 876.8 71.5995 878.101 72.8995C879.401 74.1995 880.944 75.2307 882.642 75.9343C884.341 76.6379 886.161 77 888 77C889.839 77 891.659 76.6379 893.358 75.9343C895.056 75.2307 896.599 74.1995 897.899 72.8995C899.2 71.5995 900.231 70.0561 900.934 68.3576C901.638 66.659 902 64.8385 902 63L888 63H874Z" stroke="white" stroke-opacity="0.3" stroke-width="4" mask="url(#path-10-inside-4_3001_3579)"/>
<path opacity="0.8" d="M951.314 46.8V49.968H943.862V72H940.55V49.968H933.134V46.8H951.314ZM974.138 68.652C971.618 71.196 968.534 72.468 964.886 72.468C961.238 72.468 958.154 71.196 955.634 68.652C953.114 66.108 951.854 63.024 951.854 59.4C951.854 55.752 953.114 52.668 955.634 50.148C958.154 47.604 961.238 46.332 964.886 46.332C968.534 46.332 971.618 47.604 974.138 50.148C976.682 52.668 977.954 55.752 977.954 59.4C977.954 63.024 976.682 66.108 974.138 68.652ZM957.938 66.384C959.81 68.256 962.126 69.192 964.886 69.192C967.646 69.192 969.95 68.256 971.798 66.384C973.67 64.488 974.606 62.16 974.606 59.4C974.606 56.616 973.67 54.288 971.798 52.416C969.95 50.52 967.646 49.572 964.886 49.572C962.126 49.572 959.81 50.52 957.938 52.416C956.09 54.288 955.166 56.616 955.166 59.4C955.166 62.16 956.09 64.488 957.938 66.384ZM991.123 46.8C993.451 46.8 995.383 47.58 996.919 49.14C998.479 50.676 999.259 52.596 999.259 54.9C999.259 57.18 998.479 59.1 996.919 60.66C995.383 62.22 993.451 63 991.123 63H985.327V72H981.979V46.8H991.123ZM991.123 59.868C992.515 59.868 993.667 59.4 994.579 58.464C995.491 57.504 995.947 56.316 995.947 54.9C995.947 53.46 995.491 52.272 994.579 51.336C993.667 50.4 992.515 49.932 991.123 49.932H985.327V59.868H991.123Z" fill="white"/>
<mask id="path-12-inside-5_3001_3579" fill="white">
<path d="M1059 61C1059 59.1615 1058.64 57.341 1057.93 55.6424C1057.23 53.9439 1056.2 52.4005 1054.9 51.1005C1053.6 49.8005 1052.06 48.7693 1050.36 48.0657C1048.66 47.3621 1046.84 47 1045 47C1043.16 47 1041.34 47.3621 1039.64 48.0657C1037.94 48.7693 1036.4 49.8005 1035.1 51.1005C1033.8 52.4005 1032.77 53.9439 1032.07 55.6424C1031.36 57.341 1031 59.1615 1031 61L1045 61H1059Z"/>
</mask>
<path d="M1059 61C1059 59.1615 1058.64 57.341 1057.93 55.6424C1057.23 53.9439 1056.2 52.4005 1054.9 51.1005C1053.6 49.8005 1052.06 48.7693 1050.36 48.0657C1048.66 47.3621 1046.84 47 1045 47C1043.16 47 1041.34 47.3621 1039.64 48.0657C1037.94 48.7693 1036.4 49.8005 1035.1 51.1005C1033.8 52.4005 1032.77 53.9439 1032.07 55.6424C1031.36 57.341 1031 59.1615 1031 61L1045 61H1059Z" stroke="white" stroke-opacity="0.3" stroke-width="4" mask="url(#path-12-inside-5_3001_3579)"/>
<mask id="path-13-inside-6_3001_3579" fill="white">
<path d="M1031 63C1031 64.8385 1031.36 66.659 1032.07 68.3576C1032.77 70.0561 1033.8 71.5995 1035.1 72.8995C1036.4 74.1995 1037.94 75.2307 1039.64 75.9343C1041.34 76.6379 1043.16 77 1045 77C1046.84 77 1048.66 76.6379 1050.36 75.9343C1052.06 75.2307 1053.6 74.1995 1054.9 72.8995C1056.2 71.5995 1057.23 70.0561 1057.93 68.3576C1058.64 66.659 1059 64.8385 1059 63L1045 63H1031Z"/>
</mask>
<path d="M1031 63C1031 64.8385 1031.36 66.659 1032.07 68.3576C1032.77 70.0561 1033.8 71.5995 1035.1 72.8995C1036.4 74.1995 1037.94 75.2307 1039.64 75.9343C1041.34 76.6379 1043.16 77 1045 77C1046.84 77 1048.66 76.6379 1050.36 75.9343C1052.06 75.2307 1053.6 74.1995 1054.9 72.8995C1056.2 71.5995 1057.23 70.0561 1057.93 68.3576C1058.64 66.659 1059 64.8385 1059 63L1045 63H1031Z" stroke="white" stroke-opacity="0.3" stroke-width="4" mask="url(#path-13-inside-6_3001_3579)"/>
<path opacity="0.8" d="M1106.69 49.968H1095.53V58.14H1106.22V61.308H1095.53V72H1092.18V46.8H1106.69V49.968ZM1131.7 68.652C1129.18 71.196 1126.09 72.468 1122.45 72.468C1118.8 72.468 1115.71 71.196 1113.19 68.652C1110.67 66.108 1109.41 63.024 1109.41 59.4C1109.41 55.752 1110.67 52.668 1113.19 50.148C1115.71 47.604 1118.8 46.332 1122.45 46.332C1126.09 46.332 1129.18 47.604 1131.7 50.148C1134.24 52.668 1135.51 55.752 1135.51 59.4C1135.51 63.024 1134.24 66.108 1131.7 68.652ZM1115.5 66.384C1117.37 68.256 1119.69 69.192 1122.45 69.192C1125.21 69.192 1127.51 68.256 1129.36 66.384C1131.23 64.488 1132.17 62.16 1132.17 59.4C1132.17 56.616 1131.23 54.288 1129.36 52.416C1127.51 50.52 1125.21 49.572 1122.45 49.572C1119.69 49.572 1117.37 50.52 1115.5 52.416C1113.65 54.288 1112.73 56.616 1112.73 59.4C1112.73 62.16 1113.65 64.488 1115.5 66.384ZM1160.49 68.652C1157.97 71.196 1154.89 72.468 1151.24 72.468C1147.59 72.468 1144.51 71.196 1141.99 68.652C1139.47 66.108 1138.21 63.024 1138.21 59.4C1138.21 55.752 1139.47 52.668 1141.99 50.148C1144.51 47.604 1147.59 46.332 1151.24 46.332C1154.89 46.332 1157.97 47.604 1160.49 50.148C1163.04 52.668 1164.31 55.752 1164.31 59.4C1164.31 63.024 1163.04 66.108 1160.49 68.652ZM1144.29 66.384C1146.16 68.256 1148.48 69.192 1151.24 69.192C1154 69.192 1156.3 68.256 1158.15 66.384C1160.02 64.488 1160.96 62.16 1160.96 59.4C1160.96 56.616 1160.02 54.288 1158.15 52.416C1156.3 50.52 1154 49.572 1151.24 49.572C1148.48 49.572 1146.16 50.52 1144.29 52.416C1142.44 54.288 1141.52 56.616 1141.52 59.4C1141.52 62.16 1142.44 64.488 1144.29 66.384ZM1183.02 46.8V49.968H1175.57V72H1172.26V49.968H1164.84V46.8H1183.02ZM1200.73 58.932C1201.88 59.484 1202.8 60.276 1203.47 61.308C1204.16 62.34 1204.51 63.528 1204.51 64.872C1204.51 66.888 1203.8 68.58 1202.39 69.948C1200.97 71.316 1199.24 72 1197.2 72H1186.33V46.8H1196.41C1198.38 46.8 1200.05 47.46 1201.42 48.78C1202.78 50.1 1203.47 51.732 1203.47 53.676C1203.47 55.908 1202.56 57.66 1200.73 58.932ZM1196.41 49.932H1189.68V57.636H1196.41C1197.47 57.636 1198.36 57.264 1199.08 56.52C1199.8 55.776 1200.16 54.864 1200.16 53.784C1200.16 52.728 1199.78 51.828 1199.04 51.084C1198.32 50.316 1197.44 49.932 1196.41 49.932ZM1197.2 68.868C1198.33 68.868 1199.28 68.472 1200.05 67.68C1200.82 66.888 1201.2 65.916 1201.2 64.764C1201.2 63.636 1200.8 62.676 1200.01 61.884C1199.24 61.092 1198.31 60.696 1197.2 60.696H1189.68V68.868H1197.2ZM1225.08 72L1223.03 66.348H1211.69L1209.63 72H1206.07L1215.47 46.8H1219.25L1228.64 72H1225.08ZM1212.84 63.216H1221.87L1217.34 50.796L1212.84 63.216ZM1234.96 68.832H1245.83V72H1231.61V46.8H1234.96V68.832ZM1252.54 68.832H1263.41V72H1249.19V46.8H1252.54V68.832ZM1290.28 49.968H1279.12V58.14H1289.81V61.308H1279.12V72H1275.77V46.8H1290.28V49.968ZM1294.33 46.8H1297.68V72H1294.33V46.8ZM1306.43 68.832H1318.13V72H1303.09V46.8H1317.95V49.968H1306.43V57.708H1317.05V60.84H1306.43V68.832ZM1325.52 68.832H1336.4V72H1322.18V46.8H1325.52V68.832ZM1349.58 46.8C1353.01 46.8 1355.86 48.024 1358.11 50.472C1360.39 52.896 1361.53 55.872 1361.53 59.4C1361.53 62.928 1360.39 65.916 1358.11 68.364C1355.86 70.788 1353.01 72 1349.58 72H1339.75V46.8H1349.58ZM1349.58 68.832C1352.15 68.832 1354.25 67.932 1355.88 66.132C1357.51 64.332 1358.33 62.088 1358.33 59.4C1358.33 56.712 1357.51 54.468 1355.88 52.668C1354.25 50.868 1352.15 49.968 1349.58 49.968H1343.1V68.832H1349.58ZM1388.99 58.932C1390.15 59.484 1391.06 60.276 1391.73 61.308C1392.43 62.34 1392.77 63.528 1392.77 64.872C1392.77 66.888 1392.07 68.58 1390.65 69.948C1389.23 71.316 1387.51 72 1385.47 72H1374.59V46.8H1384.67C1386.64 46.8 1388.31 47.46 1389.68 48.78C1391.05 50.1 1391.73 51.732 1391.73 53.676C1391.73 55.908 1390.82 57.66 1388.99 58.932ZM1384.67 49.932H1377.94V57.636H1384.67C1385.73 57.636 1386.62 57.264 1387.34 56.52C1388.06 55.776 1388.42 54.864 1388.42 53.784C1388.42 52.728 1388.05 51.828 1387.3 51.084C1386.58 50.316 1385.71 49.932 1384.67 49.932ZM1385.47 68.868C1386.59 68.868 1387.54 68.472 1388.31 67.68C1389.08 66.888 1389.46 65.916 1389.46 64.764C1389.46 63.636 1389.07 62.676 1388.27 61.884C1387.51 61.092 1386.57 60.696 1385.47 60.696H1377.94V68.868H1385.47ZM1417.69 68.652C1415.17 71.196 1412.09 72.468 1408.44 72.468C1404.79 72.468 1401.71 71.196 1399.19 68.652C1396.67 66.108 1395.41 63.024 1395.41 59.4C1395.41 55.752 1396.67 52.668 1399.19 50.148C1401.71 47.604 1404.79 46.332 1408.44 46.332C1412.09 46.332 1415.17 47.604 1417.69 50.148C1420.24 52.668 1421.51 55.752 1421.51 59.4C1421.51 63.024 1420.24 66.108 1417.69 68.652ZM1401.49 66.384C1403.37 68.256 1405.68 69.192 1408.44 69.192C1411.2 69.192 1413.51 68.256 1415.35 66.384C1417.23 64.488 1418.16 62.16 1418.16 59.4C1418.16 56.616 1417.23 54.288 1415.35 52.416C1413.51 50.52 1411.2 49.572 1408.44 49.572C1405.68 49.572 1403.37 50.52 1401.49 52.416C1399.65 54.288 1398.72 56.616 1398.72 59.4C1398.72 62.16 1399.65 64.488 1401.49 66.384ZM1446.49 68.652C1443.97 71.196 1440.88 72.468 1437.24 72.468C1433.59 72.468 1430.5 71.196 1427.98 68.652C1425.46 66.108 1424.2 63.024 1424.2 59.4C1424.2 55.752 1425.46 52.668 1427.98 50.148C1430.5 47.604 1433.59 46.332 1437.24 46.332C1440.88 46.332 1443.97 47.604 1446.49 50.148C1449.03 52.668 1450.3 55.752 1450.3 59.4C1450.3 63.024 1449.03 66.108 1446.49 68.652ZM1430.29 66.384C1432.16 68.256 1434.48 69.192 1437.24 69.192C1440 69.192 1442.3 68.256 1444.15 66.384C1446.02 64.488 1446.96 62.16 1446.96 59.4C1446.96 56.616 1446.02 54.288 1444.15 52.416C1442.3 50.52 1440 49.572 1437.24 49.572C1434.48 49.572 1432.16 50.52 1430.29 52.416C1428.44 54.288 1427.52 56.616 1427.52 59.4C1427.52 62.16 1428.44 64.488 1430.29 66.384ZM1472.65 72H1468.55L1457.68 59.904V72H1454.33V46.8H1457.68V58.176L1468.19 46.8H1472.29L1461.17 59.04L1472.65 72ZM1475.63 46.8H1478.98V72H1475.63V46.8ZM1500.05 46.8H1503.4V72H1500.7L1487.74 53.172V72H1484.39V46.8H1487.09L1500.05 65.592V46.8ZM1533.09 59.508V61.02C1533.09 64.308 1531.96 67.044 1529.7 69.228C1527.45 71.388 1524.46 72.468 1520.74 72.468C1516.9 72.468 1513.72 71.208 1511.2 68.688C1508.7 66.144 1507.45 63.048 1507.45 59.4C1507.45 55.752 1508.7 52.668 1511.2 50.148C1513.72 47.604 1516.87 46.332 1520.67 46.332C1522.99 46.332 1525.13 46.896 1527.07 48.024C1529.02 49.128 1530.52 50.592 1531.57 52.416L1528.69 54.108C1527.97 52.74 1526.88 51.648 1525.42 50.832C1523.98 49.992 1522.38 49.572 1520.63 49.572C1517.75 49.572 1515.39 50.52 1513.54 52.416C1511.69 54.288 1510.77 56.616 1510.77 59.4C1510.77 62.184 1511.69 64.512 1513.54 66.384C1515.41 68.256 1517.82 69.192 1520.77 69.192C1523.29 69.192 1525.33 68.58 1526.89 67.356C1528.45 66.108 1529.4 64.5 1529.74 62.532H1520.49V59.508H1533.09ZM1554.29 72.468C1551.94 72.468 1549.93 71.916 1548.25 70.812C1546.59 69.708 1545.43 68.196 1544.75 66.276L1547.63 64.62C1548.62 67.668 1550.86 69.192 1554.37 69.192C1556.09 69.192 1557.41 68.844 1558.33 68.148C1559.24 67.428 1559.69 66.48 1559.69 65.304C1559.69 64.104 1559.24 63.204 1558.33 62.604C1557.41 62.004 1555.89 61.368 1553.75 60.696C1552.7 60.36 1551.89 60.096 1551.34 59.904C1550.79 59.688 1550.09 59.376 1549.25 58.968C1548.44 58.536 1547.83 58.104 1547.42 57.672C1547.01 57.216 1546.64 56.628 1546.3 55.908C1545.99 55.188 1545.83 54.372 1545.83 53.46C1545.83 51.276 1546.6 49.548 1548.14 48.276C1549.67 46.98 1551.55 46.332 1553.75 46.332C1555.75 46.332 1557.47 46.836 1558.94 47.844C1560.43 48.852 1561.54 50.184 1562.29 51.84L1559.48 53.46C1558.4 50.868 1556.49 49.572 1553.75 49.572C1552.39 49.572 1551.28 49.908 1550.44 50.58C1549.6 51.252 1549.18 52.164 1549.18 53.316C1549.18 54.42 1549.58 55.26 1550.37 55.836C1551.16 56.412 1552.53 57.012 1554.47 57.636C1555.17 57.852 1555.66 58.008 1555.95 58.104C1556.24 58.2 1556.68 58.368 1557.28 58.608C1557.91 58.848 1558.36 59.04 1558.65 59.184C1558.94 59.328 1559.32 59.532 1559.8 59.796C1560.31 60.06 1560.68 60.312 1560.92 60.552C1561.16 60.792 1561.43 61.092 1561.75 61.452C1562.08 61.788 1562.32 62.136 1562.47 62.496C1562.61 62.856 1562.73 63.276 1562.83 63.756C1562.95 64.212 1563.01 64.704 1563.01 65.232C1563.01 67.44 1562.2 69.204 1560.59 70.524C1558.99 71.82 1556.89 72.468 1554.29 72.468ZM1570.14 68.832H1581.84V72H1566.79V46.8H1581.66V49.968H1570.14V57.708H1580.76V60.84H1570.14V68.832ZM1600.82 72L1595.17 62.352H1589.23V72H1585.88V46.8H1595.96C1598.12 46.8 1599.97 47.568 1601.51 49.104C1603.04 50.616 1603.81 52.452 1603.81 54.612C1603.81 56.244 1603.32 57.732 1602.34 59.076C1601.38 60.42 1600.13 61.368 1598.59 61.92L1604.53 72H1600.82ZM1589.23 49.932V59.328H1595.96C1597.21 59.328 1598.27 58.872 1599.13 57.96C1600.02 57.024 1600.46 55.908 1600.46 54.612C1600.46 53.316 1600.02 52.212 1599.13 51.3C1598.27 50.388 1597.21 49.932 1595.96 49.932H1589.23ZM1614.09 72L1605.09 46.8H1608.69L1616 67.824L1623.27 46.8H1626.91L1617.87 72H1614.09ZM1629.86 46.8H1633.21V72H1629.86V46.8ZM1650.46 72.468C1646.65 72.468 1643.49 71.208 1640.99 68.688C1638.52 66.168 1637.29 63.072 1637.29 59.4C1637.29 55.728 1638.52 52.632 1640.99 50.112C1643.49 47.592 1646.65 46.332 1650.46 46.332C1652.77 46.332 1654.88 46.884 1656.8 47.988C1658.74 49.092 1660.25 50.58 1661.33 52.452L1658.42 54.144C1657.7 52.752 1656.62 51.648 1655.18 50.832C1653.76 49.992 1652.19 49.572 1650.46 49.572C1647.56 49.572 1645.18 50.508 1643.33 52.38C1641.51 54.252 1640.6 56.592 1640.6 59.4C1640.6 62.184 1641.51 64.512 1643.33 66.384C1645.18 68.256 1647.56 69.192 1650.46 69.192C1652.19 69.192 1653.76 68.784 1655.18 67.968C1656.62 67.128 1657.7 66.024 1658.42 64.656L1661.33 66.312C1660.28 68.184 1658.78 69.684 1656.83 70.812C1654.89 71.916 1652.77 72.468 1650.46 72.468ZM1668.47 68.832H1680.17V72H1665.13V46.8H1679.99V49.968H1668.47V57.708H1679.09V60.84H1668.47V68.832Z" fill="white"/>
<path d="M1740 61C1740 59.1615 1739.64 57.341 1738.93 55.6424C1738.23 53.9439 1737.2 52.4005 1735.9 51.1005C1734.6 49.8005 1733.06 48.7693 1731.36 48.0657C1729.66 47.3621 1727.84 47 1726 47C1724.16 47 1722.34 47.3621 1720.64 48.0657C1718.94 48.7693 1717.4 49.8005 1716.1 51.1005C1714.8 52.4005 1713.77 53.9439 1713.07 55.6424C1712.36 57.341 1712 59.1615 1712 61L1726 61H1740Z" fill="#6BA4ED"/>
<path d="M1712 63C1712 64.8385 1712.36 66.659 1713.07 68.3576C1713.77 70.0561 1714.8 71.5995 1716.1 72.8995C1717.4 74.1995 1718.94 75.2307 1720.64 75.9343C1722.34 76.6379 1724.16 77 1726 77C1727.84 77 1729.66 76.6379 1731.36 75.9343C1733.06 75.2307 1734.6 74.1995 1735.9 72.8995C1737.2 71.5995 1738.23 70.0561 1738.93 68.3576C1739.64 66.659 1740 64.8385 1740 63L1726 63H1712Z" fill="#6BA4ED"/>
</g>
<g opacity="0.5">
<path opacity="0.8" d="M19.3143 789.8V792.968H11.8623V815H8.55033V792.968H1.13433V789.8H19.3143ZM42.1383 811.652C39.6183 814.196 36.5343 815.468 32.8863 815.468C29.2383 815.468 26.1543 814.196 23.6343 811.652C21.1143 809.108 19.8543 806.024 19.8543 802.4C19.8543 798.752 21.1143 795.668 23.6343 793.148C26.1543 790.604 29.2383 789.332 32.8863 789.332C36.5343 789.332 39.6183 790.604 42.1383 793.148C44.6823 795.668 45.9543 798.752 45.9543 802.4C45.9543 806.024 44.6823 809.108 42.1383 811.652ZM25.9383 809.384C27.8103 811.256 30.1263 812.192 32.8863 812.192C35.6463 812.192 37.9503 811.256 39.7983 809.384C41.6703 807.488 42.6063 805.16 42.6063 802.4C42.6063 799.616 41.6703 797.288 39.7983 795.416C37.9503 793.52 35.6463 792.572 32.8863 792.572C30.1263 792.572 27.8103 793.52 25.9383 795.416C24.0903 797.288 23.1663 799.616 23.1663 802.4C23.1663 805.16 24.0903 807.488 25.9383 809.384ZM59.1233 789.8C61.4513 789.8 63.3833 790.58 64.9193 792.14C66.4793 793.676 67.2593 795.596 67.2593 797.9C67.2593 800.18 66.4793 802.1 64.9193 803.66C63.3833 805.22 61.4513 806 59.1233 806H53.3273V815H49.9793V789.8H59.1233ZM59.1233 802.868C60.5153 802.868 61.6673 802.4 62.5793 801.464C63.4913 800.504 63.9473 799.316 63.9473 797.9C63.9473 796.46 63.4913 795.272 62.5793 794.336C61.6673 793.4 60.5153 792.932 59.1233 792.932H53.3273V802.868H59.1233Z" fill="white"/>
<mask id="path-18-inside-7_3001_3579" fill="white">
<path d="M127 804C127 802.161 126.638 800.341 125.934 798.642C125.231 796.944 124.2 795.401 122.899 794.101C121.599 792.8 120.056 791.769 118.358 791.066C116.659 790.362 114.839 790 113 790C111.161 790 109.341 790.362 107.642 791.066C105.944 791.769 104.401 792.8 103.101 794.101C101.8 795.401 100.769 796.944 100.066 798.642C99.3621 800.341 99 802.161 99 804L113 804H127Z"/>
</mask>
<path d="M127 804C127 802.161 126.638 800.341 125.934 798.642C125.231 796.944 124.2 795.401 122.899 794.101C121.599 792.8 120.056 791.769 118.358 791.066C116.659 790.362 114.839 790 113 790C111.161 790 109.341 790.362 107.642 791.066C105.944 791.769 104.401 792.8 103.101 794.101C101.8 795.401 100.769 796.944 100.066 798.642C99.3621 800.341 99 802.161 99 804L113 804H127Z" stroke="white" stroke-opacity="0.3" stroke-width="4" mask="url(#path-18-inside-7_3001_3579)"/>
<mask id="path-19-inside-8_3001_3579" fill="white">
<path d="M99 806C99 807.839 99.3621 809.659 100.066 811.358C100.769 813.056 101.8 814.599 103.101 815.899C104.401 817.2 105.944 818.231 107.642 818.934C109.341 819.638 111.161 820 113 820C114.839 820 116.659 819.638 118.358 818.934C120.056 818.231 121.599 817.2 122.899 815.899C124.2 814.599 125.231 813.056 125.934 811.358C126.638 809.659 127 807.839 127 806L113 806H99Z"/>
</mask>
<path d="M99 806C99 807.839 99.3621 809.659 100.066 811.358C100.769 813.056 101.8 814.599 103.101 815.899C104.401 817.2 105.944 818.231 107.642 818.934C109.341 819.638 111.161 820 113 820C114.839 820 116.659 819.638 118.358 818.934C120.056 818.231 121.599 817.2 122.899 815.899C124.2 814.599 125.231 813.056 125.934 811.358C126.638 809.659 127 807.839 127 806L113 806H99Z" stroke="white" stroke-opacity="0.3" stroke-width="4" mask="url(#path-19-inside-8_3001_3579)"/>
<path opacity="0.8" d="M174.692 792.968H163.532V801.14H174.224V804.308H163.532V815H160.184V789.8H174.692V792.968ZM199.699 811.652C197.179 814.196 194.095 815.468 190.447 815.468C186.799 815.468 183.715 814.196 181.195 811.652C178.675 809.108 177.415 806.024 177.415 802.4C177.415 798.752 178.675 795.668 181.195 793.148C183.715 790.604 186.799 789.332 190.447 789.332C194.095 789.332 197.179 790.604 199.699 793.148C202.243 795.668 203.515 798.752 203.515 802.4C203.515 806.024 202.243 809.108 199.699 811.652ZM183.499 809.384C185.371 811.256 187.687 812.192 190.447 812.192C193.207 812.192 195.511 811.256 197.359 809.384C199.231 807.488 200.167 805.16 200.167 802.4C200.167 799.616 199.231 797.288 197.359 795.416C195.511 793.52 193.207 792.572 190.447 792.572C187.687 792.572 185.371 793.52 183.499 795.416C181.651 797.288 180.727 799.616 180.727 802.4C180.727 805.16 181.651 807.488 183.499 809.384ZM228.492 811.652C225.972 814.196 222.888 815.468 219.24 815.468C215.592 815.468 212.508 814.196 209.988 811.652C207.468 809.108 206.208 806.024 206.208 802.4C206.208 798.752 207.468 795.668 209.988 793.148C212.508 790.604 215.592 789.332 219.24 789.332C222.888 789.332 225.972 790.604 228.492 793.148C231.036 795.668 232.308 798.752 232.308 802.4C232.308 806.024 231.036 809.108 228.492 811.652ZM212.292 809.384C214.164 811.256 216.48 812.192 219.24 812.192C222 812.192 224.304 811.256 226.152 809.384C228.024 807.488 228.96 805.16 228.96 802.4C228.96 799.616 228.024 797.288 226.152 795.416C224.304 793.52 222 792.572 219.24 792.572C216.48 792.572 214.164 793.52 212.292 795.416C210.444 797.288 209.52 799.616 209.52 802.4C209.52 805.16 210.444 807.488 212.292 809.384ZM251.019 789.8V792.968H243.567V815H240.255V792.968H232.839V789.8H251.019ZM268.733 801.932C269.885 802.484 270.797 803.276 271.469 804.308C272.165 805.34 272.513 806.528 272.513 807.872C272.513 809.888 271.805 811.58 270.389 812.948C268.973 814.316 267.245 815 265.205 815H254.333V789.8H264.413C266.381 789.8 268.049 790.46 269.417 791.78C270.785 793.1 271.469 794.732 271.469 796.676C271.469 798.908 270.557 800.66 268.733 801.932ZM264.413 792.932H257.681V800.636H264.413C265.469 800.636 266.357 800.264 267.077 799.52C267.797 798.776 268.157 797.864 268.157 796.784C268.157 795.728 267.785 794.828 267.041 794.084C266.321 793.316 265.445 792.932 264.413 792.932ZM265.205 811.868C266.333 811.868 267.281 811.472 268.049 810.68C268.817 809.888 269.201 808.916 269.201 807.764C269.201 806.636 268.805 805.676 268.013 804.884C267.245 804.092 266.309 803.696 265.205 803.696H257.681V811.868H265.205ZM293.077 815L291.025 809.348H279.685L277.633 815H274.069L283.465 789.8H287.245L296.641 815H293.077ZM280.837 806.216H289.873L285.337 793.796L280.837 806.216ZM302.962 811.832H313.834V815H299.614V789.8H302.962V811.832ZM320.54 811.832H331.412V815H317.192V789.8H320.54V811.832ZM358.278 792.968H347.118V801.14H357.81V804.308H347.118V815H343.77V789.8H358.278V792.968ZM362.333 789.8H365.681V815H362.333V789.8ZM374.435 811.832H386.135V815H371.087V789.8H385.955V792.968H374.435V800.708H385.055V803.84H374.435V811.832ZM393.525 811.832H404.397V815H390.177V789.8H393.525V811.832ZM417.583 789.8C421.015 789.8 423.859 791.024 426.115 793.472C428.395 795.896 429.535 798.872 429.535 802.4C429.535 805.928 428.395 808.916 426.115 811.364C423.859 813.788 421.015 815 417.583 815H407.755V789.8H417.583ZM417.583 811.832C420.151 811.832 422.251 810.932 423.883 809.132C425.515 807.332 426.331 805.088 426.331 802.4C426.331 799.712 425.515 797.468 423.883 795.668C422.251 793.868 420.151 792.968 417.583 792.968H411.103V811.832H417.583ZM456.995 801.932C458.147 802.484 459.059 803.276 459.731 804.308C460.427 805.34 460.775 806.528 460.775 807.872C460.775 809.888 460.067 811.58 458.651 812.948C457.235 814.316 455.507 815 453.467 815H442.595V789.8H452.675C454.643 789.8 456.311 790.46 457.679 791.78C459.047 793.1 459.731 794.732 459.731 796.676C459.731 798.908 458.819 800.66 456.995 801.932ZM452.675 792.932H445.943V800.636H452.675C453.731 800.636 454.619 800.264 455.339 799.52C456.059 798.776 456.419 797.864 456.419 796.784C456.419 795.728 456.047 794.828 455.303 794.084C454.583 793.316 453.707 792.932 452.675 792.932ZM453.467 811.868C454.595 811.868 455.543 811.472 456.311 810.68C457.079 809.888 457.463 808.916 457.463 807.764C457.463 806.636 457.067 805.676 456.275 804.884C455.507 804.092 454.571 803.696 453.467 803.696H445.943V811.868H453.467ZM485.695 811.652C483.175 814.196 480.091 815.468 476.443 815.468C472.795 815.468 469.711 814.196 467.191 811.652C464.671 809.108 463.411 806.024 463.411 802.4C463.411 798.752 464.671 795.668 467.191 793.148C469.711 790.604 472.795 789.332 476.443 789.332C480.091 789.332 483.175 790.604 485.695 793.148C488.239 795.668 489.511 798.752 489.511 802.4C489.511 806.024 488.239 809.108 485.695 811.652ZM469.495 809.384C471.367 811.256 473.683 812.192 476.443 812.192C479.203 812.192 481.507 811.256 483.355 809.384C485.227 807.488 486.163 805.16 486.163 802.4C486.163 799.616 485.227 797.288 483.355 795.416C481.507 793.52 479.203 792.572 476.443 792.572C473.683 792.572 471.367 793.52 469.495 795.416C467.647 797.288 466.723 799.616 466.723 802.4C466.723 805.16 467.647 807.488 469.495 809.384ZM514.488 811.652C511.968 814.196 508.884 815.468 505.236 815.468C501.588 815.468 498.504 814.196 495.984 811.652C493.464 809.108 492.204 806.024 492.204 802.4C492.204 798.752 493.464 795.668 495.984 793.148C498.504 790.604 501.588 789.332 505.236 789.332C508.884 789.332 511.968 790.604 514.488 793.148C517.032 795.668 518.304 798.752 518.304 802.4C518.304 806.024 517.032 809.108 514.488 811.652ZM498.288 809.384C500.16 811.256 502.476 812.192 505.236 812.192C507.996 812.192 510.3 811.256 512.148 809.384C514.02 807.488 514.956 805.16 514.956 802.4C514.956 799.616 514.02 797.288 512.148 795.416C510.3 793.52 507.996 792.572 505.236 792.572C502.476 792.572 500.16 793.52 498.288 795.416C496.44 797.288 495.516 799.616 495.516 802.4C495.516 805.16 496.44 807.488 498.288 809.384ZM540.653 815H536.549L525.677 802.904V815H522.329V789.8H525.677V801.176L536.189 789.8H540.293L529.169 802.04L540.653 815ZM543.634 789.8H546.982V815H543.634V789.8ZM568.048 789.8H571.396V815H568.695L555.736 796.172V815H552.388V789.8H555.088L568.048 808.592V789.8ZM601.086 802.508V804.02C601.086 807.308 599.958 810.044 597.702 812.228C595.446 814.388 592.458 815.468 588.738 815.468C584.898 815.468 581.718 814.208 579.198 811.688C576.702 809.144 575.454 806.048 575.454 802.4C575.454 798.752 576.702 795.668 579.198 793.148C581.718 790.604 584.874 789.332 588.666 789.332C590.994 789.332 593.13 789.896 595.074 791.024C597.018 792.128 598.518 793.592 599.574 795.416L596.694 797.108C595.974 795.74 594.882 794.648 593.418 793.832C591.978 792.992 590.382 792.572 588.63 792.572C585.75 792.572 583.386 793.52 581.538 795.416C579.69 797.288 578.766 799.616 578.766 802.4C578.766 805.184 579.69 807.512 581.538 809.384C583.41 811.256 585.822 812.192 588.774 812.192C591.294 812.192 593.334 811.58 594.894 810.356C596.454 809.108 597.402 807.5 597.738 805.532H588.486V802.508H601.086ZM622.293 815.468C619.941 815.468 617.925 814.916 616.245 813.812C614.589 812.708 613.425 811.196 612.753 809.276L615.633 807.62C616.617 810.668 618.861 812.192 622.365 812.192C624.093 812.192 625.413 811.844 626.325 811.148C627.237 810.428 627.693 809.48 627.693 808.304C627.693 807.104 627.237 806.204 626.325 805.604C625.413 805.004 623.889 804.368 621.753 803.696C620.697 803.36 619.893 803.096 619.341 802.904C618.789 802.688 618.093 802.376 617.253 801.968C616.437 801.536 615.825 801.104 615.417 800.672C615.009 800.216 614.637 799.628 614.301 798.908C613.989 798.188 613.833 797.372 613.833 796.46C613.833 794.276 614.601 792.548 616.137 791.276C617.673 789.98 619.545 789.332 621.753 789.332C623.745 789.332 625.473 789.836 626.937 790.844C628.425 791.852 629.541 793.184 630.285 794.84L627.477 796.46C626.397 793.868 624.489 792.572 621.753 792.572C620.385 792.572 619.281 792.908 618.441 793.58C617.601 794.252 617.181 795.164 617.181 796.316C617.181 797.42 617.577 798.26 618.369 798.836C619.161 799.412 620.529 800.012 622.473 800.636C623.169 800.852 623.661 801.008 623.949 801.104C624.237 801.2 624.681 801.368 625.281 801.608C625.905 801.848 626.361 802.04 626.649 802.184C626.937 802.328 627.321 802.532 627.801 802.796C628.305 803.06 628.677 803.312 628.917 803.552C629.157 803.792 629.433 804.092 629.745 804.452C630.081 804.788 630.321 805.136 630.465 805.496C630.609 805.856 630.729 806.276 630.825 806.756C630.945 807.212 631.005 807.704 631.005 808.232C631.005 810.44 630.201 812.204 628.593 813.524C626.985 814.82 624.885 815.468 622.293 815.468ZM638.142 811.832H649.842V815H634.794V789.8H649.662V792.968H638.142V800.708H648.762V803.84H638.142V811.832ZM668.824 815L663.172 805.352H657.232V815H653.884V789.8H663.964C666.124 789.8 667.972 790.568 669.508 792.104C671.044 793.616 671.812 795.452 671.812 797.612C671.812 799.244 671.32 800.732 670.336 802.076C669.376 803.42 668.128 804.368 666.592 804.92L672.532 815H668.824ZM657.232 792.932V802.328H663.964C665.212 802.328 666.268 801.872 667.132 800.96C668.02 800.024 668.464 798.908 668.464 797.612C668.464 796.316 668.02 795.212 667.132 794.3C666.268 793.388 665.212 792.932 663.964 792.932H657.232ZM682.093 815L673.093 789.8H676.693L684.001 810.824L691.273 789.8H694.909L685.873 815H682.093ZM697.864 789.8H701.212V815H697.864V789.8ZM718.462 815.468C714.646 815.468 711.49 814.208 708.994 811.688C706.522 809.168 705.286 806.072 705.286 802.4C705.286 798.728 706.522 795.632 708.994 793.112C711.49 790.592 714.646 789.332 718.462 789.332C720.766 789.332 722.878 789.884 724.798 790.988C726.742 792.092 728.254 793.58 729.334 795.452L726.418 797.144C725.698 795.752 724.618 794.648 723.178 793.832C721.762 792.992 720.19 792.572 718.462 792.572C715.558 792.572 713.182 793.508 711.334 795.38C709.51 797.252 708.598 799.592 708.598 802.4C708.598 805.184 709.51 807.512 711.334 809.384C713.182 811.256 715.558 812.192 718.462 812.192C720.19 812.192 721.762 811.784 723.178 810.968C724.618 810.128 725.698 809.024 726.418 807.656L729.334 809.312C728.278 811.184 726.778 812.684 724.834 813.812C722.89 814.916 720.766 815.468 718.462 815.468ZM736.474 811.832H748.174V815H733.126V789.8H747.994V792.968H736.474V800.708H747.094V803.84H736.474V811.832Z" fill="white"/>
<mask id="path-21-inside-9_3001_3579" fill="white">
<path d="M808 804C808 802.161 807.638 800.341 806.934 798.642C806.231 796.944 805.2 795.401 803.899 794.101C802.599 792.8 801.056 791.769 799.358 791.066C797.659 790.362 795.839 790 794 790C792.161 790 790.341 790.362 788.642 791.066C786.944 791.769 785.401 792.8 784.101 794.101C782.8 795.401 781.769 796.944 781.066 798.642C780.362 800.341 780 802.161 780 804L794 804H808Z"/>
</mask>
<path d="M808 804C808 802.161 807.638 800.341 806.934 798.642C806.231 796.944 805.2 795.401 803.899 794.101C802.599 792.8 801.056 791.769 799.358 791.066C797.659 790.362 795.839 790 794 790C792.161 790 790.341 790.362 788.642 791.066C786.944 791.769 785.401 792.8 784.101 794.101C782.8 795.401 781.769 796.944 781.066 798.642C780.362 800.341 780 802.161 780 804L794 804H808Z" stroke="white" stroke-opacity="0.3" stroke-width="4" mask="url(#path-21-inside-9_3001_3579)"/>
<mask id="path-22-inside-10_3001_3579" fill="white">
<path d="M780 806C780 807.839 780.362 809.659 781.066 811.358C781.769 813.056 782.8 814.599 784.101 815.899C785.401 817.2 786.944 818.231 788.642 818.934C790.341 819.638 792.161 820 794 820C795.839 820 797.659 819.638 799.358 818.934C801.056 818.231 802.599 817.2 803.899 815.899C805.2 814.599 806.231 813.056 806.934 811.358C807.638 809.659 808 807.839 808 806L794 806H780Z"/>
</mask>
<path d="M780 806C780 807.839 780.362 809.659 781.066 811.358C781.769 813.056 782.8 814.599 784.101 815.899C785.401 817.2 786.944 818.231 788.642 818.934C790.341 819.638 792.161 820 794 820C795.839 820 797.659 819.638 799.358 818.934C801.056 818.231 802.599 817.2 803.899 815.899C805.2 814.599 806.231 813.056 806.934 811.358C807.638 809.659 808 807.839 808 806L794 806H780Z" stroke="white" stroke-opacity="0.3" stroke-width="4" mask="url(#path-22-inside-10_3001_3579)"/>
<path opacity="0.8" d="M857.314 789.8V792.968H849.862V815H846.55V792.968H839.134V789.8H857.314ZM880.138 811.652C877.618 814.196 874.534 815.468 870.886 815.468C867.238 815.468 864.154 814.196 861.634 811.652C859.114 809.108 857.854 806.024 857.854 802.4C857.854 798.752 859.114 795.668 861.634 793.148C864.154 790.604 867.238 789.332 870.886 789.332C874.534 789.332 877.618 790.604 880.138 793.148C882.682 795.668 883.954 798.752 883.954 802.4C883.954 806.024 882.682 809.108 880.138 811.652ZM863.938 809.384C865.81 811.256 868.126 812.192 870.886 812.192C873.646 812.192 875.95 811.256 877.798 809.384C879.67 807.488 880.606 805.16 880.606 802.4C880.606 799.616 879.67 797.288 877.798 795.416C875.95 793.52 873.646 792.572 870.886 792.572C868.126 792.572 865.81 793.52 863.938 795.416C862.09 797.288 861.166 799.616 861.166 802.4C861.166 805.16 862.09 807.488 863.938 809.384ZM897.123 789.8C899.451 789.8 901.383 790.58 902.919 792.14C904.479 793.676 905.259 795.596 905.259 797.9C905.259 800.18 904.479 802.1 902.919 803.66C901.383 805.22 899.451 806 897.123 806H891.327V815H887.979V789.8H897.123ZM897.123 802.868C898.515 802.868 899.667 802.4 900.579 801.464C901.491 800.504 901.947 799.316 901.947 797.9C901.947 796.46 901.491 795.272 900.579 794.336C899.667 793.4 898.515 792.932 897.123 792.932H891.327V802.868H897.123Z" fill="white"/>
<mask id="path-24-inside-11_3001_3579" fill="white">
<path d="M965 804C965 802.161 964.638 800.341 963.934 798.642C963.231 796.944 962.2 795.401 960.899 794.101C959.599 792.8 958.056 791.769 956.358 791.066C954.659 790.362 952.839 790 951 790C949.161 790 947.341 790.362 945.642 791.066C943.944 791.769 942.401 792.8 941.101 794.101C939.8 795.401 938.769 796.944 938.066 798.642C937.362 800.341 937 802.161 937 804L951 804H965Z"/>
</mask>
<path d="M965 804C965 802.161 964.638 800.341 963.934 798.642C963.231 796.944 962.2 795.401 960.899 794.101C959.599 792.8 958.056 791.769 956.358 791.066C954.659 790.362 952.839 790 951 790C949.161 790 947.341 790.362 945.642 791.066C943.944 791.769 942.401 792.8 941.101 794.101C939.8 795.401 938.769 796.944 938.066 798.642C937.362 800.341 937 802.161 937 804L951 804H965Z" stroke="white" stroke-opacity="0.3" stroke-width="4" mask="url(#path-24-inside-11_3001_3579)"/>
<mask id="path-25-inside-12_3001_3579" fill="white">
<path d="M937 806C937 807.839 937.362 809.659 938.066 811.358C938.769 813.056 939.8 814.599 941.101 815.899C942.401 817.2 943.944 818.231 945.642 818.934C947.341 819.638 949.161 820 951 820C952.839 820 954.659 819.638 956.358 818.934C958.056 818.231 959.599 817.2 960.899 815.899C962.2 814.599 963.231 813.056 963.934 811.358C964.638 809.659 965 807.839 965 806L951 806H937Z"/>
</mask>
<path d="M937 806C937 807.839 937.362 809.659 938.066 811.358C938.769 813.056 939.8 814.599 941.101 815.899C942.401 817.2 943.944 818.231 945.642 818.934C947.341 819.638 949.161 820 951 820C952.839 820 954.659 819.638 956.358 818.934C958.056 818.231 959.599 817.2 960.899 815.899C962.2 814.599 963.231 813.056 963.934 811.358C964.638 809.659 965 807.839 965 806L951 806H937Z" stroke="white" stroke-opacity="0.3" stroke-width="4" mask="url(#path-25-inside-12_3001_3579)"/>
<path opacity="0.8" d="M1012.69 792.968H1001.53V801.14H1012.22V804.308H1001.53V815H998.184V789.8H1012.69V792.968ZM1037.7 811.652C1035.18 814.196 1032.09 815.468 1028.45 815.468C1024.8 815.468 1021.71 814.196 1019.19 811.652C1016.67 809.108 1015.41 806.024 1015.41 802.4C1015.41 798.752 1016.67 795.668 1019.19 793.148C1021.71 790.604 1024.8 789.332 1028.45 789.332C1032.09 789.332 1035.18 790.604 1037.7 793.148C1040.24 795.668 1041.51 798.752 1041.51 802.4C1041.51 806.024 1040.24 809.108 1037.7 811.652ZM1021.5 809.384C1023.37 811.256 1025.69 812.192 1028.45 812.192C1031.21 812.192 1033.51 811.256 1035.36 809.384C1037.23 807.488 1038.17 805.16 1038.17 802.4C1038.17 799.616 1037.23 797.288 1035.36 795.416C1033.51 793.52 1031.21 792.572 1028.45 792.572C1025.69 792.572 1023.37 793.52 1021.5 795.416C1019.65 797.288 1018.73 799.616 1018.73 802.4C1018.73 805.16 1019.65 807.488 1021.5 809.384ZM1066.49 811.652C1063.97 814.196 1060.89 815.468 1057.24 815.468C1053.59 815.468 1050.51 814.196 1047.99 811.652C1045.47 809.108 1044.21 806.024 1044.21 802.4C1044.21 798.752 1045.47 795.668 1047.99 793.148C1050.51 790.604 1053.59 789.332 1057.24 789.332C1060.89 789.332 1063.97 790.604 1066.49 793.148C1069.04 795.668 1070.31 798.752 1070.31 802.4C1070.31 806.024 1069.04 809.108 1066.49 811.652ZM1050.29 809.384C1052.16 811.256 1054.48 812.192 1057.24 812.192C1060 812.192 1062.3 811.256 1064.15 809.384C1066.02 807.488 1066.96 805.16 1066.96 802.4C1066.96 799.616 1066.02 797.288 1064.15 795.416C1062.3 793.52 1060 792.572 1057.24 792.572C1054.48 792.572 1052.16 793.52 1050.29 795.416C1048.44 797.288 1047.52 799.616 1047.52 802.4C1047.52 805.16 1048.44 807.488 1050.29 809.384ZM1089.02 789.8V792.968H1081.57V815H1078.26V792.968H1070.84V789.8H1089.02ZM1106.73 801.932C1107.88 802.484 1108.8 803.276 1109.47 804.308C1110.16 805.34 1110.51 806.528 1110.51 807.872C1110.51 809.888 1109.8 811.58 1108.39 812.948C1106.97 814.316 1105.24 815 1103.2 815H1092.33V789.8H1102.41C1104.38 789.8 1106.05 790.46 1107.42 791.78C1108.78 793.1 1109.47 794.732 1109.47 796.676C1109.47 798.908 1108.56 800.66 1106.73 801.932ZM1102.41 792.932H1095.68V800.636H1102.41C1103.47 800.636 1104.36 800.264 1105.08 799.52C1105.8 798.776 1106.16 797.864 1106.16 796.784C1106.16 795.728 1105.78 794.828 1105.04 794.084C1104.32 793.316 1103.44 792.932 1102.41 792.932ZM1103.2 811.868C1104.33 811.868 1105.28 811.472 1106.05 810.68C1106.82 809.888 1107.2 808.916 1107.2 807.764C1107.2 806.636 1106.8 805.676 1106.01 804.884C1105.24 804.092 1104.31 803.696 1103.2 803.696H1095.68V811.868H1103.2ZM1131.08 815L1129.03 809.348H1117.69L1115.63 815H1112.07L1121.47 789.8H1125.25L1134.64 815H1131.08ZM1118.84 806.216H1127.87L1123.34 793.796L1118.84 806.216ZM1140.96 811.832H1151.83V815H1137.61V789.8H1140.96V811.832ZM1158.54 811.832H1169.41V815H1155.19V789.8H1158.54V811.832ZM1196.28 792.968H1185.12V801.14H1195.81V804.308H1185.12V815H1181.77V789.8H1196.28V792.968ZM1200.33 789.8H1203.68V815H1200.33V789.8ZM1212.43 811.832H1224.13V815H1209.09V789.8H1223.95V792.968H1212.43V800.708H1223.05V803.84H1212.43V811.832ZM1231.52 811.832H1242.4V815H1228.18V789.8H1231.52V811.832ZM1255.58 789.8C1259.01 789.8 1261.86 791.024 1264.11 793.472C1266.39 795.896 1267.53 798.872 1267.53 802.4C1267.53 805.928 1266.39 808.916 1264.11 811.364C1261.86 813.788 1259.01 815 1255.58 815H1245.75V789.8H1255.58ZM1255.58 811.832C1258.15 811.832 1260.25 810.932 1261.88 809.132C1263.51 807.332 1264.33 805.088 1264.33 802.4C1264.33 799.712 1263.51 797.468 1261.88 795.668C1260.25 793.868 1258.15 792.968 1255.58 792.968H1249.1V811.832H1255.58ZM1294.99 801.932C1296.15 802.484 1297.06 803.276 1297.73 804.308C1298.43 805.34 1298.77 806.528 1298.77 807.872C1298.77 809.888 1298.07 811.58 1296.65 812.948C1295.23 814.316 1293.51 815 1291.47 815H1280.59V789.8H1290.67C1292.64 789.8 1294.31 790.46 1295.68 791.78C1297.05 793.1 1297.73 794.732 1297.73 796.676C1297.73 798.908 1296.82 800.66 1294.99 801.932ZM1290.67 792.932H1283.94V800.636H1290.67C1291.73 800.636 1292.62 800.264 1293.34 799.52C1294.06 798.776 1294.42 797.864 1294.42 796.784C1294.42 795.728 1294.05 794.828 1293.3 794.084C1292.58 793.316 1291.71 792.932 1290.67 792.932ZM1291.47 811.868C1292.59 811.868 1293.54 811.472 1294.31 810.68C1295.08 809.888 1295.46 808.916 1295.46 807.764C1295.46 806.636 1295.07 805.676 1294.27 804.884C1293.51 804.092 1292.57 803.696 1291.47 803.696H1283.94V811.868H1291.47ZM1323.69 811.652C1321.17 814.196 1318.09 815.468 1314.44 815.468C1310.79 815.468 1307.71 814.196 1305.19 811.652C1302.67 809.108 1301.41 806.024 1301.41 802.4C1301.41 798.752 1302.67 795.668 1305.19 793.148C1307.71 790.604 1310.79 789.332 1314.44 789.332C1318.09 789.332 1321.17 790.604 1323.69 793.148C1326.24 795.668 1327.51 798.752 1327.51 802.4C1327.51 806.024 1326.24 809.108 1323.69 811.652ZM1307.49 809.384C1309.37 811.256 1311.68 812.192 1314.44 812.192C1317.2 812.192 1319.51 811.256 1321.35 809.384C1323.23 807.488 1324.16 805.16 1324.16 802.4C1324.16 799.616 1323.23 797.288 1321.35 795.416C1319.51 793.52 1317.2 792.572 1314.44 792.572C1311.68 792.572 1309.37 793.52 1307.49 795.416C1305.65 797.288 1304.72 799.616 1304.72 802.4C1304.72 805.16 1305.65 807.488 1307.49 809.384ZM1352.49 811.652C1349.97 814.196 1346.88 815.468 1343.24 815.468C1339.59 815.468 1336.5 814.196 1333.98 811.652C1331.46 809.108 1330.2 806.024 1330.2 802.4C1330.2 798.752 1331.46 795.668 1333.98 793.148C1336.5 790.604 1339.59 789.332 1343.24 789.332C1346.88 789.332 1349.97 790.604 1352.49 793.148C1355.03 795.668 1356.3 798.752 1356.3 802.4C1356.3 806.024 1355.03 809.108 1352.49 811.652ZM1336.29 809.384C1338.16 811.256 1340.48 812.192 1343.24 812.192C1346 812.192 1348.3 811.256 1350.15 809.384C1352.02 807.488 1352.96 805.16 1352.96 802.4C1352.96 799.616 1352.02 797.288 1350.15 795.416C1348.3 793.52 1346 792.572 1343.24 792.572C1340.48 792.572 1338.16 793.52 1336.29 795.416C1334.44 797.288 1333.52 799.616 1333.52 802.4C1333.52 805.16 1334.44 807.488 1336.29 809.384ZM1378.65 815H1374.55L1363.68 802.904V815H1360.33V789.8H1363.68V801.176L1374.19 789.8H1378.29L1367.17 802.04L1378.65 815ZM1381.63 789.8H1384.98V815H1381.63V789.8ZM1406.05 789.8H1409.4V815H1406.7L1393.74 796.172V815H1390.39V789.8H1393.09L1406.05 808.592V789.8ZM1439.09 802.508V804.02C1439.09 807.308 1437.96 810.044 1435.7 812.228C1433.45 814.388 1430.46 815.468 1426.74 815.468C1422.9 815.468 1419.72 814.208 1417.2 811.688C1414.7 809.144 1413.45 806.048 1413.45 802.4C1413.45 798.752 1414.7 795.668 1417.2 793.148C1419.72 790.604 1422.87 789.332 1426.67 789.332C1428.99 789.332 1431.13 789.896 1433.07 791.024C1435.02 792.128 1436.52 793.592 1437.57 795.416L1434.69 797.108C1433.97 795.74 1432.88 794.648 1431.42 793.832C1429.98 792.992 1428.38 792.572 1426.63 792.572C1423.75 792.572 1421.39 793.52 1419.54 795.416C1417.69 797.288 1416.77 799.616 1416.77 802.4C1416.77 805.184 1417.69 807.512 1419.54 809.384C1421.41 811.256 1423.82 812.192 1426.77 812.192C1429.29 812.192 1431.33 811.58 1432.89 810.356C1434.45 809.108 1435.4 807.5 1435.74 805.532H1426.49V802.508H1439.09ZM1460.29 815.468C1457.94 815.468 1455.93 814.916 1454.25 813.812C1452.59 812.708 1451.43 811.196 1450.75 809.276L1453.63 807.62C1454.62 810.668 1456.86 812.192 1460.37 812.192C1462.09 812.192 1463.41 811.844 1464.33 811.148C1465.24 810.428 1465.69 809.48 1465.69 808.304C1465.69 807.104 1465.24 806.204 1464.33 805.604C1463.41 805.004 1461.89 804.368 1459.75 803.696C1458.7 803.36 1457.89 803.096 1457.34 802.904C1456.79 802.688 1456.09 802.376 1455.25 801.968C1454.44 801.536 1453.83 801.104 1453.42 800.672C1453.01 800.216 1452.64 799.628 1452.3 798.908C1451.99 798.188 1451.83 797.372 1451.83 796.46C1451.83 794.276 1452.6 792.548 1454.14 791.276C1455.67 789.98 1457.55 789.332 1459.75 789.332C1461.75 789.332 1463.47 789.836 1464.94 790.844C1466.43 791.852 1467.54 793.184 1468.29 794.84L1465.48 796.46C1464.4 793.868 1462.49 792.572 1459.75 792.572C1458.39 792.572 1457.28 792.908 1456.44 793.58C1455.6 794.252 1455.18 795.164 1455.18 796.316C1455.18 797.42 1455.58 798.26 1456.37 798.836C1457.16 799.412 1458.53 800.012 1460.47 800.636C1461.17 800.852 1461.66 801.008 1461.95 801.104C1462.24 801.2 1462.68 801.368 1463.28 801.608C1463.91 801.848 1464.36 802.04 1464.65 802.184C1464.94 802.328 1465.32 802.532 1465.8 802.796C1466.31 803.06 1466.68 803.312 1466.92 803.552C1467.16 803.792 1467.43 804.092 1467.75 804.452C1468.08 804.788 1468.32 805.136 1468.47 805.496C1468.61 805.856 1468.73 806.276 1468.83 806.756C1468.95 807.212 1469.01 807.704 1469.01 808.232C1469.01 810.44 1468.2 812.204 1466.59 813.524C1464.99 814.82 1462.89 815.468 1460.29 815.468ZM1476.14 811.832H1487.84V815H1472.79V789.8H1487.66V792.968H1476.14V800.708H1486.76V803.84H1476.14V811.832ZM1506.82 815L1501.17 805.352H1495.23V815H1491.88V789.8H1501.96C1504.12 789.8 1505.97 790.568 1507.51 792.104C1509.04 793.616 1509.81 795.452 1509.81 797.612C1509.81 799.244 1509.32 800.732 1508.34 802.076C1507.38 803.42 1506.13 804.368 1504.59 804.92L1510.53 815H1506.82ZM1495.23 792.932V802.328H1501.96C1503.21 802.328 1504.27 801.872 1505.13 800.96C1506.02 800.024 1506.46 798.908 1506.46 797.612C1506.46 796.316 1506.02 795.212 1505.13 794.3C1504.27 793.388 1503.21 792.932 1501.96 792.932H1495.23ZM1520.09 815L1511.09 789.8H1514.69L1522 810.824L1529.27 789.8H1532.91L1523.87 815H1520.09ZM1535.86 789.8H1539.21V815H1535.86V789.8ZM1556.46 815.468C1552.65 815.468 1549.49 814.208 1546.99 811.688C1544.52 809.168 1543.29 806.072 1543.29 802.4C1543.29 798.728 1544.52 795.632 1546.99 793.112C1549.49 790.592 1552.65 789.332 1556.46 789.332C1558.77 789.332 1560.88 789.884 1562.8 790.988C1564.74 792.092 1566.25 793.58 1567.33 795.452L1564.42 797.144C1563.7 795.752 1562.62 794.648 1561.18 793.832C1559.76 792.992 1558.19 792.572 1556.46 792.572C1553.56 792.572 1551.18 793.508 1549.33 795.38C1547.51 797.252 1546.6 799.592 1546.6 802.4C1546.6 805.184 1547.51 807.512 1549.33 809.384C1551.18 811.256 1553.56 812.192 1556.46 812.192C1558.19 812.192 1559.76 811.784 1561.18 810.968C1562.62 810.128 1563.7 809.024 1564.42 807.656L1567.33 809.312C1566.28 811.184 1564.78 812.684 1562.83 813.812C1560.89 814.916 1558.77 815.468 1556.46 815.468ZM1574.47 811.832H1586.17V815H1571.13V789.8H1585.99V792.968H1574.47V800.708H1585.09V803.84H1574.47V811.832Z" fill="white"/>
<path d="M1646 804C1646 802.161 1645.64 800.341 1644.93 798.642C1644.23 796.944 1643.2 795.401 1641.9 794.101C1640.6 792.8 1639.06 791.769 1637.36 791.066C1635.66 790.362 1633.84 790 1632 790C1630.16 790 1628.34 790.362 1626.64 791.066C1624.94 791.769 1623.4 792.8 1622.1 794.101C1620.8 795.401 1619.77 796.944 1619.07 798.642C1618.36 800.341 1618 802.161 1618 804L1632 804H1646Z" fill="#6BA4ED"/>
<path d="M1618 806C1618 807.839 1618.36 809.659 1619.07 811.358C1619.77 813.056 1620.8 814.599 1622.1 815.899C1623.4 817.2 1624.94 818.231 1626.64 818.934C1628.34 819.638 1630.16 820 1632 820C1633.84 820 1635.66 819.638 1637.36 818.934C1639.06 818.231 1640.6 817.2 1641.9 815.899C1643.2 814.599 1644.23 813.056 1644.93 811.358C1645.64 809.659 1646 807.839 1646 806L1632 806H1618Z" fill="#6BA4ED"/>
</g>
</svg>
