<svg width="32" height="35" viewBox="0 0 32 35" fill="none" xmlns="http://www.w3.org/2000/svg">
<path d="M14.0212 16.3345L0.140625 31.0245C0.141929 31.0271 0.141929 31.0297 0.143232 31.0323C0.56824 32.6287 2.02969 33.8026 3.76362 33.8026C4.45719 33.8026 5.10774 33.6154 5.66572 33.2878L5.71005 33.2618L21.3336 24.2723L14.0212 16.3345Z" fill="#EB4335"/>
<path d="M28.0633 13.8334L28.0502 13.8243L21.3049 9.92432L13.7056 16.6674L21.3309 24.2698L28.0411 20.4101C29.217 19.777 30.0149 18.5407 30.0149 17.1146C30.0149 15.6989 29.2275 14.4678 28.0633 13.8334Z" fill="#FABC13"/>
<path d="M0.140458 3.14355C0.0570207 3.45035 0.0126953 3.77145 0.0126953 4.10555V30.0627C0.0126953 30.3968 0.055717 30.7192 0.140458 31.0247L14.4982 16.7104L0.140458 3.14355Z" fill="#547DBF"/>
<path d="M14.1228 17.0832L21.3076 9.92154L5.70092 0.899535C5.13381 0.560235 4.47283 0.365234 3.76362 0.365234C2.02969 0.365234 0.566936 1.54173 0.140625 3.13943V3.14334L14.1228 17.0832Z" fill="#30A851"/>
</svg>
