<svg width="39" height="39" viewBox="0 0 39 39" fill="none" xmlns="http://www.w3.org/2000/svg">
<path d="M38.0205 18.744H24.9413C23.6391 18.744 22.9875 17.1702 23.9077 16.2489L33.1559 7.00075L31.8772 5.72203L22.629 14.9702C21.7088 15.8904 20.1339 15.2388 20.1339 13.9366V0.857422H18.3251V13.9366C18.3251 15.2388 16.7512 15.8904 15.83 14.9702L6.5818 5.72203L5.30309 7.00075L14.5513 16.2489C15.4715 17.1691 14.8199 18.744 13.5177 18.744H0.438477V20.5528H13.5177C14.8199 20.5528 15.4715 22.1267 14.5513 23.0479L5.30411 32.2951L6.58282 33.5738L15.831 24.3256C16.7512 23.4054 18.3261 24.057 18.3261 25.3592V38.4384H20.1349V25.3592C20.1349 24.057 21.7088 23.4054 22.63 24.3256L31.8782 33.5738L33.1569 32.2951L23.9087 23.0469C22.9885 22.1267 23.6401 20.5518 24.9423 20.5518H38.0215V18.744H38.0205Z" fill="#161616"/>
</svg>
