<svg width="39" height="38" viewBox="0 0 39 38" fill="none" xmlns="http://www.w3.org/2000/svg">
<path d="M19.229 0.427734L19.2326 19.1997L26.4198 1.85807L19.2394 19.2026L32.5158 5.93135L19.2446 19.2078L36.5891 12.0274L19.2475 19.2146L38.0195 19.2182L19.2475 19.2219L36.5891 26.4091L19.2446 19.2287L32.5158 32.5051L19.2394 19.2338L26.4198 36.5784L19.2326 19.2367L19.229 38.0087L19.2253 19.2367L12.0381 36.5784L19.2185 19.2338L5.94209 32.5051L19.2134 19.2287L1.86881 26.4091L19.2105 19.2219L0.438477 19.2182L19.2105 19.2146L1.86881 12.0274L19.2134 19.2078L5.94209 5.93135L19.2185 19.2026L12.0381 1.85807L19.2253 19.1997L19.229 0.427734Z" fill="#161616" stroke="#161616" stroke-width="0.645161"/>
</svg>
