<svg width="40" height="39" viewBox="0 0 40 39" fill="none" xmlns="http://www.w3.org/2000/svg">
<path d="M39.5878 16.8867L38.0256 12.0797C37.5847 10.7233 36.0292 10.0912 34.7673 10.7548L22.6284 17.142L24.8677 3.53083C25.0982 2.13057 24.0174 0.857422 22.598 0.857422H17.5436C16.1175 0.857422 15.0355 2.14182 15.2773 3.54658L17.5998 17.0644L5.34733 10.7289C4.08654 10.0766 2.54232 10.7109 2.10369 12.0617L0.541474 16.8687C0.100591 18.2251 0.987969 19.6512 2.39947 19.8559L15.9735 21.8241L6.16161 31.5191C5.15163 32.5167 5.27759 34.1812 6.42591 35.0158L10.5153 37.9872C11.6693 38.8251 13.3001 38.4225 13.9299 37.1437L19.9966 24.8417L26.1858 37.1696C26.8224 38.4382 28.4453 38.833 29.5937 37.9985L33.6831 35.027C34.837 34.1891 34.9574 32.5133 33.9361 31.5191L24.1107 21.9478L37.7478 19.8716C39.1491 19.6579 40.0264 18.2363 39.5878 16.8867Z" fill="#161616"/>
</svg>
