<svg width="38" height="38" viewBox="0 0 38 38" fill="none" xmlns="http://www.w3.org/2000/svg">
<g clip-path="url(#clip0_1963_673)">
<path d="M19.2182 37.0691C29.077 37.0691 37.0691 29.077 37.0691 19.2182C37.0691 9.35934 29.077 1.36719 19.2182 1.36719C9.35934 1.36719 1.36719 9.35934 1.36719 19.2182C1.36719 29.077 9.35934 37.0691 19.2182 37.0691Z" stroke="#161616" stroke-width="2"/>
<path d="M26.3311 19.2182C26.3311 24.311 25.4446 28.8771 24.0484 32.1349C23.3496 33.7656 22.5416 35.0251 21.6922 35.8633C20.8469 36.6975 20.0117 37.0691 19.2175 37.0691C18.4233 37.0691 17.5882 36.6975 16.7429 35.8633C15.8936 35.0251 15.0856 33.7656 14.3868 32.1349C12.9905 28.8771 12.104 24.311 12.104 19.2182C12.104 14.1253 12.9905 9.55919 14.3868 6.30137C15.0856 4.67079 15.8936 3.41126 16.7429 2.57302C17.5882 1.73876 18.4233 1.36719 19.2175 1.36719C20.0117 1.36719 20.8469 1.73876 21.6922 2.57302C22.5416 3.41126 23.3496 4.67079 24.0484 6.30137C25.4446 9.55919 26.3311 14.1253 26.3311 19.2182Z" stroke="#161616" stroke-width="2"/>
<path d="M2.03906 13.0435H36.3988" stroke="#161616" stroke-width="2"/>
<path d="M2.03906 25.6611H36.3988" stroke="#161616" stroke-width="2"/>
</g>
<defs>
<clipPath id="clip0_1963_673">
<rect width="37.581" height="37.581" fill="white" transform="translate(0.427734 0.427734)"/>
</clipPath>
</defs>
</svg>
