<svg width="331" height="92" viewBox="0 0 331 92" fill="none" xmlns="http://www.w3.org/2000/svg">
<path d="M8.97 8.8H14.49V41H8.142V15.516L2.07 17.218L0.506 11.79L8.97 8.8ZM26.7131 40.448C25.9464 41.2147 25.0264 41.598 23.9531 41.598C22.8797 41.598 21.9597 41.2147 21.1931 40.448C20.4264 39.6813 20.0431 38.7613 20.0431 37.688C20.0431 36.6147 20.4264 35.6947 21.1931 34.928C21.9597 34.1613 22.8797 33.778 23.9531 33.778C25.0264 33.778 25.9464 34.1613 26.7131 34.928C27.4797 35.6947 27.8631 36.6147 27.8631 37.688C27.8631 38.7613 27.4797 39.6813 26.7131 40.448ZM42.9777 20.53C46.075 20.53 48.6817 21.4653 50.7977 23.336C52.9137 25.176 53.9717 27.752 53.9717 31.064C53.9717 34.376 52.8523 36.9673 50.6137 38.838C48.4057 40.7087 45.6917 41.644 42.4717 41.644C39.865 41.644 37.565 41.0613 35.5717 39.896C33.5783 38.7307 32.137 37.0133 31.2477 34.744L36.6757 31.57C37.473 34.146 39.405 35.434 42.4717 35.434C44.097 35.434 45.3543 35.0507 46.2437 34.284C47.1637 33.4867 47.6237 32.4133 47.6237 31.064C47.6237 29.7453 47.179 28.6873 46.2897 27.89C45.4003 27.0927 44.189 26.694 42.6557 26.694H32.9037L34.1917 8.8H52.4537V14.734H40.0797L39.6657 20.53H42.9777Z" fill="#1A1D29"/>
<path d="M77.7468 22.968V26.786H69.7428V34.79H65.9248V26.786H57.9668V22.968H65.9248V15.01H69.7428V22.968H77.7468Z" fill="#0A9829"/>
<path opacity="0.7" d="M1.26 86V73.04H9.36V74.309H2.583V86H1.26ZM16.0519 86.27C14.7619 86.27 13.6729 85.985 12.7849 85.415C11.8969 84.839 11.2249 84.044 10.7689 83.03C10.3129 82.016 10.0849 80.846 10.0849 79.52C10.0849 78.194 10.3129 77.024 10.7689 76.01C11.2249 74.996 11.8969 74.204 12.7849 73.634C13.6729 73.058 14.7619 72.77 16.0519 72.77C17.3479 72.77 18.4369 73.058 19.3189 73.634C20.2069 74.204 20.8789 74.996 21.3349 76.01C21.7969 77.024 22.0279 78.194 22.0279 79.52C22.0279 80.846 21.7969 82.016 21.3349 83.03C20.8789 84.044 20.2069 84.839 19.3189 85.415C18.4369 85.985 17.3479 86.27 16.0519 86.27ZM16.0519 85.001C17.0659 85.001 17.9119 84.77 18.5899 84.308C19.2679 83.846 19.7749 83.204 20.1109 82.382C20.4529 81.554 20.6239 80.6 20.6239 79.52C20.6239 78.44 20.4529 77.489 20.1109 76.667C19.7749 75.845 19.2679 75.203 18.5899 74.741C17.9119 74.279 17.0659 74.045 16.0519 74.039C15.0379 74.039 14.1949 74.27 13.5229 74.732C12.8509 75.194 12.3439 75.839 12.0019 76.667C11.6659 77.489 11.4949 78.44 11.4889 79.52C11.4829 80.6 11.6479 81.551 11.9839 82.373C12.3259 83.189 12.8359 83.831 13.5139 84.299C14.1919 84.761 15.0379 84.995 16.0519 85.001ZM22.8758 88.16V84.731C23.3798 84.731 23.7848 84.605 24.0908 84.353C24.3968 84.095 24.6308 83.753 24.7928 83.327C24.9548 82.901 25.0778 82.424 25.1618 81.896C25.2458 81.362 25.3178 80.822 25.3778 80.276C25.4618 79.478 25.5278 78.707 25.5758 77.963C25.6298 77.219 25.6748 76.448 25.7108 75.65C25.7528 74.852 25.8008 73.979 25.8548 73.031L33.8468 73.04V84.731H34.7738V88.16H33.4598V86H24.1988V88.16H22.8758ZM25.4048 84.731H32.5238V74.309L27.0878 74.3C27.0518 75.032 27.0158 75.74 26.9798 76.424C26.9438 77.108 26.9018 77.798 26.8538 78.494C26.8058 79.19 26.7428 79.916 26.6648 80.672C26.5988 81.362 26.5208 81.965 26.4308 82.481C26.3408 82.997 26.2148 83.438 26.0528 83.804C25.8968 84.17 25.6808 84.479 25.4048 84.731ZM35.8502 86L40.3142 73.04H42.0692L46.5332 86H45.1562L40.9172 73.778H41.4392L37.2272 86H35.8502ZM37.8392 82.859V81.617H44.5352V82.859H37.8392ZM51.762 86V73.04H56.766C56.892 73.04 57.033 73.046 57.189 73.058C57.351 73.064 57.513 73.082 57.675 73.112C58.353 73.214 58.926 73.451 59.394 73.823C59.868 74.189 60.225 74.651 60.465 75.209C60.711 75.767 60.834 76.385 60.834 77.063C60.834 77.735 60.711 78.35 60.465 78.908C60.219 79.466 59.859 79.931 59.385 80.303C58.917 80.669 58.347 80.903 57.675 81.005C57.513 81.029 57.351 81.047 57.189 81.059C57.033 81.071 56.892 81.077 56.766 81.077H53.085V86H51.762ZM53.085 79.817H56.73C56.838 79.817 56.964 79.811 57.108 79.799C57.252 79.787 57.393 79.766 57.531 79.736C57.975 79.64 58.338 79.457 58.62 79.187C58.908 78.917 59.121 78.596 59.259 78.224C59.403 77.852 59.475 77.465 59.475 77.063C59.475 76.661 59.403 76.274 59.259 75.902C59.121 75.524 58.908 75.2 58.62 74.93C58.338 74.66 57.975 74.477 57.531 74.381C57.393 74.351 57.252 74.333 57.108 74.327C56.964 74.315 56.838 74.309 56.73 74.309H53.085V79.817ZM61.3737 86L65.8377 73.04H67.5927L72.0567 86H70.6797L66.4407 73.778H66.9627L62.7507 86H61.3737ZM63.3627 82.859V81.617H70.0587V82.859H63.3627ZM77.4793 86.27C76.5973 86.27 75.8323 86.141 75.1843 85.883C74.5423 85.625 74.0143 85.286 73.6003 84.866C73.1863 84.44 72.8773 83.981 72.6733 83.489L73.8793 82.787C74.0233 83.195 74.2513 83.567 74.5633 83.903C74.8753 84.239 75.2773 84.506 75.7693 84.704C76.2613 84.902 76.8463 85.001 77.5243 85.001C78.2263 85.001 78.8203 84.89 79.3063 84.668C79.7983 84.446 80.1703 84.134 80.4223 83.732C80.6743 83.33 80.8003 82.862 80.8003 82.328C80.8003 81.74 80.6593 81.284 80.3773 80.96C80.0953 80.636 79.7173 80.408 79.2433 80.276C78.7693 80.138 78.2413 80.06 77.6593 80.042C77.2213 80.024 76.9093 80.012 76.7233 80.006C76.5373 80 76.4143 79.997 76.3543 79.997C76.2943 79.997 76.2373 79.997 76.1833 79.997V78.719C76.2253 78.719 76.3363 78.719 76.5163 78.719C76.6963 78.719 76.8883 78.719 77.0923 78.719C77.2963 78.713 77.4583 78.707 77.5783 78.701C78.4363 78.659 79.1113 78.434 79.6033 78.026C80.0953 77.618 80.3413 77.066 80.3413 76.37C80.3413 75.632 80.0803 75.059 79.5583 74.651C79.0423 74.243 78.3733 74.039 77.5513 74.039C76.7773 74.039 76.1233 74.225 75.5893 74.597C75.0613 74.963 74.6293 75.455 74.2933 76.073L73.2133 75.272C73.6213 74.54 74.1973 73.94 74.9413 73.472C75.6853 73.004 76.5673 72.77 77.5873 72.77C78.1333 72.77 78.6553 72.845 79.1533 72.995C79.6573 73.145 80.1013 73.367 80.4853 73.661C80.8753 73.955 81.1813 74.327 81.4033 74.777C81.6313 75.221 81.7453 75.743 81.7453 76.343C81.7453 77.045 81.5893 77.657 81.2773 78.179C80.9713 78.701 80.5753 79.094 80.0893 79.358C80.7493 79.556 81.2653 79.904 81.6373 80.402C82.0153 80.9 82.2043 81.551 82.2043 82.355C82.2043 83.147 82.0093 83.837 81.6193 84.425C81.2293 85.013 80.6773 85.469 79.9633 85.793C79.2553 86.111 78.4273 86.27 77.4793 86.27ZM84.0705 86V73.04H89.0745C89.2005 73.04 89.3415 73.046 89.4975 73.058C89.6595 73.064 89.8215 73.082 89.9835 73.112C90.6615 73.214 91.2345 73.451 91.7025 73.823C92.1765 74.189 92.5335 74.651 92.7735 75.209C93.0195 75.767 93.1425 76.385 93.1425 77.063C93.1425 77.735 93.0195 78.35 92.7735 78.908C92.5275 79.466 92.1675 79.931 91.6935 80.303C91.2255 80.669 90.6555 80.903 89.9835 81.005C89.8215 81.029 89.6595 81.047 89.4975 81.059C89.3415 81.071 89.2005 81.077 89.0745 81.077H85.3935V86H84.0705ZM85.3935 79.817H89.0385C89.1465 79.817 89.2725 79.811 89.4165 79.799C89.5605 79.787 89.7015 79.766 89.8395 79.736C90.2835 79.64 90.6465 79.457 90.9285 79.187C91.2165 78.917 91.4295 78.596 91.5675 78.224C91.7115 77.852 91.7835 77.465 91.7835 77.063C91.7835 76.661 91.7115 76.274 91.5675 75.902C91.4295 75.524 91.2165 75.2 90.9285 74.93C90.6465 74.66 90.2835 74.477 89.8395 74.381C89.7015 74.351 89.5605 74.333 89.4165 74.327C89.2725 74.315 89.1465 74.309 89.0385 74.309H85.3935V79.817ZM93.6823 86L98.1463 73.04H99.9013L104.365 86H102.988L98.7493 73.778H99.2713L95.0593 86H93.6823ZM95.6713 82.859V81.617H102.367V82.859H95.6713ZM105.99 86V73.04H113.991V74.309H107.313V78.08H110.994C111.12 78.08 111.261 78.086 111.417 78.098C111.579 78.104 111.741 78.119 111.903 78.143C112.569 78.233 113.136 78.461 113.604 78.827C114.078 79.193 114.438 79.655 114.684 80.213C114.936 80.771 115.062 81.38 115.062 82.04C115.062 82.7 114.936 83.309 114.684 83.867C114.438 84.425 114.078 84.887 113.604 85.253C113.136 85.619 112.569 85.847 111.903 85.937C111.741 85.955 111.579 85.97 111.417 85.982C111.261 85.994 111.12 86 110.994 86H105.99ZM107.313 84.731H110.958C111.066 84.731 111.192 84.725 111.336 84.713C111.48 84.701 111.621 84.683 111.759 84.659C112.425 84.527 112.914 84.209 113.226 83.705C113.544 83.195 113.703 82.64 113.703 82.04C113.703 81.434 113.544 80.879 113.226 80.375C112.914 79.871 112.425 79.553 111.759 79.421C111.621 79.391 111.48 79.373 111.336 79.367C111.192 79.355 111.066 79.349 110.958 79.349H107.313V84.731ZM122.101 86.27C120.811 86.27 119.722 85.985 118.834 85.415C117.946 84.839 117.274 84.044 116.818 83.03C116.362 82.016 116.134 80.846 116.134 79.52C116.134 78.194 116.362 77.024 116.818 76.01C117.274 74.996 117.946 74.204 118.834 73.634C119.722 73.058 120.811 72.77 122.101 72.77C123.397 72.77 124.486 73.058 125.368 73.634C126.256 74.204 126.928 74.996 127.384 76.01C127.846 77.024 128.077 78.194 128.077 79.52C128.077 80.846 127.846 82.016 127.384 83.03C126.928 84.044 126.256 84.839 125.368 85.415C124.486 85.985 123.397 86.27 122.101 86.27ZM122.101 85.001C123.115 85.001 123.961 84.77 124.639 84.308C125.317 83.846 125.824 83.204 126.16 82.382C126.502 81.554 126.673 80.6 126.673 79.52C126.673 78.44 126.502 77.489 126.16 76.667C125.824 75.845 125.317 75.203 124.639 74.741C123.961 74.279 123.115 74.045 122.101 74.039C121.087 74.039 120.244 74.27 119.572 74.732C118.9 75.194 118.393 75.839 118.051 76.667C117.715 77.489 117.544 78.44 117.538 79.52C117.532 80.6 117.697 81.551 118.033 82.373C118.375 83.189 118.885 83.831 119.563 84.299C120.241 84.761 121.087 84.995 122.101 85.001ZM132.975 86V74.309H128.448V73.04H138.825V74.309H134.298V86H132.975ZM140.268 86V73.04H141.591V79.16L147.504 73.04H149.196L143.157 79.295L149.691 86H147.963L141.591 79.52V86H140.268ZM160.756 86H159.424V75.371L152.287 86H150.955V73.04H152.287V83.66L159.424 73.04H160.756V86Z" fill="#1A1D29"/>
<path d="M225.598 8.8H246.39V14.182L235.488 41H228.772L239.352 14.872H225.598V8.8ZM260.244 41.644C256.227 41.644 253.068 40.126 250.768 37.09C248.499 34.0233 247.364 29.96 247.364 24.9C247.364 19.84 248.499 15.792 250.768 12.756C253.068 9.68933 256.227 8.156 260.244 8.156C264.292 8.156 267.451 9.68933 269.72 12.756C271.989 15.792 273.124 19.84 273.124 24.9C273.124 29.96 271.989 34.0233 269.72 37.09C267.451 40.126 264.292 41.644 260.244 41.644ZM255.368 32.766C256.472 34.5447 258.097 35.434 260.244 35.434C262.391 35.434 264.016 34.5293 265.12 32.72C266.255 30.9107 266.822 28.304 266.822 24.9C266.822 21.4653 266.255 18.8433 265.12 17.034C264.016 15.2247 262.391 14.32 260.244 14.32C258.097 14.32 256.472 15.2247 255.368 17.034C254.264 18.8433 253.712 21.4653 253.712 24.9C253.712 28.3347 254.264 30.9567 255.368 32.766Z" fill="#1A1D29"/>
<path d="M308.677 22.968V26.786H300.673V34.79H296.855V26.786H288.897V22.968H296.855V15.01H300.673V22.968H308.677Z" fill="#0A9829"/>
<path opacity="0.7" d="M231.507 86.27C230.217 86.27 229.128 85.985 228.24 85.415C227.352 84.839 226.68 84.044 226.224 83.03C225.768 82.016 225.54 80.846 225.54 79.52C225.54 78.194 225.768 77.024 226.224 76.01C226.68 74.996 227.352 74.204 228.24 73.634C229.128 73.058 230.217 72.77 231.507 72.77C233.013 72.77 234.243 73.157 235.197 73.931C236.151 74.699 236.805 75.731 237.159 77.027L235.809 77.378C235.533 76.352 235.038 75.539 234.324 74.939C233.61 74.339 232.671 74.039 231.507 74.039C230.493 74.039 229.65 74.27 228.978 74.732C228.306 75.194 227.799 75.839 227.457 76.667C227.121 77.489 226.947 78.44 226.935 79.52C226.929 80.6 227.094 81.551 227.43 82.373C227.772 83.195 228.282 83.84 228.96 84.308C229.644 84.77 230.493 85.001 231.507 85.001C232.671 85.001 233.61 84.701 234.324 84.101C235.038 83.495 235.533 82.682 235.809 81.662L237.159 82.013C236.805 83.309 236.151 84.344 235.197 85.118C234.243 85.886 233.013 86.27 231.507 86.27ZM242.592 86V74.309H238.065V73.04H248.442V74.309H243.915V86H242.592ZM249.885 86V73.04H254.889C255.015 73.04 255.156 73.046 255.312 73.058C255.474 73.064 255.636 73.082 255.798 73.112C256.476 73.214 257.049 73.451 257.517 73.823C257.991 74.189 258.348 74.651 258.588 75.209C258.834 75.767 258.957 76.385 258.957 77.063C258.957 77.735 258.834 78.35 258.588 78.908C258.342 79.466 257.982 79.931 257.508 80.303C257.04 80.669 256.47 80.903 255.798 81.005C255.636 81.029 255.474 81.047 255.312 81.059C255.156 81.071 255.015 81.077 254.889 81.077H251.208V86H249.885ZM251.208 79.817H254.853C254.961 79.817 255.087 79.811 255.231 79.799C255.375 79.787 255.516 79.766 255.654 79.736C256.098 79.64 256.461 79.457 256.743 79.187C257.031 78.917 257.244 78.596 257.382 78.224C257.526 77.852 257.598 77.465 257.598 77.063C257.598 76.661 257.526 76.274 257.382 75.902C257.244 75.524 257.031 75.2 256.743 74.93C256.461 74.66 256.098 74.477 255.654 74.381C255.516 74.351 255.375 74.333 255.231 74.327C255.087 74.315 254.961 74.309 254.853 74.309H251.208V79.817ZM259.497 86L263.961 73.04H265.716L270.18 86H268.803L264.564 73.778H265.086L260.874 86H259.497ZM261.486 82.859V81.617H268.182V82.859H261.486ZM271.805 86V73.04H273.128V78.881H280.292V73.04H281.606V86H280.292V80.15H273.128V86H271.805ZM293.928 86H292.596V75.371L285.459 86H284.127V73.04H285.459V83.66L292.596 73.04H293.928V86ZM306.583 87.683V86H296.449V73.04H297.772V84.776H305.206V73.157H306.529V84.776H307.906V87.683H306.583Z" fill="#1A1D29"/>
</svg>
