<svg width="37" height="38" viewBox="0 0 37 38" fill="none" xmlns="http://www.w3.org/2000/svg">
<g clip-path="url(#clip0_888_26224)">
<path d="M18.5 3.83144C23.443 3.83144 24.0283 3.85312 25.9723 3.93984C27.7789 4.01934 28.7545 4.32285 29.4049 4.57578C30.2648 4.9082 30.8863 5.31289 31.5295 5.95605C32.1799 6.60645 32.5773 7.2207 32.9098 8.08066C33.1627 8.73105 33.4662 9.71387 33.5457 11.5133C33.6324 13.4645 33.6541 14.0498 33.6541 18.9855C33.6541 23.9285 33.6324 24.5139 33.5457 26.4578C33.4662 28.2645 33.1627 29.24 32.9098 29.8904C32.5773 30.7504 32.1727 31.3719 31.5295 32.015C30.8791 32.6654 30.2648 33.0629 29.4049 33.3953C28.7545 33.6482 27.7717 33.9518 25.9723 34.0312C24.0211 34.118 23.4357 34.1396 18.5 34.1396C13.557 34.1396 12.9717 34.118 11.0277 34.0312C9.22109 33.9518 8.24551 33.6482 7.59512 33.3953C6.73516 33.0629 6.11367 32.6582 5.47051 32.015C4.82012 31.3646 4.42266 30.7504 4.09023 29.8904C3.8373 29.24 3.53379 28.2572 3.4543 26.4578C3.36758 24.5066 3.3459 23.9213 3.3459 18.9855C3.3459 14.0426 3.36758 13.4572 3.4543 11.5133C3.53379 9.70664 3.8373 8.73105 4.09023 8.08066C4.42266 7.2207 4.82734 6.59922 5.47051 5.95605C6.1209 5.30566 6.73516 4.9082 7.59512 4.57578C8.24551 4.32285 9.22832 4.01934 11.0277 3.93984C12.9717 3.85312 13.557 3.83144 18.5 3.83144ZM18.5 0.5C13.4775 0.5 12.8488 0.52168 10.876 0.608398C8.91035 0.695117 7.55898 1.01309 6.38828 1.46836C5.16699 1.94531 4.13359 2.57402 3.10742 3.60742C2.07402 4.63359 1.44531 5.66699 0.968359 6.88105C0.513086 8.05898 0.195117 9.40312 0.108398 11.3687C0.0216797 13.3488 0 13.9775 0 19C0 24.0225 0.0216797 24.6512 0.108398 26.624C0.195117 28.5896 0.513086 29.941 0.968359 31.1117C1.44531 32.333 2.07402 33.3664 3.10742 34.3926C4.13359 35.4188 5.16699 36.0547 6.38105 36.5244C7.55898 36.9797 8.90312 37.2977 10.8687 37.3844C12.8416 37.4711 13.4703 37.4928 18.4928 37.4928C23.5152 37.4928 24.1439 37.4711 26.1168 37.3844C28.0824 37.2977 29.4338 36.9797 30.6045 36.5244C31.8186 36.0547 32.852 35.4188 33.8781 34.3926C34.9043 33.3664 35.5402 32.333 36.01 31.1189C36.4652 29.941 36.7832 28.5969 36.8699 26.6313C36.9566 24.6584 36.9783 24.0297 36.9783 19.0072C36.9783 13.9848 36.9566 13.3561 36.8699 11.3832C36.7832 9.41758 36.4652 8.06621 36.01 6.89551C35.5547 5.66699 34.926 4.63359 33.8926 3.60742C32.8664 2.58125 31.833 1.94531 30.6189 1.47559C29.441 1.02031 28.0969 0.702344 26.1313 0.615625C24.1512 0.52168 23.5225 0.5 18.5 0.5Z" fill="#CCCCCC"/>
<path d="M18.5 9.49707C13.2535 9.49707 8.99707 13.7535 8.99707 19C8.99707 24.2465 13.2535 28.5029 18.5 28.5029C23.7465 28.5029 28.0029 24.2465 28.0029 19C28.0029 13.7535 23.7465 9.49707 18.5 9.49707ZM18.5 25.1643C15.0963 25.1643 12.3357 22.4037 12.3357 19C12.3357 15.5963 15.0963 12.8357 18.5 12.8357C21.9037 12.8357 24.6643 15.5963 24.6643 19C24.6643 22.4037 21.9037 25.1643 18.5 25.1643Z" fill="#CCCCCC"/>
<path d="M30.5973 9.1209C30.5973 10.3494 29.6 11.3395 28.3787 11.3395C27.1502 11.3395 26.1602 10.3422 26.1602 9.1209C26.1602 7.89238 27.1574 6.90234 28.3787 6.90234C29.6 6.90234 30.5973 7.89961 30.5973 9.1209Z" fill="#CCCCCC"/>
</g>
<defs>
<clipPath id="clip0_888_26224">
<rect width="37" height="37" fill="white" transform="translate(0 0.5)"/>
</clipPath>
</defs>
</svg>
