<svg width="161" height="139" viewBox="0 0 161 139" fill="none" xmlns="http://www.w3.org/2000/svg">
<rect width="161" height="139" rx="15" fill="#0C0C0C" fill-opacity="0.3"/>
<rect x="0.5" y="0.5" width="160" height="138" rx="14.5" stroke="white" stroke-opacity="0.3"/>
<path d="M12.606 21.2C13.5113 21.2 14.2627 21.5033 14.86 22.11C15.4667 22.7073 15.77 23.454 15.77 24.35C15.77 25.2367 15.4667 25.9833 14.86 26.59C14.2627 27.1967 13.5113 27.5 12.606 27.5H10.352V31H9.05V21.2H12.606ZM12.606 26.282C13.1473 26.282 13.5953 26.1 13.95 25.736C14.3047 25.3627 14.482 24.9007 14.482 24.35C14.482 23.79 14.3047 23.328 13.95 22.964C13.5953 22.6 13.1473 22.418 12.606 22.418H10.352V26.282H12.606ZM17.5026 28.06C17.6239 28.6853 17.9086 29.1707 18.3566 29.516C18.8139 29.8613 19.3739 30.034 20.0366 30.034C20.9606 30.034 21.6326 29.6933 22.0526 29.012L23.0886 29.6C22.4073 30.6547 21.3806 31.182 20.0086 31.182C18.8979 31.182 17.9926 30.8367 17.2926 30.146C16.6019 29.446 16.2566 28.564 16.2566 27.5C16.2566 26.4453 16.5973 25.568 17.2786 24.868C17.9599 24.168 18.8419 23.818 19.9246 23.818C20.9513 23.818 21.7866 24.182 22.4306 24.91C23.0839 25.6287 23.4106 26.4967 23.4106 27.514C23.4106 27.6913 23.3966 27.8733 23.3686 28.06H17.5026ZM19.9246 24.966C19.2713 24.966 18.7299 25.1527 18.3006 25.526C17.8713 25.89 17.6053 26.38 17.5026 26.996H22.1786C22.0759 26.3333 21.8146 25.8293 21.3946 25.484C20.9746 25.1387 20.4846 24.966 19.9246 24.966ZM32.9832 31H31.5552L28.9372 27.682V31H27.7332V27.682L25.1152 31H23.7012L26.6272 27.388L23.8412 24H25.2552L27.7332 27.094V24H28.9372V27.094L31.4152 24H32.8432L30.0432 27.388L32.9832 31ZM39.2306 24H40.2106V31H39.0066V26.086L35.1286 31H34.1486V24H35.3526V28.914L39.2306 24ZM49.0646 24V31H47.8746V25.918L45.6486 29.502H45.4946L43.2686 25.918V31H42.0646V24H43.3666L45.5646 27.542L47.7626 24H49.0646ZM11.808 40.112L10.268 42.674L11.808 45.222H10.492L8.952 42.674L10.492 40.112H11.808ZM14.188 40.112L12.648 42.674L14.188 45.222H12.872L11.332 42.674L12.872 40.112H14.188ZM20.7927 47.182C19.3087 47.182 18.0814 46.692 17.1107 45.712C16.1494 44.732 15.6687 43.528 15.6687 42.1C15.6687 40.672 16.1494 39.468 17.1107 38.488C18.0814 37.508 19.3087 37.018 20.7927 37.018C21.6887 37.018 22.5101 37.2327 23.2567 37.662C24.0127 38.0913 24.6007 38.67 25.0207 39.398L23.8867 40.056C23.6067 39.5147 23.1867 39.0853 22.6267 38.768C22.0761 38.4413 21.4647 38.278 20.7927 38.278C19.6634 38.278 18.7394 38.642 18.0207 39.37C17.3114 40.098 16.9567 41.008 16.9567 42.1C16.9567 43.1827 17.3114 44.088 18.0207 44.816C18.7394 45.544 19.6634 45.908 20.7927 45.908C21.4647 45.908 22.0761 45.7493 22.6267 45.432C23.1867 45.1053 23.6067 44.676 23.8867 44.144L25.0207 44.788C24.6101 45.516 24.0267 46.0993 23.2707 46.538C22.5147 46.9673 21.6887 47.182 20.7927 47.182ZM32.3323 47H30.8203L27.6283 43.682V47H26.4103V40H27.6283V43.094L30.6523 40H32.2203L28.8743 43.388L32.3323 47ZM38.6184 40H39.8364V47H38.6184V45.796C38.0118 46.72 37.1298 47.182 35.9724 47.182C34.9924 47.182 34.1571 46.8273 33.4664 46.118C32.7758 45.3993 32.4304 44.5267 32.4304 43.5C32.4304 42.4733 32.7758 41.6053 33.4664 40.896C34.1571 40.1773 34.9924 39.818 35.9724 39.818C37.1298 39.818 38.0118 40.28 38.6184 41.204V40ZM36.1264 46.006C36.8358 46.006 37.4284 45.768 37.9044 45.292C38.3804 44.8067 38.6184 44.2093 38.6184 43.5C38.6184 42.7907 38.3804 42.198 37.9044 41.722C37.4284 41.2367 36.8358 40.994 36.1264 40.994C35.4264 40.994 34.8384 41.2367 34.3624 41.722C33.8864 42.198 33.6484 42.7907 33.6484 43.5C33.6484 44.2093 33.8864 44.8067 34.3624 45.292C34.8384 45.768 35.4264 46.006 36.1264 46.006ZM46.5678 40H47.8698L45.0138 47.434C44.7151 48.2273 44.2951 48.8293 43.7538 49.24C43.2125 49.66 42.5965 49.8467 41.9058 49.8V48.666C42.7645 48.7313 43.3945 48.2647 43.7958 47.266L43.9078 47.014L40.8698 40H42.1578L44.5518 45.488L46.5678 40ZM54.1359 40V41.176H51.7559V47H50.5379V41.176H48.1439V40H54.1359ZM55.5393 48.4H54.8113L60.4113 35.8H61.1393L55.5393 48.4ZM69.1798 47L68.3818 44.802H63.9718L63.1738 47H61.7878L65.4418 37.2H66.9118L70.5658 47H69.1798ZM64.4198 43.584H67.9338L66.1698 38.754L64.4198 43.584ZM76.1879 40V41.176H72.8139V47H71.5959V40H76.1879ZM77.8366 44.06C77.9579 44.6853 78.2426 45.1707 78.6906 45.516C79.1479 45.8613 79.7079 46.034 80.3706 46.034C81.2946 46.034 81.9666 45.6933 82.3866 45.012L83.4226 45.6C82.7413 46.6547 81.7146 47.182 80.3426 47.182C79.2319 47.182 78.3266 46.8367 77.6266 46.146C76.9359 45.446 76.5906 44.564 76.5906 43.5C76.5906 42.4453 76.9313 41.568 77.6126 40.868C78.2939 40.168 79.1759 39.818 80.2586 39.818C81.2853 39.818 82.1206 40.182 82.7646 40.91C83.4179 41.6287 83.7446 42.4967 83.7446 43.514C83.7446 43.6913 83.7306 43.8733 83.7026 44.06H77.8366ZM80.2586 40.966C79.6053 40.966 79.0639 41.1527 78.6346 41.526C78.2053 41.89 77.9393 42.38 77.8366 42.996H82.5126C82.4099 42.3333 82.1486 41.8293 81.7286 41.484C81.3086 41.1387 80.8186 40.966 80.2586 40.966ZM89.9887 40H91.2067V47H89.9887V44.074H86.3627V47H85.1447V40H86.3627V42.912H89.9887V40ZM98.2687 40V41.176H95.8887V47H94.6707V41.176H92.2767V40H98.2687ZM100.407 40.112L101.947 42.674L100.407 45.222H99.0907L100.631 42.674L99.0907 40.112H100.407ZM102.787 40.112L104.327 42.674L102.787 45.222H101.471L103.011 42.674L101.471 40.112H102.787Z" fill="white"/>
<path d="M14.96 67.6V76H14.12V68.392H9.8V76H8.96V67.6H14.96ZM21.7899 75.244C21.1819 75.844 20.4379 76.144 19.5579 76.144C18.6779 76.144 17.9299 75.844 17.3139 75.244C16.7059 74.636 16.4019 73.888 16.4019 73C16.4019 72.112 16.7059 71.368 17.3139 70.768C17.9299 70.16 18.6779 69.856 19.5579 69.856C20.4379 69.856 21.1819 70.16 21.7899 70.768C22.4059 71.368 22.7139 72.112 22.7139 73C22.7139 73.888 22.4059 74.636 21.7899 75.244ZM17.8779 74.692C18.3339 75.148 18.8939 75.376 19.5579 75.376C20.2219 75.376 20.7819 75.148 21.2379 74.692C21.6939 74.228 21.9219 73.664 21.9219 73C21.9219 72.336 21.6939 71.776 21.2379 71.32C20.7819 70.856 20.2219 70.624 19.5579 70.624C18.8939 70.624 18.3339 70.856 17.8779 71.32C17.4219 71.776 17.1939 72.336 17.1939 73C17.1939 73.664 17.4219 74.228 17.8779 74.692ZM26.9008 72.916C27.5968 73.18 27.9448 73.66 27.9448 74.356C27.9448 74.852 27.7488 75.276 27.3568 75.628C26.9728 75.972 26.4208 76.144 25.7008 76.144C24.4928 76.144 23.7008 75.664 23.3248 74.704L23.9968 74.308C24.2448 75.02 24.8128 75.376 25.7008 75.376C26.1648 75.376 26.5208 75.276 26.7688 75.076C27.0248 74.876 27.1528 74.62 27.1528 74.308C27.1528 74.028 27.0488 73.8 26.8408 73.624C26.6328 73.448 26.3528 73.36 26.0008 73.36H25.1248V72.592H25.7608C26.1048 72.592 26.3728 72.508 26.5648 72.34C26.7648 72.164 26.8648 71.924 26.8648 71.62C26.8648 71.332 26.7488 71.096 26.5168 70.912C26.2848 70.72 25.9728 70.624 25.5808 70.624C24.8288 70.624 24.3288 70.924 24.0808 71.524L23.4208 71.14C23.8208 70.284 24.5408 69.856 25.5808 69.856C26.2128 69.856 26.7168 70.024 27.0928 70.36C27.4688 70.688 27.6568 71.092 27.6568 71.572C27.6568 72.188 27.4048 72.636 26.9008 72.916ZM32.9646 72.916C33.6206 73.156 33.9486 73.624 33.9486 74.32C33.9486 74.808 33.7846 75.212 33.4566 75.532C33.1366 75.844 32.6726 76 32.0646 76H29.1486V70H31.8246C32.4086 70 32.8606 70.152 33.1806 70.456C33.5006 70.752 33.6606 71.136 33.6606 71.608C33.6606 72.208 33.4286 72.644 32.9646 72.916ZM31.8246 70.768H29.9406V72.592H31.8246C32.5206 72.592 32.8686 72.28 32.8686 71.656C32.8686 71.376 32.7766 71.16 32.5926 71.008C32.4166 70.848 32.1606 70.768 31.8246 70.768ZM32.0646 75.232C32.4166 75.232 32.6846 75.148 32.8686 74.98C33.0606 74.812 33.1566 74.576 33.1566 74.272C33.1566 73.992 33.0606 73.772 32.8686 73.612C32.6846 73.444 32.4166 73.36 32.0646 73.36H29.9406V75.232H32.0646ZM40.1766 75.244C39.5686 75.844 38.8246 76.144 37.9446 76.144C37.0646 76.144 36.3166 75.844 35.7006 75.244C35.0926 74.636 34.7886 73.888 34.7886 73C34.7886 72.112 35.0926 71.368 35.7006 70.768C36.3166 70.16 37.0646 69.856 37.9446 69.856C38.8246 69.856 39.5686 70.16 40.1766 70.768C40.7926 71.368 41.1006 72.112 41.1006 73C41.1006 73.888 40.7926 74.636 40.1766 75.244ZM36.2646 74.692C36.7206 75.148 37.2806 75.376 37.9446 75.376C38.6086 75.376 39.1686 75.148 39.6246 74.692C40.0806 74.228 40.3086 73.664 40.3086 73C40.3086 72.336 40.0806 71.776 39.6246 71.32C39.1686 70.856 38.6086 70.624 37.9446 70.624C37.2806 70.624 36.7206 70.856 36.2646 71.32C35.8086 71.776 35.5806 72.336 35.5806 73C35.5806 73.664 35.8086 74.228 36.2646 74.692ZM47.1116 70V76H46.3196V70.768H43.6076V73.444C43.6076 74.444 43.4156 75.132 43.0316 75.508C42.6556 75.884 42.1356 76.048 41.4716 76V75.256C41.9276 75.304 42.2636 75.196 42.4796 74.932C42.7036 74.668 42.8156 74.172 42.8156 73.444V70H47.1116ZM53.1092 70V76H52.3172V73.696H51.2852L49.4372 76H48.4292L50.3252 73.672C49.8452 73.6 49.4492 73.4 49.1372 73.072C48.8252 72.744 48.6692 72.34 48.6692 71.86C48.6692 71.316 48.8612 70.872 49.2452 70.528C49.6372 70.176 50.1132 70 50.6732 70H53.1092ZM50.6732 72.952H52.3172V70.768H50.6732C50.3372 70.768 50.0492 70.868 49.8092 71.068C49.5772 71.268 49.4612 71.532 49.4612 71.86C49.4612 72.188 49.5772 72.452 49.8092 72.652C50.0492 72.852 50.3372 72.952 50.6732 72.952ZM57.5612 69.856C58.4492 69.856 59.1652 70.172 59.7092 70.804C60.2612 71.428 60.5372 72.168 60.5372 73.024C60.5372 73.112 60.5292 73.236 60.5132 73.396H55.2452C55.3252 74.004 55.5812 74.488 56.0132 74.848C56.4532 75.2 56.9932 75.376 57.6332 75.376C58.0892 75.376 58.4812 75.284 58.8092 75.1C59.1452 74.908 59.3972 74.66 59.5652 74.356L60.2612 74.764C59.9972 75.188 59.6372 75.524 59.1812 75.772C58.7252 76.02 58.2052 76.144 57.6212 76.144C56.6772 76.144 55.9092 75.848 55.3172 75.256C54.7252 74.664 54.4292 73.912 54.4292 73C54.4292 72.104 54.7212 71.356 55.3052 70.756C55.8892 70.156 56.6412 69.856 57.5612 69.856ZM57.5612 70.624C56.9372 70.624 56.4132 70.812 55.9892 71.188C55.5732 71.556 55.3252 72.036 55.2452 72.628H59.7212C59.6412 71.996 59.3972 71.504 58.9892 71.152C58.5812 70.8 58.1052 70.624 57.5612 70.624ZM65.8827 70V70.768H63.7587V76H62.9667V70.768H60.8427V70H65.8827ZM13.88 84V90H13.088V84.768H9.632V90H8.84V84H13.88ZM18.7708 83.856C19.6268 83.856 20.3548 84.16 20.9548 84.768C21.5628 85.376 21.8668 86.12 21.8668 87C21.8668 87.88 21.5628 88.624 20.9548 89.232C20.3548 89.84 19.6268 90.144 18.7708 90.144C17.7068 90.144 16.8988 89.704 16.3468 88.824V92.4H15.5548V84H16.3468V85.176C16.8988 84.296 17.7068 83.856 18.7708 83.856ZM17.0308 88.692C17.4868 89.148 18.0468 89.376 18.7108 89.376C19.3748 89.376 19.9348 89.148 20.3908 88.692C20.8468 88.228 21.0748 87.664 21.0748 87C21.0748 86.336 20.8468 85.776 20.3908 85.32C19.9348 84.856 19.3748 84.624 18.7108 84.624C18.0468 84.624 17.4868 84.856 17.0308 85.32C16.5748 85.776 16.3468 86.336 16.3468 87C16.3468 87.664 16.5748 88.228 17.0308 88.692ZM28.2118 89.244C27.6038 89.844 26.8598 90.144 25.9798 90.144C25.0998 90.144 24.3518 89.844 23.7358 89.244C23.1278 88.636 22.8238 87.888 22.8238 87C22.8238 86.112 23.1278 85.368 23.7358 84.768C24.3518 84.16 25.0998 83.856 25.9798 83.856C26.8598 83.856 27.6038 84.16 28.2118 84.768C28.8278 85.368 29.1358 86.112 29.1358 87C29.1358 87.888 28.8278 88.636 28.2118 89.244ZM24.2998 88.692C24.7558 89.148 25.3158 89.376 25.9798 89.376C26.6438 89.376 27.2038 89.148 27.6598 88.692C28.1158 88.228 28.3438 87.664 28.3438 87C28.3438 86.336 28.1158 85.776 27.6598 85.32C27.2038 84.856 26.6438 84.624 25.9798 84.624C25.3158 84.624 24.7558 84.856 24.2998 85.32C23.8438 85.776 23.6158 86.336 23.6158 87C23.6158 87.664 23.8438 88.228 24.2998 88.692ZM33.2571 90.144C32.3531 90.144 31.6011 89.844 31.0011 89.244C30.4011 88.636 30.1011 87.888 30.1011 87C30.1011 86.112 30.4011 85.368 31.0011 84.768C31.6011 84.16 32.3531 83.856 33.2571 83.856C33.8491 83.856 34.3811 84 34.8531 84.288C35.3251 84.568 35.6691 84.948 35.8851 85.428L35.2371 85.8C35.0771 85.44 34.8171 85.156 34.4571 84.948C34.1051 84.732 33.7051 84.624 33.2571 84.624C32.5931 84.624 32.0331 84.856 31.5771 85.32C31.1211 85.776 30.8931 86.336 30.8931 87C30.8931 87.664 31.1211 88.228 31.5771 88.692C32.0331 89.148 32.5931 89.376 33.2571 89.376C33.7051 89.376 34.1051 89.272 34.4571 89.064C34.8091 88.848 35.0851 88.56 35.2851 88.2L35.9451 88.584C35.6971 89.064 35.3331 89.444 34.8531 89.724C34.3731 90.004 33.8411 90.144 33.2571 90.144ZM42.9622 84V90H42.1702V85.212L40.0702 88.62H39.9742L37.8742 85.212V90H37.0822V84H37.9942L40.0222 87.288L42.0502 84H42.9622ZM49.8008 84H50.5928V90H49.8008V88.824C49.2488 89.704 48.4408 90.144 47.3768 90.144C46.5208 90.144 45.7888 89.84 45.1808 89.232C44.5808 88.624 44.2808 87.88 44.2808 87C44.2808 86.12 44.5808 85.376 45.1808 84.768C45.7888 84.16 46.5208 83.856 47.3768 83.856C48.4408 83.856 49.2488 84.296 49.8008 85.176V84ZM45.7568 88.692C46.2128 89.148 46.7728 89.376 47.4368 89.376C48.1008 89.376 48.6608 89.148 49.1168 88.692C49.5728 88.228 49.8008 87.664 49.8008 87C49.8008 86.336 49.5728 85.776 49.1168 85.32C48.6608 84.856 48.1008 84.624 47.4368 84.624C46.7728 84.624 46.2128 84.856 45.7568 85.32C45.3008 85.776 45.0728 86.336 45.0728 87C45.0728 87.664 45.3008 88.228 45.7568 88.692ZM56.5897 84V84.768H54.4657V90H53.6737V84.768H51.5497V84H56.5897ZM60.7708 83.856C61.6268 83.856 62.3548 84.16 62.9548 84.768C63.5628 85.376 63.8668 86.12 63.8668 87C63.8668 87.88 63.5628 88.624 62.9548 89.232C62.3548 89.84 61.6268 90.144 60.7708 90.144C59.7068 90.144 58.8988 89.704 58.3468 88.824V92.4H57.5548V84H58.3468V85.176C58.8988 84.296 59.7068 83.856 60.7708 83.856ZM59.0308 88.692C59.4868 89.148 60.0468 89.376 60.7108 89.376C61.3748 89.376 61.9348 89.148 62.3908 88.692C62.8468 88.228 63.0748 87.664 63.0748 87C63.0748 86.336 62.8468 85.776 62.3908 85.32C61.9348 84.856 61.3748 84.624 60.7108 84.624C60.0468 84.624 59.4868 84.856 59.0308 85.32C58.5748 85.776 58.3468 86.336 58.3468 87C58.3468 87.664 58.5748 88.228 59.0308 88.692ZM69.5518 84H70.2238V90H69.4318V85.38L65.8558 90H65.1838V84H65.9758V88.62L69.5518 84ZM75.7146 86.916C76.3706 87.156 76.6986 87.624 76.6986 88.32C76.6986 88.808 76.5346 89.212 76.2066 89.532C75.8866 89.844 75.4226 90 74.8146 90H71.8986V84H74.5746C75.1586 84 75.6106 84.152 75.9306 84.456C76.2506 84.752 76.4106 85.136 76.4106 85.608C76.4106 86.208 76.1786 86.644 75.7146 86.916ZM74.5746 84.768H72.6906V86.592H74.5746C75.2706 86.592 75.6186 86.28 75.6186 85.656C75.6186 85.376 75.5266 85.16 75.3426 85.008C75.1666 84.848 74.9106 84.768 74.5746 84.768ZM74.8146 89.232C75.1666 89.232 75.4346 89.148 75.6186 88.98C75.8106 88.812 75.9066 88.576 75.9066 88.272C75.9066 87.992 75.8106 87.772 75.6186 87.612C75.4346 87.444 75.1666 87.36 74.8146 87.36H72.6906V89.232H74.8146ZM83.0586 84H83.8506V90H83.0586V88.824C82.5066 89.704 81.6986 90.144 80.6346 90.144C79.7786 90.144 79.0466 89.84 78.4386 89.232C77.8386 88.624 77.5386 87.88 77.5386 87C77.5386 86.12 77.8386 85.376 78.4386 84.768C79.0466 84.16 79.7786 83.856 80.6346 83.856C81.6986 83.856 82.5066 84.296 83.0586 85.176V84ZM79.0146 88.692C79.4706 89.148 80.0306 89.376 80.6946 89.376C81.3586 89.376 81.9186 89.148 82.3746 88.692C82.8306 88.228 83.0586 87.664 83.0586 87C83.0586 86.336 82.8306 85.776 82.3746 85.32C81.9186 84.856 81.3586 84.624 80.6946 84.624C80.0306 84.624 79.4706 84.856 79.0146 85.32C78.5586 85.776 78.3306 86.336 78.3306 87C78.3306 87.664 78.5586 88.228 79.0146 88.692ZM89.8475 84V84.768H87.7235V90H86.9315V84.768H84.8075V84H89.8475ZM93.2487 86.28C93.8087 86.28 94.2807 86.456 94.6647 86.808C95.0567 87.152 95.2527 87.596 95.2527 88.14C95.2527 88.684 95.0567 89.132 94.6647 89.484C94.2807 89.828 93.8087 90 93.2487 90H90.8127V84H91.6047V86.28H93.2487ZM93.2487 89.232C93.5847 89.232 93.8687 89.132 94.1007 88.932C94.3407 88.732 94.4607 88.468 94.4607 88.14C94.4607 87.812 94.3407 87.548 94.1007 87.348C93.8687 87.148 93.5847 87.048 93.2487 87.048H91.6047V89.232H93.2487ZM103.817 84H104.489V90H103.697V85.38L100.121 90H99.4494V84H100.241V88.62L103.817 84ZM110.004 84V84.768H106.956V90H106.164V84H110.004ZM114.185 83.856C115.041 83.856 115.769 84.16 116.369 84.768C116.977 85.376 117.281 86.12 117.281 87C117.281 87.88 116.977 88.624 116.369 89.232C115.769 89.84 115.041 90.144 114.185 90.144C113.121 90.144 112.313 89.704 111.761 88.824V92.4H110.969V84H111.761V85.176C112.313 84.296 113.121 83.856 114.185 83.856ZM112.445 88.692C112.901 89.148 113.461 89.376 114.125 89.376C114.789 89.376 115.349 89.148 115.805 88.692C116.261 88.228 116.489 87.664 116.489 87C116.489 86.336 116.261 85.776 115.805 85.32C115.349 84.856 114.789 84.624 114.125 84.624C113.461 84.624 112.901 84.856 112.445 85.32C111.989 85.776 111.761 86.336 111.761 87C111.761 87.664 111.989 88.228 112.445 88.692ZM123.626 89.244C123.018 89.844 122.274 90.144 121.394 90.144C120.514 90.144 119.766 89.844 119.15 89.244C118.542 88.636 118.238 87.888 118.238 87C118.238 86.112 118.542 85.368 119.15 84.768C119.766 84.16 120.514 83.856 121.394 83.856C122.274 83.856 123.018 84.16 123.626 84.768C124.242 85.368 124.55 86.112 124.55 87C124.55 87.888 124.242 88.636 123.626 89.244ZM119.714 88.692C120.17 89.148 120.73 89.376 121.394 89.376C122.058 89.376 122.618 89.148 123.074 88.692C123.53 88.228 123.758 87.664 123.758 87C123.758 86.336 123.53 85.776 123.074 85.32C122.618 84.856 122.058 84.624 121.394 84.624C120.73 84.624 120.17 84.856 119.714 85.32C119.258 85.776 119.03 86.336 119.03 87C119.03 87.664 119.258 88.228 119.714 88.692ZM130.723 90H129.667L126.667 87.108V90H125.875V84H126.667V86.652L129.523 84H130.603L127.507 86.88L130.723 90ZM136.235 89.244C135.627 89.844 134.883 90.144 134.003 90.144C133.123 90.144 132.375 89.844 131.759 89.244C131.151 88.636 130.847 87.888 130.847 87C130.847 86.112 131.151 85.368 131.759 84.768C132.375 84.16 133.123 83.856 134.003 83.856C134.883 83.856 135.627 84.16 136.235 84.768C136.851 85.368 137.159 86.112 137.159 87C137.159 87.888 136.851 88.636 136.235 89.244ZM132.323 88.692C132.779 89.148 133.339 89.376 134.003 89.376C134.667 89.376 135.227 89.148 135.683 88.692C136.139 88.228 136.367 87.664 136.367 87C136.367 86.336 136.139 85.776 135.683 85.32C135.227 84.856 134.667 84.624 134.003 84.624C133.339 84.624 132.779 84.856 132.323 85.32C131.867 85.776 131.639 86.336 131.639 87C131.639 87.664 131.867 88.228 132.323 88.692ZM142.301 86.916C142.957 87.156 143.285 87.624 143.285 88.32C143.285 88.808 143.121 89.212 142.793 89.532C142.473 89.844 142.009 90 141.401 90H138.485V84H141.161C141.745 84 142.197 84.152 142.517 84.456C142.837 84.752 142.997 85.136 142.997 85.608C142.997 86.208 142.765 86.644 142.301 86.916ZM141.161 84.768H139.277V86.592H141.161C141.857 86.592 142.205 86.28 142.205 85.656C142.205 85.376 142.113 85.16 141.929 85.008C141.753 84.848 141.497 84.768 141.161 84.768ZM141.401 89.232C141.753 89.232 142.021 89.148 142.205 88.98C142.397 88.812 142.493 88.576 142.493 88.272C142.493 87.992 142.397 87.772 142.205 87.612C142.021 87.444 141.753 87.36 141.401 87.36H139.277V89.232H141.401ZM13.88 98V104H13.088V98.768H9.632V104H8.84V98H13.88ZM20.5828 103.244C19.9748 103.844 19.2308 104.144 18.3508 104.144C17.4708 104.144 16.7228 103.844 16.1068 103.244C15.4988 102.636 15.1948 101.888 15.1948 101C15.1948 100.112 15.4988 99.368 16.1068 98.768C16.7228 98.16 17.4708 97.856 18.3508 97.856C19.2308 97.856 19.9748 98.16 20.5828 98.768C21.1988 99.368 21.5068 100.112 21.5068 101C21.5068 101.888 21.1988 102.636 20.5828 103.244ZM16.6708 102.692C17.1268 103.148 17.6868 103.376 18.3508 103.376C19.0148 103.376 19.5748 103.148 20.0308 102.692C20.4868 102.228 20.7148 101.664 20.7148 101C20.7148 100.336 20.4868 99.776 20.0308 99.32C19.5748 98.856 19.0148 98.624 18.3508 98.624C17.6868 98.624 17.1268 98.856 16.6708 99.32C16.2148 99.776 15.9868 100.336 15.9868 101C15.9868 101.664 16.2148 102.228 16.6708 102.692ZM30.8602 103.244C30.2522 103.844 29.5082 104.144 28.6282 104.144C27.7482 104.144 27.0002 103.844 26.3842 103.244C25.7762 102.636 25.4722 101.888 25.4722 101C25.4722 100.112 25.7762 99.368 26.3842 98.768C27.0002 98.16 27.7482 97.856 28.6282 97.856C29.5082 97.856 30.2522 98.16 30.8602 98.768C31.4762 99.368 31.7842 100.112 31.7842 101C31.7842 101.888 31.4762 102.636 30.8602 103.244ZM26.9482 102.692C27.4042 103.148 27.9642 103.376 28.6282 103.376C29.2922 103.376 29.8522 103.148 30.3082 102.692C30.7642 102.228 30.9922 101.664 30.9922 101C30.9922 100.336 30.7642 99.776 30.3082 99.32C29.8522 98.856 29.2922 98.624 28.6282 98.624C27.9642 98.624 27.4042 98.856 26.9482 99.32C26.4922 99.776 26.2642 100.336 26.2642 101C26.2642 101.664 26.4922 102.228 26.9482 102.692ZM38.1495 98V104H37.3575V98.768H33.9015V104H33.1095V98H38.1495ZM43.0404 97.856C43.8964 97.856 44.6244 98.16 45.2244 98.768C45.8324 99.376 46.1364 100.12 46.1364 101C46.1364 101.88 45.8324 102.624 45.2244 103.232C44.6244 103.84 43.8964 104.144 43.0404 104.144C41.9764 104.144 41.1684 103.704 40.6164 102.824V106.4H39.8244V98H40.6164V99.176C41.1684 98.296 41.9764 97.856 43.0404 97.856ZM41.3004 102.692C41.7564 103.148 42.3164 103.376 42.9804 103.376C43.6444 103.376 44.2044 103.148 44.6604 102.692C45.1164 102.228 45.3444 101.664 45.3444 101C45.3444 100.336 45.1164 99.776 44.6604 99.32C44.2044 98.856 43.6444 98.624 42.9804 98.624C42.3164 98.624 41.7564 98.856 41.3004 99.32C40.8444 99.776 40.6164 100.336 40.6164 101C40.6164 101.664 40.8444 102.228 41.3004 102.692ZM50.2253 97.856C51.1133 97.856 51.8293 98.172 52.3733 98.804C52.9253 99.428 53.2013 100.168 53.2013 101.024C53.2013 101.112 53.1933 101.236 53.1773 101.396H47.9093C47.9893 102.004 48.2453 102.488 48.6773 102.848C49.1173 103.2 49.6573 103.376 50.2973 103.376C50.7533 103.376 51.1453 103.284 51.4733 103.1C51.8093 102.908 52.0613 102.66 52.2293 102.356L52.9253 102.764C52.6613 103.188 52.3013 103.524 51.8453 103.772C51.3893 104.02 50.8693 104.144 50.2853 104.144C49.3413 104.144 48.5733 103.848 47.9813 103.256C47.3893 102.664 47.0933 101.912 47.0933 101C47.0933 100.104 47.3853 99.356 47.9693 98.756C48.5533 98.156 49.3053 97.856 50.2253 97.856ZM50.2253 98.624C49.6013 98.624 49.0773 98.812 48.6533 99.188C48.2373 99.556 47.9893 100.036 47.9093 100.628H52.3853C52.3053 99.996 52.0613 99.504 51.6533 99.152C51.2453 98.8 50.7693 98.624 50.2253 98.624ZM59.2667 103.232H60.1067V105.608H59.3147V104H54.4187V105.608H53.6267V103.232H54.3587C54.7667 102.696 54.9707 101.94 54.9707 100.964V98H59.2667V103.232ZM55.3187 103.232H58.4747V98.768H55.7627V100.964C55.7627 101.884 55.6147 102.64 55.3187 103.232ZM63.8425 97.856C64.7305 97.856 65.4465 98.172 65.9905 98.804C66.5425 99.428 66.8185 100.168 66.8185 101.024C66.8185 101.112 66.8105 101.236 66.7945 101.396H61.5265C61.6065 102.004 61.8625 102.488 62.2945 102.848C62.7345 103.2 63.2745 103.376 63.9145 103.376C64.3705 103.376 64.7625 103.284 65.0905 103.1C65.4265 102.908 65.6785 102.66 65.8465 102.356L66.5425 102.764C66.2785 103.188 65.9185 103.524 65.4625 103.772C65.0065 104.02 64.4865 104.144 63.9025 104.144C62.9585 104.144 62.1905 103.848 61.5985 103.256C61.0065 102.664 60.7105 101.912 60.7105 101C60.7105 100.104 61.0025 99.356 61.5865 98.756C62.1705 98.156 62.9225 97.856 63.8425 97.856ZM63.8425 98.624C63.2185 98.624 62.6945 98.812 62.2705 99.188C61.8545 99.556 61.6065 100.036 61.5265 100.628H66.0025C65.9225 99.996 65.6785 99.504 65.2705 99.152C64.8625 98.8 64.3865 98.624 63.8425 98.624ZM72.7639 98V104H71.9719V98.768H69.2599V101.444C69.2599 102.444 69.0679 103.132 68.6839 103.508C68.3079 103.884 67.7879 104.048 67.1239 104V103.256C67.5799 103.304 67.9159 103.196 68.1319 102.932C68.3559 102.668 68.4679 102.172 68.4679 101.444V98H72.7639ZM77.2136 97.856C78.1016 97.856 78.8176 98.172 79.3616 98.804C79.9136 99.428 80.1896 100.168 80.1896 101.024C80.1896 101.112 80.1816 101.236 80.1656 101.396H74.8976C74.9776 102.004 75.2336 102.488 75.6656 102.848C76.1056 103.2 76.6456 103.376 77.2856 103.376C77.7416 103.376 78.1336 103.284 78.4616 103.1C78.7976 102.908 79.0496 102.66 79.2176 102.356L79.9136 102.764C79.6496 103.188 79.2896 103.524 78.8336 103.772C78.3776 104.02 77.8576 104.144 77.2736 104.144C76.3296 104.144 75.5616 103.848 74.9696 103.256C74.3776 102.664 74.0816 101.912 74.0816 101C74.0816 100.104 74.3736 99.356 74.9576 98.756C75.5416 98.156 76.2936 97.856 77.2136 97.856ZM77.2136 98.624C76.5896 98.624 76.0656 98.812 75.6416 99.188C75.2256 99.556 74.9776 100.036 74.8976 100.628H79.3736C79.2936 99.996 79.0496 99.504 78.6416 99.152C78.2336 98.8 77.7576 98.624 77.2136 98.624ZM85.6974 98H86.4894V104H85.6974V101.384H82.2414V104H81.4494V98H82.2414V100.616H85.6974V98ZM92.4122 98H93.2042V104H92.4122V101.384H88.9562V104H88.1642V98H88.9562V100.616H92.4122V98ZM97.3151 100.28C97.8751 100.28 98.3471 100.456 98.7311 100.808C99.1231 101.152 99.3191 101.596 99.3191 102.14C99.3191 102.684 99.1231 103.132 98.7311 103.484C98.3471 103.828 97.8751 104 97.3151 104H94.8791V98H95.6711V100.28H97.3151ZM100.159 98H100.951V104H100.159V98ZM97.3151 103.232C97.6511 103.232 97.9351 103.132 98.1671 102.932C98.4071 102.732 98.5271 102.468 98.5271 102.14C98.5271 101.812 98.4071 101.548 98.1671 101.348C97.9351 101.148 97.6511 101.048 97.3151 101.048H95.6711V103.232H97.3151ZM108.517 98V104H107.725V99.212L105.625 102.62H105.529L103.429 99.212V104H102.637V98H103.549L105.577 101.288L107.605 98H108.517ZM13.688 118H12.632L9.632 115.108V118H8.84V112H9.632V114.652L12.488 112H13.568L10.472 114.88L13.688 118ZM17.9857 111.856C18.8417 111.856 19.5697 112.16 20.1697 112.768C20.7777 113.376 21.0817 114.12 21.0817 115C21.0817 115.88 20.7777 116.624 20.1697 117.232C19.5697 117.84 18.8417 118.144 17.9857 118.144C16.9217 118.144 16.1137 117.704 15.5617 116.824V120.4H14.7697V112H15.5617V113.176C16.1137 112.296 16.9217 111.856 17.9857 111.856ZM16.2457 116.692C16.7017 117.148 17.2617 117.376 17.9257 117.376C18.5897 117.376 19.1497 117.148 19.6057 116.692C20.0617 116.228 20.2897 115.664 20.2897 115C20.2897 114.336 20.0617 113.776 19.6057 113.32C19.1497 112.856 18.5897 112.624 17.9257 112.624C17.2617 112.624 16.7017 112.856 16.2457 113.32C15.7897 113.776 15.5617 114.336 15.5617 115C15.5617 115.664 15.7897 116.228 16.2457 116.692ZM26.7666 112H27.4386V118H26.6466V113.38L23.0706 118H22.3986V112H23.1906V116.62L26.7666 112ZM33.4334 112V112.768H31.3094V118H30.5174V112.768H28.3934V112H33.4334ZM36.9362 111.856C37.8242 111.856 38.5402 112.172 39.0842 112.804C39.6362 113.428 39.9122 114.168 39.9122 115.024C39.9122 115.112 39.9042 115.236 39.8882 115.396H34.6202C34.7002 116.004 34.9562 116.488 35.3882 116.848C35.8282 117.2 36.3682 117.376 37.0082 117.376C37.4642 117.376 37.8562 117.284 38.1842 117.1C38.5202 116.908 38.7722 116.66 38.9402 116.356L39.6362 116.764C39.3722 117.188 39.0122 117.524 38.5562 117.772C38.1002 118.02 37.5802 118.144 36.9962 118.144C36.0522 118.144 35.2842 117.848 34.6922 117.256C34.1002 116.664 33.8042 115.912 33.8042 115C33.8042 114.104 34.0962 113.356 34.6802 112.756C35.2642 112.156 36.0162 111.856 36.9362 111.856ZM36.9362 112.624C36.3122 112.624 35.7882 112.812 35.3642 113.188C34.9482 113.556 34.7002 114.036 34.6202 114.628H39.0962C39.0162 113.996 38.7722 113.504 38.3642 113.152C37.9562 112.8 37.4802 112.624 36.9362 112.624ZM44.388 111.856C45.244 111.856 45.972 112.16 46.572 112.768C47.18 113.376 47.484 114.12 47.484 115C47.484 115.88 47.18 116.624 46.572 117.232C45.972 117.84 45.244 118.144 44.388 118.144C43.324 118.144 42.516 117.704 41.964 116.824V120.4H41.172V112H41.964V113.176C42.516 112.296 43.324 111.856 44.388 111.856ZM42.648 116.692C43.104 117.148 43.664 117.376 44.328 117.376C44.992 117.376 45.552 117.148 46.008 116.692C46.464 116.228 46.692 115.664 46.692 115C46.692 114.336 46.464 113.776 46.008 113.32C45.552 112.856 44.992 112.624 44.328 112.624C43.664 112.624 43.104 112.856 42.648 113.32C42.192 113.776 41.964 114.336 41.964 115C41.964 115.664 42.192 116.228 42.648 116.692ZM53.1689 112H53.8409V118H53.0489V113.38L49.4729 118H48.8009V112H49.5929V116.62L53.1689 112ZM59.8358 112V118H59.0438V115.696H58.0118L56.1638 118H55.1558L57.0518 115.672C56.5718 115.6 56.1758 115.4 55.8638 115.072C55.5518 114.744 55.3958 114.34 55.3958 113.86C55.3958 113.316 55.5878 112.872 55.9718 112.528C56.3638 112.176 56.8398 112 57.3998 112H59.8358ZM57.3998 114.952H59.0438V112.768H57.3998C57.0638 112.768 56.7758 112.868 56.5358 113.068C56.3038 113.268 56.1878 113.532 56.1878 113.86C56.1878 114.188 56.3038 114.452 56.5358 114.652C56.7758 114.852 57.0638 114.952 57.3998 114.952ZM67.3958 112V118H66.6038V113.212L64.5038 116.62H64.4078L62.3078 113.212V118H61.5158V112H62.4278L64.4558 115.288L66.4838 112H67.3958ZM69.3144 119.2H68.7144L73.5144 108.4H74.1144L69.3144 119.2ZM81.2937 112.864C81.8697 113.448 82.1577 114.16 82.1577 115C82.1577 115.84 81.8697 116.552 81.2937 117.136C80.7177 117.72 79.9577 118.052 79.0137 118.132V120.4H78.2217V118.132C77.2777 118.052 76.5177 117.72 75.9417 117.136C75.3657 116.552 75.0777 115.84 75.0777 115C75.0777 114.16 75.3657 113.448 75.9417 112.864C76.5177 112.28 77.2777 111.948 78.2217 111.868V109.6H79.0137V111.868C79.9577 111.948 80.7177 112.28 81.2937 112.864ZM76.5057 113.416C76.0817 113.848 75.8697 114.376 75.8697 115C75.8697 115.624 76.0817 116.156 76.5057 116.596C76.9297 117.028 77.5017 117.28 78.2217 117.352V112.648C77.5017 112.72 76.9297 112.976 76.5057 113.416ZM79.0137 117.352C79.7337 117.28 80.3057 117.028 80.7297 116.596C81.1537 116.156 81.3657 115.624 81.3657 115C81.3657 114.376 81.1537 113.848 80.7297 113.416C80.3057 112.976 79.7337 112.72 79.0137 112.648V117.352ZM87.8447 112H88.5167V118H87.7247V113.38L84.1487 118H83.4767V112H84.2687V116.62L87.8447 112ZM95.1116 112V118H94.3196V112.768H91.6076V115.444C91.6076 116.444 91.4156 117.132 91.0316 117.508C90.6556 117.884 90.1356 118.048 89.4716 118V117.256C89.9276 117.304 90.2636 117.196 90.4796 116.932C90.7036 116.668 90.8156 116.172 90.8156 115.444V112H95.1116ZM99.2252 114.28C99.7852 114.28 100.257 114.456 100.641 114.808C101.033 115.152 101.229 115.596 101.229 116.14C101.229 116.684 101.033 117.132 100.641 117.484C100.257 117.828 99.7852 118 99.2252 118H96.7892V112H97.5812V114.28H99.2252ZM99.2252 117.232C99.5612 117.232 99.8452 117.132 100.077 116.932C100.317 116.732 100.437 116.468 100.437 116.14C100.437 115.812 100.317 115.548 100.077 115.348C99.8452 115.148 99.5612 115.048 99.2252 115.048H97.5812V117.232H99.2252ZM106.031 112V112.768H103.907V118H103.115V112.768H100.991V112H106.031ZM110.212 111.856C111.068 111.856 111.796 112.16 112.396 112.768C113.004 113.376 113.308 114.12 113.308 115C113.308 115.88 113.004 116.624 112.396 117.232C111.796 117.84 111.068 118.144 110.212 118.144C109.148 118.144 108.34 117.704 107.788 116.824V120.4H106.996V112H107.788V113.176C108.34 112.296 109.148 111.856 110.212 111.856ZM108.472 116.692C108.928 117.148 109.488 117.376 110.152 117.376C110.816 117.376 111.376 117.148 111.832 116.692C112.288 116.228 112.516 115.664 112.516 115C112.516 114.336 112.288 113.776 111.832 113.32C111.376 112.856 110.816 112.624 110.152 112.624C109.488 112.624 108.928 112.856 108.472 113.32C108.016 113.776 107.788 114.336 107.788 115C107.788 115.664 108.016 116.228 108.472 116.692ZM119.785 112H120.577V118H119.785V116.824C119.233 117.704 118.425 118.144 117.361 118.144C116.505 118.144 115.773 117.84 115.165 117.232C114.565 116.624 114.265 115.88 114.265 115C114.265 114.12 114.565 113.376 115.165 112.768C115.773 112.16 116.505 111.856 117.361 111.856C118.425 111.856 119.233 112.296 119.785 113.176V112ZM115.741 116.692C116.197 117.148 116.757 117.376 117.421 117.376C118.085 117.376 118.645 117.148 119.101 116.692C119.557 116.228 119.785 115.664 119.785 115C119.785 114.336 119.557 113.776 119.101 113.32C118.645 112.856 118.085 112.624 117.421 112.624C116.757 112.624 116.197 112.856 115.741 113.32C115.285 113.776 115.057 114.336 115.057 115C115.057 115.664 115.285 116.228 115.741 116.692ZM128.134 112V118H127.342V113.212L125.242 116.62H125.146L123.046 113.212V118H122.254V112H123.166L125.194 115.288L127.222 112H128.134ZM130.821 117.928C130.693 118.056 130.537 118.12 130.353 118.12C130.169 118.12 130.013 118.056 129.885 117.928C129.757 117.8 129.693 117.644 129.693 117.46C129.693 117.276 129.757 117.12 129.885 116.992C130.013 116.864 130.169 116.8 130.353 116.8C130.537 116.8 130.693 116.864 130.821 116.992C130.949 117.12 131.013 117.276 131.013 117.46C131.013 117.644 130.949 117.8 130.821 117.928Z" fill="white"/>
</svg>
