<svg width="161" height="139" viewBox="0 0 161 139" fill="none" xmlns="http://www.w3.org/2000/svg">
<g filter="url(#filter0_b_1005_22222)">
<path d="M0 15C0 6.71573 6.71573 0 15 0H71.6871C74.934 0 78.0933 1.05358 80.6903 3.00246L155.003 58.7689C158.778 61.6018 161 66.0465 161 70.7664V124C161 132.284 154.284 139 146 139H15C6.71573 139 0 132.284 0 124V15Z" fill="#0C0C0C" fill-opacity="0.3"/>
<path d="M0.5 15C0.5 6.99187 6.99187 0.5 15 0.5H71.6871C74.8258 0.5 77.8798 1.51846 80.3902 3.40238L154.703 59.1688C158.352 61.9073 160.5 66.2038 160.5 70.7664V124C160.5 132.008 154.008 138.5 146 138.5H15C6.99187 138.5 0.5 132.008 0.5 124V15Z" stroke="white" stroke-opacity="0.3"/>
</g>
<path d="M12.606 33.2C13.5113 33.2 14.2627 33.5033 14.86 34.11C15.4667 34.7073 15.77 35.454 15.77 36.35C15.77 37.2367 15.4667 37.9833 14.86 38.59C14.2627 39.1967 13.5113 39.5 12.606 39.5H10.352V43H9.05V33.2H12.606ZM12.606 38.282C13.1473 38.282 13.5953 38.1 13.95 37.736C14.3047 37.3627 14.482 36.9007 14.482 36.35C14.482 35.79 14.3047 35.328 13.95 34.964C13.5953 34.6 13.1473 34.418 12.606 34.418H10.352V38.282H12.606ZM17.5026 40.06C17.6239 40.6853 17.9086 41.1707 18.3566 41.516C18.8139 41.8613 19.3739 42.034 20.0366 42.034C20.9606 42.034 21.6326 41.6933 22.0526 41.012L23.0886 41.6C22.4073 42.6547 21.3806 43.182 20.0086 43.182C18.8979 43.182 17.9926 42.8367 17.2926 42.146C16.6019 41.446 16.2566 40.564 16.2566 39.5C16.2566 38.4453 16.5973 37.568 17.2786 36.868C17.9599 36.168 18.8419 35.818 19.9246 35.818C20.9513 35.818 21.7866 36.182 22.4306 36.91C23.0839 37.6287 23.4106 38.4967 23.4106 39.514C23.4106 39.6913 23.3966 39.8733 23.3686 40.06H17.5026ZM19.9246 36.966C19.2713 36.966 18.7299 37.1527 18.3006 37.526C17.8713 37.89 17.6053 38.38 17.5026 38.996H22.1786C22.0759 38.3333 21.8146 37.8293 21.3946 37.484C20.9746 37.1387 20.4846 36.966 19.9246 36.966ZM32.9832 43H31.5552L28.9372 39.682V43H27.7332V39.682L25.1152 43H23.7012L26.6272 39.388L23.8412 36H25.2552L27.7332 39.094V36H28.9372V39.094L31.4152 36H32.8432L30.0432 39.388L32.9832 43ZM39.2306 36H40.2106V43H39.0066V38.086L35.1286 43H34.1486V36H35.3526V40.914L39.2306 36ZM49.0646 36V43H47.8746V37.918L45.6486 41.502H45.4946L43.2686 37.918V43H42.0646V36H43.3666L45.5646 39.542L47.7626 36H49.0646ZM11.808 52.112L10.268 54.674L11.808 57.222H10.492L8.952 54.674L10.492 52.112H11.808ZM14.188 52.112L12.648 54.674L14.188 57.222H12.872L11.332 54.674L12.872 52.112H14.188ZM25.3567 49.2V59H24.0687V51.342L20.8627 56.676H20.6947L17.4887 51.356V59H16.1867V49.2H17.6567L20.7787 54.38L23.8867 49.2H25.3567ZM28.1803 56.06C28.3017 56.6853 28.5863 57.1707 29.0343 57.516C29.4917 57.8613 30.0517 58.034 30.7143 58.034C31.6383 58.034 32.3103 57.6933 32.7303 57.012L33.7663 57.6C33.085 58.6547 32.0583 59.182 30.6863 59.182C29.5757 59.182 28.6703 58.8367 27.9703 58.146C27.2797 57.446 26.9343 56.564 26.9343 55.5C26.9343 54.4453 27.275 53.568 27.9563 52.868C28.6377 52.168 29.5197 51.818 30.6023 51.818C31.629 51.818 32.4643 52.182 33.1083 52.91C33.7617 53.6287 34.0883 54.4967 34.0883 55.514C34.0883 55.6913 34.0743 55.8733 34.0463 56.06H28.1803ZM30.6023 52.966C29.949 52.966 29.4077 53.1527 28.9783 53.526C28.549 53.89 28.283 54.38 28.1803 54.996H32.8563C32.7537 54.3333 32.4923 53.8293 32.0723 53.484C31.6523 53.1387 31.1623 52.966 30.6023 52.966ZM40.3325 52H41.5505V59H40.3325V56.074H36.7065V59H35.4885V52H36.7065V54.912H40.3325V52ZM44.2585 56.06C44.3798 56.6853 44.6645 57.1707 45.1125 57.516C45.5698 57.8613 46.1298 58.034 46.7925 58.034C47.7165 58.034 48.3885 57.6933 48.8085 57.012L49.8445 57.6C49.1631 58.6547 48.1365 59.182 46.7645 59.182C45.6538 59.182 44.7485 58.8367 44.0485 58.146C43.3578 57.446 43.0125 56.564 43.0125 55.5C43.0125 54.4453 43.3531 53.568 44.0345 52.868C44.7158 52.168 45.5978 51.818 46.6805 51.818C47.7071 51.818 48.5425 52.182 49.1865 52.91C49.8398 53.6287 50.1665 54.4967 50.1665 55.514C50.1665 55.6913 50.1525 55.8733 50.1245 56.06H44.2585ZM46.6805 52.966C46.0271 52.966 45.4858 53.1527 45.0565 53.526C44.6271 53.89 44.3611 54.38 44.2585 54.996H48.9345C48.8318 54.3333 48.5705 53.8293 48.1505 53.484C47.7305 53.1387 47.2405 52.966 46.6805 52.966ZM57.3131 57.838H58.2791V60.876H57.0751V59H51.8251V60.876H50.6211V57.838H51.4751C51.9231 57.222 52.1471 56.3587 52.1471 55.248V52H57.3131V57.838ZM52.8611 57.838H56.1091V53.134H53.3511V55.248C53.3511 56.2933 53.1878 57.1567 52.8611 57.838ZM68.202 59H66.774L64.156 55.682V59H62.952V55.682L60.334 59H58.92L61.846 55.388L59.06 52H60.474L62.952 55.094V52H64.156V55.094L66.634 52H68.062L65.262 55.388L68.202 59ZM69.6608 56.06C69.7821 56.6853 70.0668 57.1707 70.5148 57.516C70.9721 57.8613 71.5321 58.034 72.1948 58.034C73.1188 58.034 73.7908 57.6933 74.2108 57.012L75.2468 57.6C74.5655 58.6547 73.5388 59.182 72.1668 59.182C71.0561 59.182 70.1508 58.8367 69.4508 58.146C68.7601 57.446 68.4148 56.564 68.4148 55.5C68.4148 54.4453 68.7555 53.568 69.4368 52.868C70.1181 52.168 71.0001 51.818 72.0828 51.818C73.1095 51.818 73.9448 52.182 74.5888 52.91C75.2421 53.6287 75.5688 54.4967 75.5688 55.514C75.5688 55.6913 75.5548 55.8733 75.5268 56.06H69.6608ZM72.0828 52.966C71.4295 52.966 70.8881 53.1527 70.4588 53.526C70.0295 53.89 69.7635 54.38 69.6608 54.996H74.3368C74.2341 54.3333 73.9728 53.8293 73.5528 53.484C73.1328 53.1387 72.6428 52.966 72.0828 52.966ZM80.8329 51.818C81.8129 51.818 82.6483 52.1773 83.3389 52.896C84.0296 53.6053 84.3749 54.4733 84.3749 55.5C84.3749 56.5267 84.0296 57.3993 83.3389 58.118C82.6483 58.8273 81.8129 59.182 80.8329 59.182C79.6756 59.182 78.7936 58.72 78.1869 57.796V61.8H76.9689V52H78.1869V53.204C78.7936 52.28 79.6756 51.818 80.8329 51.818ZM80.6789 58.006C81.3789 58.006 81.9669 57.768 82.4429 57.292C82.9189 56.8067 83.1569 56.2093 83.1569 55.5C83.1569 54.7907 82.9189 54.198 82.4429 53.722C81.9669 53.2367 81.3789 52.994 80.6789 52.994C79.9696 52.994 79.3769 53.2367 78.9009 53.722C78.4249 54.198 78.1869 54.7907 78.1869 55.5C78.1869 56.2093 78.4249 56.8067 78.9009 57.292C79.3769 57.768 79.9696 58.006 80.6789 58.006ZM95.2503 59H93.7383L90.5463 55.682V59H89.3283V52H90.5463V55.094L93.5703 52H95.1383L91.7923 55.388L95.2503 59ZM102.221 52V59H101.003V53.176H98.245V56.032C98.245 57.18 98.0117 57.9827 97.545 58.44C97.0877 58.888 96.439 59.0747 95.599 59V57.852C96.075 57.9173 96.4297 57.8147 96.663 57.544C96.9057 57.264 97.027 56.7507 97.027 56.004V52H102.221ZM108.953 52H110.255L107.399 59.434C107.1 60.2273 106.68 60.8293 106.139 61.24C105.597 61.66 104.981 61.8467 104.291 61.8V60.666C105.149 60.7313 105.779 60.2647 106.181 59.266L106.293 59.014L103.255 52H104.543L106.937 57.488L108.953 52ZM114.176 59.182C113.14 59.182 112.286 58.8413 111.614 58.16C110.942 57.4787 110.606 56.6013 110.606 55.528C110.606 54.3333 110.779 53.414 111.124 52.77C111.479 52.126 112.198 51.5427 113.28 51.02C113.476 50.9267 113.742 50.8053 114.078 50.656C114.424 50.5067 114.676 50.3947 114.834 50.32C114.993 50.236 115.17 50.1287 115.366 49.998C115.562 49.858 115.707 49.7087 115.8 49.55C115.903 49.382 115.978 49.1907 116.024 48.976L117.004 49.536C116.976 49.6853 116.939 49.8253 116.892 49.956C116.846 50.0773 116.776 50.1987 116.682 50.32C116.598 50.432 116.524 50.53 116.458 50.614C116.393 50.698 116.281 50.7913 116.122 50.894C115.973 50.9873 115.861 51.0573 115.786 51.104C115.721 51.1507 115.586 51.2207 115.38 51.314C115.184 51.4073 115.049 51.4727 114.974 51.51C114.909 51.538 114.755 51.6033 114.512 51.706C114.27 51.7993 114.12 51.86 114.064 51.888C113.43 52.1587 112.963 52.434 112.664 52.714C112.375 52.994 112.165 53.3487 112.034 53.778C112.333 53.4047 112.706 53.1293 113.154 52.952C113.602 52.7747 114.05 52.686 114.498 52.686C115.376 52.686 116.118 52.9847 116.724 53.582C117.34 54.1793 117.648 54.9493 117.648 55.892C117.648 56.844 117.322 57.6327 116.668 58.258C116.015 58.874 115.184 59.182 114.176 59.182ZM112.538 57.39C112.977 57.8007 113.523 58.006 114.176 58.006C114.83 58.006 115.366 57.8053 115.786 57.404C116.216 57.0027 116.43 56.4987 116.43 55.892C116.43 55.2667 116.225 54.758 115.814 54.366C115.413 53.9647 114.881 53.764 114.218 53.764C113.621 53.764 113.08 53.9553 112.594 54.338C112.118 54.7113 111.88 55.206 111.88 55.822C111.88 56.4567 112.1 56.9793 112.538 57.39ZM124.738 52H125.956V59H124.738V57.796C124.131 58.72 123.249 59.182 122.092 59.182C121.112 59.182 120.276 58.8273 119.586 58.118C118.895 57.3993 118.55 56.5267 118.55 55.5C118.55 54.4733 118.895 53.6053 119.586 52.896C120.276 52.1773 121.112 51.818 122.092 51.818C123.249 51.818 124.131 52.28 124.738 53.204V52ZM122.246 58.006C122.955 58.006 123.548 57.768 124.024 57.292C124.5 56.8067 124.738 56.2093 124.738 55.5C124.738 54.7907 124.5 54.198 124.024 53.722C123.548 53.2367 122.955 52.994 122.246 52.994C121.546 52.994 120.958 53.2367 120.482 53.722C120.006 54.198 119.768 54.7907 119.768 55.5C119.768 56.2093 120.006 56.8067 120.482 57.292C120.958 57.768 121.546 58.006 122.246 58.006ZM129.145 52.112L130.685 54.674L129.145 57.222H127.829L129.369 54.674L127.829 52.112H129.145ZM131.525 52.112L133.065 54.674L131.525 57.222H130.209L131.749 54.674L130.209 52.112H131.525Z" fill="white"/>
<path d="M11.96 79.6C12.712 79.6 13.34 79.852 13.844 80.356C14.348 80.86 14.6 81.488 14.6 82.24C14.6 82.992 14.348 83.62 13.844 84.124C13.34 84.628 12.712 84.88 11.96 84.88H9.8V88H8.96V79.6H11.96ZM11.96 84.088C12.48 84.088 12.908 83.916 13.244 83.572C13.588 83.22 13.76 82.776 13.76 82.24C13.76 81.704 13.588 81.264 13.244 80.92C12.908 80.568 12.48 80.392 11.96 80.392H9.8V84.088H11.96ZM18.2097 81.856C19.0977 81.856 19.8137 82.172 20.3577 82.804C20.9097 83.428 21.1857 84.168 21.1857 85.024C21.1857 85.112 21.1777 85.236 21.1617 85.396H15.8937C15.9737 86.004 16.2297 86.488 16.6617 86.848C17.1017 87.2 17.6417 87.376 18.2817 87.376C18.7377 87.376 19.1297 87.284 19.4577 87.1C19.7937 86.908 20.0457 86.66 20.2137 86.356L20.9097 86.764C20.6457 87.188 20.2857 87.524 19.8297 87.772C19.3737 88.02 18.8537 88.144 18.2697 88.144C17.3257 88.144 16.5577 87.848 15.9657 87.256C15.3737 86.664 15.0777 85.912 15.0777 85C15.0777 84.104 15.3697 83.356 15.9537 82.756C16.5377 82.156 17.2897 81.856 18.2097 81.856ZM18.2097 82.624C17.5857 82.624 17.0617 82.812 16.6377 83.188C16.2217 83.556 15.9737 84.036 15.8937 84.628H20.3697C20.2897 83.996 20.0457 83.504 19.6377 83.152C19.2297 82.8 18.7537 82.624 18.2097 82.624ZM29.0902 88H28.1302L25.6822 85.108V88H24.8902V85.108L22.4422 88H21.4822L24.1702 84.88L21.6022 82H22.5622L24.8902 84.664V82H25.6822V84.664L28.0102 82H28.9702L26.4022 84.88L29.0902 88ZM34.5361 82H35.2081V88H34.4161V83.38L30.8401 88H30.1681V82H30.9601V86.62L34.5361 82ZM42.763 82V88H41.971V83.212L39.871 86.62H39.775L37.675 83.212V88H36.883V82H37.795L39.823 85.288L41.851 82H42.763ZM52.4816 82V88H51.6896V82.768H48.2336V88H47.4416V82H52.4816ZM59.1844 87.244C58.5764 87.844 57.8324 88.144 56.9524 88.144C56.0724 88.144 55.3244 87.844 54.7084 87.244C54.1004 86.636 53.7964 85.888 53.7964 85C53.7964 84.112 54.1004 83.368 54.7084 82.768C55.3244 82.16 56.0724 81.856 56.9524 81.856C57.8324 81.856 58.5764 82.16 59.1844 82.768C59.8004 83.368 60.1084 84.112 60.1084 85C60.1084 85.888 59.8004 86.636 59.1844 87.244ZM55.2724 86.692C55.7284 87.148 56.2884 87.376 56.9524 87.376C57.6164 87.376 58.1764 87.148 58.6324 86.692C59.0884 86.228 59.3164 85.664 59.3164 85C59.3164 84.336 59.0884 83.776 58.6324 83.32C58.1764 82.856 57.6164 82.624 56.9524 82.624C56.2884 82.624 55.7284 82.856 55.2724 83.32C54.8164 83.776 54.5884 84.336 54.5884 85C54.5884 85.664 54.8164 86.228 55.2724 86.692ZM64.2954 84.916C64.9914 85.18 65.3394 85.66 65.3394 86.356C65.3394 86.852 65.1434 87.276 64.7514 87.628C64.3674 87.972 63.8154 88.144 63.0954 88.144C61.8874 88.144 61.0954 87.664 60.7194 86.704L61.3914 86.308C61.6394 87.02 62.2074 87.376 63.0954 87.376C63.5594 87.376 63.9154 87.276 64.1634 87.076C64.4194 86.876 64.5474 86.62 64.5474 86.308C64.5474 86.028 64.4434 85.8 64.2354 85.624C64.0274 85.448 63.7474 85.36 63.3954 85.36H62.5194V84.592H63.1554C63.4994 84.592 63.7674 84.508 63.9594 84.34C64.1594 84.164 64.2594 83.924 64.2594 83.62C64.2594 83.332 64.1434 83.096 63.9114 82.912C63.6794 82.72 63.3674 82.624 62.9754 82.624C62.2234 82.624 61.7234 82.924 61.4754 83.524L60.8154 83.14C61.2154 82.284 61.9354 81.856 62.9754 81.856C63.6074 81.856 64.1114 82.024 64.4874 82.36C64.8634 82.688 65.0514 83.092 65.0514 83.572C65.0514 84.188 64.7994 84.636 64.2954 84.916ZM70.3591 84.916C71.0151 85.156 71.3431 85.624 71.3431 86.32C71.3431 86.808 71.1791 87.212 70.8511 87.532C70.5311 87.844 70.0671 88 69.4591 88H66.5431V82H69.2191C69.8031 82 70.2551 82.152 70.5751 82.456C70.8951 82.752 71.0551 83.136 71.0551 83.608C71.0551 84.208 70.8231 84.644 70.3591 84.916ZM69.2191 82.768H67.3351V84.592H69.2191C69.9151 84.592 70.2631 84.28 70.2631 83.656C70.2631 83.376 70.1711 83.16 69.9871 83.008C69.8111 82.848 69.5551 82.768 69.2191 82.768ZM69.4591 87.232C69.8111 87.232 70.0791 87.148 70.2631 86.98C70.4551 86.812 70.5511 86.576 70.5511 86.272C70.5511 85.992 70.4551 85.772 70.2631 85.612C70.0791 85.444 69.8111 85.36 69.4591 85.36H67.3351V87.232H69.4591ZM77.5711 87.244C76.9631 87.844 76.2191 88.144 75.3391 88.144C74.4591 88.144 73.7111 87.844 73.0951 87.244C72.4871 86.636 72.1831 85.888 72.1831 85C72.1831 84.112 72.4871 83.368 73.0951 82.768C73.7111 82.16 74.4591 81.856 75.3391 81.856C76.2191 81.856 76.9631 82.16 77.5711 82.768C78.1871 83.368 78.4951 84.112 78.4951 85C78.4951 85.888 78.1871 86.636 77.5711 87.244ZM73.6591 86.692C74.1151 87.148 74.6751 87.376 75.3391 87.376C76.0031 87.376 76.5631 87.148 77.0191 86.692C77.4751 86.228 77.7031 85.664 77.7031 85C77.7031 84.336 77.4751 83.776 77.0191 83.32C76.5631 82.856 76.0031 82.624 75.3391 82.624C74.6751 82.624 74.1151 82.856 73.6591 83.32C73.2031 83.776 72.9751 84.336 72.9751 85C72.9751 85.664 73.2031 86.228 73.6591 86.692ZM84.5061 82V88H83.7141V82.768H81.0021V85.444C81.0021 86.444 80.8101 87.132 80.4261 87.508C80.0501 87.884 79.5301 88.048 78.8661 88V87.256C79.3221 87.304 79.6581 87.196 79.8741 86.932C80.0981 86.668 80.2101 86.172 80.2101 85.444V82H84.5061ZM90.5038 82V88H89.7118V85.696H88.6798L86.8318 88H85.8238L87.7198 85.672C87.2398 85.6 86.8438 85.4 86.5318 85.072C86.2198 84.744 86.0638 84.34 86.0638 83.86C86.0638 83.316 86.2558 82.872 86.6398 82.528C87.0318 82.176 87.5078 82 88.0678 82H90.5038ZM88.0678 84.952H89.7118V82.768H88.0678C87.7318 82.768 87.4438 82.868 87.2038 83.068C86.9718 83.268 86.8558 83.532 86.8558 83.86C86.8558 84.188 86.9718 84.452 87.2038 84.652C87.4438 84.852 87.7318 84.952 88.0678 84.952ZM94.9558 81.856C95.8438 81.856 96.5598 82.172 97.1038 82.804C97.6558 83.428 97.9318 84.168 97.9318 85.024C97.9318 85.112 97.9238 85.236 97.9078 85.396H92.6398C92.7198 86.004 92.9758 86.488 93.4078 86.848C93.8478 87.2 94.3878 87.376 95.0278 87.376C95.4838 87.376 95.8758 87.284 96.2038 87.1C96.5398 86.908 96.7918 86.66 96.9598 86.356L97.6558 86.764C97.3918 87.188 97.0318 87.524 96.5758 87.772C96.1198 88.02 95.5998 88.144 95.0158 88.144C94.0718 88.144 93.3038 87.848 92.7118 87.256C92.1198 86.664 91.8238 85.912 91.8238 85C91.8238 84.104 92.1158 83.356 92.6998 82.756C93.2838 82.156 94.0358 81.856 94.9558 81.856ZM94.9558 82.624C94.3318 82.624 93.8078 82.812 93.3838 83.188C92.9678 83.556 92.7198 84.036 92.6398 84.628H97.1158C97.0358 83.996 96.7918 83.504 96.3838 83.152C95.9758 82.8 95.4998 82.624 94.9558 82.624ZM103.277 82V82.768H101.153V88H100.361V82.768H98.2372V82H103.277ZM13.16 96H14L11.432 102.552C11.2 103.144 10.868 103.608 10.436 103.944C10.012 104.288 9.536 104.44 9.008 104.4V103.656C9.728 103.736 10.276 103.32 10.652 102.408L10.808 102.036L8.12 96H8.96L11.216 101.028L13.16 96ZM19.9972 96V102H19.2052V96.768H15.7492V102H14.9572V96H19.9972ZM24.888 95.856C25.744 95.856 26.472 96.16 27.072 96.768C27.68 97.376 27.984 98.12 27.984 99C27.984 99.88 27.68 100.624 27.072 101.232C26.472 101.84 25.744 102.144 24.888 102.144C23.824 102.144 23.016 101.704 22.464 100.824V104.4H21.672V96H22.464V97.176C23.016 96.296 23.824 95.856 24.888 95.856ZM23.148 100.692C23.604 101.148 24.164 101.376 24.828 101.376C25.492 101.376 26.052 101.148 26.508 100.692C26.964 100.228 27.192 99.664 27.192 99C27.192 98.336 26.964 97.776 26.508 97.32C26.052 96.856 25.492 96.624 24.828 96.624C24.164 96.624 23.604 96.856 23.148 97.32C22.692 97.776 22.464 98.336 22.464 99C22.464 99.664 22.692 100.228 23.148 100.692ZM34.4609 96H35.2529V102H34.4609V100.824C33.9089 101.704 33.1009 102.144 32.0369 102.144C31.1809 102.144 30.4489 101.84 29.8409 101.232C29.2409 100.624 28.9409 99.88 28.9409 99C28.9409 98.12 29.2409 97.376 29.8409 96.768C30.4489 96.16 31.1809 95.856 32.0369 95.856C33.1009 95.856 33.9089 96.296 34.4609 97.176V96ZM30.4169 100.692C30.8729 101.148 31.4329 101.376 32.0969 101.376C32.7609 101.376 33.3209 101.148 33.7769 100.692C34.2329 100.228 34.4609 99.664 34.4609 99C34.4609 98.336 34.2329 97.776 33.7769 97.32C33.3209 96.856 32.7609 96.624 32.0969 96.624C31.4329 96.624 30.8729 96.856 30.4169 97.32C29.9609 97.776 29.7329 98.336 29.7329 99C29.7329 99.664 29.9609 100.228 30.4169 100.692ZM40.7458 98.916C41.4018 99.156 41.7298 99.624 41.7298 100.32C41.7298 100.808 41.5658 101.212 41.2378 101.532C40.9178 101.844 40.4538 102 39.8458 102H36.9298V96H39.6058C40.1898 96 40.6418 96.152 40.9618 96.456C41.2818 96.752 41.4418 97.136 41.4418 97.608C41.4418 98.208 41.2098 98.644 40.7458 98.916ZM39.6058 96.768H37.7218V98.592H39.6058C40.3018 98.592 40.6498 98.28 40.6498 97.656C40.6498 97.376 40.5578 97.16 40.3738 97.008C40.1978 96.848 39.9418 96.768 39.6058 96.768ZM39.8458 101.232C40.1978 101.232 40.4658 101.148 40.6498 100.98C40.8418 100.812 40.9378 100.576 40.9378 100.272C40.9378 99.992 40.8418 99.772 40.6498 99.612C40.4658 99.444 40.1978 99.36 39.8458 99.36H37.7218V101.232H39.8458ZM47.6155 96V102H46.8235V96.768H44.1115V99.444C44.1115 100.444 43.9195 101.132 43.5355 101.508C43.1595 101.884 42.6395 102.048 41.9755 102V101.256C42.4315 101.304 42.7675 101.196 42.9835 100.932C43.2075 100.668 43.3195 100.172 43.3195 99.444V96H47.6155ZM53.6131 96V102H52.8211V99.696H51.7891L49.9411 102H48.9331L50.8291 99.672C50.3491 99.6 49.9531 99.4 49.6411 99.072C49.3291 98.744 49.1731 98.34 49.1731 97.86C49.1731 97.316 49.3651 96.872 49.7491 96.528C50.1411 96.176 50.6171 96 51.1771 96H53.6131ZM51.1771 98.952H52.8211V96.768H51.1771C50.8411 96.768 50.5531 96.868 50.3131 97.068C50.0811 97.268 49.9651 97.532 49.9651 97.86C49.9651 98.188 50.0811 98.452 50.3131 98.652C50.5531 98.852 50.8411 98.952 51.1771 98.952ZM59.6131 96V96.768H57.4891V102H56.6971V96.768H54.5731V96H59.6131ZM63.0143 98.28C63.5743 98.28 64.0463 98.456 64.4303 98.808C64.8223 99.152 65.0183 99.596 65.0183 100.14C65.0183 100.684 64.8223 101.132 64.4303 101.484C64.0463 101.828 63.5743 102 63.0143 102H60.5783V96H61.3703V98.28H63.0143ZM63.0143 101.232C63.3503 101.232 63.6343 101.132 63.8663 100.932C64.1063 100.732 64.2263 100.468 64.2263 100.14C64.2263 99.812 64.1063 99.548 63.8663 99.348C63.6343 99.148 63.3503 99.048 63.0143 99.048H61.3703V101.232H63.0143ZM75.071 96.864C75.647 97.448 75.935 98.16 75.935 99C75.935 99.84 75.647 100.552 75.071 101.136C74.495 101.72 73.735 102.052 72.791 102.132V104.4H71.999V102.132C71.055 102.052 70.295 101.72 69.719 101.136C69.143 100.552 68.855 99.84 68.855 99C68.855 98.16 69.143 97.448 69.719 96.864C70.295 96.28 71.055 95.948 71.999 95.868V93.6H72.791V95.868C73.735 95.948 74.495 96.28 75.071 96.864ZM70.283 97.416C69.859 97.848 69.647 98.376 69.647 99C69.647 99.624 69.859 100.156 70.283 100.596C70.707 101.028 71.279 101.28 71.999 101.352V96.648C71.279 96.72 70.707 96.976 70.283 97.416ZM72.791 101.352C73.511 101.28 74.083 101.028 74.507 100.596C74.931 100.156 75.143 99.624 75.143 99C75.143 98.376 74.931 97.848 74.507 97.416C74.083 96.976 73.511 96.72 72.791 96.648V101.352ZM81.3397 96H82.1797L79.6117 102.552C79.3797 103.144 79.0477 103.608 78.6157 103.944C78.1917 104.288 77.7157 104.44 77.1877 104.4V103.656C77.9077 103.736 78.4557 103.32 78.8317 102.408L78.9877 102.036L76.2997 96H77.1397L79.3957 101.028L81.3397 96ZM87.4569 96V96.768H85.3329V102H84.5409V96.768H82.4169V96H87.4569ZM90.8517 102.144C89.9877 102.144 89.2677 101.86 88.6917 101.292C88.1157 100.716 87.8277 99.972 87.8277 99.06C87.8277 98.036 87.9797 97.252 88.2837 96.708C88.5877 96.156 89.2037 95.656 90.1317 95.208C90.3077 95.12 90.5397 95.016 90.8277 94.896C91.1237 94.776 91.3437 94.68 91.4877 94.608C91.6397 94.536 91.8037 94.444 91.9797 94.332C92.1557 94.212 92.2877 94.08 92.3757 93.936C92.4637 93.792 92.5197 93.62 92.5437 93.42L93.1677 93.78C93.1357 93.972 93.0717 94.152 92.9757 94.32C92.8797 94.488 92.7797 94.624 92.6757 94.728C92.5797 94.832 92.4237 94.948 92.2077 95.076C91.9997 95.196 91.8357 95.284 91.7157 95.34C91.6037 95.388 91.4037 95.472 91.1157 95.592C90.8357 95.712 90.6477 95.792 90.5517 95.832C89.9917 96.072 89.5797 96.324 89.3157 96.588C89.0517 96.844 88.8637 97.18 88.7517 97.596C89.0237 97.236 89.3677 96.972 89.7837 96.804C90.2077 96.628 90.6197 96.54 91.0197 96.54C91.8197 96.54 92.4797 96.804 92.9997 97.332C93.5277 97.852 93.7917 98.52 93.7917 99.336C93.7917 100.144 93.5117 100.816 92.9517 101.352C92.3997 101.88 91.6997 102.144 90.8517 102.144ZM90.8517 101.352C91.4757 101.352 91.9877 101.164 92.3877 100.788C92.7957 100.404 92.9997 99.92 92.9997 99.336C92.9997 98.744 92.8077 98.26 92.4237 97.884C92.0477 97.5 91.5437 97.308 90.9117 97.308C90.3437 97.308 89.8277 97.488 89.3637 97.848C88.8997 98.2 88.6677 98.672 88.6677 99.264C88.6677 99.872 88.8757 100.372 89.2917 100.764C89.7157 101.156 90.2357 101.352 90.8517 101.352ZM100.024 101.244C99.4163 101.844 98.6723 102.144 97.7923 102.144C96.9123 102.144 96.1643 101.844 95.5483 101.244C94.9403 100.636 94.6363 99.888 94.6363 99C94.6363 98.112 94.9403 97.368 95.5483 96.768C96.1643 96.16 96.9123 95.856 97.7923 95.856C98.6723 95.856 99.4163 96.16 100.024 96.768C100.64 97.368 100.948 98.112 100.948 99C100.948 99.888 100.64 100.636 100.024 101.244ZM96.1123 100.692C96.5683 101.148 97.1283 101.376 97.7923 101.376C98.4563 101.376 99.0163 101.148 99.4723 100.692C99.9283 100.228 100.156 99.664 100.156 99C100.156 98.336 99.9283 97.776 99.4723 97.32C99.0163 96.856 98.4563 96.624 97.7923 96.624C97.1283 96.624 96.5683 96.856 96.1123 97.32C95.6563 97.776 95.4283 98.336 95.4283 99C95.4283 99.664 95.6563 100.228 96.1123 100.692ZM106.959 96V102H106.167V96.768H103.455V99.444C103.455 100.444 103.263 101.132 102.879 101.508C102.503 101.884 101.983 102.048 101.319 102V101.256C101.775 101.304 102.111 101.196 102.327 100.932C102.551 100.668 102.663 100.172 102.663 99.444V96H106.959ZM111.073 98.28C111.633 98.28 112.105 98.456 112.489 98.808C112.881 99.152 113.077 99.596 113.077 100.14C113.077 100.684 112.881 101.132 112.489 101.484C112.105 101.828 111.633 102 111.073 102H108.637V96H109.429V98.28H111.073ZM111.073 101.232C111.409 101.232 111.693 101.132 111.925 100.932C112.165 100.732 112.285 100.468 112.285 100.14C112.285 99.812 112.165 99.548 111.925 99.348C111.693 99.148 111.409 99.048 111.073 99.048H109.429V101.232H111.073ZM118.522 96H119.314V102H118.522V99.384H115.066V102H114.274V96H115.066V98.616H118.522V96ZM123.424 98.28C123.984 98.28 124.456 98.456 124.84 98.808C125.232 99.152 125.428 99.596 125.428 100.14C125.428 100.684 125.232 101.132 124.84 101.484C124.456 101.828 123.984 102 123.424 102H120.988V96H121.78V98.28H123.424ZM126.268 96H127.06V102H126.268V96ZM123.424 101.232C123.76 101.232 124.044 101.132 124.276 100.932C124.516 100.732 124.636 100.468 124.636 100.14C124.636 99.812 124.516 99.548 124.276 99.348C124.044 99.148 123.76 99.048 123.424 99.048H121.78V101.232H123.424ZM134.626 96V102H133.834V97.212L131.734 100.62H131.638L129.538 97.212V102H128.746V96H129.658L131.686 99.288L133.714 96H134.626ZM13.688 116H12.632L9.632 113.108V116H8.84V110H9.632V112.652L12.488 110H13.568L10.472 112.88L13.688 116ZM19.6897 110V116H18.8977V110.768H16.1857V113.444C16.1857 114.444 15.9937 115.132 15.6097 115.508C15.2337 115.884 14.7137 116.048 14.0497 116V115.256C14.5057 115.304 14.8417 115.196 15.0577 114.932C15.2817 114.668 15.3937 114.172 15.3937 113.444V110H19.6897ZM25.6873 110H26.5273L23.9593 116.552C23.7273 117.144 23.3953 117.608 22.9633 117.944C22.5393 118.288 22.0633 118.44 21.5353 118.4V117.656C22.2553 117.736 22.8033 117.32 23.1793 116.408L23.3353 116.036L20.6473 110H21.4873L23.7433 115.028L25.6873 110ZM29.9142 116.144C29.0502 116.144 28.3302 115.86 27.7542 115.292C27.1782 114.716 26.8902 113.972 26.8902 113.06C26.8902 112.036 27.0422 111.252 27.3462 110.708C27.6502 110.156 28.2662 109.656 29.1942 109.208C29.3702 109.12 29.6022 109.016 29.8902 108.896C30.1862 108.776 30.4062 108.68 30.5502 108.608C30.7022 108.536 30.8662 108.444 31.0422 108.332C31.2182 108.212 31.3502 108.08 31.4382 107.936C31.5262 107.792 31.5822 107.62 31.6062 107.42L32.2302 107.78C32.1982 107.972 32.1342 108.152 32.0382 108.32C31.9422 108.488 31.8422 108.624 31.7382 108.728C31.6422 108.832 31.4862 108.948 31.2702 109.076C31.0622 109.196 30.8982 109.284 30.7782 109.34C30.6662 109.388 30.4662 109.472 30.1782 109.592C29.8982 109.712 29.7102 109.792 29.6142 109.832C29.0542 110.072 28.6422 110.324 28.3782 110.588C28.1142 110.844 27.9262 111.18 27.8142 111.596C28.0862 111.236 28.4302 110.972 28.8462 110.804C29.2702 110.628 29.6822 110.54 30.0822 110.54C30.8822 110.54 31.5422 110.804 32.0622 111.332C32.5902 111.852 32.8542 112.52 32.8542 113.336C32.8542 114.144 32.5742 114.816 32.0142 115.352C31.4622 115.88 30.7622 116.144 29.9142 116.144ZM29.9142 115.352C30.5382 115.352 31.0502 115.164 31.4502 114.788C31.8582 114.404 32.0622 113.92 32.0622 113.336C32.0622 112.744 31.8702 112.26 31.4862 111.884C31.1102 111.5 30.6062 111.308 29.9742 111.308C29.4062 111.308 28.8902 111.488 28.4262 111.848C27.9622 112.2 27.7302 112.672 27.7302 113.264C27.7302 113.872 27.9382 114.372 28.3542 114.764C28.7782 115.156 29.2982 115.352 29.9142 115.352ZM39.0868 115.244C38.4788 115.844 37.7348 116.144 36.8548 116.144C35.9748 116.144 35.2268 115.844 34.6108 115.244C34.0028 114.636 33.6988 113.888 33.6988 113C33.6988 112.112 34.0028 111.368 34.6108 110.768C35.2268 110.16 35.9748 109.856 36.8548 109.856C37.7348 109.856 38.4788 110.16 39.0868 110.768C39.7028 111.368 40.0108 112.112 40.0108 113C40.0108 113.888 39.7028 114.636 39.0868 115.244ZM35.1748 114.692C35.6308 115.148 36.1908 115.376 36.8548 115.376C37.5188 115.376 38.0788 115.148 38.5348 114.692C38.9908 114.228 39.2188 113.664 39.2188 113C39.2188 112.336 38.9908 111.776 38.5348 111.32C38.0788 110.856 37.5188 110.624 36.8548 110.624C36.1908 110.624 35.6308 110.856 35.1748 111.32C34.7188 111.776 34.4908 112.336 34.4908 113C34.4908 113.664 34.7188 114.228 35.1748 114.692ZM47.2161 110V116H46.4241V111.212L44.3241 114.62H44.2281L42.1281 111.212V116H41.3361V110H42.2481L44.2761 113.288L46.3041 110H47.2161ZM49.9027 115.928C49.7747 116.056 49.6187 116.12 49.4347 116.12C49.2507 116.12 49.0947 116.056 48.9667 115.928C48.8387 115.8 48.7747 115.644 48.7747 115.46C48.7747 115.276 48.8387 115.12 48.9667 114.992C49.0947 114.864 49.2507 114.8 49.4347 114.8C49.6187 114.8 49.7747 114.864 49.9027 114.992C50.0307 115.12 50.0947 115.276 50.0947 115.46C50.0947 115.644 50.0307 115.8 49.9027 115.928Z" fill="white"/>
<defs>
<filter id="filter0_b_1005_22222" x="-10" y="-10" width="181" height="159" filterUnits="userSpaceOnUse" color-interpolation-filters="sRGB">
<feFlood flood-opacity="0" result="BackgroundImageFix"/>
<feGaussianBlur in="BackgroundImageFix" stdDeviation="5"/>
<feComposite in2="SourceAlpha" operator="in" result="effect1_backgroundBlur_1005_22222"/>
<feBlend mode="normal" in="SourceGraphic" in2="effect1_backgroundBlur_1005_22222" result="shape"/>
</filter>
</defs>
</svg>
