<svg width="161" height="139" viewBox="0 0 161 139" fill="none" xmlns="http://www.w3.org/2000/svg">
<rect width="161" height="139" rx="15" fill="#0C0C0C" fill-opacity="0.3"/>
<rect x="0.5" y="0.5" width="160" height="138" rx="14.5" stroke="white" stroke-opacity="0.3"/>
<path d="M17.674 38.384C18.5233 39.056 18.948 39.9613 18.948 41.1C18.948 42.2387 18.5233 43.144 17.674 43.816C16.834 44.488 15.7093 44.8707 14.3 44.964V46.07H13.026V44.964C11.626 44.8707 10.5013 44.488 9.652 43.816C8.812 43.144 8.392 42.2387 8.392 41.1C8.392 39.9613 8.812 39.056 9.652 38.384C10.5013 37.712 11.626 37.3293 13.026 37.236V36.13H14.3V37.236C15.7093 37.3293 16.834 37.712 17.674 38.384ZM14.3 43.774C15.3547 43.6993 16.176 43.4427 16.764 43.004C17.352 42.556 17.646 41.9213 17.646 41.1C17.646 40.2787 17.352 39.6487 16.764 39.21C16.176 38.762 15.3547 38.5007 14.3 38.426V43.774ZM9.68 41.1C9.68 41.912 9.974 42.542 10.562 42.99C11.15 43.4287 11.9713 43.6853 13.026 43.76V38.426C11.9713 38.5007 11.15 38.762 10.562 39.21C9.974 39.6487 9.68 40.2787 9.68 41.1ZM24.9799 39H26.2819L23.4259 46.434C23.1273 47.2273 22.7073 47.8293 22.1659 48.24C21.6246 48.66 21.0086 48.8467 20.3179 48.8V47.666C21.1766 47.7313 21.8066 47.2647 22.2079 46.266L22.3199 46.014L19.2819 39H20.5699L22.9639 44.488L24.9799 39ZM32.143 39H33.361V46H32.143V43.074H28.517V46H27.299V39H28.517V41.912H32.143V39ZM41.137 46H39.625L36.433 42.682V46H35.215V39H36.433V42.094L39.457 39H41.025L37.679 42.388L41.137 46ZM48.1497 44.838H49.2977V47.876H48.0937V46H42.2697V39H43.4877V44.838H46.9317V39H48.1497V44.838ZM55.6779 39H56.6579V46H55.4539V41.086L51.5759 46H50.5959V39H51.7999V43.914L55.6779 39ZM63.7479 39V46H62.5439V43.48H61.5219L59.5619 46H58.0779L60.1219 43.41C59.5992 43.2793 59.1746 43.018 58.8479 42.626C58.5212 42.234 58.3579 41.7767 58.3579 41.254C58.3579 40.61 58.5866 40.0733 59.0439 39.644C59.5012 39.2147 60.0752 39 60.7659 39H63.7479ZM60.8079 42.388H62.5439V40.134H60.8079C60.4626 40.134 60.1686 40.2367 59.9259 40.442C59.6832 40.6473 59.5619 40.9227 59.5619 41.268C59.5619 41.604 59.6832 41.8747 59.9259 42.08C60.1686 42.2853 60.4626 42.388 60.8079 42.388ZM71.9779 39.112L70.4379 41.674L71.9779 44.222H70.6619L69.1219 41.674L70.6619 39.112H71.9779ZM74.3579 39.112L72.8179 41.674L74.3579 44.222H73.0419L71.5019 41.674L73.0419 39.112H74.3579ZM82.6286 36.2V37.432H79.7306V46H78.4426V37.432H75.5586V36.2H82.6286ZM89.7272 46L87.5292 42.248H85.2192V46H83.9172V36.2H87.8372C88.6772 36.2 89.3959 36.4987 89.9932 37.096C90.5905 37.684 90.8892 38.398 90.8892 39.238C90.8892 39.8727 90.6979 40.4513 90.3152 40.974C89.9419 41.4967 89.4565 41.8653 88.8592 42.08L91.1692 46H89.7272ZM85.2192 37.418V41.072H87.8372C88.3225 41.072 88.7332 40.8947 89.0692 40.54C89.4145 40.176 89.5872 39.742 89.5872 39.238C89.5872 38.734 89.4145 38.3047 89.0692 37.95C88.7332 37.5953 88.3225 37.418 87.8372 37.418H85.2192ZM99.4963 36.2L96.0243 42.038V46H94.7223V42.024L91.2643 36.2H92.7203L95.3803 40.792L98.0403 36.2H99.4963ZM108.089 44.698C107.109 45.6873 105.909 46.182 104.491 46.182C103.072 46.182 101.873 45.6873 100.893 44.698C99.9126 43.7087 99.4226 42.5093 99.4226 41.1C99.4226 39.6813 99.9126 38.482 100.893 37.502C101.873 36.5127 103.072 36.018 104.491 36.018C105.909 36.018 107.109 36.5127 108.089 37.502C109.078 38.482 109.573 39.6813 109.573 41.1C109.573 42.5093 109.078 43.7087 108.089 44.698ZM101.789 43.816C102.517 44.544 103.417 44.908 104.491 44.908C105.564 44.908 106.46 44.544 107.179 43.816C107.907 43.0787 108.271 42.1733 108.271 41.1C108.271 40.0173 107.907 39.112 107.179 38.384C106.46 37.6467 105.564 37.278 104.491 37.278C103.417 37.278 102.517 37.6467 101.789 38.384C101.07 39.112 100.711 40.0173 100.711 41.1C100.711 42.1733 101.07 43.0787 101.789 43.816ZM117.272 45.244C116.59 45.8693 115.708 46.182 114.626 46.182C113.543 46.182 112.656 45.8693 111.966 45.244C111.284 44.6093 110.944 43.7647 110.944 42.71V36.2H112.246V42.654C112.246 43.3447 112.451 43.8953 112.862 44.306C113.272 44.7073 113.86 44.908 114.626 44.908C115.391 44.908 115.979 44.7073 116.39 44.306C116.8 43.8953 117.006 43.3447 117.006 42.654V36.2H118.294V42.71C118.294 43.7647 117.953 44.6093 117.272 45.244ZM126.556 36.2V37.432H123.658V46H122.37V37.432H119.486V36.2H126.556ZM128.502 39.112L130.042 41.674L128.502 44.222H127.186L128.726 41.674L127.186 39.112H128.502ZM130.882 39.112L132.422 41.674L130.882 44.222H129.566L131.106 41.674L129.566 39.112H130.882Z" fill="white"/>
<path d="M14.96 66.6V75H14.12V67.392H9.8V75H8.96V66.6H14.96ZM21.7899 74.244C21.1819 74.844 20.4379 75.144 19.5579 75.144C18.6779 75.144 17.9299 74.844 17.3139 74.244C16.7059 73.636 16.4019 72.888 16.4019 72C16.4019 71.112 16.7059 70.368 17.3139 69.768C17.9299 69.16 18.6779 68.856 19.5579 68.856C20.4379 68.856 21.1819 69.16 21.7899 69.768C22.4059 70.368 22.7139 71.112 22.7139 72C22.7139 72.888 22.4059 73.636 21.7899 74.244ZM17.8779 73.692C18.3339 74.148 18.8939 74.376 19.5579 74.376C20.2219 74.376 20.7819 74.148 21.2379 73.692C21.6939 73.228 21.9219 72.664 21.9219 72C21.9219 71.336 21.6939 70.776 21.2379 70.32C20.7819 69.856 20.2219 69.624 19.5579 69.624C18.8939 69.624 18.3339 69.856 17.8779 70.32C17.4219 70.776 17.1939 71.336 17.1939 72C17.1939 72.664 17.4219 73.228 17.8779 73.692ZM26.9008 71.916C27.5968 72.18 27.9448 72.66 27.9448 73.356C27.9448 73.852 27.7488 74.276 27.3568 74.628C26.9728 74.972 26.4208 75.144 25.7008 75.144C24.4928 75.144 23.7008 74.664 23.3248 73.704L23.9968 73.308C24.2448 74.02 24.8128 74.376 25.7008 74.376C26.1648 74.376 26.5208 74.276 26.7688 74.076C27.0248 73.876 27.1528 73.62 27.1528 73.308C27.1528 73.028 27.0488 72.8 26.8408 72.624C26.6328 72.448 26.3528 72.36 26.0008 72.36H25.1248V71.592H25.7608C26.1048 71.592 26.3728 71.508 26.5648 71.34C26.7648 71.164 26.8648 70.924 26.8648 70.62C26.8648 70.332 26.7488 70.096 26.5168 69.912C26.2848 69.72 25.9728 69.624 25.5808 69.624C24.8288 69.624 24.3288 69.924 24.0808 70.524L23.4208 70.14C23.8208 69.284 24.5408 68.856 25.5808 68.856C26.2128 68.856 26.7168 69.024 27.0928 69.36C27.4688 69.688 27.6568 70.092 27.6568 70.572C27.6568 71.188 27.4048 71.636 26.9008 71.916ZM32.9646 71.916C33.6206 72.156 33.9486 72.624 33.9486 73.32C33.9486 73.808 33.7846 74.212 33.4566 74.532C33.1366 74.844 32.6726 75 32.0646 75H29.1486V69H31.8246C32.4086 69 32.8606 69.152 33.1806 69.456C33.5006 69.752 33.6606 70.136 33.6606 70.608C33.6606 71.208 33.4286 71.644 32.9646 71.916ZM31.8246 69.768H29.9406V71.592H31.8246C32.5206 71.592 32.8686 71.28 32.8686 70.656C32.8686 70.376 32.7766 70.16 32.5926 70.008C32.4166 69.848 32.1606 69.768 31.8246 69.768ZM32.0646 74.232C32.4166 74.232 32.6846 74.148 32.8686 73.98C33.0606 73.812 33.1566 73.576 33.1566 73.272C33.1566 72.992 33.0606 72.772 32.8686 72.612C32.6846 72.444 32.4166 72.36 32.0646 72.36H29.9406V74.232H32.0646ZM40.1766 74.244C39.5686 74.844 38.8246 75.144 37.9446 75.144C37.0646 75.144 36.3166 74.844 35.7006 74.244C35.0926 73.636 34.7886 72.888 34.7886 72C34.7886 71.112 35.0926 70.368 35.7006 69.768C36.3166 69.16 37.0646 68.856 37.9446 68.856C38.8246 68.856 39.5686 69.16 40.1766 69.768C40.7926 70.368 41.1006 71.112 41.1006 72C41.1006 72.888 40.7926 73.636 40.1766 74.244ZM36.2646 73.692C36.7206 74.148 37.2806 74.376 37.9446 74.376C38.6086 74.376 39.1686 74.148 39.6246 73.692C40.0806 73.228 40.3086 72.664 40.3086 72C40.3086 71.336 40.0806 70.776 39.6246 70.32C39.1686 69.856 38.6086 69.624 37.9446 69.624C37.2806 69.624 36.7206 69.856 36.2646 70.32C35.8086 70.776 35.5806 71.336 35.5806 72C35.5806 72.664 35.8086 73.228 36.2646 73.692ZM47.1116 69V75H46.3196V69.768H43.6076V72.444C43.6076 73.444 43.4156 74.132 43.0316 74.508C42.6556 74.884 42.1356 75.048 41.4716 75V74.256C41.9276 74.304 42.2636 74.196 42.4796 73.932C42.7036 73.668 42.8156 73.172 42.8156 72.444V69H47.1116ZM53.1092 69V75H52.3172V72.696H51.2852L49.4372 75H48.4292L50.3252 72.672C49.8452 72.6 49.4492 72.4 49.1372 72.072C48.8252 71.744 48.6692 71.34 48.6692 70.86C48.6692 70.316 48.8612 69.872 49.2452 69.528C49.6372 69.176 50.1132 69 50.6732 69H53.1092ZM50.6732 71.952H52.3172V69.768H50.6732C50.3372 69.768 50.0492 69.868 49.8092 70.068C49.5772 70.268 49.4612 70.532 49.4612 70.86C49.4612 71.188 49.5772 71.452 49.8092 71.652C50.0492 71.852 50.3372 71.952 50.6732 71.952ZM57.5612 68.856C58.4492 68.856 59.1652 69.172 59.7092 69.804C60.2612 70.428 60.5372 71.168 60.5372 72.024C60.5372 72.112 60.5292 72.236 60.5132 72.396H55.2452C55.3252 73.004 55.5812 73.488 56.0132 73.848C56.4532 74.2 56.9932 74.376 57.6332 74.376C58.0892 74.376 58.4812 74.284 58.8092 74.1C59.1452 73.908 59.3972 73.66 59.5652 73.356L60.2612 73.764C59.9972 74.188 59.6372 74.524 59.1812 74.772C58.7252 75.02 58.2052 75.144 57.6212 75.144C56.6772 75.144 55.9092 74.848 55.3172 74.256C54.7252 73.664 54.4292 72.912 54.4292 72C54.4292 71.104 54.7212 70.356 55.3052 69.756C55.8892 69.156 56.6412 68.856 57.5612 68.856ZM57.5612 69.624C56.9372 69.624 56.4132 69.812 55.9892 70.188C55.5732 70.556 55.3252 71.036 55.2452 71.628H59.7212C59.6412 70.996 59.3972 70.504 58.9892 70.152C58.5812 69.8 58.1052 69.624 57.5612 69.624ZM65.8827 69V69.768H63.7587V75H62.9667V69.768H60.8427V69H65.8827ZM74.8758 74.244C74.2678 74.844 73.5238 75.144 72.6438 75.144C71.7638 75.144 71.0158 74.844 70.3998 74.244C69.7918 73.636 69.4878 72.888 69.4878 72C69.4878 71.112 69.7918 70.368 70.3998 69.768C71.0158 69.16 71.7638 68.856 72.6438 68.856C73.5238 68.856 74.2678 69.16 74.8758 69.768C75.4918 70.368 75.7998 71.112 75.7998 72C75.7998 72.888 75.4918 73.636 74.8758 74.244ZM70.9638 73.692C71.4198 74.148 71.9798 74.376 72.6438 74.376C73.3078 74.376 73.8678 74.148 74.3238 73.692C74.7798 73.228 75.0078 72.664 75.0078 72C75.0078 71.336 74.7798 70.776 74.3238 70.32C73.8678 69.856 73.3078 69.624 72.6438 69.624C71.9798 69.624 71.4198 69.856 70.9638 70.32C70.5078 70.776 70.2798 71.336 70.2798 72C70.2798 72.664 70.5078 73.228 70.9638 73.692ZM80.3412 68.856C81.1972 68.856 81.9252 69.16 82.5252 69.768C83.1332 70.376 83.4372 71.12 83.4372 72C83.4372 72.88 83.1332 73.624 82.5252 74.232C81.9252 74.84 81.1972 75.144 80.3412 75.144C79.2772 75.144 78.4692 74.704 77.9172 73.824V77.4H77.1252V69H77.9172V70.176C78.4692 69.296 79.2772 68.856 80.3412 68.856ZM78.6012 73.692C79.0572 74.148 79.6172 74.376 80.2812 74.376C80.9452 74.376 81.5052 74.148 81.9612 73.692C82.4172 73.228 82.6452 72.664 82.6452 72C82.6452 71.336 82.4172 70.776 81.9612 70.32C81.5052 69.856 80.9452 69.624 80.2812 69.624C79.6172 69.624 79.0572 69.856 78.6012 70.32C78.1452 70.776 77.9172 71.336 77.9172 72C77.9172 72.664 78.1452 73.228 78.6012 73.692ZM88.5941 69V69.768H85.5461V75H84.7541V69H88.5941ZM94.4844 69H95.2764V75H94.4844V73.824C93.9324 74.704 93.1244 75.144 92.0604 75.144C91.2044 75.144 90.4724 74.84 89.8644 74.232C89.2644 73.624 88.9644 72.88 88.9644 72C88.9644 71.12 89.2644 70.376 89.8644 69.768C90.4724 69.16 91.2044 68.856 92.0604 68.856C93.1244 68.856 93.9324 69.296 94.4844 70.176V69ZM90.4404 73.692C90.8964 74.148 91.4564 74.376 92.1204 74.376C92.7844 74.376 93.3444 74.148 93.8004 73.692C94.2564 73.228 94.4844 72.664 94.4844 72C94.4844 71.336 94.2564 70.776 93.8004 70.32C93.3444 69.856 92.7844 69.624 92.1204 69.624C91.4564 69.624 90.8964 69.856 90.4404 70.32C89.9844 70.776 89.7564 71.336 89.7564 72C89.7564 72.664 89.9844 73.228 90.4404 73.692ZM101.201 69H101.993V75H101.201V72.384H97.7453V75H96.9533V69H97.7453V71.616H101.201V69ZM108.036 69H108.708V75H107.916V70.38L104.34 75H103.668V69H104.46V73.62L108.036 69ZM113.479 71.916C114.175 72.18 114.523 72.66 114.523 73.356C114.523 73.852 114.327 74.276 113.935 74.628C113.551 74.972 112.999 75.144 112.279 75.144C111.071 75.144 110.279 74.664 109.903 73.704L110.575 73.308C110.823 74.02 111.391 74.376 112.279 74.376C112.743 74.376 113.099 74.276 113.347 74.076C113.603 73.876 113.731 73.62 113.731 73.308C113.731 73.028 113.627 72.8 113.419 72.624C113.211 72.448 112.931 72.36 112.579 72.36H111.703V71.592H112.339C112.683 71.592 112.951 71.508 113.143 71.34C113.343 71.164 113.443 70.924 113.443 70.62C113.443 70.332 113.327 70.096 113.095 69.912C112.863 69.72 112.551 69.624 112.159 69.624C111.407 69.624 110.907 69.924 110.659 70.524L109.999 70.14C110.399 69.284 111.119 68.856 112.159 68.856C112.791 68.856 113.295 69.024 113.671 69.36C114.047 69.688 114.235 70.092 114.235 70.572C114.235 71.188 113.983 71.636 113.479 71.916ZM120.755 74.244C120.147 74.844 119.403 75.144 118.523 75.144C117.643 75.144 116.895 74.844 116.279 74.244C115.671 73.636 115.367 72.888 115.367 72C115.367 71.112 115.671 70.368 116.279 69.768C116.895 69.16 117.643 68.856 118.523 68.856C119.403 68.856 120.147 69.16 120.755 69.768C121.371 70.368 121.679 71.112 121.679 72C121.679 72.888 121.371 73.636 120.755 74.244ZM116.843 73.692C117.299 74.148 117.859 74.376 118.523 74.376C119.187 74.376 119.747 74.148 120.203 73.692C120.659 73.228 120.887 72.664 120.887 72C120.887 71.336 120.659 70.776 120.203 70.32C119.747 69.856 119.187 69.624 118.523 69.624C117.859 69.624 117.299 69.856 116.843 70.32C116.387 70.776 116.159 71.336 116.159 72C116.159 72.664 116.387 73.228 116.843 73.692ZM126.82 71.916C127.476 72.156 127.804 72.624 127.804 73.32C127.804 73.808 127.64 74.212 127.312 74.532C126.992 74.844 126.528 75 125.92 75H123.004V69H125.68C126.264 69 126.716 69.152 127.036 69.456C127.356 69.752 127.516 70.136 127.516 70.608C127.516 71.208 127.284 71.644 126.82 71.916ZM125.68 69.768H123.796V71.592H125.68C126.376 71.592 126.724 71.28 126.724 70.656C126.724 70.376 126.632 70.16 126.448 70.008C126.272 69.848 126.016 69.768 125.68 69.768ZM125.92 74.232C126.272 74.232 126.54 74.148 126.724 73.98C126.916 73.812 127.012 73.576 127.012 73.272C127.012 72.992 126.916 72.772 126.724 72.612C126.54 72.444 126.272 72.36 125.92 72.36H123.796V74.232H125.92ZM134.164 69H134.956V75H134.164V73.824C133.612 74.704 132.804 75.144 131.74 75.144C130.884 75.144 130.152 74.84 129.544 74.232C128.944 73.624 128.644 72.88 128.644 72C128.644 71.12 128.944 70.376 129.544 69.768C130.152 69.16 130.884 68.856 131.74 68.856C132.804 68.856 133.612 69.296 134.164 70.176V69ZM130.12 73.692C130.576 74.148 131.136 74.376 131.8 74.376C132.464 74.376 133.024 74.148 133.48 73.692C133.936 73.228 134.164 72.664 134.164 72C134.164 71.336 133.936 70.776 133.48 70.32C133.024 69.856 132.464 69.624 131.8 69.624C131.136 69.624 130.576 69.856 130.12 70.32C129.664 70.776 129.436 71.336 129.436 72C129.436 72.664 129.664 73.228 130.12 73.692ZM140.953 69V69.768H138.829V75H138.037V69.768H135.913V69H140.953ZM144.354 71.28C144.914 71.28 145.386 71.456 145.77 71.808C146.162 72.152 146.358 72.596 146.358 73.14C146.358 73.684 146.162 74.132 145.77 74.484C145.386 74.828 144.914 75 144.354 75H141.918V69H142.71V71.28H144.354ZM144.354 74.232C144.69 74.232 144.974 74.132 145.206 73.932C145.446 73.732 145.566 73.468 145.566 73.14C145.566 72.812 145.446 72.548 145.206 72.348C144.974 72.148 144.69 72.048 144.354 72.048H142.71V74.232H144.354ZM13.88 83V89H13.088V83.768H9.632V89H8.84V83H13.88ZM18.7708 82.856C19.6268 82.856 20.3548 83.16 20.9548 83.768C21.5628 84.376 21.8668 85.12 21.8668 86C21.8668 86.88 21.5628 87.624 20.9548 88.232C20.3548 88.84 19.6268 89.144 18.7708 89.144C17.7068 89.144 16.8988 88.704 16.3468 87.824V91.4H15.5548V83H16.3468V84.176C16.8988 83.296 17.7068 82.856 18.7708 82.856ZM17.0308 87.692C17.4868 88.148 18.0468 88.376 18.7108 88.376C19.3748 88.376 19.9348 88.148 20.3908 87.692C20.8468 87.228 21.0748 86.664 21.0748 86C21.0748 85.336 20.8468 84.776 20.3908 84.32C19.9348 83.856 19.3748 83.624 18.7108 83.624C18.0468 83.624 17.4868 83.856 17.0308 84.32C16.5748 84.776 16.3468 85.336 16.3468 86C16.3468 86.664 16.5748 87.228 17.0308 87.692ZM28.2118 88.244C27.6038 88.844 26.8598 89.144 25.9798 89.144C25.0998 89.144 24.3518 88.844 23.7358 88.244C23.1278 87.636 22.8238 86.888 22.8238 86C22.8238 85.112 23.1278 84.368 23.7358 83.768C24.3518 83.16 25.0998 82.856 25.9798 82.856C26.8598 82.856 27.6038 83.16 28.2118 83.768C28.8278 84.368 29.1358 85.112 29.1358 86C29.1358 86.888 28.8278 87.636 28.2118 88.244ZM24.2998 87.692C24.7558 88.148 25.3158 88.376 25.9798 88.376C26.6438 88.376 27.2038 88.148 27.6598 87.692C28.1158 87.228 28.3438 86.664 28.3438 86C28.3438 85.336 28.1158 84.776 27.6598 84.32C27.2038 83.856 26.6438 83.624 25.9798 83.624C25.3158 83.624 24.7558 83.856 24.2998 84.32C23.8438 84.776 23.6158 85.336 23.6158 86C23.6158 86.664 23.8438 87.228 24.2998 87.692ZM33.2571 89.144C32.3531 89.144 31.6011 88.844 31.0011 88.244C30.4011 87.636 30.1011 86.888 30.1011 86C30.1011 85.112 30.4011 84.368 31.0011 83.768C31.6011 83.16 32.3531 82.856 33.2571 82.856C33.8491 82.856 34.3811 83 34.8531 83.288C35.3251 83.568 35.6691 83.948 35.8851 84.428L35.2371 84.8C35.0771 84.44 34.8171 84.156 34.4571 83.948C34.1051 83.732 33.7051 83.624 33.2571 83.624C32.5931 83.624 32.0331 83.856 31.5771 84.32C31.1211 84.776 30.8931 85.336 30.8931 86C30.8931 86.664 31.1211 87.228 31.5771 87.692C32.0331 88.148 32.5931 88.376 33.2571 88.376C33.7051 88.376 34.1051 88.272 34.4571 88.064C34.8091 87.848 35.0851 87.56 35.2851 87.2L35.9451 87.584C35.6971 88.064 35.3331 88.444 34.8531 88.724C34.3731 89.004 33.8411 89.144 33.2571 89.144ZM42.9622 83V89H42.1702V84.212L40.0702 87.62H39.9742L37.8742 84.212V89H37.0822V83H37.9942L40.0222 86.288L42.0502 83H42.9622ZM49.6688 88.244C49.0608 88.844 48.3168 89.144 47.4368 89.144C46.5568 89.144 45.8088 88.844 45.1928 88.244C44.5848 87.636 44.2808 86.888 44.2808 86C44.2808 85.112 44.5848 84.368 45.1928 83.768C45.8088 83.16 46.5568 82.856 47.4368 82.856C48.3168 82.856 49.0608 83.16 49.6688 83.768C50.2848 84.368 50.5928 85.112 50.5928 86C50.5928 86.888 50.2848 87.636 49.6688 88.244ZM45.7568 87.692C46.2128 88.148 46.7728 88.376 47.4368 88.376C48.1008 88.376 48.6608 88.148 49.1168 87.692C49.5728 87.228 49.8008 86.664 49.8008 86C49.8008 85.336 49.5728 84.776 49.1168 84.32C48.6608 83.856 48.1008 83.624 47.4368 83.624C46.7728 83.624 46.2128 83.856 45.7568 84.32C45.3008 84.776 45.0728 85.336 45.0728 86C45.0728 86.664 45.3008 87.228 45.7568 87.692ZM56.0038 83V83.768H53.8798V89H53.0878V83.768H50.9638V83H56.0038ZM60.1849 82.856C61.0409 82.856 61.7689 83.16 62.3689 83.768C62.9769 84.376 63.2809 85.12 63.2809 86C63.2809 86.88 62.9769 87.624 62.3689 88.232C61.7689 88.84 61.0409 89.144 60.1849 89.144C59.1209 89.144 58.3129 88.704 57.7609 87.824V91.4H56.9689V83H57.7609V84.176C58.3129 83.296 59.1209 82.856 60.1849 82.856ZM58.4449 87.692C58.9009 88.148 59.4609 88.376 60.1249 88.376C60.7889 88.376 61.3489 88.148 61.8049 87.692C62.2609 87.228 62.4889 86.664 62.4889 86C62.4889 85.336 62.2609 84.776 61.8049 84.32C61.3489 83.856 60.7889 83.624 60.1249 83.624C59.4609 83.624 58.9009 83.856 58.4449 84.32C57.9889 84.776 57.7609 85.336 57.7609 86C57.7609 86.664 57.9889 87.228 58.4449 87.692ZM67.0338 85.28C67.5938 85.28 68.0658 85.456 68.4498 85.808C68.8418 86.152 69.0378 86.596 69.0378 87.14C69.0378 87.684 68.8418 88.132 68.4498 88.484C68.0658 88.828 67.5938 89 67.0338 89H64.5978V83H65.3898V85.28H67.0338ZM69.8778 83H70.6698V89H69.8778V83ZM67.0338 88.232C67.3698 88.232 67.6538 88.132 67.8858 87.932C68.1258 87.732 68.2458 87.468 68.2458 87.14C68.2458 86.812 68.1258 86.548 67.8858 86.348C67.6538 86.148 67.3698 86.048 67.0338 86.048H65.3898V88.232H67.0338ZM79.1716 85.916C79.8276 86.156 80.1556 86.624 80.1556 87.32C80.1556 87.808 79.9916 88.212 79.6636 88.532C79.3436 88.844 78.8796 89 78.2716 89H75.3556V83H78.0316C78.6156 83 79.0676 83.152 79.3876 83.456C79.7076 83.752 79.8676 84.136 79.8676 84.608C79.8676 85.208 79.6356 85.644 79.1716 85.916ZM78.0316 83.768H76.1476V85.592H78.0316C78.7276 85.592 79.0756 85.28 79.0756 84.656C79.0756 84.376 78.9836 84.16 78.7996 84.008C78.6236 83.848 78.3676 83.768 78.0316 83.768ZM78.2716 88.232C78.6236 88.232 78.8916 88.148 79.0756 87.98C79.2676 87.812 79.3636 87.576 79.3636 87.272C79.3636 86.992 79.2676 86.772 79.0756 86.612C78.8916 86.444 78.6236 86.36 78.2716 86.36H76.1476V88.232H78.2716ZM90.2356 83V89H89.4436V84.212L87.3436 87.62H87.2476L85.1476 84.212V89H84.3556V83H85.2676L87.2956 86.288L89.3236 83H90.2356ZM96.2822 83H96.9542V89H96.1622V84.38L92.5862 89H91.9142V83H92.7062V87.62L96.2822 83ZM101.845 82.856C102.701 82.856 103.429 83.16 104.029 83.768C104.637 84.376 104.941 85.12 104.941 86C104.941 86.88 104.637 87.624 104.029 88.232C103.429 88.84 102.701 89.144 101.845 89.144C100.781 89.144 99.9731 88.704 99.4211 87.824V91.4H98.6291V83H99.4211V84.176C99.9731 83.296 100.781 82.856 101.845 82.856ZM100.105 87.692C100.561 88.148 101.121 88.376 101.785 88.376C102.449 88.376 103.009 88.148 103.465 87.692C103.921 87.228 104.149 86.664 104.149 86C104.149 85.336 103.921 84.776 103.465 84.32C103.009 83.856 102.449 83.624 101.785 83.624C101.121 83.624 100.561 83.856 100.105 84.32C99.6491 84.776 99.4211 85.336 99.4211 86C99.4211 86.664 99.6491 87.228 100.105 87.692ZM111.286 88.244C110.678 88.844 109.934 89.144 109.054 89.144C108.174 89.144 107.426 88.844 106.81 88.244C106.202 87.636 105.898 86.888 105.898 86C105.898 85.112 106.202 84.368 106.81 83.768C107.426 83.16 108.174 82.856 109.054 82.856C109.934 82.856 110.678 83.16 111.286 83.768C111.902 84.368 112.21 85.112 112.21 86C112.21 86.888 111.902 87.636 111.286 88.244ZM107.374 87.692C107.83 88.148 108.39 88.376 109.054 88.376C109.718 88.376 110.278 88.148 110.734 87.692C111.19 87.228 111.418 86.664 111.418 86C111.418 85.336 111.19 84.776 110.734 84.32C110.278 83.856 109.718 83.624 109.054 83.624C108.39 83.624 107.83 83.856 107.374 84.32C106.918 84.776 106.69 85.336 106.69 86C106.69 86.664 106.918 87.228 107.374 87.692ZM117.351 85.916C118.007 86.156 118.335 86.624 118.335 87.32C118.335 87.808 118.171 88.212 117.843 88.532C117.523 88.844 117.059 89 116.451 89H113.535V83H116.211C116.795 83 117.247 83.152 117.567 83.456C117.887 83.752 118.047 84.136 118.047 84.608C118.047 85.208 117.815 85.644 117.351 85.916ZM116.211 83.768H114.327V85.592H116.211C116.907 85.592 117.255 85.28 117.255 84.656C117.255 84.376 117.163 84.16 116.979 84.008C116.803 83.848 116.547 83.768 116.211 83.768ZM116.451 88.232C116.803 88.232 117.071 88.148 117.255 87.98C117.447 87.812 117.543 87.576 117.543 87.272C117.543 86.992 117.447 86.772 117.255 86.612C117.071 86.444 116.803 86.36 116.451 86.36H114.327V88.232H116.451ZM121.971 85.28C122.531 85.28 123.003 85.456 123.387 85.808C123.779 86.152 123.975 86.596 123.975 87.14C123.975 87.684 123.779 88.132 123.387 88.484C123.003 88.828 122.531 89 121.971 89H119.535V83H120.327V85.28H121.971ZM124.815 83H125.607V89H124.815V83ZM121.971 88.232C122.307 88.232 122.591 88.132 122.823 87.932C123.063 87.732 123.183 87.468 123.183 87.14C123.183 86.812 123.063 86.548 122.823 86.348C122.591 86.148 122.307 86.048 121.971 86.048H120.327V88.232H121.971ZM130.065 82.856C130.953 82.856 131.669 83.172 132.213 83.804C132.765 84.428 133.041 85.168 133.041 86.024C133.041 86.112 133.033 86.236 133.017 86.396H127.749C127.829 87.004 128.085 87.488 128.517 87.848C128.957 88.2 129.497 88.376 130.137 88.376C130.593 88.376 130.985 88.284 131.313 88.1C131.649 87.908 131.901 87.66 132.069 87.356L132.765 87.764C132.501 88.188 132.141 88.524 131.685 88.772C131.229 89.02 130.709 89.144 130.125 89.144C129.181 89.144 128.413 88.848 127.821 88.256C127.229 87.664 126.933 86.912 126.933 86C126.933 85.104 127.225 84.356 127.809 83.756C128.393 83.156 129.145 82.856 130.065 82.856ZM130.065 83.624C129.441 83.624 128.917 83.812 128.493 84.188C128.077 84.556 127.829 85.036 127.749 85.628H132.225C132.145 84.996 131.901 84.504 131.493 84.152C131.085 83.8 130.609 83.624 130.065 83.624ZM14 97H14.792V103H14V101.824C13.448 102.704 12.64 103.144 11.576 103.144C10.72 103.144 9.988 102.84 9.38 102.232C8.78 101.624 8.48 100.88 8.48 100C8.48 99.12 8.78 98.376 9.38 97.768C9.988 97.16 10.72 96.856 11.576 96.856C12.64 96.856 13.448 97.296 14 98.176V97ZM9.956 101.692C10.412 102.148 10.972 102.376 11.636 102.376C12.3 102.376 12.86 102.148 13.316 101.692C13.772 101.228 14 100.664 14 100C14 99.336 13.772 98.776 13.316 98.32C12.86 97.856 12.3 97.624 11.636 97.624C10.972 97.624 10.412 97.856 9.956 98.32C9.5 98.776 9.272 99.336 9.272 100C9.272 100.664 9.5 101.228 9.956 101.692ZM21.3169 103H20.2609L17.2609 100.108V103H16.4689V97H17.2609V99.652L20.1169 97H21.1969L18.1009 99.88L21.3169 103ZM26.9609 97H27.7529V103H26.9609V101.824C26.4089 102.704 25.6009 103.144 24.5369 103.144C23.6809 103.144 22.9489 102.84 22.3409 102.232C21.7409 101.624 21.4409 100.88 21.4409 100C21.4409 99.12 21.7409 98.376 22.3409 97.768C22.9489 97.16 23.6809 96.856 24.5369 96.856C25.6009 96.856 26.4089 97.296 26.9609 98.176V97ZM22.9169 101.692C23.3729 102.148 23.9329 102.376 24.5969 102.376C25.2609 102.376 25.8209 102.148 26.2769 101.692C26.7329 101.228 26.9609 100.664 26.9609 100C26.9609 99.336 26.7329 98.776 26.2769 98.32C25.8209 97.856 25.2609 97.624 24.5969 97.624C23.9329 97.624 23.3729 97.856 22.9169 98.32C22.4609 98.776 22.2329 99.336 22.2329 100C22.2329 100.664 22.4609 101.228 22.9169 101.692ZM34.4698 102.232H35.3098V104.608H34.5178V103H29.6218V104.608H28.8298V102.232H29.5618C29.9698 101.696 30.1738 100.94 30.1738 99.964V97H34.4698V102.232ZM30.5218 102.232H33.6778V97.768H30.9658V99.964C30.9658 100.884 30.8178 101.64 30.5218 102.232ZM39.0456 96.856C39.9336 96.856 40.6496 97.172 41.1936 97.804C41.7456 98.428 42.0216 99.168 42.0216 100.024C42.0216 100.112 42.0136 100.236 41.9976 100.396H36.7296C36.8096 101.004 37.0656 101.488 37.4976 101.848C37.9376 102.2 38.4776 102.376 39.1176 102.376C39.5736 102.376 39.9656 102.284 40.2936 102.1C40.6296 101.908 40.8816 101.66 41.0496 101.356L41.7456 101.764C41.4816 102.188 41.1216 102.524 40.6656 102.772C40.2096 103.02 39.6896 103.144 39.1056 103.144C38.1616 103.144 37.3936 102.848 36.8016 102.256C36.2096 101.664 35.9136 100.912 35.9136 100C35.9136 99.104 36.2056 98.356 36.7896 97.756C37.3736 97.156 38.1256 96.856 39.0456 96.856ZM39.0456 97.624C38.4216 97.624 37.8976 97.812 37.4736 98.188C37.0576 98.556 36.8096 99.036 36.7296 99.628H41.2056C41.1256 98.996 40.8816 98.504 40.4736 98.152C40.0656 97.8 39.5896 97.624 39.0456 97.624ZM49.1614 97V103H48.3694V98.212L46.2694 101.62H46.1734L44.0734 98.212V103H43.2814V97H44.1934L46.2214 100.288L48.2494 97H49.1614ZM55.208 97H55.88V103H55.088V98.38L51.512 103H50.84V97H51.632V101.62L55.208 97ZM61.9228 97H62.5948V103H61.8028V98.38L58.2268 103H57.5548V97H58.3468V101.62L61.9228 97ZM71.6377 97H72.3097V103H71.5177V98.38L67.9417 103H67.2697V97H68.0617V101.62L71.6377 97ZM81.8325 103H80.7765L77.7765 100.108V103H76.9845V97H77.7765V99.652L80.6325 97H81.7125L78.6165 99.88L81.8325 103ZM87.8342 97V103H87.0422V97.768H84.3302V100.444C84.3302 101.444 84.1382 102.132 83.7542 102.508C83.3782 102.884 82.8582 103.048 82.1942 103V102.256C82.6502 102.304 82.9862 102.196 83.2022 101.932C83.4262 101.668 83.5382 101.172 83.5382 100.444V97H87.8342ZM93.8319 97H94.6719L92.1039 103.552C91.8719 104.144 91.5399 104.608 91.1079 104.944C90.6839 105.288 90.2079 105.44 89.6799 105.4V104.656C90.3999 104.736 90.9479 104.32 91.3239 103.408L91.4799 103.036L88.7919 97H89.6319L91.8879 102.028L93.8319 97ZM98.0587 103.144C97.1947 103.144 96.4747 102.86 95.8987 102.292C95.3227 101.716 95.0347 100.972 95.0347 100.06C95.0347 99.036 95.1867 98.252 95.4907 97.708C95.7947 97.156 96.4107 96.656 97.3387 96.208C97.5147 96.12 97.7467 96.016 98.0347 95.896C98.3307 95.776 98.5507 95.68 98.6947 95.608C98.8467 95.536 99.0107 95.444 99.1867 95.332C99.3627 95.212 99.4947 95.08 99.5827 94.936C99.6707 94.792 99.7267 94.62 99.7507 94.42L100.375 94.78C100.343 94.972 100.279 95.152 100.183 95.32C100.087 95.488 99.9867 95.624 99.8827 95.728C99.7867 95.832 99.6307 95.948 99.4147 96.076C99.2067 96.196 99.0427 96.284 98.9227 96.34C98.8107 96.388 98.6107 96.472 98.3227 96.592C98.0427 96.712 97.8547 96.792 97.7587 96.832C97.1987 97.072 96.7867 97.324 96.5227 97.588C96.2587 97.844 96.0707 98.18 95.9587 98.596C96.2307 98.236 96.5747 97.972 96.9907 97.804C97.4147 97.628 97.8267 97.54 98.2267 97.54C99.0267 97.54 99.6867 97.804 100.207 98.332C100.735 98.852 100.999 99.52 100.999 100.336C100.999 101.144 100.719 101.816 100.159 102.352C99.6067 102.88 98.9067 103.144 98.0587 103.144ZM98.0587 102.352C98.6827 102.352 99.1947 102.164 99.5947 101.788C100.003 101.404 100.207 100.92 100.207 100.336C100.207 99.744 100.015 99.26 99.6307 98.884C99.2547 98.5 98.7507 98.308 98.1187 98.308C97.5507 98.308 97.0347 98.488 96.5707 98.848C96.1067 99.2 95.8747 99.672 95.8747 100.264C95.8747 100.872 96.0827 101.372 96.4987 101.764C96.9227 102.156 97.4427 102.352 98.0587 102.352ZM104.639 99.28C105.199 99.28 105.671 99.456 106.055 99.808C106.447 100.152 106.643 100.596 106.643 101.14C106.643 101.684 106.447 102.132 106.055 102.484C105.671 102.828 105.199 103 104.639 103H102.203V97H102.995V99.28H104.639ZM107.483 97H108.275V103H107.483V97ZM104.639 102.232C104.975 102.232 105.259 102.132 105.491 101.932C105.731 101.732 105.851 101.468 105.851 101.14C105.851 100.812 105.731 100.548 105.491 100.348C105.259 100.148 104.975 100.048 104.639 100.048H102.995V102.232H104.639Z" fill="white"/>
</svg>
