<svg width="161" height="139" viewBox="0 0 161 139" fill="none" xmlns="http://www.w3.org/2000/svg">
<rect width="161" height="139" rx="15" fill="#0C0C0C" fill-opacity="0.3"/>
<rect x="0.5" y="0.5" width="160" height="138" rx="14.5" stroke="white" stroke-opacity="0.3"/>
<path d="M12.606 14.2C13.5113 14.2 14.2627 14.5033 14.86 15.11C15.4667 15.7073 15.77 16.454 15.77 17.35C15.77 18.2367 15.4667 18.9833 14.86 19.59C14.2627 20.1967 13.5113 20.5 12.606 20.5H10.352V24H9.05V14.2H12.606ZM12.606 19.282C13.1473 19.282 13.5953 19.1 13.95 18.736C14.3047 18.3627 14.482 17.9007 14.482 17.35C14.482 16.79 14.3047 16.328 13.95 15.964C13.5953 15.6 13.1473 15.418 12.606 15.418H10.352V19.282H12.606ZM17.5026 21.06C17.6239 21.6853 17.9086 22.1707 18.3566 22.516C18.8139 22.8613 19.3739 23.034 20.0366 23.034C20.9606 23.034 21.6326 22.6933 22.0526 22.012L23.0886 22.6C22.4073 23.6547 21.3806 24.182 20.0086 24.182C18.8979 24.182 17.9926 23.8367 17.2926 23.146C16.6019 22.446 16.2566 21.564 16.2566 20.5C16.2566 19.4453 16.5973 18.568 17.2786 17.868C17.9599 17.168 18.8419 16.818 19.9246 16.818C20.9513 16.818 21.7866 17.182 22.4306 17.91C23.0839 18.6287 23.4106 19.4967 23.4106 20.514C23.4106 20.6913 23.3966 20.8733 23.3686 21.06H17.5026ZM19.9246 17.966C19.2713 17.966 18.7299 18.1527 18.3006 18.526C17.8713 18.89 17.6053 19.38 17.5026 19.996H22.1786C22.0759 19.3333 21.8146 18.8293 21.3946 18.484C20.9746 18.1387 20.4846 17.966 19.9246 17.966ZM32.9832 24H31.5552L28.9372 20.682V24H27.7332V20.682L25.1152 24H23.7012L26.6272 20.388L23.8412 17H25.2552L27.7332 20.094V17H28.9372V20.094L31.4152 17H32.8432L30.0432 20.388L32.9832 24ZM39.2306 17H40.2106V24H39.0066V19.086L35.1286 24H34.1486V17H35.3526V21.914L39.2306 17ZM49.0646 17V24H47.8746V18.918L45.6486 22.502H45.4946L43.2686 18.918V24H42.0646V17H43.3666L45.5646 20.542L47.7626 17H49.0646ZM11.808 33.112L10.268 35.674L11.808 38.222H10.492L8.952 35.674L10.492 33.112H11.808ZM14.188 33.112L12.648 35.674L14.188 38.222H12.872L11.332 35.674L12.872 33.112H14.188ZM22.2032 40L21.4052 37.802H16.9952L16.1972 40H14.8112L18.4652 30.2H19.9352L23.5892 40H22.2032ZM17.4432 36.584H20.9572L19.1932 31.754L17.4432 36.584ZM28.4833 32.818C29.4633 32.818 30.2986 33.1773 30.9893 33.896C31.68 34.6053 32.0253 35.4733 32.0253 36.5C32.0253 37.5267 31.68 38.3993 30.9893 39.118C30.2986 39.8273 29.4633 40.182 28.4833 40.182C27.326 40.182 26.444 39.72 25.8373 38.796V42.8H24.6193V33H25.8373V34.204C26.444 33.28 27.326 32.818 28.4833 32.818ZM28.3293 39.006C29.0293 39.006 29.6173 38.768 30.0933 38.292C30.5693 37.8067 30.8073 37.2093 30.8073 36.5C30.8073 35.7907 30.5693 35.198 30.0933 34.722C29.6173 34.2367 29.0293 33.994 28.3293 33.994C27.62 33.994 27.0273 34.2367 26.5513 34.722C26.0753 35.198 25.8373 35.7907 25.8373 36.5C25.8373 37.2093 26.0753 37.8067 26.5513 38.292C27.0273 38.768 27.62 39.006 28.3293 39.006ZM36.6567 40.182C35.6207 40.182 34.7667 39.8413 34.0947 39.16C33.4227 38.4787 33.0867 37.6013 33.0867 36.528C33.0867 35.3333 33.2594 34.414 33.6047 33.77C33.9594 33.126 34.678 32.5427 35.7607 32.02C35.9567 31.9267 36.2227 31.8053 36.5587 31.656C36.904 31.5067 37.156 31.3947 37.3147 31.32C37.4734 31.236 37.6507 31.1287 37.8467 30.998C38.0427 30.858 38.1874 30.7087 38.2807 30.55C38.3834 30.382 38.458 30.1907 38.5047 29.976L39.4847 30.536C39.4567 30.6853 39.4194 30.8253 39.3727 30.956C39.326 31.0773 39.256 31.1987 39.1627 31.32C39.0787 31.432 39.004 31.53 38.9387 31.614C38.8734 31.698 38.7614 31.7913 38.6027 31.894C38.4534 31.9873 38.3414 32.0573 38.2667 32.104C38.2014 32.1507 38.066 32.2207 37.8607 32.314C37.6647 32.4073 37.5294 32.4727 37.4547 32.51C37.3894 32.538 37.2354 32.6033 36.9927 32.706C36.75 32.7993 36.6007 32.86 36.5447 32.888C35.91 33.1587 35.4434 33.434 35.1447 33.714C34.8554 33.994 34.6454 34.3487 34.5147 34.778C34.8134 34.4047 35.1867 34.1293 35.6347 33.952C36.0827 33.7747 36.5307 33.686 36.9787 33.686C37.856 33.686 38.598 33.9847 39.2047 34.582C39.8207 35.1793 40.1287 35.9493 40.1287 36.892C40.1287 37.844 39.802 38.6327 39.1487 39.258C38.4954 39.874 37.6647 40.182 36.6567 40.182ZM35.0187 38.39C35.4574 38.8007 36.0034 39.006 36.6567 39.006C37.31 39.006 37.8467 38.8053 38.2667 38.404C38.696 38.0027 38.9107 37.4987 38.9107 36.892C38.9107 36.2667 38.7054 35.758 38.2947 35.366C37.8934 34.9647 37.3614 34.764 36.6987 34.764C36.1014 34.764 35.56 34.9553 35.0747 35.338C34.5987 35.7113 34.3607 36.206 34.3607 36.822C34.3607 37.4567 34.58 37.9793 35.0187 38.39ZM46.504 33H47.484V40H46.28V35.086L42.402 40H41.422V33H42.626V37.914L46.504 33ZM54.5461 33V34.176H52.1661V40H50.9481V34.176H48.5541V33H54.5461ZM59.4775 32.818C60.4575 32.818 61.2928 33.1773 61.9835 33.896C62.6741 34.6053 63.0195 35.4733 63.0195 36.5C63.0195 37.5267 62.6741 38.3993 61.9835 39.118C61.2928 39.8273 60.4575 40.182 59.4775 40.182C58.3201 40.182 57.4381 39.72 56.8315 38.796V42.8H55.6135V33H56.8315V34.204C57.4381 33.28 58.3201 32.818 59.4775 32.818ZM59.3235 39.006C60.0235 39.006 60.6115 38.768 61.0875 38.292C61.5635 37.8067 61.8015 37.2093 61.8015 36.5C61.8015 35.7907 61.5635 35.198 61.0875 34.722C60.6115 34.2367 60.0235 33.994 59.3235 33.994C58.6141 33.994 58.0215 34.2367 57.5455 34.722C57.0695 35.198 56.8315 35.7907 56.8315 36.5C56.8315 37.2093 57.0695 37.8067 57.5455 38.292C58.0215 38.768 58.6141 39.006 59.3235 39.006ZM65.5434 33.112L67.0834 35.674L65.5434 38.222H64.2274L65.7674 35.674L64.2274 33.112H65.5434ZM67.9234 33.112L69.4634 35.674L67.9234 38.222H66.6074L68.1474 35.674L66.6074 33.112H67.9234Z" fill="white"/>
<path d="M14.96 60.6V69H14.12V61.392H9.8V69H8.96V60.6H14.96ZM21.7899 68.244C21.1819 68.844 20.4379 69.144 19.5579 69.144C18.6779 69.144 17.9299 68.844 17.3139 68.244C16.7059 67.636 16.4019 66.888 16.4019 66C16.4019 65.112 16.7059 64.368 17.3139 63.768C17.9299 63.16 18.6779 62.856 19.5579 62.856C20.4379 62.856 21.1819 63.16 21.7899 63.768C22.4059 64.368 22.7139 65.112 22.7139 66C22.7139 66.888 22.4059 67.636 21.7899 68.244ZM17.8779 67.692C18.3339 68.148 18.8939 68.376 19.5579 68.376C20.2219 68.376 20.7819 68.148 21.2379 67.692C21.6939 67.228 21.9219 66.664 21.9219 66C21.9219 65.336 21.6939 64.776 21.2379 64.32C20.7819 63.856 20.2219 63.624 19.5579 63.624C18.8939 63.624 18.3339 63.856 17.8779 64.32C17.4219 64.776 17.1939 65.336 17.1939 66C17.1939 66.664 17.4219 67.228 17.8779 67.692ZM26.9008 65.916C27.5968 66.18 27.9448 66.66 27.9448 67.356C27.9448 67.852 27.7488 68.276 27.3568 68.628C26.9728 68.972 26.4208 69.144 25.7008 69.144C24.4928 69.144 23.7008 68.664 23.3248 67.704L23.9968 67.308C24.2448 68.02 24.8128 68.376 25.7008 68.376C26.1648 68.376 26.5208 68.276 26.7688 68.076C27.0248 67.876 27.1528 67.62 27.1528 67.308C27.1528 67.028 27.0488 66.8 26.8408 66.624C26.6328 66.448 26.3528 66.36 26.0008 66.36H25.1248V65.592H25.7608C26.1048 65.592 26.3728 65.508 26.5648 65.34C26.7648 65.164 26.8648 64.924 26.8648 64.62C26.8648 64.332 26.7488 64.096 26.5168 63.912C26.2848 63.72 25.9728 63.624 25.5808 63.624C24.8288 63.624 24.3288 63.924 24.0808 64.524L23.4208 64.14C23.8208 63.284 24.5408 62.856 25.5808 62.856C26.2128 62.856 26.7168 63.024 27.0928 63.36C27.4688 63.688 27.6568 64.092 27.6568 64.572C27.6568 65.188 27.4048 65.636 26.9008 65.916ZM32.9646 65.916C33.6206 66.156 33.9486 66.624 33.9486 67.32C33.9486 67.808 33.7846 68.212 33.4566 68.532C33.1366 68.844 32.6726 69 32.0646 69H29.1486V63H31.8246C32.4086 63 32.8606 63.152 33.1806 63.456C33.5006 63.752 33.6606 64.136 33.6606 64.608C33.6606 65.208 33.4286 65.644 32.9646 65.916ZM31.8246 63.768H29.9406V65.592H31.8246C32.5206 65.592 32.8686 65.28 32.8686 64.656C32.8686 64.376 32.7766 64.16 32.5926 64.008C32.4166 63.848 32.1606 63.768 31.8246 63.768ZM32.0646 68.232C32.4166 68.232 32.6846 68.148 32.8686 67.98C33.0606 67.812 33.1566 67.576 33.1566 67.272C33.1566 66.992 33.0606 66.772 32.8686 66.612C32.6846 66.444 32.4166 66.36 32.0646 66.36H29.9406V68.232H32.0646ZM40.1766 68.244C39.5686 68.844 38.8246 69.144 37.9446 69.144C37.0646 69.144 36.3166 68.844 35.7006 68.244C35.0926 67.636 34.7886 66.888 34.7886 66C34.7886 65.112 35.0926 64.368 35.7006 63.768C36.3166 63.16 37.0646 62.856 37.9446 62.856C38.8246 62.856 39.5686 63.16 40.1766 63.768C40.7926 64.368 41.1006 65.112 41.1006 66C41.1006 66.888 40.7926 67.636 40.1766 68.244ZM36.2646 67.692C36.7206 68.148 37.2806 68.376 37.9446 68.376C38.6086 68.376 39.1686 68.148 39.6246 67.692C40.0806 67.228 40.3086 66.664 40.3086 66C40.3086 65.336 40.0806 64.776 39.6246 64.32C39.1686 63.856 38.6086 63.624 37.9446 63.624C37.2806 63.624 36.7206 63.856 36.2646 64.32C35.8086 64.776 35.5806 65.336 35.5806 66C35.5806 66.664 35.8086 67.228 36.2646 67.692ZM47.1116 63V69H46.3196V63.768H43.6076V66.444C43.6076 67.444 43.4156 68.132 43.0316 68.508C42.6556 68.884 42.1356 69.048 41.4716 69V68.256C41.9276 68.304 42.2636 68.196 42.4796 67.932C42.7036 67.668 42.8156 67.172 42.8156 66.444V63H47.1116ZM53.1092 63V69H52.3172V66.696H51.2852L49.4372 69H48.4292L50.3252 66.672C49.8452 66.6 49.4492 66.4 49.1372 66.072C48.8252 65.744 48.6692 65.34 48.6692 64.86C48.6692 64.316 48.8612 63.872 49.2452 63.528C49.6372 63.176 50.1132 63 50.6732 63H53.1092ZM50.6732 65.952H52.3172V63.768H50.6732C50.3372 63.768 50.0492 63.868 49.8092 64.068C49.5772 64.268 49.4612 64.532 49.4612 64.86C49.4612 65.188 49.5772 65.452 49.8092 65.652C50.0492 65.852 50.3372 65.952 50.6732 65.952ZM57.5612 62.856C58.4492 62.856 59.1652 63.172 59.7092 63.804C60.2612 64.428 60.5372 65.168 60.5372 66.024C60.5372 66.112 60.5292 66.236 60.5132 66.396H55.2452C55.3252 67.004 55.5812 67.488 56.0132 67.848C56.4532 68.2 56.9932 68.376 57.6332 68.376C58.0892 68.376 58.4812 68.284 58.8092 68.1C59.1452 67.908 59.3972 67.66 59.5652 67.356L60.2612 67.764C59.9972 68.188 59.6372 68.524 59.1812 68.772C58.7252 69.02 58.2052 69.144 57.6212 69.144C56.6772 69.144 55.9092 68.848 55.3172 68.256C54.7252 67.664 54.4292 66.912 54.4292 66C54.4292 65.104 54.7212 64.356 55.3052 63.756C55.8892 63.156 56.6412 62.856 57.5612 62.856ZM57.5612 63.624C56.9372 63.624 56.4132 63.812 55.9892 64.188C55.5732 64.556 55.3252 65.036 55.2452 65.628H59.7212C59.6412 64.996 59.3972 64.504 58.9892 64.152C58.5812 63.8 58.1052 63.624 57.5612 63.624ZM65.8827 63V63.768H63.7587V69H62.9667V63.768H60.8427V63H65.8827ZM74.1678 63H75.0078L72.4398 69.552C72.2078 70.144 71.8758 70.608 71.4438 70.944C71.0198 71.288 70.5438 71.44 70.0158 71.4V70.656C70.7358 70.736 71.2838 70.32 71.6598 69.408L71.8158 69.036L69.1278 63H69.9678L72.2238 68.028L74.1678 63ZM81.005 63V69H80.213V63.768H76.757V69H75.965V63H81.005ZM85.8958 62.856C86.7518 62.856 87.4798 63.16 88.0798 63.768C88.6878 64.376 88.9918 65.12 88.9918 66C88.9918 66.88 88.6878 67.624 88.0798 68.232C87.4798 68.84 86.7518 69.144 85.8958 69.144C84.8318 69.144 84.0238 68.704 83.4718 67.824V71.4H82.6798V63H83.4718V64.176C84.0238 63.296 84.8318 62.856 85.8958 62.856ZM84.1558 67.692C84.6118 68.148 85.1718 68.376 85.8358 68.376C86.4998 68.376 87.0598 68.148 87.5158 67.692C87.9718 67.228 88.1998 66.664 88.1998 66C88.1998 65.336 87.9718 64.776 87.5158 64.32C87.0598 63.856 86.4998 63.624 85.8358 63.624C85.1718 63.624 84.6118 63.856 84.1558 64.32C83.6998 64.776 83.4718 65.336 83.4718 66C83.4718 66.664 83.6998 67.228 84.1558 67.692ZM95.4688 63H96.2608V69H95.4688V67.824C94.9168 68.704 94.1088 69.144 93.0448 69.144C92.1888 69.144 91.4568 68.84 90.8488 68.232C90.2488 67.624 89.9488 66.88 89.9488 66C89.9488 65.12 90.2488 64.376 90.8488 63.768C91.4568 63.16 92.1888 62.856 93.0448 62.856C94.1088 62.856 94.9168 63.296 95.4688 64.176V63ZM91.4248 67.692C91.8808 68.148 92.4408 68.376 93.1048 68.376C93.7688 68.376 94.3288 68.148 94.7848 67.692C95.2408 67.228 95.4688 66.664 95.4688 66C95.4688 65.336 95.2408 64.776 94.7848 64.32C94.3288 63.856 93.7688 63.624 93.1048 63.624C92.4408 63.624 91.8808 63.856 91.4248 64.32C90.9688 64.776 90.7408 65.336 90.7408 66C90.7408 66.664 90.9688 67.228 91.4248 67.692ZM101.754 65.916C102.41 66.156 102.738 66.624 102.738 67.32C102.738 67.808 102.574 68.212 102.246 68.532C101.926 68.844 101.462 69 100.854 69H97.9377V63H100.614C101.198 63 101.65 63.152 101.97 63.456C102.29 63.752 102.45 64.136 102.45 64.608C102.45 65.208 102.218 65.644 101.754 65.916ZM100.614 63.768H98.7297V65.592H100.614C101.31 65.592 101.658 65.28 101.658 64.656C101.658 64.376 101.566 64.16 101.382 64.008C101.206 63.848 100.95 63.768 100.614 63.768ZM100.854 68.232C101.206 68.232 101.474 68.148 101.658 67.98C101.85 67.812 101.946 67.576 101.946 67.272C101.946 66.992 101.85 66.772 101.658 66.612C101.474 66.444 101.206 66.36 100.854 66.36H98.7297V68.232H100.854ZM108.623 63V69H107.831V63.768H105.119V66.444C105.119 67.444 104.927 68.132 104.543 68.508C104.167 68.884 103.647 69.048 102.983 69V68.256C103.439 68.304 103.775 68.196 103.991 67.932C104.215 67.668 104.327 67.172 104.327 66.444V63H108.623ZM114.621 63V69H113.829V66.696H112.797L110.949 69H109.941L111.837 66.672C111.357 66.6 110.961 66.4 110.649 66.072C110.337 65.744 110.181 65.34 110.181 64.86C110.181 64.316 110.373 63.872 110.757 63.528C111.149 63.176 111.625 63 112.185 63H114.621ZM112.185 65.952H113.829V63.768H112.185C111.849 63.768 111.561 63.868 111.321 64.068C111.089 64.268 110.973 64.532 110.973 64.86C110.973 65.188 111.089 65.452 111.321 65.652C111.561 65.852 111.849 65.952 112.185 65.952ZM120.621 63V63.768H118.497V69H117.705V63.768H115.581V63H120.621ZM124.022 65.28C124.582 65.28 125.054 65.456 125.438 65.808C125.83 66.152 126.026 66.596 126.026 67.14C126.026 67.684 125.83 68.132 125.438 68.484C125.054 68.828 124.582 69 124.022 69H121.586V63H122.378V65.28H124.022ZM124.022 68.232C124.358 68.232 124.642 68.132 124.874 67.932C125.114 67.732 125.234 67.468 125.234 67.14C125.234 66.812 125.114 66.548 124.874 66.348C124.642 66.148 124.358 66.048 124.022 66.048H122.378V68.232H124.022ZM11.636 83.144C10.732 83.144 9.98 82.844 9.38 82.244C8.78 81.636 8.48 80.888 8.48 80C8.48 79.112 8.78 78.368 9.38 77.768C9.98 77.16 10.732 76.856 11.636 76.856C12.228 76.856 12.76 77 13.232 77.288C13.704 77.568 14.048 77.948 14.264 78.428L13.616 78.8C13.456 78.44 13.196 78.156 12.836 77.948C12.484 77.732 12.084 77.624 11.636 77.624C10.972 77.624 10.412 77.856 9.956 78.32C9.5 78.776 9.272 79.336 9.272 80C9.272 80.664 9.5 81.228 9.956 81.692C10.412 82.148 10.972 82.376 11.636 82.376C12.084 82.376 12.484 82.272 12.836 82.064C13.188 81.848 13.464 81.56 13.664 81.2L14.324 81.584C14.076 82.064 13.712 82.444 13.232 82.724C12.752 83.004 12.22 83.144 11.636 83.144ZM19.5467 77H20.3867L17.8187 83.552C17.5867 84.144 17.2547 84.608 16.8227 84.944C16.3987 85.288 15.9227 85.44 15.3947 85.4V84.656C16.1147 84.736 16.6627 84.32 17.0387 83.408L17.1947 83.036L14.5067 77H15.3467L17.6027 82.028L19.5467 77ZM26.0206 82.232H26.8606V84.608H26.0686V83H21.1726V84.608H20.3806V82.232H21.1126C21.5206 81.696 21.7246 80.94 21.7246 79.964V77H26.0206V82.232ZM22.0726 82.232H25.2286V77.768H22.5166V79.964C22.5166 80.884 22.3686 81.64 22.0726 82.232ZM30.5964 76.856C31.4844 76.856 32.2004 77.172 32.7444 77.804C33.2964 78.428 33.5724 79.168 33.5724 80.024C33.5724 80.112 33.5644 80.236 33.5484 80.396H28.2804C28.3604 81.004 28.6164 81.488 29.0484 81.848C29.4884 82.2 30.0284 82.376 30.6684 82.376C31.1244 82.376 31.5164 82.284 31.8444 82.1C32.1804 81.908 32.4324 81.66 32.6004 81.356L33.2964 81.764C33.0324 82.188 32.6724 82.524 32.2164 82.772C31.7604 83.02 31.2404 83.144 30.6564 83.144C29.7124 83.144 28.9444 82.848 28.3524 82.256C27.7604 81.664 27.4644 80.912 27.4644 80C27.4644 79.104 27.7564 78.356 28.3404 77.756C28.9244 77.156 29.6764 76.856 30.5964 76.856ZM30.5964 77.624C29.9724 77.624 29.4484 77.812 29.0244 78.188C28.6084 78.556 28.3604 79.036 28.2804 79.628H32.7564C32.6764 78.996 32.4324 78.504 32.0244 78.152C31.6164 77.8 31.1404 77.624 30.5964 77.624ZM35.7922 76.04V75.344H38.9122V76.04H35.7922ZM39.2002 77H39.8722V83H39.0802V78.38L35.5042 83H34.8322V77H35.6242V81.62L39.2002 77ZM44.343 83.144C43.439 83.144 42.687 82.844 42.087 82.244C41.487 81.636 41.187 80.888 41.187 80C41.187 79.112 41.487 78.368 42.087 77.768C42.687 77.16 43.439 76.856 44.343 76.856C44.935 76.856 45.467 77 45.939 77.288C46.411 77.568 46.755 77.948 46.971 78.428L46.323 78.8C46.163 78.44 45.903 78.156 45.543 77.948C45.191 77.732 44.791 77.624 44.343 77.624C43.679 77.624 43.119 77.856 42.663 78.32C42.207 78.776 41.979 79.336 41.979 80C41.979 80.664 42.207 81.228 42.663 81.692C43.119 82.148 43.679 82.376 44.343 82.376C44.791 82.376 45.191 82.272 45.543 82.064C45.895 81.848 46.171 81.56 46.371 81.2L47.031 81.584C46.783 82.064 46.419 82.444 45.939 82.724C45.459 83.004 44.927 83.144 44.343 83.144ZM53.0161 83H51.9601L48.9601 80.108V83H48.1681V77H48.9601V79.652L51.8161 77H52.8961L49.8001 79.88L53.0161 83ZM58.4658 77H59.1378V83H58.3458V78.38L54.7698 83H54.0978V77H54.8898V81.62L58.4658 77ZM66.6927 77V83H65.9007V78.212L63.8007 81.62H63.7047L61.6047 78.212V83H60.8127V77H61.7247L63.7527 80.288L65.7807 77H66.6927ZM72.7393 77H73.4113V83H72.6193V78.38L69.0433 83H68.3713V77H69.1633V81.62L72.7393 77ZM13.088 91H13.88V97H13.088V94.384H9.632V97H8.84V91H9.632V93.616H13.088V91ZM20.7148 91H21.5068V97H20.7148V95.824C20.1628 96.704 19.3548 97.144 18.2908 97.144C17.4348 97.144 16.7028 96.84 16.0948 96.232C15.4948 95.624 15.1948 94.88 15.1948 94C15.1948 93.12 15.4948 92.376 16.0948 91.768C16.7028 91.16 17.4348 90.856 18.2908 90.856C19.3548 90.856 20.1628 91.296 20.7148 92.176V91ZM16.6708 95.692C17.1268 96.148 17.6868 96.376 18.3508 96.376C19.0148 96.376 19.5748 96.148 20.0308 95.692C20.4868 95.228 20.7148 94.664 20.7148 94C20.7148 93.336 20.4868 92.776 20.0308 92.32C19.5748 91.856 19.0148 91.624 18.3508 91.624C17.6868 91.624 17.1268 91.856 16.6708 92.32C16.2148 92.776 15.9868 93.336 15.9868 94C15.9868 94.664 16.2148 95.228 16.6708 95.692ZM26.2798 93.916C26.9758 94.18 27.3238 94.66 27.3238 95.356C27.3238 95.852 27.1278 96.276 26.7358 96.628C26.3518 96.972 25.7998 97.144 25.0798 97.144C23.8718 97.144 23.0798 96.664 22.7038 95.704L23.3758 95.308C23.6238 96.02 24.1918 96.376 25.0798 96.376C25.5438 96.376 25.8998 96.276 26.1478 96.076C26.4038 95.876 26.5318 95.62 26.5318 95.308C26.5318 95.028 26.4278 94.8 26.2198 94.624C26.0118 94.448 25.7318 94.36 25.3798 94.36H24.5038V93.592H25.1398C25.4838 93.592 25.7518 93.508 25.9438 93.34C26.1438 93.164 26.2438 92.924 26.2438 92.62C26.2438 92.332 26.1278 92.096 25.8958 91.912C25.6638 91.72 25.3518 91.624 24.9598 91.624C24.2078 91.624 23.7078 91.924 23.4598 92.524L22.7998 92.14C23.1998 91.284 23.9198 90.856 24.9598 90.856C25.5918 90.856 26.0958 91.024 26.4718 91.36C26.8478 91.688 27.0358 92.092 27.0358 92.572C27.0358 93.188 26.7838 93.636 26.2798 93.916ZM32.7755 91H33.5675V97H32.7755V94.384H29.3195V97H28.5275V91H29.3195V93.616H32.7755V91ZM40.4023 91H41.1943V97H40.4023V95.824C39.8503 96.704 39.0423 97.144 37.9783 97.144C37.1223 97.144 36.3903 96.84 35.7823 96.232C35.1823 95.624 34.8823 94.88 34.8823 94C34.8823 93.12 35.1823 92.376 35.7823 91.768C36.3903 91.16 37.1223 90.856 37.9783 90.856C39.0423 90.856 39.8503 91.296 40.4023 92.176V91ZM36.3583 95.692C36.8143 96.148 37.3743 96.376 38.0383 96.376C38.7023 96.376 39.2623 96.148 39.7183 95.692C40.1743 95.228 40.4023 94.664 40.4023 94C40.4023 93.336 40.1743 92.776 39.7183 92.32C39.2623 91.856 38.7023 91.624 38.0383 91.624C37.3743 91.624 36.8143 91.856 36.3583 92.32C35.9023 92.776 35.6743 93.336 35.6743 94C35.6743 94.664 35.9023 95.228 36.3583 95.692ZM46.7593 91H47.5513V97H46.7593V94.72C46.2953 94.96 45.7233 95.08 45.0433 95.08C44.2593 95.08 43.6593 94.9 43.2433 94.54C42.8353 94.172 42.6313 93.632 42.6313 92.92V91H43.4233V92.92C43.4233 93.424 43.5553 93.788 43.8193 94.012C44.0833 94.228 44.4833 94.336 45.0193 94.336C45.6433 94.336 46.2233 94.22 46.7593 93.988V91ZM52.0065 90.856C52.8945 90.856 53.6105 91.172 54.1545 91.804C54.7065 92.428 54.9825 93.168 54.9825 94.024C54.9825 94.112 54.9745 94.236 54.9585 94.396H49.6905C49.7705 95.004 50.0265 95.488 50.4585 95.848C50.8985 96.2 51.4385 96.376 52.0785 96.376C52.5345 96.376 52.9265 96.284 53.2545 96.1C53.5905 95.908 53.8425 95.66 54.0105 95.356L54.7065 95.764C54.4425 96.188 54.0825 96.524 53.6265 96.772C53.1705 97.02 52.6505 97.144 52.0665 97.144C51.1225 97.144 50.3545 96.848 49.7625 96.256C49.1705 95.664 48.8745 94.912 48.8745 94C48.8745 93.104 49.1665 92.356 49.7505 91.756C50.3345 91.156 51.0865 90.856 52.0065 90.856ZM52.0065 91.624C51.3825 91.624 50.8585 91.812 50.4345 92.188C50.0185 92.556 49.7705 93.036 49.6905 93.628H54.1665C54.0865 92.996 53.8425 92.504 53.4345 92.152C53.0265 91.8 52.5505 91.624 52.0065 91.624ZM60.4903 91H61.2823V97H60.4903V94.384H57.0343V97H56.2423V91H57.0343V93.616H60.4903V91ZM67.3252 91H67.9972V97H67.2052V92.38L63.6292 97H62.9572V91H63.7492V95.62L67.3252 91ZM73.992 91V97H73.2V94.696H72.168L70.32 97H69.312L71.208 94.672C70.728 94.6 70.332 94.4 70.02 94.072C69.708 93.744 69.552 93.34 69.552 92.86C69.552 92.316 69.744 91.872 70.128 91.528C70.52 91.176 70.996 91 71.556 91H73.992ZM71.556 93.952H73.2V91.768H71.556C71.22 91.768 70.932 91.868 70.692 92.068C70.46 92.268 70.344 92.532 70.344 92.86C70.344 93.188 70.46 93.452 70.692 93.652C70.932 93.852 71.22 93.952 71.556 93.952ZM81.552 91V97H80.76V92.212L78.66 95.62H78.564L76.464 92.212V97H75.672V91H76.584L78.612 94.288L80.64 91H81.552ZM87.5986 91H88.2706V97H87.4786V92.38L83.9026 97H83.2306V91H84.0226V95.62L87.5986 91ZM97.3135 91H97.9855V97H97.1935V92.38L93.6175 97H92.9455V91H93.7375V95.62L97.3135 91ZM13.868 110.244C13.26 110.844 12.516 111.144 11.636 111.144C10.756 111.144 10.008 110.844 9.392 110.244C8.784 109.636 8.48 108.888 8.48 108C8.48 107.112 8.784 106.368 9.392 105.768C10.008 105.16 10.756 104.856 11.636 104.856C12.516 104.856 13.26 105.16 13.868 105.768C14.484 106.368 14.792 107.112 14.792 108C14.792 108.888 14.484 109.636 13.868 110.244ZM9.956 109.692C10.412 110.148 10.972 110.376 11.636 110.376C12.3 110.376 12.86 110.148 13.316 109.692C13.772 109.228 14 108.664 14 108C14 107.336 13.772 106.776 13.316 106.32C12.86 105.856 12.3 105.624 11.636 105.624C10.972 105.624 10.412 105.856 9.956 106.32C9.5 106.776 9.272 107.336 9.272 108C9.272 108.664 9.5 109.228 9.956 109.692ZM20.203 105V105.768H18.079V111H17.287V105.768H15.163V105H20.203ZM23.7298 111.144C22.8258 111.144 22.0738 110.844 21.4738 110.244C20.8738 109.636 20.5738 108.888 20.5738 108C20.5738 107.112 20.8738 106.368 21.4738 105.768C22.0738 105.16 22.8258 104.856 23.7298 104.856C24.3218 104.856 24.8538 105 25.3258 105.288C25.7978 105.568 26.1418 105.948 26.3578 106.428L25.7098 106.8C25.5498 106.44 25.2898 106.156 24.9298 105.948C24.5778 105.732 24.1778 105.624 23.7298 105.624C23.0658 105.624 22.5058 105.856 22.0498 106.32C21.5938 106.776 21.3658 107.336 21.3658 108C21.3658 108.664 21.5938 109.228 22.0498 109.692C22.5058 110.148 23.0658 110.376 23.7298 110.376C24.1778 110.376 24.5778 110.272 24.9298 110.064C25.2818 109.848 25.5578 109.56 25.7578 109.2L26.4178 109.584C26.1698 110.064 25.8058 110.444 25.3258 110.724C24.8458 111.004 24.3138 111.144 23.7298 111.144ZM32.3577 105V111H31.5657V105.768H28.8537V108.444C28.8537 109.444 28.6617 110.132 28.2777 110.508C27.9017 110.884 27.3817 111.048 26.7177 111V110.256C27.1737 110.304 27.5097 110.196 27.7257 109.932C27.9497 109.668 28.0617 109.172 28.0617 108.444V105H32.3577ZM36.8073 104.856C37.6953 104.856 38.4113 105.172 38.9553 105.804C39.5073 106.428 39.7833 107.168 39.7833 108.024C39.7833 108.112 39.7753 108.236 39.7593 108.396H34.4913C34.5713 109.004 34.8273 109.488 35.2593 109.848C35.6993 110.2 36.2393 110.376 36.8793 110.376C37.3353 110.376 37.7273 110.284 38.0553 110.1C38.3913 109.908 38.6433 109.66 38.8113 109.356L39.5073 109.764C39.2433 110.188 38.8833 110.524 38.4273 110.772C37.9713 111.02 37.4513 111.144 36.8673 111.144C35.9233 111.144 35.1553 110.848 34.5633 110.256C33.9713 109.664 33.6753 108.912 33.6753 108C33.6753 107.104 33.9673 106.356 34.5513 105.756C35.1353 105.156 35.8873 104.856 36.8073 104.856ZM36.8073 105.624C36.1833 105.624 35.6593 105.812 35.2353 106.188C34.8193 106.556 34.5713 107.036 34.4913 107.628H38.9673C38.8873 106.996 38.6433 106.504 38.2353 106.152C37.8273 105.8 37.3513 105.624 36.8073 105.624ZM47.6878 111H46.7278L44.2798 108.108V111H43.4878V108.108L41.0398 111H40.0798L42.7678 107.88L40.1998 105H41.1598L43.4878 107.664V105H44.2798V107.664L46.6078 105H47.5678L44.9998 107.88L47.6878 111ZM53.1338 105H53.8058V111H53.0138V106.38L49.4378 111H48.7658V105H49.5578V109.62L53.1338 105ZM59.2966 107.916C59.9526 108.156 60.2806 108.624 60.2806 109.32C60.2806 109.808 60.1166 110.212 59.7886 110.532C59.4686 110.844 59.0046 111 58.3966 111H55.4806V105H58.1566C58.7406 105 59.1926 105.152 59.5126 105.456C59.8326 105.752 59.9926 106.136 59.9926 106.608C59.9926 107.208 59.7606 107.644 59.2966 107.916ZM58.1566 105.768H56.2726V107.592H58.1566C58.8526 107.592 59.2006 107.28 59.2006 106.656C59.2006 106.376 59.1086 106.16 58.9246 106.008C58.7486 105.848 58.4926 105.768 58.1566 105.768ZM58.3966 110.232C58.7486 110.232 59.0166 110.148 59.2006 109.98C59.3926 109.812 59.4886 109.576 59.4886 109.272C59.4886 108.992 59.3926 108.772 59.2006 108.612C59.0166 108.444 58.7486 108.36 58.3966 108.36H56.2726V110.232H58.3966ZM66.6406 105H67.4326V111H66.6406V109.824C66.0886 110.704 65.2806 111.144 64.2166 111.144C63.3606 111.144 62.6286 110.84 62.0206 110.232C61.4206 109.624 61.1206 108.88 61.1206 108C61.1206 107.12 61.4206 106.376 62.0206 105.768C62.6286 105.16 63.3606 104.856 64.2166 104.856C65.2806 104.856 66.0886 105.296 66.6406 106.176V105ZM62.5966 109.692C63.0526 110.148 63.6126 110.376 64.2766 110.376C64.9406 110.376 65.5006 110.148 65.9566 109.692C66.4126 109.228 66.6406 108.664 66.6406 108C66.6406 107.336 66.4126 106.776 65.9566 106.32C65.5006 105.856 64.9406 105.624 64.2766 105.624C63.6126 105.624 63.0526 105.856 62.5966 106.32C62.1406 106.776 61.9126 107.336 61.9126 108C61.9126 108.664 62.1406 109.228 62.5966 109.692ZM73.4295 105V105.768H71.3055V111H70.5135V105.768H68.3895V105H73.4295ZM76.8307 107.28C77.3907 107.28 77.8627 107.456 78.2467 107.808C78.6387 108.152 78.8347 108.596 78.8347 109.14C78.8347 109.684 78.6387 110.132 78.2467 110.484C77.8627 110.828 77.3907 111 76.8307 111H74.3947V105H75.1867V107.28H76.8307ZM76.8307 110.232C77.1667 110.232 77.4507 110.132 77.6827 109.932C77.9227 109.732 78.0427 109.468 78.0427 109.14C78.0427 108.812 77.9227 108.548 77.6827 108.348C77.4507 108.148 77.1667 108.048 76.8307 108.048H75.1867V110.232H76.8307ZM85.8274 111.144C84.9234 111.144 84.1714 110.844 83.5714 110.244C82.9714 109.636 82.6714 108.888 82.6714 108C82.6714 107.112 82.9714 106.368 83.5714 105.768C84.1714 105.16 84.9234 104.856 85.8274 104.856C86.4194 104.856 86.9514 105 87.4234 105.288C87.8954 105.568 88.2394 105.948 88.4554 106.428L87.8074 106.8C87.6474 106.44 87.3874 106.156 87.0274 105.948C86.6754 105.732 86.2754 105.624 85.8274 105.624C85.1634 105.624 84.6034 105.856 84.1474 106.32C83.6914 106.776 83.4634 107.336 83.4634 108C83.4634 108.664 83.6914 109.228 84.1474 109.692C84.6034 110.148 85.1634 110.376 85.8274 110.376C86.2754 110.376 86.6754 110.272 87.0274 110.064C87.3794 109.848 87.6554 109.56 87.8554 109.2L88.5154 109.584C88.2674 110.064 87.9034 110.444 87.4234 110.724C86.9434 111.004 86.4114 111.144 85.8274 111.144ZM93.8553 105V105.768H91.7313V111H90.9393V105.768H88.8153V105H93.8553ZM99.7461 105H100.538V111H99.7461V109.824C99.1941 110.704 98.3861 111.144 97.3221 111.144C96.4661 111.144 95.7341 110.84 95.1261 110.232C94.5261 109.624 94.2261 108.88 94.2261 108C94.2261 107.12 94.5261 106.376 95.1261 105.768C95.7341 105.16 96.4661 104.856 97.3221 104.856C98.3861 104.856 99.1941 105.296 99.7461 106.176V105ZM95.7021 109.692C96.1581 110.148 96.7181 110.376 97.3821 110.376C98.0461 110.376 98.6061 110.148 99.0621 109.692C99.5181 109.228 99.7461 108.664 99.7461 108C99.7461 107.336 99.5181 106.776 99.0621 106.32C98.6061 105.856 98.0461 105.624 97.3821 105.624C96.7181 105.624 96.1581 105.856 95.7021 106.32C95.2461 106.776 95.0181 107.336 95.0181 108C95.0181 108.664 95.2461 109.228 95.7021 109.692ZM106.535 105V105.768H104.411V111H103.619V105.768H101.495V105H106.535ZM111.868 105H112.54V111H111.748V106.38L108.172 111H107.5V105H108.292V109.62L111.868 105ZM117.011 111.144C116.107 111.144 115.355 110.844 114.755 110.244C114.155 109.636 113.855 108.888 113.855 108C113.855 107.112 114.155 106.368 114.755 105.768C115.355 105.16 116.107 104.856 117.011 104.856C117.603 104.856 118.135 105 118.607 105.288C119.079 105.568 119.423 105.948 119.639 106.428L118.991 106.8C118.831 106.44 118.571 106.156 118.211 105.948C117.859 105.732 117.459 105.624 117.011 105.624C116.347 105.624 115.787 105.856 115.331 106.32C114.875 106.776 114.647 107.336 114.647 108C114.647 108.664 114.875 109.228 115.331 109.692C115.787 110.148 116.347 110.376 117.011 110.376C117.459 110.376 117.859 110.272 118.211 110.064C118.563 109.848 118.839 109.56 119.039 109.2L119.699 109.584C119.451 110.064 119.087 110.444 118.607 110.724C118.127 111.004 117.595 111.144 117.011 111.144ZM125.039 105V105.768H122.915V111H122.123V105.768H119.999V105H125.039ZM130.372 105H131.044V111H130.252V106.38L126.676 111H126.004V105H126.796V109.62L130.372 105ZM137.567 111H136.511L133.511 108.108V111H132.719V105H133.511V107.652L136.367 105H137.447L134.351 107.88L137.567 111ZM142.734 105H143.574L141.006 111.552C140.774 112.144 140.442 112.608 140.01 112.944C139.586 113.288 139.11 113.44 138.582 113.4V112.656C139.302 112.736 139.85 112.32 140.226 111.408L140.382 111.036L137.694 105H138.534L140.79 110.028L142.734 105ZM14.72 119V125H13.928V120.212L11.828 123.62H11.732L9.632 120.212V125H8.84V119H9.752L11.78 122.288L13.808 119H14.72ZM21.5586 119H22.3506V125H21.5586V123.824C21.0066 124.704 20.1986 125.144 19.1346 125.144C18.2786 125.144 17.5466 124.84 16.9386 124.232C16.3386 123.624 16.0386 122.88 16.0386 122C16.0386 121.12 16.3386 120.376 16.9386 119.768C17.5466 119.16 18.2786 118.856 19.1346 118.856C20.1986 118.856 21.0066 119.296 21.5586 120.176V119ZM17.5146 123.692C17.9706 124.148 18.5306 124.376 19.1946 124.376C19.8586 124.376 20.4186 124.148 20.8746 123.692C21.3306 123.228 21.5586 122.664 21.5586 122C21.5586 121.336 21.3306 120.776 20.8746 120.32C20.4186 119.856 19.8586 119.624 19.1946 119.624C18.5306 119.624 17.9706 119.856 17.5146 120.32C17.0586 120.776 16.8306 121.336 16.8306 122C16.8306 122.664 17.0586 123.228 17.5146 123.692ZM28.3475 119V119.768H26.2235V125H25.4315V119.768H23.3075V119H28.3475ZM33.2007 119H33.9927V125H33.2007V122.72C32.7367 122.96 32.1647 123.08 31.4847 123.08C30.7007 123.08 30.1007 122.9 29.6847 122.54C29.2767 122.172 29.0727 121.632 29.0727 120.92V119H29.8647V120.92C29.8647 121.424 29.9967 121.788 30.2607 122.012C30.5247 122.228 30.9247 122.336 31.4607 122.336C32.0847 122.336 32.6647 122.22 33.2007 121.988V119ZM38.4479 118.856C39.3359 118.856 40.0519 119.172 40.5959 119.804C41.1479 120.428 41.4239 121.168 41.4239 122.024C41.4239 122.112 41.4159 122.236 41.3999 122.396H36.1319C36.2119 123.004 36.4679 123.488 36.8999 123.848C37.3399 124.2 37.8799 124.376 38.5199 124.376C38.9759 124.376 39.3679 124.284 39.6959 124.1C40.0319 123.908 40.2839 123.66 40.4519 123.356L41.1479 123.764C40.8839 124.188 40.5239 124.524 40.0679 124.772C39.6119 125.02 39.0919 125.144 38.5079 125.144C37.5639 125.144 36.7959 124.848 36.2039 124.256C35.6119 123.664 35.3159 122.912 35.3159 122C35.3159 121.104 35.6079 120.356 36.1919 119.756C36.7759 119.156 37.5279 118.856 38.4479 118.856ZM38.4479 119.624C37.8239 119.624 37.2999 119.812 36.8759 120.188C36.4599 120.556 36.2119 121.036 36.1319 121.628H40.6079C40.5279 120.996 40.2839 120.504 39.8759 120.152C39.4679 119.8 38.9919 119.624 38.4479 119.624ZM43.6438 118.04V117.344H46.7638V118.04H43.6438ZM47.0518 119H47.7238V125H46.9318V120.38L43.3558 125H42.6838V119H43.4758V123.62L47.0518 119ZM50.4066 124.928C50.2786 125.056 50.1226 125.12 49.9386 125.12C49.7546 125.12 49.5986 125.056 49.4706 124.928C49.3426 124.8 49.2786 124.644 49.2786 124.46C49.2786 124.276 49.3426 124.12 49.4706 123.992C49.5986 123.864 49.7546 123.8 49.9386 123.8C50.1226 123.8 50.2786 123.864 50.4066 123.992C50.5346 124.12 50.5986 124.276 50.5986 124.46C50.5986 124.644 50.5346 124.8 50.4066 124.928Z" fill="white"/>
</svg>
