<svg width="161" height="290" viewBox="0 0 161 290" fill="none" xmlns="http://www.w3.org/2000/svg">
<g filter="url(#filter0_b_1005_22241)">
<rect width="161" height="290" rx="15" fill="#0C0C0C" fill-opacity="0.3"/>
<rect x="0.5" y="0.5" width="160" height="289" rx="14.5" stroke="white" stroke-opacity="0.3"/>
<path d="M64.106 82.2C65.0113 82.2 65.7627 82.5033 66.36 83.11C66.9667 83.7073 67.27 84.454 67.27 85.35C67.27 86.2367 66.9667 86.9833 66.36 87.59C65.7627 88.1967 65.0113 88.5 64.106 88.5H61.852V92H60.55V82.2H64.106ZM64.106 87.282C64.6473 87.282 65.0953 87.1 65.45 86.736C65.8047 86.3627 65.982 85.9007 65.982 85.35C65.982 84.79 65.8047 84.328 65.45 83.964C65.0953 83.6 64.6473 83.418 64.106 83.418H61.852V87.282H64.106ZM69.0026 89.06C69.1239 89.6853 69.4086 90.1707 69.8566 90.516C70.3139 90.8613 70.8739 91.034 71.5366 91.034C72.4606 91.034 73.1326 90.6933 73.5526 90.012L74.5886 90.6C73.9073 91.6547 72.8806 92.182 71.5086 92.182C70.3979 92.182 69.4926 91.8367 68.7926 91.146C68.1019 90.446 67.7566 89.564 67.7566 88.5C67.7566 87.4453 68.0973 86.568 68.7786 85.868C69.4599 85.168 70.3419 84.818 71.4246 84.818C72.4513 84.818 73.2866 85.182 73.9306 85.91C74.5839 86.6287 74.9106 87.4967 74.9106 88.514C74.9106 88.6913 74.8966 88.8733 74.8686 89.06H69.0026ZM71.4246 85.966C70.7713 85.966 70.2299 86.1527 69.8006 86.526C69.3713 86.89 69.1053 87.38 69.0026 87.996H73.6786C73.5759 87.3333 73.3146 86.8293 72.8946 86.484C72.4746 86.1387 71.9846 85.966 71.4246 85.966ZM84.4832 92H83.0552L80.4372 88.682V92H79.2332V88.682L76.6152 92H75.2012L78.1272 88.388L75.3412 85H76.7552L79.2332 88.094V85H80.4372V88.094L82.9152 85H84.3432L81.5432 88.388L84.4832 92ZM90.7306 85H91.7106V92H90.5066V87.086L86.6286 92H85.6486V85H86.8526V89.914L90.7306 85ZM100.565 85V92H99.3746V86.918L97.1486 90.502H96.9946L94.7686 86.918V92H93.5646V85H94.8666L97.0646 88.542L99.2626 85H100.565ZM42.3353 101.112L40.7953 103.674L42.3353 106.222H41.0193L39.4793 103.674L41.0193 101.112H42.3353ZM44.7153 101.112L43.1753 103.674L44.7153 106.222H43.3993L41.8593 103.674L43.3993 101.112H44.7153ZM55.3381 100.384C56.1874 101.056 56.6121 101.961 56.6121 103.1C56.6121 104.239 56.1874 105.144 55.3381 105.816C54.4981 106.488 53.3734 106.871 51.9641 106.964V108.07H50.6901V106.964C49.2901 106.871 48.1654 106.488 47.3161 105.816C46.4761 105.144 46.0561 104.239 46.0561 103.1C46.0561 101.961 46.4761 101.056 47.3161 100.384C48.1654 99.712 49.2901 99.3293 50.6901 99.236V98.13H51.9641V99.236C53.3734 99.3293 54.4981 99.712 55.3381 100.384ZM51.9641 105.774C53.0187 105.699 53.8401 105.443 54.4281 105.004C55.0161 104.556 55.3101 103.921 55.3101 103.1C55.3101 102.279 55.0161 101.649 54.4281 101.21C53.8401 100.762 53.0187 100.501 51.9641 100.426V105.774ZM47.3441 103.1C47.3441 103.912 47.6381 104.542 48.2261 104.99C48.8141 105.429 49.6354 105.685 50.6901 105.76V100.426C49.6354 100.501 48.8141 100.762 48.2261 101.21C47.6381 101.649 47.3441 102.279 47.3441 103.1ZM62.644 101H63.946L61.09 108.434C60.7913 109.227 60.3713 109.829 59.83 110.24C59.2887 110.66 58.6727 110.847 57.982 110.8V109.666C58.8407 109.731 59.4707 109.265 59.872 108.266L59.984 108.014L56.946 101H58.234L60.628 106.488L62.644 101ZM70.2121 101V102.176H67.8321V108H66.6141V102.176H64.2201V101H70.2121ZM74.184 108.182C73.148 108.182 72.294 107.841 71.622 107.16C70.95 106.479 70.614 105.601 70.614 104.528C70.614 103.333 70.7867 102.414 71.132 101.77C71.4867 101.126 72.2054 100.543 73.288 100.02C73.484 99.9267 73.75 99.8053 74.086 99.656C74.4314 99.5067 74.6834 99.3947 74.842 99.32C75.0007 99.236 75.178 99.1287 75.374 98.998C75.57 98.858 75.7147 98.7087 75.808 98.55C75.9107 98.382 75.9854 98.1907 76.032 97.976L77.012 98.536C76.984 98.6853 76.9467 98.8253 76.9 98.956C76.8534 99.0773 76.7834 99.1987 76.69 99.32C76.606 99.432 76.5314 99.53 76.466 99.614C76.4007 99.698 76.2887 99.7913 76.13 99.894C75.9807 99.9873 75.8687 100.057 75.794 100.104C75.7287 100.151 75.5934 100.221 75.388 100.314C75.192 100.407 75.0567 100.473 74.982 100.51C74.9167 100.538 74.7627 100.603 74.52 100.706C74.2774 100.799 74.128 100.86 74.072 100.888C73.4374 101.159 72.9707 101.434 72.672 101.714C72.3827 101.994 72.1727 102.349 72.042 102.778C72.3407 102.405 72.714 102.129 73.162 101.952C73.61 101.775 74.058 101.686 74.506 101.686C75.3834 101.686 76.1254 101.985 76.732 102.582C77.348 103.179 77.656 103.949 77.656 104.892C77.656 105.844 77.3294 106.633 76.676 107.258C76.0227 107.874 75.192 108.182 74.184 108.182ZM72.546 106.39C72.9847 106.801 73.5307 107.006 74.184 107.006C74.8374 107.006 75.374 106.805 75.794 106.404C76.2234 106.003 76.438 105.499 76.438 104.892C76.438 104.267 76.2327 103.758 75.822 103.366C75.4207 102.965 74.8887 102.764 74.226 102.764C73.6287 102.764 73.0874 102.955 72.602 103.338C72.126 103.711 71.888 104.206 71.888 104.822C71.888 105.457 72.1074 105.979 72.546 106.39ZM84.8574 107.118C84.1387 107.827 83.2661 108.182 82.2394 108.182C81.2127 108.182 80.3401 107.827 79.6214 107.118C78.9121 106.409 78.5574 105.536 78.5574 104.5C78.5574 103.464 78.9121 102.591 79.6214 101.882C80.3401 101.173 81.2127 100.818 82.2394 100.818C83.2661 100.818 84.1387 101.173 84.8574 101.882C85.5761 102.591 85.9354 103.464 85.9354 104.5C85.9354 105.536 85.5761 106.409 84.8574 107.118ZM82.2394 106.992C82.9394 106.992 83.5274 106.754 84.0034 106.278C84.4794 105.802 84.7174 105.209 84.7174 104.5C84.7174 103.791 84.4794 103.198 84.0034 102.722C83.5274 102.246 82.9394 102.008 82.2394 102.008C81.5487 102.008 80.9654 102.246 80.4894 102.722C80.0134 103.198 79.7754 103.791 79.7754 104.5C79.7754 105.209 80.0134 105.802 80.4894 106.278C80.9654 106.754 81.5487 106.992 82.2394 106.992ZM92.9632 101V108H91.7452V102.176H88.9872V105.032C88.9872 106.18 88.7538 106.983 88.2872 107.44C87.8298 107.888 87.1812 108.075 86.3412 108V106.852C86.8172 106.917 87.1718 106.815 87.4052 106.544C87.6478 106.264 87.7692 105.751 87.7692 105.004V101H92.9632ZM99.8908 101H100.871V108H99.6668V103.086L95.7888 108H94.8088V101H96.0128V105.914L99.8908 101ZM106.015 108.182C104.96 108.182 104.083 107.832 103.383 107.132C102.683 106.423 102.333 105.545 102.333 104.5C102.333 103.455 102.683 102.582 103.383 101.882C104.083 101.173 104.96 100.818 106.015 100.818C106.705 100.818 107.326 100.986 107.877 101.322C108.427 101.649 108.838 102.092 109.109 102.652L108.087 103.24C107.909 102.867 107.634 102.568 107.261 102.344C106.897 102.12 106.481 102.008 106.015 102.008C105.315 102.008 104.727 102.246 104.251 102.722C103.784 103.198 103.551 103.791 103.551 104.5C103.551 105.2 103.784 105.788 104.251 106.264C104.727 106.74 105.315 106.978 106.015 106.978C106.481 106.978 106.901 106.871 107.275 106.656C107.648 106.432 107.933 106.133 108.129 105.76L109.165 106.362C108.866 106.913 108.437 107.356 107.877 107.692C107.317 108.019 106.696 108.182 106.015 108.182ZM115.466 101V102.176H113.086V108H111.868V102.176H109.474V101H115.466ZM117.604 101.112L119.144 103.674L117.604 106.222H116.288L117.828 103.674L116.288 101.112H117.604ZM119.984 101.112L121.524 103.674L119.984 106.222H118.668L120.208 103.674L118.668 101.112H119.984Z" fill="white"/>
<path d="M19.4778 137.144C18.2058 137.144 17.1538 136.724 16.3218 135.884C15.4898 135.044 15.0738 134.016 15.0738 132.8C15.0738 131.584 15.4898 130.556 16.3218 129.716C17.1538 128.876 18.2058 128.456 19.4778 128.456C20.2538 128.456 20.9658 128.644 21.6138 129.02C22.2618 129.388 22.7618 129.888 23.1138 130.52L22.3698 130.952C22.1058 130.44 21.7138 130.032 21.1938 129.728C20.6738 129.424 20.1018 129.272 19.4778 129.272C18.4298 129.272 17.5738 129.612 16.9098 130.292C16.2458 130.972 15.9138 131.808 15.9138 132.8C15.9138 133.792 16.2458 134.628 16.9098 135.308C17.5738 135.988 18.4298 136.328 19.4778 136.328C20.1018 136.328 20.6738 136.176 21.1938 135.872C21.7138 135.568 22.1058 135.16 22.3698 134.648L23.1138 135.068C22.7698 135.7 22.2698 136.204 21.6138 136.58C20.9658 136.956 20.2538 137.144 19.4778 137.144ZM29.3446 136.244C28.7366 136.844 27.9926 137.144 27.1126 137.144C26.2326 137.144 25.4846 136.844 24.8686 136.244C24.2606 135.636 23.9566 134.888 23.9566 134C23.9566 133.112 24.2606 132.368 24.8686 131.768C25.4846 131.16 26.2326 130.856 27.1126 130.856C27.9926 130.856 28.7366 131.16 29.3446 131.768C29.9606 132.368 30.2686 133.112 30.2686 134C30.2686 134.888 29.9606 135.636 29.3446 136.244ZM25.4326 135.692C25.8886 136.148 26.4486 136.376 27.1126 136.376C27.7766 136.376 28.3366 136.148 28.7926 135.692C29.2486 135.228 29.4766 134.664 29.4766 134C29.4766 133.336 29.2486 132.776 28.7926 132.32C28.3366 131.856 27.7766 131.624 27.1126 131.624C26.4486 131.624 25.8886 131.856 25.4326 132.32C24.9766 132.776 24.7486 133.336 24.7486 134C24.7486 134.664 24.9766 135.228 25.4326 135.692ZM34.4555 133.916C35.1515 134.18 35.4995 134.66 35.4995 135.356C35.4995 135.852 35.3035 136.276 34.9115 136.628C34.5275 136.972 33.9755 137.144 33.2555 137.144C32.0475 137.144 31.2555 136.664 30.8795 135.704L31.5515 135.308C31.7995 136.02 32.3675 136.376 33.2555 136.376C33.7195 136.376 34.0755 136.276 34.3235 136.076C34.5795 135.876 34.7075 135.62 34.7075 135.308C34.7075 135.028 34.6035 134.8 34.3955 134.624C34.1875 134.448 33.9075 134.36 33.5555 134.36H32.6795V133.592H33.3155C33.6595 133.592 33.9275 133.508 34.1195 133.34C34.3195 133.164 34.4195 132.924 34.4195 132.62C34.4195 132.332 34.3035 132.096 34.0715 131.912C33.8395 131.72 33.5275 131.624 33.1355 131.624C32.3835 131.624 31.8835 131.924 31.6355 132.524L30.9755 132.14C31.3755 131.284 32.0955 130.856 33.1355 130.856C33.7675 130.856 34.2715 131.024 34.6475 131.36C35.0235 131.688 35.2115 132.092 35.2115 132.572C35.2115 133.188 34.9595 133.636 34.4555 133.916ZM41.6261 136.232H42.4661V138.608H41.6741V137H36.7781V138.608H35.9861V136.232H36.7181C37.1261 135.696 37.3301 134.94 37.3301 133.964V131H41.6261V136.232ZM37.6781 136.232H40.8341V131.768H38.1221V133.964C38.1221 134.884 37.9741 135.64 37.6781 136.232ZM48.5898 131H49.3818V137H48.5898V135.824C48.0378 136.704 47.2298 137.144 46.1658 137.144C45.3098 137.144 44.5778 136.84 43.9698 136.232C43.3698 135.624 43.0698 134.88 43.0698 134C43.0698 133.12 43.3698 132.376 43.9698 131.768C44.5778 131.16 45.3098 130.856 46.1658 130.856C47.2298 130.856 48.0378 131.296 48.5898 132.176V131ZM44.5458 135.692C45.0018 136.148 45.5618 136.376 46.2258 136.376C46.8898 136.376 47.4498 136.148 47.9058 135.692C48.3618 135.228 48.5898 134.664 48.5898 134C48.5898 133.336 48.3618 132.776 47.9058 132.32C47.4498 131.856 46.8898 131.624 46.2258 131.624C45.5618 131.624 45.0018 131.856 44.5458 132.32C44.0898 132.776 43.8618 133.336 43.8618 134C43.8618 134.664 44.0898 135.228 44.5458 135.692ZM55.3068 131H56.0988V137H55.3068V134.384H51.8508V137H51.0588V131H51.8508V133.616H55.3068V131ZM62.1416 131H62.8136V137H62.0216V132.38L58.4456 137H57.7736V131H58.5656V135.62L62.1416 131ZM67.2604 130.856C68.1484 130.856 68.8644 131.172 69.4084 131.804C69.9604 132.428 70.2364 133.168 70.2364 134.024C70.2364 134.112 70.2284 134.236 70.2124 134.396H64.9444C65.0244 135.004 65.2804 135.488 65.7124 135.848C66.1524 136.2 66.6924 136.376 67.3324 136.376C67.7884 136.376 68.1804 136.284 68.5084 136.1C68.8444 135.908 69.0964 135.66 69.2644 135.356L69.9604 135.764C69.6964 136.188 69.3364 136.524 68.8804 136.772C68.4244 137.02 67.9044 137.144 67.3204 137.144C66.3764 137.144 65.6084 136.848 65.0164 136.256C64.4244 135.664 64.1284 134.912 64.1284 134C64.1284 133.104 64.4204 132.356 65.0044 131.756C65.5884 131.156 66.3404 130.856 67.2604 130.856ZM67.2604 131.624C66.6364 131.624 66.1124 131.812 65.6884 132.188C65.2724 132.556 65.0244 133.036 64.9444 133.628H69.4204C69.3404 132.996 69.0964 132.504 68.6884 132.152C68.2804 131.8 67.8044 131.624 67.2604 131.624ZM77.2923 137.144C76.3883 137.144 75.6363 136.844 75.0363 136.244C74.4363 135.636 74.1363 134.888 74.1363 134C74.1363 133.112 74.4363 132.368 75.0363 131.768C75.6363 131.16 76.3883 130.856 77.2923 130.856C77.8843 130.856 78.4163 131 78.8883 131.288C79.3603 131.568 79.7043 131.948 79.9203 132.428L79.2723 132.8C79.1123 132.44 78.8523 132.156 78.4923 131.948C78.1403 131.732 77.7403 131.624 77.2923 131.624C76.6283 131.624 76.0683 131.856 75.6123 132.32C75.1563 132.776 74.9283 133.336 74.9283 134C74.9283 134.664 75.1563 135.228 75.6123 135.692C76.0683 136.148 76.6283 136.376 77.2923 136.376C77.7403 136.376 78.1403 136.272 78.4923 136.064C78.8443 135.848 79.1203 135.56 79.3203 135.2L79.9803 135.584C79.7323 136.064 79.3683 136.444 78.8883 136.724C78.4083 137.004 77.8763 137.144 77.2923 137.144ZM86.0868 136.244C85.4788 136.844 84.7348 137.144 83.8548 137.144C82.9748 137.144 82.2268 136.844 81.6108 136.244C81.0028 135.636 80.6988 134.888 80.6988 134C80.6988 133.112 81.0028 132.368 81.6108 131.768C82.2268 131.16 82.9748 130.856 83.8548 130.856C84.7348 130.856 85.4788 131.16 86.0868 131.768C86.7028 132.368 87.0108 133.112 87.0108 134C87.0108 134.888 86.7028 135.636 86.0868 136.244ZM82.1748 135.692C82.6308 136.148 83.1908 136.376 83.8548 136.376C84.5188 136.376 85.0788 136.148 85.5348 135.692C85.9908 135.228 86.2188 134.664 86.2188 134C86.2188 133.336 85.9908 132.776 85.5348 132.32C85.0788 131.856 84.5188 131.624 83.8548 131.624C83.1908 131.624 82.6308 131.856 82.1748 132.32C81.7188 132.776 81.4908 133.336 81.4908 134C81.4908 134.664 81.7188 135.228 82.1748 135.692ZM91.0001 137.144C90.1361 137.144 89.4161 136.86 88.8401 136.292C88.2641 135.716 87.9761 134.972 87.9761 134.06C87.9761 133.036 88.1281 132.252 88.4321 131.708C88.7361 131.156 89.3521 130.656 90.2801 130.208C90.4561 130.12 90.6881 130.016 90.9761 129.896C91.2721 129.776 91.4921 129.68 91.6361 129.608C91.7881 129.536 91.9521 129.444 92.1281 129.332C92.3041 129.212 92.4361 129.08 92.5241 128.936C92.6121 128.792 92.6681 128.62 92.6921 128.42L93.3161 128.78C93.2841 128.972 93.2201 129.152 93.1241 129.32C93.0281 129.488 92.9281 129.624 92.8241 129.728C92.7281 129.832 92.5721 129.948 92.3561 130.076C92.1481 130.196 91.9841 130.284 91.8641 130.34C91.7521 130.388 91.5521 130.472 91.2641 130.592C90.9841 130.712 90.7961 130.792 90.7001 130.832C90.1401 131.072 89.7281 131.324 89.4641 131.588C89.2001 131.844 89.0121 132.18 88.9001 132.596C89.1721 132.236 89.5161 131.972 89.9321 131.804C90.3561 131.628 90.7681 131.54 91.1681 131.54C91.9681 131.54 92.6281 131.804 93.1481 132.332C93.6761 132.852 93.9401 133.52 93.9401 134.336C93.9401 135.144 93.6601 135.816 93.1001 136.352C92.5481 136.88 91.8481 137.144 91.0001 137.144ZM91.0001 136.352C91.6241 136.352 92.1361 136.164 92.5361 135.788C92.9441 135.404 93.1481 134.92 93.1481 134.336C93.1481 133.744 92.9561 133.26 92.5721 132.884C92.1961 132.5 91.6921 132.308 91.0601 132.308C90.4921 132.308 89.9761 132.488 89.5121 132.848C89.0481 133.2 88.8161 133.672 88.8161 134.264C88.8161 134.872 89.0241 135.372 89.4401 135.764C89.8641 136.156 90.3841 136.352 91.0001 136.352ZM97.9407 137.144C97.0367 137.144 96.2847 136.844 95.6847 136.244C95.0847 135.636 94.7847 134.888 94.7847 134C94.7847 133.112 95.0847 132.368 95.6847 131.768C96.2847 131.16 97.0367 130.856 97.9407 130.856C98.5327 130.856 99.0647 131 99.5367 131.288C100.009 131.568 100.353 131.948 100.569 132.428L99.9207 132.8C99.7607 132.44 99.5007 132.156 99.1407 131.948C98.7887 131.732 98.3887 131.624 97.9407 131.624C97.2767 131.624 96.7167 131.856 96.2607 132.32C95.8047 132.776 95.5767 133.336 95.5767 134C95.5767 134.664 95.8047 135.228 96.2607 135.692C96.7167 136.148 97.2767 136.376 97.9407 136.376C98.3887 136.376 98.7887 136.272 99.1407 136.064C99.4927 135.848 99.7687 135.56 99.9687 135.2L100.629 135.584C100.381 136.064 100.017 136.444 99.5367 136.724C99.0567 137.004 98.5247 137.144 97.9407 137.144ZM105.969 131V131.768H103.845V137H103.053V131.768H100.929V131H105.969ZM110.75 133.916C111.406 134.156 111.734 134.624 111.734 135.32C111.734 135.808 111.57 136.212 111.242 136.532C110.922 136.844 110.458 137 109.85 137H106.934V131H109.61C110.194 131 110.646 131.152 110.966 131.456C111.286 131.752 111.446 132.136 111.446 132.608C111.446 133.208 111.214 133.644 110.75 133.916ZM109.61 131.768H107.726V133.592H109.61C110.306 133.592 110.654 133.28 110.654 132.656C110.654 132.376 110.562 132.16 110.378 132.008C110.202 131.848 109.946 131.768 109.61 131.768ZM109.85 136.232C110.202 136.232 110.47 136.148 110.654 135.98C110.846 135.812 110.942 135.576 110.942 135.272C110.942 134.992 110.846 134.772 110.654 134.612C110.47 134.444 110.202 134.36 109.85 134.36H107.726V136.232H109.85ZM115.706 130.856C116.594 130.856 117.31 131.172 117.854 131.804C118.406 132.428 118.682 133.168 118.682 134.024C118.682 134.112 118.674 134.236 118.658 134.396H113.39C113.47 135.004 113.726 135.488 114.158 135.848C114.598 136.2 115.138 136.376 115.778 136.376C116.234 136.376 116.626 136.284 116.954 136.1C117.29 135.908 117.542 135.66 117.71 135.356L118.406 135.764C118.142 136.188 117.782 136.524 117.326 136.772C116.87 137.02 116.35 137.144 115.766 137.144C114.822 137.144 114.054 136.848 113.462 136.256C112.87 135.664 112.574 134.912 112.574 134C112.574 133.104 112.866 132.356 113.45 131.756C114.034 131.156 114.786 130.856 115.706 130.856ZM115.706 131.624C115.082 131.624 114.558 131.812 114.134 132.188C113.718 132.556 113.47 133.036 113.39 133.628H117.866C117.786 132.996 117.542 132.504 117.134 132.152C116.726 131.8 116.25 131.624 115.706 131.624ZM124.19 131H124.982V137H124.19V134.384H120.734V137H119.942V131H120.734V133.616H124.19V131ZM130.904 131H131.696V137H130.904V134.384H127.448V137H126.656V131H127.448V133.616H130.904V131ZM135.807 133.28C136.367 133.28 136.839 133.456 137.223 133.808C137.615 134.152 137.811 134.596 137.811 135.14C137.811 135.684 137.615 136.132 137.223 136.484C136.839 136.828 136.367 137 135.807 137H133.371V131H134.163V133.28H135.807ZM138.651 131H139.443V137H138.651V131ZM135.807 136.232C136.143 136.232 136.427 136.132 136.659 135.932C136.899 135.732 137.019 135.468 137.019 135.14C137.019 134.812 136.899 134.548 136.659 134.348C136.427 134.148 136.143 134.048 135.807 134.048H134.163V136.232H135.807ZM146.169 137H145.221L143.349 134.528L141.477 137H140.529L142.881 133.892L140.685 131H141.633L143.349 133.268L145.065 131H146.013L143.829 133.892L146.169 137ZM15.0794 145V151H14.2874V146.212L12.1874 149.62H12.0914L9.99138 146.212V151H9.19938V145H10.1114L12.1394 148.288L14.1674 145H15.0794ZM21.918 145H22.71V151H21.918V149.824C21.366 150.704 20.558 151.144 19.494 151.144C18.638 151.144 17.906 150.84 17.298 150.232C16.698 149.624 16.398 148.88 16.398 148C16.398 147.12 16.698 146.376 17.298 145.768C17.906 145.16 18.638 144.856 19.494 144.856C20.558 144.856 21.366 145.296 21.918 146.176V145ZM17.874 149.692C18.33 150.148 18.89 150.376 19.554 150.376C20.218 150.376 20.778 150.148 21.234 149.692C21.69 149.228 21.918 148.664 21.918 148C21.918 147.336 21.69 146.776 21.234 146.32C20.778 145.856 20.218 145.624 19.554 145.624C18.89 145.624 18.33 145.856 17.874 146.32C17.418 146.776 17.19 147.336 17.19 148C17.19 148.664 17.418 149.228 17.874 149.692ZM28.7069 145V145.768H26.5829V151H25.7909V145.768H23.6669V145H28.7069ZM33.56 145H34.352V151H33.56V148.72C33.096 148.96 32.524 149.08 31.844 149.08C31.06 149.08 30.46 148.9 30.044 148.54C29.636 148.172 29.432 147.632 29.432 146.92V145H30.224V146.92C30.224 147.424 30.356 147.788 30.62 148.012C30.884 148.228 31.284 148.336 31.82 148.336C32.444 148.336 33.024 148.22 33.56 147.988V145ZM38.8073 144.856C39.6953 144.856 40.4113 145.172 40.9553 145.804C41.5073 146.428 41.7833 147.168 41.7833 148.024C41.7833 148.112 41.7753 148.236 41.7593 148.396H36.4913C36.5713 149.004 36.8273 149.488 37.2593 149.848C37.6993 150.2 38.2393 150.376 38.8793 150.376C39.3353 150.376 39.7273 150.284 40.0553 150.1C40.3913 149.908 40.6433 149.66 40.8113 149.356L41.5073 149.764C41.2433 150.188 40.8833 150.524 40.4273 150.772C39.9713 151.02 39.4513 151.144 38.8673 151.144C37.9233 151.144 37.1553 150.848 36.5633 150.256C35.9713 149.664 35.6753 148.912 35.6753 148C35.6753 147.104 35.9673 146.356 36.5513 145.756C37.1353 145.156 37.8873 144.856 38.8073 144.856ZM38.8073 145.624C38.1833 145.624 37.6593 145.812 37.2353 146.188C36.8193 146.556 36.5713 147.036 36.4913 147.628H40.9673C40.8873 146.996 40.6433 146.504 40.2353 146.152C39.8273 145.8 39.3513 145.624 38.8073 145.624ZM44.0031 144.04V143.344H47.1231V144.04H44.0031ZM47.4111 145H48.0831V151H47.2911V146.38L43.7151 151H43.0431V145H43.8351V149.62L47.4111 145ZM57.126 145H57.798V151H57.006V146.38L53.43 151H52.758V145H53.55V149.62L57.126 145ZM67.5128 145V151H66.7208V145.768H63.2648V151H62.4728V145H67.5128ZM74.2157 150.244C73.6077 150.844 72.8637 151.144 71.9837 151.144C71.1037 151.144 70.3557 150.844 69.7397 150.244C69.1317 149.636 68.8277 148.888 68.8277 148C68.8277 147.112 69.1317 146.368 69.7397 145.768C70.3557 145.16 71.1037 144.856 71.9837 144.856C72.8637 144.856 73.6077 145.16 74.2157 145.768C74.8317 146.368 75.1397 147.112 75.1397 148C75.1397 148.888 74.8317 149.636 74.2157 150.244ZM70.3037 149.692C70.7597 150.148 71.3197 150.376 71.9837 150.376C72.6477 150.376 73.2077 150.148 73.6637 149.692C74.1197 149.228 74.3477 148.664 74.3477 148C74.3477 147.336 74.1197 146.776 73.6637 146.32C73.2077 145.856 72.6477 145.624 71.9837 145.624C71.3197 145.624 70.7597 145.856 70.3037 146.32C69.8477 146.776 69.6197 147.336 69.6197 148C69.6197 148.664 69.8477 149.228 70.3037 149.692ZM80.833 145H81.505V151H80.713V146.38L77.137 151H76.465V145H77.257V149.62L80.833 145ZM85.9758 151.144C85.0718 151.144 84.3198 150.844 83.7198 150.244C83.1198 149.636 82.8198 148.888 82.8198 148C82.8198 147.112 83.1198 146.368 83.7198 145.768C84.3198 145.16 85.0718 144.856 85.9758 144.856C86.5678 144.856 87.0998 145 87.5718 145.288C88.0438 145.568 88.3878 145.948 88.6038 146.428L87.9558 146.8C87.7958 146.44 87.5358 146.156 87.1758 145.948C86.8238 145.732 86.4238 145.624 85.9758 145.624C85.3118 145.624 84.7518 145.856 84.2958 146.32C83.8398 146.776 83.6118 147.336 83.6118 148C83.6118 148.664 83.8398 149.228 84.2958 149.692C84.7518 150.148 85.3118 150.376 85.9758 150.376C86.4238 150.376 86.8238 150.272 87.1758 150.064C87.5278 149.848 87.8038 149.56 88.0038 149.2L88.6638 149.584C88.4158 150.064 88.0518 150.444 87.5718 150.724C87.0918 151.004 86.5598 151.144 85.9758 151.144ZM94.6489 151H93.5929L90.5929 148.108V151H89.8009V145H90.5929V147.652L93.4489 145H94.5289L91.4329 147.88L94.6489 151ZM103.099 145H103.771V151H102.979V146.38L99.4026 151H98.7306V145H99.5226V149.62L103.099 145ZM109.285 145V145.768H106.237V151H105.445V145H109.285ZM113.466 144.856C114.322 144.856 115.05 145.16 115.65 145.768C116.258 146.376 116.562 147.12 116.562 148C116.562 148.88 116.258 149.624 115.65 150.232C115.05 150.84 114.322 151.144 113.466 151.144C112.402 151.144 111.594 150.704 111.042 149.824V153.4H110.25V145H111.042V146.176C111.594 145.296 112.402 144.856 113.466 144.856ZM111.726 149.692C112.182 150.148 112.742 150.376 113.406 150.376C114.07 150.376 114.63 150.148 115.086 149.692C115.542 149.228 115.77 148.664 115.77 148C115.77 147.336 115.542 146.776 115.086 146.32C114.63 145.856 114.07 145.624 113.406 145.624C112.742 145.624 112.182 145.856 111.726 146.32C111.27 146.776 111.042 147.336 111.042 148C111.042 148.664 111.27 149.228 111.726 149.692ZM122.907 150.244C122.299 150.844 121.555 151.144 120.675 151.144C119.795 151.144 119.047 150.844 118.431 150.244C117.823 149.636 117.519 148.888 117.519 148C117.519 147.112 117.823 146.368 118.431 145.768C119.047 145.16 119.795 144.856 120.675 144.856C121.555 144.856 122.299 145.16 122.907 145.768C123.523 146.368 123.831 147.112 123.831 148C123.831 148.888 123.523 149.636 122.907 150.244ZM118.995 149.692C119.451 150.148 120.011 150.376 120.675 150.376C121.339 150.376 121.899 150.148 122.355 149.692C122.811 149.228 123.039 148.664 123.039 148C123.039 147.336 122.811 146.776 122.355 146.32C121.899 145.856 121.339 145.624 120.675 145.624C120.011 145.624 119.451 145.856 118.995 146.32C118.539 146.776 118.311 147.336 118.311 148C118.311 148.664 118.539 149.228 118.995 149.692ZM130.004 151H128.948L125.948 148.108V151H125.156V145H125.948V147.652L128.804 145H129.884L126.788 147.88L130.004 151ZM135.516 150.244C134.908 150.844 134.164 151.144 133.284 151.144C132.404 151.144 131.656 150.844 131.04 150.244C130.432 149.636 130.128 148.888 130.128 148C130.128 147.112 130.432 146.368 131.04 145.768C131.656 145.16 132.404 144.856 133.284 144.856C134.164 144.856 134.908 145.16 135.516 145.768C136.132 146.368 136.44 147.112 136.44 148C136.44 148.888 136.132 149.636 135.516 150.244ZM131.604 149.692C132.06 150.148 132.62 150.376 133.284 150.376C133.948 150.376 134.508 150.148 134.964 149.692C135.42 149.228 135.648 148.664 135.648 148C135.648 147.336 135.42 146.776 134.964 146.32C134.508 145.856 133.948 145.624 133.284 145.624C132.62 145.624 132.06 145.856 131.604 146.32C131.148 146.776 130.92 147.336 130.92 148C130.92 148.664 131.148 149.228 131.604 149.692ZM141.582 147.916C142.238 148.156 142.566 148.624 142.566 149.32C142.566 149.808 142.402 150.212 142.074 150.532C141.754 150.844 141.29 151 140.682 151H137.766V145H140.442C141.026 145 141.478 145.152 141.798 145.456C142.118 145.752 142.278 146.136 142.278 146.608C142.278 147.208 142.046 147.644 141.582 147.916ZM140.442 145.768H138.558V147.592H140.442C141.138 147.592 141.486 147.28 141.486 146.656C141.486 146.376 141.394 146.16 141.21 146.008C141.034 145.848 140.778 145.768 140.442 145.768ZM140.682 150.232C141.034 150.232 141.302 150.148 141.486 149.98C141.678 149.812 141.774 149.576 141.774 149.272C141.774 148.992 141.678 148.772 141.486 148.612C141.302 148.444 141.034 148.36 140.682 148.36H138.558V150.232H140.682ZM151.134 145H151.806V151H151.014V146.38L147.438 151H146.766V145H147.558V149.62L151.134 145ZM46.4849 165H45.4289L42.4289 162.108V165H41.6369V159H42.4289V161.652L45.2849 159H46.3649L43.2689 161.88L46.4849 165ZM51.9969 164.244C51.3889 164.844 50.6449 165.144 49.7649 165.144C48.8849 165.144 48.1369 164.844 47.5209 164.244C46.9129 163.636 46.6089 162.888 46.6089 162C46.6089 161.112 46.9129 160.368 47.5209 159.768C48.1369 159.16 48.8849 158.856 49.7649 158.856C50.6449 158.856 51.3889 159.16 51.9969 159.768C52.6129 160.368 52.9209 161.112 52.9209 162C52.9209 162.888 52.6129 163.636 51.9969 164.244ZM48.0849 163.692C48.5409 164.148 49.1009 164.376 49.7649 164.376C50.4289 164.376 50.9889 164.148 51.4449 163.692C51.9009 163.228 52.1289 162.664 52.1289 162C52.1289 161.336 51.9009 160.776 51.4449 160.32C50.9889 159.856 50.4289 159.624 49.7649 159.624C49.1009 159.624 48.5409 159.856 48.0849 160.32C47.6289 160.776 47.4009 161.336 47.4009 162C47.4009 162.664 47.6289 163.228 48.0849 163.692ZM60.1263 159V165H59.3343V160.212L57.2343 163.62H57.1383L55.0383 160.212V165H54.2463V159H55.1583L57.1863 162.288L59.2143 159H60.1263ZM66.9648 159H67.7568V165H66.9648V163.824C66.4128 164.704 65.6048 165.144 64.5408 165.144C63.6848 165.144 62.9528 164.84 62.3448 164.232C61.7448 163.624 61.4448 162.88 61.4448 162C61.4448 161.12 61.7448 160.376 62.3448 159.768C62.9528 159.16 63.6848 158.856 64.5408 158.856C65.6048 158.856 66.4128 159.296 66.9648 160.176V159ZM62.9208 163.692C63.3768 164.148 63.9368 164.376 64.6008 164.376C65.2648 164.376 65.8248 164.148 66.2808 163.692C66.7368 163.228 66.9648 162.664 66.9648 162C66.9648 161.336 66.7368 160.776 66.2808 160.32C65.8248 159.856 65.2648 159.624 64.6008 159.624C63.9368 159.624 63.3768 159.856 62.9208 160.32C62.4648 160.776 62.2368 161.336 62.2368 162C62.2368 162.664 62.4648 163.228 62.9208 163.692ZM73.6818 159H74.4738V165H73.6818V162.384H70.2258V165H69.4338V159H70.2258V161.616H73.6818V159ZM81.1886 164.232H82.0286V166.608H81.2366V165H76.3406V166.608H75.5486V164.232H76.2806C76.6886 163.696 76.8926 162.94 76.8926 161.964V159H81.1886V164.232ZM77.2406 164.232H80.3966V159.768H77.6846V161.964C77.6846 162.884 77.5366 163.64 77.2406 164.232ZM89.0227 165.144C88.1187 165.144 87.3667 164.844 86.7667 164.244C86.1667 163.636 85.8667 162.888 85.8667 162C85.8667 161.112 86.1667 160.368 86.7667 159.768C87.3667 159.16 88.1187 158.856 89.0227 158.856C89.6147 158.856 90.1467 159 90.6187 159.288C91.0907 159.568 91.4347 159.948 91.6507 160.428L91.0027 160.8C90.8427 160.44 90.5827 160.156 90.2227 159.948C89.8707 159.732 89.4707 159.624 89.0227 159.624C88.3587 159.624 87.7987 159.856 87.3427 160.32C86.8867 160.776 86.6587 161.336 86.6587 162C86.6587 162.664 86.8867 163.228 87.3427 163.692C87.7987 164.148 88.3587 164.376 89.0227 164.376C89.4707 164.376 89.8707 164.272 90.2227 164.064C90.5747 163.848 90.8507 163.56 91.0507 163.2L91.7107 163.584C91.4627 164.064 91.0987 164.444 90.6187 164.724C90.1387 165.004 89.6067 165.144 89.0227 165.144ZM96.0638 158.856C96.9198 158.856 97.6478 159.16 98.2478 159.768C98.8558 160.376 99.1598 161.12 99.1598 162C99.1598 162.88 98.8558 163.624 98.2478 164.232C97.6478 164.84 96.9198 165.144 96.0638 165.144C94.9998 165.144 94.1918 164.704 93.6398 163.824V167.4H92.8478V159H93.6398V160.176C94.1918 159.296 94.9998 158.856 96.0638 158.856ZM94.3238 163.692C94.7798 164.148 95.3398 164.376 96.0038 164.376C96.6678 164.376 97.2278 164.148 97.6838 163.692C98.1398 163.228 98.3678 162.664 98.3678 162C98.3678 161.336 98.1398 160.776 97.6838 160.32C97.2278 159.856 96.6678 159.624 96.0038 159.624C95.3398 159.624 94.7798 159.856 94.3238 160.32C93.8678 160.776 93.6398 161.336 93.6398 162C93.6398 162.664 93.8678 163.228 94.3238 163.692ZM103.249 158.856C104.137 158.856 104.853 159.172 105.397 159.804C105.949 160.428 106.225 161.168 106.225 162.024C106.225 162.112 106.217 162.236 106.201 162.396H100.933C101.013 163.004 101.269 163.488 101.701 163.848C102.141 164.2 102.681 164.376 103.321 164.376C103.777 164.376 104.169 164.284 104.497 164.1C104.833 163.908 105.085 163.66 105.253 163.356L105.949 163.764C105.685 164.188 105.325 164.524 104.869 164.772C104.413 165.02 103.893 165.144 103.309 165.144C102.365 165.144 101.597 164.848 101.005 164.256C100.413 163.664 100.117 162.912 100.117 162C100.117 161.104 100.409 160.356 100.993 159.756C101.577 159.156 102.329 158.856 103.249 158.856ZM103.249 159.624C102.625 159.624 102.101 159.812 101.677 160.188C101.261 160.556 101.013 161.036 100.933 161.628H105.409C105.329 160.996 105.085 160.504 104.677 160.152C104.269 159.8 103.793 159.624 103.249 159.624ZM112.29 164.232H113.13V166.608H112.338V165H107.442V166.608H106.65V164.232H107.382C107.79 163.696 107.994 162.94 107.994 161.964V159H112.29V164.232ZM108.342 164.232H111.498V159.768H108.786V161.964C108.786 162.884 108.638 163.64 108.342 164.232ZM118.696 159H119.368V165H118.576V160.38L115 165H114.328V159H115.12V163.62L118.696 159ZM30.3557 173V179H29.5637V173.768H26.8517V176.444C26.8517 177.444 26.6597 178.132 26.2757 178.508C25.8997 178.884 25.3797 179.048 24.7157 179V178.256C25.1717 178.304 25.5077 178.196 25.7237 177.932C25.9477 177.668 26.0597 177.172 26.0597 176.444V173H30.3557ZM37.1574 172.856C38.0374 172.856 38.7814 173.16 39.3894 173.768C40.0054 174.368 40.3134 175.112 40.3134 176C40.3134 176.888 40.0054 177.636 39.3894 178.244C38.7814 178.844 38.0374 179.144 37.1574 179.144C36.3494 179.144 35.6534 178.884 35.0694 178.364C34.4934 177.836 34.1614 177.176 34.0734 176.384H32.8254V179H32.0334V173H32.8254V175.616H34.0734C34.1614 174.824 34.4934 174.168 35.0694 173.648C35.6534 173.12 36.3494 172.856 37.1574 172.856ZM35.4774 177.692C35.9334 178.148 36.4934 178.376 37.1574 178.376C37.8214 178.376 38.3814 178.148 38.8374 177.692C39.2934 177.228 39.5214 176.664 39.5214 176C39.5214 175.336 39.2934 174.776 38.8374 174.32C38.3814 173.856 37.8214 173.624 37.1574 173.624C36.4934 173.624 35.9334 173.856 35.4774 174.32C35.0214 174.776 34.7934 175.336 34.7934 176C34.7934 176.664 35.0214 177.228 35.4774 177.692ZM44.295 179.144C43.431 179.144 42.711 178.86 42.135 178.292C41.559 177.716 41.271 176.972 41.271 176.06C41.271 175.036 41.423 174.252 41.727 173.708C42.031 173.156 42.647 172.656 43.575 172.208C43.751 172.12 43.983 172.016 44.271 171.896C44.567 171.776 44.787 171.68 44.931 171.608C45.083 171.536 45.247 171.444 45.423 171.332C45.599 171.212 45.731 171.08 45.819 170.936C45.907 170.792 45.963 170.62 45.987 170.42L46.611 170.78C46.579 170.972 46.515 171.152 46.419 171.32C46.323 171.488 46.223 171.624 46.119 171.728C46.023 171.832 45.867 171.948 45.651 172.076C45.443 172.196 45.279 172.284 45.159 172.34C45.047 172.388 44.847 172.472 44.559 172.592C44.279 172.712 44.091 172.792 43.995 172.832C43.435 173.072 43.023 173.324 42.759 173.588C42.495 173.844 42.307 174.18 42.195 174.596C42.467 174.236 42.811 173.972 43.227 173.804C43.651 173.628 44.063 173.54 44.463 173.54C45.263 173.54 45.923 173.804 46.443 174.332C46.971 174.852 47.235 175.52 47.235 176.336C47.235 177.144 46.955 177.816 46.395 178.352C45.843 178.88 45.143 179.144 44.295 179.144ZM44.295 178.352C44.919 178.352 45.431 178.164 45.831 177.788C46.239 177.404 46.443 176.92 46.443 176.336C46.443 175.744 46.251 175.26 45.867 174.884C45.491 174.5 44.987 174.308 44.355 174.308C43.787 174.308 43.271 174.488 42.807 174.848C42.343 175.2 42.111 175.672 42.111 176.264C42.111 176.872 42.319 177.372 42.735 177.764C43.159 178.156 43.679 178.352 44.295 178.352ZM52.8076 173H53.4796V179H52.6876V174.38L49.1116 179H48.4396V173H49.2316V177.62L52.8076 173ZM59.4745 173V173.768H57.3505V179H56.5585V173.768H54.4345V173H59.4745ZM62.9772 172.856C63.8652 172.856 64.5812 173.172 65.1252 173.804C65.6772 174.428 65.9532 175.168 65.9532 176.024C65.9532 176.112 65.9452 176.236 65.9292 176.396H60.6612C60.7412 177.004 60.9972 177.488 61.4292 177.848C61.8692 178.2 62.4092 178.376 63.0492 178.376C63.5052 178.376 63.8972 178.284 64.2252 178.1C64.5612 177.908 64.8132 177.66 64.9812 177.356L65.6772 177.764C65.4132 178.188 65.0532 178.524 64.5972 178.772C64.1412 179.02 63.6212 179.144 63.0372 179.144C62.0932 179.144 61.3252 178.848 60.7332 178.256C60.1412 177.664 59.8452 176.912 59.8452 176C59.8452 175.104 60.1372 174.356 60.7212 173.756C61.3052 173.156 62.0572 172.856 62.9772 172.856ZM62.9772 173.624C62.3532 173.624 61.8292 173.812 61.4052 174.188C60.9892 174.556 60.7412 175.036 60.6612 175.628H65.1372C65.0572 174.996 64.8132 174.504 64.4052 174.152C63.9972 173.8 63.5212 173.624 62.9772 173.624ZM71.8987 173V179H71.1067V173.768H68.3947V176.444C68.3947 177.444 68.2027 178.132 67.8187 178.508C67.4427 178.884 66.9227 179.048 66.2587 179V178.256C66.7147 178.304 67.0507 178.196 67.2667 177.932C67.4907 177.668 67.6027 177.172 67.6027 176.444V173H71.8987ZM76.3483 172.856C77.2363 172.856 77.9523 173.172 78.4963 173.804C79.0483 174.428 79.3243 175.168 79.3243 176.024C79.3243 176.112 79.3163 176.236 79.3003 176.396H74.0323C74.1123 177.004 74.3683 177.488 74.8003 177.848C75.2403 178.2 75.7803 178.376 76.4203 178.376C76.8763 178.376 77.2683 178.284 77.5963 178.1C77.9323 177.908 78.1843 177.66 78.3523 177.356L79.0483 177.764C78.7843 178.188 78.4243 178.524 77.9683 178.772C77.5123 179.02 76.9923 179.144 76.4083 179.144C75.4643 179.144 74.6963 178.848 74.1043 178.256C73.5123 177.664 73.2163 176.912 73.2163 176C73.2163 175.104 73.5083 174.356 74.0923 173.756C74.6763 173.156 75.4283 172.856 76.3483 172.856ZM76.3483 173.624C75.7243 173.624 75.2003 173.812 74.7763 174.188C74.3603 174.556 74.1123 175.036 74.0323 175.628H78.5083C78.4283 174.996 78.1843 174.504 77.7763 174.152C77.3683 173.8 76.8923 173.624 76.3483 173.624ZM81.5441 172.04V171.344H84.6641V172.04H81.5441ZM84.9521 173H85.6241V179H84.8321V174.38L81.2561 179H80.5841V173H81.3761V177.62L84.9521 173ZM88.307 178.928C88.179 179.056 88.023 179.12 87.839 179.12C87.655 179.12 87.499 179.056 87.371 178.928C87.243 178.8 87.179 178.644 87.179 178.46C87.179 178.276 87.243 178.12 87.371 177.992C87.499 177.864 87.655 177.8 87.839 177.8C88.023 177.8 88.179 177.864 88.307 177.992C88.435 178.12 88.499 178.276 88.499 178.46C88.499 178.644 88.435 178.8 88.307 178.928ZM99.1846 170.6V179H98.3446V171.392H94.0246V179H93.1846V170.6H99.1846ZM106.014 178.244C105.406 178.844 104.662 179.144 103.782 179.144C102.902 179.144 102.154 178.844 101.538 178.244C100.93 177.636 100.626 176.888 100.626 176C100.626 175.112 100.93 174.368 101.538 173.768C102.154 173.16 102.902 172.856 103.782 172.856C104.662 172.856 105.406 173.16 106.014 173.768C106.63 174.368 106.938 175.112 106.938 176C106.938 176.888 106.63 177.636 106.014 178.244ZM102.102 177.692C102.558 178.148 103.118 178.376 103.782 178.376C104.446 178.376 105.006 178.148 105.462 177.692C105.918 177.228 106.146 176.664 106.146 176C106.146 175.336 105.918 174.776 105.462 174.32C105.006 173.856 104.446 173.624 103.782 173.624C103.118 173.624 102.558 173.856 102.102 174.32C101.646 174.776 101.418 175.336 101.418 176C101.418 176.664 101.646 177.228 102.102 177.692ZM112.632 173H113.304V179H112.512V174.38L108.936 179H108.264V173H109.056V177.62L112.632 173ZM117.775 179.144C116.871 179.144 116.119 178.844 115.519 178.244C114.919 177.636 114.619 176.888 114.619 176C114.619 175.112 114.919 174.368 115.519 173.768C116.119 173.16 116.871 172.856 117.775 172.856C118.367 172.856 118.899 173 119.371 173.288C119.843 173.568 120.187 173.948 120.403 174.428L119.755 174.8C119.595 174.44 119.335 174.156 118.975 173.948C118.623 173.732 118.223 173.624 117.775 173.624C117.111 173.624 116.551 173.856 116.095 174.32C115.639 174.776 115.411 175.336 115.411 176C115.411 176.664 115.639 177.228 116.095 177.692C116.551 178.148 117.111 178.376 117.775 178.376C118.223 178.376 118.623 178.272 118.975 178.064C119.327 177.848 119.603 177.56 119.803 177.2L120.463 177.584C120.215 178.064 119.851 178.444 119.371 178.724C118.891 179.004 118.359 179.144 117.775 179.144ZM126.448 179H125.392L122.392 176.108V179H121.6V173H122.392V175.652L125.248 173H126.328L123.232 175.88L126.448 179ZM134.897 173H135.569V179H134.777V174.38L131.201 179H130.529V173H131.321V177.62L134.897 173ZM41.9454 193.144C41.0814 193.144 40.3614 192.86 39.7854 192.292C39.2094 191.716 38.9214 190.972 38.9214 190.06C38.9214 189.036 39.0734 188.252 39.3774 187.708C39.6814 187.156 40.2974 186.656 41.2254 186.208C41.4014 186.12 41.6334 186.016 41.9214 185.896C42.2174 185.776 42.4374 185.68 42.5814 185.608C42.7334 185.536 42.8974 185.444 43.0734 185.332C43.2494 185.212 43.3814 185.08 43.4694 184.936C43.5574 184.792 43.6134 184.62 43.6374 184.42L44.2614 184.78C44.2294 184.972 44.1654 185.152 44.0694 185.32C43.9734 185.488 43.8734 185.624 43.7694 185.728C43.6734 185.832 43.5174 185.948 43.3014 186.076C43.0934 186.196 42.9294 186.284 42.8094 186.34C42.6974 186.388 42.4974 186.472 42.2094 186.592C41.9294 186.712 41.7414 186.792 41.6454 186.832C41.0854 187.072 40.6734 187.324 40.4094 187.588C40.1454 187.844 39.9574 188.18 39.8454 188.596C40.1174 188.236 40.4614 187.972 40.8774 187.804C41.3014 187.628 41.7134 187.54 42.1134 187.54C42.9134 187.54 43.5734 187.804 44.0934 188.332C44.6214 188.852 44.8854 189.52 44.8854 190.336C44.8854 191.144 44.6054 191.816 44.0454 192.352C43.4934 192.88 42.7934 193.144 41.9454 193.144ZM41.9454 192.352C42.5694 192.352 43.0814 192.164 43.4814 191.788C43.8894 191.404 44.0934 190.92 44.0934 190.336C44.0934 189.744 43.9014 189.26 43.5174 188.884C43.1414 188.5 42.6374 188.308 42.0054 188.308C41.4374 188.308 40.9214 188.488 40.4574 188.848C39.9934 189.2 39.7614 189.672 39.7614 190.264C39.7614 190.872 39.9694 191.372 40.3854 191.764C40.8094 192.156 41.3294 192.352 41.9454 192.352ZM49.306 186.856C50.162 186.856 50.89 187.16 51.49 187.768C52.098 188.376 52.402 189.12 52.402 190C52.402 190.88 52.098 191.624 51.49 192.232C50.89 192.84 50.162 193.144 49.306 193.144C48.242 193.144 47.434 192.704 46.882 191.824V195.4H46.09V187H46.882V188.176C47.434 187.296 48.242 186.856 49.306 186.856ZM47.566 191.692C48.022 192.148 48.582 192.376 49.246 192.376C49.91 192.376 50.47 192.148 50.926 191.692C51.382 191.228 51.61 190.664 51.61 190C51.61 189.336 51.382 188.776 50.926 188.32C50.47 187.856 49.91 187.624 49.246 187.624C48.582 187.624 48.022 187.856 47.566 188.32C47.11 188.776 46.882 189.336 46.882 190C46.882 190.664 47.11 191.228 47.566 191.692ZM58.7469 192.244C58.1389 192.844 57.3949 193.144 56.5149 193.144C55.6349 193.144 54.8869 192.844 54.2709 192.244C53.6629 191.636 53.3589 190.888 53.3589 190C53.3589 189.112 53.6629 188.368 54.2709 187.768C54.8869 187.16 55.6349 186.856 56.5149 186.856C57.3949 186.856 58.1389 187.16 58.7469 187.768C59.3629 188.368 59.6709 189.112 59.6709 190C59.6709 190.888 59.3629 191.636 58.7469 192.244ZM54.8349 191.692C55.2909 192.148 55.8509 192.376 56.5149 192.376C57.1789 192.376 57.7389 192.148 58.1949 191.692C58.6509 191.228 58.8789 190.664 58.8789 190C58.8789 189.336 58.6509 188.776 58.1949 188.32C57.7389 187.856 57.1789 187.624 56.5149 187.624C55.8509 187.624 55.2909 187.856 54.8349 188.32C54.3789 188.776 54.1509 189.336 54.1509 190C54.1509 190.664 54.3789 191.228 54.8349 191.692ZM65.2443 187H66.0363V193H65.2443V190.384H61.7883V193H60.9963V187H61.7883V189.616H65.2443V187ZM72.0791 187H72.7511V193H71.9591V188.38L68.3831 193H67.7111V187H68.5031V191.62L72.0791 187ZM77.6419 186.856C78.4979 186.856 79.2259 187.16 79.8259 187.768C80.4339 188.376 80.7379 189.12 80.7379 190C80.7379 190.88 80.4339 191.624 79.8259 192.232C79.2259 192.84 78.4979 193.144 77.6419 193.144C76.5779 193.144 75.7699 192.704 75.2179 191.824V195.4H74.4259V187H75.2179V188.176C75.7699 187.296 76.5779 186.856 77.6419 186.856ZM75.9019 191.692C76.3579 192.148 76.9179 192.376 77.5819 192.376C78.2459 192.376 78.8059 192.148 79.2619 191.692C79.7179 191.228 79.9459 190.664 79.9459 190C79.9459 189.336 79.7179 188.776 79.2619 188.32C78.8059 187.856 78.2459 187.624 77.5819 187.624C76.9179 187.624 76.3579 187.856 75.9019 188.32C75.4459 188.776 75.2179 189.336 75.2179 190C75.2179 190.664 75.4459 191.228 75.9019 191.692ZM87.0828 192.244C86.4748 192.844 85.7308 193.144 84.8508 193.144C83.9708 193.144 83.2228 192.844 82.6068 192.244C81.9988 191.636 81.6948 190.888 81.6948 190C81.6948 189.112 81.9988 188.368 82.6068 187.768C83.2228 187.16 83.9708 186.856 84.8508 186.856C85.7308 186.856 86.4748 187.16 87.0828 187.768C87.6988 188.368 88.0068 189.112 88.0068 190C88.0068 190.888 87.6988 191.636 87.0828 192.244ZM83.1708 191.692C83.6268 192.148 84.1868 192.376 84.8508 192.376C85.5148 192.376 86.0748 192.148 86.5308 191.692C86.9868 191.228 87.2148 190.664 87.2148 190C87.2148 189.336 86.9868 188.776 86.5308 188.32C86.0748 187.856 85.5148 187.624 84.8508 187.624C84.1868 187.624 83.6268 187.856 83.1708 188.32C82.7148 188.776 82.4868 189.336 82.4868 190C82.4868 190.664 82.7148 191.228 83.1708 191.692ZM93.1482 189.916C93.8042 190.156 94.1322 190.624 94.1322 191.32C94.1322 191.808 93.9682 192.212 93.6402 192.532C93.3202 192.844 92.8562 193 92.2482 193H89.3322V187H92.0082C92.5922 187 93.0442 187.152 93.3642 187.456C93.6842 187.752 93.8442 188.136 93.8442 188.608C93.8442 189.208 93.6122 189.644 93.1482 189.916ZM92.0082 187.768H90.1242V189.592H92.0082C92.7042 189.592 93.0522 189.28 93.0522 188.656C93.0522 188.376 92.9602 188.16 92.7762 188.008C92.6002 187.848 92.3442 187.768 92.0082 187.768ZM92.2482 192.232C92.6002 192.232 92.8682 192.148 93.0522 191.98C93.2442 191.812 93.3402 191.576 93.3402 191.272C93.3402 190.992 93.2442 190.772 93.0522 190.612C92.8682 190.444 92.6002 190.36 92.2482 190.36H90.1242V192.232H92.2482ZM100.492 187H101.284V193H100.492V191.824C99.9402 192.704 99.1322 193.144 98.0682 193.144C97.2122 193.144 96.4802 192.84 95.8722 192.232C95.2722 191.624 94.9722 190.88 94.9722 190C94.9722 189.12 95.2722 188.376 95.8722 187.768C96.4802 187.16 97.2122 186.856 98.0682 186.856C99.1322 186.856 99.9402 187.296 100.492 188.176V187ZM96.4482 191.692C96.9042 192.148 97.4642 192.376 98.1282 192.376C98.7922 192.376 99.3522 192.148 99.8082 191.692C100.264 191.228 100.492 190.664 100.492 190C100.492 189.336 100.264 188.776 99.8082 188.32C99.3522 187.856 98.7922 187.624 98.1282 187.624C97.4642 187.624 96.9042 187.856 96.4482 188.32C95.9922 188.776 95.7642 189.336 95.7642 190C95.7642 190.664 95.9922 191.228 96.4482 191.692ZM107.209 187H108.001V193H107.209V190.384H103.753V193H102.961V187H103.753V189.616H107.209V187ZM114.044 187H114.716V193H113.924V188.38L110.348 193H109.676V187H110.468V191.62L114.044 187ZM119.163 186.856C120.051 186.856 120.767 187.172 121.311 187.804C121.863 188.428 122.139 189.168 122.139 190.024C122.139 190.112 122.131 190.236 122.115 190.396H116.847C116.927 191.004 117.183 191.488 117.615 191.848C118.055 192.2 118.595 192.376 119.235 192.376C119.691 192.376 120.083 192.284 120.411 192.1C120.747 191.908 120.999 191.66 121.167 191.356L121.863 191.764C121.599 192.188 121.239 192.524 120.783 192.772C120.327 193.02 119.807 193.144 119.223 193.144C118.279 193.144 117.511 192.848 116.919 192.256C116.327 191.664 116.031 190.912 116.031 190C116.031 189.104 116.323 188.356 116.907 187.756C117.491 187.156 118.243 186.856 119.163 186.856ZM119.163 187.624C118.539 187.624 118.015 187.812 117.591 188.188C117.175 188.556 116.927 189.036 116.847 189.628H121.323C121.243 188.996 120.999 188.504 120.591 188.152C120.183 187.8 119.707 187.624 119.163 187.624ZM22.4323 201.864C23.0083 202.448 23.2963 203.16 23.2963 204C23.2963 204.84 23.0083 205.552 22.4323 206.136C21.8563 206.72 21.0963 207.052 20.1523 207.132V209.4H19.3603V207.132C18.4163 207.052 17.6563 206.72 17.0803 206.136C16.5043 205.552 16.2163 204.84 16.2163 204C16.2163 203.16 16.5043 202.448 17.0803 201.864C17.6563 201.28 18.4163 200.948 19.3603 200.868V198.6H20.1523V200.868C21.0963 200.948 21.8563 201.28 22.4323 201.864ZM17.6443 202.416C17.2203 202.848 17.0083 203.376 17.0083 204C17.0083 204.624 17.2203 205.156 17.6443 205.596C18.0683 206.028 18.6403 206.28 19.3603 206.352V201.648C18.6403 201.72 18.0683 201.976 17.6443 202.416ZM20.1523 206.352C20.8723 206.28 21.4443 206.028 21.8683 205.596C22.2923 205.156 22.5043 204.624 22.5043 204C22.5043 203.376 22.2923 202.848 21.8683 202.416C21.4443 201.976 20.8723 201.72 20.1523 201.648V206.352ZM28.701 201H29.541L26.973 207.552C26.741 208.144 26.409 208.608 25.977 208.944C25.553 209.288 25.077 209.44 24.549 209.4V208.656C25.269 208.736 25.817 208.32 26.193 207.408L26.349 207.036L23.661 201H24.501L26.757 206.028L28.701 201ZM34.8182 201V201.768H32.6942V207H31.9022V201.768H29.7782V201H34.8182ZM38.213 207.144C37.349 207.144 36.629 206.86 36.053 206.292C35.477 205.716 35.189 204.972 35.189 204.06C35.189 203.036 35.341 202.252 35.645 201.708C35.949 201.156 36.565 200.656 37.493 200.208C37.669 200.12 37.901 200.016 38.189 199.896C38.485 199.776 38.705 199.68 38.849 199.608C39.001 199.536 39.165 199.444 39.341 199.332C39.517 199.212 39.649 199.08 39.737 198.936C39.825 198.792 39.881 198.62 39.905 198.42L40.529 198.78C40.497 198.972 40.433 199.152 40.337 199.32C40.241 199.488 40.141 199.624 40.037 199.728C39.941 199.832 39.785 199.948 39.569 200.076C39.361 200.196 39.197 200.284 39.077 200.34C38.965 200.388 38.765 200.472 38.477 200.592C38.197 200.712 38.009 200.792 37.913 200.832C37.353 201.072 36.941 201.324 36.677 201.588C36.413 201.844 36.225 202.18 36.113 202.596C36.385 202.236 36.729 201.972 37.145 201.804C37.569 201.628 37.981 201.54 38.381 201.54C39.181 201.54 39.841 201.804 40.361 202.332C40.889 202.852 41.153 203.52 41.153 204.336C41.153 205.144 40.873 205.816 40.313 206.352C39.761 206.88 39.061 207.144 38.213 207.144ZM38.213 206.352C38.837 206.352 39.349 206.164 39.749 205.788C40.157 205.404 40.361 204.92 40.361 204.336C40.361 203.744 40.169 203.26 39.785 202.884C39.409 202.5 38.905 202.308 38.273 202.308C37.705 202.308 37.189 202.488 36.725 202.848C36.261 203.2 36.029 203.672 36.029 204.264C36.029 204.872 36.237 205.372 36.653 205.764C37.077 206.156 37.597 206.352 38.213 206.352ZM47.3856 206.244C46.7776 206.844 46.0336 207.144 45.1536 207.144C44.2736 207.144 43.5256 206.844 42.9096 206.244C42.3016 205.636 41.9976 204.888 41.9976 204C41.9976 203.112 42.3016 202.368 42.9096 201.768C43.5256 201.16 44.2736 200.856 45.1536 200.856C46.0336 200.856 46.7776 201.16 47.3856 201.768C48.0016 202.368 48.3096 203.112 48.3096 204C48.3096 204.888 48.0016 205.636 47.3856 206.244ZM43.4736 205.692C43.9296 206.148 44.4896 206.376 45.1536 206.376C45.8176 206.376 46.3776 206.148 46.8336 205.692C47.2896 205.228 47.5176 204.664 47.5176 204C47.5176 203.336 47.2896 202.776 46.8336 202.32C46.3776 201.856 45.8176 201.624 45.1536 201.624C44.4896 201.624 43.9296 201.856 43.4736 202.32C43.0176 202.776 42.7896 203.336 42.7896 204C42.7896 204.664 43.0176 205.228 43.4736 205.692ZM54.3205 201V207H53.5285V201.768H50.8165V204.444C50.8165 205.444 50.6245 206.132 50.2405 206.508C49.8645 206.884 49.3445 207.048 48.6805 207V206.256C49.1365 206.304 49.4725 206.196 49.6885 205.932C49.9125 205.668 50.0245 205.172 50.0245 204.444V201H54.3205ZM58.4342 203.28C58.9942 203.28 59.4662 203.456 59.8502 203.808C60.2422 204.152 60.4382 204.596 60.4382 205.14C60.4382 205.684 60.2422 206.132 59.8502 206.484C59.4662 206.828 58.9942 207 58.4342 207H55.9982V201H56.7902V203.28H58.4342ZM58.4342 206.232C58.7702 206.232 59.0542 206.132 59.2862 205.932C59.5262 205.732 59.6462 205.468 59.6462 205.14C59.6462 204.812 59.5262 204.548 59.2862 204.348C59.0542 204.148 58.7702 204.048 58.4342 204.048H56.7902V206.232H58.4342ZM65.8829 201H66.6749V207H65.8829V204.384H62.4269V207H61.6349V201H62.4269V203.616H65.8829V201ZM70.7858 203.28C71.3458 203.28 71.8178 203.456 72.2018 203.808C72.5938 204.152 72.7898 204.596 72.7898 205.14C72.7898 205.684 72.5938 206.132 72.2018 206.484C71.8178 206.828 71.3458 207 70.7858 207H68.3498V201H69.1418V203.28H70.7858ZM73.6298 201H74.4218V207H73.6298V201ZM70.7858 206.232C71.1218 206.232 71.4058 206.132 71.6378 205.932C71.8778 205.732 71.9978 205.468 71.9978 205.14C71.9978 204.812 71.8778 204.548 71.6378 204.348C71.4058 204.148 71.1218 204.048 70.7858 204.048H69.1418V206.232H70.7858ZM81.1476 207H80.1996L78.3276 204.528L76.4556 207H75.5076L77.8596 203.892L75.6636 201H76.6116L78.3276 203.268L80.0436 201H80.9916L78.8076 203.892L81.1476 207ZM90.2648 201V207H89.4728V201.768H86.0168V207H85.2248V201H90.2648ZM96.8596 201V207H96.0676V201.768H93.3556V204.444C93.3556 205.444 93.1636 206.132 92.7796 206.508C92.4036 206.884 91.8836 207.048 91.2196 207V206.256C91.6756 206.304 92.0116 206.196 92.2276 205.932C92.4516 205.668 92.5636 205.172 92.5636 204.444V201H96.8596ZM103.565 206.244C102.957 206.844 102.213 207.144 101.333 207.144C100.453 207.144 99.7053 206.844 99.0893 206.244C98.4813 205.636 98.1773 204.888 98.1773 204C98.1773 203.112 98.4813 202.368 99.0893 201.768C99.7053 201.16 100.453 200.856 101.333 200.856C102.213 200.856 102.957 201.16 103.565 201.768C104.181 202.368 104.489 203.112 104.489 204C104.489 204.888 104.181 205.636 103.565 206.244ZM99.6533 205.692C100.109 206.148 100.669 206.376 101.333 206.376C101.997 206.376 102.557 206.148 103.013 205.692C103.469 205.228 103.697 204.664 103.697 204C103.697 203.336 103.469 202.776 103.013 202.32C102.557 201.856 101.997 201.624 101.333 201.624C100.669 201.624 100.109 201.856 99.6533 202.32C99.1973 202.776 98.9693 203.336 98.9693 204C98.9693 204.664 99.1973 205.228 99.6533 205.692ZM113.855 206.232H114.695V208.608H113.903V207H105.815V201H106.607V206.232H109.439V201H110.231V206.232H113.063V201H113.855V206.232ZM120.818 201H121.61V207H120.818V205.824C120.266 206.704 119.458 207.144 118.394 207.144C117.538 207.144 116.806 206.84 116.198 206.232C115.598 205.624 115.298 204.88 115.298 204C115.298 203.12 115.598 202.376 116.198 201.768C116.806 201.16 117.538 200.856 118.394 200.856C119.458 200.856 120.266 201.296 120.818 202.176V201ZM116.774 205.692C117.23 206.148 117.79 206.376 118.454 206.376C119.118 206.376 119.678 206.148 120.134 205.692C120.59 205.228 120.818 204.664 120.818 204C120.818 203.336 120.59 202.776 120.134 202.32C119.678 201.856 119.118 201.624 118.454 201.624C117.79 201.624 117.23 201.856 116.774 202.32C116.318 202.776 116.09 203.336 116.09 204C116.09 204.664 116.318 205.228 116.774 205.692ZM128.327 206.232H129.167V208.608H128.375V207H123.479V208.608H122.687V206.232H123.419C123.827 205.696 124.031 204.94 124.031 203.964V201H128.327V206.232ZM124.379 206.232H127.535V201.768H124.823V203.964C124.823 204.884 124.675 205.64 124.379 206.232ZM135.159 206.244C134.551 206.844 133.807 207.144 132.927 207.144C132.047 207.144 131.299 206.844 130.683 206.244C130.075 205.636 129.771 204.888 129.771 204C129.771 203.112 130.075 202.368 130.683 201.768C131.299 201.16 132.047 200.856 132.927 200.856C133.807 200.856 134.551 201.16 135.159 201.768C135.775 202.368 136.083 203.112 136.083 204C136.083 204.888 135.775 205.636 135.159 206.244ZM131.247 205.692C131.703 206.148 132.263 206.376 132.927 206.376C133.591 206.376 134.151 206.148 134.607 205.692C135.063 205.228 135.291 204.664 135.291 204C135.291 203.336 135.063 202.776 134.607 202.32C134.151 201.856 133.591 201.624 132.927 201.624C132.263 201.624 131.703 201.856 131.247 202.32C130.791 202.776 130.563 203.336 130.563 204C130.563 204.664 130.791 205.228 131.247 205.692ZM142.256 207H141.2L138.2 204.108V207H137.408V201H138.2V203.652L141.056 201H142.136L139.04 203.88L142.256 207ZM144.346 206.928C144.218 207.056 144.062 207.12 143.878 207.12C143.694 207.12 143.538 207.056 143.41 206.928C143.282 206.8 143.218 206.644 143.218 206.46C143.218 206.276 143.282 206.12 143.41 205.992C143.538 205.864 143.694 205.8 143.878 205.8C144.062 205.8 144.218 205.864 144.346 205.992C144.474 206.12 144.538 206.276 144.538 206.46C144.538 206.644 144.474 206.8 144.346 206.928Z" fill="white"/>
</g>
<defs>
<filter id="filter0_b_1005_22241" x="-10" y="-10" width="181" height="310" filterUnits="userSpaceOnUse" color-interpolation-filters="sRGB">
<feFlood flood-opacity="0" result="BackgroundImageFix"/>
<feGaussianBlur in="BackgroundImageFix" stdDeviation="5"/>
<feComposite in2="SourceAlpha" operator="in" result="effect1_backgroundBlur_1005_22241"/>
<feBlend mode="normal" in="SourceGraphic" in2="effect1_backgroundBlur_1005_22241" result="shape"/>
</filter>
</defs>
</svg>
