<svg width="161" height="290" viewBox="0 0 161 290" fill="none" xmlns="http://www.w3.org/2000/svg">
<g filter="url(#filter0_b_1005_22252)">
<rect width="161" height="290" rx="15" fill="#0C0C0C" fill-opacity="0.3"/>
<rect x="0.5" y="0.5" width="160" height="289" rx="14.5" stroke="white" stroke-opacity="0.3"/>
<path d="M65.537 82.9C66.3777 82.9 67.0753 83.1817 67.63 83.745C68.1933 84.2997 68.475 84.993 68.475 85.825C68.475 86.6483 68.1933 87.3417 67.63 87.905C67.0753 88.4683 66.3777 88.75 65.537 88.75H63.444V92H62.235V82.9H65.537ZM65.537 87.619C66.0397 87.619 66.4557 87.45 66.785 87.112C67.1143 86.7653 67.279 86.3363 67.279 85.825C67.279 85.305 67.1143 84.876 66.785 84.538C66.4557 84.2 66.0397 84.031 65.537 84.031H63.444V87.619H65.537ZM69.9539 89.27C70.0665 89.8507 70.3309 90.3013 70.7469 90.622C71.1715 90.9427 71.6915 91.103 72.3069 91.103C73.1649 91.103 73.7889 90.7867 74.1789 90.154L75.1409 90.7C74.5082 91.6793 73.5549 92.169 72.2809 92.169C71.2495 92.169 70.4089 91.8483 69.7589 91.207C69.1175 90.557 68.7969 89.738 68.7969 88.75C68.7969 87.7707 69.1132 86.956 69.7459 86.306C70.3785 85.656 71.1975 85.331 72.2029 85.331C73.1562 85.331 73.9319 85.669 74.5299 86.345C75.1365 87.0123 75.4399 87.8183 75.4399 88.763C75.4399 88.9277 75.4269 89.0967 75.4009 89.27H69.9539ZM72.2029 86.397C71.5962 86.397 71.0935 86.5703 70.6949 86.917C70.2962 87.255 70.0492 87.71 69.9539 88.282H74.2959C74.2005 87.6667 73.9579 87.1987 73.5679 86.878C73.1779 86.5573 72.7229 86.397 72.2029 86.397ZM84.1987 92H82.8727L80.4417 88.919V92H79.3237V88.919L76.8927 92H75.5797L78.2967 88.646L75.7097 85.5H77.0227L79.3237 88.373V85.5H80.4417V88.373L82.7427 85.5H84.0687L81.4687 88.646L84.1987 92ZM89.8699 85.5H90.7799V92H89.6619V87.437L86.0609 92H85.1509V85.5H86.2689V90.063L89.8699 85.5ZM98.8714 85.5V92H97.7664V87.281L95.6994 90.609H95.5564L93.4894 87.281V92H92.3714V85.5H93.5804L95.6214 88.789L97.6624 85.5H98.8714ZM10.0084 100.604L8.57837 102.983L10.0084 105.349H8.78637L7.35637 102.983L8.78637 100.604H10.0084ZM12.2184 100.604L10.7884 102.983L12.2184 105.349H10.9964L9.56637 102.983L10.9964 100.604H12.2184ZM21.5103 105.791C20.6003 106.71 19.4867 107.169 18.1693 107.169C16.852 107.169 15.7383 106.71 14.8283 105.791C13.9183 104.872 13.4633 103.759 13.4633 102.45C13.4633 101.133 13.9183 100.019 14.8283 99.109C15.7383 98.1903 16.852 97.731 18.1693 97.731C19.4867 97.731 20.6003 98.1903 21.5103 99.109C22.429 100.019 22.8883 101.133 22.8883 102.45C22.8883 103.759 22.429 104.872 21.5103 105.791ZM15.6603 104.972C16.3363 105.648 17.1727 105.986 18.1693 105.986C19.166 105.986 19.998 105.648 20.6653 104.972C21.3413 104.287 21.6793 103.447 21.6793 102.45C21.6793 101.445 21.3413 100.604 20.6653 99.928C19.998 99.2433 19.166 98.901 18.1693 98.901C17.1727 98.901 16.3363 99.2433 15.6603 99.928C14.993 100.604 14.6593 101.445 14.6593 102.45C14.6593 103.447 14.993 104.287 15.6603 104.972ZM27.6828 100.331C28.5928 100.331 29.3684 100.665 30.0098 101.332C30.6511 101.991 30.9718 102.797 30.9718 103.75C30.9718 104.703 30.6511 105.514 30.0098 106.181C29.3684 106.84 28.5928 107.169 27.6828 107.169C26.6081 107.169 25.7891 106.74 25.2258 105.882V109.6H24.0948V100.5H25.2258V101.618C25.7891 100.76 26.6081 100.331 27.6828 100.331ZM27.5398 106.077C28.1898 106.077 28.7358 105.856 29.1778 105.414C29.6198 104.963 29.8408 104.409 29.8408 103.75C29.8408 103.091 29.6198 102.541 29.1778 102.099C28.7358 101.648 28.1898 101.423 27.5398 101.423C26.8811 101.423 26.3308 101.648 25.8888 102.099C25.4468 102.541 25.2258 103.091 25.2258 103.75C25.2258 104.409 25.4468 104.963 25.8888 105.414C26.3308 105.856 26.8811 106.077 27.5398 106.077ZM36.4553 100.5V101.592H33.3223V107H32.1913V100.5H36.4553ZM42.4453 100.5H43.5763V107H42.4453V105.882C41.882 106.74 41.063 107.169 39.9883 107.169C39.0783 107.169 38.3026 106.84 37.6613 106.181C37.02 105.514 36.6993 104.703 36.6993 103.75C36.6993 102.797 37.02 101.991 37.6613 101.332C38.3026 100.665 39.0783 100.331 39.9883 100.331C41.063 100.331 41.882 100.76 42.4453 101.618V100.5ZM40.1313 106.077C40.79 106.077 41.3403 105.856 41.7823 105.414C42.2243 104.963 42.4453 104.409 42.4453 103.75C42.4453 103.091 42.2243 102.541 41.7823 102.099C41.3403 101.648 40.79 101.423 40.1313 101.423C39.4813 101.423 38.9353 101.648 38.4933 102.099C38.0513 102.541 37.8303 103.091 37.8303 103.75C37.8303 104.409 38.0513 104.963 38.4933 105.414C38.9353 105.856 39.4813 106.077 40.1313 106.077ZM49.6579 100.5H50.7889V107H49.6579V104.283H46.2909V107H45.1599V100.5H46.2909V103.204H49.6579V100.5ZM57.0994 100.5H58.0094V107H56.8914V102.437L53.2904 107H52.3804V100.5H53.4984V105.063L57.0994 100.5ZM63.111 103.672C63.8304 103.967 64.19 104.482 64.19 105.219C64.19 105.765 63.9734 106.229 63.54 106.61C63.1067 106.983 62.4914 107.169 61.694 107.169C60.394 107.169 59.523 106.649 59.081 105.609L60.03 105.05C60.2814 105.761 60.8404 106.116 61.707 106.116C62.1404 106.116 62.474 106.025 62.708 105.843C62.9507 105.652 63.072 105.41 63.072 105.115C63.072 104.855 62.9724 104.643 62.773 104.478C62.5824 104.313 62.3224 104.231 61.993 104.231H61.044V103.204H61.746C62.0754 103.204 62.331 103.126 62.513 102.97C62.695 102.805 62.786 102.584 62.786 102.307C62.786 102.03 62.6777 101.804 62.461 101.631C62.253 101.458 61.9627 101.371 61.59 101.371C60.862 101.371 60.368 101.679 60.108 102.294L59.185 101.761C59.6444 100.808 60.446 100.331 61.59 100.331C62.3007 100.331 62.8597 100.513 63.267 100.877C63.683 101.241 63.891 101.687 63.891 102.216C63.891 102.875 63.631 103.36 63.111 103.672ZM70.6675 100.5H71.7985V107H70.6675V105.882C70.1041 106.74 69.2851 107.169 68.2105 107.169C67.3005 107.169 66.5248 106.84 65.8835 106.181C65.2421 105.514 64.9215 104.703 64.9215 103.75C64.9215 102.797 65.2421 101.991 65.8835 101.332C66.5248 100.665 67.3005 100.331 68.2105 100.331C69.2851 100.331 70.1041 100.76 70.6675 101.618V100.5ZM68.3535 106.077C69.0121 106.077 69.5625 105.856 70.0045 105.414C70.4465 104.963 70.6675 104.409 70.6675 103.75C70.6675 103.091 70.4465 102.541 70.0045 102.099C69.5625 101.648 69.0121 101.423 68.3535 101.423C67.7035 101.423 67.1575 101.648 66.7155 102.099C66.2735 102.541 66.0525 103.091 66.0525 103.75C66.0525 104.409 66.2735 104.963 66.7155 105.414C67.1575 105.856 67.7035 106.077 68.3535 106.077ZM78.218 100.5V101.592H76.008V107H74.877V101.592H72.654V100.5H78.218ZM84.3113 106.181C83.644 106.84 82.8336 107.169 81.8803 107.169C80.927 107.169 80.1166 106.84 79.4493 106.181C78.7906 105.522 78.4613 104.712 78.4613 103.75C78.4613 102.788 78.7906 101.978 79.4493 101.319C80.1166 100.66 80.927 100.331 81.8803 100.331C82.8336 100.331 83.644 100.66 84.3113 101.319C84.9786 101.978 85.3123 102.788 85.3123 103.75C85.3123 104.712 84.9786 105.522 84.3113 106.181ZM81.8803 106.064C82.5303 106.064 83.0763 105.843 83.5183 105.401C83.9603 104.959 84.1813 104.409 84.1813 103.75C84.1813 103.091 83.9603 102.541 83.5183 102.099C83.0763 101.657 82.5303 101.436 81.8803 101.436C81.239 101.436 80.6973 101.657 80.2553 102.099C79.8133 102.541 79.5923 103.091 79.5923 103.75C79.5923 104.409 79.8133 104.959 80.2553 105.401C80.6973 105.843 81.239 106.064 81.8803 106.064ZM90.1036 100.331C91.0136 100.331 91.7893 100.665 92.4306 101.332C93.0719 101.991 93.3926 102.797 93.3926 103.75C93.3926 104.703 93.0719 105.514 92.4306 106.181C91.7893 106.84 91.0136 107.169 90.1036 107.169C89.0289 107.169 88.2099 106.74 87.6466 105.882V109.6H86.5156V100.5H87.6466V101.618C88.2099 100.76 89.0289 100.331 90.1036 100.331ZM89.9606 106.077C90.6106 106.077 91.1566 105.856 91.5986 105.414C92.0406 104.963 92.2616 104.409 92.2616 103.75C92.2616 103.091 92.0406 102.541 91.5986 102.099C91.1566 101.648 90.6106 101.423 89.9606 101.423C89.3019 101.423 88.7516 101.648 88.3096 102.099C87.8676 102.541 87.6466 103.091 87.6466 103.75C87.6466 104.409 87.8676 104.963 88.3096 105.414C88.7516 105.856 89.3019 106.077 89.9606 106.077ZM102.568 100.5V101.592H100.358V107H99.2272V101.592H97.0042V100.5H102.568ZM108.004 100.5H109.213L106.561 107.403C106.284 108.14 105.894 108.699 105.391 109.08C104.889 109.47 104.317 109.643 103.675 109.6V108.547C104.473 108.608 105.058 108.174 105.43 107.247L105.534 107.013L102.713 100.5H103.909L106.132 105.596L108.004 100.5ZM113.616 100.331C114.526 100.331 115.301 100.665 115.943 101.332C116.584 101.991 116.905 102.797 116.905 103.75C116.905 104.703 116.584 105.514 115.943 106.181C115.301 106.84 114.526 107.169 113.616 107.169C112.541 107.169 111.722 106.74 111.159 105.882V109.6H110.028V100.5H111.159V101.618C111.722 100.76 112.541 100.331 113.616 100.331ZM113.473 106.077C114.123 106.077 114.669 105.856 115.111 105.414C115.553 104.963 115.774 104.409 115.774 103.75C115.774 103.091 115.553 102.541 115.111 102.099C114.669 101.648 114.123 101.423 113.473 101.423C112.814 101.423 112.264 101.648 111.822 102.099C111.38 102.541 111.159 103.091 111.159 103.75C111.159 104.409 111.38 104.963 111.822 105.414C112.264 105.856 112.814 106.077 113.473 106.077ZM122.622 100.5H123.753V107H122.622V104.283H119.255V107H118.124V100.5H119.255V103.204H122.622V100.5ZM130.064 100.5H130.974V107H129.856V102.437L126.255 107H125.345V100.5H126.463V105.063L130.064 100.5ZM136.154 100.331C137.064 100.331 137.839 100.665 138.481 101.332C139.122 101.991 139.443 102.797 139.443 103.75C139.443 104.703 139.122 105.514 138.481 106.181C137.839 106.84 137.064 107.169 136.154 107.169C135.079 107.169 134.26 106.74 133.697 105.882V109.6H132.566V100.5H133.697V101.618C134.26 100.76 135.079 100.331 136.154 100.331ZM136.011 106.077C136.661 106.077 137.207 105.856 137.649 105.414C138.091 104.963 138.312 104.409 138.312 103.75C138.312 103.091 138.091 102.541 137.649 102.099C137.207 101.648 136.661 101.423 136.011 101.423C135.352 101.423 134.802 101.648 134.36 102.099C133.918 102.541 133.697 103.091 133.697 103.75C133.697 104.409 133.918 104.963 134.36 105.414C134.802 105.856 135.352 106.077 136.011 106.077ZM146.044 100.5H147.175V107H146.044V105.882C145.481 106.74 144.662 107.169 143.587 107.169C142.677 107.169 141.901 106.84 141.26 106.181C140.619 105.514 140.298 104.703 140.298 103.75C140.298 102.797 140.619 101.991 141.26 101.332C141.901 100.665 142.677 100.331 143.587 100.331C144.662 100.331 145.481 100.76 146.044 101.618V100.5ZM143.73 106.077C144.389 106.077 144.939 105.856 145.381 105.414C145.823 104.963 146.044 104.409 146.044 103.75C146.044 103.091 145.823 102.541 145.381 102.099C144.939 101.648 144.389 101.423 143.73 101.423C143.08 101.423 142.534 101.648 142.092 102.099C141.65 102.541 141.429 103.091 141.429 103.75C141.429 104.409 141.65 104.963 142.092 105.414C142.534 105.856 143.08 106.077 143.73 106.077ZM150.007 100.604L151.437 102.983L150.007 105.349H148.785L150.215 102.983L148.785 100.604H150.007ZM152.217 100.604L153.647 102.983L152.217 105.349H150.995L152.425 102.983L150.995 100.604H152.217Z" fill="white"/>
<path d="M36.7588 127.6C37.5108 127.6 38.1388 127.852 38.6428 128.356C39.1468 128.86 39.3988 129.488 39.3988 130.24C39.3988 130.992 39.1468 131.62 38.6428 132.124C38.1388 132.628 37.5108 132.88 36.7588 132.88H34.5988V136H33.7588V127.6H36.7588ZM36.7588 132.088C37.2788 132.088 37.7068 131.916 38.0428 131.572C38.3868 131.22 38.5588 130.776 38.5588 130.24C38.5588 129.704 38.3868 129.264 38.0428 128.92C37.7068 128.568 37.2788 128.392 36.7588 128.392H34.5988V132.088H36.7588ZM43.0085 129.856C43.8965 129.856 44.6125 130.172 45.1565 130.804C45.7085 131.428 45.9845 132.168 45.9845 133.024C45.9845 133.112 45.9765 133.236 45.9605 133.396H40.6925C40.7725 134.004 41.0285 134.488 41.4605 134.848C41.9005 135.2 42.4405 135.376 43.0805 135.376C43.5365 135.376 43.9285 135.284 44.2565 135.1C44.5925 134.908 44.8445 134.66 45.0125 134.356L45.7085 134.764C45.4445 135.188 45.0845 135.524 44.6285 135.772C44.1725 136.02 43.6525 136.144 43.0685 136.144C42.1245 136.144 41.3565 135.848 40.7645 135.256C40.1725 134.664 39.8765 133.912 39.8765 133C39.8765 132.104 40.1685 131.356 40.7525 130.756C41.3365 130.156 42.0885 129.856 43.0085 129.856ZM43.0085 130.624C42.3845 130.624 41.8605 130.812 41.4365 131.188C41.0205 131.556 40.7725 132.036 40.6925 132.628H45.1685C45.0885 131.996 44.8445 131.504 44.4365 131.152C44.0285 130.8 43.5525 130.624 43.0085 130.624ZM53.889 136H52.929L50.481 133.108V136H49.689V133.108L47.241 136H46.281L48.969 132.88L46.401 130H47.361L49.689 132.664V130H50.481V132.664L52.809 130H53.769L51.201 132.88L53.889 136ZM59.335 130H60.007V136H59.215V131.38L55.639 136H54.967V130H55.759V134.62L59.335 130ZM67.5618 130V136H66.7698V131.212L64.6698 134.62H64.5738L62.4738 131.212V136H61.6818V130H62.5938L64.6218 133.288L66.6498 130H67.5618ZM77.2804 130V136H76.4884V130.768H73.0324V136H72.2404V130H77.2804ZM83.9832 135.244C83.3752 135.844 82.6312 136.144 81.7512 136.144C80.8712 136.144 80.1232 135.844 79.5072 135.244C78.8992 134.636 78.5952 133.888 78.5952 133C78.5952 132.112 78.8992 131.368 79.5072 130.768C80.1232 130.16 80.8712 129.856 81.7512 129.856C82.6312 129.856 83.3752 130.16 83.9832 130.768C84.5992 131.368 84.9072 132.112 84.9072 133C84.9072 133.888 84.5992 134.636 83.9832 135.244ZM80.0712 134.692C80.5272 135.148 81.0872 135.376 81.7512 135.376C82.4152 135.376 82.9752 135.148 83.4312 134.692C83.8872 134.228 84.1152 133.664 84.1152 133C84.1152 132.336 83.8872 131.776 83.4312 131.32C82.9752 130.856 82.4152 130.624 81.7512 130.624C81.0872 130.624 80.5272 130.856 80.0712 131.32C79.6152 131.776 79.3872 132.336 79.3872 133C79.3872 133.664 79.6152 134.228 80.0712 134.692ZM89.0942 132.916C89.7902 133.18 90.1382 133.66 90.1382 134.356C90.1382 134.852 89.9422 135.276 89.5502 135.628C89.1662 135.972 88.6142 136.144 87.8942 136.144C86.6862 136.144 85.8942 135.664 85.5182 134.704L86.1902 134.308C86.4382 135.02 87.0062 135.376 87.8942 135.376C88.3582 135.376 88.7142 135.276 88.9622 135.076C89.2182 134.876 89.3462 134.62 89.3462 134.308C89.3462 134.028 89.2422 133.8 89.0342 133.624C88.8262 133.448 88.5462 133.36 88.1942 133.36H87.3182V132.592H87.9542C88.2982 132.592 88.5662 132.508 88.7582 132.34C88.9582 132.164 89.0582 131.924 89.0582 131.62C89.0582 131.332 88.9422 131.096 88.7102 130.912C88.4782 130.72 88.1662 130.624 87.7742 130.624C87.0222 130.624 86.5222 130.924 86.2742 131.524L85.6142 131.14C86.0142 130.284 86.7342 129.856 87.7742 129.856C88.4062 129.856 88.9102 130.024 89.2862 130.36C89.6622 130.688 89.8502 131.092 89.8502 131.572C89.8502 132.188 89.5982 132.636 89.0942 132.916ZM95.158 132.916C95.814 133.156 96.142 133.624 96.142 134.32C96.142 134.808 95.978 135.212 95.65 135.532C95.33 135.844 94.866 136 94.258 136H91.342V130H94.018C94.602 130 95.054 130.152 95.374 130.456C95.694 130.752 95.854 131.136 95.854 131.608C95.854 132.208 95.622 132.644 95.158 132.916ZM94.018 130.768H92.134V132.592H94.018C94.714 132.592 95.062 132.28 95.062 131.656C95.062 131.376 94.97 131.16 94.786 131.008C94.61 130.848 94.354 130.768 94.018 130.768ZM94.258 135.232C94.61 135.232 94.878 135.148 95.062 134.98C95.254 134.812 95.35 134.576 95.35 134.272C95.35 133.992 95.254 133.772 95.062 133.612C94.878 133.444 94.61 133.36 94.258 133.36H92.134V135.232H94.258ZM102.37 135.244C101.762 135.844 101.018 136.144 100.138 136.144C99.258 136.144 98.51 135.844 97.894 135.244C97.286 134.636 96.982 133.888 96.982 133C96.982 132.112 97.286 131.368 97.894 130.768C98.51 130.16 99.258 129.856 100.138 129.856C101.018 129.856 101.762 130.16 102.37 130.768C102.986 131.368 103.294 132.112 103.294 133C103.294 133.888 102.986 134.636 102.37 135.244ZM98.458 134.692C98.914 135.148 99.474 135.376 100.138 135.376C100.802 135.376 101.362 135.148 101.818 134.692C102.274 134.228 102.502 133.664 102.502 133C102.502 132.336 102.274 131.776 101.818 131.32C101.362 130.856 100.802 130.624 100.138 130.624C99.474 130.624 98.914 130.856 98.458 131.32C98.002 131.776 97.774 132.336 97.774 133C97.774 133.664 98.002 134.228 98.458 134.692ZM109.305 130V136H108.513V130.768H105.801V133.444C105.801 134.444 105.609 135.132 105.225 135.508C104.849 135.884 104.329 136.048 103.665 136V135.256C104.121 135.304 104.457 135.196 104.673 134.932C104.897 134.668 105.009 134.172 105.009 133.444V130H109.305ZM115.303 130V136H114.511V133.696H113.479L111.631 136H110.623L112.519 133.672C112.039 133.6 111.643 133.4 111.331 133.072C111.019 132.744 110.863 132.34 110.863 131.86C110.863 131.316 111.055 130.872 111.439 130.528C111.831 130.176 112.307 130 112.867 130H115.303ZM112.867 132.952H114.511V130.768H112.867C112.531 130.768 112.243 130.868 112.003 131.068C111.771 131.268 111.655 131.532 111.655 131.86C111.655 132.188 111.771 132.452 112.003 132.652C112.243 132.852 112.531 132.952 112.867 132.952ZM119.755 129.856C120.643 129.856 121.359 130.172 121.903 130.804C122.455 131.428 122.731 132.168 122.731 133.024C122.731 133.112 122.723 133.236 122.707 133.396H117.439C117.519 134.004 117.775 134.488 118.207 134.848C118.647 135.2 119.187 135.376 119.827 135.376C120.283 135.376 120.675 135.284 121.003 135.1C121.339 134.908 121.591 134.66 121.759 134.356L122.455 134.764C122.191 135.188 121.831 135.524 121.375 135.772C120.919 136.02 120.399 136.144 119.815 136.144C118.871 136.144 118.103 135.848 117.511 135.256C116.919 134.664 116.623 133.912 116.623 133C116.623 132.104 116.915 131.356 117.499 130.756C118.083 130.156 118.835 129.856 119.755 129.856ZM119.755 130.624C119.131 130.624 118.607 130.812 118.183 131.188C117.767 131.556 117.519 132.036 117.439 132.628H121.915C121.835 131.996 121.591 131.504 121.183 131.152C120.775 130.8 120.299 130.624 119.755 130.624ZM128.076 130V130.768H125.952V136H125.16V130.768H123.036V130H128.076ZM34.2871 144H35.0791V150H34.2871V148.824C33.7351 149.704 32.9271 150.144 31.8631 150.144C31.0071 150.144 30.2751 149.84 29.6671 149.232C29.0671 148.624 28.7671 147.88 28.7671 147C28.7671 146.12 29.0671 145.376 29.6671 144.768C30.2751 144.16 31.0071 143.856 31.8631 143.856C32.9271 143.856 33.7351 144.296 34.2871 145.176V144ZM30.2431 148.692C30.6991 149.148 31.2591 149.376 31.9231 149.376C32.5871 149.376 33.1471 149.148 33.6031 148.692C34.0591 148.228 34.2871 147.664 34.2871 147C34.2871 146.336 34.0591 145.776 33.6031 145.32C33.1471 144.856 32.5871 144.624 31.9231 144.624C31.2591 144.624 30.6991 144.856 30.2431 145.32C29.7871 145.776 29.5591 146.336 29.5591 147C29.5591 147.664 29.7871 148.228 30.2431 148.692ZM40.572 146.916C41.228 147.156 41.556 147.624 41.556 148.32C41.556 148.808 41.392 149.212 41.064 149.532C40.744 149.844 40.28 150 39.672 150H36.756V144H39.432C40.016 144 40.468 144.152 40.788 144.456C41.108 144.752 41.268 145.136 41.268 145.608C41.268 146.208 41.036 146.644 40.572 146.916ZM39.432 144.768H37.548V146.592H39.432C40.128 146.592 40.476 146.28 40.476 145.656C40.476 145.376 40.384 145.16 40.2 145.008C40.024 144.848 39.768 144.768 39.432 144.768ZM39.672 149.232C40.024 149.232 40.292 149.148 40.476 148.98C40.668 148.812 40.764 148.576 40.764 148.272C40.764 147.992 40.668 147.772 40.476 147.612C40.292 147.444 40.024 147.36 39.672 147.36H37.548V149.232H39.672ZM46.8416 144V144.768H44.7176V150H43.9256V144.768H41.8016V144H46.8416ZM52.6004 149.244C51.9924 149.844 51.2484 150.144 50.3684 150.144C49.4884 150.144 48.7404 149.844 48.1244 149.244C47.5164 148.636 47.2124 147.888 47.2124 147C47.2124 146.112 47.5164 145.368 48.1244 144.768C48.7404 144.16 49.4884 143.856 50.3684 143.856C51.2484 143.856 51.9924 144.16 52.6004 144.768C53.2164 145.368 53.5244 146.112 53.5244 147C53.5244 147.888 53.2164 148.636 52.6004 149.244ZM48.6884 148.692C49.1444 149.148 49.7044 149.376 50.3684 149.376C51.0324 149.376 51.5924 149.148 52.0484 148.692C52.5044 148.228 52.7324 147.664 52.7324 147C52.7324 146.336 52.5044 145.776 52.0484 145.32C51.5924 144.856 51.0324 144.624 50.3684 144.624C49.7044 144.624 49.1444 144.856 48.6884 145.32C48.2324 145.776 48.0044 146.336 48.0044 147C48.0044 147.664 48.2324 148.228 48.6884 148.692ZM60.7298 144V150H59.9378V145.212L57.8378 148.62H57.7418L55.6418 145.212V150H54.8498V144H55.7618L57.7898 147.288L59.8178 144H60.7298ZM67.5684 144H68.3604V150H67.5684V148.824C67.0164 149.704 66.2084 150.144 65.1444 150.144C64.2884 150.144 63.5564 149.84 62.9484 149.232C62.3484 148.624 62.0484 147.88 62.0484 147C62.0484 146.12 62.3484 145.376 62.9484 144.768C63.5564 144.16 64.2884 143.856 65.1444 143.856C66.2084 143.856 67.0164 144.296 67.5684 145.176V144ZM63.5244 148.692C63.9804 149.148 64.5404 149.376 65.2044 149.376C65.8684 149.376 66.4284 149.148 66.8844 148.692C67.3404 148.228 67.5684 147.664 67.5684 147C67.5684 146.336 67.3404 145.776 66.8844 145.32C66.4284 144.856 65.8684 144.624 65.2044 144.624C64.5404 144.624 63.9804 144.856 63.5244 145.32C63.0684 145.776 62.8404 146.336 62.8404 147C62.8404 147.664 63.0684 148.228 63.5244 148.692ZM74.3573 144V144.768H72.2333V150H71.4413V144.768H69.3173V144H74.3573ZM79.6904 144H80.3624V150H79.5704V145.38L75.9944 150H75.3224V144H76.1144V148.62L79.6904 144ZM85.1333 146.916C85.8293 147.18 86.1773 147.66 86.1773 148.356C86.1773 148.852 85.9813 149.276 85.5893 149.628C85.2053 149.972 84.6533 150.144 83.9333 150.144C82.7253 150.144 81.9333 149.664 81.5573 148.704L82.2293 148.308C82.4773 149.02 83.0453 149.376 83.9333 149.376C84.3973 149.376 84.7533 149.276 85.0013 149.076C85.2573 148.876 85.3853 148.62 85.3853 148.308C85.3853 148.028 85.2813 147.8 85.0733 147.624C84.8653 147.448 84.5853 147.36 84.2333 147.36H83.3573V146.592H83.9933C84.3373 146.592 84.6053 146.508 84.7973 146.34C84.9973 146.164 85.0973 145.924 85.0973 145.62C85.0973 145.332 84.9813 145.096 84.7493 144.912C84.5173 144.72 84.2053 144.624 83.8133 144.624C83.0613 144.624 82.5613 144.924 82.3133 145.524L81.6533 145.14C82.0533 144.284 82.7733 143.856 83.8133 143.856C84.4453 143.856 84.9493 144.024 85.3253 144.36C85.7013 144.688 85.8893 145.092 85.8893 145.572C85.8893 146.188 85.6373 146.636 85.1333 146.916ZM91.749 144H92.421V150H91.629V145.38L88.053 150H87.381V144H88.173V148.62L91.749 144ZM97.3119 143.856C98.1679 143.856 98.8959 144.16 99.4959 144.768C100.104 145.376 100.408 146.12 100.408 147C100.408 147.88 100.104 148.624 99.4959 149.232C98.8959 149.84 98.1679 150.144 97.3119 150.144C96.2479 150.144 95.4399 149.704 94.8879 148.824V152.4H94.0959V144H94.8879V145.176C95.4399 144.296 96.2479 143.856 97.3119 143.856ZM95.5719 148.692C96.0279 149.148 96.5879 149.376 97.2519 149.376C97.9159 149.376 98.4759 149.148 98.9319 148.692C99.3879 148.228 99.6159 147.664 99.6159 147C99.6159 146.336 99.3879 145.776 98.9319 145.32C98.4759 144.856 97.9159 144.624 97.2519 144.624C96.5879 144.624 96.0279 144.856 95.5719 145.32C95.1159 145.776 94.8879 146.336 94.8879 147C94.8879 147.664 95.1159 148.228 95.5719 148.692ZM106.753 149.244C106.145 149.844 105.401 150.144 104.521 150.144C103.641 150.144 102.893 149.844 102.277 149.244C101.669 148.636 101.365 147.888 101.365 147C101.365 146.112 101.669 145.368 102.277 144.768C102.893 144.16 103.641 143.856 104.521 143.856C105.401 143.856 106.145 144.16 106.753 144.768C107.369 145.368 107.677 146.112 107.677 147C107.677 147.888 107.369 148.636 106.753 149.244ZM102.841 148.692C103.297 149.148 103.857 149.376 104.521 149.376C105.185 149.376 105.745 149.148 106.201 148.692C106.657 148.228 106.885 147.664 106.885 147C106.885 146.336 106.657 145.776 106.201 145.32C105.745 144.856 105.185 144.624 104.521 144.624C103.857 144.624 103.297 144.856 102.841 145.32C102.385 145.776 102.157 146.336 102.157 147C102.157 147.664 102.385 148.228 102.841 148.692ZM112.818 146.916C113.474 147.156 113.802 147.624 113.802 148.32C113.802 148.808 113.638 149.212 113.31 149.532C112.99 149.844 112.526 150 111.918 150H109.002V144H111.678C112.262 144 112.714 144.152 113.034 144.456C113.354 144.752 113.514 145.136 113.514 145.608C113.514 146.208 113.282 146.644 112.818 146.916ZM111.678 144.768H109.794V146.592H111.678C112.374 146.592 112.722 146.28 112.722 145.656C112.722 145.376 112.63 145.16 112.446 145.008C112.27 144.848 112.014 144.768 111.678 144.768ZM111.918 149.232C112.27 149.232 112.538 149.148 112.722 148.98C112.914 148.812 113.01 148.576 113.01 148.272C113.01 147.992 112.914 147.772 112.722 147.612C112.538 147.444 112.27 147.36 111.918 147.36H109.794V149.232H111.918ZM120.162 144H120.954V150H120.162V148.824C119.61 149.704 118.802 150.144 117.738 150.144C116.882 150.144 116.15 149.84 115.542 149.232C114.942 148.624 114.642 147.88 114.642 147C114.642 146.12 114.942 145.376 115.542 144.768C116.15 144.16 116.882 143.856 117.738 143.856C118.802 143.856 119.61 144.296 120.162 145.176V144ZM116.118 148.692C116.574 149.148 117.134 149.376 117.798 149.376C118.462 149.376 119.022 149.148 119.478 148.692C119.934 148.228 120.162 147.664 120.162 147C120.162 146.336 119.934 145.776 119.478 145.32C119.022 144.856 118.462 144.624 117.798 144.624C117.134 144.624 116.574 144.856 116.118 145.32C115.662 145.776 115.434 146.336 115.434 147C115.434 147.664 115.662 148.228 116.118 148.692ZM126.951 144V144.768H124.827V150H124.035V144.768H121.911V144H126.951ZM130.352 146.28C130.912 146.28 131.384 146.456 131.768 146.808C132.16 147.152 132.356 147.596 132.356 148.14C132.356 148.684 132.16 149.132 131.768 149.484C131.384 149.828 130.912 150 130.352 150H127.916V144H128.708V146.28H130.352ZM130.352 149.232C130.688 149.232 130.972 149.132 131.204 148.932C131.444 148.732 131.564 148.468 131.564 148.14C131.564 147.812 131.444 147.548 131.204 147.348C130.972 147.148 130.688 147.048 130.352 147.048H128.708V149.232H130.352ZM36.4989 163.244C35.8909 163.844 35.1469 164.144 34.2669 164.144C33.3869 164.144 32.6389 163.844 32.0229 163.244C31.4149 162.636 31.1109 161.888 31.1109 161C31.1109 160.112 31.4149 159.368 32.0229 158.768C32.6389 158.16 33.3869 157.856 34.2669 157.856C35.1469 157.856 35.8909 158.16 36.4989 158.768C37.1149 159.368 37.4229 160.112 37.4229 161C37.4229 161.888 37.1149 162.636 36.4989 163.244ZM32.5869 162.692C33.0429 163.148 33.6029 163.376 34.2669 163.376C34.9309 163.376 35.4909 163.148 35.9469 162.692C36.4029 162.228 36.6309 161.664 36.6309 161C36.6309 160.336 36.4029 159.776 35.9469 159.32C35.4909 158.856 34.9309 158.624 34.2669 158.624C33.6029 158.624 33.0429 158.856 32.5869 159.32C32.1309 159.776 31.9029 160.336 31.9029 161C31.9029 161.664 32.1309 162.228 32.5869 162.692ZM41.9642 157.856C42.8202 157.856 43.5482 158.16 44.1482 158.768C44.7562 159.376 45.0602 160.12 45.0602 161C45.0602 161.88 44.7562 162.624 44.1482 163.232C43.5482 163.84 42.8202 164.144 41.9642 164.144C40.9002 164.144 40.0922 163.704 39.5402 162.824V166.4H38.7482V158H39.5402V159.176C40.0922 158.296 40.9002 157.856 41.9642 157.856ZM40.2242 162.692C40.6802 163.148 41.2402 163.376 41.9042 163.376C42.5682 163.376 43.1282 163.148 43.5842 162.692C44.0402 162.228 44.2682 161.664 44.2682 161C44.2682 160.336 44.0402 159.776 43.5842 159.32C43.1282 158.856 42.5682 158.624 41.9042 158.624C41.2402 158.624 40.6802 158.856 40.2242 159.32C39.7682 159.776 39.5402 160.336 39.5402 161C39.5402 161.664 39.7682 162.228 40.2242 162.692ZM50.2171 158V158.768H47.1691V164H46.3771V158H50.2171ZM56.1074 158H56.8994V164H56.1074V162.824C55.5554 163.704 54.7474 164.144 53.6834 164.144C52.8274 164.144 52.0954 163.84 51.4874 163.232C50.8874 162.624 50.5874 161.88 50.5874 161C50.5874 160.12 50.8874 159.376 51.4874 158.768C52.0954 158.16 52.8274 157.856 53.6834 157.856C54.7474 157.856 55.5554 158.296 56.1074 159.176V158ZM52.0634 162.692C52.5194 163.148 53.0794 163.376 53.7434 163.376C54.4074 163.376 54.9674 163.148 55.4234 162.692C55.8794 162.228 56.1074 161.664 56.1074 161C56.1074 160.336 55.8794 159.776 55.4234 159.32C54.9674 158.856 54.4074 158.624 53.7434 158.624C53.0794 158.624 52.5194 158.856 52.0634 159.32C51.6074 159.776 51.3794 160.336 51.3794 161C51.3794 161.664 51.6074 162.228 52.0634 162.692ZM62.8243 158H63.6163V164H62.8243V161.384H59.3683V164H58.5763V158H59.3683V160.616H62.8243V158ZM69.6592 158H70.3312V164H69.5392V159.38L65.9632 164H65.2912V158H66.0832V162.62L69.6592 158ZM75.102 160.916C75.798 161.18 76.146 161.66 76.146 162.356C76.146 162.852 75.95 163.276 75.558 163.628C75.174 163.972 74.622 164.144 73.902 164.144C72.694 164.144 71.902 163.664 71.526 162.704L72.198 162.308C72.446 163.02 73.014 163.376 73.902 163.376C74.366 163.376 74.722 163.276 74.97 163.076C75.226 162.876 75.354 162.62 75.354 162.308C75.354 162.028 75.25 161.8 75.042 161.624C74.834 161.448 74.554 161.36 74.202 161.36H73.326V160.592H73.962C74.306 160.592 74.574 160.508 74.766 160.34C74.966 160.164 75.066 159.924 75.066 159.62C75.066 159.332 74.95 159.096 74.718 158.912C74.486 158.72 74.174 158.624 73.782 158.624C73.03 158.624 72.53 158.924 72.282 159.524L71.622 159.14C72.022 158.284 72.742 157.856 73.782 157.856C74.414 157.856 74.918 158.024 75.294 158.36C75.67 158.688 75.858 159.092 75.858 159.572C75.858 160.188 75.606 160.636 75.102 160.916ZM82.5098 158H83.3018V164H82.5098V162.824C81.9578 163.704 81.1498 164.144 80.0858 164.144C79.2298 164.144 78.4978 163.84 77.8898 163.232C77.2898 162.624 76.9898 161.88 76.9898 161C76.9898 160.12 77.2898 159.376 77.8898 158.768C78.4978 158.16 79.2298 157.856 80.0858 157.856C81.1498 157.856 81.9578 158.296 82.5098 159.176V158ZM78.4658 162.692C78.9218 163.148 79.4818 163.376 80.1458 163.376C80.8098 163.376 81.3698 163.148 81.8258 162.692C82.2818 162.228 82.5098 161.664 82.5098 161C82.5098 160.336 82.2818 159.776 81.8258 159.32C81.3698 158.856 80.8098 158.624 80.1458 158.624C79.4818 158.624 78.9218 158.856 78.4658 159.32C78.0098 159.776 77.7818 160.336 77.7818 161C77.7818 161.664 78.0098 162.228 78.4658 162.692ZM89.2987 158V158.768H87.1747V164H86.3827V158.768H84.2587V158H89.2987ZM95.0575 163.244C94.4495 163.844 93.7055 164.144 92.8255 164.144C91.9455 164.144 91.1975 163.844 90.5815 163.244C89.9735 162.636 89.6695 161.888 89.6695 161C89.6695 160.112 89.9735 159.368 90.5815 158.768C91.1975 158.16 91.9455 157.856 92.8255 157.856C93.7055 157.856 94.4495 158.16 95.0575 158.768C95.6735 159.368 95.9815 160.112 95.9815 161C95.9815 161.888 95.6735 162.636 95.0575 163.244ZM91.1455 162.692C91.6015 163.148 92.1615 163.376 92.8255 163.376C93.4895 163.376 94.0495 163.148 94.5055 162.692C94.9615 162.228 95.1895 161.664 95.1895 161C95.1895 160.336 94.9615 159.776 94.5055 159.32C94.0495 158.856 93.4895 158.624 92.8255 158.624C92.1615 158.624 91.6015 158.856 91.1455 159.32C90.6895 159.776 90.4615 160.336 90.4615 161C90.4615 161.664 90.6895 162.228 91.1455 162.692ZM100.523 157.856C101.379 157.856 102.107 158.16 102.707 158.768C103.315 159.376 103.619 160.12 103.619 161C103.619 161.88 103.315 162.624 102.707 163.232C102.107 163.84 101.379 164.144 100.523 164.144C99.4588 164.144 98.6508 163.704 98.0988 162.824V166.4H97.3068V158H98.0988V159.176C98.6508 158.296 99.4588 157.856 100.523 157.856ZM98.7828 162.692C99.2388 163.148 99.7988 163.376 100.463 163.376C101.127 163.376 101.687 163.148 102.143 162.692C102.599 162.228 102.827 161.664 102.827 161C102.827 160.336 102.599 159.776 102.143 159.32C101.687 158.856 101.127 158.624 100.463 158.624C99.7988 158.624 99.2388 158.856 98.7828 159.32C98.3268 159.776 98.0988 160.336 98.0988 161C98.0988 161.664 98.3268 162.228 98.7828 162.692ZM107.732 164.144C106.828 164.144 106.076 163.844 105.476 163.244C104.876 162.636 104.576 161.888 104.576 161C104.576 160.112 104.876 159.368 105.476 158.768C106.076 158.16 106.828 157.856 107.732 157.856C108.324 157.856 108.856 158 109.328 158.288C109.8 158.568 110.144 158.948 110.36 159.428L109.712 159.8C109.552 159.44 109.292 159.156 108.932 158.948C108.58 158.732 108.18 158.624 107.732 158.624C107.068 158.624 106.508 158.856 106.052 159.32C105.596 159.776 105.368 160.336 105.368 161C105.368 161.664 105.596 162.228 106.052 162.692C106.508 163.148 107.068 163.376 107.732 163.376C108.18 163.376 108.58 163.272 108.932 163.064C109.284 162.848 109.56 162.56 109.76 162.2L110.42 162.584C110.172 163.064 109.808 163.444 109.328 163.724C108.848 164.004 108.316 164.144 107.732 164.144ZM116.405 164H115.349L112.349 161.108V164H111.557V158H112.349V160.652L115.205 158H116.285L113.189 160.88L116.405 164ZM121.854 158H122.526V164H121.734V159.38L118.158 164H117.486V158H118.278V162.62L121.854 158ZM126.973 157.856C127.861 157.856 128.577 158.172 129.121 158.804C129.673 159.428 129.949 160.168 129.949 161.024C129.949 161.112 129.941 161.236 129.925 161.396H124.657C124.737 162.004 124.993 162.488 125.425 162.848C125.865 163.2 126.405 163.376 127.045 163.376C127.501 163.376 127.893 163.284 128.221 163.1C128.557 162.908 128.809 162.66 128.977 162.356L129.673 162.764C129.409 163.188 129.049 163.524 128.593 163.772C128.137 164.02 127.617 164.144 127.033 164.144C126.089 164.144 125.321 163.848 124.729 163.256C124.137 162.664 123.841 161.912 123.841 161C123.841 160.104 124.133 159.356 124.717 158.756C125.301 158.156 126.053 157.856 126.973 157.856ZM126.973 158.624C126.349 158.624 125.825 158.812 125.401 159.188C124.985 159.556 124.737 160.036 124.657 160.628H129.133C129.053 159.996 128.809 159.504 128.401 159.152C127.993 158.8 127.517 158.624 126.973 158.624ZM27.9562 172V178H27.1642V172.768H23.7082V178H22.9162V172H27.9562ZM32.847 171.856C33.703 171.856 34.431 172.16 35.031 172.768C35.639 173.376 35.943 174.12 35.943 175C35.943 175.88 35.639 176.624 35.031 177.232C34.431 177.84 33.703 178.144 32.847 178.144C31.783 178.144 30.975 177.704 30.423 176.824V180.4H29.631V172H30.423V173.176C30.975 172.296 31.783 171.856 32.847 171.856ZM31.107 176.692C31.563 177.148 32.123 177.376 32.787 177.376C33.451 177.376 34.011 177.148 34.467 176.692C34.923 176.228 35.151 175.664 35.151 175C35.151 174.336 34.923 173.776 34.467 173.32C34.011 172.856 33.451 172.624 32.787 172.624C32.123 172.624 31.563 172.856 31.107 173.32C30.651 173.776 30.423 174.336 30.423 175C30.423 175.664 30.651 176.228 31.107 176.692ZM42.2879 177.244C41.6799 177.844 40.9359 178.144 40.0559 178.144C39.1759 178.144 38.4279 177.844 37.8119 177.244C37.2039 176.636 36.8999 175.888 36.8999 175C36.8999 174.112 37.2039 173.368 37.8119 172.768C38.4279 172.16 39.1759 171.856 40.0559 171.856C40.9359 171.856 41.6799 172.16 42.2879 172.768C42.9039 173.368 43.2119 174.112 43.2119 175C43.2119 175.888 42.9039 176.636 42.2879 177.244ZM38.3759 176.692C38.8319 177.148 39.3919 177.376 40.0559 177.376C40.7199 177.376 41.2799 177.148 41.7359 176.692C42.1919 176.228 42.4199 175.664 42.4199 175C42.4199 174.336 42.1919 173.776 41.7359 173.32C41.2799 172.856 40.7199 172.624 40.0559 172.624C39.3919 172.624 38.8319 172.856 38.3759 173.32C37.9199 173.776 37.6919 174.336 37.6919 175C37.6919 175.664 37.9199 176.228 38.3759 176.692ZM49.4573 177.232H50.4173V179.608H49.6253V178H44.5373V172H45.3293V177.232H48.6653V172H49.4573V177.232ZM54.153 171.856C55.041 171.856 55.757 172.172 56.301 172.804C56.853 173.428 57.129 174.168 57.129 175.024C57.129 175.112 57.121 175.236 57.105 175.396H51.837C51.917 176.004 52.173 176.488 52.605 176.848C53.045 177.2 53.585 177.376 54.225 177.376C54.681 177.376 55.073 177.284 55.401 177.1C55.737 176.908 55.989 176.66 56.157 176.356L56.853 176.764C56.589 177.188 56.229 177.524 55.773 177.772C55.317 178.02 54.797 178.144 54.213 178.144C53.269 178.144 52.501 177.848 51.909 177.256C51.317 176.664 51.021 175.912 51.021 175C51.021 174.104 51.313 173.356 51.897 172.756C52.481 172.156 53.233 171.856 54.153 171.856ZM54.153 172.624C53.529 172.624 53.005 172.812 52.581 173.188C52.165 173.556 51.917 174.036 51.837 174.628H56.313C56.233 173.996 55.989 173.504 55.581 173.152C55.173 172.8 54.697 172.624 54.153 172.624ZM61.1848 178.144C60.2808 178.144 59.5288 177.844 58.9288 177.244C58.3288 176.636 58.0288 175.888 58.0288 175C58.0288 174.112 58.3288 173.368 58.9288 172.768C59.5288 172.16 60.2808 171.856 61.1848 171.856C61.7768 171.856 62.3088 172 62.7808 172.288C63.2528 172.568 63.5968 172.948 63.8128 173.428L63.1648 173.8C63.0048 173.44 62.7448 173.156 62.3848 172.948C62.0328 172.732 61.6328 172.624 61.1848 172.624C60.5208 172.624 59.9608 172.856 59.5048 173.32C59.0488 173.776 58.8208 174.336 58.8208 175C58.8208 175.664 59.0488 176.228 59.5048 176.692C59.9608 177.148 60.5208 177.376 61.1848 177.376C61.6328 177.376 62.0328 177.272 62.3848 177.064C62.7368 176.848 63.0128 176.56 63.2128 176.2L63.8728 176.584C63.6248 177.064 63.2608 177.444 62.7808 177.724C62.3008 178.004 61.7688 178.144 61.1848 178.144ZM67.7473 178.144C66.8433 178.144 66.0913 177.844 65.4913 177.244C64.8913 176.636 64.5913 175.888 64.5913 175C64.5913 174.112 64.8913 173.368 65.4913 172.768C66.0913 172.16 66.8433 171.856 67.7473 171.856C68.3393 171.856 68.8713 172 69.3433 172.288C69.8153 172.568 70.1593 172.948 70.3753 173.428L69.7273 173.8C69.5673 173.44 69.3073 173.156 68.9473 172.948C68.5953 172.732 68.1953 172.624 67.7473 172.624C67.0833 172.624 66.5233 172.856 66.0673 173.32C65.6113 173.776 65.3833 174.336 65.3833 175C65.3833 175.664 65.6113 176.228 66.0673 176.692C66.5233 177.148 67.0833 177.376 67.7473 177.376C68.1953 177.376 68.5953 177.272 68.9473 177.064C69.2993 176.848 69.5753 176.56 69.7753 176.2L70.4353 176.584C70.1873 177.064 69.8233 177.444 69.3433 177.724C68.8633 178.004 68.3313 178.144 67.7473 178.144ZM74.0084 174.28C74.5684 174.28 75.0404 174.456 75.4244 174.808C75.8164 175.152 76.0124 175.596 76.0124 176.14C76.0124 176.684 75.8164 177.132 75.4244 177.484C75.0404 177.828 74.5684 178 74.0084 178H71.5724V172H72.3644V174.28H74.0084ZM76.8524 172H77.6444V178H76.8524V172ZM74.0084 177.232C74.3444 177.232 74.6284 177.132 74.8604 176.932C75.1004 176.732 75.2204 176.468 75.2204 176.14C75.2204 175.812 75.1004 175.548 74.8604 175.348C74.6284 175.148 74.3444 175.048 74.0084 175.048H72.3644V177.232H74.0084ZM86.6502 172V172.768H84.5262V178H83.7342V172.768H81.6102V172H86.6502ZM91.9354 172H92.7754L90.2074 178.552C89.9754 179.144 89.6434 179.608 89.2114 179.944C88.7874 180.288 88.3114 180.44 87.7834 180.4V179.656C88.5034 179.736 89.0514 179.32 89.4274 178.408L89.5834 178.036L86.8954 172H87.7354L89.9914 177.028L91.9354 172ZM96.9486 171.856C97.8046 171.856 98.5326 172.16 99.1326 172.768C99.7406 173.376 100.045 174.12 100.045 175C100.045 175.88 99.7406 176.624 99.1326 177.232C98.5326 177.84 97.8046 178.144 96.9486 178.144C95.8846 178.144 95.0766 177.704 94.5246 176.824V180.4H93.7326V172H94.5246V173.176C95.0766 172.296 95.8846 171.856 96.9486 171.856ZM95.2086 176.692C95.6646 177.148 96.2246 177.376 96.8886 177.376C97.5526 177.376 98.1126 177.148 98.5686 176.692C99.0246 176.228 99.2526 175.664 99.2526 175C99.2526 174.336 99.0246 173.776 98.5686 173.32C98.1126 172.856 97.5526 172.624 96.8886 172.624C96.2246 172.624 95.6646 172.856 95.2086 173.32C94.7526 173.776 94.5246 174.336 94.5246 175C94.5246 175.664 94.7526 176.228 95.2086 176.692ZM105.609 172H106.401V178H105.609V175.384H102.153V178H101.361V172H102.153V174.616H105.609V172ZM112.444 172H113.116V178H112.324V173.38L108.748 178H108.076V172H108.868V176.62L112.444 172ZM118.007 171.856C118.863 171.856 119.591 172.16 120.191 172.768C120.799 173.376 121.103 174.12 121.103 175C121.103 175.88 120.799 176.624 120.191 177.232C119.591 177.84 118.863 178.144 118.007 178.144C116.943 178.144 116.135 177.704 115.583 176.824V180.4H114.791V172H115.583V173.176C116.135 172.296 116.943 171.856 118.007 171.856ZM116.267 176.692C116.723 177.148 117.283 177.376 117.947 177.376C118.611 177.376 119.171 177.148 119.627 176.692C120.083 176.228 120.311 175.664 120.311 175C120.311 174.336 120.083 173.776 119.627 173.32C119.171 172.856 118.611 172.624 117.947 172.624C117.283 172.624 116.723 172.856 116.267 173.32C115.811 173.776 115.583 174.336 115.583 175C115.583 175.664 115.811 176.228 116.267 176.692ZM127.58 172H128.372V178H127.58V176.824C127.028 177.704 126.22 178.144 125.156 178.144C124.3 178.144 123.568 177.84 122.96 177.232C122.36 176.624 122.06 175.88 122.06 175C122.06 174.12 122.36 173.376 122.96 172.768C123.568 172.16 124.3 171.856 125.156 171.856C126.22 171.856 127.028 172.296 127.58 173.176V172ZM123.536 176.692C123.992 177.148 124.552 177.376 125.216 177.376C125.88 177.376 126.44 177.148 126.896 176.692C127.352 176.228 127.58 175.664 127.58 175C127.58 174.336 127.352 173.776 126.896 173.32C126.44 172.856 125.88 172.624 125.216 172.624C124.552 172.624 123.992 172.856 123.536 173.32C123.08 173.776 122.852 174.336 122.852 175C122.852 175.664 123.08 176.228 123.536 176.692ZM137.417 172H138.089V178H137.297V173.38L133.721 178H133.049V172H133.841V176.62L137.417 172ZM16.6951 188.916C17.3511 189.156 17.6791 189.624 17.6791 190.32C17.6791 190.808 17.5151 191.212 17.1871 191.532C16.8671 191.844 16.4031 192 15.7951 192H12.8791V186H15.5551C16.1391 186 16.5911 186.152 16.9111 186.456C17.2311 186.752 17.3911 187.136 17.3911 187.608C17.3911 188.208 17.1591 188.644 16.6951 188.916ZM15.5551 186.768H13.6711V188.592H15.5551C16.2511 188.592 16.5991 188.28 16.5991 187.656C16.5991 187.376 16.5071 187.16 16.3231 187.008C16.1471 186.848 15.8911 186.768 15.5551 186.768ZM15.7951 191.232C16.1471 191.232 16.4151 191.148 16.5991 190.98C16.7911 190.812 16.8871 190.576 16.8871 190.272C16.8871 189.992 16.7911 189.772 16.5991 189.612C16.4151 189.444 16.1471 189.36 15.7951 189.36H13.6711V191.232H15.7951ZM21.6511 185.856C22.5391 185.856 23.2551 186.172 23.7991 186.804C24.3511 187.428 24.6271 188.168 24.6271 189.024C24.6271 189.112 24.6191 189.236 24.6031 189.396H19.3351C19.4151 190.004 19.6711 190.488 20.1031 190.848C20.5431 191.2 21.0831 191.376 21.7231 191.376C22.1791 191.376 22.5711 191.284 22.8991 191.1C23.2351 190.908 23.4871 190.66 23.6551 190.356L24.3511 190.764C24.0871 191.188 23.7271 191.524 23.2711 191.772C22.8151 192.02 22.2951 192.144 21.7111 192.144C20.7671 192.144 19.9991 191.848 19.4071 191.256C18.8151 190.664 18.5191 189.912 18.5191 189C18.5191 188.104 18.8111 187.356 19.3951 186.756C19.9791 186.156 20.7311 185.856 21.6511 185.856ZM21.6511 186.624C21.0271 186.624 20.5031 186.812 20.0791 187.188C19.6631 187.556 19.4151 188.036 19.3351 188.628H23.8111C23.7311 187.996 23.4871 187.504 23.0791 187.152C22.6711 186.8 22.1951 186.624 21.6511 186.624ZM28.6829 192.144C27.7789 192.144 27.0269 191.844 26.4269 191.244C25.8269 190.636 25.5269 189.888 25.5269 189C25.5269 188.112 25.8269 187.368 26.4269 186.768C27.0269 186.16 27.7789 185.856 28.6829 185.856C29.2749 185.856 29.8069 186 30.2789 186.288C30.7509 186.568 31.0949 186.948 31.3109 187.428L30.6629 187.8C30.5029 187.44 30.2429 187.156 29.8829 186.948C29.5309 186.732 29.1309 186.624 28.6829 186.624C28.0189 186.624 27.4589 186.856 27.0029 187.32C26.5469 187.776 26.3189 188.336 26.3189 189C26.3189 189.664 26.5469 190.228 27.0029 190.692C27.4589 191.148 28.0189 191.376 28.6829 191.376C29.1309 191.376 29.5309 191.272 29.8829 191.064C30.2349 190.848 30.5109 190.56 30.7109 190.2L31.3709 190.584C31.1229 191.064 30.7589 191.444 30.2789 191.724C29.7989 192.004 29.2669 192.144 28.6829 192.144ZM36.7108 186V186.768H34.5868V192H33.7948V186.768H31.6708V186H36.7108ZM42.0439 186H42.7159V192H41.9239V187.38L38.3479 192H37.6759V186H38.4679V190.62L42.0439 186ZM51.2068 188.916C51.8628 189.156 52.1908 189.624 52.1908 190.32C52.1908 190.808 52.0268 191.212 51.6988 191.532C51.3788 191.844 50.9148 192 50.3068 192H47.3908V186H50.0668C50.6508 186 51.1028 186.152 51.4228 186.456C51.7428 186.752 51.9028 187.136 51.9028 187.608C51.9028 188.208 51.6708 188.644 51.2068 188.916ZM50.0668 186.768H48.1828V188.592H50.0668C50.7628 188.592 51.1108 188.28 51.1108 187.656C51.1108 187.376 51.0188 187.16 50.8348 187.008C50.6588 186.848 50.4028 186.768 50.0668 186.768ZM50.3068 191.232C50.6588 191.232 50.9268 191.148 51.1108 190.98C51.3028 190.812 51.3988 190.576 51.3988 190.272C51.3988 189.992 51.3028 189.772 51.1108 189.612C50.9268 189.444 50.6588 189.36 50.3068 189.36H48.1828V191.232H50.3068ZM56.1868 192.144C55.2828 192.144 54.5308 191.844 53.9308 191.244C53.3308 190.636 53.0308 189.888 53.0308 189C53.0308 188.112 53.3308 187.368 53.9308 186.768C54.5308 186.16 55.2828 185.856 56.1868 185.856C56.7788 185.856 57.3108 186 57.7828 186.288C58.2548 186.568 58.5988 186.948 58.8148 187.428L58.1668 187.8C58.0068 187.44 57.7468 187.156 57.3868 186.948C57.0348 186.732 56.6348 186.624 56.1868 186.624C55.5228 186.624 54.9628 186.856 54.5068 187.32C54.0508 187.776 53.8228 188.336 53.8228 189C53.8228 189.664 54.0508 190.228 54.5068 190.692C54.9628 191.148 55.5228 191.376 56.1868 191.376C56.6348 191.376 57.0348 191.272 57.3868 191.064C57.7388 190.848 58.0148 190.56 58.2148 190.2L58.8748 190.584C58.6268 191.064 58.2628 191.444 57.7828 191.724C57.3028 192.004 56.7708 192.144 56.1868 192.144ZM65.1359 185.856C66.0159 185.856 66.7599 186.16 67.3679 186.768C67.9839 187.368 68.2919 188.112 68.2919 189C68.2919 189.888 67.9839 190.636 67.3679 191.244C66.7599 191.844 66.0159 192.144 65.1359 192.144C64.3279 192.144 63.6319 191.884 63.0479 191.364C62.4719 190.836 62.1399 190.176 62.0519 189.384H60.8039V192H60.0119V186H60.8039V188.616H62.0519C62.1399 187.824 62.4719 187.168 63.0479 186.648C63.6319 186.12 64.3279 185.856 65.1359 185.856ZM63.4559 190.692C63.9119 191.148 64.4719 191.376 65.1359 191.376C65.7999 191.376 66.3599 191.148 66.8159 190.692C67.2719 190.228 67.4999 189.664 67.4999 189C67.4999 188.336 67.2719 187.776 66.8159 187.32C66.3599 186.856 65.7999 186.624 65.1359 186.624C64.4719 186.624 63.9119 186.856 63.4559 187.32C62.9999 187.776 62.7719 188.336 62.7719 189C62.7719 189.664 62.9999 190.228 63.4559 190.692ZM76.8575 186H77.6495V192H76.8575V189.384H73.4015V192H72.6095V186H73.4015V188.616H76.8575V186ZM82.0964 185.856C82.9844 185.856 83.7004 186.172 84.2444 186.804C84.7964 187.428 85.0724 188.168 85.0724 189.024C85.0724 189.112 85.0644 189.236 85.0484 189.396H79.7804C79.8604 190.004 80.1164 190.488 80.5484 190.848C80.9884 191.2 81.5284 191.376 82.1684 191.376C82.6244 191.376 83.0164 191.284 83.3444 191.1C83.6804 190.908 83.9324 190.66 84.1004 190.356L84.7964 190.764C84.5324 191.188 84.1724 191.524 83.7164 191.772C83.2604 192.02 82.7404 192.144 82.1564 192.144C81.2124 192.144 80.4444 191.848 79.8524 191.256C79.2604 190.664 78.9644 189.912 78.9644 189C78.9644 188.104 79.2564 187.356 79.8404 186.756C80.4244 186.156 81.1764 185.856 82.0964 185.856ZM82.0964 186.624C81.4724 186.624 80.9484 186.812 80.5244 187.188C80.1084 187.556 79.8604 188.036 79.7804 188.628H84.2564C84.1764 187.996 83.9324 187.504 83.5244 187.152C83.1164 186.8 82.6404 186.624 82.0964 186.624ZM91.3602 191.244C90.7522 191.844 90.0082 192.144 89.1282 192.144C88.2482 192.144 87.5002 191.844 86.8842 191.244C86.2762 190.636 85.9722 189.888 85.9722 189C85.9722 188.112 86.2762 187.368 86.8842 186.768C87.5002 186.16 88.2482 185.856 89.1282 185.856C90.0082 185.856 90.7522 186.16 91.3602 186.768C91.9762 187.368 92.2842 188.112 92.2842 189C92.2842 189.888 91.9762 190.636 91.3602 191.244ZM87.4482 190.692C87.9042 191.148 88.4642 191.376 89.1282 191.376C89.7922 191.376 90.3522 191.148 90.8082 190.692C91.2642 190.228 91.4922 189.664 91.4922 189C91.4922 188.336 91.2642 187.776 90.8082 187.32C90.3522 186.856 89.7922 186.624 89.1282 186.624C88.4642 186.624 87.9042 186.856 87.4482 187.32C86.9922 187.776 86.7642 188.336 86.7642 189C86.7642 189.664 86.9922 190.228 87.4482 190.692ZM96.2735 192.144C95.4095 192.144 94.6895 191.86 94.1135 191.292C93.5375 190.716 93.2495 189.972 93.2495 189.06C93.2495 188.036 93.4015 187.252 93.7055 186.708C94.0095 186.156 94.6255 185.656 95.5535 185.208C95.7295 185.12 95.9615 185.016 96.2495 184.896C96.5455 184.776 96.7655 184.68 96.9095 184.608C97.0615 184.536 97.2255 184.444 97.4015 184.332C97.5775 184.212 97.7095 184.08 97.7975 183.936C97.8855 183.792 97.9415 183.62 97.9655 183.42L98.5895 183.78C98.5575 183.972 98.4935 184.152 98.3975 184.32C98.3015 184.488 98.2015 184.624 98.0975 184.728C98.0015 184.832 97.8455 184.948 97.6295 185.076C97.4215 185.196 97.2575 185.284 97.1375 185.34C97.0255 185.388 96.8255 185.472 96.5375 185.592C96.2575 185.712 96.0695 185.792 95.9735 185.832C95.4135 186.072 95.0015 186.324 94.7375 186.588C94.4735 186.844 94.2855 187.18 94.1735 187.596C94.4455 187.236 94.7895 186.972 95.2055 186.804C95.6295 186.628 96.0415 186.54 96.4415 186.54C97.2415 186.54 97.9015 186.804 98.4215 187.332C98.9495 187.852 99.2135 188.52 99.2135 189.336C99.2135 190.144 98.9335 190.816 98.3735 191.352C97.8215 191.88 97.1215 192.144 96.2735 192.144ZM96.2735 191.352C96.8975 191.352 97.4095 191.164 97.8095 190.788C98.2175 190.404 98.4215 189.92 98.4215 189.336C98.4215 188.744 98.2295 188.26 97.8455 187.884C97.4695 187.5 96.9655 187.308 96.3335 187.308C95.7655 187.308 95.2495 187.488 94.7855 187.848C94.3215 188.2 94.0895 188.672 94.0895 189.264C94.0895 189.872 94.2975 190.372 94.7135 190.764C95.1375 191.156 95.6575 191.352 96.2735 191.352ZM105.036 192H104.088L102.216 189.528L100.344 192H99.3963L101.748 188.892L99.5522 186H100.5L102.216 188.268L103.932 186H104.88L102.696 188.892L105.036 192ZM110.72 191.244C110.112 191.844 109.368 192.144 108.488 192.144C107.608 192.144 106.86 191.844 106.244 191.244C105.636 190.636 105.332 189.888 105.332 189C105.332 188.112 105.636 187.368 106.244 186.768C106.86 186.16 107.608 185.856 108.488 185.856C109.368 185.856 110.112 186.16 110.72 186.768C111.336 187.368 111.644 188.112 111.644 189C111.644 189.888 111.336 190.636 110.72 191.244ZM106.808 190.692C107.264 191.148 107.824 191.376 108.488 191.376C109.152 191.376 109.712 191.148 110.168 190.692C110.624 190.228 110.852 189.664 110.852 189C110.852 188.336 110.624 187.776 110.168 187.32C109.712 186.856 109.152 186.624 108.488 186.624C107.824 186.624 107.264 186.856 106.808 187.32C106.352 187.776 106.124 188.336 106.124 189C106.124 189.664 106.352 190.228 106.808 190.692ZM117.775 191.232H118.615V193.608H117.823V192H112.927V193.608H112.135V191.232H112.867C113.275 190.696 113.479 189.94 113.479 188.964V186H117.775V191.232ZM113.827 191.232H116.983V186.768H114.271V188.964C114.271 189.884 114.123 190.64 113.827 191.232ZM124.181 186H124.853V192H124.061V187.38L120.485 192H119.813V186H120.605V190.62L124.181 186ZM132.408 186V192H131.616V187.212L129.516 190.62H129.42L127.32 187.212V192H126.528V186H127.44L129.468 189.288L131.496 186H132.408ZM138.406 186H139.246L136.678 192.552C136.446 193.144 136.114 193.608 135.682 193.944C135.258 194.288 134.782 194.44 134.254 194.4V193.656C134.974 193.736 135.522 193.32 135.898 192.408L136.054 192.036L133.366 186H134.206L136.462 191.028L138.406 186ZM145.327 185.856C146.207 185.856 146.951 186.16 147.559 186.768C148.175 187.368 148.483 188.112 148.483 189C148.483 189.888 148.175 190.636 147.559 191.244C146.951 191.844 146.207 192.144 145.327 192.144C144.519 192.144 143.823 191.884 143.239 191.364C142.663 190.836 142.331 190.176 142.243 189.384H140.995V192H140.203V186H140.995V188.616H142.243C142.331 187.824 142.663 187.168 143.239 186.648C143.823 186.12 144.519 185.856 145.327 185.856ZM143.647 190.692C144.103 191.148 144.663 191.376 145.327 191.376C145.991 191.376 146.551 191.148 147.007 190.692C147.463 190.228 147.691 189.664 147.691 189C147.691 188.336 147.463 187.776 147.007 187.32C146.551 186.856 145.991 186.624 145.327 186.624C144.663 186.624 144.103 186.856 143.647 187.32C143.191 187.776 142.963 188.336 142.963 189C142.963 189.664 143.191 190.228 143.647 190.692ZM52.5423 206.144C51.6383 206.144 50.8863 205.844 50.2863 205.244C49.6863 204.636 49.3863 203.888 49.3863 203C49.3863 202.112 49.6863 201.368 50.2863 200.768C50.8863 200.16 51.6383 199.856 52.5423 199.856C53.1343 199.856 53.6663 200 54.1383 200.288C54.6103 200.568 54.9543 200.948 55.1703 201.428L54.5223 201.8C54.3623 201.44 54.1023 201.156 53.7423 200.948C53.3903 200.732 52.9903 200.624 52.5423 200.624C51.8783 200.624 51.3183 200.856 50.8623 201.32C50.4063 201.776 50.1783 202.336 50.1783 203C50.1783 203.664 50.4063 204.228 50.8623 204.692C51.3183 205.148 51.8783 205.376 52.5423 205.376C52.9903 205.376 53.3903 205.272 53.7423 205.064C54.0943 204.848 54.3703 204.56 54.5703 204.2L55.2303 204.584C54.9823 205.064 54.6183 205.444 54.1383 205.724C53.6583 206.004 53.1263 206.144 52.5423 206.144ZM60.5702 200V200.768H58.4462V206H57.6542V200.768H55.5302V200H60.5702ZM66.4609 200H67.2529V206H66.4609V204.824C65.9089 205.704 65.1009 206.144 64.0369 206.144C63.1809 206.144 62.4489 205.84 61.8409 205.232C61.2409 204.624 60.9409 203.88 60.9409 203C60.9409 202.12 61.2409 201.376 61.8409 200.768C62.4489 200.16 63.1809 199.856 64.0369 199.856C65.1009 199.856 65.9089 200.296 66.4609 201.176V200ZM62.4169 204.692C62.8729 205.148 63.4329 205.376 64.0969 205.376C64.7609 205.376 65.3209 205.148 65.7769 204.692C66.2329 204.228 66.4609 203.664 66.4609 203C66.4609 202.336 66.2329 201.776 65.7769 201.32C65.3209 200.856 64.7609 200.624 64.0969 200.624C63.4329 200.624 62.8729 200.856 62.4169 201.32C61.9609 201.776 61.7329 202.336 61.7329 203C61.7329 203.664 61.9609 204.228 62.4169 204.692ZM73.2498 200V200.768H71.1258V206H70.3338V200.768H68.2098V200H73.2498ZM78.583 200H79.255V206H78.463V201.38L74.887 206H74.215V200H75.007V204.62L78.583 200ZM83.7258 206.144C82.8218 206.144 82.0698 205.844 81.4698 205.244C80.8698 204.636 80.5698 203.888 80.5698 203C80.5698 202.112 80.8698 201.368 81.4698 200.768C82.0698 200.16 82.8218 199.856 83.7258 199.856C84.3178 199.856 84.8498 200 85.3218 200.288C85.7938 200.568 86.1378 200.948 86.3538 201.428L85.7058 201.8C85.5458 201.44 85.2858 201.156 84.9258 200.948C84.5738 200.732 84.1738 200.624 83.7258 200.624C83.0618 200.624 82.5018 200.856 82.0458 201.32C81.5898 201.776 81.3618 202.336 81.3618 203C81.3618 203.664 81.5898 204.228 82.0458 204.692C82.5018 205.148 83.0618 205.376 83.7258 205.376C84.1738 205.376 84.5738 205.272 84.9258 205.064C85.2778 204.848 85.5538 204.56 85.7538 204.2L86.4138 204.584C86.1658 205.064 85.8018 205.444 85.3218 205.724C84.8418 206.004 84.3098 206.144 83.7258 206.144ZM91.7538 200V200.768H89.6298V206H88.8378V200.768H86.7138V200H91.7538ZM97.0869 200H97.7589V206H96.9669V201.38L93.3909 206H92.7189V200H93.5109V204.62L97.0869 200ZM104.282 206H103.226L100.226 203.108V206H99.4338V200H100.226V202.652L103.082 200H104.162L101.066 202.88L104.282 206ZM109.449 200H110.289L107.721 206.552C107.489 207.144 107.157 207.608 106.725 207.944C106.301 208.288 105.825 208.44 105.297 208.4V207.656C106.017 207.736 106.565 207.32 106.941 206.408L107.097 206.036L104.409 200H105.249L107.505 205.028L109.449 200ZM111.176 205.928C111.048 206.056 110.892 206.12 110.708 206.12C110.524 206.12 110.368 206.056 110.24 205.928C110.112 205.8 110.048 205.644 110.048 205.46C110.048 205.276 110.112 205.12 110.24 204.992C110.368 204.864 110.524 204.8 110.708 204.8C110.892 204.8 111.048 204.864 111.176 204.992C111.304 205.12 111.368 205.276 111.368 205.46C111.368 205.644 111.304 205.8 111.176 205.928Z" fill="white"/>
</g>
<defs>
<filter id="filter0_b_1005_22252" x="-10" y="-10" width="181" height="310" filterUnits="userSpaceOnUse" color-interpolation-filters="sRGB">
<feFlood flood-opacity="0" result="BackgroundImageFix"/>
<feGaussianBlur in="BackgroundImageFix" stdDeviation="5"/>
<feComposite in2="SourceAlpha" operator="in" result="effect1_backgroundBlur_1005_22252"/>
<feBlend mode="normal" in="SourceGraphic" in2="effect1_backgroundBlur_1005_22252" result="shape"/>
</filter>
</defs>
</svg>
