<svg width="161" height="139" viewBox="0 0 161 139" fill="none" xmlns="http://www.w3.org/2000/svg">
<g filter="url(#filter0_b_1005_22234)">
<path d="M161 15C161 6.71573 154.284 0 146 0H89.3129C86.066 0 82.9067 1.05358 80.3097 3.00246L5.99673 58.7689C2.22157 61.6018 0 66.0465 0 70.7664V124C0 132.284 6.71573 139 15 139H146C154.284 139 161 132.284 161 124V15Z" fill="#0C0C0C" fill-opacity="0.3"/>
<path d="M160.5 15C160.5 6.99187 154.008 0.5 146 0.5H89.3129C86.1742 0.5 83.1202 1.51846 80.6098 3.40238L6.29684 59.1688C2.64752 61.9073 0.5 66.2038 0.5 70.7664V124C0.5 132.008 6.99187 138.5 15 138.5H146C154.008 138.5 160.5 132.008 160.5 124V15Z" stroke="white" stroke-opacity="0.3"/>
</g>
<path d="M115.606 21.2C116.511 21.2 117.263 21.5033 117.86 22.11C118.467 22.7073 118.77 23.454 118.77 24.35C118.77 25.2367 118.467 25.9833 117.86 26.59C117.263 27.1967 116.511 27.5 115.606 27.5H113.352V31H112.05V21.2H115.606ZM115.606 26.282C116.147 26.282 116.595 26.1 116.95 25.736C117.305 25.3627 117.482 24.9007 117.482 24.35C117.482 23.79 117.305 23.328 116.95 22.964C116.595 22.6 116.147 22.418 115.606 22.418H113.352V26.282H115.606ZM120.503 28.06C120.624 28.6853 120.909 29.1707 121.357 29.516C121.814 29.8613 122.374 30.034 123.037 30.034C123.961 30.034 124.633 29.6933 125.053 29.012L126.089 29.6C125.407 30.6547 124.381 31.182 123.009 31.182C121.898 31.182 120.993 30.8367 120.293 30.146C119.602 29.446 119.257 28.564 119.257 27.5C119.257 26.4453 119.597 25.568 120.279 24.868C120.96 24.168 121.842 23.818 122.925 23.818C123.951 23.818 124.787 24.182 125.431 24.91C126.084 25.6287 126.411 26.4967 126.411 27.514C126.411 27.6913 126.397 27.8733 126.369 28.06H120.503ZM122.925 24.966C122.271 24.966 121.73 25.1527 121.301 25.526C120.871 25.89 120.605 26.38 120.503 26.996H125.179C125.076 26.3333 124.815 25.8293 124.395 25.484C123.975 25.1387 123.485 24.966 122.925 24.966ZM135.983 31H134.555L131.937 27.682V31H130.733V27.682L128.115 31H126.701L129.627 27.388L126.841 24H128.255L130.733 27.094V24H131.937V27.094L134.415 24H135.843L133.043 27.388L135.983 31ZM142.231 24H143.211V31H142.007V26.086L138.129 31H137.149V24H138.353V28.914L142.231 24ZM152.065 24V31H150.875V25.918L148.649 29.502H148.495L146.269 25.918V31H145.065V24H146.367L148.565 27.542L150.763 24H152.065ZM94.806 40.112L93.266 42.674L94.806 45.222H93.49L91.95 42.674L93.49 40.112H94.806ZM97.186 40.112L95.646 42.674L97.186 45.222H95.87L94.33 42.674L95.87 40.112H97.186ZM104.896 37.2V38.432H101.998V47H100.71V38.432H97.8262V37.2H104.896ZM108.966 39.818C109.946 39.818 110.781 40.1773 111.472 40.896C112.162 41.6053 112.508 42.4733 112.508 43.5C112.508 44.5267 112.162 45.3993 111.472 46.118C110.781 46.8273 109.946 47.182 108.966 47.182C107.808 47.182 106.926 46.72 106.32 45.796V49.8H105.102V40H106.32V41.204C106.926 40.28 107.808 39.818 108.966 39.818ZM108.812 46.006C109.512 46.006 110.1 45.768 110.576 45.292C111.052 44.8067 111.29 44.2093 111.29 43.5C111.29 42.7907 111.052 42.198 110.576 41.722C110.1 41.2367 109.512 40.994 108.812 40.994C108.102 40.994 107.51 41.2367 107.034 41.722C106.558 42.198 106.32 42.7907 106.32 43.5C106.32 44.2093 106.558 44.8067 107.034 45.292C107.51 45.768 108.102 46.006 108.812 46.006ZM114.815 44.06C114.936 44.6853 115.221 45.1707 115.669 45.516C116.126 45.8613 116.686 46.034 117.349 46.034C118.273 46.034 118.945 45.6933 119.365 45.012L120.401 45.6C119.72 46.6547 118.693 47.182 117.321 47.182C116.21 47.182 115.305 46.8367 114.605 46.146C113.914 45.446 113.569 44.564 113.569 43.5C113.569 42.4453 113.91 41.568 114.591 40.868C115.272 40.168 116.154 39.818 117.237 39.818C118.264 39.818 119.099 40.182 119.743 40.91C120.396 41.6287 120.723 42.4967 120.723 43.514C120.723 43.6913 120.709 43.8733 120.681 44.06H114.815ZM117.237 40.966C116.584 40.966 116.042 41.1527 115.613 41.526C115.184 41.89 114.918 42.38 114.815 42.996H119.491C119.388 42.3333 119.127 41.8293 118.707 41.484C118.287 41.1387 117.797 40.966 117.237 40.966ZM126.967 40H128.185V47H126.967V44.074H123.341V47H122.123V40H123.341V42.912H126.967V40ZM130.893 44.06C131.015 44.6853 131.299 45.1707 131.747 45.516C132.205 45.8613 132.765 46.034 133.427 46.034C134.351 46.034 135.023 45.6933 135.443 45.012L136.479 45.6C135.798 46.6547 134.771 47.182 133.399 47.182C132.289 47.182 131.383 46.8367 130.683 46.146C129.993 45.446 129.647 44.564 129.647 43.5C129.647 42.4453 129.988 41.568 130.669 40.868C131.351 40.168 132.233 39.818 133.315 39.818C134.342 39.818 135.177 40.182 135.821 40.91C136.475 41.6287 136.801 42.4967 136.801 43.514C136.801 43.6913 136.787 43.8733 136.759 44.06H130.893ZM133.315 40.966C132.662 40.966 132.121 41.1527 131.691 41.526C131.262 41.89 130.996 42.38 130.893 42.996H135.569C135.467 42.3333 135.205 41.8293 134.785 41.484C134.365 41.1387 133.875 40.966 133.315 40.966ZM142.065 39.818C143.045 39.818 143.881 40.1773 144.571 40.896C145.262 41.6053 145.607 42.4733 145.607 43.5C145.607 44.5267 145.262 45.3993 144.571 46.118C143.881 46.8273 143.045 47.182 142.065 47.182C140.908 47.182 140.026 46.72 139.419 45.796V49.8H138.201V40H139.419V41.204C140.026 40.28 140.908 39.818 142.065 39.818ZM141.911 46.006C142.611 46.006 143.199 45.768 143.675 45.292C144.151 44.8067 144.389 44.2093 144.389 43.5C144.389 42.7907 144.151 42.198 143.675 41.722C143.199 41.2367 142.611 40.994 141.911 40.994C141.202 40.994 140.609 41.2367 140.133 41.722C139.657 42.198 139.419 42.7907 139.419 43.5C139.419 44.2093 139.657 44.8067 140.133 45.292C140.609 45.768 141.202 46.006 141.911 46.006ZM148.131 40.112L149.671 42.674L148.131 45.222H146.815L148.355 42.674L146.815 40.112H148.131ZM150.511 40.112L152.051 42.674L150.511 45.222H149.195L150.735 42.674L149.195 40.112H150.511Z" fill="white"/>
<path d="M61.5577 67.6C62.3097 67.6 62.9377 67.852 63.4417 68.356C63.9457 68.86 64.1977 69.488 64.1977 70.24C64.1977 70.992 63.9457 71.62 63.4417 72.124C62.9377 72.628 62.3097 72.88 61.5577 72.88H59.3977V76H58.5577V67.6H61.5577ZM61.5577 72.088C62.0777 72.088 62.5057 71.916 62.8417 71.572C63.1857 71.22 63.3577 70.776 63.3577 70.24C63.3577 69.704 63.1857 69.264 62.8417 68.92C62.5057 68.568 62.0777 68.392 61.5577 68.392H59.3977V72.088H61.5577ZM67.8073 69.856C68.6953 69.856 69.4113 70.172 69.9553 70.804C70.5073 71.428 70.7833 72.168 70.7833 73.024C70.7833 73.112 70.7753 73.236 70.7593 73.396H65.4913C65.5713 74.004 65.8273 74.488 66.2593 74.848C66.6993 75.2 67.2393 75.376 67.8793 75.376C68.3353 75.376 68.7273 75.284 69.0553 75.1C69.3913 74.908 69.6433 74.66 69.8113 74.356L70.5073 74.764C70.2433 75.188 69.8833 75.524 69.4273 75.772C68.9713 76.02 68.4513 76.144 67.8673 76.144C66.9233 76.144 66.1553 75.848 65.5633 75.256C64.9713 74.664 64.6753 73.912 64.6753 73C64.6753 72.104 64.9673 71.356 65.5513 70.756C66.1353 70.156 66.8873 69.856 67.8073 69.856ZM67.8073 70.624C67.1833 70.624 66.6593 70.812 66.2353 71.188C65.8193 71.556 65.5713 72.036 65.4913 72.628H69.9673C69.8873 71.996 69.6433 71.504 69.2353 71.152C68.8273 70.8 68.3513 70.624 67.8073 70.624ZM78.6878 76H77.7278L75.2798 73.108V76H74.4878V73.108L72.0398 76H71.0798L73.7678 72.88L71.1998 70H72.1598L74.4878 72.664V70H75.2798V72.664L77.6078 70H78.5678L75.9998 72.88L78.6878 76ZM84.1338 70H84.8058V76H84.0138V71.38L80.4378 76H79.7658V70H80.5578V74.62L84.1338 70ZM92.3606 70V76H91.5686V71.212L89.4686 74.62H89.3726L87.2726 71.212V76H86.4806V70H87.3926L89.4206 73.288L91.4486 70H92.3606ZM102.079 70V76H101.287V70.768H97.8312V76H97.0392V70H102.079ZM108.782 75.244C108.174 75.844 107.43 76.144 106.55 76.144C105.67 76.144 104.922 75.844 104.306 75.244C103.698 74.636 103.394 73.888 103.394 73C103.394 72.112 103.698 71.368 104.306 70.768C104.922 70.16 105.67 69.856 106.55 69.856C107.43 69.856 108.174 70.16 108.782 70.768C109.398 71.368 109.706 72.112 109.706 73C109.706 73.888 109.398 74.636 108.782 75.244ZM104.87 74.692C105.326 75.148 105.886 75.376 106.55 75.376C107.214 75.376 107.774 75.148 108.23 74.692C108.686 74.228 108.914 73.664 108.914 73C108.914 72.336 108.686 71.776 108.23 71.32C107.774 70.856 107.214 70.624 106.55 70.624C105.886 70.624 105.326 70.856 104.87 71.32C104.414 71.776 104.186 72.336 104.186 73C104.186 73.664 104.414 74.228 104.87 74.692ZM113.893 72.916C114.589 73.18 114.937 73.66 114.937 74.356C114.937 74.852 114.741 75.276 114.349 75.628C113.965 75.972 113.413 76.144 112.693 76.144C111.485 76.144 110.693 75.664 110.317 74.704L110.989 74.308C111.237 75.02 111.805 75.376 112.693 75.376C113.157 75.376 113.513 75.276 113.761 75.076C114.017 74.876 114.145 74.62 114.145 74.308C114.145 74.028 114.041 73.8 113.833 73.624C113.625 73.448 113.345 73.36 112.993 73.36H112.117V72.592H112.753C113.097 72.592 113.365 72.508 113.557 72.34C113.757 72.164 113.857 71.924 113.857 71.62C113.857 71.332 113.741 71.096 113.509 70.912C113.277 70.72 112.965 70.624 112.573 70.624C111.821 70.624 111.321 70.924 111.073 71.524L110.413 71.14C110.813 70.284 111.533 69.856 112.573 69.856C113.205 69.856 113.709 70.024 114.085 70.36C114.461 70.688 114.649 71.092 114.649 71.572C114.649 72.188 114.397 72.636 113.893 72.916ZM119.957 72.916C120.613 73.156 120.941 73.624 120.941 74.32C120.941 74.808 120.777 75.212 120.449 75.532C120.129 75.844 119.665 76 119.057 76H116.141V70H118.817C119.401 70 119.853 70.152 120.173 70.456C120.493 70.752 120.653 71.136 120.653 71.608C120.653 72.208 120.421 72.644 119.957 72.916ZM118.817 70.768H116.933V72.592H118.817C119.513 72.592 119.861 72.28 119.861 71.656C119.861 71.376 119.769 71.16 119.585 71.008C119.409 70.848 119.153 70.768 118.817 70.768ZM119.057 75.232C119.409 75.232 119.677 75.148 119.861 74.98C120.053 74.812 120.149 74.576 120.149 74.272C120.149 73.992 120.053 73.772 119.861 73.612C119.677 73.444 119.409 73.36 119.057 73.36H116.933V75.232H119.057ZM127.169 75.244C126.561 75.844 125.817 76.144 124.937 76.144C124.057 76.144 123.309 75.844 122.693 75.244C122.085 74.636 121.781 73.888 121.781 73C121.781 72.112 122.085 71.368 122.693 70.768C123.309 70.16 124.057 69.856 124.937 69.856C125.817 69.856 126.561 70.16 127.169 70.768C127.785 71.368 128.093 72.112 128.093 73C128.093 73.888 127.785 74.636 127.169 75.244ZM123.257 74.692C123.713 75.148 124.273 75.376 124.937 75.376C125.601 75.376 126.161 75.148 126.617 74.692C127.073 74.228 127.301 73.664 127.301 73C127.301 72.336 127.073 71.776 126.617 71.32C126.161 70.856 125.601 70.624 124.937 70.624C124.273 70.624 123.713 70.856 123.257 71.32C122.801 71.776 122.573 72.336 122.573 73C122.573 73.664 122.801 74.228 123.257 74.692ZM134.104 70V76H133.312V70.768H130.6V73.444C130.6 74.444 130.408 75.132 130.024 75.508C129.648 75.884 129.128 76.048 128.464 76V75.256C128.92 75.304 129.256 75.196 129.472 74.932C129.696 74.668 129.808 74.172 129.808 73.444V70H134.104ZM140.101 70V76H139.309V73.696H138.277L136.429 76H135.421L137.317 73.672C136.837 73.6 136.441 73.4 136.129 73.072C135.817 72.744 135.661 72.34 135.661 71.86C135.661 71.316 135.853 70.872 136.237 70.528C136.629 70.176 137.105 70 137.665 70H140.101ZM137.665 72.952H139.309V70.768H137.665C137.329 70.768 137.041 70.868 136.801 71.068C136.569 71.268 136.453 71.532 136.453 71.86C136.453 72.188 136.569 72.452 136.801 72.652C137.041 72.852 137.329 72.952 137.665 72.952ZM144.553 69.856C145.441 69.856 146.157 70.172 146.701 70.804C147.253 71.428 147.529 72.168 147.529 73.024C147.529 73.112 147.521 73.236 147.505 73.396H142.237C142.317 74.004 142.573 74.488 143.005 74.848C143.445 75.2 143.985 75.376 144.625 75.376C145.081 75.376 145.473 75.284 145.801 75.1C146.137 74.908 146.389 74.66 146.557 74.356L147.253 74.764C146.989 75.188 146.629 75.524 146.173 75.772C145.717 76.02 145.197 76.144 144.613 76.144C143.669 76.144 142.901 75.848 142.309 75.256C141.717 74.664 141.421 73.912 141.421 73C141.421 72.104 141.713 71.356 142.297 70.756C142.881 70.156 143.633 69.856 144.553 69.856ZM144.553 70.624C143.929 70.624 143.405 70.812 142.981 71.188C142.565 71.556 142.317 72.036 142.237 72.628H146.713C146.633 71.996 146.389 71.504 145.981 71.152C145.573 70.8 145.097 70.624 144.553 70.624ZM152.875 70V70.768H150.751V76H149.959V70.768H147.835V70H152.875ZM100.785 84H101.625L99.057 90.552C98.825 91.144 98.493 91.608 98.061 91.944C97.637 92.288 97.161 92.44 96.633 92.4V91.656C97.353 91.736 97.901 91.32 98.277 90.408L98.433 90.036L95.745 84H96.585L98.841 89.028L100.785 84ZM107.622 84V90H106.83V84.768H103.374V90H102.582V84H107.622ZM112.513 83.856C113.369 83.856 114.097 84.16 114.697 84.768C115.305 85.376 115.609 86.12 115.609 87C115.609 87.88 115.305 88.624 114.697 89.232C114.097 89.84 113.369 90.144 112.513 90.144C111.449 90.144 110.641 89.704 110.089 88.824V92.4H109.297V84H110.089V85.176C110.641 84.296 111.449 83.856 112.513 83.856ZM110.773 88.692C111.229 89.148 111.789 89.376 112.453 89.376C113.117 89.376 113.677 89.148 114.133 88.692C114.589 88.228 114.817 87.664 114.817 87C114.817 86.336 114.589 85.776 114.133 85.32C113.677 84.856 113.117 84.624 112.453 84.624C111.789 84.624 111.229 84.856 110.773 85.32C110.317 85.776 110.089 86.336 110.089 87C110.089 87.664 110.317 88.228 110.773 88.692ZM122.086 84H122.878V90H122.086V88.824C121.534 89.704 120.726 90.144 119.662 90.144C118.806 90.144 118.074 89.84 117.466 89.232C116.866 88.624 116.566 87.88 116.566 87C116.566 86.12 116.866 85.376 117.466 84.768C118.074 84.16 118.806 83.856 119.662 83.856C120.726 83.856 121.534 84.296 122.086 85.176V84ZM118.042 88.692C118.498 89.148 119.058 89.376 119.722 89.376C120.386 89.376 120.946 89.148 121.402 88.692C121.858 88.228 122.086 87.664 122.086 87C122.086 86.336 121.858 85.776 121.402 85.32C120.946 84.856 120.386 84.624 119.722 84.624C119.058 84.624 118.498 84.856 118.042 85.32C117.586 85.776 117.358 86.336 117.358 87C117.358 87.664 117.586 88.228 118.042 88.692ZM128.371 86.916C129.027 87.156 129.355 87.624 129.355 88.32C129.355 88.808 129.191 89.212 128.863 89.532C128.543 89.844 128.079 90 127.471 90H124.555V84H127.231C127.815 84 128.267 84.152 128.587 84.456C128.907 84.752 129.067 85.136 129.067 85.608C129.067 86.208 128.835 86.644 128.371 86.916ZM127.231 84.768H125.347V86.592H127.231C127.927 86.592 128.275 86.28 128.275 85.656C128.275 85.376 128.183 85.16 127.999 85.008C127.823 84.848 127.567 84.768 127.231 84.768ZM127.471 89.232C127.823 89.232 128.091 89.148 128.275 88.98C128.467 88.812 128.563 88.576 128.563 88.272C128.563 87.992 128.467 87.772 128.275 87.612C128.091 87.444 127.823 87.36 127.471 87.36H125.347V89.232H127.471ZM135.24 84V90H134.448V84.768H131.736V87.444C131.736 88.444 131.544 89.132 131.16 89.508C130.784 89.884 130.264 90.048 129.6 90V89.256C130.056 89.304 130.392 89.196 130.608 88.932C130.832 88.668 130.944 88.172 130.944 87.444V84H135.24ZM141.238 84V90H140.446V87.696H139.414L137.566 90H136.558L138.454 87.672C137.974 87.6 137.578 87.4 137.266 87.072C136.954 86.744 136.798 86.34 136.798 85.86C136.798 85.316 136.99 84.872 137.374 84.528C137.766 84.176 138.242 84 138.802 84H141.238ZM138.802 86.952H140.446V84.768H138.802C138.466 84.768 138.178 84.868 137.938 85.068C137.706 85.268 137.59 85.532 137.59 85.86C137.59 86.188 137.706 86.452 137.938 86.652C138.178 86.852 138.466 86.952 138.802 86.952ZM147.238 84V84.768H145.114V90H144.322V84.768H142.198V84H147.238ZM150.639 86.28C151.199 86.28 151.671 86.456 152.055 86.808C152.447 87.152 152.643 87.596 152.643 88.14C152.643 88.684 152.447 89.132 152.055 89.484C151.671 89.828 151.199 90 150.639 90H148.203V84H148.995V86.28H150.639ZM150.639 89.232C150.975 89.232 151.259 89.132 151.491 88.932C151.731 88.732 151.851 88.468 151.851 88.14C151.851 87.812 151.731 87.548 151.491 87.348C151.259 87.148 150.975 87.048 150.639 87.048H148.995V89.232H150.639ZM68.3475 98V98.768H66.2235V104H65.4315V98.768H63.3075V98H68.3475ZM72.5287 97.856C73.3847 97.856 74.1127 98.16 74.7127 98.768C75.3207 99.376 75.6247 100.12 75.6247 101C75.6247 101.88 75.3207 102.624 74.7127 103.232C74.1127 103.84 73.3847 104.144 72.5287 104.144C71.4647 104.144 70.6567 103.704 70.1047 102.824V106.4H69.3127V98H70.1047V99.176C70.6567 98.296 71.4647 97.856 72.5287 97.856ZM70.7887 102.692C71.2447 103.148 71.8047 103.376 72.4687 103.376C73.1327 103.376 73.6927 103.148 74.1487 102.692C74.6047 102.228 74.8327 101.664 74.8327 101C74.8327 100.336 74.6047 99.776 74.1487 99.32C73.6927 98.856 73.1327 98.624 72.4687 98.624C71.8047 98.624 71.2447 98.856 70.7887 99.32C70.3327 99.776 70.1047 100.336 70.1047 101C70.1047 101.664 70.3327 102.228 70.7887 102.692ZM79.7136 97.856C80.6016 97.856 81.3176 98.172 81.8616 98.804C82.4136 99.428 82.6896 100.168 82.6896 101.024C82.6896 101.112 82.6816 101.236 82.6656 101.396H77.3976C77.4776 102.004 77.7336 102.488 78.1656 102.848C78.6056 103.2 79.1456 103.376 79.7856 103.376C80.2416 103.376 80.6336 103.284 80.9616 103.1C81.2976 102.908 81.5496 102.66 81.7176 102.356L82.4136 102.764C82.1496 103.188 81.7896 103.524 81.3336 103.772C80.8776 104.02 80.3576 104.144 79.7736 104.144C78.8296 104.144 78.0616 103.848 77.4696 103.256C76.8776 102.664 76.5816 101.912 76.5816 101C76.5816 100.104 76.8736 99.356 77.4576 98.756C78.0416 98.156 78.7936 97.856 79.7136 97.856ZM79.7136 98.624C79.0896 98.624 78.5656 98.812 78.1416 99.188C77.7256 99.556 77.4776 100.036 77.3976 100.628H81.8736C81.7936 99.996 81.5496 99.504 81.1416 99.152C80.7336 98.8 80.2576 98.624 79.7136 98.624ZM88.1974 98H88.9894V104H88.1974V101.384H84.7414V104H83.9494V98H84.7414V100.616H88.1974V98ZM95.0322 98H95.7042V104H94.9122V99.38L91.3362 104H90.6642V98H91.4562V102.62L95.0322 98ZM100.595 97.856C101.451 97.856 102.179 98.16 102.779 98.768C103.387 99.376 103.691 100.12 103.691 101C103.691 101.88 103.387 102.624 102.779 103.232C102.179 103.84 101.451 104.144 100.595 104.144C99.5311 104.144 98.7231 103.704 98.1711 102.824V106.4H97.3791V98H98.1711V99.176C98.7231 98.296 99.5311 97.856 100.595 97.856ZM98.8551 102.692C99.3111 103.148 99.8711 103.376 100.535 103.376C101.199 103.376 101.759 103.148 102.215 102.692C102.671 102.228 102.899 101.664 102.899 101C102.899 100.336 102.671 99.776 102.215 99.32C101.759 98.856 101.199 98.624 100.535 98.624C99.8711 98.624 99.3111 98.856 98.8551 99.32C98.3991 99.776 98.1711 100.336 98.1711 101C98.1711 101.664 98.3991 102.228 98.8551 102.692ZM110.036 103.244C109.428 103.844 108.684 104.144 107.804 104.144C106.924 104.144 106.176 103.844 105.56 103.244C104.952 102.636 104.648 101.888 104.648 101C104.648 100.112 104.952 99.368 105.56 98.768C106.176 98.16 106.924 97.856 107.804 97.856C108.684 97.856 109.428 98.16 110.036 98.768C110.652 99.368 110.96 100.112 110.96 101C110.96 101.888 110.652 102.636 110.036 103.244ZM106.124 102.692C106.58 103.148 107.14 103.376 107.804 103.376C108.468 103.376 109.028 103.148 109.484 102.692C109.94 102.228 110.168 101.664 110.168 101C110.168 100.336 109.94 99.776 109.484 99.32C109.028 98.856 108.468 98.624 107.804 98.624C107.14 98.624 106.58 98.856 106.124 99.32C105.668 99.776 105.44 100.336 105.44 101C105.44 101.664 105.668 102.228 106.124 102.692ZM116.101 100.916C116.757 101.156 117.085 101.624 117.085 102.32C117.085 102.808 116.921 103.212 116.593 103.532C116.273 103.844 115.809 104 115.201 104H112.285V98H114.961C115.545 98 115.997 98.152 116.317 98.456C116.637 98.752 116.797 99.136 116.797 99.608C116.797 100.208 116.565 100.644 116.101 100.916ZM114.961 98.768H113.077V100.592H114.961C115.657 100.592 116.005 100.28 116.005 99.656C116.005 99.376 115.913 99.16 115.729 99.008C115.553 98.848 115.297 98.768 114.961 98.768ZM115.201 103.232C115.553 103.232 115.821 103.148 116.005 102.98C116.197 102.812 116.293 102.576 116.293 102.272C116.293 101.992 116.197 101.772 116.005 101.612C115.821 101.444 115.553 101.36 115.201 101.36H113.077V103.232H115.201ZM123.313 103.244C122.705 103.844 121.961 104.144 121.081 104.144C120.201 104.144 119.453 103.844 118.837 103.244C118.229 102.636 117.925 101.888 117.925 101C117.925 100.112 118.229 99.368 118.837 98.768C119.453 98.16 120.201 97.856 121.081 97.856C121.961 97.856 122.705 98.16 123.313 98.768C123.929 99.368 124.237 100.112 124.237 101C124.237 101.888 123.929 102.636 123.313 103.244ZM119.401 102.692C119.857 103.148 120.417 103.376 121.081 103.376C121.745 103.376 122.305 103.148 122.761 102.692C123.217 102.228 123.445 101.664 123.445 101C123.445 100.336 123.217 99.776 122.761 99.32C122.305 98.856 121.745 98.624 121.081 98.624C120.417 98.624 119.857 98.856 119.401 99.32C118.945 99.776 118.717 100.336 118.717 101C118.717 101.664 118.945 102.228 119.401 102.692ZM129.333 98H130.125V104H129.333V101.72C128.869 101.96 128.297 102.08 127.617 102.08C126.833 102.08 126.233 101.9 125.817 101.54C125.409 101.172 125.205 100.632 125.205 99.92V98H125.997V99.92C125.997 100.424 126.129 100.788 126.393 101.012C126.657 101.228 127.057 101.336 127.593 101.336C128.217 101.336 128.797 101.22 129.333 100.988V98ZM136.057 98H136.849V104H136.057V101.384H132.601V104H131.809V98H132.601V100.616H136.057V98ZM140.96 100.28C141.52 100.28 141.992 100.456 142.376 100.808C142.768 101.152 142.964 101.596 142.964 102.14C142.964 102.684 142.768 103.132 142.376 103.484C141.992 103.828 141.52 104 140.96 104H138.524V98H139.316V100.28H140.96ZM143.804 98H144.596V104H143.804V98ZM140.96 103.232C141.296 103.232 141.58 103.132 141.812 102.932C142.052 102.732 142.172 102.468 142.172 102.14C142.172 101.812 142.052 101.548 141.812 101.348C141.58 101.148 141.296 101.048 140.96 101.048H139.316V103.232H140.96ZM152.161 98V104H151.369V99.212L149.269 102.62H149.173L147.073 99.212V104H146.281V98H147.193L149.221 101.288L151.249 98H152.161ZM26.3058 112V118H25.5138V112.768H22.0578V118H21.2658V112H26.3058ZM31.1966 111.856C32.0526 111.856 32.7806 112.16 33.3806 112.768C33.9886 113.376 34.2926 114.12 34.2926 115C34.2926 115.88 33.9886 116.624 33.3806 117.232C32.7806 117.84 32.0526 118.144 31.1966 118.144C30.1326 118.144 29.3246 117.704 28.7726 116.824V120.4H27.9806V112H28.7726V113.176C29.3246 112.296 30.1326 111.856 31.1966 111.856ZM29.4566 116.692C29.9126 117.148 30.4726 117.376 31.1366 117.376C31.8006 117.376 32.3606 117.148 32.8166 116.692C33.2726 116.228 33.5006 115.664 33.5006 115C33.5006 114.336 33.2726 113.776 32.8166 113.32C32.3606 112.856 31.8006 112.624 31.1366 112.624C30.4726 112.624 29.9126 112.856 29.4566 113.32C29.0006 113.776 28.7726 114.336 28.7726 115C28.7726 115.664 29.0006 116.228 29.4566 116.692ZM40.6375 117.244C40.0295 117.844 39.2855 118.144 38.4055 118.144C37.5255 118.144 36.7775 117.844 36.1615 117.244C35.5535 116.636 35.2495 115.888 35.2495 115C35.2495 114.112 35.5535 113.368 36.1615 112.768C36.7775 112.16 37.5255 111.856 38.4055 111.856C39.2855 111.856 40.0295 112.16 40.6375 112.768C41.2535 113.368 41.5615 114.112 41.5615 115C41.5615 115.888 41.2535 116.636 40.6375 117.244ZM36.7255 116.692C37.1815 117.148 37.7415 117.376 38.4055 117.376C39.0695 117.376 39.6295 117.148 40.0855 116.692C40.5415 116.228 40.7695 115.664 40.7695 115C40.7695 114.336 40.5415 113.776 40.0855 113.32C39.6295 112.856 39.0695 112.624 38.4055 112.624C37.7415 112.624 37.1815 112.856 36.7255 113.32C36.2695 113.776 36.0415 114.336 36.0415 115C36.0415 115.664 36.2695 116.228 36.7255 116.692ZM47.8069 117.232H48.7669V119.608H47.9749V118H42.8869V112H43.6789V117.232H47.0149V112H47.8069V117.232ZM52.5026 111.856C53.3906 111.856 54.1066 112.172 54.6506 112.804C55.2026 113.428 55.4786 114.168 55.4786 115.024C55.4786 115.112 55.4706 115.236 55.4546 115.396H50.1866C50.2666 116.004 50.5226 116.488 50.9546 116.848C51.3946 117.2 51.9346 117.376 52.5746 117.376C53.0306 117.376 53.4226 117.284 53.7506 117.1C54.0866 116.908 54.3386 116.66 54.5066 116.356L55.2026 116.764C54.9386 117.188 54.5786 117.524 54.1226 117.772C53.6666 118.02 53.1466 118.144 52.5626 118.144C51.6186 118.144 50.8506 117.848 50.2586 117.256C49.6666 116.664 49.3706 115.912 49.3706 115C49.3706 114.104 49.6626 113.356 50.2466 112.756C50.8306 112.156 51.5826 111.856 52.5026 111.856ZM52.5026 112.624C51.8786 112.624 51.3546 112.812 50.9306 113.188C50.5146 113.556 50.2666 114.036 50.1866 114.628H54.6626C54.5826 113.996 54.3386 113.504 53.9306 113.152C53.5226 112.8 53.0466 112.624 52.5026 112.624ZM59.5344 118.144C58.6304 118.144 57.8784 117.844 57.2784 117.244C56.6784 116.636 56.3784 115.888 56.3784 115C56.3784 114.112 56.6784 113.368 57.2784 112.768C57.8784 112.16 58.6304 111.856 59.5344 111.856C60.1264 111.856 60.6584 112 61.1304 112.288C61.6024 112.568 61.9464 112.948 62.1624 113.428L61.5144 113.8C61.3544 113.44 61.0944 113.156 60.7344 112.948C60.3824 112.732 59.9824 112.624 59.5344 112.624C58.8704 112.624 58.3104 112.856 57.8544 113.32C57.3984 113.776 57.1704 114.336 57.1704 115C57.1704 115.664 57.3984 116.228 57.8544 116.692C58.3104 117.148 58.8704 117.376 59.5344 117.376C59.9824 117.376 60.3824 117.272 60.7344 117.064C61.0864 116.848 61.3624 116.56 61.5624 116.2L62.2224 116.584C61.9744 117.064 61.6104 117.444 61.1304 117.724C60.6504 118.004 60.1184 118.144 59.5344 118.144ZM66.0969 118.144C65.1929 118.144 64.4409 117.844 63.8409 117.244C63.2409 116.636 62.9409 115.888 62.9409 115C62.9409 114.112 63.2409 113.368 63.8409 112.768C64.4409 112.16 65.1929 111.856 66.0969 111.856C66.6889 111.856 67.2209 112 67.6929 112.288C68.1649 112.568 68.5089 112.948 68.7249 113.428L68.0769 113.8C67.9169 113.44 67.6569 113.156 67.2969 112.948C66.9449 112.732 66.5449 112.624 66.0969 112.624C65.4329 112.624 64.8729 112.856 64.4169 113.32C63.9609 113.776 63.7329 114.336 63.7329 115C63.7329 115.664 63.9609 116.228 64.4169 116.692C64.8729 117.148 65.4329 117.376 66.0969 117.376C66.5449 117.376 66.9449 117.272 67.2969 117.064C67.6489 116.848 67.9249 116.56 68.1249 116.2L68.7849 116.584C68.5369 117.064 68.1729 117.444 67.6929 117.724C67.2129 118.004 66.6809 118.144 66.0969 118.144ZM74.8914 117.244C74.2834 117.844 73.5394 118.144 72.6594 118.144C71.7794 118.144 71.0314 117.844 70.4154 117.244C69.8074 116.636 69.5034 115.888 69.5034 115C69.5034 114.112 69.8074 113.368 70.4154 112.768C71.0314 112.16 71.7794 111.856 72.6594 111.856C73.5394 111.856 74.2834 112.16 74.8914 112.768C75.5074 113.368 75.8154 114.112 75.8154 115C75.8154 115.888 75.5074 116.636 74.8914 117.244ZM70.9794 116.692C71.4354 117.148 71.9954 117.376 72.6594 117.376C73.3234 117.376 73.8834 117.148 74.3394 116.692C74.7954 116.228 75.0234 115.664 75.0234 115C75.0234 114.336 74.7954 113.776 74.3394 113.32C73.8834 112.856 73.3234 112.624 72.6594 112.624C71.9954 112.624 71.4354 112.856 70.9794 113.32C70.5234 113.776 70.2954 114.336 70.2954 115C70.2954 115.664 70.5234 116.228 70.9794 116.692ZM83.0208 112V118H82.2288V113.212L80.1288 116.62H80.0328L77.9328 113.212V118H77.1408V112H78.0528L80.0808 115.288L82.1088 112H83.0208ZM92.0674 112H92.7394V118H91.9474V113.38L88.3714 118H87.6994V112H88.4914V116.62L92.0674 112ZM101.782 112H102.454V118H101.662V113.38L98.0862 118H97.4142V112H98.2062V116.62L101.782 112ZM107.969 112V112.768H104.921V118H104.129V112H107.969ZM112.15 111.856C113.006 111.856 113.734 112.16 114.334 112.768C114.942 113.376 115.246 114.12 115.246 115C115.246 115.88 114.942 116.624 114.334 117.232C113.734 117.84 113.006 118.144 112.15 118.144C111.086 118.144 110.278 117.704 109.726 116.824V120.4H108.934V112H109.726V113.176C110.278 112.296 111.086 111.856 112.15 111.856ZM110.41 116.692C110.866 117.148 111.426 117.376 112.09 117.376C112.754 117.376 113.314 117.148 113.77 116.692C114.226 116.228 114.454 115.664 114.454 115C114.454 114.336 114.226 113.776 113.77 113.32C113.314 112.856 112.754 112.624 112.09 112.624C111.426 112.624 110.866 112.856 110.41 113.32C109.954 113.776 109.726 114.336 109.726 115C109.726 115.664 109.954 116.228 110.41 116.692ZM121.591 117.244C120.983 117.844 120.239 118.144 119.359 118.144C118.479 118.144 117.731 117.844 117.115 117.244C116.507 116.636 116.203 115.888 116.203 115C116.203 114.112 116.507 113.368 117.115 112.768C117.731 112.16 118.479 111.856 119.359 111.856C120.239 111.856 120.983 112.16 121.591 112.768C122.207 113.368 122.515 114.112 122.515 115C122.515 115.888 122.207 116.636 121.591 117.244ZM117.679 116.692C118.135 117.148 118.695 117.376 119.359 117.376C120.023 117.376 120.583 117.148 121.039 116.692C121.495 116.228 121.723 115.664 121.723 115C121.723 114.336 121.495 113.776 121.039 113.32C120.583 112.856 120.023 112.624 119.359 112.624C118.695 112.624 118.135 112.856 117.679 113.32C117.223 113.776 116.995 114.336 116.995 115C116.995 115.664 117.223 116.228 117.679 116.692ZM128.688 118H127.632L124.632 115.108V118H123.84V112H124.632V114.652L127.488 112H128.568L125.472 114.88L128.688 118ZM134.332 112H135.124V118H134.332V116.824C133.78 117.704 132.972 118.144 131.908 118.144C131.052 118.144 130.32 117.84 129.712 117.232C129.112 116.624 128.812 115.88 128.812 115C128.812 114.12 129.112 113.376 129.712 112.768C130.32 112.16 131.052 111.856 131.908 111.856C132.972 111.856 133.78 112.296 134.332 113.176V112ZM130.288 116.692C130.744 117.148 131.304 117.376 131.968 117.376C132.632 117.376 133.192 117.148 133.648 116.692C134.104 116.228 134.332 115.664 134.332 115C134.332 114.336 134.104 113.776 133.648 113.32C133.192 112.856 132.632 112.624 131.968 112.624C131.304 112.624 130.744 112.856 130.288 113.32C129.832 113.776 129.604 114.336 129.604 115C129.604 115.664 129.832 116.228 130.288 116.692ZM142.681 112V118H141.889V113.212L139.789 116.62H139.693L137.593 113.212V118H136.801V112H137.713L139.741 115.288L141.769 112H142.681ZM148.728 112H149.4V118H148.608V113.38L145.032 118H144.36V112H145.152V116.62L148.728 112ZM152.082 117.928C151.954 118.056 151.798 118.12 151.614 118.12C151.43 118.12 151.274 118.056 151.146 117.928C151.018 117.8 150.954 117.644 150.954 117.46C150.954 117.276 151.018 117.12 151.146 116.992C151.274 116.864 151.43 116.8 151.614 116.8C151.798 116.8 151.954 116.864 152.082 116.992C152.21 117.12 152.274 117.276 152.274 117.46C152.274 117.644 152.21 117.8 152.082 117.928Z" fill="white"/>
<defs>
<filter id="filter0_b_1005_22234" x="-10" y="-10" width="181" height="159" filterUnits="userSpaceOnUse" color-interpolation-filters="sRGB">
<feFlood flood-opacity="0" result="BackgroundImageFix"/>
<feGaussianBlur in="BackgroundImageFix" stdDeviation="5"/>
<feComposite in2="SourceAlpha" operator="in" result="effect1_backgroundBlur_1005_22234"/>
<feBlend mode="normal" in="SourceGraphic" in2="effect1_backgroundBlur_1005_22234" result="shape"/>
</filter>
</defs>
</svg>
