<svg width="1646" height="124" viewBox="0 0 1646 124" fill="none" xmlns="http://www.w3.org/2000/svg">
<g opacity="0.5">
<path opacity="0.8" d="M19.3143 46.8V49.968H11.8623V72H8.55033V49.968H1.13433V46.8H19.3143ZM42.1383 68.652C39.6183 71.196 36.5343 72.468 32.8863 72.468C29.2383 72.468 26.1543 71.196 23.6343 68.652C21.1143 66.108 19.8543 63.024 19.8543 59.4C19.8543 55.752 21.1143 52.668 23.6343 50.148C26.1543 47.604 29.2383 46.332 32.8863 46.332C36.5343 46.332 39.6183 47.604 42.1383 50.148C44.6823 52.668 45.9543 55.752 45.9543 59.4C45.9543 63.024 44.6823 66.108 42.1383 68.652ZM25.9383 66.384C27.8103 68.256 30.1263 69.192 32.8863 69.192C35.6463 69.192 37.9503 68.256 39.7983 66.384C41.6703 64.488 42.6063 62.16 42.6063 59.4C42.6063 56.616 41.6703 54.288 39.7983 52.416C37.9503 50.52 35.6463 49.572 32.8863 49.572C30.1263 49.572 27.8103 50.52 25.9383 52.416C24.0903 54.288 23.1663 56.616 23.1663 59.4C23.1663 62.16 24.0903 64.488 25.9383 66.384ZM59.1233 46.8C61.4513 46.8 63.3833 47.58 64.9193 49.14C66.4793 50.676 67.2593 52.596 67.2593 54.9C67.2593 57.18 66.4793 59.1 64.9193 60.66C63.3833 62.22 61.4513 63 59.1233 63H53.3273V72H49.9793V46.8H59.1233ZM59.1233 59.868C60.5153 59.868 61.6673 59.4 62.5793 58.464C63.4913 57.504 63.9473 56.316 63.9473 54.9C63.9473 53.46 63.4913 52.272 62.5793 51.336C61.6673 50.4 60.5153 49.932 59.1233 49.932H53.3273V59.868H59.1233Z" fill="white"/>
<mask id="path-2-inside-1_1359_3055" fill="white">
<path d="M127 61C127 59.1615 126.638 57.341 125.934 55.6424C125.231 53.9439 124.2 52.4005 122.899 51.1005C121.599 49.8005 120.056 48.7693 118.358 48.0657C116.659 47.3621 114.839 47 113 47C111.161 47 109.341 47.3621 107.642 48.0657C105.944 48.7693 104.401 49.8005 103.101 51.1005C101.8 52.4005 100.769 53.9439 100.066 55.6424C99.3621 57.341 99 59.1615 99 61L113 61H127Z"/>
</mask>
<path d="M127 61C127 59.1615 126.638 57.341 125.934 55.6424C125.231 53.9439 124.2 52.4005 122.899 51.1005C121.599 49.8005 120.056 48.7693 118.358 48.0657C116.659 47.3621 114.839 47 113 47C111.161 47 109.341 47.3621 107.642 48.0657C105.944 48.7693 104.401 49.8005 103.101 51.1005C101.8 52.4005 100.769 53.9439 100.066 55.6424C99.3621 57.341 99 59.1615 99 61L113 61H127Z" stroke="white" stroke-opacity="0.3" stroke-width="4" mask="url(#path-2-inside-1_1359_3055)"/>
<mask id="path-3-inside-2_1359_3055" fill="white">
<path d="M99 63C99 64.8385 99.3621 66.659 100.066 68.3576C100.769 70.0561 101.8 71.5995 103.101 72.8995C104.401 74.1995 105.944 75.2307 107.642 75.9343C109.341 76.6379 111.161 77 113 77C114.839 77 116.659 76.6379 118.358 75.9343C120.056 75.2307 121.599 74.1995 122.899 72.8995C124.2 71.5995 125.231 70.0561 125.934 68.3576C126.638 66.659 127 64.8385 127 63L113 63H99Z"/>
</mask>
<path d="M99 63C99 64.8385 99.3621 66.659 100.066 68.3576C100.769 70.0561 101.8 71.5995 103.101 72.8995C104.401 74.1995 105.944 75.2307 107.642 75.9343C109.341 76.6379 111.161 77 113 77C114.839 77 116.659 76.6379 118.358 75.9343C120.056 75.2307 121.599 74.1995 122.899 72.8995C124.2 71.5995 125.231 70.0561 125.934 68.3576C126.638 66.659 127 64.8385 127 63L113 63H99Z" stroke="white" stroke-opacity="0.3" stroke-width="4" mask="url(#path-3-inside-2_1359_3055)"/>
<path opacity="0.8" d="M174.692 49.968H163.532V58.14H174.224V61.308H163.532V72H160.184V46.8H174.692V49.968ZM199.699 68.652C197.179 71.196 194.095 72.468 190.447 72.468C186.799 72.468 183.715 71.196 181.195 68.652C178.675 66.108 177.415 63.024 177.415 59.4C177.415 55.752 178.675 52.668 181.195 50.148C183.715 47.604 186.799 46.332 190.447 46.332C194.095 46.332 197.179 47.604 199.699 50.148C202.243 52.668 203.515 55.752 203.515 59.4C203.515 63.024 202.243 66.108 199.699 68.652ZM183.499 66.384C185.371 68.256 187.687 69.192 190.447 69.192C193.207 69.192 195.511 68.256 197.359 66.384C199.231 64.488 200.167 62.16 200.167 59.4C200.167 56.616 199.231 54.288 197.359 52.416C195.511 50.52 193.207 49.572 190.447 49.572C187.687 49.572 185.371 50.52 183.499 52.416C181.651 54.288 180.727 56.616 180.727 59.4C180.727 62.16 181.651 64.488 183.499 66.384ZM228.492 68.652C225.972 71.196 222.888 72.468 219.24 72.468C215.592 72.468 212.508 71.196 209.988 68.652C207.468 66.108 206.208 63.024 206.208 59.4C206.208 55.752 207.468 52.668 209.988 50.148C212.508 47.604 215.592 46.332 219.24 46.332C222.888 46.332 225.972 47.604 228.492 50.148C231.036 52.668 232.308 55.752 232.308 59.4C232.308 63.024 231.036 66.108 228.492 68.652ZM212.292 66.384C214.164 68.256 216.48 69.192 219.24 69.192C222 69.192 224.304 68.256 226.152 66.384C228.024 64.488 228.96 62.16 228.96 59.4C228.96 56.616 228.024 54.288 226.152 52.416C224.304 50.52 222 49.572 219.24 49.572C216.48 49.572 214.164 50.52 212.292 52.416C210.444 54.288 209.52 56.616 209.52 59.4C209.52 62.16 210.444 64.488 212.292 66.384ZM251.019 46.8V49.968H243.567V72H240.255V49.968H232.839V46.8H251.019ZM268.733 58.932C269.885 59.484 270.797 60.276 271.469 61.308C272.165 62.34 272.513 63.528 272.513 64.872C272.513 66.888 271.805 68.58 270.389 69.948C268.973 71.316 267.245 72 265.205 72H254.333V46.8H264.413C266.381 46.8 268.049 47.46 269.417 48.78C270.785 50.1 271.469 51.732 271.469 53.676C271.469 55.908 270.557 57.66 268.733 58.932ZM264.413 49.932H257.681V57.636H264.413C265.469 57.636 266.357 57.264 267.077 56.52C267.797 55.776 268.157 54.864 268.157 53.784C268.157 52.728 267.785 51.828 267.041 51.084C266.321 50.316 265.445 49.932 264.413 49.932ZM265.205 68.868C266.333 68.868 267.281 68.472 268.049 67.68C268.817 66.888 269.201 65.916 269.201 64.764C269.201 63.636 268.805 62.676 268.013 61.884C267.245 61.092 266.309 60.696 265.205 60.696H257.681V68.868H265.205ZM293.077 72L291.025 66.348H279.685L277.633 72H274.069L283.465 46.8H287.245L296.641 72H293.077ZM280.837 63.216H289.873L285.337 50.796L280.837 63.216ZM302.962 68.832H313.834V72H299.614V46.8H302.962V68.832ZM320.54 68.832H331.412V72H317.192V46.8H320.54V68.832ZM358.278 49.968H347.118V58.14H357.81V61.308H347.118V72H343.77V46.8H358.278V49.968ZM362.333 46.8H365.681V72H362.333V46.8ZM374.435 68.832H386.135V72H371.087V46.8H385.955V49.968H374.435V57.708H385.055V60.84H374.435V68.832ZM393.525 68.832H404.397V72H390.177V46.8H393.525V68.832ZM417.583 46.8C421.015 46.8 423.859 48.024 426.115 50.472C428.395 52.896 429.535 55.872 429.535 59.4C429.535 62.928 428.395 65.916 426.115 68.364C423.859 70.788 421.015 72 417.583 72H407.755V46.8H417.583ZM417.583 68.832C420.151 68.832 422.251 67.932 423.883 66.132C425.515 64.332 426.331 62.088 426.331 59.4C426.331 56.712 425.515 54.468 423.883 52.668C422.251 50.868 420.151 49.968 417.583 49.968H411.103V68.832H417.583ZM456.995 58.932C458.147 59.484 459.059 60.276 459.731 61.308C460.427 62.34 460.775 63.528 460.775 64.872C460.775 66.888 460.067 68.58 458.651 69.948C457.235 71.316 455.507 72 453.467 72H442.595V46.8H452.675C454.643 46.8 456.311 47.46 457.679 48.78C459.047 50.1 459.731 51.732 459.731 53.676C459.731 55.908 458.819 57.66 456.995 58.932ZM452.675 49.932H445.943V57.636H452.675C453.731 57.636 454.619 57.264 455.339 56.52C456.059 55.776 456.419 54.864 456.419 53.784C456.419 52.728 456.047 51.828 455.303 51.084C454.583 50.316 453.707 49.932 452.675 49.932ZM453.467 68.868C454.595 68.868 455.543 68.472 456.311 67.68C457.079 66.888 457.463 65.916 457.463 64.764C457.463 63.636 457.067 62.676 456.275 61.884C455.507 61.092 454.571 60.696 453.467 60.696H445.943V68.868H453.467ZM485.695 68.652C483.175 71.196 480.091 72.468 476.443 72.468C472.795 72.468 469.711 71.196 467.191 68.652C464.671 66.108 463.411 63.024 463.411 59.4C463.411 55.752 464.671 52.668 467.191 50.148C469.711 47.604 472.795 46.332 476.443 46.332C480.091 46.332 483.175 47.604 485.695 50.148C488.239 52.668 489.511 55.752 489.511 59.4C489.511 63.024 488.239 66.108 485.695 68.652ZM469.495 66.384C471.367 68.256 473.683 69.192 476.443 69.192C479.203 69.192 481.507 68.256 483.355 66.384C485.227 64.488 486.163 62.16 486.163 59.4C486.163 56.616 485.227 54.288 483.355 52.416C481.507 50.52 479.203 49.572 476.443 49.572C473.683 49.572 471.367 50.52 469.495 52.416C467.647 54.288 466.723 56.616 466.723 59.4C466.723 62.16 467.647 64.488 469.495 66.384ZM514.488 68.652C511.968 71.196 508.884 72.468 505.236 72.468C501.588 72.468 498.504 71.196 495.984 68.652C493.464 66.108 492.204 63.024 492.204 59.4C492.204 55.752 493.464 52.668 495.984 50.148C498.504 47.604 501.588 46.332 505.236 46.332C508.884 46.332 511.968 47.604 514.488 50.148C517.032 52.668 518.304 55.752 518.304 59.4C518.304 63.024 517.032 66.108 514.488 68.652ZM498.288 66.384C500.16 68.256 502.476 69.192 505.236 69.192C507.996 69.192 510.3 68.256 512.148 66.384C514.02 64.488 514.956 62.16 514.956 59.4C514.956 56.616 514.02 54.288 512.148 52.416C510.3 50.52 507.996 49.572 505.236 49.572C502.476 49.572 500.16 50.52 498.288 52.416C496.44 54.288 495.516 56.616 495.516 59.4C495.516 62.16 496.44 64.488 498.288 66.384ZM540.653 72H536.549L525.677 59.904V72H522.329V46.8H525.677V58.176L536.189 46.8H540.293L529.169 59.04L540.653 72ZM543.634 46.8H546.982V72H543.634V46.8ZM568.048 46.8H571.396V72H568.695L555.736 53.172V72H552.388V46.8H555.088L568.048 65.592V46.8ZM601.086 59.508V61.02C601.086 64.308 599.958 67.044 597.702 69.228C595.446 71.388 592.458 72.468 588.738 72.468C584.898 72.468 581.718 71.208 579.198 68.688C576.702 66.144 575.454 63.048 575.454 59.4C575.454 55.752 576.702 52.668 579.198 50.148C581.718 47.604 584.874 46.332 588.666 46.332C590.994 46.332 593.13 46.896 595.074 48.024C597.018 49.128 598.518 50.592 599.574 52.416L596.694 54.108C595.974 52.74 594.882 51.648 593.418 50.832C591.978 49.992 590.382 49.572 588.63 49.572C585.75 49.572 583.386 50.52 581.538 52.416C579.69 54.288 578.766 56.616 578.766 59.4C578.766 62.184 579.69 64.512 581.538 66.384C583.41 68.256 585.822 69.192 588.774 69.192C591.294 69.192 593.334 68.58 594.894 67.356C596.454 66.108 597.402 64.5 597.738 62.532H588.486V59.508H601.086ZM622.293 72.468C619.941 72.468 617.925 71.916 616.245 70.812C614.589 69.708 613.425 68.196 612.753 66.276L615.633 64.62C616.617 67.668 618.861 69.192 622.365 69.192C624.093 69.192 625.413 68.844 626.325 68.148C627.237 67.428 627.693 66.48 627.693 65.304C627.693 64.104 627.237 63.204 626.325 62.604C625.413 62.004 623.889 61.368 621.753 60.696C620.697 60.36 619.893 60.096 619.341 59.904C618.789 59.688 618.093 59.376 617.253 58.968C616.437 58.536 615.825 58.104 615.417 57.672C615.009 57.216 614.637 56.628 614.301 55.908C613.989 55.188 613.833 54.372 613.833 53.46C613.833 51.276 614.601 49.548 616.137 48.276C617.673 46.98 619.545 46.332 621.753 46.332C623.745 46.332 625.473 46.836 626.937 47.844C628.425 48.852 629.541 50.184 630.285 51.84L627.477 53.46C626.397 50.868 624.489 49.572 621.753 49.572C620.385 49.572 619.281 49.908 618.441 50.58C617.601 51.252 617.181 52.164 617.181 53.316C617.181 54.42 617.577 55.26 618.369 55.836C619.161 56.412 620.529 57.012 622.473 57.636C623.169 57.852 623.661 58.008 623.949 58.104C624.237 58.2 624.681 58.368 625.281 58.608C625.905 58.848 626.361 59.04 626.649 59.184C626.937 59.328 627.321 59.532 627.801 59.796C628.305 60.06 628.677 60.312 628.917 60.552C629.157 60.792 629.433 61.092 629.745 61.452C630.081 61.788 630.321 62.136 630.465 62.496C630.609 62.856 630.729 63.276 630.825 63.756C630.945 64.212 631.005 64.704 631.005 65.232C631.005 67.44 630.201 69.204 628.593 70.524C626.985 71.82 624.885 72.468 622.293 72.468ZM638.142 68.832H649.842V72H634.794V46.8H649.662V49.968H638.142V57.708H648.762V60.84H638.142V68.832ZM668.824 72L663.172 62.352H657.232V72H653.884V46.8H663.964C666.124 46.8 667.972 47.568 669.508 49.104C671.044 50.616 671.812 52.452 671.812 54.612C671.812 56.244 671.32 57.732 670.336 59.076C669.376 60.42 668.128 61.368 666.592 61.92L672.532 72H668.824ZM657.232 49.932V59.328H663.964C665.212 59.328 666.268 58.872 667.132 57.96C668.02 57.024 668.464 55.908 668.464 54.612C668.464 53.316 668.02 52.212 667.132 51.3C666.268 50.388 665.212 49.932 663.964 49.932H657.232ZM682.093 72L673.093 46.8H676.693L684.001 67.824L691.273 46.8H694.909L685.873 72H682.093ZM697.864 46.8H701.212V72H697.864V46.8ZM718.462 72.468C714.646 72.468 711.49 71.208 708.994 68.688C706.522 66.168 705.286 63.072 705.286 59.4C705.286 55.728 706.522 52.632 708.994 50.112C711.49 47.592 714.646 46.332 718.462 46.332C720.766 46.332 722.878 46.884 724.798 47.988C726.742 49.092 728.254 50.58 729.334 52.452L726.418 54.144C725.698 52.752 724.618 51.648 723.178 50.832C721.762 49.992 720.19 49.572 718.462 49.572C715.558 49.572 713.182 50.508 711.334 52.38C709.51 54.252 708.598 56.592 708.598 59.4C708.598 62.184 709.51 64.512 711.334 66.384C713.182 68.256 715.558 69.192 718.462 69.192C720.19 69.192 721.762 68.784 723.178 67.968C724.618 67.128 725.698 66.024 726.418 64.656L729.334 66.312C728.278 68.184 726.778 69.684 724.834 70.812C722.89 71.916 720.766 72.468 718.462 72.468ZM736.474 68.832H748.174V72H733.126V46.8H747.994V49.968H736.474V57.708H747.094V60.84H736.474V68.832Z" fill="white"/>
<mask id="path-5-inside-3_1359_3055" fill="white">
<path d="M808 61C808 59.1615 807.638 57.341 806.934 55.6424C806.231 53.9439 805.2 52.4005 803.899 51.1005C802.599 49.8005 801.056 48.7693 799.358 48.0657C797.659 47.3621 795.839 47 794 47C792.161 47 790.341 47.3621 788.642 48.0657C786.944 48.7693 785.401 49.8005 784.101 51.1005C782.8 52.4005 781.769 53.9439 781.066 55.6424C780.362 57.341 780 59.1615 780 61L794 61H808Z"/>
</mask>
<path d="M808 61C808 59.1615 807.638 57.341 806.934 55.6424C806.231 53.9439 805.2 52.4005 803.899 51.1005C802.599 49.8005 801.056 48.7693 799.358 48.0657C797.659 47.3621 795.839 47 794 47C792.161 47 790.341 47.3621 788.642 48.0657C786.944 48.7693 785.401 49.8005 784.101 51.1005C782.8 52.4005 781.769 53.9439 781.066 55.6424C780.362 57.341 780 59.1615 780 61L794 61H808Z" stroke="white" stroke-opacity="0.3" stroke-width="4" mask="url(#path-5-inside-3_1359_3055)"/>
<mask id="path-6-inside-4_1359_3055" fill="white">
<path d="M780 63C780 64.8385 780.362 66.659 781.066 68.3576C781.769 70.0561 782.8 71.5995 784.101 72.8995C785.401 74.1995 786.944 75.2307 788.642 75.9343C790.341 76.6379 792.161 77 794 77C795.839 77 797.659 76.6379 799.358 75.9343C801.056 75.2307 802.599 74.1995 803.899 72.8995C805.2 71.5995 806.231 70.0561 806.934 68.3576C807.638 66.659 808 64.8385 808 63L794 63H780Z"/>
</mask>
<path d="M780 63C780 64.8385 780.362 66.659 781.066 68.3576C781.769 70.0561 782.8 71.5995 784.101 72.8995C785.401 74.1995 786.944 75.2307 788.642 75.9343C790.341 76.6379 792.161 77 794 77C795.839 77 797.659 76.6379 799.358 75.9343C801.056 75.2307 802.599 74.1995 803.899 72.8995C805.2 71.5995 806.231 70.0561 806.934 68.3576C807.638 66.659 808 64.8385 808 63L794 63H780Z" stroke="white" stroke-opacity="0.3" stroke-width="4" mask="url(#path-6-inside-4_1359_3055)"/>
<path opacity="0.8" d="M857.314 46.8V49.968H849.862V72H846.55V49.968H839.134V46.8H857.314ZM880.138 68.652C877.618 71.196 874.534 72.468 870.886 72.468C867.238 72.468 864.154 71.196 861.634 68.652C859.114 66.108 857.854 63.024 857.854 59.4C857.854 55.752 859.114 52.668 861.634 50.148C864.154 47.604 867.238 46.332 870.886 46.332C874.534 46.332 877.618 47.604 880.138 50.148C882.682 52.668 883.954 55.752 883.954 59.4C883.954 63.024 882.682 66.108 880.138 68.652ZM863.938 66.384C865.81 68.256 868.126 69.192 870.886 69.192C873.646 69.192 875.95 68.256 877.798 66.384C879.67 64.488 880.606 62.16 880.606 59.4C880.606 56.616 879.67 54.288 877.798 52.416C875.95 50.52 873.646 49.572 870.886 49.572C868.126 49.572 865.81 50.52 863.938 52.416C862.09 54.288 861.166 56.616 861.166 59.4C861.166 62.16 862.09 64.488 863.938 66.384ZM897.123 46.8C899.451 46.8 901.383 47.58 902.919 49.14C904.479 50.676 905.259 52.596 905.259 54.9C905.259 57.18 904.479 59.1 902.919 60.66C901.383 62.22 899.451 63 897.123 63H891.327V72H887.979V46.8H897.123ZM897.123 59.868C898.515 59.868 899.667 59.4 900.579 58.464C901.491 57.504 901.947 56.316 901.947 54.9C901.947 53.46 901.491 52.272 900.579 51.336C899.667 50.4 898.515 49.932 897.123 49.932H891.327V59.868H897.123Z" fill="white"/>
<mask id="path-8-inside-5_1359_3055" fill="white">
<path d="M965 61C965 59.1615 964.638 57.341 963.934 55.6424C963.231 53.9439 962.2 52.4005 960.899 51.1005C959.599 49.8005 958.056 48.7693 956.358 48.0657C954.659 47.3621 952.839 47 951 47C949.161 47 947.341 47.3621 945.642 48.0657C943.944 48.7693 942.401 49.8005 941.101 51.1005C939.8 52.4005 938.769 53.9439 938.066 55.6424C937.362 57.341 937 59.1615 937 61L951 61H965Z"/>
</mask>
<path d="M965 61C965 59.1615 964.638 57.341 963.934 55.6424C963.231 53.9439 962.2 52.4005 960.899 51.1005C959.599 49.8005 958.056 48.7693 956.358 48.0657C954.659 47.3621 952.839 47 951 47C949.161 47 947.341 47.3621 945.642 48.0657C943.944 48.7693 942.401 49.8005 941.101 51.1005C939.8 52.4005 938.769 53.9439 938.066 55.6424C937.362 57.341 937 59.1615 937 61L951 61H965Z" stroke="white" stroke-opacity="0.3" stroke-width="4" mask="url(#path-8-inside-5_1359_3055)"/>
<mask id="path-9-inside-6_1359_3055" fill="white">
<path d="M937 63C937 64.8385 937.362 66.659 938.066 68.3576C938.769 70.0561 939.8 71.5995 941.101 72.8995C942.401 74.1995 943.944 75.2307 945.642 75.9343C947.341 76.6379 949.161 77 951 77C952.839 77 954.659 76.6379 956.358 75.9343C958.056 75.2307 959.599 74.1995 960.899 72.8995C962.2 71.5995 963.231 70.0561 963.934 68.3576C964.638 66.659 965 64.8385 965 63L951 63H937Z"/>
</mask>
<path d="M937 63C937 64.8385 937.362 66.659 938.066 68.3576C938.769 70.0561 939.8 71.5995 941.101 72.8995C942.401 74.1995 943.944 75.2307 945.642 75.9343C947.341 76.6379 949.161 77 951 77C952.839 77 954.659 76.6379 956.358 75.9343C958.056 75.2307 959.599 74.1995 960.899 72.8995C962.2 71.5995 963.231 70.0561 963.934 68.3576C964.638 66.659 965 64.8385 965 63L951 63H937Z" stroke="white" stroke-opacity="0.3" stroke-width="4" mask="url(#path-9-inside-6_1359_3055)"/>
<path opacity="0.8" d="M1012.69 49.968H1001.53V58.14H1012.22V61.308H1001.53V72H998.184V46.8H1012.69V49.968ZM1037.7 68.652C1035.18 71.196 1032.09 72.468 1028.45 72.468C1024.8 72.468 1021.71 71.196 1019.19 68.652C1016.67 66.108 1015.41 63.024 1015.41 59.4C1015.41 55.752 1016.67 52.668 1019.19 50.148C1021.71 47.604 1024.8 46.332 1028.45 46.332C1032.09 46.332 1035.18 47.604 1037.7 50.148C1040.24 52.668 1041.51 55.752 1041.51 59.4C1041.51 63.024 1040.24 66.108 1037.7 68.652ZM1021.5 66.384C1023.37 68.256 1025.69 69.192 1028.45 69.192C1031.21 69.192 1033.51 68.256 1035.36 66.384C1037.23 64.488 1038.17 62.16 1038.17 59.4C1038.17 56.616 1037.23 54.288 1035.36 52.416C1033.51 50.52 1031.21 49.572 1028.45 49.572C1025.69 49.572 1023.37 50.52 1021.5 52.416C1019.65 54.288 1018.73 56.616 1018.73 59.4C1018.73 62.16 1019.65 64.488 1021.5 66.384ZM1066.49 68.652C1063.97 71.196 1060.89 72.468 1057.24 72.468C1053.59 72.468 1050.51 71.196 1047.99 68.652C1045.47 66.108 1044.21 63.024 1044.21 59.4C1044.21 55.752 1045.47 52.668 1047.99 50.148C1050.51 47.604 1053.59 46.332 1057.24 46.332C1060.89 46.332 1063.97 47.604 1066.49 50.148C1069.04 52.668 1070.31 55.752 1070.31 59.4C1070.31 63.024 1069.04 66.108 1066.49 68.652ZM1050.29 66.384C1052.16 68.256 1054.48 69.192 1057.24 69.192C1060 69.192 1062.3 68.256 1064.15 66.384C1066.02 64.488 1066.96 62.16 1066.96 59.4C1066.96 56.616 1066.02 54.288 1064.15 52.416C1062.3 50.52 1060 49.572 1057.24 49.572C1054.48 49.572 1052.16 50.52 1050.29 52.416C1048.44 54.288 1047.52 56.616 1047.52 59.4C1047.52 62.16 1048.44 64.488 1050.29 66.384ZM1089.02 46.8V49.968H1081.57V72H1078.26V49.968H1070.84V46.8H1089.02ZM1106.73 58.932C1107.88 59.484 1108.8 60.276 1109.47 61.308C1110.16 62.34 1110.51 63.528 1110.51 64.872C1110.51 66.888 1109.8 68.58 1108.39 69.948C1106.97 71.316 1105.24 72 1103.2 72H1092.33V46.8H1102.41C1104.38 46.8 1106.05 47.46 1107.42 48.78C1108.78 50.1 1109.47 51.732 1109.47 53.676C1109.47 55.908 1108.56 57.66 1106.73 58.932ZM1102.41 49.932H1095.68V57.636H1102.41C1103.47 57.636 1104.36 57.264 1105.08 56.52C1105.8 55.776 1106.16 54.864 1106.16 53.784C1106.16 52.728 1105.78 51.828 1105.04 51.084C1104.32 50.316 1103.44 49.932 1102.41 49.932ZM1103.2 68.868C1104.33 68.868 1105.28 68.472 1106.05 67.68C1106.82 66.888 1107.2 65.916 1107.2 64.764C1107.2 63.636 1106.8 62.676 1106.01 61.884C1105.24 61.092 1104.31 60.696 1103.2 60.696H1095.68V68.868H1103.2ZM1131.08 72L1129.03 66.348H1117.69L1115.63 72H1112.07L1121.47 46.8H1125.25L1134.64 72H1131.08ZM1118.84 63.216H1127.87L1123.34 50.796L1118.84 63.216ZM1140.96 68.832H1151.83V72H1137.61V46.8H1140.96V68.832ZM1158.54 68.832H1169.41V72H1155.19V46.8H1158.54V68.832ZM1196.28 49.968H1185.12V58.14H1195.81V61.308H1185.12V72H1181.77V46.8H1196.28V49.968ZM1200.33 46.8H1203.68V72H1200.33V46.8ZM1212.43 68.832H1224.13V72H1209.09V46.8H1223.95V49.968H1212.43V57.708H1223.05V60.84H1212.43V68.832ZM1231.52 68.832H1242.4V72H1228.18V46.8H1231.52V68.832ZM1255.58 46.8C1259.01 46.8 1261.86 48.024 1264.11 50.472C1266.39 52.896 1267.53 55.872 1267.53 59.4C1267.53 62.928 1266.39 65.916 1264.11 68.364C1261.86 70.788 1259.01 72 1255.58 72H1245.75V46.8H1255.58ZM1255.58 68.832C1258.15 68.832 1260.25 67.932 1261.88 66.132C1263.51 64.332 1264.33 62.088 1264.33 59.4C1264.33 56.712 1263.51 54.468 1261.88 52.668C1260.25 50.868 1258.15 49.968 1255.58 49.968H1249.1V68.832H1255.58ZM1294.99 58.932C1296.15 59.484 1297.06 60.276 1297.73 61.308C1298.43 62.34 1298.77 63.528 1298.77 64.872C1298.77 66.888 1298.07 68.58 1296.65 69.948C1295.23 71.316 1293.51 72 1291.47 72H1280.59V46.8H1290.67C1292.64 46.8 1294.31 47.46 1295.68 48.78C1297.05 50.1 1297.73 51.732 1297.73 53.676C1297.73 55.908 1296.82 57.66 1294.99 58.932ZM1290.67 49.932H1283.94V57.636H1290.67C1291.73 57.636 1292.62 57.264 1293.34 56.52C1294.06 55.776 1294.42 54.864 1294.42 53.784C1294.42 52.728 1294.05 51.828 1293.3 51.084C1292.58 50.316 1291.71 49.932 1290.67 49.932ZM1291.47 68.868C1292.59 68.868 1293.54 68.472 1294.31 67.68C1295.08 66.888 1295.46 65.916 1295.46 64.764C1295.46 63.636 1295.07 62.676 1294.27 61.884C1293.51 61.092 1292.57 60.696 1291.47 60.696H1283.94V68.868H1291.47ZM1323.69 68.652C1321.17 71.196 1318.09 72.468 1314.44 72.468C1310.79 72.468 1307.71 71.196 1305.19 68.652C1302.67 66.108 1301.41 63.024 1301.41 59.4C1301.41 55.752 1302.67 52.668 1305.19 50.148C1307.71 47.604 1310.79 46.332 1314.44 46.332C1318.09 46.332 1321.17 47.604 1323.69 50.148C1326.24 52.668 1327.51 55.752 1327.51 59.4C1327.51 63.024 1326.24 66.108 1323.69 68.652ZM1307.49 66.384C1309.37 68.256 1311.68 69.192 1314.44 69.192C1317.2 69.192 1319.51 68.256 1321.35 66.384C1323.23 64.488 1324.16 62.16 1324.16 59.4C1324.16 56.616 1323.23 54.288 1321.35 52.416C1319.51 50.52 1317.2 49.572 1314.44 49.572C1311.68 49.572 1309.37 50.52 1307.49 52.416C1305.65 54.288 1304.72 56.616 1304.72 59.4C1304.72 62.16 1305.65 64.488 1307.49 66.384ZM1352.49 68.652C1349.97 71.196 1346.88 72.468 1343.24 72.468C1339.59 72.468 1336.5 71.196 1333.98 68.652C1331.46 66.108 1330.2 63.024 1330.2 59.4C1330.2 55.752 1331.46 52.668 1333.98 50.148C1336.5 47.604 1339.59 46.332 1343.24 46.332C1346.88 46.332 1349.97 47.604 1352.49 50.148C1355.03 52.668 1356.3 55.752 1356.3 59.4C1356.3 63.024 1355.03 66.108 1352.49 68.652ZM1336.29 66.384C1338.16 68.256 1340.48 69.192 1343.24 69.192C1346 69.192 1348.3 68.256 1350.15 66.384C1352.02 64.488 1352.96 62.16 1352.96 59.4C1352.96 56.616 1352.02 54.288 1350.15 52.416C1348.3 50.52 1346 49.572 1343.24 49.572C1340.48 49.572 1338.16 50.52 1336.29 52.416C1334.44 54.288 1333.52 56.616 1333.52 59.4C1333.52 62.16 1334.44 64.488 1336.29 66.384ZM1378.65 72H1374.55L1363.68 59.904V72H1360.33V46.8H1363.68V58.176L1374.19 46.8H1378.29L1367.17 59.04L1378.65 72ZM1381.63 46.8H1384.98V72H1381.63V46.8ZM1406.05 46.8H1409.4V72H1406.7L1393.74 53.172V72H1390.39V46.8H1393.09L1406.05 65.592V46.8ZM1439.09 59.508V61.02C1439.09 64.308 1437.96 67.044 1435.7 69.228C1433.45 71.388 1430.46 72.468 1426.74 72.468C1422.9 72.468 1419.72 71.208 1417.2 68.688C1414.7 66.144 1413.45 63.048 1413.45 59.4C1413.45 55.752 1414.7 52.668 1417.2 50.148C1419.72 47.604 1422.87 46.332 1426.67 46.332C1428.99 46.332 1431.13 46.896 1433.07 48.024C1435.02 49.128 1436.52 50.592 1437.57 52.416L1434.69 54.108C1433.97 52.74 1432.88 51.648 1431.42 50.832C1429.98 49.992 1428.38 49.572 1426.63 49.572C1423.75 49.572 1421.39 50.52 1419.54 52.416C1417.69 54.288 1416.77 56.616 1416.77 59.4C1416.77 62.184 1417.69 64.512 1419.54 66.384C1421.41 68.256 1423.82 69.192 1426.77 69.192C1429.29 69.192 1431.33 68.58 1432.89 67.356C1434.45 66.108 1435.4 64.5 1435.74 62.532H1426.49V59.508H1439.09ZM1460.29 72.468C1457.94 72.468 1455.93 71.916 1454.25 70.812C1452.59 69.708 1451.43 68.196 1450.75 66.276L1453.63 64.62C1454.62 67.668 1456.86 69.192 1460.37 69.192C1462.09 69.192 1463.41 68.844 1464.33 68.148C1465.24 67.428 1465.69 66.48 1465.69 65.304C1465.69 64.104 1465.24 63.204 1464.33 62.604C1463.41 62.004 1461.89 61.368 1459.75 60.696C1458.7 60.36 1457.89 60.096 1457.34 59.904C1456.79 59.688 1456.09 59.376 1455.25 58.968C1454.44 58.536 1453.83 58.104 1453.42 57.672C1453.01 57.216 1452.64 56.628 1452.3 55.908C1451.99 55.188 1451.83 54.372 1451.83 53.46C1451.83 51.276 1452.6 49.548 1454.14 48.276C1455.67 46.98 1457.55 46.332 1459.75 46.332C1461.75 46.332 1463.47 46.836 1464.94 47.844C1466.43 48.852 1467.54 50.184 1468.29 51.84L1465.48 53.46C1464.4 50.868 1462.49 49.572 1459.75 49.572C1458.39 49.572 1457.28 49.908 1456.44 50.58C1455.6 51.252 1455.18 52.164 1455.18 53.316C1455.18 54.42 1455.58 55.26 1456.37 55.836C1457.16 56.412 1458.53 57.012 1460.47 57.636C1461.17 57.852 1461.66 58.008 1461.95 58.104C1462.24 58.2 1462.68 58.368 1463.28 58.608C1463.91 58.848 1464.36 59.04 1464.65 59.184C1464.94 59.328 1465.32 59.532 1465.8 59.796C1466.31 60.06 1466.68 60.312 1466.92 60.552C1467.16 60.792 1467.43 61.092 1467.75 61.452C1468.08 61.788 1468.32 62.136 1468.47 62.496C1468.61 62.856 1468.73 63.276 1468.83 63.756C1468.95 64.212 1469.01 64.704 1469.01 65.232C1469.01 67.44 1468.2 69.204 1466.59 70.524C1464.99 71.82 1462.89 72.468 1460.29 72.468ZM1476.14 68.832H1487.84V72H1472.79V46.8H1487.66V49.968H1476.14V57.708H1486.76V60.84H1476.14V68.832ZM1506.82 72L1501.17 62.352H1495.23V72H1491.88V46.8H1501.96C1504.12 46.8 1505.97 47.568 1507.51 49.104C1509.04 50.616 1509.81 52.452 1509.81 54.612C1509.81 56.244 1509.32 57.732 1508.34 59.076C1507.38 60.42 1506.13 61.368 1504.59 61.92L1510.53 72H1506.82ZM1495.23 49.932V59.328H1501.96C1503.21 59.328 1504.27 58.872 1505.13 57.96C1506.02 57.024 1506.46 55.908 1506.46 54.612C1506.46 53.316 1506.02 52.212 1505.13 51.3C1504.27 50.388 1503.21 49.932 1501.96 49.932H1495.23ZM1520.09 72L1511.09 46.8H1514.69L1522 67.824L1529.27 46.8H1532.91L1523.87 72H1520.09ZM1535.86 46.8H1539.21V72H1535.86V46.8ZM1556.46 72.468C1552.65 72.468 1549.49 71.208 1546.99 68.688C1544.52 66.168 1543.29 63.072 1543.29 59.4C1543.29 55.728 1544.52 52.632 1546.99 50.112C1549.49 47.592 1552.65 46.332 1556.46 46.332C1558.77 46.332 1560.88 46.884 1562.8 47.988C1564.74 49.092 1566.25 50.58 1567.33 52.452L1564.42 54.144C1563.7 52.752 1562.62 51.648 1561.18 50.832C1559.76 49.992 1558.19 49.572 1556.46 49.572C1553.56 49.572 1551.18 50.508 1549.33 52.38C1547.51 54.252 1546.6 56.592 1546.6 59.4C1546.6 62.184 1547.51 64.512 1549.33 66.384C1551.18 68.256 1553.56 69.192 1556.46 69.192C1558.19 69.192 1559.76 68.784 1561.18 67.968C1562.62 67.128 1563.7 66.024 1564.42 64.656L1567.33 66.312C1566.28 68.184 1564.78 69.684 1562.83 70.812C1560.89 71.916 1558.77 72.468 1556.46 72.468ZM1574.47 68.832H1586.17V72H1571.13V46.8H1585.99V49.968H1574.47V57.708H1585.09V60.84H1574.47V68.832Z" fill="white"/>
<path d="M1646 61C1646 59.1615 1645.64 57.341 1644.93 55.6424C1644.23 53.9439 1643.2 52.4005 1641.9 51.1005C1640.6 49.8005 1639.06 48.7693 1637.36 48.0657C1635.66 47.3621 1633.84 47 1632 47C1630.16 47 1628.34 47.3621 1626.64 48.0657C1624.94 48.7693 1623.4 49.8005 1622.1 51.1005C1620.8 52.4005 1619.77 53.9439 1619.07 55.6424C1618.36 57.341 1618 59.1615 1618 61L1632 61H1646Z" fill="#6BA4ED"/>
<path d="M1618 63C1618 64.8385 1618.36 66.659 1619.07 68.3576C1619.77 70.0561 1620.8 71.5995 1622.1 72.8995C1623.4 74.1995 1624.94 75.2307 1626.64 75.9343C1628.34 76.6379 1630.16 77 1632 77C1633.84 77 1635.66 76.6379 1637.36 75.9343C1639.06 75.2307 1640.6 74.1995 1641.9 72.8995C1643.2 71.5995 1644.23 70.0561 1644.93 68.3576C1645.64 66.659 1646 64.8385 1646 63L1632 63H1618Z" fill="#6BA4ED"/>
</g>
</svg>
