<svg width="37" height="38" viewBox="0 0 37 38" fill="none" xmlns="http://www.w3.org/2000/svg">
<g clip-path="url(#clip0_888_26222)">
<path d="M26.3201 0.5H20.0845V25.7029C20.0845 28.7058 17.6862 31.1725 14.7017 31.1725C11.7171 31.1725 9.31881 28.7058 9.31881 25.7029C9.31881 22.7537 11.6638 20.3405 14.5418 20.2333V13.9058C8.19961 14.013 3.08325 19.2145 3.08325 25.7029C3.08325 32.245 8.3062 37.5 14.755 37.5C21.2037 37.5 26.4266 32.1913 26.4266 25.7029V12.7797C28.7716 14.4957 31.6495 15.5145 34.6874 15.5681V9.24058C29.9975 9.07971 26.3201 5.21884 26.3201 0.5Z" fill="#CCCCCC"/>
</g>
<defs>
<clipPath id="clip0_888_26222">
<rect width="37" height="37" fill="white" transform="translate(0 0.5)"/>
</clipPath>
</defs>
</svg>
