<svg width="820" height="436" viewBox="0 0 820 436" fill="none" xmlns="http://www.w3.org/2000/svg">
<path opacity="0.06" d="M21.8506 150.435H111.816V168.135H39.6729V224.287H111.816V241.987H39.6729V330H21.8506V150.435ZM228.76 145.918C255.941 145.918 278.687 154.992 296.997 173.14C315.308 191.287 324.463 213.626 324.463 240.156C324.463 266.442 315.308 288.74 296.997 307.051C278.768 325.361 256.51 334.517 230.225 334.517C203.613 334.517 181.152 325.402 162.842 307.173C144.531 288.944 135.376 266.89 135.376 241.011C135.376 223.758 139.526 207.767 147.827 193.037C156.209 178.307 167.603 166.792 182.007 158.491C196.411 150.109 211.995 145.918 228.76 145.918ZM229.614 163.496C216.349 163.496 203.776 166.955 191.895 173.872C180.013 180.789 170.736 190.107 164.062 201.826C157.389 213.545 154.053 226.606 154.053 241.011C154.053 262.332 161.418 280.358 176.147 295.088C190.959 309.736 208.781 317.061 229.614 317.061C243.53 317.061 256.388 313.683 268.188 306.929C280.07 300.174 289.307 290.938 295.898 279.219C302.572 267.5 305.908 254.479 305.908 240.156C305.908 225.915 302.572 213.057 295.898 201.582C289.307 190.026 279.989 180.789 267.944 173.872C255.9 166.955 243.123 163.496 229.614 163.496ZM446.045 145.918C473.226 145.918 495.972 154.992 514.282 173.14C532.593 191.287 541.748 213.626 541.748 240.156C541.748 266.442 532.593 288.74 514.282 307.051C496.053 325.361 473.796 334.517 447.51 334.517C420.898 334.517 398.438 325.402 380.127 307.173C361.816 288.944 352.661 266.89 352.661 241.011C352.661 223.758 356.812 207.767 365.112 193.037C373.494 178.307 384.888 166.792 399.292 158.491C413.696 150.109 429.281 145.918 446.045 145.918ZM446.899 163.496C433.634 163.496 421.061 166.955 409.18 173.872C397.298 180.789 388.021 190.107 381.348 201.826C374.674 213.545 371.338 226.606 371.338 241.011C371.338 262.332 378.703 280.358 393.433 295.088C408.244 309.736 426.066 317.061 446.899 317.061C460.815 317.061 473.674 313.683 485.474 306.929C497.355 300.174 506.592 290.938 513.184 279.219C519.857 267.5 523.193 254.479 523.193 240.156C523.193 225.915 519.857 213.057 513.184 201.582C506.592 190.026 497.274 180.789 485.229 173.872C473.185 166.955 460.409 163.496 446.899 163.496ZM559.937 167.891V150.435H658.447V167.891H618.408V330H600.098V167.891H559.937ZM684.692 150.435H720.093C734.334 150.435 745.28 152.144 752.93 155.562C760.579 158.898 766.602 164.066 770.996 171.064C775.472 178.063 777.71 185.835 777.71 194.38C777.71 202.355 775.757 209.639 771.851 216.23C767.944 222.741 762.207 228.031 754.639 232.1C763.997 235.273 771.2 239.017 776.245 243.33C781.291 247.562 785.197 252.729 787.964 258.833C790.812 264.855 792.236 271.406 792.236 278.486C792.236 292.891 786.947 305.098 776.367 315.107C765.869 325.036 751.75 330 734.009 330H684.692V150.435ZM702.271 168.013V225.508H712.524C724.976 225.508 734.131 224.368 739.99 222.09C745.85 219.73 750.488 216.068 753.906 211.104C757.324 206.058 759.033 200.483 759.033 194.38C759.033 186.16 756.144 179.731 750.366 175.093C744.67 170.373 735.555 168.013 723.022 168.013H702.271ZM702.271 243.574V312.422H724.487C737.59 312.422 747.192 311.16 753.296 308.638C759.399 306.034 764.282 302.005 767.944 296.553C771.688 291.1 773.56 285.2 773.56 278.853C773.56 270.877 770.955 263.919 765.747 257.979C760.539 252.038 753.377 247.969 744.263 245.771C738.159 244.307 727.539 243.574 712.402 243.574H702.271ZM901.123 150.435L984.863 330H965.576L937.378 270.918H859.985L831.909 330H811.89L896.729 150.435H901.123ZM898.926 188.521L868.042 253.584H929.443L898.926 188.521ZM1012.82 150.435H1030.88V312.666H1099.85V330H1012.82V150.435ZM1128.3 150.435H1146.36V312.666H1215.33V330H1128.3V150.435Z" fill="black"/>
<path opacity="0.06" d="M2.41699 13.7344V3.26074H61.5234V13.7344H37.5V111H26.5137V13.7344H2.41699ZM128.32 0.550781C144.629 0.550781 158.276 5.99512 169.263 16.8838C180.249 27.7725 185.742 41.1758 185.742 57.0938C185.742 72.8652 180.249 86.2441 169.263 97.2305C158.325 108.217 144.971 113.71 129.199 113.71C113.232 113.71 99.7559 108.241 88.7695 97.3037C77.7832 86.3662 72.29 73.1338 72.29 57.6064C72.29 47.2549 74.7803 37.6602 79.7607 28.8223C84.79 19.9844 91.626 13.0752 100.269 8.09473C108.911 3.06543 118.262 0.550781 128.32 0.550781ZM128.833 11.0977C120.874 11.0977 113.33 13.1729 106.201 17.3232C99.0723 21.4736 93.5059 27.0645 89.502 34.0957C85.498 41.127 83.4961 48.9639 83.4961 57.6064C83.4961 70.3994 87.915 81.2148 96.7529 90.0527C105.64 98.8418 116.333 103.236 128.833 103.236C137.183 103.236 144.897 101.21 151.978 97.1572C159.106 93.1045 164.648 87.5625 168.604 80.5312C172.607 73.5 174.609 65.6875 174.609 57.0938C174.609 48.5488 172.607 40.834 168.604 33.9492C164.648 27.0156 159.058 21.4736 151.831 17.3232C144.604 13.1729 136.938 11.0977 128.833 11.0977ZM207.275 3.26074H228.735C241.04 3.26074 249.341 3.79785 253.638 4.87207C259.79 6.38574 264.819 9.51074 268.726 14.2471C272.632 18.9346 274.585 24.8428 274.585 31.9717C274.585 39.1494 272.681 45.082 268.872 49.7695C265.063 54.4082 259.814 57.5332 253.125 59.1445C248.242 60.3164 239.111 60.9023 225.732 60.9023H218.042V111H207.275V3.26074ZM218.042 13.7344V50.3555L236.279 50.5752C243.652 50.5752 249.048 49.916 252.466 48.5977C255.884 47.2305 258.569 45.0576 260.522 42.0791C262.476 39.0518 263.452 35.6826 263.452 31.9717C263.452 28.3584 262.476 25.0625 260.522 22.084C258.569 19.0566 255.981 16.9082 252.759 15.6387C249.585 14.3691 244.36 13.7344 237.085 13.7344H218.042Z" fill="black"/>
</svg>
