<svg width="130" height="48" viewBox="0 0 130 48" fill="none" xmlns="http://www.w3.org/2000/svg">
<g clip-path="url(#clip0_888_25866)">
<path fill-rule="evenodd" clip-rule="evenodd" d="M30.0538 1.4719C27.7671 2.27455 25.6977 2.9964 25.4552 3.07596L25.0143 3.22067L20.3802 1.63038C16.6981 0.366811 15.7269 0.0521258 15.6522 0.0986072C15.425 0.240275 5.83312 7.28928 5.7573 7.37036C5.68084 7.45215 5.68171 7.86669 5.76627 11.7184C5.81763 14.0601 5.86176 16.2831 5.86437 16.6585L5.86899 17.3409L2.95595 21.2144C1.35383 23.3448 0.0315427 25.1157 0.017684 25.1497C-0.00557685 25.2065 3.81078 36.9638 3.87241 37.0254C3.88741 37.0403 6.01127 37.6865 8.59214 38.4613C11.173 39.2361 13.3003 39.8878 13.3194 39.9095C13.3386 39.9312 14.6075 41.7489 16.1392 43.9489L18.924 47.9489L25.1546 47.9467L31.3853 47.9446L34.1777 43.881L36.9701 39.8173L37.2212 39.7362C37.3593 39.6915 39.4762 39.0433 41.9255 38.2957C44.3748 37.548 46.3875 36.9275 46.3982 36.9168C46.409 36.906 47.2723 34.2298 48.3166 30.9697L50.2154 25.042L50.0894 24.8751C50.0201 24.7834 48.6838 23.0255 47.12 20.9687L44.2767 17.2292L44.3465 12.2737C44.3872 9.39303 44.3963 7.29915 44.3683 7.27257C44.1826 7.09625 34.3339 0.0041258 34.2798 0.00781394C34.2422 0.0103631 32.3405 0.669183 30.0538 1.4719ZM30.5429 3.46099C28.7046 4.10479 27.1943 4.63572 27.1865 4.64087C27.1789 4.64597 27.552 5.83984 28.0158 7.29389C28.4795 8.74794 28.8417 9.96605 28.8206 10.0009C28.7996 10.0357 28.3967 10.6555 27.9252 11.3782L27.0682 12.6922L28.4508 14.7796L29.8336 16.8671L30.1203 16.9486C31.0595 17.2156 34.5969 18.1726 34.6446 18.1726C34.676 18.1726 35.1539 17.5994 35.7065 16.8987L36.7114 15.6247L37.7759 15.6241C38.3614 15.6238 39.6119 15.6074 40.5549 15.5877L42.2693 15.552L42.3034 12.6454C42.3221 11.0467 42.3502 9.42145 42.3659 9.03366L42.3943 8.32857L38.2136 5.30484C35.9143 3.64177 33.9998 2.28323 33.9592 2.28578C33.9185 2.28838 32.3812 2.8172 30.5429 3.46099ZM11.8846 5.3696C9.61839 7.03561 7.75535 8.40765 7.74442 8.4185C7.73355 8.4294 7.75888 9.98785 7.80073 11.8818C7.84258 13.7756 7.87752 15.4045 7.87834 15.5015L7.87986 15.6777H10.6514H13.423L14.4374 16.9523C14.9952 17.6533 15.4784 18.2269 15.5109 18.2269C15.5436 18.2269 16.6383 17.9275 17.9438 17.5616L20.3172 16.8962L21.6273 14.8975C22.3478 13.7982 22.9622 12.8523 22.9927 12.7954C23.039 12.709 22.9013 12.4706 22.1486 11.3342L21.249 9.97619L22.0644 7.36391C22.5129 5.92716 22.8795 4.72662 22.8792 4.69603C22.8784 4.64158 16.3349 2.37316 16.116 2.35146C16.0442 2.34436 14.5493 3.41055 11.8846 5.3696ZM24.2487 7.18764L23.478 9.65527L24.2682 10.8562C24.7028 11.5168 25.0667 12.0481 25.0768 12.037C25.0869 12.0258 25.4417 11.4851 25.8652 10.8353L26.6351 9.65386L25.865 7.22853C25.4415 5.89457 25.078 4.78444 25.0571 4.76155C25.0364 4.73872 24.6725 5.8304 24.2487 7.18764ZM23.3398 15.977C22.3911 17.4255 21.5755 18.6315 21.5273 18.657C21.479 18.6824 20.119 19.0729 18.5049 19.5246C16.8907 19.9764 15.5483 20.3524 15.5218 20.3601C15.4952 20.3679 16.3706 21.495 17.4671 22.8648L19.4608 25.3553L19.4294 25.8453C19.3758 26.6829 19.1812 31.6386 19.2012 31.6585C19.2116 31.6689 20.545 31.1749 22.1644 30.5608L25.1088 29.4441L28.0454 30.5407C29.6606 31.1438 30.9969 31.6224 31.0151 31.6042C31.0333 31.5861 30.9815 30.1661 30.9001 28.4486C30.8078 26.5037 30.7711 25.3015 30.8026 25.2611C30.8304 25.2255 31.7153 24.1027 32.7692 22.7661C33.823 21.4295 34.6764 20.3288 34.6657 20.3203C34.6515 20.3092 29.9989 19.0291 28.6737 18.6718C28.6133 18.6555 28.1326 17.9815 27.5092 17.0389C26.9253 16.156 26.1365 14.9633 25.7562 14.3885L25.0648 13.3432L23.3398 15.977ZM37.9139 17.6795L37.649 17.7116L36.7908 18.7964C36.3188 19.393 35.9489 19.897 35.9688 19.9163C35.9886 19.9356 36.6075 20.1146 37.3439 20.3139L38.683 20.6764L40.6592 19.2535C41.7461 18.4708 42.6936 17.7854 42.7649 17.7304C42.8914 17.6327 42.8387 17.6305 40.5367 17.6388C39.2398 17.6435 38.0596 17.6618 37.9139 17.6795ZM7.22768 17.6994C7.30991 17.7901 11.3999 20.6868 11.4743 20.707C11.5438 20.726 14.1543 20.042 14.2295 19.9852C14.2395 19.9777 13.8482 19.4692 13.3599 18.8553L12.4722 17.7391L10.7059 17.7387C9.73448 17.7385 8.54834 17.7229 8.07008 17.7039C7.59181 17.6849 7.21274 17.6829 7.22768 17.6994ZM91.3853 9.12391C90.0677 9.27219 88.4178 9.75962 87.1953 10.3618C83.4521 12.2056 80.9603 15.7069 80.4013 19.9082C80.2931 20.7214 80.2797 22.354 80.3749 23.1354C80.7139 25.9196 81.8399 28.372 83.6695 30.3112C85.2507 31.987 87.4118 33.2443 89.6979 33.8183C90.9071 34.1219 91.553 34.1961 92.9886 34.1963C94.3581 34.1966 94.979 34.1314 96.0864 33.8715C101.356 32.6343 105.087 28.3771 105.656 22.9525C105.748 22.0675 105.694 20.3307 105.547 19.5015C105.131 17.1534 104.223 15.1646 102.784 13.454C100.76 11.0467 97.7571 9.46484 94.5532 9.11794C93.9303 9.05047 92.0054 9.05411 91.3853 9.12391ZM108.369 21.6981V34.3354H110.407H112.445V23.4879V12.6404H119.211H125.978V23.4879V34.3354H127.989H129.999V21.6981V9.06078H119.184H108.369V21.6981ZM58.3146 11.3387V13.237H62.7983H67.282V23.515V33.793H69.2929H71.3038V23.515V13.237H75.7875H80.2712V11.3387V9.44044H69.2929H58.3146V11.3387ZM41.3038 21.2937C40.0932 22.1707 39.0782 22.8881 39.0483 22.8879C39.0184 22.8878 38.3024 22.6972 37.4571 22.4646L35.9203 22.0416L34.4408 23.9136C33.6271 24.9432 32.9284 25.8314 32.8881 25.8875C32.8263 25.9733 32.8334 26.3799 32.9332 28.466C32.9983 29.8282 33.0607 30.9576 33.072 30.9758C33.0833 30.994 33.7738 31.2607 34.6064 31.5684L36.1203 32.1281L36.9865 34.7297C37.4629 36.1605 37.8773 37.3409 37.9073 37.3526C37.9374 37.3644 39.5007 36.9035 41.3814 36.3285L44.8009 35.2828L46.3671 30.4023C47.2285 27.718 47.9274 25.4844 47.9201 25.4387C47.9021 25.3246 43.6269 19.6967 43.5592 19.698C43.5293 19.6986 42.5144 20.4166 41.3038 21.2937ZM4.43105 22.6347C3.23915 24.2208 2.26431 25.5437 2.2648 25.5744C2.26627 25.6666 5.43622 35.3355 5.47752 35.3739C5.49855 35.3934 6.94643 35.8377 8.69508 36.3612C10.4437 36.8848 11.9895 37.3482 12.1302 37.3911L12.3861 37.4691L13.2561 34.8278L14.1262 32.1864L15.609 31.6272C16.4245 31.3196 17.1107 31.0509 17.1338 31.03C17.1569 31.009 17.2233 29.8738 17.2813 28.5072L17.3869 26.0225L15.836 24.0772C14.8836 22.8826 14.2499 22.1327 14.1939 22.1339C14.1437 22.135 13.4311 22.3259 12.6103 22.5583L11.1179 22.9806L8.91464 21.4108C7.70285 20.5474 6.68589 19.8207 6.6548 19.796C6.6191 19.7677 5.79665 20.8176 4.43105 22.6347ZM92.1412 12.8585C89.0723 13.1544 86.4964 14.9118 85.2203 17.5807C84.0052 20.1219 84.0249 23.292 85.2712 25.7764C86.0624 27.3535 87.4456 28.7502 88.9639 29.5048C91.5274 30.779 94.783 30.7323 97.2407 29.3861C98.3044 28.8035 99.3395 27.8928 100.03 26.932C100.445 26.3546 100.958 25.3416 101.19 24.6404C101.718 23.0461 101.805 21.2019 101.432 19.5329C100.858 16.9609 99.2632 14.8815 96.9914 13.7428C95.6122 13.0516 93.7192 12.7064 92.1412 12.8585ZM22.8255 32.4906C21.585 32.9634 20.5384 33.3705 20.4998 33.3953C20.4475 33.4289 20.4123 33.8538 20.3622 35.053C20.3252 35.9399 20.2712 36.6877 20.2423 36.7149C20.2133 36.742 19.2156 37.4882 18.0251 38.3733L15.8606 39.9823L15.9559 40.1283C16.1752 40.4643 19.908 45.8122 19.9664 45.8742C20.0171 45.928 21.0937 45.9336 25.1909 45.9013L30.3515 45.8608L32.3732 42.932C33.4852 41.3211 34.3951 39.9787 34.3953 39.9489C34.3956 39.9191 33.5126 39.2479 32.4333 38.4574C31.3539 37.6669 30.3562 36.9309 30.2162 36.822L29.9616 36.6238L29.8908 35.0161C29.8274 33.5742 29.8101 33.4031 29.7235 33.3569C29.6282 33.3059 25.1134 31.62 25.092 31.6273C25.0859 31.6293 24.066 32.0178 22.8255 32.4906ZM31.8238 32.9885C31.8371 33.1476 31.8723 33.7895 31.9021 34.415C31.9389 35.186 31.9782 35.574 32.0241 35.6197C32.145 35.7402 36.113 38.6588 36.1332 38.6422C36.144 38.6333 35.7826 37.5199 35.3301 36.1679L34.5074 33.7097L33.2181 33.2284C32.509 32.9637 31.8998 32.7363 31.8643 32.7232C31.8179 32.706 31.8065 32.7801 31.8238 32.9885ZM17.0418 33.2663L15.7417 33.7659L14.9372 36.2065C14.4948 37.5489 14.1382 38.6642 14.1449 38.6849C14.1515 38.7057 15.0864 38.027 16.2222 37.1768L18.2875 35.6309L18.3208 35.051C18.3987 33.6952 18.4248 32.7626 18.3848 32.7646C18.3612 32.7658 17.7568 32.9916 17.0418 33.2663Z" fill="white"/>
<path d="M90.0237 44.1149C89.9106 44.1149 89.7868 44.1122 89.6522 44.1068C89.523 44.1014 89.3912 44.0933 89.2566 44.0826C89.1274 44.0718 88.9982 44.0583 88.869 44.0422C88.7398 44.026 88.6214 44.0045 88.5137 43.9776V38.5515C88.6214 38.5246 88.7398 38.5031 88.869 38.4869C88.9982 38.4708 89.1274 38.4573 89.2566 38.4465C89.3912 38.4358 89.523 38.4277 89.6522 38.4223C89.7814 38.4169 89.9026 38.4142 90.0156 38.4142C90.3386 38.4142 90.64 38.4385 90.9199 38.4869C91.2052 38.5353 91.4502 38.6188 91.6547 38.7372C91.8647 38.8503 92.0288 39.001 92.1473 39.1894C92.2657 39.3778 92.3249 39.6093 92.3249 39.8838C92.3249 40.1906 92.2522 40.4436 92.1069 40.6428C91.9616 40.8366 91.7678 40.9819 91.5255 41.0788C91.8539 41.1757 92.115 41.3291 92.3088 41.5391C92.5026 41.749 92.5994 42.0451 92.5994 42.4273C92.5994 42.9871 92.3922 43.4097 91.9777 43.695C91.5686 43.9749 90.9173 44.1149 90.0237 44.1149ZM89.2889 41.4583V43.4285C89.3481 43.4339 89.4181 43.4393 89.4988 43.4447C89.5688 43.4501 89.6496 43.4554 89.7411 43.4608C89.838 43.4608 89.9483 43.4608 90.0721 43.4608C90.3036 43.4608 90.5216 43.4474 90.7262 43.4204C90.9361 43.3881 91.1191 43.3343 91.2752 43.259C91.4313 43.1836 91.5551 43.0786 91.6467 42.944C91.7435 42.8095 91.792 42.6399 91.792 42.4354C91.792 42.2523 91.757 42.0989 91.687 41.9751C91.617 41.8459 91.5148 41.7436 91.3802 41.6683C91.251 41.5929 91.0949 41.5391 90.9119 41.5068C90.7288 41.4745 90.5243 41.4583 90.2982 41.4583H89.2889ZM89.2889 40.8285H90.1125C90.3063 40.8285 90.4893 40.8151 90.6616 40.7881C90.8338 40.7612 90.9818 40.7128 91.1057 40.6428C91.2349 40.5728 91.3344 40.4813 91.4044 40.3683C91.4798 40.2552 91.5175 40.1126 91.5175 39.9403C91.5175 39.7788 91.4798 39.6443 91.4044 39.5366C91.3291 39.4235 91.2241 39.3347 91.0895 39.2701C90.9603 39.2002 90.8069 39.149 90.6293 39.1167C90.4516 39.0844 90.2632 39.0683 90.064 39.0683C89.8649 39.0683 89.7088 39.071 89.5957 39.0763C89.4827 39.0817 89.3804 39.0898 89.2889 39.1006V40.8285ZM97.1743 41.967C97.1743 42.3008 97.1259 42.6022 97.029 42.8714C96.9321 43.1405 96.7948 43.372 96.6172 43.5658C96.4449 43.7596 96.2377 43.9103 95.9954 44.018C95.7532 44.1202 95.4894 44.1714 95.2041 44.1714C94.9188 44.1714 94.655 44.1202 94.4128 44.018C94.1706 43.9103 93.9606 43.7596 93.783 43.5658C93.6107 43.372 93.4762 43.1405 93.3793 42.8714C93.2824 42.6022 93.2339 42.3008 93.2339 41.967C93.2339 41.6387 93.2824 41.3399 93.3793 41.0708C93.4762 40.7962 93.6107 40.5621 93.783 40.3683C93.9606 40.1745 94.1706 40.0264 94.4128 39.9242C94.655 39.8165 94.9188 39.7627 95.2041 39.7627C95.4894 39.7627 95.7532 39.8165 95.9954 39.9242C96.2377 40.0264 96.4449 40.1745 96.6172 40.3683C96.7948 40.5621 96.9321 40.7962 97.029 41.0708C97.1259 41.3399 97.1743 41.6387 97.1743 41.967ZM96.3911 41.967C96.3911 41.4933 96.2834 41.1192 96.0681 40.8447C95.8582 40.5647 95.5702 40.4248 95.2041 40.4248C94.8381 40.4248 94.5474 40.5647 94.3321 40.8447C94.1221 41.1192 94.0172 41.4933 94.0172 41.967C94.0172 42.4407 94.1221 42.8175 94.3321 43.0975C94.5474 43.372 94.8381 43.5093 95.2041 43.5093C95.5702 43.5093 95.8582 43.372 96.0681 43.0975C96.2834 42.8175 96.3911 42.4407 96.3911 41.967ZM99.5954 39.7788C99.66 39.7788 99.7327 39.7842 99.8134 39.795C99.8995 39.8004 99.983 39.8111 100.064 39.8273C100.144 39.838 100.217 39.8515 100.282 39.8676C100.352 39.8784 100.403 39.8892 100.435 39.8999L100.306 40.554C100.247 40.5325 100.147 40.5082 100.007 40.4813C99.8726 40.449 99.6977 40.4329 99.4824 40.4329C99.3424 40.4329 99.2024 40.449 99.0625 40.4813C98.9279 40.5082 98.8391 40.5271 98.796 40.5378V44.0664H98.0451V40.0453C98.2227 39.9807 98.4434 39.9215 98.7072 39.8676C98.971 39.8084 99.267 39.7788 99.5954 39.7788ZM100.974 39.9888C101.146 39.9457 101.375 39.8999 101.66 39.8515C101.946 39.8031 102.274 39.7788 102.645 39.7788C102.979 39.7788 103.256 39.8273 103.477 39.9242C103.698 40.0157 103.873 40.1476 104.002 40.3198C104.137 40.4867 104.231 40.6886 104.285 40.9254C104.338 41.1623 104.365 41.4233 104.365 41.7086V44.0664H103.614V41.8701C103.614 41.6117 103.596 41.391 103.558 41.208C103.526 41.025 103.469 40.877 103.388 40.7639C103.308 40.6509 103.2 40.5701 103.065 40.5217C102.931 40.4679 102.764 40.4409 102.565 40.4409C102.484 40.4409 102.401 40.4436 102.314 40.449C102.228 40.4544 102.145 40.4625 102.064 40.4732C101.989 40.4786 101.919 40.4867 101.854 40.4975C101.795 40.5082 101.752 40.5163 101.725 40.5217V44.0664H100.974V39.9888ZM107.81 39.8676H109.401V40.4975H107.81V42.4354C107.81 42.6453 107.827 42.8202 107.859 42.9602C107.891 43.0948 107.94 43.2024 108.004 43.2832C108.069 43.3585 108.15 43.4124 108.247 43.4447C108.343 43.477 108.456 43.4931 108.586 43.4931C108.812 43.4931 108.992 43.4689 109.127 43.4204C109.267 43.3666 109.363 43.3289 109.417 43.3074L109.563 43.9291C109.487 43.9668 109.355 44.0126 109.167 44.0664C108.979 44.1256 108.763 44.1552 108.521 44.1552C108.236 44.1552 107.999 44.1202 107.81 44.0503C107.627 43.9749 107.479 43.8645 107.366 43.7192C107.253 43.5739 107.173 43.3962 107.124 43.1863C107.081 42.971 107.06 42.7233 107.06 42.4434V38.6968L107.81 38.5676V39.8676ZM113.767 41.967C113.767 42.3008 113.718 42.6022 113.621 42.8714C113.525 43.1405 113.387 43.372 113.21 43.5658C113.037 43.7596 112.83 43.9103 112.588 44.018C112.346 44.1202 112.082 44.1714 111.797 44.1714C111.511 44.1714 111.248 44.1202 111.005 44.018C110.763 43.9103 110.553 43.7596 110.376 43.5658C110.203 43.372 110.069 43.1405 109.972 42.8714C109.875 42.6022 109.826 42.3008 109.826 41.967C109.826 41.6387 109.875 41.3399 109.972 41.0708C110.069 40.7962 110.203 40.5621 110.376 40.3683C110.553 40.1745 110.763 40.0264 111.005 39.9242C111.248 39.8165 111.511 39.7627 111.797 39.7627C112.082 39.7627 112.346 39.8165 112.588 39.9242C112.83 40.0264 113.037 40.1745 113.21 40.3683C113.387 40.5621 113.525 40.7962 113.621 41.0708C113.718 41.3399 113.767 41.6387 113.767 41.967ZM112.984 41.967C112.984 41.4933 112.876 41.1192 112.661 40.8447C112.451 40.5647 112.163 40.4248 111.797 40.4248C111.431 40.4248 111.14 40.5647 110.925 40.8447C110.715 41.1192 110.61 41.4933 110.61 41.967C110.61 42.4407 110.715 42.8175 110.925 43.0975C111.14 43.372 111.431 43.5093 111.797 43.5093C112.163 43.5093 112.451 43.372 112.661 43.0975C112.876 42.8175 112.984 42.4407 112.984 41.967ZM119.236 41.9751C119.236 41.4852 119.115 41.1084 118.872 40.8447C118.63 40.5809 118.307 40.449 117.903 40.449C117.677 40.449 117.5 40.4571 117.37 40.4732C117.247 40.4894 117.147 40.5082 117.072 40.5298V43.1782C117.163 43.2536 117.295 43.3262 117.467 43.3962C117.64 43.4662 117.828 43.5012 118.033 43.5012C118.248 43.5012 118.431 43.4635 118.582 43.3881C118.738 43.3074 118.864 43.1997 118.961 43.0652C119.058 42.9252 119.128 42.7637 119.171 42.5807C119.214 42.3923 119.236 42.1904 119.236 41.9751ZM120.019 41.9751C120.019 42.2927 119.976 42.5861 119.89 42.8552C119.809 43.1244 119.688 43.3558 119.526 43.5496C119.365 43.7434 119.166 43.8941 118.929 44.0018C118.697 44.1095 118.431 44.1633 118.129 44.1633C117.887 44.1633 117.672 44.131 117.483 44.0664C117.3 44.0018 117.163 43.9399 117.072 43.8807V45.5602H116.321V39.9968C116.498 39.9538 116.719 39.908 116.983 39.8596C117.252 39.8057 117.562 39.7788 117.911 39.7788C118.234 39.7788 118.525 39.83 118.783 39.9322C119.042 40.0345 119.263 40.1799 119.446 40.3683C119.629 40.5567 119.769 40.7881 119.865 41.0627C119.968 41.3318 120.019 41.636 120.019 41.9751ZM122.149 44.1472C121.687 44.1364 121.358 44.0368 121.164 43.8484C120.971 43.66 120.874 43.3666 120.874 42.9683V37.9298L121.625 37.8006V42.8472C121.625 42.971 121.635 43.0732 121.657 43.154C121.678 43.2347 121.713 43.2993 121.762 43.3478C121.81 43.3962 121.875 43.4339 121.956 43.4608C122.036 43.4823 122.136 43.5012 122.254 43.5173L122.149 44.1472ZM124.333 43.5254C124.511 43.5254 124.667 43.5227 124.801 43.5173C124.941 43.5066 125.057 43.4904 125.149 43.4689V42.2173C125.095 42.1904 125.006 42.1689 124.882 42.1527C124.764 42.1312 124.618 42.1204 124.446 42.1204C124.333 42.1204 124.212 42.1285 124.083 42.1447C123.959 42.1608 123.843 42.1958 123.736 42.2496C123.633 42.2981 123.547 42.3681 123.477 42.4596C123.407 42.5457 123.372 42.6614 123.372 42.8068C123.372 43.0759 123.458 43.2643 123.631 43.372C123.803 43.4743 124.037 43.5254 124.333 43.5254ZM124.269 39.7627C124.57 39.7627 124.823 39.8031 125.028 39.8838C125.237 39.9592 125.404 40.0695 125.528 40.2149C125.657 40.3548 125.749 40.5244 125.803 40.7235C125.857 40.9173 125.883 41.1327 125.883 41.3695V43.9937C125.819 44.0045 125.727 44.0207 125.609 44.0422C125.496 44.0583 125.367 44.0745 125.221 44.0906C125.076 44.1068 124.917 44.1202 124.745 44.131C124.578 44.1472 124.411 44.1552 124.244 44.1552C124.007 44.1552 123.789 44.131 123.59 44.0826C123.391 44.0341 123.219 43.9587 123.073 43.8565C122.928 43.7488 122.815 43.6088 122.734 43.4366C122.654 43.2643 122.613 43.0571 122.613 42.8149C122.613 42.5834 122.659 42.3842 122.751 42.2173C122.847 42.0505 122.977 41.9159 123.138 41.8136C123.3 41.7113 123.488 41.636 123.703 41.5875C123.919 41.5391 124.145 41.5149 124.382 41.5149C124.457 41.5149 124.535 41.5202 124.616 41.531C124.696 41.5364 124.772 41.5472 124.842 41.5633C124.917 41.5741 124.982 41.5848 125.036 41.5956C125.089 41.6064 125.127 41.6144 125.149 41.6198V41.4099C125.149 41.2861 125.135 41.165 125.108 41.0465C125.081 40.9227 125.033 40.8151 124.963 40.7235C124.893 40.6267 124.796 40.5513 124.672 40.4975C124.554 40.4382 124.398 40.4086 124.204 40.4086C123.956 40.4086 123.738 40.4275 123.55 40.4652C123.367 40.4975 123.23 40.5325 123.138 40.5701L123.049 39.9484C123.146 39.9053 123.308 39.865 123.534 39.8273C123.76 39.7842 124.005 39.7627 124.269 39.7627ZM126.334 44.8496C126.393 44.8766 126.469 44.9008 126.56 44.9223C126.657 44.9492 126.751 44.9627 126.843 44.9627C127.139 44.9627 127.37 44.8954 127.537 44.7608C127.704 44.6316 127.855 44.419 127.989 44.1229C127.65 43.477 127.333 42.7933 127.037 42.072C126.746 41.3453 126.504 40.6105 126.31 39.8676H127.117C127.177 40.1099 127.247 40.371 127.327 40.6509C127.413 40.9308 127.508 41.2188 127.61 41.5149C127.712 41.8109 127.823 42.107 127.941 42.4031C128.059 42.6991 128.183 42.9844 128.312 43.259C128.517 42.6937 128.695 42.1339 128.845 41.5794C128.996 41.025 129.139 40.4544 129.273 39.8676H130.048C129.855 40.659 129.639 41.4207 129.402 42.1527C129.166 42.8794 128.91 43.5604 128.635 44.1956C128.528 44.4378 128.415 44.6451 128.296 44.8173C128.183 44.995 128.057 45.1403 127.917 45.2534C127.777 45.3664 127.618 45.4498 127.44 45.5037C127.268 45.5575 127.072 45.5844 126.851 45.5844C126.792 45.5844 126.73 45.579 126.665 45.5683C126.601 45.5629 126.536 45.5521 126.471 45.536C126.412 45.5252 126.356 45.5117 126.302 45.4956C126.253 45.4794 126.218 45.466 126.197 45.4552L126.334 44.8496Z" fill="white"/>
</g>
<defs>
<clipPath id="clip0_888_25866">
<rect width="130" height="48" fill="white"/>
</clipPath>
</defs>
</svg>
