<svg width="171" height="63" viewBox="0 0 171 63" fill="none" xmlns="http://www.w3.org/2000/svg">
    <g clip-path="url(#clip0_888_26193)">
        <path fill-rule="evenodd" clip-rule="evenodd"
            d="M39.5326 1.93137C36.5247 2.98486 33.8027 3.93228 33.4837 4.03671L32.9038 4.22664L26.8082 2.13938C21.9647 0.480951 20.6872 0.0679268 20.589 0.128934C20.2901 0.314873 7.67311 9.56669 7.57338 9.67311C7.4728 9.78046 7.47394 10.3245 7.58518 15.3799C7.65274 18.4534 7.71078 21.3711 7.71422 21.8638L7.72029 22.7595L3.88852 27.8435C1.78112 30.6396 0.0418063 32.9639 0.0235768 33.0085C-0.00702019 33.0831 5.01296 48.5145 5.09403 48.5953C5.11376 48.6149 7.90745 49.463 11.3023 50.48C14.6971 51.4969 17.4953 52.3523 17.5205 52.3808C17.5457 52.4092 19.2148 54.795 21.2295 57.6825L24.8926 62.9325L33.0883 62.9296L41.284 62.9268L44.9571 57.5933L48.6302 52.2598L48.9605 52.1533C49.1421 52.0946 51.9267 51.2439 55.1484 50.2626C58.3702 49.2813 61.0177 48.4669 61.0318 48.4528C61.046 48.4387 62.1815 44.9261 63.5552 40.6472L66.0529 32.8671L65.8871 32.6481C65.796 32.5277 64.0383 30.2204 61.9813 27.5209L58.2411 22.6128L58.3331 16.1088C58.3866 12.3279 58.3985 9.57965 58.3617 9.54476C58.1175 9.31334 45.1626 0.00492683 45.0914 0.00976751C45.042 0.0131133 42.5405 0.877815 39.5326 1.93137ZM40.176 4.54207C37.7579 5.38705 35.7712 6.08389 35.7611 6.09066C35.751 6.09735 36.2418 7.6643 36.8518 9.57274C37.4619 11.4812 37.9383 13.08 37.9105 13.1257C37.8829 13.1714 37.3528 13.9848 36.7327 14.9334L35.6054 16.658L37.4241 19.3978L39.2429 22.1376L39.6201 22.2446C40.8555 22.595 45.5085 23.8511 45.5713 23.8511C45.6126 23.8511 46.2412 23.0987 46.9682 22.179L48.2899 20.5069L49.6901 20.5061C50.4603 20.5057 52.1052 20.4842 53.3456 20.4584L55.6007 20.4115L55.6455 16.5966C55.6702 14.4983 55.7072 12.3652 55.7278 11.8562L55.7651 10.9308L50.2659 6.96212C47.2414 4.77933 44.7231 2.99625 44.6697 2.9996C44.6162 3.00301 42.5941 3.69708 40.176 4.54207ZM15.6331 7.04712C12.6522 9.23375 10.2016 11.0346 10.1872 11.0488C10.1729 11.0631 10.2062 13.1086 10.2613 15.5943C10.3163 18.08 10.3623 20.2179 10.3634 20.3452L10.3654 20.5765H14.011H17.6567L18.991 22.2494C19.7248 23.1695 20.3604 23.9223 20.4032 23.9223C20.4461 23.9223 21.8861 23.5293 23.6033 23.049L26.7253 22.1758L28.4485 19.5524C29.3963 18.1096 30.2044 16.8681 30.2445 16.7935C30.3055 16.6801 30.1244 16.3672 29.1342 14.8756L27.9509 13.0933L29.0235 9.66464C29.6134 7.77891 30.0957 6.2032 30.0952 6.16305C30.0943 6.09158 21.487 3.11428 21.1991 3.0858C21.1045 3.07648 19.1382 4.47586 15.6331 7.04712ZM31.8966 9.43329L30.8829 12.6721L31.9224 14.2483C32.4941 15.1153 32.9727 15.8127 32.986 15.7981C32.9993 15.7834 33.4659 15.0737 34.023 14.2209L35.0358 12.6702L34.0228 9.48696C33.4657 7.73613 32.9875 6.27909 32.9601 6.24905C32.9328 6.21908 32.4542 7.65192 31.8966 9.43329ZM30.7011 20.9693C29.4532 22.8705 28.3803 24.4534 28.3169 24.4868C28.2535 24.5202 26.4645 25.0327 24.3413 25.6256C22.2181 26.2185 20.4524 26.712 20.4174 26.7222C20.3824 26.7324 21.534 28.2117 22.9763 30.0095L25.5987 33.2783L25.5575 33.9215C25.4869 35.0208 25.231 41.5251 25.2572 41.5513C25.271 41.5649 27.0249 40.9166 29.1551 40.1105L33.028 38.6449L36.8908 40.0842C39.0154 40.8757 40.7732 41.5039 40.7971 41.4801C40.821 41.4563 40.7529 39.5925 40.6458 37.3383C40.5245 34.7856 40.4761 33.2077 40.5176 33.1547C40.5542 33.108 41.7182 31.6343 43.1044 29.88C44.4905 28.1257 45.6131 26.6811 45.599 26.6699C45.5804 26.6553 39.4605 24.9752 37.7173 24.5062C37.6378 24.4849 37.0055 23.6002 36.1855 22.363C35.4175 21.2042 34.3799 19.6389 33.8796 18.8844L32.9701 17.5124L30.7011 20.9693ZM49.8717 23.2038L49.5233 23.246L48.3944 24.6697C47.7735 25.4528 47.2869 26.1143 47.3131 26.1396C47.3392 26.165 48.1532 26.3999 49.122 26.6615L50.8834 27.1373L53.4827 25.2697C54.9124 24.2425 56.1588 23.3429 56.2526 23.2706C56.4191 23.1424 56.3496 23.1395 53.3216 23.1504C51.6158 23.1566 50.0633 23.1806 49.8717 23.2038ZM9.5075 23.23C9.61566 23.349 14.9955 27.1509 15.0934 27.1775C15.1848 27.2023 18.6186 26.3047 18.7176 26.2301C18.7307 26.2202 18.216 25.5529 17.5737 24.7471L16.4061 23.2821L14.0828 23.2816C12.8049 23.2813 11.2447 23.2608 10.6156 23.2359C9.98647 23.211 9.48784 23.2084 9.5075 23.23ZM120.207 11.9746C118.474 12.1693 116.304 12.809 114.696 13.5994C109.772 16.0193 106.494 20.6148 105.759 26.1291C105.617 27.1964 105.599 29.3391 105.724 30.3647C106.17 34.019 107.651 37.2378 110.058 39.783C112.138 41.9824 114.98 43.6326 117.987 44.386C119.578 44.7845 120.428 44.8819 122.316 44.8822C124.117 44.8825 124.934 44.797 126.391 44.4558C133.322 42.832 138.23 37.2445 138.978 30.1247C139.1 28.9631 139.028 26.6835 138.835 25.5952C138.288 22.5134 137.093 19.903 135.201 17.6579C132.538 14.4983 128.589 12.4221 124.374 11.9668C123.555 11.8783 121.023 11.883 120.207 11.9746ZM142.547 28.4782V45.0647H145.228H147.909V30.8274V16.5901H156.809H165.709V30.8274V45.0647H168.355H171V28.4782V11.8918H156.773H142.547V28.4782ZM76.7065 14.8816V17.3731H82.6043H88.5021V30.863V44.3528H91.1471H93.7922V30.863V17.3731H99.69H105.588V14.8816V12.3901H91.1471H76.7065V14.8816ZM54.3307 27.9475C52.7383 29.0986 51.4032 30.0402 51.3639 30.0399C51.3246 30.0397 50.3827 29.7896 49.2709 29.4843L47.2493 28.9291L45.3033 31.3861C44.2329 32.7374 43.3138 33.9033 43.2608 33.9768C43.1796 34.0894 43.1889 34.6231 43.3201 37.3611C43.4058 39.149 43.4879 40.6313 43.5028 40.6552C43.5176 40.6791 44.4258 41.0292 45.521 41.4331L47.5124 42.1676L48.6518 45.5822C49.2784 47.4602 49.8235 49.0094 49.863 49.0248C49.9025 49.0403 51.9589 48.4354 54.4328 47.6806L58.9307 46.3082L60.9909 39.9026C62.124 36.3794 63.0432 33.4478 63.0337 33.3878C63.0101 33.238 57.3865 25.8514 57.2974 25.8531C57.2581 25.8539 55.9231 26.7963 54.3307 27.9475ZM5.82886 29.7076C4.26105 31.7893 2.97876 33.5256 2.9794 33.5659C2.98133 33.6869 7.15103 46.3774 7.20536 46.4277C7.23303 46.4533 9.13755 47.0365 11.4377 47.7236C13.7378 48.4108 15.7712 49.019 15.9562 49.0753L16.2927 49.1777L17.4372 45.711L18.5817 42.2442L20.5321 41.5102C21.6049 41.1065 22.5074 40.7538 22.5378 40.7263C22.5682 40.6989 22.6556 39.2089 22.7319 37.4152L22.8708 34.1541L20.8307 31.6009C19.5779 30.0329 18.7444 29.0487 18.6707 29.0503C18.6047 29.0517 17.6674 29.3023 16.5877 29.6072L14.6246 30.1616L11.7265 28.1011C10.1325 26.9679 8.79483 26.0142 8.75394 25.9817C8.70697 25.9446 7.62514 27.3226 5.82886 29.7076ZM121.201 16.8763C117.165 17.2646 113.776 19.5713 112.098 23.0742C110.5 26.4095 110.525 30.5702 112.165 33.8311C113.205 35.901 115.025 37.7341 117.022 38.7246C120.394 40.3969 124.676 40.3356 127.909 38.5688C129.308 37.8041 130.67 36.6088 131.579 35.3477C132.125 34.5899 132.799 33.2603 133.104 32.34C133.798 30.2475 133.913 27.827 133.423 25.6364C132.668 22.2607 130.57 19.5314 127.581 18.037C125.767 17.1297 123.277 16.6767 121.201 16.8763ZM30.0246 42.6435C28.3929 43.264 27.0163 43.7983 26.9654 43.8309C26.8967 43.8749 26.8503 44.4326 26.7844 46.0066C26.7358 47.1706 26.6648 48.1522 26.6267 48.1878C26.5886 48.2233 25.2762 49.2028 23.7103 50.3644L20.8631 52.4763L20.9885 52.6679C21.2769 53.1089 26.1869 60.1281 26.2639 60.2094C26.3306 60.28 27.7467 60.2874 33.136 60.245L39.9242 60.1918L42.5836 56.3477C44.0462 54.2335 45.2431 52.4716 45.2434 52.4325C45.2437 52.3933 44.0823 51.5124 42.6626 50.4748C41.2427 49.4373 39.9304 48.4714 39.7463 48.3283L39.4113 48.0683L39.3183 45.9582C39.2348 44.0656 39.2121 43.8411 39.0981 43.7804C38.9728 43.7135 33.0342 41.5007 33.0059 41.5103C32.998 41.513 31.6564 42.0229 30.0246 42.6435ZM41.8609 43.2969C41.8783 43.5057 41.9247 44.3482 41.9639 45.1692C42.0123 46.1811 42.064 46.6904 42.1243 46.7504C42.2834 46.9085 47.5027 50.7392 47.5294 50.7174C47.5436 50.7058 47.0682 49.2444 46.473 47.4698L45.3908 44.2435L43.6949 43.6118C42.7621 43.2644 41.9608 42.9659 41.9142 42.9487C41.853 42.9261 41.8382 43.0234 41.8609 43.2969ZM22.4168 43.6616L20.7066 44.3172L19.6485 47.5206C19.0665 49.2825 18.5975 50.7463 18.6062 50.7735C18.615 50.8007 19.8447 49.91 21.3388 48.794L24.0554 46.7651L24.0992 46.0039C24.2017 44.2245 24.236 43.0005 24.1833 43.0031C24.1523 43.0047 23.3573 43.301 22.4168 43.6616Z"
            fill="white" />
        <path
            d="M124.404 55.6988C124.291 55.6988 124.167 55.6961 124.032 55.6908C123.903 55.6854 123.771 55.6773 123.637 55.6665C123.507 55.6558 123.378 55.6423 123.249 55.6262C123.12 55.61 123.001 55.5885 122.894 55.5616V50.1355C123.001 50.1086 123.12 50.087 123.249 50.0709C123.378 50.0547 123.507 50.0413 123.637 50.0305C123.771 50.0197 123.903 50.0117 124.032 50.0063C124.161 50.0009 124.283 49.9982 124.396 49.9982C124.719 49.9982 125.02 50.0224 125.3 50.0709C125.585 50.1193 125.83 50.2028 126.035 50.3212C126.245 50.4342 126.409 50.585 126.527 50.7734C126.646 50.9618 126.705 51.1932 126.705 51.4678C126.705 51.7746 126.632 52.0276 126.487 52.2268C126.342 52.4206 126.148 52.5659 125.906 52.6628C126.234 52.7597 126.495 52.9131 126.689 53.1231C126.883 53.333 126.979 53.6291 126.979 54.0113C126.979 54.5711 126.772 54.9937 126.358 55.279C125.949 55.5589 125.297 55.6988 124.404 55.6988ZM123.669 53.0423V55.0125C123.728 55.0179 123.798 55.0233 123.879 55.0287C123.949 55.034 124.03 55.0394 124.121 55.0448C124.218 55.0448 124.328 55.0448 124.452 55.0448C124.684 55.0448 124.902 55.0313 125.106 55.0044C125.316 54.9721 125.499 54.9183 125.655 54.8429C125.811 54.7676 125.935 54.6626 126.027 54.528C126.124 54.3935 126.172 54.2239 126.172 54.0193C126.172 53.8363 126.137 53.6829 126.067 53.5591C125.997 53.4299 125.895 53.3276 125.76 53.2523C125.631 53.1769 125.475 53.1231 125.292 53.0908C125.109 53.0585 124.904 53.0423 124.678 53.0423H123.669ZM123.669 52.4125H124.492C124.686 52.4125 124.869 52.399 125.042 52.3721C125.214 52.3452 125.362 52.2968 125.486 52.2268C125.615 52.1568 125.714 52.0653 125.784 51.9523C125.86 51.8392 125.897 51.6966 125.897 51.5243C125.897 51.3628 125.86 51.2282 125.784 51.1206C125.709 51.0075 125.604 50.9187 125.469 50.8541C125.34 50.7841 125.187 50.733 125.009 50.7007C124.832 50.6684 124.643 50.6523 124.444 50.6523C124.245 50.6523 124.089 50.6549 123.976 50.6603C123.863 50.6657 123.76 50.6738 123.669 50.6846V52.4125ZM131.554 53.551C131.554 53.8848 131.506 54.1862 131.409 54.4554C131.312 54.7245 131.175 54.956 130.997 55.1498C130.825 55.3436 130.618 55.4943 130.375 55.6019C130.133 55.7042 129.869 55.7554 129.584 55.7554C129.299 55.7554 129.035 55.7042 128.793 55.6019C128.551 55.4943 128.341 55.3436 128.163 55.1498C127.991 54.956 127.856 54.7245 127.759 54.4554C127.662 54.1862 127.614 53.8848 127.614 53.551C127.614 53.2226 127.662 52.9239 127.759 52.6547C127.856 52.3802 127.991 52.146 128.163 51.9523C128.341 51.7585 128.551 51.6104 128.793 51.5082C129.035 51.4005 129.299 51.3467 129.584 51.3467C129.869 51.3467 130.133 51.4005 130.375 51.5082C130.618 51.6104 130.825 51.7585 130.997 51.9523C131.175 52.146 131.312 52.3802 131.409 52.6547C131.506 52.9239 131.554 53.2226 131.554 53.551ZM130.771 53.551C130.771 53.0773 130.663 52.7032 130.448 52.4287C130.238 52.1487 129.95 52.0088 129.584 52.0088C129.218 52.0088 128.927 52.1487 128.712 52.4287C128.502 52.7032 128.397 53.0773 128.397 53.551C128.397 54.0247 128.502 54.4015 128.712 54.6814C128.927 54.956 129.218 55.0932 129.584 55.0932C129.95 55.0932 130.238 54.956 130.448 54.6814C130.663 54.4015 130.771 54.0247 130.771 53.551ZM133.975 51.3628C134.04 51.3628 134.113 51.3682 134.193 51.379C134.28 51.3843 134.363 51.3951 134.444 51.4113C134.524 51.422 134.597 51.4355 134.662 51.4516C134.732 51.4624 134.783 51.4732 134.815 51.4839L134.686 52.138C134.627 52.1164 134.527 52.0922 134.387 52.0653C134.253 52.033 134.078 52.0168 133.862 52.0168C133.722 52.0168 133.582 52.033 133.442 52.0653C133.308 52.0922 133.219 52.1111 133.176 52.1218V55.6504H132.425V51.6293C132.603 51.5647 132.823 51.5055 133.087 51.4516C133.351 51.3924 133.647 51.3628 133.975 51.3628ZM135.354 51.5728C135.526 51.5297 135.755 51.4839 136.04 51.4355C136.326 51.387 136.654 51.3628 137.025 51.3628C137.359 51.3628 137.636 51.4113 137.857 51.5082C138.078 51.5997 138.253 51.7315 138.382 51.9038C138.517 52.0707 138.611 52.2725 138.665 52.5094C138.718 52.7462 138.745 53.0073 138.745 53.2926V55.6504H137.994V53.4541C137.994 53.1957 137.976 52.975 137.938 52.792C137.906 52.609 137.849 52.4609 137.768 52.3479C137.688 52.2349 137.58 52.1541 137.445 52.1057C137.311 52.0518 137.144 52.0249 136.945 52.0249C136.864 52.0249 136.781 52.0276 136.694 52.033C136.608 52.0384 136.525 52.0465 136.444 52.0572C136.369 52.0626 136.299 52.0707 136.234 52.0814C136.175 52.0922 136.132 52.1003 136.105 52.1057V55.6504H135.354V51.5728ZM142.19 51.4516H143.781V52.0814H142.19V54.0193C142.19 54.2293 142.207 54.4042 142.239 54.5442C142.271 54.6788 142.32 54.7864 142.384 54.8672C142.449 54.9425 142.53 54.9964 142.626 55.0287C142.723 55.0609 142.836 55.0771 142.966 55.0771C143.192 55.0771 143.372 55.0529 143.507 55.0044C143.647 54.9506 143.743 54.9129 143.797 54.8914L143.943 55.5131C143.867 55.5508 143.735 55.5966 143.547 55.6504C143.359 55.7096 143.143 55.7392 142.901 55.7392C142.616 55.7392 142.379 55.7042 142.19 55.6342C142.007 55.5589 141.859 55.4485 141.746 55.3032C141.633 55.1578 141.553 54.9802 141.504 54.7703C141.461 54.5549 141.44 54.3073 141.44 54.0274V50.2808L142.19 50.1516V51.4516ZM148.147 53.551C148.147 53.8848 148.098 54.1862 148.001 54.4554C147.905 54.7245 147.767 54.956 147.59 55.1498C147.417 55.3436 147.21 55.4943 146.968 55.6019C146.726 55.7042 146.462 55.7554 146.177 55.7554C145.891 55.7554 145.628 55.7042 145.385 55.6019C145.143 55.4943 144.933 55.3436 144.756 55.1498C144.583 54.956 144.449 54.7245 144.352 54.4554C144.255 54.1862 144.206 53.8848 144.206 53.551C144.206 53.2226 144.255 52.9239 144.352 52.6547C144.449 52.3802 144.583 52.146 144.756 51.9523C144.933 51.7585 145.143 51.6104 145.385 51.5082C145.628 51.4005 145.891 51.3467 146.177 51.3467C146.462 51.3467 146.726 51.4005 146.968 51.5082C147.21 51.6104 147.417 51.7585 147.59 51.9523C147.767 52.146 147.905 52.3802 148.001 52.6547C148.098 52.9239 148.147 53.2226 148.147 53.551ZM147.364 53.551C147.364 53.0773 147.256 52.7032 147.041 52.4287C146.831 52.1487 146.543 52.0088 146.177 52.0088C145.811 52.0088 145.52 52.1487 145.305 52.4287C145.095 52.7032 144.99 53.0773 144.99 53.551C144.99 54.0247 145.095 54.4015 145.305 54.6814C145.52 54.956 145.811 55.0932 146.177 55.0932C146.543 55.0932 146.831 54.956 147.041 54.6814C147.256 54.4015 147.364 54.0247 147.364 53.551ZM153.616 53.5591C153.616 53.0692 153.495 52.6924 153.252 52.4287C153.01 52.1649 152.687 52.033 152.283 52.033C152.057 52.033 151.88 52.0411 151.75 52.0572C151.627 52.0734 151.527 52.0922 151.452 52.1137V54.7622C151.543 54.8376 151.675 54.9102 151.847 54.9802C152.02 55.0502 152.208 55.0852 152.413 55.0852C152.628 55.0852 152.811 55.0475 152.962 54.9721C153.118 54.8914 153.244 54.7837 153.341 54.6491C153.438 54.5092 153.508 54.3477 153.551 54.1647C153.594 53.9763 153.616 53.7744 153.616 53.5591ZM154.399 53.5591C154.399 53.8767 154.356 54.1701 154.27 54.4392C154.189 54.7084 154.068 54.9398 153.906 55.1336C153.745 55.3274 153.546 55.4781 153.309 55.5858C153.077 55.6935 152.811 55.7473 152.509 55.7473C152.267 55.7473 152.052 55.715 151.863 55.6504C151.68 55.5858 151.543 55.5239 151.452 55.4647V57.1442H150.701V51.5808C150.878 51.5378 151.099 51.492 151.363 51.4436C151.632 51.3897 151.941 51.3628 152.291 51.3628C152.614 51.3628 152.905 51.414 153.163 51.5162C153.422 51.6185 153.643 51.7638 153.826 51.9523C154.009 52.1407 154.149 52.3721 154.245 52.6467C154.348 52.9158 154.399 53.22 154.399 53.5591ZM156.529 55.7311C156.067 55.7204 155.738 55.6208 155.544 55.4324C155.351 55.244 155.254 54.9506 155.254 54.5523V49.5137L156.005 49.3846V54.4311C156.005 54.5549 156.015 54.6572 156.037 54.738C156.058 54.8187 156.093 54.8833 156.142 54.9318C156.19 54.9802 156.255 55.0179 156.336 55.0448C156.416 55.0663 156.516 55.0852 156.634 55.1013L156.529 55.7311ZM158.713 55.1094C158.891 55.1094 159.047 55.1067 159.181 55.1013C159.321 55.0906 159.437 55.0744 159.529 55.0529V53.8013C159.475 53.7744 159.386 53.7529 159.262 53.7367C159.144 53.7152 158.998 53.7044 158.826 53.7044C158.713 53.7044 158.592 53.7125 158.463 53.7287C158.339 53.7448 158.223 53.7798 158.116 53.8336C158.013 53.8821 157.927 53.952 157.857 54.0436C157.787 54.1297 157.752 54.2454 157.752 54.3908C157.752 54.6599 157.838 54.8483 158.011 54.956C158.183 55.0583 158.417 55.1094 158.713 55.1094ZM158.649 51.3467C158.95 51.3467 159.203 51.387 159.408 51.4678C159.617 51.5431 159.784 51.6535 159.908 51.7988C160.037 51.9388 160.129 52.1084 160.183 52.3075C160.237 52.5013 160.263 52.7166 160.263 52.9535V55.5777C160.199 55.5885 160.107 55.6046 159.989 55.6262C159.876 55.6423 159.747 55.6585 159.601 55.6746C159.456 55.6908 159.297 55.7042 159.125 55.715C158.958 55.7311 158.791 55.7392 158.624 55.7392C158.387 55.7392 158.169 55.715 157.97 55.6665C157.771 55.6181 157.599 55.5427 157.453 55.4405C157.308 55.3328 157.195 55.1928 157.114 55.0206C157.034 54.8483 156.993 54.6411 156.993 54.3988C156.993 54.1674 157.039 53.9682 157.13 53.8013C157.227 53.6344 157.357 53.4999 157.518 53.3976C157.68 53.2953 157.868 53.22 158.083 53.1715C158.299 53.1231 158.525 53.0988 158.762 53.0988C158.837 53.0988 158.915 53.1042 158.996 53.115C159.076 53.1204 159.152 53.1311 159.222 53.1473C159.297 53.1581 159.362 53.1688 159.416 53.1796C159.469 53.1903 159.507 53.1984 159.529 53.2038V52.9939C159.529 52.8701 159.515 52.7489 159.488 52.6305C159.461 52.5067 159.413 52.399 159.343 52.3075C159.273 52.2106 159.176 52.1353 159.052 52.0814C158.934 52.0222 158.778 51.9926 158.584 51.9926C158.336 51.9926 158.118 52.0115 157.93 52.0491C157.747 52.0814 157.61 52.1164 157.518 52.1541L157.429 51.5324C157.526 51.4893 157.688 51.4489 157.914 51.4113C158.14 51.3682 158.385 51.3467 158.649 51.3467ZM160.714 56.4336C160.773 56.4605 160.849 56.4848 160.94 56.5063C161.037 56.5332 161.131 56.5467 161.223 56.5467C161.519 56.5467 161.75 56.4794 161.917 56.3448C162.084 56.2156 162.235 56.003 162.369 55.7069C162.03 55.0609 161.713 54.3773 161.417 53.656C161.126 52.9293 160.884 52.1945 160.69 51.4516H161.497C161.557 51.6939 161.626 51.9549 161.707 52.2349C161.793 52.5148 161.888 52.8028 161.99 53.0988C162.092 53.3949 162.202 53.691 162.321 53.987C162.439 54.2831 162.563 54.5684 162.692 54.8429C162.897 54.2777 163.075 53.7179 163.225 53.1634C163.376 52.609 163.519 52.0384 163.653 51.4516H164.428C164.235 52.2429 164.019 53.0046 163.782 53.7367C163.546 54.4634 163.29 55.1444 163.015 55.7796C162.908 56.0218 162.795 56.2291 162.676 56.4013C162.563 56.579 162.437 56.7243 162.297 56.8373C162.157 56.9504 161.998 57.0338 161.82 57.0877C161.648 57.1415 161.452 57.1684 161.231 57.1684C161.172 57.1684 161.11 57.163 161.045 57.1523C160.981 57.1469 160.916 57.1361 160.851 57.12C160.792 57.1092 160.736 57.0957 160.682 57.0796C160.633 57.0634 160.598 57.05 160.577 57.0392L160.714 56.4336Z"
            fill="white" />
    </g>
    <defs>
        <clipPath id="clip0_888_26193">
            <rect width="171" height="63" fill="white" />
        </clipPath>
    </defs>
</svg>